M48
;GenerationSoftware,Autodesk,EAGLE,9.6.2*%
;CreationDate,2022-07-25T13:06:42Z*%
FMAT,2
ICI,OFF
METRIC,TZ,000.000
T3C0.350
T2C1.016
T1C1.700
%
G90
M71
T1
X55797Y20288
X48797Y20288
T2
X52616Y31119
X5398Y17859
X14843Y31829
X5398Y15319
X5398Y12779
X49238Y7457
X51435Y8731
X53632Y10005
X50412Y32381
T3
X41672Y12938
X45402Y27384
X45336Y23032
X11098Y30783
X45830Y19039
X19606Y31353
X22832Y10674
X3334Y20717
X16215Y12122
X5432Y28654
X9446Y20161
X49689Y18098
X40481Y15954
X37125Y22236
X42307Y25888
X40817Y23160
X20439Y19956
X50641Y23733
X20439Y18908
X40878Y20876
X20439Y17780
X51514Y10557
X53261Y12462
X49530Y9446
X46241Y16828
X33734Y20479
X33893Y17701
X33893Y18686
X26829Y17463
X40014Y29122
X40506Y27228
X13176Y8493
X20479Y21193
X47466Y30321
X48022Y26511
X6032Y21352
X18256Y30797
X20638Y30162
X41473Y22265
X6906Y18415
X21193Y11668
X23654Y11747
X54689Y23733
X8176Y25241
X50641Y12938
X45561Y33655
M30