G04 EAGLE Gerber RS-274X export*
G75*
%MOMM*%
%FSLAX34Y34*%
%LPD*%
%INTop Copper*%
%IPPOS*%
%AMOC8*
5,1,8,0,0,1.08239X$1,22.5*%
G01*
%ADD10R,0.800000X0.800000*%
%ADD11C,1.000000*%
%ADD12P,1.649562X8X22.500000*%
%ADD13R,1.000000X1.100000*%
%ADD14C,1.524000*%
%ADD15R,1.600000X1.000000*%
%ADD16R,0.500000X0.800000*%
%ADD17R,2.600000X2.800000*%
%ADD18R,2.200000X2.800000*%
%ADD19R,2.800000X2.800000*%
%ADD20R,1.408000X1.408000*%
%ADD21C,1.408000*%
%ADD22R,1.100000X1.000000*%
%ADD23C,0.609600*%
%ADD24C,0.812800*%
%ADD25C,0.756400*%
%ADD26C,0.656400*%
%ADD27C,0.152400*%
%ADD28C,0.508000*%
%ADD29C,0.254000*%
%ADD30C,0.304800*%
%ADD31C,0.406400*%
%ADD32C,0.203200*%
%ADD33C,0.706400*%

G36*
X-150796Y-173690D02*
X-150796Y-173690D01*
X-150719Y-173691D01*
X-150695Y-173681D01*
X-150675Y-173680D01*
X-150635Y-173659D01*
X-150563Y-173633D01*
X-134063Y-164133D01*
X-134042Y-164114D01*
X-134015Y-164101D01*
X-133981Y-164063D01*
X-133978Y-164061D01*
X-133976Y-164057D01*
X-133968Y-164048D01*
X-133914Y-164001D01*
X-133902Y-163975D01*
X-133882Y-163954D01*
X-133859Y-163886D01*
X-133828Y-163822D01*
X-133827Y-163793D01*
X-133818Y-163766D01*
X-133822Y-163694D01*
X-133819Y-163623D01*
X-133829Y-163596D01*
X-133831Y-163567D01*
X-133874Y-163477D01*
X-133888Y-163437D01*
X-133896Y-163429D01*
X-133902Y-163416D01*
X-135643Y-160893D01*
X-135668Y-160869D01*
X-135694Y-160831D01*
X-137818Y-158619D01*
X-137846Y-158600D01*
X-137878Y-158566D01*
X-140330Y-156724D01*
X-140360Y-156710D01*
X-140398Y-156681D01*
X-143113Y-155256D01*
X-143145Y-155247D01*
X-143186Y-155225D01*
X-146095Y-154254D01*
X-146121Y-154251D01*
X-146131Y-154249D01*
X-146173Y-154235D01*
X-149199Y-153743D01*
X-149233Y-153744D01*
X-149279Y-153736D01*
X-149289Y-153736D01*
X-149289Y-151143D01*
X-146493Y-151511D01*
X-143696Y-152261D01*
X-141020Y-153369D01*
X-138512Y-154817D01*
X-136214Y-156580D01*
X-134166Y-158628D01*
X-133163Y-159936D01*
X-133095Y-159999D01*
X-133032Y-160069D01*
X-133005Y-160083D01*
X-132983Y-160104D01*
X-132899Y-160143D01*
X-132817Y-160188D01*
X-132787Y-160194D01*
X-132760Y-160207D01*
X-132667Y-160216D01*
X-132575Y-160233D01*
X-132545Y-160229D01*
X-132515Y-160232D01*
X-132424Y-160212D01*
X-132332Y-160199D01*
X-132297Y-160184D01*
X-132275Y-160179D01*
X-132247Y-160162D01*
X-132178Y-160132D01*
X-102449Y-142968D01*
X-102360Y-142895D01*
X-102270Y-142825D01*
X-102265Y-142818D01*
X-102258Y-142812D01*
X-102197Y-142715D01*
X-102135Y-142620D01*
X-102132Y-142611D01*
X-102128Y-142604D01*
X-102101Y-142492D01*
X-102072Y-142382D01*
X-102072Y-142373D01*
X-102070Y-142365D01*
X-102080Y-142251D01*
X-102088Y-142137D01*
X-102091Y-142127D01*
X-102092Y-142120D01*
X-102101Y-142098D01*
X-102143Y-141978D01*
X-102390Y-141466D01*
X-102410Y-141437D01*
X-102423Y-141405D01*
X-102480Y-141337D01*
X-102531Y-141264D01*
X-102559Y-141244D01*
X-102582Y-141217D01*
X-102647Y-141172D01*
X-102837Y-140557D01*
X-102851Y-140528D01*
X-102878Y-140451D01*
X-103156Y-139874D01*
X-103150Y-139803D01*
X-103134Y-139715D01*
X-103140Y-139681D01*
X-103137Y-139647D01*
X-103168Y-139482D01*
X-103817Y-137375D01*
X-103833Y-137344D01*
X-103840Y-137310D01*
X-103887Y-137235D01*
X-103927Y-137155D01*
X-103951Y-137130D01*
X-103969Y-137101D01*
X-104028Y-137047D01*
X-104123Y-136411D01*
X-104133Y-136379D01*
X-104149Y-136300D01*
X-104337Y-135688D01*
X-104321Y-135618D01*
X-104292Y-135534D01*
X-104292Y-135499D01*
X-104284Y-135465D01*
X-104291Y-135298D01*
X-104618Y-133118D01*
X-104629Y-133085D01*
X-104632Y-133050D01*
X-104657Y-132991D01*
X-104666Y-132948D01*
X-104681Y-132923D01*
X-104694Y-132884D01*
X-104714Y-132856D01*
X-104728Y-132824D01*
X-104778Y-132762D01*
X-104777Y-132118D01*
X-104783Y-132086D01*
X-104786Y-132005D01*
X-104881Y-131372D01*
X-104854Y-131305D01*
X-104814Y-131226D01*
X-104809Y-131192D01*
X-104796Y-131159D01*
X-104777Y-130993D01*
X-104776Y-128789D01*
X-104782Y-128754D01*
X-104779Y-128720D01*
X-104802Y-128634D01*
X-104816Y-128546D01*
X-104832Y-128515D01*
X-104841Y-128482D01*
X-104881Y-128413D01*
X-104784Y-127777D01*
X-104785Y-127744D01*
X-104776Y-127663D01*
X-104776Y-127023D01*
X-104739Y-126961D01*
X-104687Y-126889D01*
X-104677Y-126856D01*
X-104660Y-126826D01*
X-104616Y-126664D01*
X-104287Y-124484D01*
X-104288Y-124449D01*
X-104280Y-124416D01*
X-104289Y-124327D01*
X-104290Y-124238D01*
X-104302Y-124206D01*
X-104305Y-124171D01*
X-104334Y-124097D01*
X-104269Y-123886D01*
X-104258Y-123804D01*
X-104238Y-123725D01*
X-104241Y-123683D01*
X-104235Y-123642D01*
X-104251Y-123561D01*
X-104257Y-123479D01*
X-104273Y-123441D01*
X-104281Y-123400D01*
X-104321Y-123329D01*
X-104354Y-123253D01*
X-104388Y-123211D01*
X-104402Y-123186D01*
X-104423Y-123167D01*
X-104430Y-123155D01*
X-104438Y-123148D01*
X-104459Y-123122D01*
X-104474Y-123107D01*
X-104547Y-123055D01*
X-104584Y-123021D01*
X-104589Y-123019D01*
X-104617Y-122995D01*
X-104647Y-122983D01*
X-104674Y-122964D01*
X-104761Y-122937D01*
X-104845Y-122903D01*
X-104886Y-122899D01*
X-104909Y-122892D01*
X-104941Y-122893D01*
X-105012Y-122885D01*
X-107901Y-122885D01*
X-110717Y-120069D01*
X-110717Y-116087D01*
X-107901Y-113271D01*
X-103919Y-113271D01*
X-102000Y-115191D01*
X-101980Y-115205D01*
X-101964Y-115224D01*
X-101880Y-115276D01*
X-101800Y-115334D01*
X-101777Y-115341D01*
X-101756Y-115354D01*
X-101660Y-115377D01*
X-101565Y-115406D01*
X-101540Y-115406D01*
X-101517Y-115411D01*
X-101418Y-115403D01*
X-101319Y-115400D01*
X-101296Y-115392D01*
X-101272Y-115389D01*
X-101181Y-115350D01*
X-101088Y-115316D01*
X-101069Y-115300D01*
X-101046Y-115290D01*
X-100973Y-115224D01*
X-100896Y-115162D01*
X-100883Y-115141D01*
X-100865Y-115125D01*
X-100776Y-114983D01*
X-100659Y-114741D01*
X-100599Y-114701D01*
X-100521Y-114659D01*
X-100498Y-114633D01*
X-100469Y-114614D01*
X-100360Y-114487D01*
X-99415Y-113103D01*
X-99415Y-113102D01*
X-99117Y-112666D01*
X-99103Y-112634D01*
X-99081Y-112607D01*
X-99051Y-112524D01*
X-99014Y-112443D01*
X-99010Y-112408D01*
X-98998Y-112376D01*
X-98992Y-112297D01*
X-98554Y-111825D01*
X-98536Y-111798D01*
X-98483Y-111736D01*
X-98122Y-111207D01*
X-98057Y-111177D01*
X-97974Y-111146D01*
X-97947Y-111125D01*
X-97915Y-111110D01*
X-97788Y-111000D01*
X-96289Y-109385D01*
X-96269Y-109356D01*
X-96244Y-109332D01*
X-96233Y-109312D01*
X-96218Y-109296D01*
X-96191Y-109238D01*
X-96153Y-109180D01*
X-96144Y-109147D01*
X-96127Y-109116D01*
X-96120Y-109085D01*
X-96114Y-109073D01*
X-96112Y-109048D01*
X-96110Y-109039D01*
X-95606Y-108637D01*
X-95584Y-108613D01*
X-95523Y-108560D01*
X-95087Y-108091D01*
X-95018Y-108070D01*
X-94931Y-108053D01*
X-94901Y-108035D01*
X-94868Y-108025D01*
X-94726Y-107936D01*
X-93002Y-106562D01*
X-92979Y-106537D01*
X-92950Y-106517D01*
X-92897Y-106446D01*
X-92837Y-106380D01*
X-92823Y-106348D01*
X-92802Y-106320D01*
X-92774Y-106246D01*
X-92216Y-105925D01*
X-92191Y-105904D01*
X-92122Y-105861D01*
X-91621Y-105462D01*
X-91550Y-105452D01*
X-91461Y-105447D01*
X-91429Y-105435D01*
X-91395Y-105430D01*
X-91241Y-105362D01*
X-89332Y-104261D01*
X-89305Y-104239D01*
X-89274Y-104224D01*
X-89210Y-104161D01*
X-89142Y-104105D01*
X-89123Y-104076D01*
X-89098Y-104052D01*
X-89059Y-103983D01*
X-88460Y-103748D01*
X-88431Y-103731D01*
X-88357Y-103698D01*
X-87802Y-103378D01*
X-87731Y-103379D01*
X-87642Y-103388D01*
X-87608Y-103380D01*
X-87574Y-103381D01*
X-87412Y-103337D01*
X-85360Y-102532D01*
X-85330Y-102515D01*
X-85297Y-102504D01*
X-85225Y-102452D01*
X-85148Y-102407D01*
X-85125Y-102380D01*
X-85097Y-102360D01*
X-85048Y-102298D01*
X-84421Y-102155D01*
X-84390Y-102143D01*
X-84312Y-102121D01*
X-83716Y-101888D01*
X-83645Y-101899D01*
X-83559Y-101921D01*
X-83524Y-101918D01*
X-83490Y-101924D01*
X-83323Y-101905D01*
X-81174Y-101415D01*
X-81142Y-101402D01*
X-81108Y-101397D01*
X-81029Y-101356D01*
X-80946Y-101322D01*
X-80920Y-101300D01*
X-80889Y-101284D01*
X-80831Y-101230D01*
X-80189Y-101182D01*
X-80157Y-101174D01*
X-80077Y-101165D01*
X-79452Y-101023D01*
X-79384Y-101044D01*
X-79302Y-101079D01*
X-79267Y-101082D01*
X-79234Y-101092D01*
X-79067Y-101098D01*
X-76869Y-100934D01*
X-76835Y-100926D01*
X-76800Y-100926D01*
X-76716Y-100897D01*
X-76630Y-100876D01*
X-76600Y-100858D01*
X-76567Y-100847D01*
X-76502Y-100802D01*
X-75860Y-100850D01*
X-75827Y-100847D01*
X-75746Y-100850D01*
X-75108Y-100803D01*
X-75043Y-100834D01*
X-74967Y-100881D01*
X-74934Y-100889D01*
X-74903Y-100904D01*
X-74738Y-100935D01*
X-72540Y-101100D01*
X-72505Y-101097D01*
X-72471Y-101102D01*
X-72383Y-101087D01*
X-72295Y-101079D01*
X-72263Y-101065D01*
X-72229Y-101059D01*
X-72157Y-101024D01*
X-71530Y-101168D01*
X-71497Y-101170D01*
X-71417Y-101185D01*
X-70779Y-101233D01*
X-70720Y-101274D01*
X-70652Y-101331D01*
X-70620Y-101344D01*
X-70591Y-101363D01*
X-70433Y-101419D01*
X-68284Y-101910D01*
X-68249Y-101912D01*
X-68216Y-101922D01*
X-68127Y-101919D01*
X-68038Y-101925D01*
X-68005Y-101916D01*
X-67970Y-101915D01*
X-67894Y-101892D01*
X-67295Y-102127D01*
X-67263Y-102134D01*
X-67187Y-102160D01*
X-66562Y-102303D01*
X-66510Y-102352D01*
X-66451Y-102419D01*
X-66421Y-102436D01*
X-66396Y-102460D01*
X-66248Y-102538D01*
X-64196Y-103344D01*
X-64162Y-103352D01*
X-64131Y-103367D01*
X-64043Y-103377D01*
X-63956Y-103396D01*
X-63921Y-103392D01*
X-63887Y-103396D01*
X-63808Y-103385D01*
X-63251Y-103707D01*
X-63220Y-103718D01*
X-63149Y-103756D01*
X-62553Y-103990D01*
X-62508Y-104047D01*
X-62460Y-104121D01*
X-62433Y-104143D01*
X-62412Y-104170D01*
X-62277Y-104270D01*
X-60368Y-105372D01*
X-60336Y-105385D01*
X-60307Y-105404D01*
X-60221Y-105428D01*
X-60138Y-105459D01*
X-60103Y-105461D01*
X-60070Y-105470D01*
X-59991Y-105470D01*
X-59488Y-105871D01*
X-59459Y-105887D01*
X-59393Y-105935D01*
X-58839Y-106256D01*
X-58804Y-106318D01*
X-58767Y-106399D01*
X-58744Y-106425D01*
X-58727Y-106455D01*
X-58608Y-106573D01*
X-56885Y-107948D01*
X-56855Y-107965D01*
X-56829Y-107989D01*
X-56817Y-107994D01*
X-56814Y-107997D01*
X-56786Y-108008D01*
X-56748Y-108025D01*
X-56670Y-108068D01*
X-56636Y-108075D01*
X-56605Y-108089D01*
X-56526Y-108101D01*
X-56089Y-108573D01*
X-56063Y-108593D01*
X-56005Y-108650D01*
X-55505Y-109050D01*
X-55484Y-109103D01*
X-55474Y-109148D01*
X-55467Y-109161D01*
X-55455Y-109202D01*
X-55435Y-109231D01*
X-55423Y-109263D01*
X-55323Y-109398D01*
X-53825Y-111014D01*
X-53797Y-111036D01*
X-53776Y-111063D01*
X-53701Y-111111D01*
X-53630Y-111165D01*
X-53598Y-111177D01*
X-53568Y-111195D01*
X-53493Y-111219D01*
X-53130Y-111751D01*
X-53107Y-111775D01*
X-53059Y-111840D01*
X-52624Y-112309D01*
X-52609Y-112379D01*
X-52598Y-112467D01*
X-52583Y-112499D01*
X-52575Y-112533D01*
X-52496Y-112681D01*
X-52186Y-113136D01*
X-52167Y-113157D01*
X-52161Y-113165D01*
X-52145Y-113179D01*
X-52107Y-113219D01*
X-52030Y-113304D01*
X-52023Y-113308D01*
X-52017Y-113314D01*
X-51916Y-113368D01*
X-51816Y-113423D01*
X-51807Y-113425D01*
X-51799Y-113429D01*
X-51686Y-113447D01*
X-51574Y-113468D01*
X-51565Y-113467D01*
X-51557Y-113469D01*
X-51444Y-113450D01*
X-51330Y-113434D01*
X-51321Y-113430D01*
X-51314Y-113429D01*
X-51294Y-113418D01*
X-51177Y-113367D01*
X-21453Y-96206D01*
X-21380Y-96147D01*
X-21304Y-96094D01*
X-21286Y-96070D01*
X-21262Y-96050D01*
X-21213Y-95971D01*
X-21157Y-95896D01*
X-21148Y-95868D01*
X-21132Y-95842D01*
X-21110Y-95751D01*
X-21081Y-95662D01*
X-21081Y-95632D01*
X-21074Y-95603D01*
X-21082Y-95510D01*
X-21083Y-95417D01*
X-21094Y-95380D01*
X-21096Y-95358D01*
X-21109Y-95328D01*
X-21130Y-95255D01*
X-21778Y-93691D01*
X-22528Y-90893D01*
X-22906Y-88022D01*
X-22906Y-85126D01*
X-22528Y-82254D01*
X-21778Y-79457D01*
X-21607Y-79043D01*
X-18783Y-79043D01*
X-19393Y-80493D01*
X-19400Y-80527D01*
X-19419Y-80572D01*
X-20147Y-83676D01*
X-20148Y-83712D01*
X-20159Y-83759D01*
X-20359Y-86941D01*
X-20354Y-86976D01*
X-20357Y-87025D01*
X-20024Y-90196D01*
X-20014Y-90229D01*
X-20008Y-90278D01*
X-19151Y-93349D01*
X-19135Y-93380D01*
X-19122Y-93427D01*
X-17764Y-96313D01*
X-17747Y-96336D01*
X-17737Y-96363D01*
X-17688Y-96415D01*
X-17645Y-96472D01*
X-17620Y-96487D01*
X-17600Y-96508D01*
X-17535Y-96537D01*
X-17474Y-96572D01*
X-17445Y-96576D01*
X-17418Y-96588D01*
X-17347Y-96589D01*
X-17277Y-96598D01*
X-17249Y-96590D01*
X-17219Y-96591D01*
X-17126Y-96556D01*
X-17085Y-96544D01*
X-17076Y-96537D01*
X-17063Y-96533D01*
X-813Y-87176D01*
X15438Y-96533D01*
X15466Y-96542D01*
X15490Y-96559D01*
X15560Y-96573D01*
X15627Y-96596D01*
X15656Y-96593D01*
X15685Y-96599D01*
X15754Y-96585D01*
X15825Y-96580D01*
X15851Y-96566D01*
X15880Y-96561D01*
X15939Y-96521D01*
X16002Y-96488D01*
X16020Y-96466D01*
X16044Y-96449D01*
X16101Y-96367D01*
X16128Y-96335D01*
X16131Y-96324D01*
X16139Y-96313D01*
X17497Y-93427D01*
X17505Y-93393D01*
X17526Y-93349D01*
X18383Y-90278D01*
X18386Y-90243D01*
X18399Y-90196D01*
X18732Y-87025D01*
X18729Y-86990D01*
X18734Y-86941D01*
X18534Y-83759D01*
X18525Y-83725D01*
X18522Y-83676D01*
X17794Y-80572D01*
X17779Y-80540D01*
X17768Y-80493D01*
X16532Y-77553D01*
X16512Y-77524D01*
X16493Y-77479D01*
X14785Y-74787D01*
X14761Y-74762D01*
X14734Y-74721D01*
X12601Y-72351D01*
X12573Y-72330D01*
X12540Y-72294D01*
X10041Y-70313D01*
X10010Y-70297D01*
X9972Y-70267D01*
X7177Y-68731D01*
X7144Y-68720D01*
X7101Y-68697D01*
X7021Y-68669D01*
X5587Y-68170D01*
X4154Y-67671D01*
X4154Y-67670D01*
X4090Y-67648D01*
X4055Y-67644D01*
X4009Y-67627D01*
X865Y-67096D01*
X830Y-67097D01*
X782Y-67089D01*
X761Y-67089D01*
X761Y-51498D01*
X758Y-51479D01*
X760Y-51459D01*
X738Y-51358D01*
X722Y-51256D01*
X712Y-51238D01*
X708Y-51219D01*
X655Y-51130D01*
X606Y-51038D01*
X592Y-51025D01*
X582Y-51008D01*
X503Y-50940D01*
X428Y-50869D01*
X410Y-50861D01*
X395Y-50848D01*
X299Y-50809D01*
X205Y-50765D01*
X185Y-50763D01*
X167Y-50756D01*
X0Y-50737D01*
X-69462Y-50737D01*
X-71768Y-48431D01*
X-71769Y-48431D01*
X-75145Y-45055D01*
X-75219Y-45002D01*
X-75288Y-44942D01*
X-75318Y-44930D01*
X-75344Y-44911D01*
X-75431Y-44884D01*
X-75516Y-44850D01*
X-75557Y-44846D01*
X-75579Y-44839D01*
X-75612Y-44840D01*
X-75683Y-44832D01*
X-80258Y-44832D01*
X-80277Y-44835D01*
X-80297Y-44833D01*
X-80398Y-44855D01*
X-80501Y-44871D01*
X-80518Y-44881D01*
X-80538Y-44885D01*
X-80627Y-44938D01*
X-80718Y-44987D01*
X-80732Y-45001D01*
X-80749Y-45011D01*
X-80816Y-45090D01*
X-80887Y-45165D01*
X-80896Y-45183D01*
X-80909Y-45198D01*
X-80947Y-45294D01*
X-80991Y-45388D01*
X-80993Y-45408D01*
X-81001Y-45426D01*
X-81019Y-45593D01*
X-81019Y-47407D01*
X-81890Y-48277D01*
X-81901Y-48294D01*
X-81917Y-48306D01*
X-81973Y-48393D01*
X-82033Y-48477D01*
X-82039Y-48496D01*
X-82050Y-48513D01*
X-82075Y-48613D01*
X-82106Y-48712D01*
X-82105Y-48732D01*
X-82110Y-48751D01*
X-82102Y-48854D01*
X-82099Y-48958D01*
X-82092Y-48977D01*
X-82091Y-48997D01*
X-82051Y-49091D01*
X-82015Y-49189D01*
X-82002Y-49205D01*
X-81995Y-49223D01*
X-81890Y-49354D01*
X-81019Y-50225D01*
X-81019Y-62488D01*
X-81912Y-63381D01*
X-93175Y-63381D01*
X-94068Y-62488D01*
X-94068Y-50225D01*
X-93198Y-49354D01*
X-93186Y-49338D01*
X-93171Y-49325D01*
X-93114Y-49238D01*
X-93054Y-49154D01*
X-93048Y-49135D01*
X-93038Y-49118D01*
X-93012Y-49018D01*
X-92982Y-48919D01*
X-92982Y-48899D01*
X-92977Y-48880D01*
X-92985Y-48777D01*
X-92988Y-48673D01*
X-92995Y-48654D01*
X-92997Y-48635D01*
X-93037Y-48540D01*
X-93073Y-48442D01*
X-93085Y-48427D01*
X-93093Y-48408D01*
X-93198Y-48277D01*
X-94068Y-47407D01*
X-94068Y-35143D01*
X-93175Y-34250D01*
X-91233Y-34250D01*
X-91143Y-34236D01*
X-91052Y-34228D01*
X-91022Y-34216D01*
X-90990Y-34211D01*
X-90910Y-34168D01*
X-90826Y-34132D01*
X-90794Y-34106D01*
X-90773Y-34095D01*
X-90751Y-34072D01*
X-90695Y-34027D01*
X-90304Y-33637D01*
X-85908Y-33637D01*
X-85518Y-34027D01*
X-85444Y-34080D01*
X-85374Y-34140D01*
X-85344Y-34152D01*
X-85318Y-34171D01*
X-85231Y-34198D01*
X-85146Y-34232D01*
X-85105Y-34236D01*
X-85083Y-34243D01*
X-85051Y-34242D01*
X-84980Y-34250D01*
X-81912Y-34250D01*
X-81019Y-35143D01*
X-81019Y-36957D01*
X-81016Y-36977D01*
X-81018Y-36996D01*
X-80996Y-37098D01*
X-80979Y-37200D01*
X-80970Y-37217D01*
X-80966Y-37237D01*
X-80913Y-37326D01*
X-80864Y-37417D01*
X-80850Y-37431D01*
X-80840Y-37448D01*
X-80761Y-37515D01*
X-80686Y-37587D01*
X-80668Y-37595D01*
X-80653Y-37608D01*
X-80556Y-37647D01*
X-80463Y-37690D01*
X-80443Y-37692D01*
X-80424Y-37700D01*
X-80258Y-37718D01*
X-72421Y-37718D01*
X-70115Y-40025D01*
X-66739Y-43401D01*
X-66665Y-43454D01*
X-66595Y-43513D01*
X-66565Y-43526D01*
X-66539Y-43544D01*
X-66452Y-43571D01*
X-66367Y-43605D01*
X-66326Y-43610D01*
X-66304Y-43617D01*
X-66272Y-43616D01*
X-66200Y-43624D01*
X-51461Y-43624D01*
X-51390Y-43612D01*
X-51318Y-43610D01*
X-51269Y-43592D01*
X-51218Y-43584D01*
X-51155Y-43550D01*
X-51087Y-43526D01*
X-51047Y-43493D01*
X-51001Y-43469D01*
X-50951Y-43417D01*
X-50895Y-43372D01*
X-50867Y-43328D01*
X-50831Y-43291D01*
X-50801Y-43226D01*
X-50762Y-43165D01*
X-50750Y-43115D01*
X-50728Y-43068D01*
X-50720Y-42996D01*
X-50702Y-42927D01*
X-50706Y-42875D01*
X-50700Y-42823D01*
X-50716Y-42753D01*
X-50721Y-42682D01*
X-50742Y-42634D01*
X-50753Y-42583D01*
X-50790Y-42521D01*
X-50818Y-42455D01*
X-50862Y-42399D01*
X-50879Y-42372D01*
X-50897Y-42356D01*
X-50922Y-42324D01*
X-65812Y-27435D01*
X-65886Y-27382D01*
X-65955Y-27322D01*
X-65985Y-27310D01*
X-66011Y-27291D01*
X-66098Y-27265D01*
X-66183Y-27230D01*
X-66224Y-27226D01*
X-66247Y-27219D01*
X-66279Y-27220D01*
X-66350Y-27212D01*
X-79311Y-27212D01*
X-79401Y-27227D01*
X-79492Y-27234D01*
X-79522Y-27246D01*
X-79554Y-27252D01*
X-79635Y-27294D01*
X-79718Y-27330D01*
X-79751Y-27356D01*
X-79771Y-27367D01*
X-79793Y-27390D01*
X-79849Y-27435D01*
X-82146Y-29732D01*
X-86129Y-29732D01*
X-88944Y-26916D01*
X-88944Y-22934D01*
X-88299Y-22289D01*
X-88257Y-22230D01*
X-88207Y-22178D01*
X-88185Y-22131D01*
X-88155Y-22089D01*
X-88134Y-22020D01*
X-88104Y-21955D01*
X-88098Y-21903D01*
X-88083Y-21854D01*
X-88084Y-21782D01*
X-88077Y-21711D01*
X-88088Y-21660D01*
X-88089Y-21608D01*
X-88114Y-21540D01*
X-88129Y-21470D01*
X-88156Y-21426D01*
X-88173Y-21377D01*
X-88218Y-21321D01*
X-88255Y-21259D01*
X-88295Y-21225D01*
X-88327Y-21185D01*
X-88387Y-21146D01*
X-88442Y-21099D01*
X-88490Y-21080D01*
X-88534Y-21052D01*
X-88604Y-21034D01*
X-88670Y-21007D01*
X-88741Y-21000D01*
X-88773Y-20992D01*
X-88796Y-20994D01*
X-88837Y-20989D01*
X-90097Y-20989D01*
X-92913Y-18173D01*
X-92913Y-14191D01*
X-90616Y-11894D01*
X-90563Y-11820D01*
X-90503Y-11751D01*
X-90491Y-11721D01*
X-90472Y-11694D01*
X-90446Y-11607D01*
X-90411Y-11523D01*
X-90407Y-11482D01*
X-90400Y-11459D01*
X-90401Y-11427D01*
X-90393Y-11356D01*
X-90393Y-8885D01*
X-83497Y-1989D01*
X-75253Y-1989D01*
X-47335Y-29907D01*
X-47261Y-29960D01*
X-47192Y-30020D01*
X-47161Y-30032D01*
X-47135Y-30051D01*
X-47048Y-30077D01*
X-46963Y-30112D01*
X-46923Y-30116D01*
X-46900Y-30123D01*
X-46868Y-30122D01*
X-46797Y-30130D01*
X0Y-30130D01*
X20Y-30127D01*
X39Y-30129D01*
X141Y-30107D01*
X243Y-30090D01*
X260Y-30081D01*
X280Y-30077D01*
X369Y-30024D01*
X460Y-29975D01*
X474Y-29961D01*
X491Y-29951D01*
X558Y-29872D01*
X630Y-29797D01*
X638Y-29779D01*
X651Y-29764D01*
X690Y-29667D01*
X733Y-29574D01*
X735Y-29554D01*
X743Y-29535D01*
X761Y-29369D01*
X761Y18415D01*
X758Y18435D01*
X760Y18454D01*
X738Y18556D01*
X722Y18658D01*
X712Y18675D01*
X708Y18695D01*
X655Y18784D01*
X606Y18875D01*
X592Y18889D01*
X582Y18906D01*
X503Y18973D01*
X428Y19045D01*
X410Y19053D01*
X395Y19066D01*
X299Y19105D01*
X205Y19148D01*
X185Y19150D01*
X167Y19158D01*
X0Y19176D01*
X-149694Y19176D01*
X-167851Y37333D01*
X-167925Y37386D01*
X-167994Y37445D01*
X-168024Y37458D01*
X-168050Y37476D01*
X-168137Y37503D01*
X-168222Y37537D01*
X-168263Y37542D01*
X-168285Y37549D01*
X-168318Y37548D01*
X-168389Y37556D01*
X-171267Y37556D01*
X-174375Y40664D01*
X-174375Y45061D01*
X-171267Y48169D01*
X-166871Y48169D01*
X-163762Y45061D01*
X-163762Y42183D01*
X-163747Y42093D01*
X-163740Y42002D01*
X-163728Y41972D01*
X-163722Y41940D01*
X-163680Y41859D01*
X-163644Y41775D01*
X-163618Y41743D01*
X-163607Y41723D01*
X-163584Y41700D01*
X-163539Y41644D01*
X-147391Y25497D01*
X-147317Y25444D01*
X-147248Y25384D01*
X-147218Y25372D01*
X-147192Y25353D01*
X-147105Y25326D01*
X-147020Y25292D01*
X-146979Y25288D01*
X-146957Y25281D01*
X-146924Y25282D01*
X-146853Y25274D01*
X-141066Y25274D01*
X-140995Y25285D01*
X-140923Y25287D01*
X-140874Y25305D01*
X-140823Y25313D01*
X-140759Y25347D01*
X-140692Y25372D01*
X-140651Y25404D01*
X-140605Y25429D01*
X-140556Y25481D01*
X-140500Y25525D01*
X-140472Y25569D01*
X-140436Y25607D01*
X-140406Y25672D01*
X-140367Y25732D01*
X-140354Y25783D01*
X-140332Y25830D01*
X-140325Y25901D01*
X-140307Y25971D01*
X-140311Y26023D01*
X-140305Y26074D01*
X-140321Y26145D01*
X-140326Y26216D01*
X-140346Y26264D01*
X-140358Y26315D01*
X-140394Y26376D01*
X-140422Y26442D01*
X-140467Y26498D01*
X-140484Y26526D01*
X-140502Y26541D01*
X-140527Y26573D01*
X-142919Y28965D01*
X-142919Y32947D01*
X-141130Y34736D01*
X-141077Y34810D01*
X-141018Y34880D01*
X-141005Y34910D01*
X-140987Y34936D01*
X-140960Y35023D01*
X-140926Y35108D01*
X-140921Y35149D01*
X-140914Y35171D01*
X-140915Y35203D01*
X-140907Y35275D01*
X-140907Y49714D01*
X-140910Y49734D01*
X-140908Y49753D01*
X-140930Y49855D01*
X-140947Y49957D01*
X-140956Y49974D01*
X-140961Y49994D01*
X-141014Y50083D01*
X-141062Y50174D01*
X-141076Y50188D01*
X-141087Y50205D01*
X-141165Y50272D01*
X-141240Y50344D01*
X-141258Y50352D01*
X-141274Y50365D01*
X-141370Y50404D01*
X-141463Y50447D01*
X-141483Y50449D01*
X-141502Y50457D01*
X-141668Y50475D01*
X-142744Y50475D01*
X-143637Y51368D01*
X-143637Y60751D01*
X-143620Y60787D01*
X-143615Y60838D01*
X-143599Y60888D01*
X-143601Y60960D01*
X-143593Y61031D01*
X-143604Y61082D01*
X-143606Y61134D01*
X-143630Y61201D01*
X-143646Y61272D01*
X-143672Y61316D01*
X-143690Y61365D01*
X-143735Y61421D01*
X-143772Y61483D01*
X-143811Y61516D01*
X-143844Y61557D01*
X-143904Y61596D01*
X-143959Y61643D01*
X-144007Y61662D01*
X-144051Y61690D01*
X-144120Y61708D01*
X-144187Y61735D01*
X-144258Y61742D01*
X-144289Y61750D01*
X-144312Y61748D01*
X-144354Y61753D01*
X-175639Y61753D01*
X-175729Y61738D01*
X-175820Y61731D01*
X-175849Y61719D01*
X-175881Y61713D01*
X-175962Y61671D01*
X-176046Y61635D01*
X-176078Y61609D01*
X-176099Y61598D01*
X-176121Y61575D01*
X-176177Y61530D01*
X-187736Y49971D01*
X-187784Y49904D01*
X-187788Y49900D01*
X-187790Y49897D01*
X-187849Y49827D01*
X-187861Y49797D01*
X-187880Y49771D01*
X-187907Y49684D01*
X-187941Y49599D01*
X-187945Y49558D01*
X-187952Y49536D01*
X-187951Y49504D01*
X-187959Y49432D01*
X-187959Y11648D01*
X-189670Y9936D01*
X-189671Y9936D01*
X-193201Y6406D01*
X-193269Y6312D01*
X-193339Y6217D01*
X-193341Y6211D01*
X-193345Y6206D01*
X-193379Y6095D01*
X-193415Y5983D01*
X-193415Y5977D01*
X-193417Y5971D01*
X-193414Y5854D01*
X-193413Y5737D01*
X-193411Y5730D01*
X-193411Y5725D01*
X-193404Y5707D01*
X-193366Y5576D01*
X-192468Y3406D01*
X-192468Y-231D01*
X-193860Y-3593D01*
X-196432Y-6165D01*
X-199794Y-7557D01*
X-203431Y-7557D01*
X-206793Y-6165D01*
X-209365Y-3593D01*
X-210757Y-231D01*
X-210757Y3406D01*
X-209365Y6768D01*
X-206793Y9340D01*
X-203431Y10732D01*
X-199794Y10732D01*
X-197624Y9834D01*
X-197511Y9807D01*
X-197397Y9778D01*
X-197391Y9779D01*
X-197385Y9777D01*
X-197268Y9788D01*
X-197152Y9798D01*
X-197146Y9800D01*
X-197140Y9801D01*
X-197032Y9848D01*
X-196925Y9894D01*
X-196920Y9898D01*
X-196915Y9901D01*
X-196901Y9913D01*
X-196794Y9999D01*
X-193264Y13529D01*
X-193211Y13603D01*
X-193151Y13673D01*
X-193139Y13703D01*
X-193120Y13729D01*
X-193093Y13816D01*
X-193059Y13901D01*
X-193055Y13942D01*
X-193048Y13964D01*
X-193049Y13996D01*
X-193041Y14068D01*
X-193041Y20789D01*
X-193052Y20860D01*
X-193054Y20931D01*
X-193072Y20980D01*
X-193080Y21032D01*
X-193114Y21095D01*
X-193139Y21162D01*
X-193171Y21203D01*
X-193196Y21249D01*
X-193248Y21298D01*
X-193292Y21354D01*
X-193336Y21383D01*
X-193374Y21418D01*
X-193439Y21449D01*
X-193499Y21487D01*
X-193550Y21500D01*
X-193597Y21522D01*
X-193668Y21530D01*
X-193738Y21547D01*
X-193790Y21543D01*
X-193841Y21549D01*
X-193912Y21534D01*
X-193983Y21528D01*
X-194031Y21508D01*
X-194082Y21497D01*
X-194143Y21460D01*
X-194209Y21432D01*
X-194265Y21387D01*
X-194293Y21371D01*
X-194308Y21353D01*
X-194340Y21327D01*
X-196432Y19235D01*
X-199794Y17843D01*
X-203431Y17843D01*
X-206793Y19235D01*
X-209365Y21807D01*
X-210757Y25169D01*
X-210757Y28806D01*
X-209365Y32168D01*
X-206793Y34740D01*
X-203431Y36132D01*
X-199794Y36132D01*
X-196432Y34740D01*
X-194340Y32648D01*
X-194282Y32606D01*
X-194230Y32557D01*
X-194183Y32535D01*
X-194141Y32504D01*
X-194072Y32483D01*
X-194007Y32453D01*
X-193955Y32447D01*
X-193905Y32432D01*
X-193834Y32434D01*
X-193763Y32426D01*
X-193712Y32437D01*
X-193660Y32438D01*
X-193592Y32463D01*
X-193522Y32478D01*
X-193477Y32505D01*
X-193429Y32523D01*
X-193373Y32568D01*
X-193311Y32604D01*
X-193277Y32644D01*
X-193237Y32676D01*
X-193198Y32737D01*
X-193151Y32791D01*
X-193132Y32840D01*
X-193104Y32883D01*
X-193086Y32953D01*
X-193059Y33019D01*
X-193051Y33091D01*
X-193043Y33122D01*
X-193045Y33145D01*
X-193041Y33186D01*
X-193041Y46189D01*
X-193052Y46260D01*
X-193054Y46331D01*
X-193072Y46380D01*
X-193080Y46432D01*
X-193114Y46495D01*
X-193139Y46562D01*
X-193171Y46603D01*
X-193196Y46649D01*
X-193248Y46698D01*
X-193292Y46754D01*
X-193336Y46783D01*
X-193374Y46818D01*
X-193439Y46849D01*
X-193499Y46887D01*
X-193550Y46900D01*
X-193597Y46922D01*
X-193668Y46930D01*
X-193738Y46947D01*
X-193790Y46943D01*
X-193841Y46949D01*
X-193912Y46934D01*
X-193983Y46928D01*
X-194031Y46908D01*
X-194082Y46897D01*
X-194143Y46860D01*
X-194209Y46832D01*
X-194265Y46787D01*
X-194293Y46771D01*
X-194308Y46753D01*
X-194340Y46727D01*
X-196432Y44635D01*
X-199794Y43243D01*
X-203431Y43243D01*
X-206793Y44635D01*
X-209365Y47207D01*
X-210757Y50569D01*
X-210757Y54206D01*
X-209365Y57568D01*
X-206793Y60140D01*
X-203431Y61532D01*
X-199794Y61532D01*
X-196432Y60140D01*
X-194306Y58014D01*
X-194290Y58002D01*
X-194277Y57986D01*
X-194190Y57930D01*
X-194106Y57870D01*
X-194087Y57864D01*
X-194071Y57853D01*
X-193970Y57828D01*
X-193871Y57798D01*
X-193851Y57798D01*
X-193832Y57793D01*
X-193729Y57801D01*
X-193625Y57804D01*
X-193607Y57811D01*
X-193587Y57813D01*
X-193492Y57853D01*
X-193394Y57889D01*
X-193379Y57901D01*
X-193360Y57909D01*
X-193229Y58014D01*
X-172626Y78617D01*
X-170915Y80328D01*
X-119598Y80328D01*
X-99746Y60477D01*
X-99672Y60423D01*
X-99603Y60364D01*
X-99572Y60352D01*
X-99546Y60333D01*
X-99459Y60306D01*
X-99374Y60272D01*
X-99333Y60268D01*
X-99311Y60261D01*
X-99279Y60262D01*
X-99208Y60254D01*
X-96318Y60254D01*
X-93503Y57438D01*
X-93503Y53456D01*
X-96318Y50640D01*
X-100300Y50640D01*
X-103116Y53456D01*
X-103116Y56345D01*
X-103118Y56356D01*
X-103117Y56363D01*
X-103125Y56397D01*
X-103131Y56435D01*
X-103138Y56526D01*
X-103151Y56556D01*
X-103156Y56588D01*
X-103199Y56669D01*
X-103234Y56752D01*
X-103260Y56785D01*
X-103271Y56805D01*
X-103294Y56827D01*
X-103339Y56883D01*
X-121479Y75024D01*
X-121553Y75077D01*
X-121623Y75136D01*
X-121653Y75149D01*
X-121679Y75167D01*
X-121766Y75194D01*
X-121851Y75228D01*
X-121892Y75233D01*
X-121914Y75240D01*
X-121946Y75239D01*
X-122018Y75247D01*
X-131827Y75247D01*
X-131846Y75244D01*
X-131866Y75246D01*
X-131967Y75224D01*
X-132069Y75207D01*
X-132087Y75198D01*
X-132106Y75193D01*
X-132195Y75140D01*
X-132287Y75092D01*
X-132300Y75078D01*
X-132317Y75067D01*
X-132385Y74989D01*
X-132456Y74914D01*
X-132464Y74896D01*
X-132477Y74880D01*
X-132516Y74784D01*
X-132560Y74691D01*
X-132562Y74671D01*
X-132569Y74652D01*
X-132588Y74486D01*
X-132588Y67596D01*
X-132585Y67576D01*
X-132587Y67556D01*
X-132565Y67455D01*
X-132548Y67353D01*
X-132539Y67335D01*
X-132534Y67316D01*
X-132481Y67227D01*
X-132433Y67136D01*
X-132419Y67122D01*
X-132408Y67105D01*
X-132330Y67037D01*
X-132255Y66966D01*
X-132237Y66958D01*
X-132221Y66945D01*
X-132125Y66906D01*
X-132032Y66863D01*
X-132012Y66860D01*
X-131993Y66853D01*
X-131827Y66834D01*
X-119598Y66834D01*
X-107005Y54242D01*
X-106931Y54189D01*
X-106862Y54130D01*
X-106832Y54117D01*
X-106806Y54099D01*
X-106719Y54072D01*
X-106634Y54038D01*
X-106593Y54033D01*
X-106570Y54026D01*
X-106538Y54027D01*
X-106503Y54023D01*
X-103683Y51204D01*
X-103683Y47221D01*
X-106499Y44406D01*
X-110481Y44406D01*
X-113297Y47221D01*
X-113297Y51204D01*
X-112763Y51737D01*
X-112751Y51753D01*
X-112736Y51766D01*
X-112680Y51853D01*
X-112620Y51937D01*
X-112614Y51956D01*
X-112603Y51973D01*
X-112578Y52073D01*
X-112547Y52172D01*
X-112548Y52192D01*
X-112543Y52211D01*
X-112551Y52314D01*
X-112554Y52418D01*
X-112560Y52437D01*
X-112562Y52456D01*
X-112602Y52551D01*
X-112638Y52649D01*
X-112651Y52665D01*
X-112658Y52683D01*
X-112763Y52814D01*
X-121479Y61530D01*
X-121553Y61583D01*
X-121623Y61643D01*
X-121653Y61655D01*
X-121679Y61674D01*
X-121766Y61700D01*
X-121851Y61735D01*
X-121892Y61739D01*
X-121914Y61746D01*
X-121946Y61745D01*
X-122018Y61753D01*
X-131871Y61753D01*
X-131942Y61741D01*
X-132014Y61740D01*
X-132063Y61722D01*
X-132114Y61713D01*
X-132178Y61680D01*
X-132245Y61655D01*
X-132286Y61623D01*
X-132332Y61598D01*
X-132381Y61546D01*
X-132437Y61501D01*
X-132465Y61457D01*
X-132501Y61420D01*
X-132531Y61355D01*
X-132570Y61294D01*
X-132583Y61244D01*
X-132605Y61197D01*
X-132612Y61125D01*
X-132630Y61056D01*
X-132626Y61004D01*
X-132632Y60952D01*
X-132616Y60882D01*
X-132611Y60811D01*
X-132590Y60763D01*
X-132588Y60750D01*
X-132588Y51368D01*
X-133481Y50475D01*
X-134557Y50475D01*
X-134576Y50472D01*
X-134596Y50474D01*
X-134697Y50452D01*
X-134799Y50436D01*
X-134817Y50426D01*
X-134836Y50422D01*
X-134925Y50369D01*
X-135017Y50320D01*
X-135030Y50306D01*
X-135047Y50296D01*
X-135115Y50217D01*
X-135186Y50142D01*
X-135194Y50124D01*
X-135207Y50109D01*
X-135246Y50013D01*
X-135290Y49919D01*
X-135292Y49899D01*
X-135299Y49881D01*
X-135318Y49714D01*
X-135318Y35275D01*
X-135303Y35185D01*
X-135296Y35094D01*
X-135283Y35064D01*
X-135278Y35032D01*
X-135235Y34951D01*
X-135200Y34867D01*
X-135174Y34835D01*
X-135163Y34814D01*
X-135140Y34792D01*
X-135095Y34736D01*
X-133306Y32947D01*
X-133306Y28965D01*
X-135698Y26573D01*
X-135740Y26515D01*
X-135789Y26463D01*
X-135811Y26416D01*
X-135841Y26374D01*
X-135862Y26305D01*
X-135893Y26240D01*
X-135898Y26188D01*
X-135914Y26138D01*
X-135912Y26067D01*
X-135920Y25996D01*
X-135909Y25945D01*
X-135907Y25893D01*
X-135883Y25825D01*
X-135867Y25755D01*
X-135841Y25710D01*
X-135823Y25662D01*
X-135778Y25606D01*
X-135741Y25544D01*
X-135702Y25510D01*
X-135669Y25470D01*
X-135609Y25431D01*
X-135554Y25384D01*
X-135506Y25365D01*
X-135462Y25337D01*
X-135393Y25319D01*
X-135326Y25292D01*
X-135255Y25284D01*
X-135224Y25276D01*
X-135200Y25278D01*
X-135159Y25274D01*
X-2372Y25274D01*
X-2282Y25288D01*
X-2191Y25296D01*
X-2161Y25308D01*
X-2129Y25313D01*
X-2048Y25356D01*
X-1965Y25392D01*
X-1932Y25418D01*
X-1912Y25429D01*
X-1890Y25452D01*
X-1834Y25497D01*
X538Y27869D01*
X591Y27943D01*
X651Y28012D01*
X663Y28042D01*
X682Y28068D01*
X709Y28155D01*
X743Y28240D01*
X747Y28281D01*
X754Y28303D01*
X753Y28336D01*
X761Y28407D01*
X761Y67089D01*
X782Y67089D01*
X816Y67096D01*
X865Y67096D01*
X4009Y67627D01*
X4042Y67640D01*
X4090Y67648D01*
X7101Y68697D01*
X7131Y68715D01*
X7177Y68731D01*
X9972Y70267D01*
X9998Y70290D01*
X10041Y70313D01*
X12540Y72294D01*
X12563Y72321D01*
X12601Y72351D01*
X14734Y74721D01*
X14752Y74751D01*
X14785Y74787D01*
X16493Y77479D01*
X16506Y77512D01*
X16532Y77553D01*
X17768Y80493D01*
X17775Y80527D01*
X17794Y80572D01*
X18522Y83676D01*
X18523Y83712D01*
X18534Y83759D01*
X18734Y86941D01*
X18729Y86976D01*
X18732Y87025D01*
X18399Y90196D01*
X18389Y90229D01*
X18383Y90278D01*
X17526Y93349D01*
X17510Y93380D01*
X17497Y93427D01*
X16139Y96313D01*
X16122Y96336D01*
X16112Y96363D01*
X16063Y96415D01*
X16020Y96472D01*
X15995Y96487D01*
X15975Y96508D01*
X15910Y96537D01*
X15849Y96572D01*
X15820Y96576D01*
X15793Y96588D01*
X15722Y96589D01*
X15652Y96598D01*
X15624Y96590D01*
X15594Y96591D01*
X15501Y96556D01*
X15460Y96544D01*
X15451Y96537D01*
X15438Y96533D01*
X-813Y87176D01*
X-17063Y96533D01*
X-17091Y96542D01*
X-17115Y96559D01*
X-17185Y96573D01*
X-17252Y96596D01*
X-17281Y96593D01*
X-17310Y96599D01*
X-17379Y96585D01*
X-17450Y96580D01*
X-17476Y96566D01*
X-17505Y96561D01*
X-17564Y96521D01*
X-17627Y96488D01*
X-17645Y96466D01*
X-17669Y96449D01*
X-17726Y96367D01*
X-17753Y96335D01*
X-17756Y96324D01*
X-17764Y96313D01*
X-19122Y93427D01*
X-19130Y93393D01*
X-19151Y93349D01*
X-20008Y90278D01*
X-20011Y90243D01*
X-20024Y90196D01*
X-20357Y87025D01*
X-20354Y86990D01*
X-20359Y86941D01*
X-20159Y83759D01*
X-20150Y83725D01*
X-20147Y83676D01*
X-19419Y80572D01*
X-19404Y80540D01*
X-19393Y80493D01*
X-18783Y79043D01*
X-21607Y79043D01*
X-21778Y79457D01*
X-22528Y82254D01*
X-22906Y85126D01*
X-22906Y88022D01*
X-22528Y90893D01*
X-21778Y93691D01*
X-21460Y94458D01*
X-21130Y95255D01*
X-21109Y95346D01*
X-21080Y95435D01*
X-21081Y95466D01*
X-21074Y95495D01*
X-21083Y95588D01*
X-21084Y95681D01*
X-21094Y95710D01*
X-21097Y95740D01*
X-21135Y95825D01*
X-21166Y95913D01*
X-21185Y95937D01*
X-21197Y95965D01*
X-21260Y96033D01*
X-21318Y96107D01*
X-21348Y96129D01*
X-21363Y96146D01*
X-21392Y96161D01*
X-21453Y96206D01*
X-51177Y113367D01*
X-51284Y113407D01*
X-51390Y113450D01*
X-51399Y113451D01*
X-51407Y113454D01*
X-51521Y113458D01*
X-51635Y113465D01*
X-51644Y113462D01*
X-51652Y113463D01*
X-51763Y113430D01*
X-51873Y113400D01*
X-51880Y113395D01*
X-51888Y113393D01*
X-51982Y113327D01*
X-52077Y113263D01*
X-52084Y113255D01*
X-52090Y113251D01*
X-52103Y113233D01*
X-52186Y113136D01*
X-52222Y113084D01*
X-52496Y112681D01*
X-52511Y112649D01*
X-52533Y112622D01*
X-52563Y112539D01*
X-52600Y112458D01*
X-52604Y112423D01*
X-52616Y112391D01*
X-52622Y112312D01*
X-53059Y111840D01*
X-53077Y111812D01*
X-53130Y111751D01*
X-53259Y111561D01*
X-53491Y111221D01*
X-53556Y111191D01*
X-53639Y111160D01*
X-53666Y111139D01*
X-53698Y111124D01*
X-53825Y111014D01*
X-55323Y109398D01*
X-55342Y109369D01*
X-55368Y109345D01*
X-55410Y109267D01*
X-55459Y109193D01*
X-55468Y109159D01*
X-55485Y109129D01*
X-55501Y109055D01*
X-55502Y109054D01*
X-55502Y109052D01*
X-56005Y108650D01*
X-56027Y108626D01*
X-56089Y108573D01*
X-56524Y108103D01*
X-56593Y108083D01*
X-56680Y108065D01*
X-56710Y108048D01*
X-56743Y108038D01*
X-56885Y107948D01*
X-58608Y106573D01*
X-58631Y106548D01*
X-58660Y106528D01*
X-58713Y106457D01*
X-58773Y106391D01*
X-58787Y106359D01*
X-58807Y106331D01*
X-58836Y106257D01*
X-59393Y105935D01*
X-59419Y105914D01*
X-59488Y105871D01*
X-59988Y105472D01*
X-60059Y105462D01*
X-60148Y105457D01*
X-60180Y105445D01*
X-60214Y105440D01*
X-60368Y105372D01*
X-62277Y104270D01*
X-62304Y104248D01*
X-62335Y104232D01*
X-62398Y104170D01*
X-62467Y104114D01*
X-62485Y104084D01*
X-62510Y104060D01*
X-62550Y103991D01*
X-63149Y103756D01*
X-63177Y103739D01*
X-63251Y103707D01*
X-63806Y103386D01*
X-63877Y103387D01*
X-63966Y103396D01*
X-64000Y103388D01*
X-64034Y103388D01*
X-64196Y103344D01*
X-66248Y102538D01*
X-66278Y102521D01*
X-66311Y102510D01*
X-66383Y102458D01*
X-66459Y102413D01*
X-66482Y102386D01*
X-66510Y102366D01*
X-66559Y102304D01*
X-67187Y102160D01*
X-67218Y102148D01*
X-67296Y102127D01*
X-67891Y101893D01*
X-67962Y101904D01*
X-68048Y101926D01*
X-68083Y101923D01*
X-68117Y101929D01*
X-68284Y101910D01*
X-70433Y101419D01*
X-70465Y101405D01*
X-70499Y101400D01*
X-70578Y101359D01*
X-70660Y101326D01*
X-70687Y101303D01*
X-70718Y101287D01*
X-70776Y101233D01*
X-71417Y101185D01*
X-71449Y101177D01*
X-71530Y101168D01*
X-72154Y101025D01*
X-72222Y101047D01*
X-72305Y101081D01*
X-72339Y101084D01*
X-72372Y101094D01*
X-72540Y101100D01*
X-74738Y100935D01*
X-74771Y100927D01*
X-74806Y100927D01*
X-74890Y100898D01*
X-74977Y100877D01*
X-75006Y100858D01*
X-75039Y100847D01*
X-75104Y100802D01*
X-75746Y100850D01*
X-75779Y100847D01*
X-75860Y100850D01*
X-76499Y100802D01*
X-76563Y100834D01*
X-76639Y100880D01*
X-76673Y100888D01*
X-76704Y100903D01*
X-76869Y100934D01*
X-79067Y101098D01*
X-79101Y101095D01*
X-79136Y101100D01*
X-79223Y101084D01*
X-79312Y101077D01*
X-79343Y101063D01*
X-79378Y101057D01*
X-79449Y101022D01*
X-80077Y101165D01*
X-80110Y101167D01*
X-80189Y101182D01*
X-80828Y101230D01*
X-80887Y101270D01*
X-80955Y101328D01*
X-80987Y101340D01*
X-81016Y101360D01*
X-81174Y101415D01*
X-83323Y101905D01*
X-83358Y101907D01*
X-83391Y101917D01*
X-83480Y101915D01*
X-83569Y101920D01*
X-83602Y101911D01*
X-83637Y101910D01*
X-83712Y101886D01*
X-84312Y102121D01*
X-84344Y102128D01*
X-84421Y102155D01*
X-85045Y102297D01*
X-85097Y102346D01*
X-85156Y102413D01*
X-85186Y102430D01*
X-85211Y102454D01*
X-85360Y102532D01*
X-87412Y103337D01*
X-87446Y103344D01*
X-87477Y103359D01*
X-87565Y103370D01*
X-87652Y103389D01*
X-87687Y103385D01*
X-87721Y103389D01*
X-87800Y103377D01*
X-88357Y103698D01*
X-88388Y103710D01*
X-88460Y103748D01*
X-89056Y103982D01*
X-89100Y104038D01*
X-89148Y104113D01*
X-89175Y104134D01*
X-89197Y104162D01*
X-89332Y104261D01*
X-91241Y105362D01*
X-91274Y105375D01*
X-91302Y105394D01*
X-91388Y105418D01*
X-91471Y105449D01*
X-91506Y105451D01*
X-91539Y105460D01*
X-91619Y105460D01*
X-92122Y105861D01*
X-92151Y105877D01*
X-92216Y105925D01*
X-92771Y106245D01*
X-92806Y106307D01*
X-92843Y106388D01*
X-92866Y106414D01*
X-92883Y106444D01*
X-93002Y106562D01*
X-93991Y107350D01*
X-94033Y107374D01*
X-94070Y107405D01*
X-94140Y107433D01*
X-94205Y107470D01*
X-94253Y107479D01*
X-94298Y107497D01*
X-94424Y107511D01*
X-94447Y107516D01*
X-94454Y107515D01*
X-94465Y107516D01*
X-96817Y107516D01*
X-96907Y107501D01*
X-96998Y107494D01*
X-97028Y107481D01*
X-97060Y107476D01*
X-97141Y107433D01*
X-97225Y107398D01*
X-97257Y107372D01*
X-97277Y107361D01*
X-97300Y107338D01*
X-97355Y107293D01*
X-99399Y105250D01*
X-103381Y105250D01*
X-106196Y108065D01*
X-106196Y112048D01*
X-103381Y114863D01*
X-102058Y114863D01*
X-102057Y114863D01*
X-102056Y114863D01*
X-101934Y114883D01*
X-101815Y114903D01*
X-101814Y114903D01*
X-101701Y114963D01*
X-101597Y115018D01*
X-101597Y115019D01*
X-101509Y115112D01*
X-101428Y115196D01*
X-101428Y115197D01*
X-101427Y115197D01*
X-101378Y115304D01*
X-101324Y115419D01*
X-101324Y115420D01*
X-101324Y115421D01*
X-101312Y115529D01*
X-101297Y115664D01*
X-101298Y115665D01*
X-101297Y115665D01*
X-101324Y115786D01*
X-101350Y115904D01*
X-101350Y115905D01*
X-101357Y115918D01*
X-101354Y115928D01*
X-101360Y116017D01*
X-101358Y116106D01*
X-101368Y116139D01*
X-101370Y116174D01*
X-101426Y116332D01*
X-102383Y118317D01*
X-102403Y118346D01*
X-102415Y118378D01*
X-102456Y118426D01*
X-102486Y118475D01*
X-102505Y118492D01*
X-102524Y118519D01*
X-102552Y118539D01*
X-102574Y118566D01*
X-102640Y118610D01*
X-102830Y119225D01*
X-102845Y119255D01*
X-102871Y119331D01*
X-103150Y119908D01*
X-103144Y119980D01*
X-103128Y120067D01*
X-103133Y120101D01*
X-103130Y120136D01*
X-103162Y120301D01*
X-103812Y122407D01*
X-103828Y122438D01*
X-103836Y122472D01*
X-103882Y122548D01*
X-103922Y122627D01*
X-103946Y122651D01*
X-103965Y122681D01*
X-104023Y122735D01*
X-104119Y123371D01*
X-104129Y123403D01*
X-104144Y123482D01*
X-104333Y124094D01*
X-104317Y124164D01*
X-104289Y124248D01*
X-104289Y124283D01*
X-104281Y124317D01*
X-104287Y124484D01*
X-104616Y126664D01*
X-104627Y126697D01*
X-104630Y126731D01*
X-104665Y126813D01*
X-104692Y126898D01*
X-104713Y126926D01*
X-104726Y126958D01*
X-104776Y127019D01*
X-104776Y127663D01*
X-104781Y127696D01*
X-104784Y127777D01*
X-104880Y128410D01*
X-104853Y128476D01*
X-104813Y128555D01*
X-104808Y128590D01*
X-104795Y128622D01*
X-104776Y128789D01*
X-104777Y130993D01*
X-104783Y131027D01*
X-104780Y131062D01*
X-104802Y131148D01*
X-104817Y131235D01*
X-104833Y131266D01*
X-104842Y131300D01*
X-104882Y131368D01*
X-104786Y132005D01*
X-104786Y132038D01*
X-104777Y132118D01*
X-104778Y132759D01*
X-104766Y132779D01*
X-104763Y132781D01*
X-104760Y132788D01*
X-104741Y132821D01*
X-104689Y132893D01*
X-104679Y132926D01*
X-104662Y132956D01*
X-104618Y133118D01*
X-104291Y135298D01*
X-104291Y135332D01*
X-104284Y135366D01*
X-104293Y135455D01*
X-104294Y135543D01*
X-104305Y135576D01*
X-104309Y135611D01*
X-104338Y135684D01*
X-104149Y136300D01*
X-104144Y136332D01*
X-104123Y136411D01*
X-104028Y137044D01*
X-103983Y137100D01*
X-103921Y137163D01*
X-103906Y137194D01*
X-103884Y137221D01*
X-103817Y137375D01*
X-103168Y139482D01*
X-103163Y139516D01*
X-103151Y139548D01*
X-103147Y139637D01*
X-103135Y139725D01*
X-103141Y139759D01*
X-103139Y139794D01*
X-103157Y139871D01*
X-102878Y140451D01*
X-102869Y140483D01*
X-102837Y140557D01*
X-102648Y141169D01*
X-102595Y141218D01*
X-102524Y141271D01*
X-102505Y141300D01*
X-102479Y141323D01*
X-102390Y141466D01*
X-102143Y141978D01*
X-102111Y142087D01*
X-102076Y142197D01*
X-102077Y142206D01*
X-102074Y142214D01*
X-102078Y142329D01*
X-102080Y142443D01*
X-102083Y142451D01*
X-102083Y142460D01*
X-102124Y142567D01*
X-102162Y142675D01*
X-102168Y142682D01*
X-102171Y142690D01*
X-102243Y142779D01*
X-102314Y142868D01*
X-102322Y142875D01*
X-102327Y142880D01*
X-102347Y142893D01*
X-102449Y142968D01*
X-132178Y160132D01*
X-132266Y160165D01*
X-132350Y160204D01*
X-132380Y160208D01*
X-132408Y160219D01*
X-132501Y160222D01*
X-132594Y160233D01*
X-132624Y160226D01*
X-132654Y160228D01*
X-132743Y160201D01*
X-132835Y160182D01*
X-132861Y160166D01*
X-132890Y160158D01*
X-132966Y160104D01*
X-133047Y160057D01*
X-133073Y160029D01*
X-133091Y160016D01*
X-133111Y159990D01*
X-133163Y159936D01*
X-134106Y158706D01*
X-134166Y158628D01*
X-134225Y158569D01*
X-136214Y156580D01*
X-138512Y154817D01*
X-141020Y153369D01*
X-143696Y152261D01*
X-146493Y151511D01*
X-149289Y151143D01*
X-149289Y153736D01*
X-149279Y153736D01*
X-149246Y153743D01*
X-149199Y153743D01*
X-146173Y154235D01*
X-146141Y154247D01*
X-146095Y154254D01*
X-143186Y155225D01*
X-143157Y155242D01*
X-143113Y155256D01*
X-140398Y156681D01*
X-140371Y156703D01*
X-140330Y156724D01*
X-137878Y158566D01*
X-137856Y158591D01*
X-137818Y158619D01*
X-135694Y160831D01*
X-135676Y160859D01*
X-135643Y160893D01*
X-133902Y163416D01*
X-133890Y163443D01*
X-133872Y163465D01*
X-133852Y163534D01*
X-133824Y163599D01*
X-133823Y163628D01*
X-133815Y163656D01*
X-133823Y163727D01*
X-133823Y163798D01*
X-133834Y163825D01*
X-133837Y163854D01*
X-133873Y163916D01*
X-133900Y163981D01*
X-133921Y164002D01*
X-133935Y164027D01*
X-134012Y164090D01*
X-134043Y164120D01*
X-134053Y164124D01*
X-134063Y164133D01*
X-150563Y173633D01*
X-150636Y173657D01*
X-150707Y173688D01*
X-150730Y173688D01*
X-150752Y173696D01*
X-150829Y173690D01*
X-150906Y173691D01*
X-150930Y173681D01*
X-150950Y173680D01*
X-150990Y173659D01*
X-151062Y173633D01*
X-167562Y164133D01*
X-167583Y164114D01*
X-167610Y164101D01*
X-167657Y164048D01*
X-167711Y164001D01*
X-167723Y163975D01*
X-167743Y163954D01*
X-167766Y163886D01*
X-167797Y163822D01*
X-167798Y163793D01*
X-167807Y163766D01*
X-167803Y163694D01*
X-167806Y163623D01*
X-167796Y163596D01*
X-167794Y163567D01*
X-167751Y163477D01*
X-167737Y163437D01*
X-167729Y163429D01*
X-167723Y163416D01*
X-165982Y160893D01*
X-165957Y160869D01*
X-165931Y160831D01*
X-163807Y158619D01*
X-163779Y158600D01*
X-163747Y158566D01*
X-161295Y156724D01*
X-161265Y156710D01*
X-161227Y156681D01*
X-158512Y155256D01*
X-158480Y155247D01*
X-158439Y155225D01*
X-155530Y154254D01*
X-155496Y154250D01*
X-155452Y154235D01*
X-152426Y153743D01*
X-152392Y153744D01*
X-152346Y153736D01*
X-152336Y153736D01*
X-152336Y151143D01*
X-155132Y151511D01*
X-157929Y152261D01*
X-160605Y153369D01*
X-163113Y154817D01*
X-163149Y154845D01*
X-165411Y156580D01*
X-167459Y158628D01*
X-168462Y159936D01*
X-168530Y159999D01*
X-168593Y160069D01*
X-168619Y160083D01*
X-168642Y160104D01*
X-168726Y160143D01*
X-168808Y160188D01*
X-168838Y160194D01*
X-168865Y160207D01*
X-168958Y160216D01*
X-169050Y160233D01*
X-169080Y160229D01*
X-169110Y160232D01*
X-169201Y160212D01*
X-169293Y160199D01*
X-169328Y160184D01*
X-169350Y160179D01*
X-169378Y160162D01*
X-169447Y160132D01*
X-199176Y142968D01*
X-199265Y142895D01*
X-199355Y142825D01*
X-199360Y142818D01*
X-199367Y142812D01*
X-199428Y142715D01*
X-199490Y142620D01*
X-199493Y142611D01*
X-199497Y142604D01*
X-199524Y142492D01*
X-199553Y142382D01*
X-199553Y142373D01*
X-199555Y142365D01*
X-199545Y142251D01*
X-199537Y142137D01*
X-199534Y142127D01*
X-199533Y142120D01*
X-199524Y142098D01*
X-199482Y141978D01*
X-199235Y141466D01*
X-199215Y141437D01*
X-199202Y141405D01*
X-199145Y141337D01*
X-199094Y141264D01*
X-199066Y141244D01*
X-199043Y141217D01*
X-198978Y141172D01*
X-198788Y140557D01*
X-198782Y140544D01*
X-198781Y140542D01*
X-198778Y140537D01*
X-198774Y140528D01*
X-198747Y140451D01*
X-198469Y139874D01*
X-198475Y139803D01*
X-198491Y139715D01*
X-198485Y139681D01*
X-198488Y139647D01*
X-198457Y139482D01*
X-197808Y137375D01*
X-197792Y137344D01*
X-197785Y137310D01*
X-197738Y137235D01*
X-197698Y137155D01*
X-197674Y137131D01*
X-197656Y137101D01*
X-197597Y137047D01*
X-197502Y136410D01*
X-197492Y136379D01*
X-197476Y136300D01*
X-197288Y135688D01*
X-197304Y135618D01*
X-197333Y135534D01*
X-197333Y135499D01*
X-197341Y135465D01*
X-197334Y135298D01*
X-197007Y133118D01*
X-196996Y133085D01*
X-196993Y133050D01*
X-196958Y132968D01*
X-196931Y132884D01*
X-196911Y132856D01*
X-196897Y132824D01*
X-196847Y132762D01*
X-196848Y132118D01*
X-196842Y132086D01*
X-196839Y132005D01*
X-196744Y131372D01*
X-196771Y131305D01*
X-196811Y131226D01*
X-196816Y131192D01*
X-196829Y131159D01*
X-196848Y130993D01*
X-196849Y128789D01*
X-196843Y128754D01*
X-196846Y128720D01*
X-196823Y128634D01*
X-196809Y128546D01*
X-196793Y128515D01*
X-196784Y128482D01*
X-196744Y128413D01*
X-196841Y127777D01*
X-196840Y127744D01*
X-196849Y127663D01*
X-196849Y127023D01*
X-196886Y126961D01*
X-196938Y126889D01*
X-196948Y126856D01*
X-196965Y126826D01*
X-197009Y126664D01*
X-197338Y124484D01*
X-197337Y124449D01*
X-197345Y124416D01*
X-197336Y124327D01*
X-197335Y124238D01*
X-197323Y124206D01*
X-197320Y124171D01*
X-197291Y124097D01*
X-197481Y123482D01*
X-197485Y123450D01*
X-197506Y123371D01*
X-197602Y122738D01*
X-197647Y122683D01*
X-197709Y122619D01*
X-197724Y122588D01*
X-197746Y122561D01*
X-197813Y122407D01*
X-198463Y120301D01*
X-198468Y120266D01*
X-198480Y120234D01*
X-198485Y120145D01*
X-198497Y120057D01*
X-198490Y120023D01*
X-198492Y119988D01*
X-198474Y119911D01*
X-198754Y119331D01*
X-198763Y119300D01*
X-198795Y119225D01*
X-198984Y118613D01*
X-198997Y118602D01*
X-199018Y118591D01*
X-199055Y118552D01*
X-199108Y118511D01*
X-199128Y118483D01*
X-199153Y118459D01*
X-199174Y118426D01*
X-199187Y118412D01*
X-199200Y118385D01*
X-199242Y118317D01*
X-200199Y116332D01*
X-200209Y116299D01*
X-200226Y116268D01*
X-200244Y116181D01*
X-200269Y116096D01*
X-200267Y116061D01*
X-200274Y116027D01*
X-200268Y115948D01*
X-200631Y115416D01*
X-200645Y115387D01*
X-200688Y115318D01*
X-200966Y114741D01*
X-201026Y114701D01*
X-201104Y114659D01*
X-201127Y114633D01*
X-201156Y114614D01*
X-201265Y114487D01*
X-202508Y112666D01*
X-202522Y112634D01*
X-202544Y112607D01*
X-202574Y112524D01*
X-202611Y112443D01*
X-202615Y112408D01*
X-202627Y112376D01*
X-202633Y112297D01*
X-203071Y111825D01*
X-203089Y111798D01*
X-203142Y111736D01*
X-203503Y111207D01*
X-203567Y111177D01*
X-203651Y111146D01*
X-203678Y111125D01*
X-203710Y111110D01*
X-203837Y111000D01*
X-205336Y109385D01*
X-205356Y109356D01*
X-205381Y109332D01*
X-205423Y109254D01*
X-205472Y109180D01*
X-205481Y109147D01*
X-205498Y109116D01*
X-205510Y109062D01*
X-205514Y109054D01*
X-205515Y109039D01*
X-206012Y108643D01*
X-206019Y108635D01*
X-206029Y108629D01*
X-206102Y108544D01*
X-206177Y108460D01*
X-206181Y108451D01*
X-206188Y108442D01*
X-206231Y108337D01*
X-206275Y108235D01*
X-206276Y108224D01*
X-206280Y108214D01*
X-206299Y108047D01*
X-206299Y106766D01*
X-206284Y106676D01*
X-206277Y106585D01*
X-206264Y106555D01*
X-206259Y106523D01*
X-206216Y106443D01*
X-206181Y106359D01*
X-206155Y106326D01*
X-206144Y106306D01*
X-206121Y106284D01*
X-206076Y106228D01*
X-204033Y104185D01*
X-204033Y100203D01*
X-206849Y97387D01*
X-210831Y97387D01*
X-213646Y100203D01*
X-213646Y102443D01*
X-213653Y102481D01*
X-213650Y102520D01*
X-213672Y102602D01*
X-213686Y102686D01*
X-213704Y102720D01*
X-213714Y102757D01*
X-213761Y102828D01*
X-213801Y102903D01*
X-213829Y102930D01*
X-213851Y102962D01*
X-213918Y103014D01*
X-213980Y103073D01*
X-214015Y103089D01*
X-214045Y103112D01*
X-214125Y103140D01*
X-214203Y103176D01*
X-214241Y103180D01*
X-214278Y103193D01*
X-214363Y103194D01*
X-214447Y103203D01*
X-214485Y103195D01*
X-214524Y103195D01*
X-214685Y103152D01*
X-214687Y103151D01*
X-216265Y102532D01*
X-216295Y102515D01*
X-216328Y102504D01*
X-216400Y102452D01*
X-216477Y102407D01*
X-216500Y102380D01*
X-216528Y102360D01*
X-216577Y102298D01*
X-217204Y102155D01*
X-217235Y102143D01*
X-217313Y102121D01*
X-217909Y101888D01*
X-217980Y101899D01*
X-218066Y101921D01*
X-218101Y101918D01*
X-218135Y101924D01*
X-218302Y101905D01*
X-220451Y101415D01*
X-220483Y101402D01*
X-220517Y101397D01*
X-220596Y101356D01*
X-220679Y101322D01*
X-220705Y101300D01*
X-220736Y101284D01*
X-220794Y101230D01*
X-221436Y101182D01*
X-221468Y101174D01*
X-221548Y101165D01*
X-222173Y101023D01*
X-222241Y101044D01*
X-222323Y101079D01*
X-222358Y101082D01*
X-222391Y101092D01*
X-222558Y101098D01*
X-224756Y100934D01*
X-224790Y100926D01*
X-224825Y100926D01*
X-224909Y100897D01*
X-224995Y100876D01*
X-225025Y100858D01*
X-225058Y100847D01*
X-225123Y100802D01*
X-225765Y100850D01*
X-225798Y100847D01*
X-225879Y100850D01*
X-226517Y100803D01*
X-226582Y100834D01*
X-226658Y100881D01*
X-226691Y100889D01*
X-226722Y100904D01*
X-226887Y100935D01*
X-229085Y101100D01*
X-229120Y101097D01*
X-229154Y101102D01*
X-229242Y101087D01*
X-229330Y101079D01*
X-229362Y101065D01*
X-229396Y101059D01*
X-229468Y101024D01*
X-230095Y101168D01*
X-230128Y101170D01*
X-230208Y101185D01*
X-230846Y101233D01*
X-230905Y101274D01*
X-230973Y101331D01*
X-231005Y101344D01*
X-231034Y101363D01*
X-231192Y101419D01*
X-233341Y101910D01*
X-233376Y101912D01*
X-233409Y101922D01*
X-233498Y101919D01*
X-233587Y101925D01*
X-233620Y101916D01*
X-233655Y101915D01*
X-233731Y101892D01*
X-234330Y102127D01*
X-234362Y102134D01*
X-234438Y102160D01*
X-235063Y102303D01*
X-235115Y102352D01*
X-235174Y102419D01*
X-235204Y102436D01*
X-235229Y102460D01*
X-235377Y102538D01*
X-237429Y103344D01*
X-237463Y103352D01*
X-237494Y103367D01*
X-237582Y103377D01*
X-237669Y103396D01*
X-237704Y103392D01*
X-237738Y103396D01*
X-237817Y103385D01*
X-238374Y103707D01*
X-238405Y103718D01*
X-238476Y103756D01*
X-239072Y103990D01*
X-239117Y104047D01*
X-239165Y104121D01*
X-239192Y104143D01*
X-239213Y104170D01*
X-239348Y104270D01*
X-241257Y105372D01*
X-241289Y105385D01*
X-241318Y105404D01*
X-241404Y105428D01*
X-241487Y105459D01*
X-241522Y105461D01*
X-241555Y105470D01*
X-241634Y105470D01*
X-242137Y105871D01*
X-242166Y105887D01*
X-242232Y105935D01*
X-242786Y106256D01*
X-242821Y106318D01*
X-242858Y106399D01*
X-242881Y106425D01*
X-242898Y106455D01*
X-243017Y106573D01*
X-244740Y107948D01*
X-244770Y107965D01*
X-244796Y107989D01*
X-244877Y108025D01*
X-244955Y108068D01*
X-244989Y108075D01*
X-245020Y108089D01*
X-245099Y108101D01*
X-245536Y108573D01*
X-245562Y108593D01*
X-245620Y108650D01*
X-246120Y109050D01*
X-246145Y109115D01*
X-246148Y109129D01*
X-246150Y109132D01*
X-246170Y109202D01*
X-246190Y109231D01*
X-246202Y109263D01*
X-246302Y109398D01*
X-247800Y111014D01*
X-247828Y111035D01*
X-247849Y111063D01*
X-247924Y111111D01*
X-247995Y111165D01*
X-248027Y111177D01*
X-248056Y111195D01*
X-248132Y111219D01*
X-248495Y111751D01*
X-248518Y111775D01*
X-248566Y111840D01*
X-249001Y112309D01*
X-249016Y112379D01*
X-249027Y112467D01*
X-249042Y112499D01*
X-249050Y112533D01*
X-249129Y112681D01*
X-249439Y113136D01*
X-249518Y113219D01*
X-249595Y113304D01*
X-249602Y113308D01*
X-249608Y113314D01*
X-249709Y113368D01*
X-249809Y113423D01*
X-249818Y113425D01*
X-249826Y113429D01*
X-249939Y113447D01*
X-250051Y113468D01*
X-250060Y113467D01*
X-250068Y113469D01*
X-250181Y113450D01*
X-250295Y113434D01*
X-250304Y113430D01*
X-250311Y113429D01*
X-250331Y113418D01*
X-250448Y113367D01*
X-280174Y96205D01*
X-280246Y96146D01*
X-280323Y96093D01*
X-280341Y96069D01*
X-280364Y96049D01*
X-280414Y95970D01*
X-280470Y95895D01*
X-280479Y95867D01*
X-280495Y95841D01*
X-280517Y95750D01*
X-280546Y95662D01*
X-280545Y95631D01*
X-280552Y95602D01*
X-280544Y95509D01*
X-280543Y95416D01*
X-280533Y95379D01*
X-280531Y95357D01*
X-280518Y95327D01*
X-280497Y95255D01*
X-279865Y93730D01*
X-279116Y90933D01*
X-278738Y88061D01*
X-278738Y85165D01*
X-279116Y82294D01*
X-279865Y79496D01*
X-280944Y76891D01*
X-283190Y78187D01*
X-283185Y78196D01*
X-283175Y78228D01*
X-283151Y78268D01*
X-282064Y81135D01*
X-282058Y81169D01*
X-282041Y81213D01*
X-281428Y84217D01*
X-281428Y84251D01*
X-281418Y84297D01*
X-281295Y87360D01*
X-281300Y87394D01*
X-281298Y87440D01*
X-281668Y90484D01*
X-281678Y90517D01*
X-281684Y90563D01*
X-282537Y93508D01*
X-282553Y93538D01*
X-282565Y93583D01*
X-283880Y96353D01*
X-283897Y96377D01*
X-283907Y96404D01*
X-283956Y96456D01*
X-283999Y96513D01*
X-284024Y96527D01*
X-284044Y96548D01*
X-284109Y96577D01*
X-284171Y96612D01*
X-284200Y96616D01*
X-284226Y96628D01*
X-284298Y96628D01*
X-284368Y96637D01*
X-284396Y96629D01*
X-284425Y96630D01*
X-284519Y96595D01*
X-284560Y96583D01*
X-284568Y96576D01*
X-284581Y96571D01*
X-301058Y87032D01*
X-301116Y86981D01*
X-301178Y86936D01*
X-301190Y86916D01*
X-301207Y86900D01*
X-301240Y86831D01*
X-301279Y86765D01*
X-301284Y86739D01*
X-301293Y86721D01*
X-301295Y86676D01*
X-301307Y86601D01*
X-301330Y67561D01*
X-301324Y67533D01*
X-301327Y67504D01*
X-301305Y67436D01*
X-301291Y67366D01*
X-301274Y67342D01*
X-301265Y67315D01*
X-301219Y67261D01*
X-301178Y67202D01*
X-301154Y67187D01*
X-301135Y67165D01*
X-301071Y67133D01*
X-301011Y67095D01*
X-300982Y67090D01*
X-300956Y67077D01*
X-300857Y67069D01*
X-300815Y67062D01*
X-300804Y67064D01*
X-300791Y67063D01*
X-297734Y67310D01*
X-297702Y67319D01*
X-297655Y67323D01*
X-294678Y68056D01*
X-294647Y68071D01*
X-294602Y68082D01*
X-291781Y69284D01*
X-291753Y69303D01*
X-291710Y69321D01*
X-289118Y70960D01*
X-289094Y70983D01*
X-289054Y71008D01*
X-286759Y73041D01*
X-286739Y73068D01*
X-286703Y73099D01*
X-284764Y75474D01*
X-284748Y75504D01*
X-284719Y75540D01*
X-284714Y75549D01*
X-282468Y74252D01*
X-284184Y72015D01*
X-286232Y69967D01*
X-288530Y68204D01*
X-291038Y66756D01*
X-293714Y65647D01*
X-296511Y64898D01*
X-298150Y64682D01*
X-298239Y64655D01*
X-298330Y64635D01*
X-298356Y64620D01*
X-298385Y64611D01*
X-298461Y64557D01*
X-298541Y64509D01*
X-298561Y64486D01*
X-298586Y64469D01*
X-298641Y64393D01*
X-298701Y64322D01*
X-298713Y64294D01*
X-298730Y64270D01*
X-298758Y64181D01*
X-298793Y64094D01*
X-298798Y64056D01*
X-298804Y64035D01*
X-298803Y64002D01*
X-298812Y63927D01*
X-298812Y29587D01*
X-298793Y29474D01*
X-298777Y29361D01*
X-298773Y29353D01*
X-298772Y29344D01*
X-298719Y29244D01*
X-298667Y29141D01*
X-298661Y29134D01*
X-298657Y29127D01*
X-298574Y29048D01*
X-298493Y28967D01*
X-298485Y28963D01*
X-298479Y28957D01*
X-298375Y28909D01*
X-298272Y28859D01*
X-298262Y28857D01*
X-298256Y28854D01*
X-298233Y28851D01*
X-298107Y28828D01*
X-297551Y28786D01*
X-297517Y28789D01*
X-297482Y28784D01*
X-297395Y28800D01*
X-297306Y28807D01*
X-297275Y28821D01*
X-297240Y28827D01*
X-297169Y28862D01*
X-296541Y28719D01*
X-296508Y28717D01*
X-296429Y28702D01*
X-295790Y28654D01*
X-295731Y28613D01*
X-295663Y28556D01*
X-295631Y28543D01*
X-295602Y28524D01*
X-295444Y28468D01*
X-294160Y28175D01*
X-293297Y27978D01*
X-293263Y27976D01*
X-293230Y27966D01*
X-293141Y27969D01*
X-293052Y27963D01*
X-293018Y27972D01*
X-292984Y27973D01*
X-292908Y27997D01*
X-292309Y27762D01*
X-292277Y27755D01*
X-292200Y27728D01*
X-291576Y27586D01*
X-291524Y27536D01*
X-291465Y27470D01*
X-291435Y27452D01*
X-291409Y27428D01*
X-291261Y27350D01*
X-289211Y26546D01*
X-289177Y26539D01*
X-289146Y26524D01*
X-289058Y26513D01*
X-288971Y26494D01*
X-288936Y26498D01*
X-288902Y26494D01*
X-288823Y26506D01*
X-288266Y26184D01*
X-288235Y26172D01*
X-288163Y26135D01*
X-287567Y25901D01*
X-287523Y25844D01*
X-287475Y25770D01*
X-287448Y25748D01*
X-287427Y25721D01*
X-287291Y25621D01*
X-285384Y24520D01*
X-285352Y24508D01*
X-285323Y24489D01*
X-285238Y24465D01*
X-285154Y24433D01*
X-285120Y24432D01*
X-285086Y24423D01*
X-285007Y24423D01*
X-284504Y24022D01*
X-284475Y24006D01*
X-284410Y23958D01*
X-283855Y23637D01*
X-283820Y23575D01*
X-283783Y23494D01*
X-283760Y23468D01*
X-283743Y23438D01*
X-283624Y23320D01*
X-281902Y21947D01*
X-281872Y21930D01*
X-281846Y21907D01*
X-281765Y21870D01*
X-281688Y21827D01*
X-281654Y21820D01*
X-281622Y21806D01*
X-281543Y21794D01*
X-281106Y21323D01*
X-281080Y21302D01*
X-281022Y21245D01*
X-280521Y20846D01*
X-280496Y20779D01*
X-280472Y20693D01*
X-280452Y20665D01*
X-280440Y20632D01*
X-280340Y20498D01*
X-278842Y18883D01*
X-278815Y18862D01*
X-278793Y18835D01*
X-278718Y18787D01*
X-278648Y18733D01*
X-278615Y18721D01*
X-278586Y18702D01*
X-278510Y18679D01*
X-278148Y18147D01*
X-278125Y18123D01*
X-278077Y18058D01*
X-277641Y17589D01*
X-277626Y17519D01*
X-277615Y17431D01*
X-277600Y17399D01*
X-277592Y17366D01*
X-277514Y17217D01*
X-276273Y15398D01*
X-276249Y15373D01*
X-276232Y15343D01*
X-276165Y15284D01*
X-276104Y15220D01*
X-276073Y15204D01*
X-276047Y15181D01*
X-275975Y15147D01*
X-275696Y14567D01*
X-275677Y14540D01*
X-275639Y14468D01*
X-275278Y13939D01*
X-275274Y13868D01*
X-275276Y13778D01*
X-275266Y13745D01*
X-275264Y13711D01*
X-275208Y13553D01*
X-274840Y12790D01*
X-274826Y12769D01*
X-274818Y12746D01*
X-274756Y12669D01*
X-274699Y12588D01*
X-274680Y12574D01*
X-274664Y12554D01*
X-274581Y12501D01*
X-274501Y12442D01*
X-274478Y12435D01*
X-274457Y12421D01*
X-274361Y12397D01*
X-274267Y12367D01*
X-274243Y12367D01*
X-274219Y12361D01*
X-274120Y12369D01*
X-274021Y12370D01*
X-273998Y12378D01*
X-273974Y12380D01*
X-273883Y12419D01*
X-273789Y12452D01*
X-273770Y12467D01*
X-273747Y12477D01*
X-273616Y12582D01*
X-271866Y14332D01*
X-267884Y14332D01*
X-265068Y11516D01*
X-265068Y7534D01*
X-267884Y4718D01*
X-271363Y4718D01*
X-271439Y4706D01*
X-271515Y4703D01*
X-271559Y4686D01*
X-271606Y4679D01*
X-271673Y4643D01*
X-271745Y4615D01*
X-271781Y4585D01*
X-271823Y4563D01*
X-271876Y4508D01*
X-271935Y4459D01*
X-271960Y4419D01*
X-271992Y4385D01*
X-272025Y4315D01*
X-272065Y4250D01*
X-272076Y4205D01*
X-272096Y4162D01*
X-272104Y4086D01*
X-272122Y4011D01*
X-272120Y3948D01*
X-272123Y3918D01*
X-272118Y3892D01*
X-272116Y3844D01*
X-272023Y3226D01*
X-272012Y3193D01*
X-272009Y3158D01*
X-271974Y3077D01*
X-271947Y2992D01*
X-271926Y2964D01*
X-271913Y2932D01*
X-271863Y2870D01*
X-271863Y2227D01*
X-271858Y2194D01*
X-271855Y2113D01*
X-271759Y1480D01*
X-271786Y1413D01*
X-271827Y1334D01*
X-271832Y1300D01*
X-271845Y1268D01*
X-271863Y1101D01*
X-271863Y-1101D01*
X-271858Y-1135D01*
X-271860Y-1170D01*
X-271838Y-1256D01*
X-271824Y-1344D01*
X-271807Y-1374D01*
X-271799Y-1408D01*
X-271759Y-1477D01*
X-271855Y-2113D01*
X-271854Y-2146D01*
X-271863Y-2227D01*
X-271863Y-2867D01*
X-271900Y-2929D01*
X-271952Y-3001D01*
X-271962Y-3034D01*
X-271979Y-3064D01*
X-272023Y-3226D01*
X-272351Y-5403D01*
X-272350Y-5438D01*
X-272358Y-5472D01*
X-272349Y-5560D01*
X-272348Y-5649D01*
X-272336Y-5682D01*
X-272333Y-5717D01*
X-272303Y-5790D01*
X-272493Y-6405D01*
X-272498Y-6438D01*
X-272518Y-6516D01*
X-272614Y-7150D01*
X-272659Y-7205D01*
X-272721Y-7269D01*
X-272736Y-7300D01*
X-272758Y-7327D01*
X-272825Y-7481D01*
X-273474Y-9585D01*
X-273479Y-9619D01*
X-273491Y-9652D01*
X-273495Y-9741D01*
X-273507Y-9829D01*
X-273501Y-9863D01*
X-273503Y-9897D01*
X-273485Y-9975D01*
X-273764Y-10555D01*
X-273773Y-10586D01*
X-273806Y-10661D01*
X-273994Y-11272D01*
X-274047Y-11321D01*
X-274118Y-11374D01*
X-274138Y-11403D01*
X-274163Y-11426D01*
X-274252Y-11569D01*
X-275208Y-13553D01*
X-275218Y-13586D01*
X-275235Y-13616D01*
X-275252Y-13703D01*
X-275277Y-13788D01*
X-275276Y-13823D01*
X-275283Y-13857D01*
X-275277Y-13936D01*
X-275639Y-14468D01*
X-275653Y-14498D01*
X-275696Y-14567D01*
X-275974Y-15144D01*
X-276034Y-15183D01*
X-276112Y-15226D01*
X-276135Y-15251D01*
X-276164Y-15271D01*
X-276273Y-15398D01*
X-276389Y-15568D01*
X-276908Y-16329D01*
X-277427Y-17090D01*
X-277514Y-17217D01*
X-277528Y-17249D01*
X-277550Y-17276D01*
X-277580Y-17360D01*
X-277618Y-17440D01*
X-277621Y-17475D01*
X-277633Y-17507D01*
X-277639Y-17587D01*
X-278077Y-18058D01*
X-278095Y-18086D01*
X-278148Y-18147D01*
X-278465Y-18612D01*
X-278465Y-18613D01*
X-278508Y-18676D01*
X-278573Y-18707D01*
X-278657Y-18737D01*
X-278684Y-18759D01*
X-278715Y-18774D01*
X-278842Y-18883D01*
X-280340Y-20498D01*
X-280359Y-20526D01*
X-280385Y-20550D01*
X-280427Y-20628D01*
X-280476Y-20703D01*
X-280485Y-20736D01*
X-280501Y-20766D01*
X-280519Y-20844D01*
X-281022Y-21245D01*
X-281044Y-21270D01*
X-281106Y-21323D01*
X-281541Y-21792D01*
X-281610Y-21813D01*
X-281697Y-21830D01*
X-281727Y-21848D01*
X-281760Y-21858D01*
X-281902Y-21947D01*
X-283624Y-23320D01*
X-283647Y-23345D01*
X-283676Y-23365D01*
X-283729Y-23437D01*
X-283789Y-23502D01*
X-283803Y-23534D01*
X-283823Y-23562D01*
X-283852Y-23636D01*
X-284410Y-23957D01*
X-284435Y-23978D01*
X-284504Y-24022D01*
X-285004Y-24421D01*
X-285075Y-24431D01*
X-285164Y-24435D01*
X-285196Y-24448D01*
X-285231Y-24453D01*
X-285384Y-24520D01*
X-287291Y-25621D01*
X-287318Y-25643D01*
X-287349Y-25658D01*
X-287413Y-25721D01*
X-287482Y-25777D01*
X-287500Y-25806D01*
X-287525Y-25831D01*
X-287564Y-25900D01*
X-288163Y-26135D01*
X-288192Y-26151D01*
X-288266Y-26184D01*
X-288821Y-26504D01*
X-288892Y-26504D01*
X-288981Y-26495D01*
X-289015Y-26502D01*
X-289049Y-26502D01*
X-289211Y-26546D01*
X-291261Y-27350D01*
X-291291Y-27368D01*
X-291324Y-27378D01*
X-291396Y-27430D01*
X-291472Y-27476D01*
X-291495Y-27502D01*
X-291523Y-27523D01*
X-291573Y-27585D01*
X-292200Y-27728D01*
X-292231Y-27740D01*
X-292309Y-27762D01*
X-292905Y-27995D01*
X-292976Y-27984D01*
X-293062Y-27962D01*
X-293096Y-27965D01*
X-293131Y-27959D01*
X-293297Y-27978D01*
X-295444Y-28468D01*
X-295476Y-28481D01*
X-295510Y-28487D01*
X-295590Y-28528D01*
X-295672Y-28561D01*
X-295698Y-28584D01*
X-295729Y-28600D01*
X-295787Y-28654D01*
X-296429Y-28702D01*
X-296461Y-28710D01*
X-296541Y-28719D01*
X-297166Y-28861D01*
X-297234Y-28840D01*
X-297316Y-28805D01*
X-297350Y-28803D01*
X-297384Y-28792D01*
X-297551Y-28786D01*
X-298107Y-28828D01*
X-298219Y-28855D01*
X-298330Y-28879D01*
X-298338Y-28883D01*
X-298347Y-28885D01*
X-298444Y-28947D01*
X-298541Y-29005D01*
X-298547Y-29012D01*
X-298555Y-29016D01*
X-298627Y-29105D01*
X-298701Y-29192D01*
X-298705Y-29200D01*
X-298710Y-29207D01*
X-298750Y-29313D01*
X-298793Y-29420D01*
X-298794Y-29431D01*
X-298797Y-29437D01*
X-298798Y-29460D01*
X-298812Y-29587D01*
X-298812Y-63927D01*
X-298797Y-64019D01*
X-298789Y-64112D01*
X-298777Y-64140D01*
X-298772Y-64170D01*
X-298728Y-64253D01*
X-298691Y-64338D01*
X-298671Y-64361D01*
X-298657Y-64388D01*
X-298589Y-64452D01*
X-298527Y-64521D01*
X-298501Y-64536D01*
X-298479Y-64557D01*
X-298394Y-64596D01*
X-298313Y-64642D01*
X-298276Y-64651D01*
X-298256Y-64661D01*
X-298223Y-64664D01*
X-298150Y-64682D01*
X-296511Y-64898D01*
X-293853Y-65610D01*
X-293714Y-65647D01*
X-291126Y-66719D01*
X-291038Y-66756D01*
X-288588Y-68170D01*
X-288530Y-68204D01*
X-286790Y-69539D01*
X-286232Y-69967D01*
X-284185Y-72015D01*
X-282468Y-74252D01*
X-284714Y-75549D01*
X-284719Y-75540D01*
X-284741Y-75515D01*
X-284764Y-75474D01*
X-286703Y-73099D01*
X-286730Y-73078D01*
X-286759Y-73041D01*
X-289054Y-71008D01*
X-289083Y-70991D01*
X-289118Y-70960D01*
X-291710Y-69321D01*
X-291742Y-69309D01*
X-291781Y-69284D01*
X-294602Y-68082D01*
X-294635Y-68075D01*
X-294678Y-68056D01*
X-297655Y-67323D01*
X-297689Y-67321D01*
X-297734Y-67310D01*
X-300791Y-67063D01*
X-300819Y-67066D01*
X-300848Y-67062D01*
X-300917Y-67078D01*
X-300988Y-67087D01*
X-301013Y-67101D01*
X-301041Y-67108D01*
X-301099Y-67150D01*
X-301161Y-67186D01*
X-301178Y-67209D01*
X-301201Y-67226D01*
X-301238Y-67287D01*
X-301281Y-67344D01*
X-301288Y-67372D01*
X-301303Y-67397D01*
X-301319Y-67496D01*
X-301330Y-67537D01*
X-301328Y-67548D01*
X-301330Y-67561D01*
X-301307Y-86601D01*
X-301292Y-86676D01*
X-301284Y-86752D01*
X-301272Y-86773D01*
X-301268Y-86795D01*
X-301224Y-86859D01*
X-301186Y-86926D01*
X-301166Y-86942D01*
X-301155Y-86959D01*
X-301117Y-86983D01*
X-301058Y-87032D01*
X-284581Y-96571D01*
X-284554Y-96581D01*
X-284530Y-96597D01*
X-284460Y-96612D01*
X-284393Y-96635D01*
X-284364Y-96633D01*
X-284335Y-96639D01*
X-284265Y-96625D01*
X-284194Y-96620D01*
X-284169Y-96606D01*
X-284140Y-96601D01*
X-284081Y-96561D01*
X-284018Y-96528D01*
X-283999Y-96506D01*
X-283975Y-96490D01*
X-283918Y-96408D01*
X-283891Y-96375D01*
X-283888Y-96365D01*
X-283880Y-96353D01*
X-282565Y-93583D01*
X-282557Y-93550D01*
X-282537Y-93508D01*
X-281684Y-90563D01*
X-281681Y-90529D01*
X-281668Y-90484D01*
X-281298Y-87440D01*
X-281301Y-87407D01*
X-281295Y-87360D01*
X-281418Y-84297D01*
X-281426Y-84264D01*
X-281428Y-84217D01*
X-282041Y-81213D01*
X-282055Y-81181D01*
X-282064Y-81135D01*
X-283151Y-78268D01*
X-283169Y-78240D01*
X-283185Y-78196D01*
X-283190Y-78187D01*
X-280944Y-76890D01*
X-279865Y-79496D01*
X-279116Y-82294D01*
X-278738Y-85165D01*
X-278738Y-88061D01*
X-279116Y-90933D01*
X-279865Y-93730D01*
X-280497Y-95255D01*
X-280518Y-95345D01*
X-280546Y-95434D01*
X-280546Y-95465D01*
X-280553Y-95494D01*
X-280544Y-95587D01*
X-280543Y-95680D01*
X-280533Y-95709D01*
X-280530Y-95739D01*
X-280492Y-95824D01*
X-280461Y-95912D01*
X-280442Y-95936D01*
X-280430Y-95964D01*
X-280367Y-96032D01*
X-280309Y-96106D01*
X-280278Y-96128D01*
X-280263Y-96145D01*
X-280235Y-96160D01*
X-280174Y-96205D01*
X-250448Y-113367D01*
X-250341Y-113407D01*
X-250235Y-113450D01*
X-250226Y-113451D01*
X-250218Y-113454D01*
X-250104Y-113458D01*
X-249990Y-113465D01*
X-249981Y-113462D01*
X-249973Y-113463D01*
X-249863Y-113430D01*
X-249752Y-113400D01*
X-249745Y-113395D01*
X-249737Y-113393D01*
X-249643Y-113327D01*
X-249548Y-113263D01*
X-249541Y-113255D01*
X-249535Y-113251D01*
X-249522Y-113233D01*
X-249439Y-113136D01*
X-249129Y-112681D01*
X-249114Y-112649D01*
X-249092Y-112622D01*
X-249062Y-112538D01*
X-249025Y-112458D01*
X-249021Y-112423D01*
X-249009Y-112391D01*
X-249003Y-112312D01*
X-248566Y-111840D01*
X-248548Y-111812D01*
X-248495Y-111751D01*
X-248379Y-111580D01*
X-248378Y-111580D01*
X-248134Y-111221D01*
X-248069Y-111191D01*
X-247986Y-111160D01*
X-247959Y-111139D01*
X-247927Y-111124D01*
X-247800Y-111014D01*
X-246302Y-109398D01*
X-246283Y-109369D01*
X-246257Y-109345D01*
X-246233Y-109300D01*
X-246229Y-109296D01*
X-246219Y-109275D01*
X-246215Y-109267D01*
X-246166Y-109193D01*
X-246157Y-109160D01*
X-246140Y-109129D01*
X-246130Y-109083D01*
X-246125Y-109073D01*
X-246123Y-109052D01*
X-245620Y-108650D01*
X-245598Y-108626D01*
X-245536Y-108573D01*
X-245101Y-108103D01*
X-245032Y-108083D01*
X-244945Y-108065D01*
X-244915Y-108048D01*
X-244882Y-108038D01*
X-244751Y-107955D01*
X-244745Y-107952D01*
X-244744Y-107951D01*
X-244740Y-107948D01*
X-243017Y-106573D01*
X-242994Y-106548D01*
X-242965Y-106528D01*
X-242912Y-106457D01*
X-242852Y-106391D01*
X-242838Y-106359D01*
X-242818Y-106331D01*
X-242789Y-106257D01*
X-242232Y-105935D01*
X-242206Y-105914D01*
X-242137Y-105871D01*
X-241637Y-105472D01*
X-241566Y-105462D01*
X-241477Y-105457D01*
X-241445Y-105445D01*
X-241411Y-105440D01*
X-241257Y-105372D01*
X-239348Y-104270D01*
X-239321Y-104248D01*
X-239290Y-104232D01*
X-239227Y-104170D01*
X-239158Y-104114D01*
X-239140Y-104084D01*
X-239115Y-104060D01*
X-239075Y-103991D01*
X-238476Y-103756D01*
X-238448Y-103739D01*
X-238374Y-103707D01*
X-237819Y-103386D01*
X-237748Y-103387D01*
X-237659Y-103396D01*
X-237625Y-103388D01*
X-237591Y-103388D01*
X-237429Y-103344D01*
X-235377Y-102538D01*
X-235347Y-102521D01*
X-235314Y-102510D01*
X-235242Y-102458D01*
X-235166Y-102413D01*
X-235143Y-102386D01*
X-235115Y-102366D01*
X-235066Y-102304D01*
X-234438Y-102160D01*
X-234408Y-102148D01*
X-234330Y-102127D01*
X-233734Y-101893D01*
X-233663Y-101904D01*
X-233577Y-101926D01*
X-233542Y-101923D01*
X-233508Y-101929D01*
X-233341Y-101910D01*
X-231192Y-101418D01*
X-231160Y-101405D01*
X-231126Y-101400D01*
X-231047Y-101359D01*
X-230965Y-101326D01*
X-230938Y-101303D01*
X-230907Y-101287D01*
X-230849Y-101233D01*
X-230208Y-101185D01*
X-230176Y-101177D01*
X-230095Y-101168D01*
X-229471Y-101025D01*
X-229403Y-101047D01*
X-229320Y-101081D01*
X-229286Y-101084D01*
X-229253Y-101094D01*
X-229085Y-101100D01*
X-226887Y-100935D01*
X-226854Y-100927D01*
X-226819Y-100927D01*
X-226735Y-100898D01*
X-226648Y-100877D01*
X-226619Y-100858D01*
X-226586Y-100847D01*
X-226521Y-100802D01*
X-225879Y-100850D01*
X-225846Y-100847D01*
X-225765Y-100850D01*
X-225126Y-100802D01*
X-225062Y-100834D01*
X-224986Y-100880D01*
X-224952Y-100888D01*
X-224921Y-100903D01*
X-224756Y-100934D01*
X-222558Y-101098D01*
X-222524Y-101095D01*
X-222489Y-101100D01*
X-222402Y-101084D01*
X-222313Y-101077D01*
X-222282Y-101063D01*
X-222247Y-101057D01*
X-222176Y-101022D01*
X-221548Y-101165D01*
X-221515Y-101167D01*
X-221436Y-101182D01*
X-220797Y-101230D01*
X-220738Y-101270D01*
X-220670Y-101328D01*
X-220638Y-101340D01*
X-220609Y-101360D01*
X-220451Y-101415D01*
X-218302Y-101905D01*
X-218267Y-101907D01*
X-218234Y-101917D01*
X-218145Y-101915D01*
X-218056Y-101920D01*
X-218023Y-101911D01*
X-217988Y-101910D01*
X-217913Y-101886D01*
X-217313Y-102121D01*
X-217281Y-102128D01*
X-217204Y-102155D01*
X-216580Y-102297D01*
X-216528Y-102346D01*
X-216469Y-102413D01*
X-216439Y-102430D01*
X-216414Y-102454D01*
X-216265Y-102532D01*
X-214213Y-103337D01*
X-214179Y-103344D01*
X-214148Y-103359D01*
X-214060Y-103370D01*
X-213973Y-103389D01*
X-213938Y-103385D01*
X-213904Y-103389D01*
X-213825Y-103377D01*
X-213268Y-103698D01*
X-213237Y-103710D01*
X-213165Y-103748D01*
X-212569Y-103982D01*
X-212525Y-104038D01*
X-212477Y-104113D01*
X-212450Y-104134D01*
X-212428Y-104162D01*
X-212293Y-104261D01*
X-210384Y-105362D01*
X-210351Y-105375D01*
X-210323Y-105394D01*
X-210237Y-105418D01*
X-210154Y-105449D01*
X-210119Y-105451D01*
X-210086Y-105460D01*
X-210006Y-105460D01*
X-209503Y-105861D01*
X-209474Y-105877D01*
X-209409Y-105925D01*
X-208854Y-106245D01*
X-208819Y-106307D01*
X-208782Y-106388D01*
X-208759Y-106414D01*
X-208742Y-106444D01*
X-208623Y-106562D01*
X-207635Y-107350D01*
X-207592Y-107374D01*
X-207555Y-107405D01*
X-207485Y-107433D01*
X-207420Y-107470D01*
X-207372Y-107479D01*
X-207327Y-107497D01*
X-207201Y-107511D01*
X-207178Y-107515D01*
X-207171Y-107514D01*
X-207160Y-107516D01*
X-204808Y-107516D01*
X-204718Y-107501D01*
X-204627Y-107494D01*
X-204597Y-107481D01*
X-204565Y-107476D01*
X-204484Y-107433D01*
X-204400Y-107398D01*
X-204368Y-107372D01*
X-204348Y-107361D01*
X-204325Y-107337D01*
X-204269Y-107293D01*
X-202226Y-105250D01*
X-198244Y-105250D01*
X-195429Y-108065D01*
X-195429Y-112047D01*
X-198244Y-114863D01*
X-199567Y-114863D01*
X-199568Y-114863D01*
X-199569Y-114863D01*
X-199692Y-114884D01*
X-199810Y-114903D01*
X-199811Y-114903D01*
X-199921Y-114961D01*
X-200028Y-115018D01*
X-200029Y-115019D01*
X-200113Y-115108D01*
X-200197Y-115196D01*
X-200197Y-115197D01*
X-200198Y-115197D01*
X-200252Y-115316D01*
X-200301Y-115419D01*
X-200301Y-115420D01*
X-200301Y-115421D01*
X-200314Y-115542D01*
X-200328Y-115664D01*
X-200328Y-115665D01*
X-200302Y-115782D01*
X-200275Y-115904D01*
X-200275Y-115905D01*
X-200268Y-115918D01*
X-200271Y-115928D01*
X-200265Y-116017D01*
X-200267Y-116106D01*
X-200257Y-116139D01*
X-200255Y-116174D01*
X-200199Y-116332D01*
X-199242Y-118317D01*
X-199222Y-118346D01*
X-199210Y-118378D01*
X-199152Y-118446D01*
X-199101Y-118519D01*
X-199073Y-118539D01*
X-199051Y-118566D01*
X-198985Y-118610D01*
X-198795Y-119225D01*
X-198780Y-119255D01*
X-198754Y-119331D01*
X-198475Y-119908D01*
X-198481Y-119980D01*
X-198497Y-120067D01*
X-198492Y-120101D01*
X-198495Y-120136D01*
X-198463Y-120301D01*
X-197813Y-122407D01*
X-197797Y-122438D01*
X-197789Y-122472D01*
X-197743Y-122548D01*
X-197703Y-122627D01*
X-197679Y-122651D01*
X-197660Y-122681D01*
X-197602Y-122735D01*
X-197506Y-123371D01*
X-197496Y-123403D01*
X-197481Y-123482D01*
X-197292Y-124094D01*
X-197308Y-124164D01*
X-197336Y-124248D01*
X-197336Y-124283D01*
X-197344Y-124317D01*
X-197338Y-124484D01*
X-197009Y-126664D01*
X-196998Y-126697D01*
X-196995Y-126731D01*
X-196960Y-126813D01*
X-196933Y-126898D01*
X-196912Y-126926D01*
X-196899Y-126958D01*
X-196849Y-127019D01*
X-196849Y-127663D01*
X-196844Y-127696D01*
X-196841Y-127777D01*
X-196745Y-128410D01*
X-196772Y-128476D01*
X-196812Y-128555D01*
X-196817Y-128590D01*
X-196830Y-128622D01*
X-196849Y-128789D01*
X-196848Y-130993D01*
X-196842Y-131027D01*
X-196845Y-131062D01*
X-196823Y-131148D01*
X-196808Y-131235D01*
X-196792Y-131266D01*
X-196783Y-131300D01*
X-196743Y-131368D01*
X-196839Y-132005D01*
X-196839Y-132038D01*
X-196848Y-132118D01*
X-196847Y-132759D01*
X-196858Y-132776D01*
X-196880Y-132800D01*
X-196901Y-132844D01*
X-196936Y-132893D01*
X-196946Y-132926D01*
X-196963Y-132956D01*
X-196978Y-133010D01*
X-196984Y-133023D01*
X-196986Y-133040D01*
X-197007Y-133118D01*
X-197334Y-135298D01*
X-197334Y-135332D01*
X-197341Y-135366D01*
X-197332Y-135455D01*
X-197331Y-135543D01*
X-197320Y-135576D01*
X-197316Y-135611D01*
X-197287Y-135684D01*
X-197476Y-136300D01*
X-197481Y-136332D01*
X-197502Y-136411D01*
X-197597Y-137044D01*
X-197642Y-137100D01*
X-197704Y-137163D01*
X-197719Y-137194D01*
X-197741Y-137221D01*
X-197808Y-137375D01*
X-198457Y-139482D01*
X-198462Y-139516D01*
X-198474Y-139548D01*
X-198478Y-139637D01*
X-198490Y-139725D01*
X-198484Y-139759D01*
X-198486Y-139794D01*
X-198468Y-139871D01*
X-198747Y-140451D01*
X-198756Y-140483D01*
X-198788Y-140557D01*
X-198977Y-141169D01*
X-199030Y-141218D01*
X-199101Y-141271D01*
X-199120Y-141300D01*
X-199146Y-141323D01*
X-199235Y-141466D01*
X-199482Y-141978D01*
X-199514Y-142087D01*
X-199549Y-142197D01*
X-199548Y-142206D01*
X-199551Y-142214D01*
X-199547Y-142329D01*
X-199545Y-142443D01*
X-199542Y-142451D01*
X-199542Y-142460D01*
X-199501Y-142567D01*
X-199463Y-142675D01*
X-199457Y-142682D01*
X-199454Y-142690D01*
X-199382Y-142779D01*
X-199311Y-142868D01*
X-199303Y-142875D01*
X-199298Y-142880D01*
X-199278Y-142893D01*
X-199176Y-142968D01*
X-169447Y-160132D01*
X-169359Y-160165D01*
X-169275Y-160204D01*
X-169245Y-160208D01*
X-169217Y-160219D01*
X-169124Y-160222D01*
X-169031Y-160233D01*
X-169001Y-160226D01*
X-168971Y-160228D01*
X-168882Y-160201D01*
X-168790Y-160182D01*
X-168764Y-160166D01*
X-168735Y-160158D01*
X-168659Y-160104D01*
X-168578Y-160057D01*
X-168552Y-160029D01*
X-168534Y-160016D01*
X-168515Y-159990D01*
X-168462Y-159936D01*
X-167938Y-159253D01*
X-167459Y-158628D01*
X-166946Y-158115D01*
X-165411Y-156580D01*
X-163113Y-154817D01*
X-160605Y-153369D01*
X-157929Y-152261D01*
X-155132Y-151511D01*
X-152336Y-151143D01*
X-152336Y-153736D01*
X-152346Y-153736D01*
X-152379Y-153743D01*
X-152426Y-153743D01*
X-155452Y-154235D01*
X-155484Y-154247D01*
X-155530Y-154254D01*
X-158439Y-155225D01*
X-158468Y-155242D01*
X-158512Y-155256D01*
X-161227Y-156681D01*
X-161254Y-156703D01*
X-161295Y-156724D01*
X-163747Y-158566D01*
X-163769Y-158591D01*
X-163807Y-158619D01*
X-165931Y-160831D01*
X-165949Y-160859D01*
X-165982Y-160893D01*
X-167723Y-163416D01*
X-167735Y-163443D01*
X-167753Y-163465D01*
X-167774Y-163534D01*
X-167801Y-163599D01*
X-167802Y-163628D01*
X-167810Y-163656D01*
X-167802Y-163727D01*
X-167802Y-163798D01*
X-167791Y-163825D01*
X-167788Y-163854D01*
X-167753Y-163916D01*
X-167725Y-163981D01*
X-167704Y-164002D01*
X-167690Y-164027D01*
X-167627Y-164079D01*
X-167623Y-164084D01*
X-167613Y-164090D01*
X-167582Y-164120D01*
X-167572Y-164124D01*
X-167562Y-164133D01*
X-151062Y-173633D01*
X-150989Y-173657D01*
X-150918Y-173688D01*
X-150895Y-173688D01*
X-150873Y-173696D01*
X-150796Y-173690D01*
G37*
G36*
X234765Y-109970D02*
X234765Y-109970D01*
X234817Y-109973D01*
X234886Y-109953D01*
X234957Y-109942D01*
X235003Y-109918D01*
X235054Y-109904D01*
X235151Y-109843D01*
X235176Y-109831D01*
X235183Y-109824D01*
X235196Y-109815D01*
X239008Y-106820D01*
X239017Y-106810D01*
X239029Y-106803D01*
X239100Y-106720D01*
X239174Y-106639D01*
X239180Y-106627D01*
X239189Y-106617D01*
X239230Y-106514D01*
X239274Y-106414D01*
X239276Y-106401D01*
X239281Y-106388D01*
X239299Y-106222D01*
X239299Y-96474D01*
X286859Y-48914D01*
X286912Y-48840D01*
X286971Y-48771D01*
X286983Y-48741D01*
X287002Y-48714D01*
X287029Y-48627D01*
X287063Y-48543D01*
X287068Y-48502D01*
X287074Y-48479D01*
X287074Y-48447D01*
X287082Y-48376D01*
X287082Y20714D01*
X287078Y20734D01*
X287080Y20753D01*
X287058Y20855D01*
X287042Y20957D01*
X287032Y20974D01*
X287028Y20994D01*
X286975Y21083D01*
X286927Y21174D01*
X286912Y21188D01*
X286902Y21205D01*
X286823Y21272D01*
X286748Y21344D01*
X286730Y21352D01*
X286715Y21365D01*
X286619Y21404D01*
X286525Y21447D01*
X286506Y21449D01*
X286487Y21457D01*
X286320Y21475D01*
X274006Y21475D01*
X273113Y22368D01*
X273113Y51632D01*
X274006Y52525D01*
X296426Y52525D01*
X296445Y52528D01*
X296465Y52526D01*
X296566Y52548D01*
X296668Y52564D01*
X296686Y52574D01*
X296705Y52578D01*
X296794Y52631D01*
X296886Y52680D01*
X296899Y52694D01*
X296916Y52704D01*
X296984Y52783D01*
X297055Y52858D01*
X297063Y52876D01*
X297076Y52891D01*
X297115Y52987D01*
X297159Y53081D01*
X297161Y53101D01*
X297168Y53119D01*
X297187Y53286D01*
X297187Y64903D01*
X297178Y64955D01*
X297180Y65007D01*
X297159Y65075D01*
X297147Y65146D01*
X297123Y65192D01*
X297107Y65242D01*
X297065Y65300D01*
X297032Y65364D01*
X296994Y65399D01*
X296964Y65441D01*
X296906Y65483D01*
X296854Y65533D01*
X296806Y65555D01*
X296764Y65585D01*
X296655Y65625D01*
X296631Y65637D01*
X296621Y65638D01*
X296607Y65643D01*
X295874Y65823D01*
X295841Y65825D01*
X295753Y65842D01*
X295136Y65891D01*
X295063Y65943D01*
X294992Y66004D01*
X294964Y66015D01*
X294939Y66033D01*
X294782Y66090D01*
X293556Y66391D01*
X293526Y66393D01*
X293498Y66403D01*
X293404Y66403D01*
X293311Y66410D01*
X293282Y66403D01*
X293252Y66403D01*
X293156Y66376D01*
X292581Y66620D01*
X292549Y66628D01*
X292465Y66658D01*
X291864Y66806D01*
X291801Y66869D01*
X291740Y66940D01*
X291714Y66955D01*
X291693Y66977D01*
X291547Y67059D01*
X290385Y67552D01*
X290356Y67559D01*
X290329Y67574D01*
X290237Y67588D01*
X290146Y67611D01*
X290116Y67608D01*
X290086Y67613D01*
X289987Y67602D01*
X289459Y67935D01*
X289429Y67947D01*
X289351Y67991D01*
X288782Y68233D01*
X288729Y68306D01*
X288681Y68386D01*
X288657Y68405D01*
X288640Y68430D01*
X288509Y68534D01*
X287441Y69207D01*
X287413Y69219D01*
X287389Y69237D01*
X287301Y69267D01*
X287215Y69303D01*
X287185Y69306D01*
X287156Y69315D01*
X287056Y69320D01*
X286589Y69733D01*
X286561Y69751D01*
X286491Y69807D01*
X285953Y70146D01*
X285947Y70161D01*
X285909Y70264D01*
X285901Y70275D01*
X285896Y70287D01*
X285825Y70370D01*
X285756Y70456D01*
X285745Y70463D01*
X285736Y70474D01*
X285642Y70530D01*
X285549Y70589D01*
X285536Y70593D01*
X285525Y70599D01*
X285417Y70622D01*
X285310Y70649D01*
X285297Y70648D01*
X285284Y70651D01*
X285174Y70639D01*
X285065Y70630D01*
X285053Y70625D01*
X285040Y70624D01*
X284939Y70577D01*
X284839Y70534D01*
X284826Y70524D01*
X284817Y70520D01*
X284796Y70500D01*
X284708Y70429D01*
X259879Y45601D01*
X259826Y45527D01*
X259767Y45457D01*
X259754Y45427D01*
X259736Y45401D01*
X259709Y45314D01*
X259675Y45229D01*
X259670Y45188D01*
X259663Y45166D01*
X259664Y45134D01*
X259656Y45062D01*
X259656Y15095D01*
X259432Y14554D01*
X259417Y14490D01*
X259393Y14429D01*
X259384Y14346D01*
X259376Y14314D01*
X259378Y14295D01*
X259374Y14262D01*
X259374Y13609D01*
X256266Y10501D01*
X255331Y10501D01*
X255266Y10490D01*
X255200Y10490D01*
X255120Y10466D01*
X255088Y10461D01*
X255071Y10452D01*
X255039Y10443D01*
X254980Y10418D01*
X252756Y10418D01*
X252697Y10443D01*
X252633Y10458D01*
X252572Y10482D01*
X252490Y10491D01*
X252457Y10499D01*
X252438Y10497D01*
X252406Y10501D01*
X251869Y10501D01*
X251490Y10880D01*
X251437Y10918D01*
X251390Y10964D01*
X251317Y11004D01*
X251290Y11023D01*
X251272Y11029D01*
X251243Y11045D01*
X250702Y11269D01*
X249130Y12841D01*
X248906Y13382D01*
X248872Y13438D01*
X248846Y13498D01*
X248794Y13563D01*
X248777Y13591D01*
X248761Y13604D01*
X248756Y13610D01*
X248750Y13646D01*
X248750Y13712D01*
X248726Y13792D01*
X248721Y13824D01*
X248712Y13841D01*
X248703Y13873D01*
X248279Y14895D01*
X248279Y17119D01*
X248421Y17460D01*
X248436Y17524D01*
X248460Y17585D01*
X248469Y17668D01*
X248477Y17700D01*
X248475Y17719D01*
X248479Y17751D01*
X248479Y48804D01*
X249330Y50858D01*
X278678Y80206D01*
X278739Y80292D01*
X278805Y80376D01*
X278811Y80392D01*
X278821Y80406D01*
X278852Y80507D01*
X278888Y80607D01*
X278889Y80625D01*
X278894Y80641D01*
X278891Y80747D01*
X278893Y80853D01*
X278888Y80874D01*
X278887Y80887D01*
X278877Y80917D01*
X278851Y81016D01*
X278716Y81369D01*
X278732Y81458D01*
X278756Y81548D01*
X278754Y81578D01*
X278760Y81608D01*
X278744Y81775D01*
X278491Y83011D01*
X278480Y83039D01*
X278476Y83069D01*
X278436Y83154D01*
X278403Y83241D01*
X278384Y83264D01*
X278370Y83291D01*
X278305Y83366D01*
X278279Y83990D01*
X278273Y84022D01*
X278264Y84112D01*
X278140Y84717D01*
X278170Y84802D01*
X278208Y84887D01*
X278211Y84917D01*
X278221Y84946D01*
X278233Y85113D01*
X278180Y86374D01*
X278174Y86403D01*
X278176Y86434D01*
X278150Y86523D01*
X278131Y86615D01*
X278115Y86641D01*
X278107Y86670D01*
X278054Y86754D01*
X278100Y87132D01*
X278095Y87244D01*
X278093Y87357D01*
X278090Y87367D01*
X278089Y87378D01*
X278049Y87483D01*
X278011Y87589D01*
X278005Y87598D01*
X278001Y87607D01*
X277929Y87695D01*
X277860Y87783D01*
X277850Y87790D01*
X277844Y87797D01*
X277822Y87810D01*
X277725Y87882D01*
X223636Y119109D01*
X223520Y119153D01*
X223410Y119195D01*
X223408Y119196D01*
X223406Y119196D01*
X223286Y119201D01*
X223164Y119206D01*
X223162Y119205D01*
X223160Y119205D01*
X223045Y119171D01*
X222928Y119137D01*
X222926Y119136D01*
X222924Y119136D01*
X222825Y119066D01*
X222726Y118997D01*
X222725Y118995D01*
X222723Y118994D01*
X222652Y118897D01*
X222579Y118800D01*
X222579Y118798D01*
X222577Y118796D01*
X222540Y118679D01*
X222503Y118566D01*
X222503Y118564D01*
X222503Y118562D01*
X222504Y118440D01*
X222506Y118320D01*
X222506Y118317D01*
X222506Y118316D01*
X222509Y118309D01*
X222552Y118159D01*
X223238Y116503D01*
X223238Y112865D01*
X221846Y109504D01*
X219274Y106931D01*
X215912Y105539D01*
X214957Y105539D01*
X214867Y105524D01*
X214776Y105517D01*
X214747Y105505D01*
X214715Y105499D01*
X214634Y105457D01*
X214550Y105421D01*
X214518Y105395D01*
X214497Y105384D01*
X214475Y105361D01*
X214419Y105316D01*
X151936Y42833D01*
X149927Y40824D01*
X149867Y40824D01*
X149848Y40821D01*
X149828Y40823D01*
X149727Y40801D01*
X149624Y40784D01*
X149607Y40775D01*
X149587Y40771D01*
X149498Y40717D01*
X149407Y40669D01*
X149393Y40655D01*
X149376Y40645D01*
X149309Y40566D01*
X149238Y40491D01*
X149229Y40473D01*
X149216Y40458D01*
X149178Y40361D01*
X149134Y40268D01*
X149132Y40248D01*
X149124Y40229D01*
X149106Y40063D01*
X149106Y36668D01*
X148250Y35813D01*
X148208Y35754D01*
X148159Y35702D01*
X148137Y35655D01*
X148107Y35613D01*
X148085Y35544D01*
X148055Y35479D01*
X148049Y35427D01*
X148034Y35378D01*
X148036Y35306D01*
X148028Y35235D01*
X148039Y35184D01*
X148041Y35132D01*
X148065Y35064D01*
X148080Y34994D01*
X148107Y34950D01*
X148125Y34901D01*
X148170Y34845D01*
X148207Y34783D01*
X148246Y34749D01*
X148279Y34709D01*
X148339Y34670D01*
X148393Y34623D01*
X148442Y34604D01*
X148486Y34576D01*
X148555Y34558D01*
X148622Y34531D01*
X148693Y34524D01*
X148724Y34516D01*
X148747Y34518D01*
X148788Y34513D01*
X164192Y34513D01*
X174813Y23892D01*
X174871Y23850D01*
X174923Y23801D01*
X174971Y23779D01*
X175013Y23748D01*
X175081Y23727D01*
X175147Y23697D01*
X175198Y23691D01*
X175248Y23676D01*
X175320Y23678D01*
X175391Y23670D01*
X175442Y23681D01*
X175494Y23682D01*
X175561Y23707D01*
X175631Y23722D01*
X175676Y23749D01*
X175725Y23767D01*
X175781Y23812D01*
X175842Y23848D01*
X175876Y23888D01*
X175917Y23920D01*
X175956Y23981D01*
X176002Y24035D01*
X176022Y24083D01*
X176050Y24127D01*
X176067Y24197D01*
X176094Y24263D01*
X176102Y24335D01*
X176110Y24366D01*
X176108Y24389D01*
X176113Y24430D01*
X176113Y51632D01*
X177006Y52525D01*
X206269Y52525D01*
X207162Y51632D01*
X207162Y22368D01*
X206269Y21475D01*
X195193Y21475D01*
X195174Y21472D01*
X195154Y21474D01*
X195053Y21452D01*
X194951Y21436D01*
X194933Y21426D01*
X194914Y21422D01*
X194825Y21369D01*
X194733Y21320D01*
X194720Y21306D01*
X194703Y21296D01*
X194635Y21217D01*
X194564Y21142D01*
X194556Y21124D01*
X194543Y21109D01*
X194504Y21013D01*
X194460Y20919D01*
X194458Y20899D01*
X194451Y20881D01*
X194432Y20714D01*
X194432Y5323D01*
X194448Y5226D01*
X194457Y5129D01*
X194468Y5106D01*
X194472Y5080D01*
X194517Y4994D01*
X194557Y4905D01*
X194575Y4885D01*
X194587Y4862D01*
X194658Y4795D01*
X194724Y4724D01*
X194746Y4711D01*
X194765Y4693D01*
X194854Y4652D01*
X194939Y4605D01*
X194965Y4600D01*
X194988Y4589D01*
X195085Y4579D01*
X195181Y4561D01*
X195207Y4565D01*
X195233Y4562D01*
X195328Y4583D01*
X195424Y4597D01*
X195448Y4609D01*
X195473Y4615D01*
X195557Y4665D01*
X195644Y4709D01*
X195662Y4727D01*
X195684Y4741D01*
X195748Y4815D01*
X195816Y4884D01*
X195832Y4913D01*
X195844Y4928D01*
X195857Y4958D01*
X195897Y5031D01*
X196159Y5665D01*
X198973Y8478D01*
X202648Y10001D01*
X206627Y10001D01*
X210302Y8478D01*
X213116Y5665D01*
X214638Y1989D01*
X214638Y-1989D01*
X213116Y-5665D01*
X210302Y-8478D01*
X206627Y-10001D01*
X202648Y-10001D01*
X198973Y-8478D01*
X196159Y-5665D01*
X195897Y-5031D01*
X195845Y-4948D01*
X195800Y-4862D01*
X195781Y-4844D01*
X195767Y-4822D01*
X195692Y-4760D01*
X195622Y-4693D01*
X195598Y-4682D01*
X195578Y-4665D01*
X195487Y-4630D01*
X195398Y-4589D01*
X195373Y-4587D01*
X195348Y-4577D01*
X195251Y-4573D01*
X195154Y-4562D01*
X195129Y-4568D01*
X195102Y-4567D01*
X195009Y-4594D01*
X194914Y-4615D01*
X194891Y-4628D01*
X194866Y-4635D01*
X194786Y-4691D01*
X194703Y-4741D01*
X194686Y-4761D01*
X194664Y-4776D01*
X194606Y-4854D01*
X194543Y-4928D01*
X194533Y-4952D01*
X194517Y-4973D01*
X194487Y-5065D01*
X194451Y-5156D01*
X194447Y-5188D01*
X194441Y-5207D01*
X194441Y-5240D01*
X194432Y-5323D01*
X194432Y-38783D01*
X194447Y-38874D01*
X194454Y-38964D01*
X194467Y-38994D01*
X194472Y-39026D01*
X194515Y-39107D01*
X194550Y-39191D01*
X194576Y-39223D01*
X194587Y-39244D01*
X194610Y-39266D01*
X194655Y-39322D01*
X199077Y-43743D01*
X199077Y-64432D01*
X183494Y-80014D01*
X142011Y-80014D01*
X141940Y-80026D01*
X141868Y-80028D01*
X141819Y-80046D01*
X141768Y-80054D01*
X141705Y-80088D01*
X141637Y-80112D01*
X141597Y-80145D01*
X141551Y-80169D01*
X141501Y-80221D01*
X141445Y-80266D01*
X141417Y-80310D01*
X141381Y-80348D01*
X141351Y-80413D01*
X141312Y-80473D01*
X141300Y-80524D01*
X141278Y-80571D01*
X141270Y-80642D01*
X141252Y-80712D01*
X141256Y-80763D01*
X141251Y-80815D01*
X141266Y-80885D01*
X141271Y-80957D01*
X141292Y-81005D01*
X141303Y-81056D01*
X141340Y-81117D01*
X141368Y-81183D01*
X141413Y-81239D01*
X141429Y-81267D01*
X141447Y-81282D01*
X141473Y-81314D01*
X143660Y-83501D01*
X143734Y-83554D01*
X143803Y-83614D01*
X143833Y-83626D01*
X143859Y-83645D01*
X143947Y-83671D01*
X144031Y-83706D01*
X144072Y-83710D01*
X144094Y-83717D01*
X144127Y-83716D01*
X144198Y-83724D01*
X213961Y-83724D01*
X214051Y-83709D01*
X214142Y-83702D01*
X214172Y-83690D01*
X214204Y-83684D01*
X214285Y-83642D01*
X214369Y-83606D01*
X214401Y-83580D01*
X214421Y-83569D01*
X214444Y-83546D01*
X214500Y-83501D01*
X215623Y-82378D01*
X218984Y-80986D01*
X222622Y-80986D01*
X224537Y-81779D01*
X224651Y-81806D01*
X224764Y-81834D01*
X224771Y-81834D01*
X224777Y-81835D01*
X224893Y-81824D01*
X225010Y-81815D01*
X225015Y-81813D01*
X225022Y-81812D01*
X225129Y-81764D01*
X225236Y-81719D01*
X225242Y-81714D01*
X225246Y-81712D01*
X225260Y-81699D01*
X225367Y-81614D01*
X253693Y-53288D01*
X253704Y-53272D01*
X253720Y-53259D01*
X253776Y-53172D01*
X253836Y-53088D01*
X253842Y-53069D01*
X253853Y-53053D01*
X253878Y-52952D01*
X253909Y-52853D01*
X253908Y-52833D01*
X253913Y-52814D01*
X253905Y-52711D01*
X253902Y-52607D01*
X253895Y-52589D01*
X253894Y-52569D01*
X253854Y-52474D01*
X253818Y-52376D01*
X253805Y-52361D01*
X253798Y-52343D01*
X253693Y-52212D01*
X253113Y-51632D01*
X253113Y-22368D01*
X254006Y-21475D01*
X277269Y-21475D01*
X278162Y-22368D01*
X278162Y-51632D01*
X277269Y-52525D01*
X262676Y-52525D01*
X262586Y-52539D01*
X262495Y-52547D01*
X262465Y-52559D01*
X262433Y-52564D01*
X262353Y-52607D01*
X262269Y-52643D01*
X262237Y-52669D01*
X262216Y-52680D01*
X262194Y-52703D01*
X262138Y-52748D01*
X229319Y-85566D01*
X229277Y-85625D01*
X229230Y-85674D01*
X229212Y-85714D01*
X229181Y-85755D01*
X229179Y-85761D01*
X229176Y-85766D01*
X229153Y-85841D01*
X229126Y-85898D01*
X229122Y-85937D01*
X229105Y-85989D01*
X229105Y-85995D01*
X229103Y-86001D01*
X229106Y-86086D01*
X229099Y-86142D01*
X229107Y-86177D01*
X229108Y-86235D01*
X229110Y-86242D01*
X229110Y-86247D01*
X229116Y-86265D01*
X229154Y-86396D01*
X229948Y-88311D01*
X229948Y-91949D01*
X228555Y-95310D01*
X227031Y-96834D01*
X227005Y-96872D01*
X226971Y-96903D01*
X226933Y-96971D01*
X226888Y-97034D01*
X226874Y-97078D01*
X226852Y-97118D01*
X226838Y-97195D01*
X226815Y-97269D01*
X226817Y-97315D01*
X226808Y-97360D01*
X226820Y-97437D01*
X226822Y-97515D01*
X226838Y-97558D01*
X226844Y-97604D01*
X226879Y-97673D01*
X226906Y-97746D01*
X226935Y-97782D01*
X226956Y-97823D01*
X227011Y-97877D01*
X227060Y-97938D01*
X227099Y-97963D01*
X227131Y-97995D01*
X227251Y-98061D01*
X227267Y-98071D01*
X227272Y-98072D01*
X227278Y-98076D01*
X230532Y-99424D01*
X232941Y-101833D01*
X234245Y-104981D01*
X234245Y-108388D01*
X234022Y-108925D01*
X234011Y-108976D01*
X233989Y-109024D01*
X233983Y-109095D01*
X233966Y-109165D01*
X233971Y-109217D01*
X233966Y-109269D01*
X233983Y-109339D01*
X233989Y-109410D01*
X234011Y-109458D01*
X234023Y-109509D01*
X234060Y-109569D01*
X234089Y-109635D01*
X234125Y-109673D01*
X234152Y-109718D01*
X234208Y-109763D01*
X234256Y-109816D01*
X234302Y-109841D01*
X234342Y-109874D01*
X234409Y-109900D01*
X234471Y-109934D01*
X234523Y-109944D01*
X234572Y-109962D01*
X234643Y-109965D01*
X234713Y-109978D01*
X234765Y-109970D01*
G37*
G36*
X54940Y46925D02*
X54940Y46925D01*
X54960Y46922D01*
X55061Y46944D01*
X55163Y46961D01*
X55181Y46970D01*
X55200Y46975D01*
X55289Y47028D01*
X55380Y47076D01*
X55394Y47091D01*
X55411Y47101D01*
X55479Y47180D01*
X55550Y47255D01*
X55558Y47273D01*
X55571Y47288D01*
X55610Y47384D01*
X55653Y47478D01*
X55656Y47497D01*
X55663Y47516D01*
X55682Y47683D01*
X55682Y59181D01*
X55702Y59232D01*
X55707Y59273D01*
X55713Y59295D01*
X55713Y59327D01*
X55721Y59398D01*
X55721Y62394D01*
X55720Y62398D01*
X55720Y62402D01*
X55700Y62569D01*
X55608Y62963D01*
X55610Y62966D01*
X55655Y63077D01*
X55701Y63188D01*
X55701Y63191D01*
X55702Y63194D01*
X55720Y63358D01*
X55799Y63438D01*
X55855Y63515D01*
X55916Y63587D01*
X55926Y63614D01*
X55943Y63637D01*
X55971Y63728D01*
X56005Y63816D01*
X56007Y63845D01*
X56015Y63872D01*
X56013Y63967D01*
X56018Y64062D01*
X56010Y64089D01*
X56009Y64118D01*
X55976Y64207D01*
X55951Y64299D01*
X55934Y64322D01*
X55925Y64349D01*
X55907Y64371D01*
X55906Y64375D01*
X55901Y64390D01*
X55899Y64407D01*
X55858Y64505D01*
X55820Y64605D01*
X55810Y64618D01*
X55803Y64633D01*
X55698Y64764D01*
X55682Y64781D01*
X55682Y65425D01*
X55678Y65448D01*
X55667Y65574D01*
X55612Y65847D01*
X55655Y65942D01*
X55657Y65959D01*
X55663Y65974D01*
X55682Y66141D01*
X55682Y76044D01*
X56575Y76937D01*
X68838Y76937D01*
X69731Y76044D01*
X69731Y66141D01*
X69734Y66124D01*
X69732Y66108D01*
X69753Y66003D01*
X69771Y65898D01*
X69778Y65883D01*
X69782Y65867D01*
X69798Y65836D01*
X69746Y65574D01*
X69745Y65551D01*
X69731Y65425D01*
X69731Y64781D01*
X69714Y64764D01*
X69705Y64751D01*
X69692Y64741D01*
X69633Y64651D01*
X69571Y64564D01*
X69566Y64549D01*
X69557Y64535D01*
X69506Y64375D01*
X69502Y64355D01*
X69453Y64279D01*
X69446Y64251D01*
X69432Y64225D01*
X69416Y64132D01*
X69393Y64040D01*
X69395Y64011D01*
X69390Y63983D01*
X69405Y63889D01*
X69412Y63795D01*
X69423Y63768D01*
X69428Y63740D01*
X69471Y63656D01*
X69508Y63569D01*
X69531Y63540D01*
X69541Y63521D01*
X69564Y63499D01*
X69613Y63438D01*
X69692Y63358D01*
X69693Y63358D01*
X69692Y63354D01*
X69713Y63236D01*
X69732Y63118D01*
X69733Y63115D01*
X69734Y63112D01*
X69805Y62963D01*
X69712Y62569D01*
X69712Y62565D01*
X69710Y62561D01*
X69692Y62394D01*
X69692Y59398D01*
X69707Y59308D01*
X69714Y59217D01*
X69726Y59188D01*
X69731Y59160D01*
X69731Y47683D01*
X69734Y47663D01*
X69732Y47643D01*
X69754Y47542D01*
X69771Y47440D01*
X69780Y47422D01*
X69784Y47403D01*
X69837Y47314D01*
X69886Y47223D01*
X69900Y47209D01*
X69910Y47192D01*
X69989Y47124D01*
X70064Y47053D01*
X70082Y47045D01*
X70097Y47032D01*
X70194Y46993D01*
X70287Y46950D01*
X70307Y46947D01*
X70326Y46940D01*
X70492Y46921D01*
X134295Y46921D01*
X134315Y46925D01*
X134335Y46922D01*
X134436Y46944D01*
X134538Y46961D01*
X134556Y46970D01*
X134575Y46975D01*
X134664Y47028D01*
X134755Y47076D01*
X134769Y47091D01*
X134786Y47101D01*
X134854Y47180D01*
X134925Y47255D01*
X134933Y47273D01*
X134946Y47288D01*
X134985Y47384D01*
X135028Y47478D01*
X135031Y47497D01*
X135038Y47516D01*
X135057Y47683D01*
X135057Y47932D01*
X135073Y47948D01*
X135083Y47962D01*
X135096Y47972D01*
X135155Y48061D01*
X135217Y48148D01*
X135222Y48164D01*
X135231Y48178D01*
X135281Y48337D01*
X135286Y48358D01*
X135335Y48434D01*
X135342Y48462D01*
X135355Y48487D01*
X135372Y48581D01*
X135395Y48672D01*
X135392Y48701D01*
X135397Y48729D01*
X135383Y48823D01*
X135376Y48918D01*
X135364Y48944D01*
X135360Y48973D01*
X135316Y49057D01*
X135279Y49144D01*
X135257Y49172D01*
X135247Y49191D01*
X135223Y49214D01*
X135174Y49275D01*
X135095Y49354D01*
X135095Y49355D01*
X135095Y49358D01*
X135075Y49477D01*
X135056Y49594D01*
X135054Y49597D01*
X135054Y49601D01*
X134983Y49750D01*
X135075Y50144D01*
X135076Y50148D01*
X135077Y50151D01*
X135096Y50318D01*
X135096Y53314D01*
X135081Y53404D01*
X135074Y53495D01*
X135061Y53525D01*
X135057Y53552D01*
X135057Y64932D01*
X135950Y65825D01*
X138967Y65825D01*
X139057Y65839D01*
X139148Y65847D01*
X139178Y65859D01*
X139210Y65864D01*
X139290Y65907D01*
X139374Y65943D01*
X139406Y65969D01*
X139427Y65980D01*
X139449Y66003D01*
X139505Y66048D01*
X139883Y66425D01*
X144279Y66425D01*
X144657Y66048D01*
X144731Y65995D01*
X144801Y65935D01*
X144831Y65923D01*
X144857Y65904D01*
X144944Y65877D01*
X145029Y65843D01*
X145070Y65839D01*
X145092Y65832D01*
X145124Y65833D01*
X145195Y65825D01*
X148213Y65825D01*
X149106Y64932D01*
X149106Y53532D01*
X149085Y53481D01*
X149081Y53440D01*
X149074Y53418D01*
X149075Y53385D01*
X149067Y53314D01*
X149067Y50425D01*
X149079Y50354D01*
X149080Y50283D01*
X149098Y50234D01*
X149107Y50182D01*
X149140Y50119D01*
X149165Y50052D01*
X149197Y50011D01*
X149222Y49965D01*
X149274Y49916D01*
X149319Y49859D01*
X149362Y49831D01*
X149400Y49795D01*
X149465Y49765D01*
X149525Y49726D01*
X149576Y49714D01*
X149623Y49692D01*
X149694Y49684D01*
X149764Y49666D01*
X149816Y49670D01*
X149868Y49665D01*
X149938Y49680D01*
X150009Y49686D01*
X150057Y49706D01*
X150108Y49717D01*
X150170Y49754D01*
X150236Y49782D01*
X150291Y49827D01*
X150319Y49843D01*
X150334Y49861D01*
X150367Y49887D01*
X207624Y107144D01*
X207636Y107160D01*
X207651Y107173D01*
X207707Y107260D01*
X207768Y107344D01*
X207773Y107363D01*
X207784Y107380D01*
X207809Y107480D01*
X207840Y107579D01*
X207839Y107599D01*
X207844Y107618D01*
X207836Y107721D01*
X207834Y107825D01*
X207827Y107844D01*
X207825Y107863D01*
X207785Y107958D01*
X207749Y108056D01*
X207737Y108071D01*
X207729Y108090D01*
X207624Y108221D01*
X206341Y109504D01*
X204949Y112865D01*
X204949Y116503D01*
X206341Y119864D01*
X208913Y122436D01*
X212274Y123829D01*
X212621Y123829D01*
X212668Y123836D01*
X212716Y123835D01*
X212789Y123856D01*
X212864Y123868D01*
X212906Y123891D01*
X212952Y123904D01*
X213014Y123948D01*
X213081Y123983D01*
X213114Y124018D01*
X213153Y124046D01*
X213198Y124107D01*
X213250Y124162D01*
X213271Y124205D01*
X213299Y124244D01*
X213322Y124316D01*
X213354Y124385D01*
X213359Y124432D01*
X213374Y124478D01*
X213373Y124554D01*
X213381Y124629D01*
X213371Y124676D01*
X213370Y124724D01*
X213345Y124796D01*
X213329Y124870D01*
X213304Y124911D01*
X213288Y124956D01*
X213241Y125016D01*
X213203Y125081D01*
X213166Y125112D01*
X213137Y125150D01*
X213033Y125226D01*
X213016Y125241D01*
X213010Y125243D01*
X213001Y125249D01*
X161026Y155256D01*
X160921Y155296D01*
X160816Y155339D01*
X160806Y155339D01*
X160796Y155343D01*
X160684Y155347D01*
X160571Y155354D01*
X160561Y155352D01*
X160551Y155352D01*
X160443Y155320D01*
X160333Y155291D01*
X160322Y155284D01*
X160315Y155282D01*
X160294Y155268D01*
X160189Y155205D01*
X159913Y154998D01*
X159824Y154989D01*
X159730Y154987D01*
X159702Y154977D01*
X159672Y154974D01*
X159515Y154913D01*
X158392Y154323D01*
X158368Y154305D01*
X158340Y154293D01*
X158271Y154232D01*
X158196Y154175D01*
X158179Y154150D01*
X158156Y154130D01*
X158102Y154047D01*
X157510Y153849D01*
X157481Y153834D01*
X157397Y153801D01*
X156850Y153514D01*
X156760Y153519D01*
X156668Y153532D01*
X156638Y153527D01*
X156608Y153528D01*
X156444Y153493D01*
X155241Y153091D01*
X155214Y153077D01*
X155185Y153070D01*
X155106Y153020D01*
X155023Y152977D01*
X155002Y152955D01*
X154977Y152939D01*
X154910Y152865D01*
X154294Y152765D01*
X154263Y152754D01*
X154175Y152736D01*
X153588Y152540D01*
X153501Y152560D01*
X153412Y152587D01*
X153382Y152586D01*
X153352Y152593D01*
X153184Y152585D01*
X151933Y152381D01*
X151904Y152372D01*
X151874Y152369D01*
X151788Y152333D01*
X151700Y152303D01*
X151675Y152285D01*
X151648Y152273D01*
X151570Y152211D01*
X150945Y152211D01*
X150913Y152205D01*
X150823Y152201D01*
X150213Y152102D01*
X150130Y152135D01*
X150046Y152177D01*
X150016Y152181D01*
X149988Y152192D01*
X149822Y152211D01*
X148553Y152211D01*
X148524Y152206D01*
X148493Y152208D01*
X148403Y152186D01*
X148311Y152171D01*
X148284Y152157D01*
X148254Y152150D01*
X148168Y152101D01*
X147552Y152201D01*
X147519Y152201D01*
X147430Y152211D01*
X146811Y152211D01*
X146735Y152257D01*
X146659Y152312D01*
X146630Y152321D01*
X146604Y152336D01*
X146442Y152381D01*
X145191Y152585D01*
X145160Y152585D01*
X145131Y152592D01*
X145038Y152584D01*
X144945Y152584D01*
X144916Y152575D01*
X144886Y152572D01*
X144792Y152538D01*
X144200Y152736D01*
X144168Y152741D01*
X144081Y152765D01*
X143471Y152864D01*
X143402Y152922D01*
X143336Y152988D01*
X143309Y153002D01*
X143286Y153021D01*
X143134Y153091D01*
X141931Y153493D01*
X141901Y153498D01*
X141873Y153510D01*
X141780Y153517D01*
X141688Y153532D01*
X141658Y153527D01*
X141628Y153530D01*
X141531Y153511D01*
X140978Y153801D01*
X140946Y153811D01*
X140865Y153849D01*
X140279Y154045D01*
X140221Y154113D01*
X140166Y154189D01*
X140141Y154206D01*
X140122Y154229D01*
X139983Y154323D01*
X138860Y154913D01*
X138831Y154922D01*
X138805Y154938D01*
X138715Y154961D01*
X138626Y154990D01*
X138596Y154990D01*
X138567Y154997D01*
X138467Y154994D01*
X138186Y155205D01*
X138087Y155257D01*
X137988Y155313D01*
X137978Y155315D01*
X137969Y155319D01*
X137857Y155337D01*
X137746Y155358D01*
X137736Y155356D01*
X137726Y155358D01*
X137614Y155339D01*
X137502Y155323D01*
X137491Y155318D01*
X137483Y155317D01*
X137461Y155305D01*
X137349Y155256D01*
X20663Y87890D01*
X20629Y87862D01*
X20590Y87842D01*
X20535Y87784D01*
X20473Y87734D01*
X20449Y87697D01*
X20419Y87665D01*
X20384Y87593D01*
X20342Y87525D01*
X20332Y87483D01*
X20313Y87443D01*
X20288Y87300D01*
X20284Y87286D01*
X20285Y87283D01*
X20284Y87278D01*
X20271Y87079D01*
X20275Y87047D01*
X20274Y86952D01*
X20337Y86347D01*
X20336Y86345D01*
X20294Y86259D01*
X20247Y86176D01*
X20242Y86149D01*
X20230Y86123D01*
X20201Y85958D01*
X20112Y84551D01*
X20115Y84523D01*
X20111Y84495D01*
X20127Y84401D01*
X20137Y84306D01*
X20148Y84281D01*
X20153Y84253D01*
X20200Y84153D01*
X20060Y83556D01*
X20058Y83524D01*
X20042Y83430D01*
X20004Y82823D01*
X20002Y82822D01*
X19947Y82744D01*
X19886Y82669D01*
X19876Y82643D01*
X19860Y82621D01*
X19804Y82462D01*
X19482Y81089D01*
X19480Y81062D01*
X19471Y81035D01*
X19472Y80939D01*
X19465Y80844D01*
X19472Y80817D01*
X19472Y80789D01*
X19503Y80683D01*
X19265Y80117D01*
X19257Y80086D01*
X19250Y80066D01*
X19245Y80055D01*
X19245Y80050D01*
X19225Y79996D01*
X19103Y79473D01*
X19102Y79469D01*
X19101Y79466D01*
X19082Y79299D01*
X19082Y47683D01*
X19086Y47663D01*
X19084Y47643D01*
X19106Y47542D01*
X19122Y47440D01*
X19132Y47422D01*
X19136Y47403D01*
X19189Y47314D01*
X19237Y47223D01*
X19252Y47209D01*
X19262Y47192D01*
X19341Y47124D01*
X19416Y47053D01*
X19434Y47045D01*
X19449Y47032D01*
X19545Y46993D01*
X19639Y46950D01*
X19658Y46947D01*
X19677Y46940D01*
X19844Y46921D01*
X54920Y46921D01*
X54940Y46925D01*
G37*
G36*
X166680Y-160695D02*
X166680Y-160695D01*
X166752Y-160694D01*
X166801Y-160678D01*
X166852Y-160670D01*
X166959Y-160623D01*
X166985Y-160615D01*
X166992Y-160609D01*
X167005Y-160603D01*
X279363Y-95735D01*
X279402Y-95703D01*
X279447Y-95679D01*
X279497Y-95626D01*
X279553Y-95580D01*
X279580Y-95536D01*
X279615Y-95499D01*
X279645Y-95433D01*
X279684Y-95371D01*
X279696Y-95322D01*
X279717Y-95275D01*
X279724Y-95203D01*
X279741Y-95132D01*
X279737Y-95081D01*
X279742Y-95031D01*
X279722Y-94914D01*
X279719Y-94887D01*
X279716Y-94879D01*
X279713Y-94865D01*
X279496Y-94111D01*
X279482Y-94082D01*
X279453Y-93997D01*
X279188Y-93438D01*
X279197Y-93349D01*
X279214Y-93257D01*
X279210Y-93227D01*
X279213Y-93196D01*
X279185Y-93031D01*
X278835Y-91819D01*
X278822Y-91792D01*
X278816Y-91762D01*
X278769Y-91681D01*
X278729Y-91597D01*
X278708Y-91575D01*
X278693Y-91549D01*
X278622Y-91479D01*
X278548Y-90859D01*
X278539Y-90827D01*
X278523Y-90739D01*
X278352Y-90145D01*
X278375Y-90058D01*
X278407Y-89970D01*
X278407Y-89940D01*
X278415Y-89911D01*
X278414Y-89743D01*
X278263Y-88490D01*
X278255Y-88461D01*
X278254Y-88431D01*
X278221Y-88343D01*
X278195Y-88254D01*
X278177Y-88229D01*
X278167Y-88201D01*
X278108Y-88121D01*
X278134Y-87497D01*
X278130Y-87464D01*
X278129Y-87374D01*
X278055Y-86760D01*
X278092Y-86679D01*
X278137Y-86597D01*
X278143Y-86567D01*
X278155Y-86540D01*
X278180Y-86374D01*
X278233Y-85113D01*
X278229Y-85083D01*
X278233Y-85053D01*
X278214Y-84962D01*
X278203Y-84869D01*
X278190Y-84842D01*
X278184Y-84812D01*
X278139Y-84723D01*
X278264Y-84112D01*
X278266Y-84079D01*
X278279Y-83990D01*
X278305Y-83372D01*
X278354Y-83298D01*
X278412Y-83224D01*
X278422Y-83196D01*
X278439Y-83170D01*
X278491Y-83011D01*
X278744Y-81775D01*
X278746Y-81744D01*
X278754Y-81715D01*
X278751Y-81622D01*
X278754Y-81529D01*
X278746Y-81500D01*
X278745Y-81470D01*
X278714Y-81375D01*
X278936Y-80791D01*
X278943Y-80759D01*
X278971Y-80674D01*
X279095Y-80068D01*
X279156Y-80002D01*
X279224Y-79939D01*
X279239Y-79912D01*
X279260Y-79890D01*
X279336Y-79741D01*
X279785Y-78562D01*
X279791Y-78532D01*
X279804Y-78505D01*
X279816Y-78412D01*
X279834Y-78321D01*
X279830Y-78291D01*
X279834Y-78261D01*
X279819Y-78162D01*
X280132Y-77622D01*
X280144Y-77591D01*
X280185Y-77511D01*
X280405Y-76933D01*
X280475Y-76878D01*
X280553Y-76827D01*
X280572Y-76803D01*
X280596Y-76784D01*
X280695Y-76649D01*
X281327Y-75557D01*
X281338Y-75529D01*
X281356Y-75504D01*
X281382Y-75415D01*
X281415Y-75327D01*
X281416Y-75297D01*
X281424Y-75268D01*
X281425Y-75169D01*
X281821Y-74685D01*
X281837Y-74657D01*
X281891Y-74585D01*
X282058Y-74296D01*
X282073Y-74255D01*
X282097Y-74217D01*
X282111Y-74162D01*
X282127Y-74128D01*
X282130Y-74106D01*
X282145Y-74066D01*
X282147Y-74022D01*
X282158Y-73979D01*
X282152Y-73907D01*
X282155Y-73883D01*
X282152Y-73873D01*
X282154Y-73820D01*
X282142Y-73778D01*
X282138Y-73733D01*
X282107Y-73660D01*
X282103Y-73645D01*
X282102Y-73643D01*
X282102Y-73642D01*
X282085Y-73584D01*
X282059Y-73548D01*
X282042Y-73507D01*
X281952Y-73395D01*
X281944Y-73383D01*
X281941Y-73380D01*
X281937Y-73376D01*
X278402Y-69841D01*
X278178Y-69300D01*
X278143Y-69244D01*
X278118Y-69184D01*
X278066Y-69119D01*
X278048Y-69091D01*
X278033Y-69078D01*
X278013Y-69053D01*
X277833Y-68873D01*
X277833Y-68619D01*
X277822Y-68554D01*
X277822Y-68489D01*
X277799Y-68409D01*
X277793Y-68376D01*
X277784Y-68359D01*
X277775Y-68328D01*
X277501Y-67665D01*
X277476Y-67626D01*
X277461Y-67583D01*
X277412Y-67522D01*
X277371Y-67456D01*
X277336Y-67427D01*
X277307Y-67391D01*
X277242Y-67349D01*
X277182Y-67299D01*
X277139Y-67283D01*
X277100Y-67258D01*
X277025Y-67239D01*
X276952Y-67211D01*
X276906Y-67209D01*
X276862Y-67198D01*
X276784Y-67204D01*
X276706Y-67201D01*
X276662Y-67214D01*
X276616Y-67217D01*
X276545Y-67248D01*
X276470Y-67269D01*
X276432Y-67295D01*
X276390Y-67313D01*
X276283Y-67399D01*
X276268Y-67410D01*
X276265Y-67414D01*
X276259Y-67418D01*
X245111Y-98566D01*
X245058Y-98640D01*
X244999Y-98709D01*
X244987Y-98739D01*
X244968Y-98766D01*
X244941Y-98853D01*
X244907Y-98937D01*
X244902Y-98978D01*
X244896Y-99001D01*
X244896Y-99033D01*
X244888Y-99104D01*
X244888Y-106720D01*
X244896Y-106766D01*
X244894Y-106812D01*
X244916Y-106886D01*
X244928Y-106963D01*
X244950Y-107004D01*
X244963Y-107048D01*
X245008Y-107121D01*
X244894Y-108072D01*
X244895Y-108102D01*
X244888Y-108163D01*
X244888Y-109116D01*
X244879Y-109125D01*
X244841Y-109193D01*
X244796Y-109256D01*
X244782Y-109300D01*
X244760Y-109341D01*
X244741Y-109425D01*
X243988Y-110016D01*
X243967Y-110038D01*
X243920Y-110077D01*
X243245Y-110751D01*
X243232Y-110750D01*
X243157Y-110772D01*
X243081Y-110784D01*
X243040Y-110806D01*
X242996Y-110819D01*
X242880Y-110891D01*
X242864Y-110900D01*
X242860Y-110903D01*
X242853Y-110907D01*
X234667Y-117340D01*
X234664Y-117343D01*
X234661Y-117345D01*
X234581Y-117433D01*
X234501Y-117521D01*
X234499Y-117524D01*
X234496Y-117528D01*
X234422Y-117678D01*
X234373Y-117812D01*
X233695Y-118128D01*
X233693Y-118130D01*
X233689Y-118131D01*
X233547Y-118220D01*
X232959Y-118682D01*
X232817Y-118665D01*
X232813Y-118665D01*
X232809Y-118664D01*
X232690Y-118670D01*
X232571Y-118675D01*
X232567Y-118677D01*
X232563Y-118677D01*
X232404Y-118731D01*
X220977Y-124063D01*
X220942Y-124087D01*
X220903Y-124103D01*
X220841Y-124156D01*
X220774Y-124202D01*
X220749Y-124236D01*
X220716Y-124263D01*
X220656Y-124353D01*
X219764Y-124637D01*
X219736Y-124651D01*
X219672Y-124672D01*
X218824Y-125068D01*
X218800Y-125058D01*
X218719Y-125052D01*
X218639Y-125037D01*
X218597Y-125043D01*
X218555Y-125040D01*
X218449Y-125061D01*
X217618Y-124630D01*
X217588Y-124620D01*
X217527Y-124590D01*
X216648Y-124271D01*
X216638Y-124247D01*
X216585Y-124185D01*
X216539Y-124118D01*
X216506Y-124092D01*
X216478Y-124060D01*
X216351Y-123975D01*
X216343Y-123970D01*
X216341Y-123969D01*
X216339Y-123967D01*
X214759Y-123149D01*
X214734Y-123140D01*
X214712Y-123126D01*
X214617Y-123102D01*
X214525Y-123072D01*
X214499Y-123072D01*
X214473Y-123066D01*
X214376Y-123073D01*
X214279Y-123074D01*
X214254Y-123083D01*
X214228Y-123085D01*
X214139Y-123123D01*
X214047Y-123155D01*
X214026Y-123171D01*
X214001Y-123181D01*
X213871Y-123286D01*
X213211Y-123945D01*
X210063Y-125249D01*
X206656Y-125249D01*
X203508Y-123945D01*
X201099Y-121536D01*
X199795Y-118388D01*
X199795Y-114981D01*
X200583Y-113079D01*
X200594Y-113031D01*
X200614Y-112987D01*
X200622Y-112912D01*
X200639Y-112839D01*
X200635Y-112791D01*
X200640Y-112743D01*
X200623Y-112669D01*
X200616Y-112594D01*
X200596Y-112550D01*
X200586Y-112503D01*
X200525Y-112390D01*
X200516Y-112370D01*
X200511Y-112364D01*
X200506Y-112355D01*
X200471Y-112304D01*
X200448Y-112280D01*
X200433Y-112255D01*
X200431Y-112254D01*
X200426Y-112245D01*
X200361Y-112189D01*
X200301Y-112127D01*
X200268Y-112110D01*
X200239Y-112085D01*
X200159Y-112053D01*
X200082Y-112013D01*
X200046Y-112007D01*
X200011Y-111993D01*
X199845Y-111975D01*
X196987Y-111975D01*
X193626Y-110583D01*
X191053Y-108010D01*
X189661Y-104649D01*
X189661Y-101011D01*
X190454Y-99097D01*
X190464Y-99053D01*
X190484Y-99011D01*
X190492Y-98934D01*
X190510Y-98858D01*
X190506Y-98812D01*
X190511Y-98767D01*
X190494Y-98690D01*
X190487Y-98613D01*
X190468Y-98571D01*
X190459Y-98526D01*
X190419Y-98459D01*
X190387Y-98388D01*
X190356Y-98354D01*
X190332Y-98315D01*
X190273Y-98264D01*
X190221Y-98207D01*
X190180Y-98185D01*
X190146Y-98155D01*
X190073Y-98126D01*
X190005Y-98089D01*
X189960Y-98080D01*
X189917Y-98063D01*
X189781Y-98048D01*
X189763Y-98045D01*
X189758Y-98046D01*
X189751Y-98045D01*
X120715Y-98045D01*
X104940Y-82270D01*
X104940Y-72472D01*
X104925Y-72382D01*
X104918Y-72291D01*
X104906Y-72262D01*
X104900Y-72230D01*
X104858Y-72149D01*
X104822Y-72065D01*
X104796Y-72033D01*
X104785Y-72012D01*
X104762Y-71990D01*
X104717Y-71934D01*
X102496Y-69713D01*
X102496Y-65524D01*
X105459Y-62562D01*
X109648Y-62562D01*
X112610Y-65524D01*
X112610Y-69713D01*
X110753Y-71571D01*
X110699Y-71645D01*
X110640Y-71714D01*
X110628Y-71744D01*
X110609Y-71770D01*
X110582Y-71857D01*
X110548Y-71942D01*
X110544Y-71983D01*
X110537Y-72005D01*
X110538Y-72038D01*
X110530Y-72109D01*
X110530Y-79640D01*
X110544Y-79730D01*
X110551Y-79821D01*
X110564Y-79850D01*
X110569Y-79882D01*
X110612Y-79963D01*
X110648Y-80047D01*
X110673Y-80079D01*
X110684Y-80100D01*
X110708Y-80122D01*
X110753Y-80178D01*
X122807Y-92232D01*
X122881Y-92285D01*
X122950Y-92345D01*
X122981Y-92357D01*
X123007Y-92376D01*
X123094Y-92403D01*
X123179Y-92437D01*
X123220Y-92441D01*
X123242Y-92448D01*
X123274Y-92447D01*
X123345Y-92455D01*
X192383Y-92455D01*
X194242Y-94314D01*
X194336Y-94382D01*
X194431Y-94452D01*
X194437Y-94454D01*
X194442Y-94457D01*
X194553Y-94492D01*
X194664Y-94528D01*
X194671Y-94528D01*
X194677Y-94530D01*
X194793Y-94527D01*
X194910Y-94526D01*
X194918Y-94524D01*
X194923Y-94523D01*
X194940Y-94517D01*
X195071Y-94479D01*
X196987Y-93686D01*
X200625Y-93686D01*
X203986Y-95078D01*
X206558Y-97650D01*
X207951Y-101011D01*
X207951Y-104649D01*
X206949Y-107067D01*
X206939Y-107112D01*
X206919Y-107154D01*
X206911Y-107231D01*
X206893Y-107307D01*
X206897Y-107352D01*
X206892Y-107398D01*
X206909Y-107474D01*
X206916Y-107552D01*
X206935Y-107593D01*
X206944Y-107638D01*
X206984Y-107705D01*
X207016Y-107776D01*
X207047Y-107810D01*
X207071Y-107849D01*
X207130Y-107900D01*
X207182Y-107957D01*
X207223Y-107980D01*
X207257Y-108009D01*
X207330Y-108038D01*
X207398Y-108076D01*
X207443Y-108084D01*
X207486Y-108101D01*
X207622Y-108116D01*
X207640Y-108120D01*
X207645Y-108119D01*
X207652Y-108120D01*
X210063Y-108120D01*
X213211Y-109424D01*
X215621Y-111833D01*
X216925Y-114981D01*
X216925Y-117512D01*
X216938Y-117596D01*
X216943Y-117681D01*
X216958Y-117717D01*
X216964Y-117755D01*
X217004Y-117830D01*
X217036Y-117909D01*
X217061Y-117938D01*
X217079Y-117973D01*
X217141Y-118031D01*
X217196Y-118095D01*
X217238Y-118123D01*
X217258Y-118142D01*
X217285Y-118155D01*
X217336Y-118188D01*
X218431Y-118756D01*
X218447Y-118761D01*
X218462Y-118771D01*
X218548Y-118795D01*
X218605Y-118818D01*
X218628Y-118820D01*
X218665Y-118832D01*
X218682Y-118832D01*
X218699Y-118837D01*
X218751Y-118834D01*
X218771Y-118836D01*
X218792Y-118836D01*
X218824Y-118831D01*
X218911Y-118830D01*
X218927Y-118825D01*
X218944Y-118824D01*
X219015Y-118800D01*
X219035Y-118797D01*
X219053Y-118787D01*
X219103Y-118770D01*
X223824Y-116567D01*
X223870Y-116536D01*
X223920Y-116513D01*
X223971Y-116467D01*
X224028Y-116428D01*
X224061Y-116384D01*
X224101Y-116347D01*
X224134Y-116287D01*
X224176Y-116232D01*
X224193Y-116179D01*
X224220Y-116131D01*
X224232Y-116064D01*
X224254Y-115999D01*
X224254Y-115943D01*
X224264Y-115889D01*
X224254Y-115821D01*
X224254Y-115753D01*
X224236Y-115700D01*
X224228Y-115646D01*
X224197Y-115585D01*
X224175Y-115520D01*
X224141Y-115476D01*
X224116Y-115427D01*
X224067Y-115378D01*
X224026Y-115324D01*
X223980Y-115293D01*
X223941Y-115254D01*
X223847Y-115203D01*
X223822Y-115186D01*
X223810Y-115183D01*
X223794Y-115173D01*
X220829Y-113945D01*
X218419Y-111536D01*
X217116Y-108388D01*
X217116Y-104981D01*
X218419Y-101833D01*
X219678Y-100575D01*
X219720Y-100516D01*
X219769Y-100464D01*
X219791Y-100417D01*
X219821Y-100375D01*
X219843Y-100306D01*
X219873Y-100241D01*
X219878Y-100190D01*
X219894Y-100140D01*
X219892Y-100068D01*
X219900Y-99997D01*
X219889Y-99946D01*
X219887Y-99894D01*
X219863Y-99827D01*
X219848Y-99756D01*
X219821Y-99712D01*
X219803Y-99663D01*
X219758Y-99607D01*
X219721Y-99545D01*
X219682Y-99511D01*
X219649Y-99471D01*
X219589Y-99432D01*
X219535Y-99385D01*
X219486Y-99366D01*
X219442Y-99338D01*
X219373Y-99320D01*
X219306Y-99293D01*
X219235Y-99286D01*
X219204Y-99278D01*
X219181Y-99280D01*
X219140Y-99275D01*
X218984Y-99275D01*
X215623Y-97883D01*
X213050Y-95310D01*
X211658Y-91949D01*
X211658Y-90075D01*
X211655Y-90055D01*
X211657Y-90035D01*
X211635Y-89934D01*
X211618Y-89832D01*
X211609Y-89814D01*
X211605Y-89795D01*
X211552Y-89706D01*
X211503Y-89615D01*
X211489Y-89601D01*
X211479Y-89584D01*
X211400Y-89516D01*
X211325Y-89445D01*
X211307Y-89437D01*
X211292Y-89424D01*
X211196Y-89385D01*
X211102Y-89342D01*
X211082Y-89339D01*
X211064Y-89332D01*
X210897Y-89313D01*
X141567Y-89313D01*
X125796Y-73542D01*
X125722Y-73489D01*
X125653Y-73430D01*
X125623Y-73417D01*
X125596Y-73399D01*
X125509Y-73372D01*
X125425Y-73338D01*
X125384Y-73333D01*
X125361Y-73326D01*
X125329Y-73327D01*
X125258Y-73319D01*
X122374Y-73319D01*
X119412Y-70357D01*
X119412Y-66168D01*
X122374Y-63206D01*
X123435Y-63206D01*
X123506Y-63194D01*
X123578Y-63192D01*
X123627Y-63174D01*
X123678Y-63166D01*
X123741Y-63132D01*
X123809Y-63108D01*
X123849Y-63075D01*
X123895Y-63051D01*
X123945Y-62999D01*
X124001Y-62954D01*
X124029Y-62910D01*
X124065Y-62873D01*
X124095Y-62808D01*
X124134Y-62747D01*
X124146Y-62697D01*
X124168Y-62650D01*
X124176Y-62578D01*
X124194Y-62509D01*
X124190Y-62457D01*
X124196Y-62405D01*
X124180Y-62335D01*
X124175Y-62264D01*
X124154Y-62216D01*
X124143Y-62165D01*
X124106Y-62103D01*
X124078Y-62037D01*
X124034Y-61981D01*
X124017Y-61954D01*
X123999Y-61938D01*
X123974Y-61906D01*
X122235Y-60168D01*
X122161Y-60115D01*
X122092Y-60055D01*
X122062Y-60043D01*
X122035Y-60024D01*
X121948Y-59997D01*
X121863Y-59963D01*
X121823Y-59959D01*
X121800Y-59952D01*
X121768Y-59953D01*
X121697Y-59945D01*
X65735Y-59945D01*
X65664Y-59956D01*
X65592Y-59958D01*
X65543Y-59976D01*
X65492Y-59984D01*
X65429Y-60018D01*
X65361Y-60043D01*
X65321Y-60075D01*
X65275Y-60100D01*
X65225Y-60152D01*
X65169Y-60196D01*
X65141Y-60240D01*
X65105Y-60278D01*
X65075Y-60343D01*
X65036Y-60403D01*
X65024Y-60454D01*
X65002Y-60501D01*
X64994Y-60572D01*
X64976Y-60642D01*
X64980Y-60694D01*
X64975Y-60745D01*
X64990Y-60816D01*
X64995Y-60887D01*
X65016Y-60935D01*
X65027Y-60986D01*
X65064Y-61047D01*
X65092Y-61113D01*
X65137Y-61169D01*
X65153Y-61197D01*
X65171Y-61212D01*
X65197Y-61244D01*
X106503Y-102551D01*
X106577Y-102604D01*
X106647Y-102664D01*
X106677Y-102676D01*
X106703Y-102695D01*
X106790Y-102721D01*
X106875Y-102756D01*
X106916Y-102760D01*
X106938Y-102767D01*
X106970Y-102766D01*
X107042Y-102774D01*
X168005Y-102774D01*
X172245Y-107014D01*
X172339Y-107082D01*
X172433Y-107152D01*
X172440Y-107154D01*
X172445Y-107157D01*
X172555Y-107192D01*
X172667Y-107228D01*
X172674Y-107228D01*
X172680Y-107230D01*
X172796Y-107227D01*
X172913Y-107226D01*
X172921Y-107224D01*
X172926Y-107223D01*
X172943Y-107217D01*
X173074Y-107179D01*
X174990Y-106386D01*
X178628Y-106386D01*
X181989Y-107778D01*
X184561Y-110350D01*
X185954Y-113711D01*
X185954Y-117349D01*
X185915Y-117442D01*
X185906Y-117481D01*
X185889Y-117517D01*
X185878Y-117600D01*
X185859Y-117681D01*
X185863Y-117721D01*
X185858Y-117761D01*
X185874Y-117843D01*
X185882Y-117926D01*
X185898Y-117963D01*
X185906Y-118002D01*
X185948Y-118074D01*
X185982Y-118151D01*
X186009Y-118180D01*
X186029Y-118215D01*
X186148Y-118331D01*
X186149Y-118332D01*
X186689Y-118755D01*
X186795Y-118814D01*
X186900Y-118872D01*
X186902Y-118873D01*
X186905Y-118874D01*
X187024Y-118896D01*
X187142Y-118917D01*
X187144Y-118917D01*
X187147Y-118918D01*
X187266Y-118900D01*
X187386Y-118883D01*
X187388Y-118882D01*
X187390Y-118882D01*
X187397Y-118878D01*
X187539Y-118816D01*
X193401Y-115431D01*
X194621Y-115758D01*
X202292Y-129046D01*
X201965Y-130266D01*
X188678Y-137938D01*
X187458Y-137611D01*
X180060Y-124798D01*
X180001Y-124726D01*
X179948Y-124649D01*
X179924Y-124631D01*
X179905Y-124608D01*
X179826Y-124558D01*
X179751Y-124502D01*
X179722Y-124493D01*
X179696Y-124477D01*
X179606Y-124455D01*
X179517Y-124426D01*
X179487Y-124427D01*
X179457Y-124419D01*
X179364Y-124428D01*
X179271Y-124429D01*
X179234Y-124439D01*
X179212Y-124441D01*
X179182Y-124454D01*
X179110Y-124475D01*
X178628Y-124675D01*
X174990Y-124675D01*
X171629Y-123283D01*
X169056Y-120710D01*
X167664Y-117349D01*
X167664Y-113711D01*
X168457Y-111796D01*
X168484Y-111682D01*
X168513Y-111569D01*
X168512Y-111563D01*
X168514Y-111556D01*
X168503Y-111440D01*
X168494Y-111324D01*
X168491Y-111318D01*
X168491Y-111312D01*
X168443Y-111204D01*
X168397Y-111097D01*
X168393Y-111091D01*
X168391Y-111087D01*
X168378Y-111073D01*
X168292Y-110966D01*
X165913Y-108586D01*
X165839Y-108533D01*
X165769Y-108474D01*
X165739Y-108462D01*
X165713Y-108443D01*
X165626Y-108416D01*
X165541Y-108382D01*
X165500Y-108377D01*
X165478Y-108371D01*
X165446Y-108371D01*
X165374Y-108363D01*
X104411Y-108363D01*
X58174Y-62126D01*
X58174Y-61822D01*
X58159Y-61732D01*
X58152Y-61641D01*
X58140Y-61611D01*
X58134Y-61579D01*
X58092Y-61498D01*
X58056Y-61415D01*
X58030Y-61382D01*
X58019Y-61362D01*
X57996Y-61340D01*
X57951Y-61284D01*
X55912Y-59245D01*
X55912Y-57585D01*
X55900Y-57514D01*
X55899Y-57442D01*
X55881Y-57393D01*
X55872Y-57342D01*
X55839Y-57279D01*
X55814Y-57211D01*
X55782Y-57171D01*
X55757Y-57125D01*
X55705Y-57075D01*
X55660Y-57019D01*
X55617Y-56991D01*
X55579Y-56955D01*
X55514Y-56925D01*
X55454Y-56886D01*
X55403Y-56874D01*
X55356Y-56852D01*
X55285Y-56844D01*
X55215Y-56826D01*
X55163Y-56830D01*
X55111Y-56825D01*
X55041Y-56840D01*
X54970Y-56845D01*
X54922Y-56866D01*
X54871Y-56877D01*
X54809Y-56914D01*
X54743Y-56942D01*
X54688Y-56986D01*
X54660Y-57003D01*
X54645Y-57021D01*
X54612Y-57046D01*
X47436Y-64223D01*
X47383Y-64297D01*
X47323Y-64366D01*
X47311Y-64397D01*
X47292Y-64423D01*
X47266Y-64510D01*
X47231Y-64595D01*
X47227Y-64636D01*
X47220Y-64658D01*
X47221Y-64690D01*
X47213Y-64761D01*
X47213Y-67544D01*
X47228Y-67634D01*
X47235Y-67725D01*
X47247Y-67755D01*
X47253Y-67787D01*
X47295Y-67867D01*
X47331Y-67951D01*
X47357Y-67983D01*
X47368Y-68004D01*
X47391Y-68026D01*
X47436Y-68082D01*
X48463Y-69109D01*
X48463Y-73091D01*
X45647Y-75907D01*
X41665Y-75907D01*
X40638Y-74880D01*
X40564Y-74827D01*
X40495Y-74767D01*
X40465Y-74755D01*
X40438Y-74736D01*
X40351Y-74710D01*
X40267Y-74675D01*
X40226Y-74671D01*
X40203Y-74664D01*
X40171Y-74665D01*
X40100Y-74657D01*
X33173Y-74657D01*
X20382Y-61866D01*
X20324Y-61824D01*
X20272Y-61775D01*
X20225Y-61753D01*
X20182Y-61722D01*
X20114Y-61701D01*
X20049Y-61671D01*
X19997Y-61665D01*
X19947Y-61650D01*
X19875Y-61652D01*
X19804Y-61644D01*
X19753Y-61655D01*
X19701Y-61656D01*
X19634Y-61681D01*
X19564Y-61696D01*
X19519Y-61723D01*
X19470Y-61741D01*
X19414Y-61786D01*
X19353Y-61822D01*
X19319Y-61862D01*
X19278Y-61894D01*
X19240Y-61955D01*
X19193Y-62009D01*
X19173Y-62058D01*
X19145Y-62101D01*
X19128Y-62171D01*
X19101Y-62237D01*
X19093Y-62309D01*
X19085Y-62340D01*
X19087Y-62363D01*
X19083Y-62404D01*
X19083Y-79299D01*
X19083Y-79302D01*
X19083Y-79306D01*
X19103Y-79473D01*
X19225Y-79996D01*
X19238Y-80026D01*
X19265Y-80117D01*
X19500Y-80678D01*
X19499Y-80680D01*
X19485Y-80774D01*
X19463Y-80868D01*
X19466Y-80895D01*
X19462Y-80923D01*
X19482Y-81089D01*
X19804Y-82462D01*
X19814Y-82488D01*
X19818Y-82516D01*
X19843Y-82565D01*
X19846Y-82576D01*
X19863Y-82605D01*
X19898Y-82690D01*
X19916Y-82711D01*
X19929Y-82736D01*
X19964Y-82775D01*
X19972Y-82787D01*
X19989Y-82802D01*
X20003Y-82817D01*
X20042Y-83430D01*
X20049Y-83461D01*
X20060Y-83556D01*
X20199Y-84148D01*
X20198Y-84150D01*
X20167Y-84241D01*
X20131Y-84329D01*
X20129Y-84357D01*
X20120Y-84383D01*
X20112Y-84551D01*
X20201Y-85958D01*
X20207Y-85985D01*
X20206Y-86013D01*
X20234Y-86105D01*
X20256Y-86198D01*
X20270Y-86222D01*
X20278Y-86248D01*
X20338Y-86341D01*
X20274Y-86952D01*
X20276Y-86984D01*
X20271Y-87079D01*
X20284Y-87278D01*
X20294Y-87321D01*
X20294Y-87365D01*
X20321Y-87440D01*
X20339Y-87518D01*
X20362Y-87555D01*
X20376Y-87596D01*
X20425Y-87659D01*
X20467Y-87728D01*
X20501Y-87756D01*
X20528Y-87790D01*
X20646Y-87877D01*
X20656Y-87885D01*
X20659Y-87887D01*
X20663Y-87890D01*
X137349Y-155256D01*
X137454Y-155296D01*
X137559Y-155339D01*
X137569Y-155339D01*
X137579Y-155343D01*
X137691Y-155347D01*
X137804Y-155354D01*
X137814Y-155352D01*
X137824Y-155352D01*
X137932Y-155320D01*
X138042Y-155291D01*
X138053Y-155284D01*
X138060Y-155282D01*
X138081Y-155268D01*
X138186Y-155205D01*
X138462Y-154998D01*
X138551Y-154989D01*
X138645Y-154987D01*
X138673Y-154977D01*
X138703Y-154974D01*
X138860Y-154913D01*
X139983Y-154323D01*
X140007Y-154305D01*
X140035Y-154293D01*
X140104Y-154232D01*
X140179Y-154175D01*
X140196Y-154150D01*
X140219Y-154130D01*
X140273Y-154047D01*
X140865Y-153849D01*
X140894Y-153834D01*
X140978Y-153801D01*
X141525Y-153514D01*
X141615Y-153519D01*
X141707Y-153532D01*
X141737Y-153527D01*
X141767Y-153528D01*
X141931Y-153493D01*
X143134Y-153091D01*
X143161Y-153077D01*
X143190Y-153070D01*
X143269Y-153020D01*
X143352Y-152977D01*
X143373Y-152955D01*
X143398Y-152939D01*
X143465Y-152865D01*
X144081Y-152765D01*
X144112Y-152754D01*
X144200Y-152736D01*
X144787Y-152540D01*
X144874Y-152560D01*
X144963Y-152587D01*
X144993Y-152586D01*
X145023Y-152593D01*
X145191Y-152585D01*
X146442Y-152381D01*
X146471Y-152372D01*
X146501Y-152369D01*
X146587Y-152333D01*
X146675Y-152303D01*
X146700Y-152285D01*
X146727Y-152273D01*
X146805Y-152211D01*
X147430Y-152211D01*
X147462Y-152205D01*
X147552Y-152201D01*
X148162Y-152102D01*
X148245Y-152135D01*
X148329Y-152177D01*
X148359Y-152181D01*
X148387Y-152192D01*
X148553Y-152211D01*
X149822Y-152211D01*
X149851Y-152206D01*
X149882Y-152208D01*
X149972Y-152186D01*
X150064Y-152171D01*
X150091Y-152157D01*
X150121Y-152150D01*
X150207Y-152101D01*
X150823Y-152201D01*
X150856Y-152201D01*
X150945Y-152211D01*
X151564Y-152211D01*
X151640Y-152257D01*
X151716Y-152312D01*
X151745Y-152321D01*
X151771Y-152336D01*
X151933Y-152381D01*
X153184Y-152585D01*
X153215Y-152585D01*
X153244Y-152592D01*
X153337Y-152584D01*
X153430Y-152584D01*
X153459Y-152575D01*
X153489Y-152572D01*
X153583Y-152538D01*
X154175Y-152736D01*
X154207Y-152741D01*
X154294Y-152765D01*
X154904Y-152864D01*
X154972Y-152922D01*
X155039Y-152988D01*
X155066Y-153002D01*
X155089Y-153021D01*
X155241Y-153091D01*
X156444Y-153493D01*
X156474Y-153498D01*
X156502Y-153510D01*
X156595Y-153517D01*
X156687Y-153532D01*
X156717Y-153527D01*
X156747Y-153530D01*
X156844Y-153511D01*
X157397Y-153801D01*
X157429Y-153811D01*
X157510Y-153849D01*
X158096Y-154045D01*
X158155Y-154113D01*
X158209Y-154189D01*
X158234Y-154206D01*
X158253Y-154229D01*
X158392Y-154323D01*
X159515Y-154913D01*
X159544Y-154922D01*
X159570Y-154938D01*
X159660Y-154961D01*
X159749Y-154990D01*
X159779Y-154990D01*
X159808Y-154997D01*
X159908Y-154994D01*
X160407Y-155370D01*
X160436Y-155385D01*
X160511Y-155435D01*
X161058Y-155722D01*
X161104Y-155799D01*
X161146Y-155882D01*
X161168Y-155904D01*
X161183Y-155930D01*
X161305Y-156045D01*
X162319Y-156807D01*
X162346Y-156821D01*
X162369Y-156841D01*
X162455Y-156877D01*
X162537Y-156921D01*
X162567Y-156925D01*
X162595Y-156937D01*
X162694Y-156950D01*
X163126Y-157400D01*
X163152Y-157420D01*
X163218Y-157482D01*
X163712Y-157853D01*
X163737Y-157915D01*
X163742Y-157940D01*
X163751Y-157955D01*
X163773Y-158025D01*
X163791Y-158050D01*
X163803Y-158078D01*
X163905Y-158211D01*
X164783Y-159126D01*
X164807Y-159144D01*
X164826Y-159167D01*
X164905Y-159217D01*
X164980Y-159273D01*
X165009Y-159283D01*
X165034Y-159299D01*
X165130Y-159327D01*
X165484Y-159841D01*
X165507Y-159865D01*
X165562Y-159936D01*
X166076Y-160471D01*
X166117Y-160502D01*
X166151Y-160540D01*
X166215Y-160575D01*
X166272Y-160619D01*
X166321Y-160635D01*
X166366Y-160660D01*
X166437Y-160673D01*
X166506Y-160696D01*
X166557Y-160695D01*
X166608Y-160705D01*
X166680Y-160695D01*
G37*
G36*
X147346Y-66279D02*
X147346Y-66279D01*
X147437Y-66271D01*
X147467Y-66259D01*
X147499Y-66254D01*
X147580Y-66211D01*
X147663Y-66175D01*
X147696Y-66149D01*
X147716Y-66138D01*
X147738Y-66115D01*
X147794Y-66070D01*
X148821Y-65043D01*
X150274Y-65043D01*
X150364Y-65029D01*
X150455Y-65021D01*
X150485Y-65009D01*
X150517Y-65004D01*
X150597Y-64961D01*
X150681Y-64925D01*
X150713Y-64899D01*
X150734Y-64888D01*
X150756Y-64865D01*
X150812Y-64820D01*
X172433Y-43200D01*
X172486Y-43126D01*
X172545Y-43056D01*
X172558Y-43026D01*
X172576Y-43000D01*
X172603Y-42913D01*
X172637Y-42828D01*
X172642Y-42787D01*
X172649Y-42765D01*
X172648Y-42733D01*
X172656Y-42661D01*
X172656Y15674D01*
X172641Y15764D01*
X172634Y15855D01*
X172621Y15885D01*
X172616Y15917D01*
X172573Y15997D01*
X172538Y16081D01*
X172512Y16113D01*
X172501Y16134D01*
X172478Y16156D01*
X172433Y16212D01*
X161468Y27177D01*
X161395Y27230D01*
X161325Y27289D01*
X161295Y27301D01*
X161269Y27320D01*
X161182Y27347D01*
X161097Y27381D01*
X161056Y27386D01*
X161034Y27392D01*
X161001Y27392D01*
X160930Y27400D01*
X136113Y27400D01*
X136023Y27385D01*
X135932Y27378D01*
X135902Y27365D01*
X135870Y27360D01*
X135789Y27317D01*
X135705Y27281D01*
X135673Y27256D01*
X135652Y27245D01*
X135630Y27221D01*
X135574Y27177D01*
X132960Y24562D01*
X128978Y24562D01*
X126162Y27378D01*
X126162Y31360D01*
X128978Y34175D01*
X130430Y34175D01*
X130520Y34190D01*
X130611Y34197D01*
X130641Y34210D01*
X130673Y34215D01*
X130754Y34258D01*
X130838Y34294D01*
X130870Y34319D01*
X130890Y34330D01*
X130912Y34354D01*
X130969Y34398D01*
X131083Y34513D01*
X135374Y34513D01*
X135445Y34525D01*
X135517Y34526D01*
X135566Y34544D01*
X135617Y34553D01*
X135680Y34586D01*
X135748Y34611D01*
X135788Y34643D01*
X135834Y34668D01*
X135884Y34720D01*
X135940Y34765D01*
X135968Y34808D01*
X136004Y34846D01*
X136034Y34911D01*
X136073Y34972D01*
X136085Y35022D01*
X136107Y35069D01*
X136115Y35140D01*
X136133Y35210D01*
X136129Y35262D01*
X136134Y35314D01*
X136119Y35384D01*
X136114Y35455D01*
X136093Y35503D01*
X136082Y35554D01*
X136045Y35616D01*
X136017Y35682D01*
X135972Y35738D01*
X135956Y35765D01*
X135938Y35780D01*
X135912Y35813D01*
X135057Y36668D01*
X135057Y40063D01*
X135053Y40082D01*
X135055Y40102D01*
X135033Y40203D01*
X135017Y40305D01*
X135007Y40323D01*
X135003Y40343D01*
X134950Y40432D01*
X134902Y40523D01*
X134887Y40537D01*
X134877Y40554D01*
X134798Y40621D01*
X134723Y40692D01*
X134705Y40701D01*
X134690Y40714D01*
X134594Y40752D01*
X134500Y40796D01*
X134481Y40798D01*
X134462Y40806D01*
X134295Y40824D01*
X22432Y40824D01*
X22342Y40809D01*
X22251Y40802D01*
X22221Y40789D01*
X22189Y40784D01*
X22109Y40742D01*
X22025Y40706D01*
X21993Y40680D01*
X21972Y40669D01*
X21950Y40646D01*
X21894Y40601D01*
X19305Y38013D01*
X19252Y37939D01*
X19193Y37869D01*
X19181Y37839D01*
X19162Y37813D01*
X19135Y37726D01*
X19101Y37641D01*
X19096Y37600D01*
X19090Y37578D01*
X19090Y37546D01*
X19083Y37474D01*
X19083Y-29369D01*
X19086Y-29388D01*
X19084Y-29408D01*
X19106Y-29509D01*
X19122Y-29612D01*
X19132Y-29629D01*
X19136Y-29649D01*
X19189Y-29738D01*
X19237Y-29829D01*
X19252Y-29843D01*
X19262Y-29860D01*
X19341Y-29927D01*
X19416Y-29998D01*
X19434Y-30007D01*
X19449Y-30020D01*
X19545Y-30058D01*
X19639Y-30102D01*
X19659Y-30104D01*
X19677Y-30112D01*
X19844Y-30130D01*
X46750Y-30130D01*
X46840Y-30115D01*
X46931Y-30108D01*
X46961Y-30096D01*
X46993Y-30090D01*
X47074Y-30048D01*
X47157Y-30012D01*
X47190Y-29986D01*
X47210Y-29975D01*
X47232Y-29952D01*
X47288Y-29907D01*
X57022Y-20174D01*
X57075Y-20100D01*
X57134Y-20030D01*
X57146Y-20000D01*
X57165Y-19974D01*
X57192Y-19887D01*
X57226Y-19802D01*
X57231Y-19761D01*
X57237Y-19739D01*
X57237Y-19707D01*
X57245Y-19636D01*
X57245Y423D01*
X57233Y494D01*
X57231Y566D01*
X57213Y615D01*
X57205Y666D01*
X57171Y729D01*
X57147Y797D01*
X57114Y837D01*
X57090Y883D01*
X57038Y933D01*
X56993Y989D01*
X56949Y1017D01*
X56911Y1053D01*
X56846Y1083D01*
X56786Y1122D01*
X56735Y1134D01*
X56688Y1156D01*
X56617Y1164D01*
X56547Y1182D01*
X56496Y1178D01*
X56444Y1183D01*
X56374Y1168D01*
X56302Y1163D01*
X56254Y1142D01*
X56203Y1131D01*
X56142Y1094D01*
X56076Y1066D01*
X56020Y1021D01*
X55992Y1005D01*
X55977Y987D01*
X55945Y961D01*
X46215Y-8769D01*
X46203Y-8785D01*
X46188Y-8797D01*
X46132Y-8885D01*
X46072Y-8968D01*
X46066Y-8987D01*
X46055Y-9004D01*
X46030Y-9105D01*
X45999Y-9203D01*
X46000Y-9223D01*
X45995Y-9243D01*
X46003Y-9346D01*
X46006Y-9449D01*
X46012Y-9468D01*
X46014Y-9488D01*
X46054Y-9583D01*
X46090Y-9680D01*
X46103Y-9696D01*
X46110Y-9714D01*
X46215Y-9845D01*
X47919Y-11549D01*
X47919Y-15738D01*
X44957Y-18700D01*
X40768Y-18700D01*
X37806Y-15738D01*
X37806Y-11549D01*
X39845Y-9510D01*
X39898Y-9436D01*
X39957Y-9367D01*
X39969Y-9337D01*
X39988Y-9310D01*
X40015Y-9223D01*
X40049Y-9139D01*
X40054Y-9098D01*
X40061Y-9075D01*
X40060Y-9043D01*
X40068Y-8972D01*
X40068Y-7011D01*
X41928Y-5151D01*
X66359Y19280D01*
X66412Y19354D01*
X66471Y19423D01*
X66483Y19453D01*
X66502Y19479D01*
X66529Y19566D01*
X66563Y19651D01*
X66568Y19692D01*
X66574Y19714D01*
X66574Y19747D01*
X66582Y19818D01*
X66582Y27532D01*
X67475Y28425D01*
X84738Y28425D01*
X85631Y27532D01*
X85631Y25456D01*
X85634Y25436D01*
X85632Y25417D01*
X85654Y25315D01*
X85671Y25213D01*
X85680Y25196D01*
X85684Y25176D01*
X85737Y25087D01*
X85786Y24996D01*
X85800Y24982D01*
X85810Y24965D01*
X85889Y24898D01*
X85964Y24826D01*
X85982Y24818D01*
X85997Y24805D01*
X86094Y24766D01*
X86187Y24723D01*
X86207Y24721D01*
X86226Y24713D01*
X86392Y24695D01*
X89820Y24695D01*
X89840Y24698D01*
X89860Y24696D01*
X89961Y24718D01*
X90063Y24734D01*
X90081Y24744D01*
X90100Y24748D01*
X90189Y24801D01*
X90280Y24850D01*
X90294Y24864D01*
X90311Y24874D01*
X90379Y24953D01*
X90450Y25028D01*
X90458Y25046D01*
X90471Y25061D01*
X90510Y25157D01*
X90553Y25251D01*
X90556Y25271D01*
X90563Y25289D01*
X90582Y25456D01*
X90582Y27532D01*
X91475Y28425D01*
X108738Y28425D01*
X109631Y27532D01*
X109631Y16643D01*
X109633Y16633D01*
X109632Y16627D01*
X109639Y16597D01*
X109646Y16553D01*
X109653Y16462D01*
X109665Y16432D01*
X109671Y16400D01*
X109713Y16319D01*
X109749Y16236D01*
X109775Y16203D01*
X109786Y16183D01*
X109809Y16161D01*
X109854Y16105D01*
X125553Y405D01*
X127413Y-1455D01*
X127413Y-10433D01*
X127428Y-10523D01*
X127435Y-10614D01*
X127448Y-10644D01*
X127453Y-10676D01*
X127496Y-10757D01*
X127532Y-10841D01*
X127557Y-10873D01*
X127568Y-10893D01*
X127592Y-10916D01*
X127636Y-10972D01*
X135813Y-19148D01*
X135871Y-19190D01*
X135923Y-19240D01*
X135971Y-19262D01*
X136013Y-19292D01*
X136081Y-19313D01*
X136147Y-19343D01*
X136198Y-19349D01*
X136248Y-19364D01*
X136320Y-19362D01*
X136391Y-19370D01*
X136442Y-19359D01*
X136494Y-19358D01*
X136561Y-19333D01*
X136631Y-19318D01*
X136676Y-19291D01*
X136725Y-19273D01*
X136781Y-19229D01*
X136842Y-19192D01*
X136876Y-19152D01*
X136917Y-19120D01*
X136956Y-19059D01*
X137002Y-19005D01*
X137022Y-18957D01*
X137050Y-18913D01*
X137067Y-18843D01*
X137094Y-18777D01*
X137102Y-18705D01*
X137110Y-18674D01*
X137108Y-18651D01*
X137113Y-18610D01*
X137113Y7132D01*
X138006Y8025D01*
X165269Y8025D01*
X166162Y7132D01*
X166162Y-22132D01*
X165269Y-23025D01*
X151696Y-23025D01*
X151625Y-23036D01*
X151554Y-23038D01*
X151505Y-23056D01*
X151453Y-23064D01*
X151390Y-23098D01*
X151323Y-23123D01*
X151282Y-23155D01*
X151236Y-23180D01*
X151187Y-23232D01*
X151131Y-23276D01*
X151102Y-23320D01*
X151067Y-23358D01*
X151036Y-23423D01*
X150998Y-23483D01*
X150985Y-23534D01*
X150963Y-23581D01*
X150955Y-23652D01*
X150938Y-23722D01*
X150942Y-23774D01*
X150936Y-23825D01*
X150951Y-23896D01*
X150957Y-23967D01*
X150977Y-24015D01*
X150988Y-24066D01*
X151025Y-24127D01*
X151053Y-24193D01*
X151098Y-24249D01*
X151114Y-24277D01*
X151132Y-24292D01*
X151158Y-24324D01*
X157423Y-30589D01*
X157497Y-30642D01*
X157566Y-30702D01*
X157596Y-30714D01*
X157622Y-30733D01*
X157709Y-30759D01*
X157794Y-30794D01*
X157835Y-30798D01*
X157857Y-30805D01*
X157890Y-30804D01*
X157961Y-30812D01*
X160845Y-30812D01*
X163807Y-33774D01*
X163807Y-37963D01*
X160845Y-40925D01*
X156655Y-40925D01*
X153693Y-37963D01*
X153693Y-35080D01*
X153691Y-35068D01*
X153692Y-35059D01*
X153683Y-35016D01*
X153679Y-34990D01*
X153671Y-34899D01*
X153659Y-34869D01*
X153654Y-34837D01*
X153611Y-34756D01*
X153575Y-34672D01*
X153549Y-34640D01*
X153538Y-34620D01*
X153515Y-34597D01*
X153470Y-34541D01*
X146241Y-27312D01*
X146167Y-27259D01*
X146097Y-27199D01*
X146067Y-27187D01*
X146041Y-27168D01*
X145954Y-27141D01*
X145869Y-27107D01*
X145828Y-27103D01*
X145806Y-27096D01*
X145774Y-27097D01*
X145702Y-27089D01*
X135849Y-27089D01*
X121824Y-13064D01*
X121824Y-4085D01*
X121809Y-3995D01*
X121802Y-3904D01*
X121790Y-3875D01*
X121784Y-3843D01*
X121742Y-3762D01*
X121706Y-3678D01*
X121680Y-3646D01*
X121669Y-3625D01*
X121646Y-3603D01*
X121601Y-3547D01*
X111700Y6354D01*
X111642Y6395D01*
X111590Y6445D01*
X111543Y6467D01*
X111501Y6497D01*
X111432Y6518D01*
X111367Y6548D01*
X111315Y6554D01*
X111265Y6570D01*
X111194Y6568D01*
X111123Y6576D01*
X111072Y6565D01*
X111020Y6563D01*
X110952Y6539D01*
X110882Y6523D01*
X110838Y6497D01*
X110789Y6479D01*
X110733Y6434D01*
X110671Y6397D01*
X110637Y6358D01*
X110597Y6325D01*
X110558Y6265D01*
X110511Y6210D01*
X110492Y6162D01*
X110464Y6118D01*
X110446Y6049D01*
X110419Y5982D01*
X110411Y5911D01*
X110403Y5880D01*
X110405Y5856D01*
X110401Y5815D01*
X110401Y5494D01*
X109073Y4166D01*
X109061Y4150D01*
X109046Y4138D01*
X108990Y4050D01*
X108929Y3966D01*
X108924Y3947D01*
X108913Y3931D01*
X108887Y3830D01*
X108857Y3731D01*
X108858Y3711D01*
X108853Y3692D01*
X108861Y3589D01*
X108863Y3485D01*
X108870Y3467D01*
X108872Y3447D01*
X108912Y3352D01*
X108948Y3254D01*
X108960Y3239D01*
X108968Y3221D01*
X109073Y3090D01*
X109631Y2532D01*
X109631Y-8732D01*
X108738Y-9625D01*
X103662Y-9625D01*
X103643Y-9628D01*
X103623Y-9626D01*
X103522Y-9648D01*
X103419Y-9664D01*
X103402Y-9674D01*
X103382Y-9678D01*
X103293Y-9731D01*
X103202Y-9780D01*
X103188Y-9794D01*
X103171Y-9804D01*
X103104Y-9883D01*
X103033Y-9958D01*
X103024Y-9976D01*
X103011Y-9991D01*
X102973Y-10087D01*
X102929Y-10181D01*
X102927Y-10201D01*
X102919Y-10219D01*
X102901Y-10386D01*
X102901Y-20814D01*
X102904Y-20834D01*
X102902Y-20853D01*
X102924Y-20955D01*
X102941Y-21057D01*
X102950Y-21074D01*
X102954Y-21094D01*
X103007Y-21183D01*
X103056Y-21274D01*
X103070Y-21288D01*
X103080Y-21305D01*
X103159Y-21372D01*
X103234Y-21444D01*
X103252Y-21452D01*
X103267Y-21465D01*
X103364Y-21504D01*
X103457Y-21547D01*
X103477Y-21549D01*
X103496Y-21557D01*
X103662Y-21575D01*
X108738Y-21575D01*
X109631Y-22468D01*
X109631Y-33107D01*
X109634Y-33126D01*
X109632Y-33146D01*
X109654Y-33247D01*
X109671Y-33349D01*
X109680Y-33367D01*
X109684Y-33386D01*
X109737Y-33475D01*
X109786Y-33567D01*
X109800Y-33580D01*
X109810Y-33597D01*
X109889Y-33665D01*
X109964Y-33736D01*
X109982Y-33744D01*
X109997Y-33757D01*
X110094Y-33796D01*
X110187Y-33840D01*
X110207Y-33842D01*
X110226Y-33849D01*
X110392Y-33868D01*
X139270Y-33868D01*
X143135Y-37733D01*
X143209Y-37786D01*
X143279Y-37845D01*
X143309Y-37858D01*
X143335Y-37876D01*
X143422Y-37903D01*
X143507Y-37937D01*
X143548Y-37942D01*
X143570Y-37949D01*
X143602Y-37948D01*
X143673Y-37956D01*
X146557Y-37956D01*
X149519Y-40918D01*
X149519Y-45107D01*
X146557Y-48069D01*
X142368Y-48069D01*
X139406Y-45107D01*
X139406Y-42223D01*
X139391Y-42133D01*
X139384Y-42042D01*
X139371Y-42013D01*
X139366Y-41981D01*
X139323Y-41900D01*
X139288Y-41816D01*
X139262Y-41784D01*
X139251Y-41763D01*
X139228Y-41741D01*
X139183Y-41685D01*
X137178Y-39680D01*
X137104Y-39627D01*
X137034Y-39568D01*
X137004Y-39555D01*
X136978Y-39537D01*
X136891Y-39510D01*
X136806Y-39476D01*
X136765Y-39471D01*
X136743Y-39464D01*
X136711Y-39465D01*
X136640Y-39457D01*
X107511Y-39457D01*
X102902Y-34848D01*
X102828Y-34795D01*
X102758Y-34735D01*
X102728Y-34723D01*
X102702Y-34704D01*
X102615Y-34677D01*
X102530Y-34643D01*
X102489Y-34639D01*
X102467Y-34632D01*
X102435Y-34633D01*
X102363Y-34625D01*
X91475Y-34625D01*
X91368Y-34518D01*
X91351Y-34506D01*
X91339Y-34490D01*
X91252Y-34434D01*
X91168Y-34374D01*
X91149Y-34368D01*
X91132Y-34357D01*
X91032Y-34332D01*
X90933Y-34302D01*
X90913Y-34302D01*
X90894Y-34297D01*
X90791Y-34305D01*
X90687Y-34308D01*
X90668Y-34315D01*
X90648Y-34316D01*
X90553Y-34357D01*
X90456Y-34393D01*
X90440Y-34405D01*
X90422Y-34413D01*
X90291Y-34518D01*
X84088Y-40721D01*
X62841Y-40721D01*
X62751Y-40735D01*
X62660Y-40743D01*
X62630Y-40755D01*
X62598Y-40760D01*
X62518Y-40803D01*
X62434Y-40839D01*
X62402Y-40865D01*
X62381Y-40876D01*
X62359Y-40899D01*
X62303Y-40944D01*
X58096Y-45150D01*
X58055Y-45208D01*
X58005Y-45260D01*
X57983Y-45307D01*
X57953Y-45350D01*
X57932Y-45418D01*
X57902Y-45483D01*
X57896Y-45535D01*
X57881Y-45585D01*
X57882Y-45657D01*
X57874Y-45728D01*
X57886Y-45779D01*
X57887Y-45831D01*
X57912Y-45898D01*
X57927Y-45968D01*
X57953Y-46013D01*
X57971Y-46062D01*
X58016Y-46118D01*
X58053Y-46179D01*
X58092Y-46213D01*
X58125Y-46254D01*
X58185Y-46292D01*
X58240Y-46339D01*
X58288Y-46359D01*
X58332Y-46387D01*
X58401Y-46404D01*
X58468Y-46431D01*
X58539Y-46439D01*
X58570Y-46447D01*
X58594Y-46445D01*
X58635Y-46450D01*
X124505Y-46450D01*
X126811Y-48756D01*
X144125Y-66070D01*
X144199Y-66123D01*
X144269Y-66183D01*
X144299Y-66195D01*
X144325Y-66214D01*
X144412Y-66241D01*
X144497Y-66275D01*
X144538Y-66279D01*
X144560Y-66286D01*
X144592Y-66285D01*
X144664Y-66293D01*
X147256Y-66293D01*
X147346Y-66279D01*
G37*
G36*
X180954Y-74410D02*
X180954Y-74410D01*
X181045Y-74403D01*
X181074Y-74391D01*
X181106Y-74385D01*
X181187Y-74343D01*
X181271Y-74307D01*
X181303Y-74281D01*
X181324Y-74270D01*
X181346Y-74247D01*
X181402Y-74202D01*
X193265Y-62339D01*
X193318Y-62265D01*
X193377Y-62196D01*
X193389Y-62166D01*
X193408Y-62140D01*
X193435Y-62053D01*
X193469Y-61968D01*
X193474Y-61927D01*
X193480Y-61905D01*
X193480Y-61872D01*
X193488Y-61801D01*
X193488Y-46374D01*
X193473Y-46284D01*
X193466Y-46193D01*
X193453Y-46163D01*
X193448Y-46131D01*
X193405Y-46051D01*
X193369Y-45967D01*
X193344Y-45935D01*
X193333Y-45914D01*
X193309Y-45892D01*
X193265Y-45836D01*
X188843Y-41414D01*
X188843Y20714D01*
X188840Y20734D01*
X188842Y20753D01*
X188820Y20855D01*
X188803Y20957D01*
X188794Y20974D01*
X188789Y20994D01*
X188736Y21083D01*
X188688Y21174D01*
X188674Y21188D01*
X188663Y21205D01*
X188585Y21272D01*
X188510Y21344D01*
X188492Y21352D01*
X188476Y21365D01*
X188380Y21404D01*
X188287Y21447D01*
X188267Y21449D01*
X188248Y21457D01*
X188082Y21475D01*
X179068Y21475D01*
X178997Y21464D01*
X178925Y21462D01*
X178876Y21444D01*
X178825Y21436D01*
X178761Y21402D01*
X178694Y21377D01*
X178653Y21345D01*
X178607Y21320D01*
X178558Y21268D01*
X178502Y21224D01*
X178474Y21180D01*
X178438Y21142D01*
X178408Y21077D01*
X178369Y21017D01*
X178356Y20966D01*
X178334Y20919D01*
X178326Y20848D01*
X178309Y20778D01*
X178313Y20726D01*
X178307Y20675D01*
X178323Y20604D01*
X178328Y20533D01*
X178348Y20485D01*
X178360Y20434D01*
X178396Y20373D01*
X178424Y20307D01*
X178469Y20251D01*
X178486Y20223D01*
X178504Y20208D01*
X178529Y20176D01*
X179769Y18936D01*
X179769Y-45923D01*
X155842Y-69850D01*
X155789Y-69924D01*
X155730Y-69994D01*
X155717Y-70024D01*
X155699Y-70050D01*
X155672Y-70137D01*
X155638Y-70222D01*
X155633Y-70263D01*
X155626Y-70285D01*
X155627Y-70317D01*
X155619Y-70389D01*
X155619Y-71841D01*
X154335Y-73125D01*
X154293Y-73184D01*
X154244Y-73236D01*
X154222Y-73283D01*
X154191Y-73325D01*
X154170Y-73394D01*
X154140Y-73459D01*
X154134Y-73511D01*
X154119Y-73560D01*
X154121Y-73632D01*
X154113Y-73703D01*
X154124Y-73754D01*
X154125Y-73806D01*
X154150Y-73874D01*
X154165Y-73944D01*
X154192Y-73988D01*
X154210Y-74037D01*
X154255Y-74093D01*
X154291Y-74155D01*
X154331Y-74189D01*
X154363Y-74229D01*
X154424Y-74268D01*
X154478Y-74315D01*
X154527Y-74334D01*
X154570Y-74362D01*
X154640Y-74380D01*
X154706Y-74407D01*
X154778Y-74414D01*
X154809Y-74422D01*
X154832Y-74420D01*
X154873Y-74425D01*
X180864Y-74425D01*
X180954Y-74410D01*
G37*
G36*
X-99146Y-143890D02*
X-99146Y-143890D01*
X-99119Y-143890D01*
X-99020Y-143854D01*
X-98981Y-143842D01*
X-98974Y-143836D01*
X-98963Y-143832D01*
X-52163Y-116832D01*
X-52143Y-116814D01*
X-52118Y-116803D01*
X-52069Y-116749D01*
X-52014Y-116701D01*
X-52002Y-116676D01*
X-51984Y-116656D01*
X-51960Y-116587D01*
X-51928Y-116521D01*
X-51927Y-116494D01*
X-51918Y-116469D01*
X-51923Y-116396D01*
X-51919Y-116323D01*
X-51929Y-116297D01*
X-51930Y-116270D01*
X-51974Y-116174D01*
X-51989Y-116136D01*
X-51995Y-116129D01*
X-52000Y-116119D01*
X-54273Y-112782D01*
X-54296Y-112760D01*
X-54320Y-112724D01*
X-57065Y-109763D01*
X-57091Y-109744D01*
X-57120Y-109712D01*
X-60276Y-107194D01*
X-60304Y-107179D01*
X-60338Y-107152D01*
X-63834Y-105132D01*
X-63864Y-105122D01*
X-63901Y-105099D01*
X-67659Y-103623D01*
X-67690Y-103618D01*
X-67730Y-103601D01*
X-71666Y-102701D01*
X-71698Y-102701D01*
X-71740Y-102690D01*
X-75766Y-102387D01*
X-75798Y-102391D01*
X-75841Y-102387D01*
X-79867Y-102688D01*
X-79898Y-102696D01*
X-79941Y-102699D01*
X-83878Y-103596D01*
X-83907Y-103609D01*
X-83949Y-103618D01*
X-87708Y-105092D01*
X-87735Y-105109D01*
X-87776Y-105124D01*
X-91273Y-107142D01*
X-91297Y-107163D01*
X-91335Y-107184D01*
X-94492Y-109700D01*
X-94513Y-109725D01*
X-94547Y-109751D01*
X-97294Y-112710D01*
X-97311Y-112737D01*
X-97341Y-112768D01*
X-99616Y-116104D01*
X-99629Y-116133D01*
X-99654Y-116168D01*
X-101407Y-119806D01*
X-101414Y-119836D01*
X-101434Y-119875D01*
X-102625Y-123733D01*
X-102628Y-123765D01*
X-102642Y-123806D01*
X-103245Y-127798D01*
X-103243Y-127830D01*
X-103251Y-127872D01*
X-103252Y-131910D01*
X-103249Y-131924D01*
X-103251Y-131934D01*
X-103246Y-131954D01*
X-103246Y-131984D01*
X-102646Y-135977D01*
X-102635Y-136007D01*
X-102629Y-136050D01*
X-101440Y-139909D01*
X-101425Y-139937D01*
X-101413Y-139978D01*
X-99662Y-143616D01*
X-99646Y-143638D01*
X-99636Y-143664D01*
X-99586Y-143717D01*
X-99542Y-143775D01*
X-99519Y-143788D01*
X-99500Y-143808D01*
X-99433Y-143838D01*
X-99370Y-143874D01*
X-99343Y-143877D01*
X-99318Y-143888D01*
X-99245Y-143889D01*
X-99172Y-143898D01*
X-99146Y-143890D01*
G37*
G36*
X-75809Y102391D02*
X-75809Y102391D01*
X-75766Y102387D01*
X-71740Y102690D01*
X-71709Y102699D01*
X-71666Y102701D01*
X-67730Y103601D01*
X-67701Y103614D01*
X-67659Y103623D01*
X-63901Y105099D01*
X-63874Y105117D01*
X-63834Y105132D01*
X-60338Y107152D01*
X-60314Y107173D01*
X-60276Y107194D01*
X-57120Y109712D01*
X-57100Y109737D01*
X-57065Y109763D01*
X-54320Y112724D01*
X-54303Y112751D01*
X-54273Y112782D01*
X-52000Y116119D01*
X-51989Y116144D01*
X-51972Y116165D01*
X-51951Y116235D01*
X-51923Y116302D01*
X-51923Y116330D01*
X-51915Y116356D01*
X-51923Y116428D01*
X-51924Y116501D01*
X-51934Y116526D01*
X-51937Y116553D01*
X-51973Y116617D01*
X-52002Y116684D01*
X-52021Y116703D01*
X-52035Y116726D01*
X-52116Y116794D01*
X-52145Y116822D01*
X-52154Y116825D01*
X-52163Y116832D01*
X-98963Y143832D01*
X-98989Y143841D01*
X-99011Y143857D01*
X-99082Y143872D01*
X-99152Y143896D01*
X-99179Y143893D01*
X-99205Y143899D01*
X-99277Y143886D01*
X-99350Y143880D01*
X-99374Y143867D01*
X-99401Y143862D01*
X-99462Y143822D01*
X-99526Y143788D01*
X-99544Y143767D01*
X-99566Y143752D01*
X-99627Y143666D01*
X-99653Y143635D01*
X-99656Y143626D01*
X-99662Y143616D01*
X-101413Y139978D01*
X-101421Y139947D01*
X-101440Y139909D01*
X-102629Y136050D01*
X-102632Y136018D01*
X-102646Y135977D01*
X-103246Y131984D01*
X-103245Y131953D01*
X-103252Y131910D01*
X-103251Y127872D01*
X-103245Y127843D01*
X-103247Y127831D01*
X-103245Y127823D01*
X-103245Y127798D01*
X-102642Y123806D01*
X-102631Y123776D01*
X-102625Y123733D01*
X-101434Y119875D01*
X-101419Y119847D01*
X-101407Y119806D01*
X-99654Y116168D01*
X-99634Y116143D01*
X-99616Y116104D01*
X-97341Y112768D01*
X-97318Y112746D01*
X-97294Y112710D01*
X-94547Y109751D01*
X-94521Y109732D01*
X-94492Y109700D01*
X-91335Y107184D01*
X-91306Y107169D01*
X-91273Y107142D01*
X-87776Y105124D01*
X-87745Y105114D01*
X-87708Y105092D01*
X-83949Y103618D01*
X-83918Y103612D01*
X-83878Y103596D01*
X-79941Y102699D01*
X-79909Y102698D01*
X-79867Y102688D01*
X-75841Y102387D01*
X-75809Y102391D01*
G37*
G36*
X-202348Y-143886D02*
X-202348Y-143886D01*
X-202275Y-143880D01*
X-202251Y-143867D01*
X-202224Y-143862D01*
X-202164Y-143822D01*
X-202099Y-143788D01*
X-202081Y-143767D01*
X-202059Y-143752D01*
X-201998Y-143666D01*
X-201972Y-143635D01*
X-201969Y-143626D01*
X-201963Y-143616D01*
X-200212Y-139978D01*
X-200204Y-139947D01*
X-200185Y-139909D01*
X-198996Y-136050D01*
X-198993Y-136018D01*
X-198979Y-135977D01*
X-198379Y-131984D01*
X-198380Y-131953D01*
X-198373Y-131910D01*
X-198374Y-127872D01*
X-198381Y-127841D01*
X-198380Y-127798D01*
X-198983Y-123806D01*
X-198994Y-123776D01*
X-199000Y-123733D01*
X-200191Y-119875D01*
X-200206Y-119847D01*
X-200218Y-119806D01*
X-201971Y-116168D01*
X-201991Y-116143D01*
X-202009Y-116104D01*
X-204284Y-112768D01*
X-204307Y-112746D01*
X-204331Y-112710D01*
X-207078Y-109751D01*
X-207104Y-109732D01*
X-207133Y-109700D01*
X-210290Y-107184D01*
X-210319Y-107169D01*
X-210352Y-107142D01*
X-213849Y-105124D01*
X-213880Y-105114D01*
X-213917Y-105092D01*
X-217676Y-103618D01*
X-217707Y-103612D01*
X-217747Y-103596D01*
X-221684Y-102699D01*
X-221716Y-102698D01*
X-221758Y-102688D01*
X-225784Y-102387D01*
X-225816Y-102391D01*
X-225859Y-102387D01*
X-229885Y-102690D01*
X-229916Y-102699D01*
X-229959Y-102701D01*
X-233895Y-103601D01*
X-233924Y-103614D01*
X-233966Y-103623D01*
X-237724Y-105099D01*
X-237751Y-105117D01*
X-237791Y-105132D01*
X-241288Y-107152D01*
X-241311Y-107173D01*
X-241349Y-107194D01*
X-244505Y-109712D01*
X-244526Y-109737D01*
X-244560Y-109763D01*
X-247305Y-112724D01*
X-247322Y-112751D01*
X-247352Y-112782D01*
X-249625Y-116119D01*
X-249636Y-116144D01*
X-249653Y-116165D01*
X-249674Y-116235D01*
X-249702Y-116302D01*
X-249702Y-116330D01*
X-249710Y-116356D01*
X-249702Y-116428D01*
X-249701Y-116501D01*
X-249691Y-116526D01*
X-249688Y-116553D01*
X-249652Y-116617D01*
X-249623Y-116684D01*
X-249604Y-116703D01*
X-249590Y-116726D01*
X-249509Y-116794D01*
X-249480Y-116822D01*
X-249471Y-116825D01*
X-249462Y-116832D01*
X-202662Y-143832D01*
X-202636Y-143841D01*
X-202614Y-143857D01*
X-202543Y-143872D01*
X-202473Y-143896D01*
X-202446Y-143893D01*
X-202420Y-143899D01*
X-202348Y-143886D01*
G37*
G36*
X-221758Y102688D02*
X-221758Y102688D01*
X-221727Y102696D01*
X-221684Y102699D01*
X-217747Y103596D01*
X-217718Y103609D01*
X-217676Y103618D01*
X-213917Y105092D01*
X-213890Y105109D01*
X-213849Y105124D01*
X-210352Y107142D01*
X-210328Y107163D01*
X-210290Y107184D01*
X-207133Y109700D01*
X-207112Y109725D01*
X-207078Y109751D01*
X-204331Y112710D01*
X-204314Y112737D01*
X-204284Y112768D01*
X-202009Y116104D01*
X-201996Y116133D01*
X-201971Y116168D01*
X-200218Y119806D01*
X-200211Y119836D01*
X-200191Y119875D01*
X-199000Y123733D01*
X-198997Y123765D01*
X-198983Y123806D01*
X-198380Y127798D01*
X-198382Y127830D01*
X-198374Y127872D01*
X-198373Y131910D01*
X-198380Y131941D01*
X-198379Y131984D01*
X-198979Y135977D01*
X-198990Y136007D01*
X-198996Y136050D01*
X-200185Y139909D01*
X-200200Y139937D01*
X-200212Y139978D01*
X-201963Y143616D01*
X-201979Y143638D01*
X-201989Y143664D01*
X-202039Y143717D01*
X-202083Y143775D01*
X-202106Y143788D01*
X-202125Y143808D01*
X-202192Y143838D01*
X-202255Y143874D01*
X-202282Y143877D01*
X-202307Y143888D01*
X-202380Y143889D01*
X-202453Y143898D01*
X-202479Y143890D01*
X-202506Y143890D01*
X-202605Y143854D01*
X-202644Y143842D01*
X-202651Y143836D01*
X-202662Y143832D01*
X-249462Y116832D01*
X-249482Y116814D01*
X-249507Y116803D01*
X-249556Y116749D01*
X-249611Y116701D01*
X-249623Y116676D01*
X-249641Y116656D01*
X-249665Y116587D01*
X-249697Y116521D01*
X-249698Y116494D01*
X-249707Y116469D01*
X-249702Y116396D01*
X-249706Y116323D01*
X-249696Y116297D01*
X-249695Y116270D01*
X-249651Y116174D01*
X-249636Y116136D01*
X-249630Y116129D01*
X-249625Y116119D01*
X-247352Y112782D01*
X-247329Y112760D01*
X-247305Y112724D01*
X-244560Y109763D01*
X-244534Y109744D01*
X-244505Y109712D01*
X-241349Y107194D01*
X-241321Y107179D01*
X-241288Y107152D01*
X-237791Y105132D01*
X-237761Y105122D01*
X-237724Y105099D01*
X-233966Y103623D01*
X-233935Y103618D01*
X-233895Y103601D01*
X-229959Y102701D01*
X-229927Y102701D01*
X-229885Y102690D01*
X-225859Y102387D01*
X-225827Y102391D01*
X-225784Y102387D01*
X-221758Y102688D01*
G37*
G36*
X-300787Y-27497D02*
X-300787Y-27497D01*
X-300775Y-27498D01*
X-296751Y-27196D01*
X-296720Y-27188D01*
X-296677Y-27185D01*
X-292743Y-26287D01*
X-292714Y-26274D01*
X-292672Y-26265D01*
X-288915Y-24791D01*
X-288888Y-24774D01*
X-288848Y-24759D01*
X-285353Y-22741D01*
X-285329Y-22720D01*
X-285292Y-22699D01*
X-282137Y-20183D01*
X-282116Y-20158D01*
X-282082Y-20132D01*
X-279337Y-17174D01*
X-279321Y-17147D01*
X-279291Y-17115D01*
X-277017Y-13781D01*
X-277005Y-13752D01*
X-276980Y-13717D01*
X-275229Y-10081D01*
X-275221Y-10050D01*
X-275202Y-10011D01*
X-274012Y-6155D01*
X-274009Y-6124D01*
X-273996Y-6082D01*
X-273394Y-2092D01*
X-273396Y-2060D01*
X-273389Y-2018D01*
X-273389Y2018D01*
X-273395Y2049D01*
X-273394Y2092D01*
X-273996Y6082D01*
X-274007Y6112D01*
X-274012Y6155D01*
X-275202Y10011D01*
X-275217Y10039D01*
X-275229Y10081D01*
X-276980Y13717D01*
X-276999Y13742D01*
X-277017Y13781D01*
X-279291Y17115D01*
X-279313Y17138D01*
X-279337Y17174D01*
X-282082Y20132D01*
X-282108Y20151D01*
X-282137Y20183D01*
X-285292Y22699D01*
X-285320Y22713D01*
X-285353Y22741D01*
X-288848Y24759D01*
X-288878Y24769D01*
X-288915Y24791D01*
X-292672Y26265D01*
X-292703Y26271D01*
X-292743Y26287D01*
X-296677Y27185D01*
X-296709Y27186D01*
X-296751Y27196D01*
X-300775Y27498D01*
X-300802Y27494D01*
X-300829Y27499D01*
X-300900Y27482D01*
X-300972Y27473D01*
X-300996Y27459D01*
X-301022Y27453D01*
X-301081Y27410D01*
X-301144Y27373D01*
X-301161Y27351D01*
X-301183Y27335D01*
X-301220Y27272D01*
X-301264Y27214D01*
X-301270Y27187D01*
X-301284Y27164D01*
X-301302Y27060D01*
X-301311Y27021D01*
X-301310Y27011D01*
X-301312Y27000D01*
X-301312Y-27000D01*
X-301306Y-27027D01*
X-301309Y-27054D01*
X-301287Y-27123D01*
X-301272Y-27195D01*
X-301257Y-27217D01*
X-301249Y-27243D01*
X-301201Y-27299D01*
X-301160Y-27359D01*
X-301137Y-27373D01*
X-301119Y-27394D01*
X-301054Y-27427D01*
X-300992Y-27466D01*
X-300965Y-27470D01*
X-300941Y-27482D01*
X-300836Y-27492D01*
X-300796Y-27499D01*
X-300787Y-27497D01*
G37*
%LPC*%
G36*
X-123782Y-65737D02*
X-123782Y-65737D01*
X-124713Y-64806D01*
X-124714Y-64796D01*
X-124724Y-64778D01*
X-124728Y-64759D01*
X-124781Y-64670D01*
X-124830Y-64578D01*
X-124844Y-64565D01*
X-124854Y-64548D01*
X-124933Y-64480D01*
X-125008Y-64409D01*
X-125026Y-64401D01*
X-125041Y-64388D01*
X-125137Y-64349D01*
X-125231Y-64305D01*
X-125251Y-64303D01*
X-125269Y-64296D01*
X-125436Y-64277D01*
X-141231Y-64277D01*
X-141321Y-64292D01*
X-141412Y-64299D01*
X-141441Y-64312D01*
X-141473Y-64317D01*
X-141554Y-64360D01*
X-141638Y-64395D01*
X-141670Y-64421D01*
X-141691Y-64432D01*
X-141713Y-64455D01*
X-141769Y-64500D01*
X-142028Y-64759D01*
X-142029Y-64759D01*
X-142059Y-64772D01*
X-142091Y-64777D01*
X-142172Y-64820D01*
X-142256Y-64855D01*
X-142288Y-64881D01*
X-142308Y-64892D01*
X-142331Y-64915D01*
X-142387Y-64960D01*
X-142942Y-65516D01*
X-147339Y-65516D01*
X-147895Y-64960D01*
X-147969Y-64907D01*
X-148038Y-64848D01*
X-148068Y-64835D01*
X-148094Y-64817D01*
X-148181Y-64790D01*
X-148266Y-64756D01*
X-148307Y-64751D01*
X-148329Y-64744D01*
X-148362Y-64745D01*
X-148433Y-64737D01*
X-153269Y-64737D01*
X-154162Y-63844D01*
X-154162Y-51581D01*
X-153269Y-50688D01*
X-142006Y-50688D01*
X-141113Y-51581D01*
X-141113Y-55387D01*
X-141110Y-55406D01*
X-141112Y-55426D01*
X-141090Y-55527D01*
X-141073Y-55629D01*
X-141064Y-55647D01*
X-141059Y-55666D01*
X-141006Y-55755D01*
X-140958Y-55847D01*
X-140944Y-55860D01*
X-140933Y-55877D01*
X-140855Y-55945D01*
X-140780Y-56016D01*
X-140762Y-56024D01*
X-140746Y-56037D01*
X-140650Y-56076D01*
X-140557Y-56120D01*
X-140537Y-56122D01*
X-140518Y-56129D01*
X-140352Y-56148D01*
X-125436Y-56148D01*
X-125416Y-56145D01*
X-125397Y-56147D01*
X-125295Y-56125D01*
X-125193Y-56108D01*
X-125176Y-56099D01*
X-125156Y-56094D01*
X-125067Y-56041D01*
X-124976Y-55993D01*
X-124962Y-55979D01*
X-124945Y-55968D01*
X-124878Y-55890D01*
X-124806Y-55815D01*
X-124798Y-55797D01*
X-124785Y-55781D01*
X-124746Y-55685D01*
X-124718Y-55624D01*
X-123782Y-54688D01*
X-117518Y-54688D01*
X-116587Y-55619D01*
X-116586Y-55629D01*
X-116576Y-55647D01*
X-116572Y-55666D01*
X-116519Y-55755D01*
X-116470Y-55847D01*
X-116456Y-55860D01*
X-116446Y-55877D01*
X-116367Y-55945D01*
X-116292Y-56016D01*
X-116274Y-56024D01*
X-116259Y-56037D01*
X-116163Y-56076D01*
X-116069Y-56120D01*
X-116049Y-56122D01*
X-116031Y-56129D01*
X-115864Y-56148D01*
X-111830Y-56148D01*
X-111810Y-56145D01*
X-111790Y-56147D01*
X-111689Y-56125D01*
X-111587Y-56108D01*
X-111569Y-56099D01*
X-111550Y-56094D01*
X-111461Y-56041D01*
X-111370Y-55993D01*
X-111356Y-55979D01*
X-111339Y-55968D01*
X-111271Y-55890D01*
X-111200Y-55815D01*
X-111192Y-55797D01*
X-111179Y-55781D01*
X-111140Y-55685D01*
X-111097Y-55592D01*
X-111094Y-55572D01*
X-111087Y-55553D01*
X-111068Y-55387D01*
X-111068Y-50225D01*
X-110885Y-50041D01*
X-110816Y-49945D01*
X-110745Y-49849D01*
X-110744Y-49845D01*
X-110741Y-49841D01*
X-110706Y-49728D01*
X-110670Y-49614D01*
X-110670Y-49610D01*
X-110669Y-49606D01*
X-110672Y-49487D01*
X-110674Y-49368D01*
X-110675Y-49364D01*
X-110675Y-49360D01*
X-110716Y-49249D01*
X-110756Y-49136D01*
X-110758Y-49133D01*
X-110760Y-49129D01*
X-110834Y-49037D01*
X-110860Y-49003D01*
X-110862Y-49000D01*
X-110864Y-48998D01*
X-110907Y-48943D01*
X-110911Y-48940D01*
X-110913Y-48937D01*
X-110925Y-48930D01*
X-111043Y-48843D01*
X-111104Y-48808D01*
X-111577Y-48335D01*
X-111911Y-47756D01*
X-112084Y-47109D01*
X-112084Y-42798D01*
X-105306Y-42798D01*
X-105286Y-42795D01*
X-105266Y-42797D01*
X-105165Y-42775D01*
X-105063Y-42758D01*
X-105046Y-42749D01*
X-105026Y-42745D01*
X-104937Y-42692D01*
X-104846Y-42643D01*
X-104832Y-42629D01*
X-104815Y-42619D01*
X-104748Y-42540D01*
X-104676Y-42465D01*
X-104668Y-42447D01*
X-104655Y-42432D01*
X-104616Y-42336D01*
X-104573Y-42242D01*
X-104571Y-42222D01*
X-104563Y-42204D01*
X-104545Y-42037D01*
X-104545Y-41274D01*
X-104543Y-41274D01*
X-104543Y-42037D01*
X-104540Y-42057D01*
X-104542Y-42076D01*
X-104520Y-42178D01*
X-104503Y-42280D01*
X-104494Y-42297D01*
X-104490Y-42317D01*
X-104436Y-42406D01*
X-104388Y-42497D01*
X-104374Y-42511D01*
X-104363Y-42528D01*
X-104285Y-42595D01*
X-104210Y-42666D01*
X-104192Y-42675D01*
X-104177Y-42688D01*
X-104080Y-42727D01*
X-103987Y-42770D01*
X-103967Y-42772D01*
X-103948Y-42780D01*
X-103782Y-42798D01*
X-97003Y-42798D01*
X-97003Y-47109D01*
X-97176Y-47756D01*
X-97511Y-48335D01*
X-97984Y-48808D01*
X-98045Y-48843D01*
X-98079Y-48871D01*
X-98104Y-48884D01*
X-98134Y-48917D01*
X-98137Y-48919D01*
X-98230Y-48993D01*
X-98232Y-48997D01*
X-98235Y-48999D01*
X-98299Y-49100D01*
X-98363Y-49200D01*
X-98364Y-49204D01*
X-98366Y-49207D01*
X-98394Y-49325D01*
X-98423Y-49439D01*
X-98423Y-49443D01*
X-98424Y-49447D01*
X-98413Y-49566D01*
X-98404Y-49684D01*
X-98402Y-49688D01*
X-98402Y-49692D01*
X-98354Y-49800D01*
X-98308Y-49910D01*
X-98304Y-49914D01*
X-98303Y-49917D01*
X-98294Y-49927D01*
X-98203Y-50041D01*
X-98019Y-50225D01*
X-98019Y-62488D01*
X-98912Y-63381D01*
X-105505Y-63381D01*
X-105595Y-63396D01*
X-105686Y-63403D01*
X-105716Y-63415D01*
X-105748Y-63421D01*
X-105828Y-63463D01*
X-105912Y-63499D01*
X-105944Y-63525D01*
X-105965Y-63536D01*
X-105987Y-63559D01*
X-106043Y-63604D01*
X-106716Y-64277D01*
X-115864Y-64277D01*
X-115884Y-64280D01*
X-115903Y-64278D01*
X-116005Y-64300D01*
X-116107Y-64317D01*
X-116124Y-64326D01*
X-116144Y-64331D01*
X-116233Y-64384D01*
X-116324Y-64432D01*
X-116338Y-64446D01*
X-116355Y-64457D01*
X-116422Y-64535D01*
X-116494Y-64610D01*
X-116502Y-64628D01*
X-116515Y-64644D01*
X-116554Y-64740D01*
X-116582Y-64801D01*
X-117518Y-65737D01*
X-123782Y-65737D01*
G37*
%LPD*%
%LPC*%
G36*
X-153269Y-47737D02*
X-153269Y-47737D01*
X-154162Y-46844D01*
X-154162Y-34581D01*
X-153530Y-33948D01*
X-153477Y-33874D01*
X-153417Y-33805D01*
X-153405Y-33775D01*
X-153386Y-33749D01*
X-153359Y-33662D01*
X-153325Y-33577D01*
X-153321Y-33536D01*
X-153314Y-33514D01*
X-153315Y-33481D01*
X-153307Y-33410D01*
X-153307Y-33164D01*
X-153321Y-33074D01*
X-153329Y-32983D01*
X-153341Y-32953D01*
X-153346Y-32921D01*
X-153389Y-32841D01*
X-153425Y-32757D01*
X-153451Y-32725D01*
X-153462Y-32704D01*
X-153485Y-32682D01*
X-153530Y-32626D01*
X-159579Y-26576D01*
X-159653Y-26523D01*
X-159723Y-26464D01*
X-159753Y-26451D01*
X-159779Y-26433D01*
X-159866Y-26406D01*
X-159951Y-26372D01*
X-159992Y-26367D01*
X-160014Y-26360D01*
X-160046Y-26361D01*
X-160118Y-26353D01*
X-190913Y-26353D01*
X-190932Y-26356D01*
X-190952Y-26354D01*
X-191053Y-26376D01*
X-191156Y-26393D01*
X-191173Y-26402D01*
X-191193Y-26407D01*
X-191282Y-26460D01*
X-191373Y-26508D01*
X-191387Y-26522D01*
X-191404Y-26533D01*
X-191471Y-26611D01*
X-191542Y-26686D01*
X-191551Y-26704D01*
X-191564Y-26720D01*
X-191602Y-26816D01*
X-191646Y-26909D01*
X-191648Y-26929D01*
X-191656Y-26948D01*
X-191674Y-27114D01*
X-191674Y-27600D01*
X-197031Y-32957D01*
X-204607Y-32957D01*
X-209963Y-27600D01*
X-209963Y-20025D01*
X-204607Y-14668D01*
X-197031Y-14668D01*
X-191674Y-20025D01*
X-191674Y-20511D01*
X-191671Y-20530D01*
X-191673Y-20550D01*
X-191651Y-20651D01*
X-191634Y-20753D01*
X-191625Y-20771D01*
X-191621Y-20790D01*
X-191568Y-20879D01*
X-191519Y-20971D01*
X-191505Y-20984D01*
X-191495Y-21001D01*
X-191416Y-21069D01*
X-191341Y-21140D01*
X-191323Y-21148D01*
X-191308Y-21161D01*
X-191211Y-21200D01*
X-191118Y-21244D01*
X-191098Y-21246D01*
X-191079Y-21253D01*
X-190913Y-21272D01*
X-157698Y-21272D01*
X-150679Y-28290D01*
X-150605Y-28343D01*
X-150536Y-28403D01*
X-150506Y-28415D01*
X-150479Y-28434D01*
X-150392Y-28461D01*
X-150308Y-28495D01*
X-150267Y-28499D01*
X-150244Y-28506D01*
X-150212Y-28505D01*
X-150141Y-28513D01*
X-146509Y-28513D01*
X-143693Y-31329D01*
X-143693Y-32927D01*
X-143690Y-32946D01*
X-143692Y-32966D01*
X-143670Y-33067D01*
X-143654Y-33169D01*
X-143644Y-33187D01*
X-143640Y-33206D01*
X-143587Y-33295D01*
X-143538Y-33387D01*
X-143524Y-33400D01*
X-143514Y-33417D01*
X-143435Y-33485D01*
X-143360Y-33556D01*
X-143342Y-33564D01*
X-143327Y-33577D01*
X-143231Y-33616D01*
X-143137Y-33660D01*
X-143117Y-33662D01*
X-143099Y-33669D01*
X-142932Y-33688D01*
X-142006Y-33688D01*
X-141113Y-34581D01*
X-141113Y-46844D01*
X-142006Y-47737D01*
X-153269Y-47737D01*
G37*
%LPD*%
G36*
X149204Y-173690D02*
X149204Y-173690D01*
X149281Y-173691D01*
X149305Y-173681D01*
X149325Y-173680D01*
X149365Y-173659D01*
X149437Y-173633D01*
X165937Y-164133D01*
X165958Y-164114D01*
X165985Y-164101D01*
X166019Y-164063D01*
X166022Y-164061D01*
X166024Y-164057D01*
X166032Y-164048D01*
X166086Y-164001D01*
X166098Y-163975D01*
X166118Y-163954D01*
X166141Y-163886D01*
X166172Y-163822D01*
X166173Y-163793D01*
X166182Y-163766D01*
X166178Y-163694D01*
X166181Y-163623D01*
X166171Y-163596D01*
X166169Y-163567D01*
X166126Y-163477D01*
X166112Y-163437D01*
X166104Y-163429D01*
X166098Y-163416D01*
X164357Y-160893D01*
X164332Y-160869D01*
X164306Y-160831D01*
X162182Y-158619D01*
X162154Y-158600D01*
X162122Y-158566D01*
X159670Y-156724D01*
X159640Y-156710D01*
X159602Y-156681D01*
X156887Y-155256D01*
X156855Y-155247D01*
X156814Y-155225D01*
X153905Y-154254D01*
X153879Y-154251D01*
X153870Y-154249D01*
X153827Y-154235D01*
X150801Y-153743D01*
X150767Y-153744D01*
X150721Y-153736D01*
X147654Y-153736D01*
X147621Y-153743D01*
X147574Y-153743D01*
X144548Y-154235D01*
X144516Y-154247D01*
X144470Y-154254D01*
X141561Y-155225D01*
X141532Y-155242D01*
X141488Y-155256D01*
X138773Y-156681D01*
X138746Y-156703D01*
X138705Y-156724D01*
X136253Y-158566D01*
X136231Y-158591D01*
X136193Y-158619D01*
X134069Y-160831D01*
X134051Y-160859D01*
X134018Y-160893D01*
X132277Y-163416D01*
X132265Y-163443D01*
X132247Y-163465D01*
X132227Y-163534D01*
X132199Y-163599D01*
X132198Y-163628D01*
X132190Y-163656D01*
X132198Y-163727D01*
X132198Y-163798D01*
X132209Y-163825D01*
X132212Y-163854D01*
X132248Y-163916D01*
X132275Y-163981D01*
X132296Y-164002D01*
X132310Y-164027D01*
X132373Y-164079D01*
X132377Y-164084D01*
X132387Y-164090D01*
X132418Y-164120D01*
X132428Y-164124D01*
X132438Y-164133D01*
X148938Y-173633D01*
X149011Y-173657D01*
X149082Y-173688D01*
X149105Y-173688D01*
X149127Y-173696D01*
X149204Y-173690D01*
G37*
G36*
X150754Y153743D02*
X150754Y153743D01*
X150801Y153743D01*
X153827Y154235D01*
X153859Y154247D01*
X153905Y154254D01*
X156814Y155225D01*
X156843Y155242D01*
X156887Y155256D01*
X159602Y156681D01*
X159629Y156703D01*
X159670Y156724D01*
X162122Y158566D01*
X162144Y158591D01*
X162182Y158619D01*
X164306Y160831D01*
X164324Y160859D01*
X164357Y160893D01*
X166098Y163416D01*
X166110Y163443D01*
X166128Y163465D01*
X166149Y163534D01*
X166176Y163599D01*
X166177Y163628D01*
X166185Y163656D01*
X166177Y163727D01*
X166177Y163798D01*
X166166Y163825D01*
X166163Y163854D01*
X166128Y163916D01*
X166100Y163981D01*
X166079Y164002D01*
X166065Y164027D01*
X165988Y164090D01*
X165957Y164120D01*
X165947Y164124D01*
X165937Y164133D01*
X149437Y173633D01*
X149364Y173657D01*
X149293Y173688D01*
X149270Y173688D01*
X149248Y173696D01*
X149171Y173690D01*
X149094Y173691D01*
X149070Y173681D01*
X149050Y173680D01*
X149010Y173659D01*
X148938Y173633D01*
X132438Y164133D01*
X132417Y164114D01*
X132390Y164101D01*
X132343Y164048D01*
X132289Y164001D01*
X132277Y163975D01*
X132257Y163954D01*
X132234Y163886D01*
X132203Y163822D01*
X132202Y163793D01*
X132193Y163766D01*
X132197Y163694D01*
X132194Y163623D01*
X132204Y163596D01*
X132206Y163567D01*
X132249Y163477D01*
X132263Y163437D01*
X132271Y163429D01*
X132277Y163416D01*
X134018Y160893D01*
X134043Y160869D01*
X134069Y160831D01*
X136193Y158619D01*
X136221Y158600D01*
X136253Y158566D01*
X138705Y156724D01*
X138735Y156710D01*
X138773Y156681D01*
X141488Y155256D01*
X141520Y155247D01*
X141561Y155225D01*
X144470Y154254D01*
X144504Y154250D01*
X144548Y154235D01*
X147574Y153743D01*
X147608Y153744D01*
X147654Y153736D01*
X150721Y153736D01*
X150754Y153743D01*
G37*
G36*
X299274Y67118D02*
X299274Y67118D01*
X299345Y67126D01*
X299370Y67141D01*
X299397Y67147D01*
X299455Y67190D01*
X299518Y67226D01*
X299535Y67248D01*
X299558Y67265D01*
X299594Y67327D01*
X299638Y67384D01*
X299645Y67412D01*
X299659Y67436D01*
X299676Y67536D01*
X299686Y67577D01*
X299685Y67587D01*
X299687Y67600D01*
X299687Y86600D01*
X299671Y86676D01*
X299663Y86754D01*
X299652Y86773D01*
X299647Y86795D01*
X299603Y86859D01*
X299565Y86927D01*
X299546Y86943D01*
X299535Y86959D01*
X299497Y86983D01*
X299437Y87033D01*
X282937Y96533D01*
X282909Y96542D01*
X282886Y96558D01*
X282816Y96573D01*
X282748Y96596D01*
X282720Y96593D01*
X282691Y96599D01*
X282621Y96586D01*
X282550Y96580D01*
X282524Y96567D01*
X282496Y96561D01*
X282437Y96521D01*
X282373Y96488D01*
X282355Y96466D01*
X282331Y96450D01*
X282274Y96367D01*
X282247Y96335D01*
X282244Y96324D01*
X282236Y96314D01*
X280928Y93548D01*
X280920Y93515D01*
X280899Y93472D01*
X280052Y90532D01*
X280049Y90498D01*
X280036Y90454D01*
X279670Y87416D01*
X279673Y87382D01*
X279667Y87335D01*
X279794Y84278D01*
X279802Y84245D01*
X279804Y84198D01*
X280420Y81201D01*
X280433Y81170D01*
X280442Y81124D01*
X281530Y78264D01*
X281549Y78236D01*
X281565Y78192D01*
X283098Y75544D01*
X283121Y75518D01*
X283144Y75478D01*
X285082Y73110D01*
X285108Y73088D01*
X285138Y73052D01*
X287430Y71025D01*
X287460Y71009D01*
X287495Y70977D01*
X290083Y69345D01*
X290115Y69333D01*
X290154Y69308D01*
X292970Y68112D01*
X293004Y68105D01*
X293047Y68086D01*
X296018Y67358D01*
X296052Y67356D01*
X296098Y67345D01*
X299148Y67102D01*
X299176Y67106D01*
X299204Y67101D01*
X299274Y67118D01*
G37*
G36*
X282752Y-96590D02*
X282752Y-96590D01*
X282781Y-96591D01*
X282875Y-96555D01*
X282916Y-96544D01*
X282924Y-96537D01*
X282937Y-96533D01*
X299437Y-87033D01*
X299495Y-86981D01*
X299558Y-86935D01*
X299569Y-86916D01*
X299586Y-86901D01*
X299619Y-86831D01*
X299659Y-86764D01*
X299663Y-86740D01*
X299672Y-86722D01*
X299674Y-86677D01*
X299687Y-86600D01*
X299687Y-67600D01*
X299681Y-67572D01*
X299684Y-67544D01*
X299661Y-67476D01*
X299647Y-67405D01*
X299631Y-67382D01*
X299622Y-67355D01*
X299575Y-67300D01*
X299535Y-67241D01*
X299511Y-67226D01*
X299492Y-67205D01*
X299428Y-67173D01*
X299367Y-67134D01*
X299339Y-67129D01*
X299314Y-67117D01*
X299212Y-67108D01*
X299171Y-67101D01*
X299161Y-67103D01*
X299148Y-67102D01*
X296098Y-67345D01*
X296065Y-67354D01*
X296018Y-67358D01*
X293047Y-68086D01*
X293016Y-68101D01*
X292970Y-68112D01*
X292806Y-68182D01*
X291630Y-68681D01*
X290454Y-69180D01*
X290154Y-69308D01*
X290126Y-69327D01*
X290083Y-69345D01*
X287495Y-70977D01*
X287470Y-71001D01*
X287430Y-71025D01*
X285138Y-73052D01*
X285117Y-73079D01*
X285082Y-73110D01*
X283144Y-75478D01*
X283128Y-75508D01*
X283098Y-75544D01*
X281565Y-78192D01*
X281554Y-78224D01*
X281530Y-78264D01*
X280442Y-81124D01*
X280436Y-81157D01*
X280420Y-81201D01*
X279804Y-84198D01*
X279804Y-84232D01*
X279794Y-84278D01*
X279667Y-87335D01*
X279673Y-87369D01*
X279670Y-87416D01*
X280036Y-90454D01*
X280046Y-90486D01*
X280052Y-90532D01*
X280899Y-93472D01*
X280915Y-93502D01*
X280928Y-93548D01*
X282236Y-96314D01*
X282253Y-96336D01*
X282263Y-96363D01*
X282312Y-96415D01*
X282355Y-96473D01*
X282380Y-96487D01*
X282400Y-96508D01*
X282465Y-96537D01*
X282527Y-96573D01*
X282556Y-96576D01*
X282582Y-96588D01*
X282654Y-96589D01*
X282724Y-96598D01*
X282752Y-96590D01*
G37*
%LPC*%
G36*
X105262Y80200D02*
X105262Y80200D01*
X104369Y81093D01*
X104369Y90357D01*
X105262Y91250D01*
X111151Y91250D01*
X111241Y91264D01*
X111332Y91272D01*
X111362Y91284D01*
X111394Y91289D01*
X111474Y91332D01*
X111558Y91368D01*
X111590Y91394D01*
X111611Y91405D01*
X111628Y91423D01*
X111630Y91424D01*
X111637Y91431D01*
X111689Y91473D01*
X136517Y116301D01*
X139913Y116301D01*
X140003Y116316D01*
X140094Y116323D01*
X140124Y116335D01*
X140156Y116341D01*
X140236Y116383D01*
X140320Y116419D01*
X140352Y116445D01*
X140373Y116456D01*
X140395Y116479D01*
X140451Y116524D01*
X142240Y118313D01*
X146222Y118313D01*
X149038Y115497D01*
X149038Y111515D01*
X146222Y108700D01*
X142240Y108700D01*
X140451Y110489D01*
X140377Y110542D01*
X140308Y110601D01*
X140278Y110613D01*
X140251Y110632D01*
X140164Y110659D01*
X140080Y110693D01*
X140039Y110698D01*
X140016Y110704D01*
X139984Y110704D01*
X139913Y110712D01*
X139148Y110712D01*
X139058Y110697D01*
X138967Y110690D01*
X138937Y110677D01*
X138905Y110672D01*
X138825Y110629D01*
X138741Y110593D01*
X138709Y110568D01*
X138688Y110557D01*
X138666Y110533D01*
X138610Y110489D01*
X115641Y87520D01*
X115588Y87446D01*
X115529Y87377D01*
X115517Y87347D01*
X115498Y87321D01*
X115471Y87234D01*
X115437Y87149D01*
X115432Y87108D01*
X115426Y87086D01*
X115426Y87053D01*
X115418Y86982D01*
X115418Y81093D01*
X114525Y80200D01*
X105262Y80200D01*
G37*
%LPD*%
%LPC*%
G36*
X-202335Y75470D02*
X-202335Y75470D01*
X-202544Y75575D01*
X-202633Y75602D01*
X-202719Y75637D01*
X-202758Y75642D01*
X-202779Y75648D01*
X-202811Y75647D01*
X-202886Y75656D01*
X-203017Y75656D01*
X-203245Y75884D01*
X-203276Y75906D01*
X-203301Y75934D01*
X-203394Y75995D01*
X-203406Y76005D01*
X-203416Y76009D01*
X-203441Y76026D01*
X-204322Y76468D01*
X-205775Y78151D01*
X-205848Y78373D01*
X-205892Y78455D01*
X-205928Y78541D01*
X-205952Y78571D01*
X-205962Y78591D01*
X-205986Y78613D01*
X-206033Y78672D01*
X-206125Y78764D01*
X-206125Y79087D01*
X-206132Y79124D01*
X-206129Y79162D01*
X-206164Y79326D01*
X-206474Y80262D01*
X-206311Y82479D01*
X-206207Y82688D01*
X-206179Y82776D01*
X-206144Y82863D01*
X-206140Y82901D01*
X-206133Y82922D01*
X-206134Y82955D01*
X-206125Y83030D01*
X-206125Y83161D01*
X-205897Y83389D01*
X-205875Y83419D01*
X-205847Y83444D01*
X-205756Y83585D01*
X-205313Y84466D01*
X-186168Y101000D01*
X-185946Y101073D01*
X-185864Y101117D01*
X-185778Y101153D01*
X-185748Y101177D01*
X-185728Y101187D01*
X-185706Y101211D01*
X-185647Y101258D01*
X-185554Y101350D01*
X-185232Y101350D01*
X-185194Y101357D01*
X-185157Y101354D01*
X-184993Y101389D01*
X-184057Y101699D01*
X-181840Y101536D01*
X-181631Y101432D01*
X-181542Y101404D01*
X-181456Y101369D01*
X-181417Y101365D01*
X-181396Y101358D01*
X-181364Y101359D01*
X-181289Y101350D01*
X-181158Y101350D01*
X-180930Y101122D01*
X-180899Y101100D01*
X-180874Y101072D01*
X-180734Y100981D01*
X-179853Y100538D01*
X-178400Y98855D01*
X-178327Y98634D01*
X-178283Y98551D01*
X-178247Y98465D01*
X-178223Y98435D01*
X-178213Y98416D01*
X-178189Y98393D01*
X-178142Y98334D01*
X-178050Y98242D01*
X-178050Y97919D01*
X-178043Y97882D01*
X-178046Y97844D01*
X-178011Y97680D01*
X-177701Y96745D01*
X-177864Y94527D01*
X-177968Y94318D01*
X-177996Y94230D01*
X-178031Y94143D01*
X-178035Y94105D01*
X-178042Y94084D01*
X-178041Y94051D01*
X-178050Y93977D01*
X-178050Y93846D01*
X-178278Y93618D01*
X-178300Y93587D01*
X-178328Y93562D01*
X-178419Y93421D01*
X-178862Y92541D01*
X-198007Y76006D01*
X-198229Y75933D01*
X-198311Y75890D01*
X-198397Y75853D01*
X-198427Y75829D01*
X-198447Y75819D01*
X-198469Y75795D01*
X-198528Y75748D01*
X-198621Y75656D01*
X-198943Y75656D01*
X-198981Y75650D01*
X-199018Y75652D01*
X-199182Y75617D01*
X-200118Y75308D01*
X-202335Y75470D01*
G37*
%LPD*%
%LPC*%
G36*
X-129427Y-128380D02*
X-129427Y-128380D01*
X-129470Y-128373D01*
X-129510Y-128356D01*
X-129658Y-128340D01*
X-129670Y-128338D01*
X-129673Y-128338D01*
X-129677Y-128338D01*
X-129992Y-128338D01*
X-130104Y-128226D01*
X-130175Y-128175D01*
X-130241Y-128117D01*
X-130283Y-128097D01*
X-130303Y-128083D01*
X-130333Y-128073D01*
X-130393Y-128045D01*
X-130676Y-127947D01*
X-132338Y-126470D01*
X-132731Y-125658D01*
X-132756Y-125623D01*
X-132773Y-125583D01*
X-132866Y-125467D01*
X-132873Y-125457D01*
X-132875Y-125456D01*
X-132878Y-125452D01*
X-133100Y-125229D01*
X-133100Y-125071D01*
X-133115Y-124985D01*
X-133121Y-124897D01*
X-133136Y-124853D01*
X-133140Y-124828D01*
X-133155Y-124801D01*
X-133177Y-124739D01*
X-133308Y-124469D01*
X-133438Y-122250D01*
X-133143Y-121398D01*
X-133135Y-121355D01*
X-133119Y-121315D01*
X-133103Y-121167D01*
X-133101Y-121155D01*
X-133101Y-121152D01*
X-133100Y-121148D01*
X-133100Y-120833D01*
X-132989Y-120721D01*
X-132937Y-120650D01*
X-132880Y-120584D01*
X-132860Y-120542D01*
X-132845Y-120522D01*
X-132836Y-120492D01*
X-132808Y-120432D01*
X-132709Y-120149D01*
X-119005Y-104732D01*
X-118968Y-104674D01*
X-118923Y-104621D01*
X-118903Y-104570D01*
X-118874Y-104524D01*
X-118857Y-104457D01*
X-118831Y-104393D01*
X-118823Y-104317D01*
X-118815Y-104285D01*
X-118817Y-104264D01*
X-118813Y-104226D01*
X-118813Y-104164D01*
X-118633Y-103985D01*
X-118595Y-103931D01*
X-118549Y-103885D01*
X-118509Y-103812D01*
X-118490Y-103785D01*
X-118484Y-103766D01*
X-118468Y-103738D01*
X-118244Y-103197D01*
X-116672Y-101625D01*
X-116131Y-101401D01*
X-116075Y-101366D01*
X-116015Y-101340D01*
X-115950Y-101288D01*
X-115922Y-101271D01*
X-115910Y-101256D01*
X-115884Y-101236D01*
X-115704Y-101056D01*
X-115450Y-101056D01*
X-115386Y-101045D01*
X-115320Y-101045D01*
X-115240Y-101021D01*
X-115207Y-101016D01*
X-115190Y-101007D01*
X-115159Y-100998D01*
X-114618Y-100774D01*
X-112395Y-100774D01*
X-111854Y-100998D01*
X-111790Y-101013D01*
X-111729Y-101037D01*
X-111646Y-101046D01*
X-111614Y-101054D01*
X-111595Y-101052D01*
X-111562Y-101056D01*
X-111308Y-101056D01*
X-111128Y-101236D01*
X-111075Y-101274D01*
X-111028Y-101320D01*
X-110955Y-101360D01*
X-110929Y-101379D01*
X-110910Y-101385D01*
X-110881Y-101401D01*
X-110340Y-101625D01*
X-108768Y-103197D01*
X-108544Y-103738D01*
X-108510Y-103794D01*
X-108484Y-103854D01*
X-108432Y-103919D01*
X-108415Y-103947D01*
X-108400Y-103959D01*
X-108379Y-103985D01*
X-108200Y-104164D01*
X-108200Y-104419D01*
X-108189Y-104483D01*
X-108188Y-104549D01*
X-108165Y-104629D01*
X-108160Y-104661D01*
X-108151Y-104678D01*
X-108142Y-104710D01*
X-107918Y-105251D01*
X-107918Y-106771D01*
X-107915Y-106788D01*
X-107916Y-106816D01*
X-107862Y-107739D01*
X-107875Y-107779D01*
X-107883Y-107821D01*
X-107899Y-107861D01*
X-107915Y-108009D01*
X-107917Y-108021D01*
X-107917Y-108024D01*
X-107918Y-108028D01*
X-107918Y-108069D01*
X-108271Y-108924D01*
X-108275Y-108941D01*
X-108287Y-108966D01*
X-108591Y-109840D01*
X-108618Y-109871D01*
X-108641Y-109907D01*
X-108672Y-109938D01*
X-108743Y-110068D01*
X-108750Y-110079D01*
X-108750Y-110082D01*
X-108753Y-110085D01*
X-108768Y-110124D01*
X-109422Y-110778D01*
X-109432Y-110791D01*
X-109453Y-110810D01*
X-124355Y-127575D01*
X-125167Y-127968D01*
X-125202Y-127993D01*
X-125242Y-128010D01*
X-125287Y-128046D01*
X-125302Y-128054D01*
X-125318Y-128071D01*
X-125358Y-128103D01*
X-125368Y-128110D01*
X-125369Y-128112D01*
X-125373Y-128115D01*
X-125596Y-128338D01*
X-125754Y-128338D01*
X-125840Y-128352D01*
X-125928Y-128358D01*
X-125972Y-128374D01*
X-125997Y-128378D01*
X-126024Y-128392D01*
X-126086Y-128414D01*
X-126356Y-128545D01*
X-128575Y-128676D01*
X-129427Y-128380D01*
G37*
%LPD*%
%LPC*%
G36*
X-237089Y-897D02*
X-237089Y-897D01*
X-237148Y-884D01*
X-237204Y-861D01*
X-237298Y-851D01*
X-237330Y-844D01*
X-237345Y-845D01*
X-237371Y-843D01*
X-237643Y-843D01*
X-237809Y-677D01*
X-237866Y-636D01*
X-237918Y-587D01*
X-237982Y-553D01*
X-238008Y-534D01*
X-238030Y-527D01*
X-238066Y-508D01*
X-238543Y-318D01*
X-240138Y1231D01*
X-240398Y1836D01*
X-240431Y1887D01*
X-240454Y1942D01*
X-240513Y2016D01*
X-240531Y2043D01*
X-240543Y2053D01*
X-240559Y2073D01*
X-240752Y2266D01*
X-240752Y2500D01*
X-240764Y2570D01*
X-240765Y2641D01*
X-240787Y2710D01*
X-240792Y2742D01*
X-240803Y2763D01*
X-240814Y2801D01*
X-241018Y3273D01*
X-241348Y26432D01*
X-241104Y27044D01*
X-241091Y27103D01*
X-241069Y27159D01*
X-241059Y27253D01*
X-241052Y27284D01*
X-241053Y27300D01*
X-241050Y27325D01*
X-241050Y27598D01*
X-240885Y27763D01*
X-240844Y27821D01*
X-240795Y27872D01*
X-240761Y27937D01*
X-240742Y27963D01*
X-240735Y27985D01*
X-240716Y28020D01*
X-240526Y28498D01*
X-238977Y30092D01*
X-238372Y30353D01*
X-238321Y30385D01*
X-238266Y30409D01*
X-238192Y30468D01*
X-238165Y30486D01*
X-238155Y30498D01*
X-238135Y30514D01*
X-237942Y30707D01*
X-237708Y30707D01*
X-237638Y30718D01*
X-237567Y30720D01*
X-237497Y30741D01*
X-237465Y30746D01*
X-237445Y30757D01*
X-237407Y30769D01*
X-236935Y30972D01*
X-234712Y31004D01*
X-234100Y30761D01*
X-234041Y30748D01*
X-233985Y30725D01*
X-233891Y30715D01*
X-233859Y30708D01*
X-233844Y30710D01*
X-233818Y30707D01*
X-233546Y30707D01*
X-233380Y30542D01*
X-233323Y30500D01*
X-233271Y30451D01*
X-233207Y30417D01*
X-233181Y30398D01*
X-233159Y30391D01*
X-233123Y30372D01*
X-232646Y30183D01*
X-231051Y28633D01*
X-230791Y28028D01*
X-230758Y27977D01*
X-230735Y27922D01*
X-230676Y27848D01*
X-230658Y27821D01*
X-230646Y27811D01*
X-230630Y27791D01*
X-230437Y27598D01*
X-230437Y27364D01*
X-230436Y27357D01*
X-230436Y27356D01*
X-230435Y27350D01*
X-230426Y27294D01*
X-230424Y27224D01*
X-230403Y27154D01*
X-230397Y27122D01*
X-230387Y27101D01*
X-230375Y27063D01*
X-230171Y26591D01*
X-229841Y3432D01*
X-230085Y2820D01*
X-230098Y2761D01*
X-230120Y2705D01*
X-230131Y2611D01*
X-230138Y2580D01*
X-230136Y2564D01*
X-230139Y2539D01*
X-230139Y2266D01*
X-230304Y2101D01*
X-230345Y2043D01*
X-230394Y1992D01*
X-230429Y1927D01*
X-230447Y1901D01*
X-230454Y1879D01*
X-230473Y1844D01*
X-230663Y1366D01*
X-232212Y-228D01*
X-232817Y-489D01*
X-232868Y-521D01*
X-232923Y-545D01*
X-232997Y-604D01*
X-233025Y-621D01*
X-233034Y-634D01*
X-233054Y-650D01*
X-233247Y-843D01*
X-233481Y-843D01*
X-233551Y-854D01*
X-233622Y-856D01*
X-233692Y-877D01*
X-233724Y-882D01*
X-233744Y-893D01*
X-233782Y-905D01*
X-234254Y-1108D01*
X-236477Y-1140D01*
X-237089Y-897D01*
G37*
%LPD*%
%LPC*%
G36*
X-108268Y761D02*
X-108268Y761D01*
X-108809Y985D01*
X-108873Y1000D01*
X-108933Y1025D01*
X-109016Y1034D01*
X-109048Y1041D01*
X-109068Y1040D01*
X-109100Y1043D01*
X-109354Y1043D01*
X-109534Y1223D01*
X-109587Y1261D01*
X-109634Y1307D01*
X-109707Y1347D01*
X-109734Y1367D01*
X-109752Y1372D01*
X-109781Y1388D01*
X-110322Y1612D01*
X-111894Y3184D01*
X-112118Y3725D01*
X-112153Y3781D01*
X-112178Y3841D01*
X-112230Y3906D01*
X-112248Y3934D01*
X-112263Y3947D01*
X-112283Y3972D01*
X-112463Y4152D01*
X-112463Y4406D01*
X-112474Y4471D01*
X-112474Y4536D01*
X-112497Y4616D01*
X-112503Y4649D01*
X-112512Y4666D01*
X-112521Y4697D01*
X-112745Y5238D01*
X-112745Y7462D01*
X-112521Y8003D01*
X-112506Y8066D01*
X-112481Y8127D01*
X-112472Y8210D01*
X-112465Y8242D01*
X-112467Y8261D01*
X-112463Y8294D01*
X-112463Y8548D01*
X-112283Y8728D01*
X-112245Y8781D01*
X-112199Y8828D01*
X-112159Y8901D01*
X-112140Y8928D01*
X-112134Y8946D01*
X-112118Y8975D01*
X-111894Y9516D01*
X-110322Y11088D01*
X-109781Y11312D01*
X-109725Y11347D01*
X-109665Y11372D01*
X-109600Y11424D01*
X-109572Y11442D01*
X-109560Y11457D01*
X-109534Y11477D01*
X-109354Y11657D01*
X-109100Y11657D01*
X-109036Y11667D01*
X-108970Y11668D01*
X-108890Y11691D01*
X-108857Y11696D01*
X-108840Y11706D01*
X-108809Y11715D01*
X-108268Y11939D01*
X-85407Y11939D01*
X-84866Y11715D01*
X-84802Y11700D01*
X-84742Y11675D01*
X-84659Y11666D01*
X-84627Y11659D01*
X-84607Y11660D01*
X-84575Y11657D01*
X-84321Y11657D01*
X-84141Y11477D01*
X-84088Y11439D01*
X-84041Y11393D01*
X-83968Y11353D01*
X-83941Y11333D01*
X-83923Y11328D01*
X-83894Y11312D01*
X-83353Y11088D01*
X-81781Y9516D01*
X-81557Y8975D01*
X-81522Y8919D01*
X-81497Y8859D01*
X-81445Y8794D01*
X-81427Y8766D01*
X-81412Y8753D01*
X-81392Y8728D01*
X-81212Y8548D01*
X-81212Y8294D01*
X-81201Y8229D01*
X-81201Y8164D01*
X-81178Y8084D01*
X-81172Y8051D01*
X-81163Y8034D01*
X-81154Y8003D01*
X-80930Y7462D01*
X-80930Y5238D01*
X-81154Y4697D01*
X-81169Y4634D01*
X-81194Y4573D01*
X-81203Y4490D01*
X-81210Y4458D01*
X-81208Y4439D01*
X-81212Y4406D01*
X-81212Y4152D01*
X-81392Y3972D01*
X-81430Y3919D01*
X-81476Y3872D01*
X-81516Y3799D01*
X-81535Y3772D01*
X-81541Y3754D01*
X-81557Y3725D01*
X-81781Y3184D01*
X-83353Y1612D01*
X-83894Y1388D01*
X-83950Y1353D01*
X-84010Y1328D01*
X-84075Y1276D01*
X-84103Y1258D01*
X-84115Y1243D01*
X-84141Y1223D01*
X-84321Y1043D01*
X-84575Y1043D01*
X-84640Y1033D01*
X-84705Y1032D01*
X-84785Y1009D01*
X-84818Y1004D01*
X-84835Y994D01*
X-84866Y985D01*
X-85407Y761D01*
X-108268Y761D01*
G37*
%LPD*%
%LPC*%
G36*
X-105644Y83563D02*
X-105644Y83563D01*
X-105667Y83566D01*
X-105689Y83575D01*
X-105856Y83593D01*
X-106179Y83593D01*
X-106217Y83631D01*
X-106304Y83694D01*
X-106388Y83760D01*
X-106407Y83767D01*
X-106417Y83774D01*
X-106446Y83783D01*
X-106543Y83824D01*
X-106604Y83841D01*
X-124216Y97930D01*
X-124806Y99002D01*
X-124820Y99021D01*
X-124829Y99042D01*
X-124934Y99173D01*
X-125163Y99402D01*
X-125163Y99455D01*
X-125180Y99561D01*
X-125193Y99667D01*
X-125201Y99686D01*
X-125203Y99698D01*
X-125217Y99725D01*
X-125257Y99822D01*
X-125288Y99878D01*
X-125534Y102088D01*
X-125193Y103263D01*
X-125190Y103286D01*
X-125181Y103308D01*
X-125163Y103475D01*
X-125163Y103798D01*
X-125125Y103836D01*
X-125063Y103923D01*
X-124997Y104007D01*
X-124989Y104025D01*
X-124982Y104035D01*
X-124973Y104065D01*
X-124932Y104162D01*
X-124915Y104223D01*
X-123526Y105959D01*
X-122454Y106549D01*
X-122436Y106564D01*
X-122414Y106573D01*
X-122283Y106678D01*
X-122054Y106907D01*
X-122001Y106907D01*
X-121896Y106924D01*
X-121789Y106937D01*
X-121771Y106944D01*
X-121758Y106946D01*
X-121732Y106961D01*
X-121634Y107001D01*
X-121578Y107032D01*
X-119369Y107277D01*
X-118193Y106937D01*
X-118170Y106934D01*
X-118148Y106925D01*
X-117982Y106907D01*
X-117658Y106907D01*
X-117621Y106869D01*
X-117533Y106806D01*
X-117449Y106740D01*
X-117431Y106733D01*
X-117421Y106726D01*
X-117392Y106717D01*
X-117294Y106676D01*
X-117233Y106659D01*
X-99622Y92570D01*
X-99032Y91498D01*
X-99017Y91479D01*
X-99008Y91458D01*
X-98903Y91327D01*
X-98675Y91098D01*
X-98675Y91045D01*
X-98657Y90939D01*
X-98644Y90833D01*
X-98637Y90814D01*
X-98635Y90802D01*
X-98621Y90775D01*
X-98580Y90678D01*
X-98549Y90622D01*
X-98304Y88412D01*
X-98644Y87237D01*
X-98647Y87214D01*
X-98656Y87192D01*
X-98675Y87025D01*
X-98675Y86702D01*
X-98712Y86664D01*
X-98775Y86577D01*
X-98841Y86493D01*
X-98848Y86475D01*
X-98856Y86465D01*
X-98865Y86435D01*
X-98905Y86338D01*
X-98923Y86277D01*
X-100312Y84541D01*
X-101383Y83951D01*
X-101402Y83936D01*
X-101423Y83927D01*
X-101554Y83822D01*
X-101783Y83593D01*
X-101836Y83593D01*
X-101942Y83576D01*
X-102049Y83563D01*
X-102067Y83556D01*
X-102079Y83554D01*
X-102106Y83539D01*
X-102204Y83499D01*
X-102259Y83468D01*
X-104469Y83223D01*
X-105644Y83563D01*
G37*
%LPD*%
%LPC*%
G36*
X272648Y-10001D02*
X272648Y-10001D01*
X268973Y-8478D01*
X266159Y-5665D01*
X264637Y-1989D01*
X264637Y1989D01*
X266159Y5665D01*
X268973Y8478D01*
X272648Y10001D01*
X276627Y10001D01*
X280302Y8478D01*
X283116Y5665D01*
X284638Y1989D01*
X284638Y-1989D01*
X283116Y-5665D01*
X280302Y-8478D01*
X276627Y-10001D01*
X272648Y-10001D01*
G37*
%LPD*%
%LPC*%
G36*
X-186849Y-108776D02*
X-186849Y-108776D01*
X-187390Y-108552D01*
X-187454Y-108537D01*
X-187515Y-108513D01*
X-187597Y-108504D01*
X-187630Y-108496D01*
X-187649Y-108498D01*
X-187681Y-108494D01*
X-187936Y-108494D01*
X-188115Y-108314D01*
X-188169Y-108276D01*
X-188215Y-108230D01*
X-188288Y-108190D01*
X-188315Y-108171D01*
X-188334Y-108165D01*
X-188362Y-108149D01*
X-188903Y-107925D01*
X-190197Y-106632D01*
X-190222Y-106614D01*
X-190270Y-106568D01*
X-204818Y-95321D01*
X-205483Y-94159D01*
X-205494Y-94146D01*
X-205501Y-94130D01*
X-205606Y-93999D01*
X-205827Y-93778D01*
X-205827Y-93761D01*
X-205845Y-93649D01*
X-205861Y-93537D01*
X-205866Y-93526D01*
X-205867Y-93519D01*
X-205878Y-93497D01*
X-205922Y-93396D01*
X-206205Y-91187D01*
X-205854Y-89894D01*
X-205852Y-89877D01*
X-205846Y-89861D01*
X-205827Y-89695D01*
X-205827Y-89382D01*
X-205816Y-89370D01*
X-205749Y-89278D01*
X-205681Y-89187D01*
X-205676Y-89177D01*
X-205672Y-89170D01*
X-205665Y-89147D01*
X-205624Y-89044D01*
X-204262Y-87282D01*
X-203100Y-86617D01*
X-203087Y-86606D01*
X-203071Y-86599D01*
X-202940Y-86494D01*
X-202718Y-86273D01*
X-202702Y-86273D01*
X-202590Y-86255D01*
X-202478Y-86239D01*
X-202467Y-86234D01*
X-202459Y-86233D01*
X-202438Y-86222D01*
X-202337Y-86178D01*
X-200127Y-85895D01*
X-198835Y-86246D01*
X-198818Y-86248D01*
X-198802Y-86254D01*
X-198635Y-86273D01*
X-198322Y-86273D01*
X-198311Y-86284D01*
X-198218Y-86351D01*
X-198128Y-86419D01*
X-198117Y-86424D01*
X-198111Y-86428D01*
X-198088Y-86435D01*
X-197985Y-86476D01*
X-183784Y-97454D01*
X-183769Y-97462D01*
X-183756Y-97474D01*
X-183609Y-97555D01*
X-183366Y-97656D01*
X-182866Y-98156D01*
X-182840Y-98174D01*
X-182793Y-98220D01*
X-182234Y-98652D01*
X-182102Y-98881D01*
X-182092Y-98895D01*
X-182085Y-98910D01*
X-181980Y-99041D01*
X-181000Y-100022D01*
X-180776Y-100563D01*
X-180741Y-100618D01*
X-180715Y-100679D01*
X-180663Y-100744D01*
X-180646Y-100772D01*
X-180631Y-100784D01*
X-180611Y-100810D01*
X-180431Y-100989D01*
X-180431Y-101244D01*
X-180424Y-101286D01*
X-180425Y-101295D01*
X-180420Y-101316D01*
X-180420Y-101374D01*
X-180396Y-101454D01*
X-180391Y-101486D01*
X-180382Y-101504D01*
X-180373Y-101535D01*
X-180149Y-102076D01*
X-180149Y-104299D01*
X-180373Y-104840D01*
X-180388Y-104904D01*
X-180412Y-104965D01*
X-180421Y-105047D01*
X-180429Y-105080D01*
X-180427Y-105099D01*
X-180431Y-105131D01*
X-180431Y-105386D01*
X-180611Y-105565D01*
X-180649Y-105619D01*
X-180695Y-105665D01*
X-180735Y-105738D01*
X-180754Y-105765D01*
X-180760Y-105784D01*
X-180776Y-105812D01*
X-181000Y-106353D01*
X-182572Y-107925D01*
X-183113Y-108149D01*
X-183168Y-108184D01*
X-183229Y-108210D01*
X-183288Y-108257D01*
X-183297Y-108262D01*
X-183301Y-108266D01*
X-183322Y-108279D01*
X-183334Y-108294D01*
X-183360Y-108314D01*
X-183539Y-108494D01*
X-183794Y-108494D01*
X-183858Y-108505D01*
X-183924Y-108505D01*
X-184004Y-108529D01*
X-184036Y-108534D01*
X-184054Y-108543D01*
X-184085Y-108552D01*
X-184626Y-108776D01*
X-186849Y-108776D01*
G37*
%LPD*%
G36*
X38142Y-52755D02*
X38142Y-52755D01*
X38214Y-52753D01*
X38263Y-52735D01*
X38314Y-52727D01*
X38378Y-52693D01*
X38445Y-52669D01*
X38486Y-52636D01*
X38532Y-52612D01*
X38581Y-52560D01*
X38637Y-52515D01*
X38665Y-52471D01*
X38701Y-52434D01*
X38731Y-52369D01*
X38770Y-52308D01*
X38783Y-52258D01*
X38805Y-52211D01*
X38812Y-52139D01*
X38830Y-52070D01*
X38826Y-52018D01*
X38832Y-51966D01*
X38816Y-51896D01*
X38811Y-51825D01*
X38790Y-51777D01*
X38779Y-51726D01*
X38743Y-51664D01*
X38715Y-51598D01*
X38670Y-51542D01*
X38653Y-51515D01*
X38635Y-51499D01*
X38610Y-51467D01*
X37806Y-50663D01*
X37806Y-46474D01*
X40768Y-43512D01*
X43652Y-43512D01*
X43742Y-43497D01*
X43833Y-43490D01*
X43862Y-43478D01*
X43894Y-43472D01*
X43975Y-43430D01*
X44059Y-43394D01*
X44091Y-43368D01*
X44112Y-43357D01*
X44134Y-43334D01*
X44190Y-43289D01*
X48174Y-39305D01*
X48216Y-39247D01*
X48265Y-39195D01*
X48287Y-39148D01*
X48317Y-39105D01*
X48339Y-39037D01*
X48369Y-38972D01*
X48374Y-38920D01*
X48390Y-38870D01*
X48388Y-38798D01*
X48396Y-38727D01*
X48385Y-38676D01*
X48383Y-38624D01*
X48359Y-38557D01*
X48344Y-38487D01*
X48317Y-38442D01*
X48299Y-38393D01*
X48254Y-38337D01*
X48217Y-38276D01*
X48178Y-38242D01*
X48145Y-38201D01*
X48085Y-38163D01*
X48030Y-38116D01*
X47982Y-38096D01*
X47938Y-38068D01*
X47869Y-38051D01*
X47802Y-38024D01*
X47731Y-38016D01*
X47700Y-38008D01*
X47677Y-38010D01*
X47636Y-38005D01*
X19844Y-38005D01*
X19824Y-38009D01*
X19804Y-38007D01*
X19703Y-38029D01*
X19601Y-38045D01*
X19583Y-38055D01*
X19564Y-38059D01*
X19475Y-38112D01*
X19384Y-38160D01*
X19370Y-38175D01*
X19353Y-38185D01*
X19285Y-38264D01*
X19214Y-38339D01*
X19206Y-38357D01*
X19193Y-38372D01*
X19154Y-38468D01*
X19111Y-38562D01*
X19108Y-38581D01*
X19101Y-38600D01*
X19083Y-38767D01*
X19083Y-42371D01*
X19097Y-42461D01*
X19104Y-42552D01*
X19117Y-42582D01*
X19122Y-42614D01*
X19165Y-42694D01*
X19201Y-42778D01*
X19226Y-42810D01*
X19237Y-42831D01*
X19261Y-42853D01*
X19305Y-42909D01*
X28940Y-52544D01*
X29014Y-52597D01*
X29083Y-52656D01*
X29114Y-52669D01*
X29140Y-52687D01*
X29227Y-52714D01*
X29312Y-52748D01*
X29352Y-52753D01*
X29375Y-52760D01*
X29407Y-52759D01*
X29478Y-52767D01*
X38071Y-52767D01*
X38142Y-52755D01*
G37*
%LPC*%
G36*
X-20217Y-75997D02*
X-20217Y-75997D01*
X-19742Y-75175D01*
X-19222Y-74273D01*
X-18026Y-72714D01*
X-17459Y-71975D01*
X-15411Y-69928D01*
X-13113Y-68164D01*
X-10605Y-66716D01*
X-7930Y-65608D01*
X-5132Y-64858D01*
X-2260Y-64480D01*
X-1616Y-64480D01*
X-1616Y-67089D01*
X-2407Y-67089D01*
X-2441Y-67096D01*
X-2490Y-67096D01*
X-5634Y-67627D01*
X-5667Y-67640D01*
X-5715Y-67648D01*
X-8726Y-68697D01*
X-8756Y-68715D01*
X-8802Y-68731D01*
X-11597Y-70267D01*
X-11623Y-70290D01*
X-11666Y-70313D01*
X-14165Y-72294D01*
X-14188Y-72321D01*
X-14226Y-72351D01*
X-16359Y-74721D01*
X-16377Y-74751D01*
X-16410Y-74787D01*
X-17178Y-75997D01*
X-20217Y-75997D01*
G37*
%LPD*%
%LPC*%
G36*
X-2260Y64480D02*
X-2260Y64480D01*
X-5132Y64858D01*
X-6642Y65263D01*
X-7929Y65608D01*
X-9570Y66288D01*
X-10605Y66716D01*
X-12270Y67678D01*
X-13113Y68164D01*
X-14721Y69398D01*
X-15411Y69927D01*
X-15979Y70496D01*
X-17459Y71975D01*
X-19222Y74273D01*
X-20217Y75997D01*
X-17178Y75997D01*
X-16410Y74787D01*
X-16386Y74762D01*
X-16359Y74721D01*
X-14226Y72351D01*
X-14198Y72330D01*
X-14165Y72294D01*
X-11666Y70313D01*
X-11635Y70297D01*
X-11597Y70267D01*
X-8802Y68731D01*
X-8769Y68720D01*
X-8726Y68697D01*
X-5715Y67648D01*
X-5680Y67644D01*
X-5634Y67627D01*
X-2490Y67096D01*
X-2455Y67097D01*
X-2407Y67089D01*
X-1616Y67089D01*
X-1616Y64480D01*
X-2260Y64480D01*
G37*
%LPD*%
%LPC*%
G36*
X-112084Y-39752D02*
X-112084Y-39752D01*
X-112084Y-35441D01*
X-111911Y-34794D01*
X-111577Y-34215D01*
X-111104Y-33742D01*
X-110524Y-33407D01*
X-109878Y-33234D01*
X-106067Y-33234D01*
X-106067Y-39752D01*
X-112084Y-39752D01*
G37*
%LPD*%
%LPC*%
G36*
X-103021Y-39752D02*
X-103021Y-39752D01*
X-103021Y-33234D01*
X-99209Y-33234D01*
X-98563Y-33407D01*
X-97984Y-33742D01*
X-97511Y-34215D01*
X-97176Y-34794D01*
X-97003Y-35441D01*
X-97003Y-39752D01*
X-103021Y-39752D01*
G37*
%LPD*%
G36*
X147432Y49918D02*
X147432Y49918D01*
X147446Y49916D01*
X147475Y49938D01*
X147509Y49953D01*
X147514Y49967D01*
X147525Y49975D01*
X147528Y50003D01*
X147542Y50038D01*
X147542Y54610D01*
X147541Y54612D01*
X147541Y54614D01*
X147522Y54657D01*
X147503Y54701D01*
X147501Y54701D01*
X147500Y54703D01*
X147415Y54736D01*
X136747Y54736D01*
X136745Y54735D01*
X136743Y54736D01*
X136700Y54716D01*
X136657Y54698D01*
X136656Y54696D01*
X136654Y54695D01*
X136621Y54610D01*
X136621Y50038D01*
X136635Y50004D01*
X136642Y49968D01*
X136654Y49960D01*
X136659Y49947D01*
X136694Y49934D01*
X136724Y49914D01*
X136739Y49917D01*
X136751Y49912D01*
X136777Y49924D01*
X136814Y49931D01*
X142081Y53192D01*
X147349Y49931D01*
X147385Y49925D01*
X147419Y49912D01*
X147432Y49918D01*
G37*
G36*
X68042Y57977D02*
X68042Y57977D01*
X68044Y57976D01*
X68087Y57996D01*
X68131Y58015D01*
X68132Y58017D01*
X68134Y58018D01*
X68167Y58103D01*
X68167Y62675D01*
X68152Y62708D01*
X68145Y62744D01*
X68134Y62752D01*
X68128Y62765D01*
X68094Y62778D01*
X68063Y62799D01*
X68049Y62796D01*
X68036Y62801D01*
X68010Y62789D01*
X67974Y62782D01*
X62706Y59521D01*
X57439Y62782D01*
X57403Y62787D01*
X57368Y62801D01*
X57355Y62795D01*
X57341Y62797D01*
X57312Y62775D01*
X57279Y62759D01*
X57273Y62746D01*
X57263Y62738D01*
X57259Y62709D01*
X57246Y62675D01*
X57246Y58103D01*
X57247Y58101D01*
X57246Y58098D01*
X57266Y58055D01*
X57284Y58012D01*
X57286Y58011D01*
X57287Y58009D01*
X57372Y57976D01*
X68040Y57976D01*
X68042Y57977D01*
G37*
G36*
X147428Y47123D02*
X147428Y47123D01*
X147442Y47121D01*
X147472Y47142D01*
X147506Y47156D01*
X147511Y47169D01*
X147522Y47177D01*
X147528Y47214D01*
X147541Y47248D01*
X147536Y47261D01*
X147538Y47275D01*
X147513Y47310D01*
X147500Y47337D01*
X147491Y47341D01*
X147485Y47349D01*
X142151Y50905D01*
X142124Y50910D01*
X142100Y50925D01*
X142076Y50919D01*
X142055Y50923D01*
X142036Y50911D01*
X142011Y50905D01*
X136677Y47349D01*
X136670Y47337D01*
X136657Y47332D01*
X136643Y47298D01*
X136623Y47267D01*
X136626Y47253D01*
X136621Y47240D01*
X136637Y47207D01*
X136645Y47171D01*
X136656Y47163D01*
X136662Y47151D01*
X136703Y47135D01*
X136728Y47119D01*
X136738Y47121D01*
X136747Y47118D01*
X147415Y47118D01*
X147428Y47123D01*
G37*
G36*
X62712Y61793D02*
X62712Y61793D01*
X62733Y61789D01*
X62751Y61802D01*
X62776Y61807D01*
X68110Y65363D01*
X68118Y65375D01*
X68131Y65381D01*
X68144Y65415D01*
X68164Y65446D01*
X68161Y65459D01*
X68166Y65473D01*
X68151Y65506D01*
X68143Y65542D01*
X68131Y65549D01*
X68125Y65562D01*
X68085Y65578D01*
X68059Y65593D01*
X68049Y65591D01*
X68040Y65595D01*
X57372Y65595D01*
X57359Y65589D01*
X57346Y65592D01*
X57316Y65571D01*
X57282Y65556D01*
X57277Y65543D01*
X57265Y65535D01*
X57259Y65499D01*
X57246Y65464D01*
X57252Y65452D01*
X57250Y65438D01*
X57275Y65403D01*
X57287Y65375D01*
X57297Y65372D01*
X57302Y65363D01*
X62636Y61807D01*
X62664Y61802D01*
X62687Y61788D01*
X62712Y61793D01*
G37*
%LPC*%
G36*
X-124131Y-44580D02*
X-124131Y-44580D01*
X-124710Y-44246D01*
X-125183Y-43773D01*
X-125518Y-43193D01*
X-125691Y-42547D01*
X-125691Y-39462D01*
X-121899Y-39462D01*
X-121899Y-44753D01*
X-123485Y-44753D01*
X-124131Y-44580D01*
G37*
%LPD*%
%LPC*%
G36*
X-125691Y-36963D02*
X-125691Y-36963D01*
X-125691Y-33878D01*
X-125518Y-33232D01*
X-125183Y-32652D01*
X-124710Y-32179D01*
X-124131Y-31845D01*
X-123484Y-31672D01*
X-121899Y-31672D01*
X-121899Y-36963D01*
X-125691Y-36963D01*
G37*
%LPD*%
%LPC*%
G36*
X-119401Y-44753D02*
X-119401Y-44753D01*
X-119401Y-39462D01*
X-115609Y-39462D01*
X-115609Y-42547D01*
X-115782Y-43193D01*
X-116117Y-43773D01*
X-116590Y-44246D01*
X-117169Y-44580D01*
X-117816Y-44753D01*
X-119401Y-44753D01*
G37*
%LPD*%
%LPC*%
G36*
X-119401Y-36963D02*
X-119401Y-36963D01*
X-119401Y-31672D01*
X-117816Y-31672D01*
X-117169Y-31845D01*
X-116590Y-32179D01*
X-116117Y-32652D01*
X-115782Y-33232D01*
X-115609Y-33878D01*
X-115609Y-36963D01*
X-119401Y-36963D01*
G37*
%LPD*%
D10*
X-138113Y71000D03*
X-138113Y56000D03*
D11*
X-150813Y165200D03*
X-93Y77520D03*
X-93Y-77520D03*
X-150813Y-165200D03*
X-222313Y123900D03*
X-79313Y123900D03*
X-79313Y-123900D03*
X-222313Y-123900D03*
X149188Y165200D03*
X292288Y82600D03*
X292288Y-82600D03*
X149188Y-165200D03*
X-293880Y82600D03*
X-293880Y-82600D03*
X-293913Y0D03*
D12*
X-200819Y-23813D03*
D13*
X-87544Y-56356D03*
X-104544Y-56356D03*
X-147638Y-40713D03*
X-147638Y-57713D03*
X-87544Y-41275D03*
X-104544Y-41275D03*
D14*
X-201613Y52388D03*
X-201613Y26988D03*
X-201613Y1588D03*
D15*
X76106Y21900D03*
X76106Y-3100D03*
X76106Y-28100D03*
X100106Y21900D03*
X100106Y-3100D03*
X100106Y-28100D03*
D14*
X176809Y-115530D03*
X198806Y-102830D03*
X220803Y-90130D03*
D10*
X109894Y85725D03*
X94894Y85725D03*
D14*
X214093Y114684D03*
X192052Y127307D03*
D16*
X-120650Y-60213D03*
X-120650Y-38213D03*
D17*
X151638Y-7500D03*
D18*
X265638Y-37000D03*
X285638Y37000D03*
D19*
X191638Y37000D03*
D20*
G36*
X200655Y-129261D02*
X188463Y-136301D01*
X181423Y-124109D01*
X193615Y-117069D01*
X200655Y-129261D01*
G37*
D21*
X208360Y-116685D03*
X225680Y-106685D03*
D22*
X142081Y42300D03*
X142081Y59300D03*
X62706Y70413D03*
X62706Y53413D03*
D23*
X8583Y86195D02*
X-93Y77520D01*
X8583Y86195D02*
X145427Y165200D01*
X149188Y165200D01*
X152948Y165200D01*
X287190Y87698D01*
X292288Y82600D01*
X149188Y-165200D02*
X145427Y-165200D01*
X8583Y-86195D01*
X-93Y-77520D01*
D24*
X-93Y77520D02*
X-60058Y77520D01*
X-60325Y77788D01*
X-37574Y-77520D02*
X-93Y-77520D01*
X-37574Y-77520D02*
X-42069Y-73025D01*
X-150813Y-165200D02*
X-151606Y-164406D01*
X-151606Y-124619D01*
X-279542Y-68263D02*
X-293880Y-82600D01*
X-279542Y-68263D02*
X-262731Y-68263D01*
X-283511Y72231D02*
X-293880Y82600D01*
X-283511Y72231D02*
X-261144Y72231D01*
X-150813Y140494D02*
X-150813Y165200D01*
X292288Y-75823D02*
X292288Y-82600D01*
X292288Y-75823D02*
X283140Y-66675D01*
D25*
X283140Y-66675D03*
X254068Y15808D03*
D24*
X288975Y82600D02*
X292288Y82600D01*
X254068Y47693D02*
X254068Y16206D01*
X253868Y16007D01*
X254068Y47693D02*
X288975Y82600D01*
D26*
X-67469Y-4613D03*
D27*
X254068Y15808D02*
X254068Y16206D01*
D28*
X-104544Y-41275D02*
X-117588Y-41275D01*
X-120650Y-38213D01*
X-122919Y-38213D01*
X-129381Y-31750D01*
D29*
X-138113Y30956D02*
X-138113Y56000D01*
D26*
X-138113Y30956D03*
D25*
X-127794Y-123031D03*
D24*
X-113506Y-106958D02*
X-113506Y-106363D01*
X-113506Y-106958D02*
X-127794Y-123031D01*
D25*
X-113506Y-106363D03*
X-185738Y-103188D03*
D24*
X-186531Y-102394D01*
X-200520Y-91580D01*
D25*
X-200520Y-91580D03*
X-235445Y4464D03*
D24*
X-235744Y25400D01*
D25*
X-235744Y25400D03*
X-200819Y80963D03*
D24*
X-183356Y96044D01*
D25*
X-183356Y96044D03*
X-119856Y101600D03*
D24*
X-103981Y88900D01*
D25*
X-103981Y88900D03*
X-107156Y6350D03*
D24*
X-86519Y6350D01*
D25*
X-86519Y6350D03*
D30*
X-147638Y-57713D02*
X-145141Y-60209D01*
D25*
X-145141Y-60209D03*
D28*
X-108400Y-60213D02*
X-104544Y-56356D01*
X-108400Y-60213D02*
X-120650Y-60213D01*
X-145138Y-60213D01*
X-145141Y-60209D01*
D30*
X-88106Y-40713D02*
X-87544Y-41275D01*
X-88106Y-40713D02*
X-88106Y-38944D01*
D25*
X-88106Y-38944D03*
D26*
X43656Y-71100D03*
X150813Y-69850D03*
X130969Y29369D03*
D31*
X176213Y-44450D02*
X150813Y-69850D01*
X176213Y-44450D02*
X176213Y17463D01*
X162719Y30956D01*
X132556Y30956D01*
X130969Y29369D01*
X43656Y-62973D02*
X43656Y-71100D01*
X142875Y-69850D02*
X150813Y-69850D01*
X142875Y-69850D02*
X123031Y-50006D01*
X-73894Y-41275D02*
X-87544Y-41275D01*
X-73894Y-41275D02*
X-67989Y-47181D01*
X10727Y-47181D01*
X34647Y-71100D02*
X43656Y-71100D01*
X34647Y-71100D02*
X10727Y-47181D01*
X43656Y-62973D02*
X56623Y-50006D01*
X123031Y-50006D01*
D30*
X-87544Y-56356D02*
X-87544Y-57713D01*
X-87313Y-57944D01*
D25*
X-87313Y-57944D03*
X126206Y-112713D03*
X116681Y-11906D03*
X118269Y29369D03*
X115888Y57150D03*
X156369Y82550D03*
X188913Y71438D03*
X184150Y10319D03*
X189706Y-47625D03*
X208756Y-48419D03*
X162719Y-70644D03*
X97631Y-80963D03*
X59531Y-80963D03*
X23019Y-69850D03*
X27781Y-42863D03*
X26194Y12700D03*
X26194Y-9525D03*
X26194Y71438D03*
X26194Y55563D03*
X36513Y82550D03*
X59531Y82550D03*
X123031Y81756D03*
X95250Y81756D03*
X173038Y83344D03*
X189706Y58738D03*
X184150Y-11906D03*
X214313Y-61913D03*
X121444Y-79375D03*
X28575Y-82550D03*
X224631Y69056D03*
X223838Y37306D03*
X219869Y-19050D03*
X254000Y-72231D03*
X149225Y-130969D03*
X77788Y-108744D03*
X76200Y103188D03*
X105569Y119063D03*
X119063Y16669D03*
X115094Y-23813D03*
D26*
X-138113Y71000D03*
X-148500Y-33320D03*
D32*
X-147638Y-34182D01*
X-147638Y-34925D01*
X-147638Y-40713D01*
X-158750Y-23813D02*
X-200819Y-23813D01*
X-158750Y-23813D02*
X-147638Y-34925D01*
X-195263Y52388D02*
X-169863Y77788D01*
X-195263Y52388D02*
X-201613Y52388D01*
X-120650Y77788D02*
X-98309Y55447D01*
D26*
X-98309Y55447D03*
D32*
X-120650Y77788D02*
X-169863Y77788D01*
D26*
X-200235Y-110056D03*
D32*
X-208469Y-110056D01*
X-222313Y-123900D01*
D26*
X-208840Y102194D03*
D32*
X-208840Y110427D01*
X-222313Y123900D01*
X-190500Y12700D02*
X-201613Y1588D01*
X-190500Y12700D02*
X-190500Y50800D01*
X-177006Y64294D01*
X-120650Y64294D01*
X-108490Y52134D01*
X-108490Y49213D01*
D26*
X-108490Y49213D03*
X-269875Y9525D03*
D32*
X-284388Y9525D01*
X-293913Y0D01*
D26*
X-101390Y110057D03*
D32*
X-93156Y110057D01*
X-79313Y123900D01*
D26*
X105594Y7485D03*
D27*
X106398Y7485D01*
X-65088Y-24925D02*
X-84138Y-24925D01*
D26*
X-84138Y-24925D03*
D27*
X-47150Y-42863D02*
X16025Y-42863D01*
X28216Y-55054D01*
X-47150Y-42863D02*
X-65088Y-24925D01*
X28216Y-55054D02*
X44959Y-55054D01*
X83141Y-38434D02*
X87853Y-33722D01*
X83141Y-38434D02*
X61579Y-38434D01*
X44959Y-55054D01*
X87853Y-33722D02*
X87853Y2467D01*
X92871Y7485D01*
X105594Y7485D01*
D26*
X88081Y11326D03*
X-88106Y-16182D03*
D27*
X-76200Y-4276D02*
X-48059Y-32417D01*
X-76200Y-4276D02*
X-82550Y-4276D01*
X-88106Y-9832D01*
X-88106Y-16182D01*
X-48059Y-32417D02*
X48013Y-32417D01*
X88081Y11326D02*
X85406Y14002D01*
X71152Y14002D01*
X59531Y-20898D02*
X48013Y-32417D01*
X59531Y2381D02*
X71152Y14002D01*
X59531Y2381D02*
X59531Y-20898D01*
D26*
X80963Y7144D03*
D27*
X-49213Y-35719D02*
X-73819Y-11113D01*
X-80963Y-11113D01*
D26*
X-80963Y-11113D03*
D27*
X64556Y-20816D02*
X64556Y2145D01*
X49653Y-35719D02*
X-49213Y-35719D01*
X49653Y-35719D02*
X64556Y-20816D01*
X69554Y7144D02*
X80963Y7144D01*
X69554Y7144D02*
X64556Y2145D01*
D33*
X107553Y-67619D03*
D29*
X191226Y-95250D02*
X198806Y-102830D01*
X107735Y-67801D02*
X107553Y-67619D01*
X107735Y-67801D02*
X107735Y-81113D01*
X121872Y-95250D01*
X191226Y-95250D01*
X285638Y32238D02*
X285638Y37000D01*
X289876Y32761D01*
X289876Y-49849D01*
X242094Y-97631D02*
X242094Y-107950D01*
X232142Y-115769D01*
X218699Y-122043D01*
X208360Y-116685D01*
X242094Y-97631D02*
X289876Y-49849D01*
D31*
X206596Y-114921D02*
X198482Y-103154D01*
X198806Y-102830D01*
X206596Y-114921D02*
X208360Y-116685D01*
D33*
X60969Y-57150D03*
D29*
X166847Y-105569D02*
X176809Y-115530D01*
X166847Y-105569D02*
X105569Y-105569D01*
X60969Y-60969D01*
X60969Y-57150D01*
X123170Y-57150D01*
X143239Y-77220D02*
X182337Y-77220D01*
X196282Y-63274D01*
X196282Y-44901D01*
X191638Y-40256D02*
X191638Y37000D01*
X191638Y-40256D02*
X196282Y-44901D01*
X143239Y-77220D02*
X123170Y-57150D01*
D31*
X176809Y-115530D02*
X191039Y-126685D01*
D25*
X-169069Y42863D03*
D30*
X-148431Y22225D01*
X-794Y22225D01*
X20854Y43873D01*
X140509Y43873D01*
X142081Y42300D01*
X148664Y43873D02*
X214093Y109302D01*
X143654Y43873D02*
X142081Y42300D01*
X214093Y109302D02*
X214093Y114684D01*
X148664Y43873D02*
X143654Y43873D01*
D25*
X142081Y41125D03*
D29*
X142081Y42300D01*
D25*
X62706Y52162D03*
D29*
X62706Y53413D01*
D25*
X62706Y70413D03*
D33*
X42863Y-13644D03*
X158750Y-35869D03*
D29*
X100106Y21900D02*
X76106Y21900D01*
X100106Y21900D02*
X124619Y-2613D01*
X124619Y-11906D01*
X137007Y-24294D01*
X147175Y-24294D01*
X158750Y-35869D01*
X72931Y21900D02*
X42863Y-8169D01*
X42863Y-13644D01*
X72931Y21900D02*
X76106Y21900D01*
D33*
X42863Y-48569D03*
D29*
X63331Y-28100D02*
X76106Y-28100D01*
X63331Y-28100D02*
X42863Y-48569D01*
X76106Y-28100D02*
X76106Y-3100D01*
X142081Y59300D02*
X142081Y61119D01*
D25*
X142081Y61119D03*
D29*
X109894Y85725D02*
X137675Y113506D01*
X144231Y113506D01*
D26*
X144231Y113506D03*
D32*
X-79313Y-123900D02*
X-100088Y-123900D01*
X-105910Y-118078D01*
D26*
X-105910Y-118078D03*
D33*
X124469Y-68263D03*
D29*
X220803Y-90130D02*
X265638Y-45296D01*
X265638Y-37000D01*
X217191Y-86519D02*
X220803Y-90130D01*
X217191Y-86519D02*
X142725Y-86519D01*
X124469Y-68263D01*
D31*
X220803Y-90130D02*
X225680Y-106685D01*
D29*
X100106Y-28100D02*
X100106Y-3100D01*
X100106Y-28100D02*
X108669Y-36663D01*
X138113Y-36663D02*
X144463Y-43013D01*
X138113Y-36663D02*
X108669Y-36663D01*
D33*
X144463Y-43013D03*
M02*
