G04 EAGLE Gerber RS-274X export*
G75*
%MOMM*%
%FSLAX34Y34*%
%LPD*%
%IN*%
%IPPOS*%
%AMOC8*
5,1,8,0,0,1.08239X$1,22.5*%
G01*
%ADD10C,0.254000*%


D10*
X-300813Y-86600D02*
X-150813Y-173200D01*
X-813Y-86600D01*
X149188Y-173200D01*
X299188Y-86600D01*
X299188Y86600D01*
X149188Y173200D01*
X-813Y86600D01*
X-150813Y173200D01*
X-300813Y86600D01*
X-300813Y-86600D01*
X266138Y371D02*
X266202Y1111D01*
X266331Y1842D01*
X266523Y2558D01*
X266777Y3256D01*
X267091Y3929D01*
X267462Y4571D01*
X267888Y5179D01*
X268365Y5748D01*
X268890Y6273D01*
X269458Y6750D01*
X270066Y7176D01*
X270709Y7547D01*
X271382Y7860D01*
X272079Y8114D01*
X272796Y8306D01*
X273527Y8435D01*
X274266Y8500D01*
X275009Y8500D01*
X275748Y8435D01*
X276479Y8306D01*
X277196Y8114D01*
X277893Y7860D01*
X278566Y7547D01*
X279209Y7176D01*
X279817Y6750D01*
X280386Y6273D01*
X280910Y5748D01*
X281387Y5179D01*
X281813Y4571D01*
X282184Y3929D01*
X282498Y3256D01*
X282752Y2558D01*
X282944Y1842D01*
X283073Y1111D01*
X283138Y371D01*
X283138Y-371D01*
X283073Y-1111D01*
X282944Y-1842D01*
X282752Y-2558D01*
X282498Y-3256D01*
X282184Y-3929D01*
X281813Y-4571D01*
X281387Y-5179D01*
X280910Y-5748D01*
X280386Y-6273D01*
X279817Y-6750D01*
X279209Y-7176D01*
X278566Y-7547D01*
X277893Y-7860D01*
X277196Y-8114D01*
X276479Y-8306D01*
X275748Y-8435D01*
X275009Y-8500D01*
X274266Y-8500D01*
X273527Y-8435D01*
X272796Y-8306D01*
X272079Y-8114D01*
X271382Y-7860D01*
X270709Y-7547D01*
X270066Y-7176D01*
X269458Y-6750D01*
X268890Y-6273D01*
X268365Y-5748D01*
X267888Y-5179D01*
X267462Y-4571D01*
X267091Y-3929D01*
X266777Y-3256D01*
X266523Y-2558D01*
X266331Y-1842D01*
X266202Y-1111D01*
X266138Y-371D01*
X266138Y371D01*
X196138Y371D02*
X196202Y1111D01*
X196331Y1842D01*
X196523Y2558D01*
X196777Y3256D01*
X197091Y3929D01*
X197462Y4571D01*
X197888Y5179D01*
X198365Y5748D01*
X198890Y6273D01*
X199458Y6750D01*
X200066Y7176D01*
X200709Y7547D01*
X201382Y7860D01*
X202079Y8114D01*
X202796Y8306D01*
X203527Y8435D01*
X204266Y8500D01*
X205009Y8500D01*
X205748Y8435D01*
X206479Y8306D01*
X207196Y8114D01*
X207893Y7860D01*
X208566Y7547D01*
X209209Y7176D01*
X209817Y6750D01*
X210386Y6273D01*
X210910Y5748D01*
X211387Y5179D01*
X211813Y4571D01*
X212184Y3929D01*
X212498Y3256D01*
X212752Y2558D01*
X212944Y1842D01*
X213073Y1111D01*
X213138Y371D01*
X213138Y-371D01*
X213073Y-1111D01*
X212944Y-1842D01*
X212752Y-2558D01*
X212498Y-3256D01*
X212184Y-3929D01*
X211813Y-4571D01*
X211387Y-5179D01*
X210910Y-5748D01*
X210386Y-6273D01*
X209817Y-6750D01*
X209209Y-7176D01*
X208566Y-7547D01*
X207893Y-7860D01*
X207196Y-8114D01*
X206479Y-8306D01*
X205748Y-8435D01*
X205009Y-8500D01*
X204266Y-8500D01*
X203527Y-8435D01*
X202796Y-8306D01*
X202079Y-8114D01*
X201382Y-7860D01*
X200709Y-7547D01*
X200066Y-7176D01*
X199458Y-6750D01*
X198890Y-6273D01*
X198365Y-5748D01*
X197888Y-5179D01*
X197462Y-4571D01*
X197091Y-3929D01*
X196777Y-3256D01*
X196523Y-2558D01*
X196331Y-1842D01*
X196202Y-1111D01*
X196138Y-371D01*
X196138Y371D01*
M02*
