G04 EAGLE Gerber RS-274X export*
G75*
%MOMM*%
%FSLAX34Y34*%
%LPD*%
%INSolderpaste Top*%
%IPPOS*%
%AMOC8*
5,1,8,0,0,1.08239X$1,22.5*%
G01*
%ADD10R,0.800000X0.800000*%
%ADD11R,1.000000X1.100000*%
%ADD12R,1.600000X1.000000*%
%ADD13R,0.500000X0.800000*%
%ADD14R,2.600000X2.800000*%
%ADD15R,2.200000X2.800000*%
%ADD16R,2.800000X2.800000*%
%ADD17R,1.100000X1.000000*%

G36*
X68042Y57977D02*
X68042Y57977D01*
X68044Y57976D01*
X68087Y57996D01*
X68131Y58015D01*
X68132Y58017D01*
X68134Y58018D01*
X68167Y58103D01*
X68167Y62675D01*
X68152Y62708D01*
X68145Y62744D01*
X68134Y62752D01*
X68128Y62765D01*
X68094Y62778D01*
X68063Y62799D01*
X68049Y62796D01*
X68036Y62801D01*
X68010Y62789D01*
X67974Y62782D01*
X62706Y59521D01*
X57439Y62782D01*
X57403Y62787D01*
X57368Y62801D01*
X57355Y62795D01*
X57341Y62797D01*
X57312Y62775D01*
X57279Y62759D01*
X57273Y62746D01*
X57263Y62738D01*
X57259Y62709D01*
X57246Y62675D01*
X57246Y58103D01*
X57247Y58101D01*
X57246Y58098D01*
X57266Y58055D01*
X57284Y58012D01*
X57286Y58011D01*
X57287Y58009D01*
X57372Y57976D01*
X68040Y57976D01*
X68042Y57977D01*
G37*
G36*
X147432Y49918D02*
X147432Y49918D01*
X147446Y49916D01*
X147475Y49938D01*
X147509Y49953D01*
X147514Y49967D01*
X147525Y49975D01*
X147528Y50003D01*
X147542Y50038D01*
X147542Y54610D01*
X147541Y54612D01*
X147541Y54614D01*
X147522Y54657D01*
X147503Y54701D01*
X147501Y54701D01*
X147500Y54703D01*
X147415Y54736D01*
X136747Y54736D01*
X136745Y54735D01*
X136743Y54736D01*
X136700Y54716D01*
X136657Y54698D01*
X136656Y54696D01*
X136654Y54695D01*
X136621Y54610D01*
X136621Y50038D01*
X136635Y50004D01*
X136642Y49968D01*
X136654Y49960D01*
X136659Y49947D01*
X136694Y49934D01*
X136724Y49914D01*
X136739Y49917D01*
X136751Y49912D01*
X136777Y49924D01*
X136814Y49931D01*
X142081Y53192D01*
X147349Y49931D01*
X147385Y49925D01*
X147419Y49912D01*
X147432Y49918D01*
G37*
G36*
X62712Y61793D02*
X62712Y61793D01*
X62733Y61789D01*
X62751Y61802D01*
X62776Y61807D01*
X68110Y65363D01*
X68118Y65375D01*
X68131Y65381D01*
X68144Y65415D01*
X68164Y65446D01*
X68161Y65459D01*
X68166Y65473D01*
X68151Y65506D01*
X68143Y65542D01*
X68131Y65549D01*
X68125Y65562D01*
X68085Y65578D01*
X68059Y65593D01*
X68049Y65591D01*
X68040Y65595D01*
X57372Y65595D01*
X57359Y65589D01*
X57346Y65592D01*
X57316Y65571D01*
X57282Y65556D01*
X57277Y65543D01*
X57265Y65535D01*
X57259Y65499D01*
X57246Y65464D01*
X57252Y65452D01*
X57250Y65438D01*
X57275Y65403D01*
X57287Y65375D01*
X57297Y65372D01*
X57302Y65363D01*
X62636Y61807D01*
X62664Y61802D01*
X62687Y61788D01*
X62712Y61793D01*
G37*
G36*
X147428Y47123D02*
X147428Y47123D01*
X147442Y47121D01*
X147472Y47142D01*
X147506Y47156D01*
X147511Y47169D01*
X147522Y47177D01*
X147528Y47214D01*
X147541Y47248D01*
X147536Y47261D01*
X147538Y47275D01*
X147513Y47310D01*
X147500Y47337D01*
X147491Y47341D01*
X147485Y47349D01*
X142151Y50905D01*
X142124Y50910D01*
X142100Y50925D01*
X142076Y50919D01*
X142055Y50923D01*
X142036Y50911D01*
X142011Y50905D01*
X136677Y47349D01*
X136670Y47337D01*
X136657Y47332D01*
X136643Y47298D01*
X136623Y47267D01*
X136626Y47253D01*
X136621Y47240D01*
X136637Y47207D01*
X136645Y47171D01*
X136656Y47163D01*
X136662Y47151D01*
X136703Y47135D01*
X136728Y47119D01*
X136738Y47121D01*
X136747Y47118D01*
X147415Y47118D01*
X147428Y47123D01*
G37*
D10*
X-138113Y71000D03*
X-138113Y56000D03*
D11*
X-87544Y-56356D03*
X-104544Y-56356D03*
X-147638Y-40713D03*
X-147638Y-57713D03*
X-87544Y-41275D03*
X-104544Y-41275D03*
D12*
X76106Y21900D03*
X76106Y-3100D03*
X76106Y-28100D03*
X100106Y21900D03*
X100106Y-3100D03*
X100106Y-28100D03*
D10*
X109894Y85725D03*
X94894Y85725D03*
D13*
X-120650Y-60213D03*
X-120650Y-38213D03*
D14*
X151638Y-7500D03*
D15*
X265638Y-37000D03*
X285638Y37000D03*
D16*
X191638Y37000D03*
D17*
X142081Y42300D03*
X142081Y59300D03*
X62706Y70413D03*
X62706Y53413D03*
M02*
