G04 EAGLE Gerber RS-274X export*
G75*
%MOMM*%
%FSLAX34Y34*%
%LPD*%
%INTop Copper*%
%IPPOS*%
%AMOC8*
5,1,8,0,0,1.08239X$1,22.5*%
G01*
%ADD10R,0.800000X0.800000*%
%ADD11C,1.000000*%
%ADD12P,1.649562X8X22.500000*%
%ADD13R,1.100000X1.000000*%
%ADD14R,1.000000X1.100000*%
%ADD15C,1.524000*%
%ADD16R,2.200000X2.800000*%
%ADD17R,2.600000X2.800000*%
%ADD18R,2.800000X2.800000*%
%ADD19R,1.600000X1.000000*%
%ADD20C,0.756400*%
%ADD21C,0.406400*%
%ADD22C,0.609600*%
%ADD23C,1.016000*%
%ADD24C,0.812800*%
%ADD25C,0.304800*%
%ADD26C,0.254000*%

G36*
X449241Y29511D02*
X449241Y29511D01*
X449318Y29510D01*
X449342Y29519D01*
X449363Y29520D01*
X449402Y29541D01*
X449474Y29567D01*
X465974Y39067D01*
X465996Y39086D01*
X466022Y39099D01*
X466056Y39137D01*
X466059Y39139D01*
X466062Y39143D01*
X466070Y39152D01*
X466123Y39199D01*
X466136Y39225D01*
X466155Y39247D01*
X466178Y39314D01*
X466209Y39378D01*
X466211Y39407D01*
X466220Y39434D01*
X466215Y39506D01*
X466218Y39577D01*
X466208Y39604D01*
X466206Y39633D01*
X466164Y39723D01*
X466149Y39763D01*
X466142Y39771D01*
X466136Y39784D01*
X464413Y42280D01*
X498810Y62138D01*
X498866Y62178D01*
X498927Y62211D01*
X499029Y62296D01*
X499137Y62373D01*
X499184Y62423D01*
X499237Y62467D01*
X499321Y62571D01*
X499411Y62668D01*
X499447Y62726D01*
X499491Y62780D01*
X499552Y62898D01*
X499622Y63011D01*
X499646Y63075D01*
X499678Y63136D01*
X499715Y63264D01*
X499761Y63389D01*
X499772Y63457D01*
X499791Y63523D01*
X499802Y63655D01*
X499823Y63787D01*
X499820Y63855D01*
X499825Y63924D01*
X499811Y64056D01*
X499805Y64189D01*
X499788Y64256D01*
X499780Y64324D01*
X499740Y64450D01*
X499708Y64580D01*
X499678Y64642D01*
X499657Y64707D01*
X499592Y64823D01*
X499535Y64944D01*
X499494Y64999D01*
X499461Y65059D01*
X499374Y65160D01*
X499295Y65266D01*
X499244Y65312D01*
X499199Y65365D01*
X499094Y65447D01*
X498995Y65535D01*
X498936Y65570D01*
X498882Y65613D01*
X498763Y65673D01*
X498649Y65740D01*
X498584Y65763D01*
X498522Y65794D01*
X498394Y65829D01*
X498268Y65872D01*
X498200Y65882D01*
X498134Y65900D01*
X498001Y65909D01*
X497870Y65927D01*
X497801Y65923D01*
X497732Y65928D01*
X497600Y65910D01*
X497468Y65902D01*
X497401Y65884D01*
X497333Y65875D01*
X497162Y65821D01*
X497079Y65798D01*
X497049Y65784D01*
X497017Y65774D01*
X494346Y64667D01*
X490404Y64667D01*
X486763Y66176D01*
X483977Y68962D01*
X482468Y72603D01*
X482468Y76545D01*
X483977Y80186D01*
X486763Y82973D01*
X490404Y84481D01*
X493313Y84481D01*
X493317Y84481D01*
X493322Y84481D01*
X493515Y84501D01*
X493713Y84521D01*
X493718Y84522D01*
X493722Y84523D01*
X493908Y84580D01*
X494098Y84639D01*
X494102Y84641D01*
X494106Y84642D01*
X494278Y84736D01*
X494452Y84831D01*
X494456Y84833D01*
X494460Y84836D01*
X494607Y84960D01*
X494761Y85088D01*
X494764Y85092D01*
X494768Y85095D01*
X494889Y85247D01*
X495014Y85402D01*
X495016Y85406D01*
X495019Y85410D01*
X495108Y85583D01*
X495199Y85759D01*
X495201Y85764D01*
X495203Y85768D01*
X495256Y85955D01*
X495311Y86146D01*
X495311Y86151D01*
X495312Y86155D01*
X495327Y86348D01*
X495344Y86548D01*
X495343Y86552D01*
X495343Y86557D01*
X495320Y86747D01*
X495297Y86948D01*
X495295Y86952D01*
X495295Y86956D01*
X495234Y87139D01*
X495172Y87330D01*
X495170Y87334D01*
X495168Y87338D01*
X495073Y87505D01*
X494974Y87681D01*
X494971Y87684D01*
X494969Y87688D01*
X494837Y87839D01*
X494711Y87986D01*
X494707Y87988D01*
X494704Y87992D01*
X494548Y88112D01*
X494393Y88232D01*
X494389Y88234D01*
X494385Y88237D01*
X494090Y88389D01*
X491862Y89311D01*
X490155Y91019D01*
X489231Y93249D01*
X489231Y95663D01*
X490155Y97894D01*
X490386Y98125D01*
X490403Y98146D01*
X490424Y98163D01*
X490531Y98301D01*
X490641Y98437D01*
X490654Y98460D01*
X490670Y98481D01*
X490748Y98638D01*
X490830Y98792D01*
X490838Y98818D01*
X490850Y98842D01*
X490895Y99011D01*
X490945Y99178D01*
X490947Y99205D01*
X490954Y99231D01*
X490981Y99561D01*
X490981Y102459D01*
X491639Y104046D01*
X506139Y118547D01*
X506145Y118554D01*
X506152Y118560D01*
X506272Y118709D01*
X506394Y118858D01*
X506399Y118866D01*
X506404Y118873D01*
X506493Y119044D01*
X506583Y119214D01*
X506586Y119223D01*
X506590Y119231D01*
X506643Y119415D01*
X506698Y119600D01*
X506699Y119609D01*
X506701Y119618D01*
X506717Y119808D01*
X506734Y120001D01*
X506733Y120010D01*
X506734Y120019D01*
X506712Y120208D01*
X506691Y120401D01*
X506688Y120410D01*
X506687Y120419D01*
X506628Y120601D01*
X506569Y120785D01*
X506565Y120793D01*
X506562Y120801D01*
X506467Y120970D01*
X506374Y121137D01*
X506369Y121144D01*
X506364Y121152D01*
X506239Y121298D01*
X506114Y121444D01*
X506107Y121450D01*
X506101Y121457D01*
X505950Y121574D01*
X505798Y121694D01*
X505790Y121698D01*
X505783Y121704D01*
X505611Y121789D01*
X505439Y121876D01*
X505431Y121879D01*
X505423Y121883D01*
X505236Y121933D01*
X505051Y121984D01*
X505042Y121985D01*
X505034Y121987D01*
X504703Y122015D01*
X329528Y122015D01*
X326821Y123136D01*
X313964Y135993D01*
X313943Y136010D01*
X313926Y136030D01*
X313788Y136137D01*
X313653Y136248D01*
X313629Y136260D01*
X313608Y136277D01*
X313451Y136355D01*
X313297Y136437D01*
X313271Y136444D01*
X313247Y136456D01*
X313078Y136502D01*
X312911Y136551D01*
X312884Y136554D01*
X312858Y136561D01*
X312528Y136588D01*
X227072Y136588D01*
X226219Y136941D01*
X226189Y136950D01*
X226161Y136964D01*
X225997Y137008D01*
X225834Y137058D01*
X225802Y137061D01*
X225772Y137069D01*
X225442Y137096D01*
X176335Y137096D01*
X173627Y138217D01*
X131074Y180771D01*
X129952Y183478D01*
X129952Y277888D01*
X129949Y277915D01*
X129951Y277942D01*
X129929Y278116D01*
X129912Y278289D01*
X129904Y278315D01*
X129901Y278341D01*
X129845Y278507D01*
X129794Y278674D01*
X129781Y278698D01*
X129773Y278723D01*
X129685Y278875D01*
X129602Y279028D01*
X129585Y279048D01*
X129572Y279072D01*
X129357Y279325D01*
X107583Y301099D01*
X107559Y301119D01*
X107538Y301143D01*
X107403Y301247D01*
X107271Y301354D01*
X107244Y301369D01*
X107219Y301388D01*
X106924Y301540D01*
X106809Y301587D01*
X104737Y303659D01*
X103615Y306367D01*
X103615Y309298D01*
X104737Y312005D01*
X106809Y314077D01*
X107337Y314296D01*
X109517Y315199D01*
X112733Y315199D01*
X115441Y314077D01*
X143564Y285954D01*
X144685Y283247D01*
X144685Y188837D01*
X144688Y188810D01*
X144686Y188783D01*
X144708Y188609D01*
X144725Y188436D01*
X144733Y188410D01*
X144737Y188384D01*
X144792Y188218D01*
X144844Y188051D01*
X144856Y188027D01*
X144865Y188002D01*
X144952Y187850D01*
X145035Y187697D01*
X145052Y187677D01*
X145066Y187653D01*
X145280Y187400D01*
X180256Y152424D01*
X180277Y152407D01*
X180295Y152387D01*
X180433Y152280D01*
X180568Y152169D01*
X180592Y152157D01*
X180613Y152140D01*
X180770Y152062D01*
X180924Y151980D01*
X180949Y151973D01*
X180973Y151961D01*
X181143Y151915D01*
X181310Y151866D01*
X181336Y151863D01*
X181362Y151856D01*
X181693Y151829D01*
X220068Y151829D01*
X220077Y151830D01*
X220086Y151829D01*
X220279Y151850D01*
X220469Y151869D01*
X220477Y151872D01*
X220486Y151873D01*
X220670Y151931D01*
X220854Y151987D01*
X220862Y151992D01*
X220870Y151994D01*
X221038Y152087D01*
X221208Y152179D01*
X221215Y152185D01*
X221223Y152189D01*
X221370Y152314D01*
X221517Y152437D01*
X221523Y152444D01*
X221530Y152450D01*
X221649Y152601D01*
X221770Y152751D01*
X221774Y152758D01*
X221779Y152765D01*
X221867Y152938D01*
X221955Y153108D01*
X221957Y153116D01*
X221962Y153124D01*
X222013Y153311D01*
X222066Y153495D01*
X222067Y153504D01*
X222070Y153512D01*
X222084Y153705D01*
X222099Y153896D01*
X222098Y153905D01*
X222099Y153914D01*
X222075Y154104D01*
X222052Y154296D01*
X222050Y154304D01*
X222049Y154313D01*
X221987Y154496D01*
X221928Y154679D01*
X221923Y154687D01*
X221920Y154695D01*
X221824Y154862D01*
X221730Y155029D01*
X221724Y155036D01*
X221719Y155044D01*
X221505Y155297D01*
X205665Y171136D01*
X205644Y171153D01*
X205627Y171174D01*
X205489Y171281D01*
X205354Y171391D01*
X205330Y171404D01*
X205309Y171420D01*
X205152Y171498D01*
X204998Y171580D01*
X204972Y171588D01*
X204948Y171600D01*
X204779Y171645D01*
X204612Y171695D01*
X204585Y171697D01*
X204560Y171704D01*
X204229Y171731D01*
X203183Y171731D01*
X200953Y172655D01*
X199246Y174362D01*
X198322Y176593D01*
X198322Y179007D01*
X199246Y181238D01*
X200009Y182001D01*
X200021Y182015D01*
X200034Y182027D01*
X200148Y182170D01*
X200264Y182313D01*
X200273Y182329D01*
X200284Y182343D01*
X200367Y182506D01*
X200453Y182668D01*
X200458Y182685D01*
X200466Y182701D01*
X200516Y182879D01*
X200568Y183054D01*
X200569Y183072D01*
X200574Y183089D01*
X200588Y183272D01*
X200604Y183455D01*
X200602Y183473D01*
X200604Y183491D01*
X200581Y183672D01*
X200561Y183856D01*
X200555Y183873D01*
X200553Y183890D01*
X200495Y184063D01*
X200439Y184239D01*
X200431Y184255D01*
X200425Y184272D01*
X200333Y184431D01*
X200244Y184592D01*
X200233Y184605D01*
X200224Y184621D01*
X200009Y184874D01*
X199246Y185637D01*
X198322Y187868D01*
X198322Y190282D01*
X199246Y192513D01*
X199612Y192879D01*
X199624Y192893D01*
X199637Y192905D01*
X199751Y193049D01*
X199868Y193191D01*
X199876Y193207D01*
X199887Y193221D01*
X199970Y193385D01*
X200056Y193547D01*
X200061Y193564D01*
X200069Y193580D01*
X200119Y193756D01*
X200171Y193932D01*
X200173Y193950D01*
X200177Y193967D01*
X200191Y194150D01*
X200207Y194333D01*
X200205Y194351D01*
X200207Y194369D01*
X200184Y194551D01*
X200164Y194734D01*
X200159Y194751D01*
X200156Y194768D01*
X200098Y194942D01*
X200042Y195118D01*
X200034Y195133D01*
X200028Y195150D01*
X199936Y195310D01*
X199848Y195470D01*
X199836Y195483D01*
X199827Y195499D01*
X199612Y195752D01*
X199246Y196119D01*
X198322Y198349D01*
X198322Y200763D01*
X199246Y202994D01*
X200758Y204506D01*
X200769Y204520D01*
X200783Y204531D01*
X200896Y204675D01*
X201013Y204817D01*
X201021Y204833D01*
X201032Y204847D01*
X201115Y205011D01*
X201201Y205173D01*
X201207Y205190D01*
X201215Y205206D01*
X201264Y205383D01*
X201316Y205559D01*
X201318Y205577D01*
X201323Y205594D01*
X201336Y205777D01*
X201353Y205960D01*
X201351Y205978D01*
X201352Y205996D01*
X201329Y206178D01*
X201309Y206360D01*
X201304Y206377D01*
X201302Y206395D01*
X201243Y206569D01*
X201188Y206744D01*
X201179Y206760D01*
X201173Y206777D01*
X201082Y206936D01*
X200993Y207096D01*
X200981Y207110D01*
X200972Y207126D01*
X200758Y207379D01*
X199643Y208494D01*
X198719Y210724D01*
X198719Y213138D01*
X199643Y215369D01*
X201350Y217076D01*
X203580Y218000D01*
X203907Y218000D01*
X203934Y218003D01*
X203961Y218001D01*
X204134Y218023D01*
X204308Y218040D01*
X204333Y218048D01*
X204360Y218051D01*
X204526Y218107D01*
X204693Y218158D01*
X204716Y218171D01*
X204742Y218179D01*
X204893Y218267D01*
X205047Y218350D01*
X205067Y218367D01*
X205091Y218380D01*
X205344Y218595D01*
X255522Y268774D01*
X257110Y269431D01*
X357963Y269431D01*
X357990Y269434D01*
X358017Y269432D01*
X358191Y269454D01*
X358364Y269471D01*
X358390Y269479D01*
X358416Y269482D01*
X358582Y269538D01*
X358749Y269589D01*
X358773Y269602D01*
X358798Y269611D01*
X358950Y269698D01*
X359103Y269781D01*
X359124Y269798D01*
X359147Y269811D01*
X359400Y270026D01*
X416275Y326901D01*
X416292Y326922D01*
X416312Y326939D01*
X416419Y327077D01*
X416530Y327212D01*
X416542Y327236D01*
X416559Y327257D01*
X416636Y327414D01*
X416718Y327568D01*
X416726Y327594D01*
X416738Y327618D01*
X416783Y327787D01*
X416833Y327954D01*
X416835Y327981D01*
X416842Y328007D01*
X416870Y328337D01*
X416870Y335122D01*
X418209Y336462D01*
X424994Y336462D01*
X425021Y336464D01*
X425047Y336462D01*
X425221Y336484D01*
X425395Y336502D01*
X425420Y336509D01*
X425447Y336513D01*
X425612Y336568D01*
X425780Y336620D01*
X425803Y336633D01*
X425828Y336641D01*
X425980Y336728D01*
X426134Y336812D01*
X426154Y336829D01*
X426177Y336842D01*
X426430Y337057D01*
X429585Y340211D01*
X430770Y340702D01*
X431172Y340869D01*
X450507Y340869D01*
X450534Y340871D01*
X450561Y340869D01*
X450735Y340891D01*
X450908Y340909D01*
X450934Y340916D01*
X450960Y340920D01*
X451126Y340975D01*
X451293Y341027D01*
X451317Y341040D01*
X451342Y341048D01*
X451493Y341135D01*
X451647Y341219D01*
X451667Y341236D01*
X451691Y341249D01*
X451944Y341464D01*
X452175Y341695D01*
X454405Y342619D01*
X456820Y342619D01*
X459050Y341695D01*
X460757Y339988D01*
X461681Y337757D01*
X461681Y335343D01*
X460757Y333112D01*
X459050Y331405D01*
X456820Y330481D01*
X454405Y330481D01*
X452175Y331405D01*
X451944Y331636D01*
X451923Y331653D01*
X451906Y331674D01*
X451768Y331781D01*
X451632Y331891D01*
X451609Y331904D01*
X451587Y331920D01*
X451430Y331998D01*
X451276Y332080D01*
X451251Y332088D01*
X451227Y332100D01*
X451057Y332145D01*
X450891Y332195D01*
X450864Y332197D01*
X450838Y332204D01*
X450507Y332231D01*
X434662Y332231D01*
X434635Y332229D01*
X434608Y332231D01*
X434434Y332209D01*
X434261Y332191D01*
X434235Y332184D01*
X434209Y332180D01*
X434043Y332125D01*
X433876Y332073D01*
X433852Y332060D01*
X433827Y332052D01*
X433675Y331965D01*
X433522Y331881D01*
X433501Y331864D01*
X433478Y331851D01*
X433225Y331636D01*
X433038Y331449D01*
X433021Y331428D01*
X433001Y331411D01*
X432894Y331273D01*
X432783Y331138D01*
X432770Y331114D01*
X432754Y331093D01*
X432676Y330935D01*
X432594Y330782D01*
X432587Y330756D01*
X432575Y330732D01*
X432529Y330563D01*
X432479Y330396D01*
X432477Y330369D01*
X432470Y330343D01*
X432443Y330013D01*
X432443Y323228D01*
X431326Y322111D01*
X431315Y322097D01*
X431302Y322086D01*
X431188Y321942D01*
X431071Y321800D01*
X431063Y321784D01*
X431052Y321770D01*
X430969Y321606D01*
X430883Y321444D01*
X430878Y321427D01*
X430870Y321411D01*
X430820Y321234D01*
X430768Y321058D01*
X430766Y321040D01*
X430762Y321023D01*
X430748Y320839D01*
X430732Y320657D01*
X430734Y320639D01*
X430732Y320622D01*
X430755Y320440D01*
X430775Y320257D01*
X430780Y320240D01*
X430783Y320222D01*
X430841Y320048D01*
X430897Y319873D01*
X430905Y319857D01*
X430911Y319841D01*
X431002Y319682D01*
X431091Y319521D01*
X431103Y319507D01*
X431112Y319492D01*
X431326Y319239D01*
X432497Y318068D01*
X432547Y317915D01*
X432601Y317739D01*
X432610Y317724D01*
X432615Y317707D01*
X432705Y317547D01*
X432793Y317385D01*
X432804Y317372D01*
X432813Y317356D01*
X432933Y317217D01*
X433051Y317076D01*
X433064Y317065D01*
X433076Y317051D01*
X433221Y316939D01*
X433364Y316824D01*
X433380Y316816D01*
X433394Y316805D01*
X433559Y316723D01*
X433722Y316638D01*
X433739Y316633D01*
X433755Y316625D01*
X433933Y316578D01*
X434109Y316527D01*
X434126Y316525D01*
X434144Y316521D01*
X434474Y316494D01*
X435032Y316494D01*
X435050Y316496D01*
X435068Y316494D01*
X435250Y316515D01*
X435433Y316534D01*
X435450Y316539D01*
X435467Y316541D01*
X435642Y316598D01*
X435818Y316652D01*
X435833Y316660D01*
X435850Y316666D01*
X436010Y316756D01*
X436172Y316844D01*
X436185Y316855D01*
X436201Y316864D01*
X436340Y316984D01*
X436481Y317101D01*
X436492Y317115D01*
X436506Y317127D01*
X436618Y317272D01*
X436733Y317415D01*
X436741Y317431D01*
X436752Y317445D01*
X436834Y317610D01*
X436919Y317772D01*
X436924Y317789D01*
X436932Y317805D01*
X436979Y317984D01*
X437030Y318159D01*
X437032Y318177D01*
X437036Y318194D01*
X437063Y318525D01*
X437063Y321653D01*
X438403Y322993D01*
X448297Y322993D01*
X449414Y321876D01*
X449427Y321865D01*
X449439Y321852D01*
X449583Y321738D01*
X449725Y321621D01*
X449741Y321613D01*
X449755Y321602D01*
X449919Y321519D01*
X450081Y321433D01*
X450098Y321428D01*
X450114Y321420D01*
X450291Y321370D01*
X450467Y321318D01*
X450485Y321316D01*
X450502Y321312D01*
X450685Y321298D01*
X450868Y321282D01*
X450886Y321284D01*
X450903Y321282D01*
X451085Y321305D01*
X451268Y321325D01*
X451285Y321330D01*
X451303Y321333D01*
X451476Y321391D01*
X451652Y321447D01*
X451668Y321455D01*
X451684Y321461D01*
X451843Y321552D01*
X452004Y321641D01*
X452018Y321653D01*
X452033Y321662D01*
X452286Y321876D01*
X453403Y322993D01*
X463297Y322993D01*
X464637Y321653D01*
X464637Y318138D01*
X464639Y318121D01*
X464637Y318103D01*
X464658Y317921D01*
X464677Y317738D01*
X464682Y317721D01*
X464684Y317703D01*
X464741Y317527D01*
X464795Y317353D01*
X464803Y317337D01*
X464809Y317320D01*
X464899Y317160D01*
X464987Y316999D01*
X464998Y316985D01*
X465007Y316970D01*
X465128Y316830D01*
X465244Y316690D01*
X465258Y316678D01*
X465270Y316665D01*
X465415Y316552D01*
X465558Y316437D01*
X465574Y316429D01*
X465588Y316418D01*
X465753Y316336D01*
X465915Y316252D01*
X465932Y316247D01*
X465948Y316239D01*
X466127Y316191D01*
X466302Y316140D01*
X466320Y316139D01*
X466337Y316134D01*
X466668Y316107D01*
X493551Y316107D01*
X493565Y316109D01*
X493578Y316107D01*
X493764Y316128D01*
X493952Y316147D01*
X493965Y316151D01*
X493978Y316153D01*
X494156Y316210D01*
X494337Y316265D01*
X494349Y316272D01*
X494362Y316276D01*
X494525Y316367D01*
X494691Y316457D01*
X494701Y316466D01*
X494713Y316472D01*
X494856Y316595D01*
X495000Y316715D01*
X495009Y316725D01*
X495019Y316734D01*
X495135Y316882D01*
X495253Y317028D01*
X495259Y317040D01*
X495267Y317051D01*
X495352Y317220D01*
X495438Y317386D01*
X495442Y317399D01*
X495448Y317411D01*
X495498Y317593D01*
X495550Y317773D01*
X495551Y317786D01*
X495554Y317799D01*
X495567Y317987D01*
X495582Y318174D01*
X495581Y318187D01*
X495582Y318201D01*
X495557Y318388D01*
X495535Y318574D01*
X495531Y318586D01*
X495530Y318600D01*
X495428Y318916D01*
X494216Y321841D01*
X494216Y325782D01*
X495725Y329423D01*
X498511Y332210D01*
X502152Y333718D01*
X506094Y333718D01*
X509735Y332210D01*
X512522Y329423D01*
X514030Y325782D01*
X514030Y321841D01*
X512818Y318916D01*
X512814Y318903D01*
X512808Y318891D01*
X512756Y318711D01*
X512702Y318530D01*
X512700Y318517D01*
X512697Y318504D01*
X512681Y318316D01*
X512664Y318130D01*
X512665Y318116D01*
X512664Y318103D01*
X512686Y317916D01*
X512705Y317729D01*
X512709Y317716D01*
X512711Y317703D01*
X512769Y317524D01*
X512825Y317345D01*
X512831Y317333D01*
X512836Y317320D01*
X512928Y317156D01*
X513018Y316992D01*
X513027Y316981D01*
X513034Y316970D01*
X513156Y316828D01*
X513277Y316683D01*
X513288Y316675D01*
X513297Y316665D01*
X513445Y316550D01*
X513592Y316432D01*
X513604Y316426D01*
X513615Y316418D01*
X513783Y316334D01*
X513950Y316248D01*
X513963Y316245D01*
X513975Y316239D01*
X514158Y316190D01*
X514338Y316139D01*
X514351Y316138D01*
X514364Y316134D01*
X514695Y316107D01*
X516232Y316107D01*
X516258Y316110D01*
X516285Y316108D01*
X516459Y316130D01*
X516632Y316147D01*
X516658Y316155D01*
X516684Y316158D01*
X516850Y316214D01*
X517017Y316265D01*
X517041Y316278D01*
X517066Y316286D01*
X517218Y316374D01*
X517371Y316457D01*
X517392Y316474D01*
X517415Y316487D01*
X517668Y316702D01*
X520553Y319587D01*
X522490Y320390D01*
X524194Y321095D01*
X528135Y321095D01*
X531776Y319587D01*
X534563Y316800D01*
X536071Y313159D01*
X536071Y309218D01*
X534563Y305577D01*
X531776Y302790D01*
X528135Y301282D01*
X524194Y301282D01*
X520553Y302790D01*
X517766Y305577D01*
X517501Y306216D01*
X517491Y306235D01*
X517484Y306257D01*
X517395Y306413D01*
X517311Y306571D01*
X517297Y306588D01*
X517286Y306607D01*
X517169Y306743D01*
X517055Y306881D01*
X517037Y306895D01*
X517023Y306912D01*
X516882Y307021D01*
X516742Y307135D01*
X516722Y307145D01*
X516705Y307159D01*
X516544Y307238D01*
X516385Y307322D01*
X516364Y307328D01*
X516344Y307338D01*
X516171Y307385D01*
X515999Y307435D01*
X515977Y307437D01*
X515955Y307443D01*
X515624Y307470D01*
X482508Y307470D01*
X482494Y307468D01*
X482481Y307470D01*
X482295Y307448D01*
X482107Y307430D01*
X482094Y307426D01*
X482081Y307424D01*
X481902Y307367D01*
X481722Y307312D01*
X481710Y307305D01*
X481698Y307301D01*
X481534Y307210D01*
X481368Y307120D01*
X481358Y307111D01*
X481346Y307105D01*
X481204Y306983D01*
X481059Y306862D01*
X481051Y306852D01*
X481040Y306843D01*
X480924Y306694D01*
X480807Y306548D01*
X480801Y306537D01*
X480792Y306526D01*
X480707Y306357D01*
X480621Y306191D01*
X480617Y306178D01*
X480611Y306166D01*
X480561Y305983D01*
X480510Y305804D01*
X480509Y305791D01*
X480505Y305778D01*
X480492Y305591D01*
X480477Y305403D01*
X480478Y305390D01*
X480478Y305376D01*
X480502Y305191D01*
X480524Y305003D01*
X480528Y304990D01*
X480530Y304977D01*
X480631Y304661D01*
X480731Y304420D01*
X480731Y303374D01*
X480734Y303348D01*
X480732Y303321D01*
X480754Y303147D01*
X480771Y302974D01*
X480779Y302948D01*
X480782Y302922D01*
X480838Y302756D01*
X480889Y302589D01*
X480902Y302565D01*
X480911Y302540D01*
X480998Y302388D01*
X481081Y302235D01*
X481098Y302214D01*
X481111Y302191D01*
X481326Y301938D01*
X484029Y299235D01*
X484029Y270726D01*
X484032Y270699D01*
X484030Y270672D01*
X484052Y270498D01*
X484069Y270325D01*
X484077Y270299D01*
X484081Y270273D01*
X484136Y270107D01*
X484188Y269940D01*
X484200Y269916D01*
X484209Y269891D01*
X484296Y269740D01*
X484379Y269586D01*
X484396Y269566D01*
X484410Y269542D01*
X484624Y269289D01*
X485364Y268550D01*
X486287Y266320D01*
X486287Y263905D01*
X485364Y261675D01*
X483592Y259903D01*
X483548Y259880D01*
X483544Y259877D01*
X483540Y259874D01*
X483392Y259751D01*
X483237Y259623D01*
X483234Y259620D01*
X483231Y259617D01*
X483107Y259463D01*
X482984Y259311D01*
X482982Y259307D01*
X482979Y259303D01*
X482889Y259129D01*
X482797Y258954D01*
X482795Y258950D01*
X482793Y258946D01*
X482739Y258757D01*
X482683Y258568D01*
X482683Y258563D01*
X482682Y258559D01*
X482666Y258363D01*
X482649Y258167D01*
X482649Y258162D01*
X482649Y258157D01*
X482672Y257963D01*
X482694Y257767D01*
X482695Y257762D01*
X482696Y257758D01*
X482757Y257568D01*
X482817Y257383D01*
X482819Y257379D01*
X482821Y257375D01*
X482919Y257200D01*
X483013Y257032D01*
X483016Y257028D01*
X483018Y257024D01*
X483149Y256874D01*
X483275Y256726D01*
X483279Y256723D01*
X483282Y256719D01*
X483436Y256600D01*
X483592Y256478D01*
X483596Y256475D01*
X483600Y256473D01*
X483776Y256385D01*
X483952Y256297D01*
X483956Y256296D01*
X483960Y256293D01*
X484154Y256241D01*
X484340Y256190D01*
X484345Y256190D01*
X484349Y256189D01*
X484680Y256162D01*
X489922Y256162D01*
X491262Y254822D01*
X491262Y244202D01*
X491267Y244145D01*
X491265Y244087D01*
X491287Y243945D01*
X491302Y243801D01*
X491318Y243746D01*
X491327Y243690D01*
X491377Y243554D01*
X491420Y243416D01*
X491447Y243366D01*
X491467Y243312D01*
X491543Y243189D01*
X491612Y243062D01*
X491648Y243018D01*
X491678Y242969D01*
X491819Y242813D01*
X491869Y242753D01*
X491884Y242741D01*
X491900Y242723D01*
X497078Y237846D01*
X497225Y237733D01*
X497368Y237619D01*
X497384Y237611D01*
X497397Y237601D01*
X497563Y237519D01*
X497727Y237435D01*
X497743Y237430D01*
X497758Y237423D01*
X497938Y237375D01*
X498114Y237325D01*
X498131Y237324D01*
X498148Y237319D01*
X498333Y237308D01*
X498515Y237294D01*
X498532Y237296D01*
X498550Y237295D01*
X498731Y237320D01*
X498915Y237343D01*
X498931Y237348D01*
X498948Y237351D01*
X499121Y237411D01*
X499297Y237469D01*
X499312Y237478D01*
X499328Y237483D01*
X499487Y237577D01*
X499647Y237669D01*
X499660Y237680D01*
X499675Y237689D01*
X499812Y237812D01*
X499951Y237933D01*
X499961Y237947D01*
X499974Y237958D01*
X500084Y238107D01*
X500196Y238252D01*
X500205Y238269D01*
X500214Y238282D01*
X500245Y238348D01*
X500348Y238548D01*
X501268Y240769D01*
X502975Y242476D01*
X505205Y243400D01*
X507620Y243400D01*
X509018Y242821D01*
X509048Y242812D01*
X509076Y242798D01*
X509241Y242753D01*
X509404Y242704D01*
X509435Y242701D01*
X509465Y242693D01*
X509796Y242666D01*
X543511Y242666D01*
X543542Y242669D01*
X543573Y242667D01*
X543742Y242689D01*
X543911Y242706D01*
X543941Y242715D01*
X543972Y242719D01*
X544288Y242821D01*
X545687Y243400D01*
X548101Y243400D01*
X550331Y242476D01*
X552221Y240587D01*
X552228Y240581D01*
X552233Y240574D01*
X552383Y240454D01*
X552532Y240332D01*
X552540Y240327D01*
X552547Y240322D01*
X552717Y240233D01*
X552888Y240143D01*
X552897Y240140D01*
X552904Y240136D01*
X553089Y240083D01*
X553274Y240028D01*
X553283Y240027D01*
X553291Y240025D01*
X553482Y240009D01*
X553675Y239992D01*
X553684Y239993D01*
X553693Y239992D01*
X553882Y240014D01*
X554075Y240035D01*
X554084Y240038D01*
X554092Y240039D01*
X554274Y240098D01*
X554459Y240157D01*
X554467Y240161D01*
X554475Y240164D01*
X554644Y240259D01*
X554811Y240352D01*
X554818Y240357D01*
X554826Y240362D01*
X554972Y240488D01*
X555118Y240612D01*
X555124Y240619D01*
X555131Y240625D01*
X555248Y240776D01*
X555368Y240928D01*
X555372Y240936D01*
X555377Y240943D01*
X555463Y241115D01*
X555550Y241287D01*
X555553Y241296D01*
X555557Y241304D01*
X555607Y241490D01*
X555658Y241675D01*
X555659Y241684D01*
X555661Y241692D01*
X555688Y242023D01*
X555688Y254822D01*
X557028Y256162D01*
X580922Y256162D01*
X582262Y254822D01*
X582262Y224928D01*
X580922Y223588D01*
X579294Y223588D01*
X579276Y223586D01*
X579258Y223588D01*
X579076Y223567D01*
X578893Y223548D01*
X578876Y223543D01*
X578858Y223541D01*
X578684Y223484D01*
X578508Y223430D01*
X578493Y223422D01*
X578476Y223416D01*
X578315Y223326D01*
X578154Y223238D01*
X578141Y223227D01*
X578125Y223218D01*
X577985Y223098D01*
X577845Y222981D01*
X577834Y222967D01*
X577820Y222955D01*
X577708Y222810D01*
X577593Y222667D01*
X577584Y222651D01*
X577573Y222637D01*
X577491Y222472D01*
X577407Y222310D01*
X577402Y222293D01*
X577394Y222277D01*
X577346Y222098D01*
X577296Y221923D01*
X577294Y221905D01*
X577290Y221888D01*
X577262Y221557D01*
X577262Y135828D01*
X576605Y134241D01*
X575105Y132741D01*
X575104Y132741D01*
X553709Y111346D01*
X553709Y111345D01*
X552209Y109845D01*
X550622Y109188D01*
X546102Y109188D01*
X546093Y109187D01*
X546084Y109187D01*
X545894Y109167D01*
X545702Y109148D01*
X545693Y109145D01*
X545684Y109144D01*
X545501Y109086D01*
X545317Y109029D01*
X545309Y109025D01*
X545300Y109022D01*
X545132Y108929D01*
X544963Y108838D01*
X544956Y108832D01*
X544948Y108828D01*
X544801Y108703D01*
X544653Y108580D01*
X544648Y108573D01*
X544641Y108567D01*
X544521Y108416D01*
X544401Y108266D01*
X544397Y108258D01*
X544391Y108251D01*
X544303Y108078D01*
X544216Y107909D01*
X544213Y107900D01*
X544209Y107892D01*
X544157Y107707D01*
X544104Y107522D01*
X544103Y107513D01*
X544101Y107504D01*
X544087Y107313D01*
X544071Y107121D01*
X544072Y107112D01*
X544072Y107103D01*
X544096Y106910D01*
X544118Y106721D01*
X544121Y106712D01*
X544122Y106703D01*
X544183Y106522D01*
X544243Y106338D01*
X544248Y106330D01*
X544250Y106322D01*
X544346Y106156D01*
X544441Y105987D01*
X544447Y105981D01*
X544451Y105973D01*
X544666Y105720D01*
X544723Y105662D01*
X546232Y102021D01*
X546232Y98080D01*
X544723Y94439D01*
X541925Y91641D01*
X541838Y91535D01*
X541745Y91434D01*
X541711Y91379D01*
X541670Y91330D01*
X541606Y91208D01*
X541534Y91091D01*
X541512Y91031D01*
X541482Y90974D01*
X541442Y90842D01*
X541395Y90713D01*
X541385Y90650D01*
X541367Y90588D01*
X541354Y90451D01*
X541333Y90315D01*
X541336Y90251D01*
X541330Y90187D01*
X541345Y90050D01*
X541351Y89913D01*
X541367Y89851D01*
X541374Y89787D01*
X541415Y89656D01*
X541448Y89522D01*
X541476Y89464D01*
X541495Y89403D01*
X541562Y89283D01*
X541621Y89159D01*
X541659Y89107D01*
X541690Y89051D01*
X541779Y88946D01*
X541861Y88836D01*
X541909Y88793D01*
X541951Y88744D01*
X542058Y88659D01*
X542161Y88567D01*
X542216Y88534D01*
X542267Y88494D01*
X542389Y88432D01*
X542507Y88362D01*
X542568Y88341D01*
X542626Y88312D01*
X542758Y88275D01*
X542888Y88230D01*
X542951Y88221D01*
X543013Y88204D01*
X543151Y88194D01*
X543286Y88175D01*
X543351Y88179D01*
X543415Y88174D01*
X543551Y88191D01*
X543688Y88200D01*
X543750Y88217D01*
X543814Y88225D01*
X543945Y88268D01*
X544077Y88304D01*
X544144Y88335D01*
X544196Y88353D01*
X544265Y88393D01*
X544377Y88446D01*
X580996Y109587D01*
X582274Y106887D01*
X582291Y106864D01*
X582301Y106837D01*
X582350Y106785D01*
X582393Y106727D01*
X582418Y106713D01*
X582437Y106692D01*
X582503Y106663D01*
X582565Y106627D01*
X582593Y106624D01*
X582619Y106612D01*
X582691Y106611D01*
X582762Y106602D01*
X582789Y106610D01*
X582818Y106610D01*
X582913Y106645D01*
X582953Y106656D01*
X582962Y106663D01*
X582974Y106667D01*
X599474Y116167D01*
X599533Y116219D01*
X599595Y116265D01*
X599606Y116284D01*
X599623Y116299D01*
X599657Y116369D01*
X599697Y116436D01*
X599701Y116461D01*
X599709Y116478D01*
X599711Y116523D01*
X599724Y116600D01*
X599724Y135600D01*
X599719Y135628D01*
X599721Y135656D01*
X599699Y135724D01*
X599685Y135795D01*
X599669Y135818D01*
X599660Y135845D01*
X599613Y135900D01*
X599572Y135959D01*
X599548Y135974D01*
X599530Y135996D01*
X599465Y136027D01*
X599405Y136066D01*
X599377Y136071D01*
X599351Y136083D01*
X599250Y136092D01*
X599208Y136099D01*
X599198Y136097D01*
X599185Y136098D01*
X596184Y135859D01*
X596184Y270541D01*
X599185Y270302D01*
X599214Y270306D01*
X599242Y270301D01*
X599311Y270318D01*
X599383Y270326D01*
X599407Y270341D01*
X599435Y270347D01*
X599493Y270390D01*
X599555Y270426D01*
X599572Y270448D01*
X599595Y270465D01*
X599632Y270527D01*
X599675Y270584D01*
X599682Y270612D01*
X599697Y270636D01*
X599713Y270736D01*
X599724Y270777D01*
X599722Y270787D01*
X599724Y270800D01*
X599724Y289800D01*
X599709Y289876D01*
X599700Y289954D01*
X599689Y289973D01*
X599685Y289995D01*
X599641Y290059D01*
X599602Y290127D01*
X599583Y290143D01*
X599572Y290159D01*
X599534Y290183D01*
X599474Y290233D01*
X582974Y299733D01*
X582947Y299742D01*
X582923Y299758D01*
X582853Y299773D01*
X582785Y299796D01*
X582757Y299793D01*
X582729Y299799D01*
X582659Y299786D01*
X582587Y299780D01*
X582562Y299767D01*
X582534Y299761D01*
X582474Y299721D01*
X582411Y299688D01*
X582393Y299666D01*
X582369Y299650D01*
X582311Y299567D01*
X582284Y299535D01*
X582281Y299524D01*
X582274Y299514D01*
X580996Y296813D01*
X464413Y364120D01*
X466136Y366616D01*
X466147Y366643D01*
X466166Y366665D01*
X466186Y366734D01*
X466214Y366799D01*
X466214Y366828D01*
X466222Y366856D01*
X466214Y366927D01*
X466215Y366998D01*
X466203Y367025D01*
X466200Y367054D01*
X466165Y367116D01*
X466137Y367181D01*
X466117Y367202D01*
X466102Y367227D01*
X466025Y367290D01*
X465995Y367320D01*
X465985Y367324D01*
X465974Y367333D01*
X449474Y376833D01*
X449401Y376857D01*
X449331Y376888D01*
X449307Y376888D01*
X449285Y376896D01*
X449209Y376890D01*
X449132Y376891D01*
X449108Y376881D01*
X449087Y376880D01*
X449048Y376859D01*
X448976Y376833D01*
X432476Y367333D01*
X432454Y367314D01*
X432428Y367301D01*
X432380Y367248D01*
X432327Y367201D01*
X432314Y367175D01*
X432295Y367154D01*
X432272Y367086D01*
X432241Y367022D01*
X432240Y366993D01*
X432230Y366966D01*
X432235Y366894D01*
X432232Y366823D01*
X432242Y366796D01*
X432244Y366767D01*
X432286Y366677D01*
X432301Y366637D01*
X432308Y366629D01*
X432314Y366616D01*
X434037Y364120D01*
X317449Y296810D01*
X316177Y299513D01*
X316159Y299536D01*
X316149Y299563D01*
X316100Y299615D01*
X316058Y299672D01*
X316033Y299687D01*
X316013Y299708D01*
X315948Y299737D01*
X315886Y299772D01*
X315857Y299776D01*
X315831Y299788D01*
X315760Y299789D01*
X315689Y299798D01*
X315661Y299790D01*
X315632Y299791D01*
X315539Y299756D01*
X315498Y299744D01*
X315489Y299737D01*
X315476Y299733D01*
X299225Y290376D01*
X282974Y299733D01*
X282947Y299742D01*
X282923Y299759D01*
X282853Y299773D01*
X282785Y299796D01*
X282756Y299793D01*
X282728Y299799D01*
X282658Y299785D01*
X282587Y299780D01*
X282561Y299766D01*
X282533Y299761D01*
X282474Y299721D01*
X282411Y299688D01*
X282392Y299666D01*
X282368Y299649D01*
X282311Y299567D01*
X282284Y299535D01*
X282281Y299524D01*
X282273Y299513D01*
X281001Y296810D01*
X249956Y314733D01*
X249825Y314792D01*
X249698Y314859D01*
X249642Y314875D01*
X249589Y314899D01*
X249450Y314931D01*
X249311Y314971D01*
X249254Y314976D01*
X249197Y314989D01*
X249053Y314993D01*
X248910Y315005D01*
X248852Y314999D01*
X248795Y315000D01*
X248653Y314976D01*
X248510Y314959D01*
X248455Y314941D01*
X248398Y314932D01*
X248264Y314880D01*
X248127Y314835D01*
X248076Y314807D01*
X248022Y314786D01*
X247901Y314709D01*
X247776Y314638D01*
X247732Y314601D01*
X247683Y314569D01*
X247579Y314469D01*
X247471Y314376D01*
X247429Y314325D01*
X247393Y314290D01*
X247346Y314222D01*
X247262Y314118D01*
X246952Y313662D01*
X246903Y313644D01*
X246797Y313577D01*
X246686Y313519D01*
X246627Y313471D01*
X246562Y313430D01*
X246441Y313320D01*
X246374Y313265D01*
X246351Y313237D01*
X246317Y313206D01*
X245728Y312570D01*
X245681Y312509D01*
X245628Y312454D01*
X245560Y312349D01*
X245484Y312249D01*
X245451Y312180D01*
X245410Y312116D01*
X245364Y312000D01*
X245315Y311899D01*
X244627Y311350D01*
X244578Y311302D01*
X244404Y311143D01*
X243801Y310492D01*
X243750Y310481D01*
X243635Y310431D01*
X243517Y310390D01*
X243451Y310351D01*
X243381Y310320D01*
X243245Y310229D01*
X243170Y310185D01*
X243143Y310161D01*
X243105Y310135D01*
X242428Y309595D01*
X242373Y309541D01*
X242312Y309495D01*
X242229Y309401D01*
X242139Y309314D01*
X242096Y309251D01*
X242046Y309193D01*
X241983Y309084D01*
X241920Y308993D01*
X241157Y308552D01*
X241103Y308513D01*
X240906Y308381D01*
X240213Y307827D01*
X240160Y307824D01*
X240039Y307792D01*
X239916Y307768D01*
X239845Y307740D01*
X239772Y307720D01*
X239624Y307650D01*
X239543Y307617D01*
X239513Y307598D01*
X239472Y307578D01*
X238721Y307144D01*
X238659Y307100D01*
X238592Y307063D01*
X238496Y306982D01*
X238394Y306909D01*
X238342Y306853D01*
X238283Y306804D01*
X238205Y306706D01*
X238129Y306625D01*
X237309Y306302D01*
X237249Y306272D01*
X237036Y306170D01*
X236267Y305727D01*
X236215Y305731D01*
X236091Y305717D01*
X235966Y305713D01*
X235891Y305695D01*
X235815Y305686D01*
X235659Y305639D01*
X235574Y305619D01*
X235542Y305604D01*
X235497Y305591D01*
X234691Y305274D01*
X234623Y305239D01*
X234551Y305213D01*
X234444Y305147D01*
X234332Y305090D01*
X234272Y305042D01*
X234207Y305002D01*
X234115Y304917D01*
X234028Y304848D01*
X233169Y304652D01*
X233105Y304630D01*
X232879Y304562D01*
X232053Y304238D01*
X232002Y304250D01*
X231877Y304255D01*
X231753Y304269D01*
X231676Y304262D01*
X231600Y304265D01*
X231439Y304242D01*
X231351Y304234D01*
X231317Y304224D01*
X231272Y304218D01*
X230426Y304025D01*
X230354Y304000D01*
X230279Y303985D01*
X230164Y303936D01*
X230045Y303897D01*
X229978Y303858D01*
X229908Y303828D01*
X229805Y303758D01*
X229708Y303702D01*
X228829Y303636D01*
X228763Y303625D01*
X228529Y303591D01*
X227664Y303393D01*
X227615Y303413D01*
X227492Y303436D01*
X227372Y303469D01*
X227295Y303474D01*
X227220Y303488D01*
X227057Y303489D01*
X226970Y303495D01*
X226934Y303490D01*
X226888Y303490D01*
X226024Y303425D01*
X225948Y303412D01*
X225872Y303408D01*
X225751Y303377D01*
X225627Y303355D01*
X225556Y303327D01*
X225482Y303308D01*
X225369Y303254D01*
X225265Y303214D01*
X224386Y303279D01*
X224319Y303277D01*
X224083Y303279D01*
X223198Y303212D01*
X223153Y303239D01*
X223035Y303281D01*
X222920Y303331D01*
X222845Y303347D01*
X222773Y303372D01*
X222612Y303398D01*
X222527Y303416D01*
X222491Y303417D01*
X222445Y303424D01*
X221581Y303488D01*
X221504Y303487D01*
X221428Y303494D01*
X221303Y303482D01*
X221178Y303478D01*
X221104Y303462D01*
X221028Y303454D01*
X220908Y303417D01*
X220799Y303392D01*
X219940Y303588D01*
X219873Y303596D01*
X219640Y303633D01*
X218755Y303699D01*
X218714Y303732D01*
X218604Y303791D01*
X218498Y303858D01*
X218426Y303885D01*
X218359Y303921D01*
X218203Y303970D01*
X218121Y304001D01*
X218086Y304007D01*
X218042Y304021D01*
X217197Y304213D01*
X217121Y304223D01*
X217047Y304242D01*
X216922Y304248D01*
X216798Y304263D01*
X216721Y304258D01*
X216645Y304262D01*
X216521Y304243D01*
X216410Y304235D01*
X215589Y304556D01*
X215524Y304575D01*
X215299Y304646D01*
X214926Y304731D01*
X214883Y304736D01*
X214841Y304748D01*
X214683Y304761D01*
X214527Y304781D01*
X214483Y304778D01*
X214439Y304781D01*
X214283Y304763D01*
X214125Y304751D01*
X214083Y304739D01*
X214040Y304734D01*
X213889Y304685D01*
X213738Y304643D01*
X213699Y304623D01*
X213657Y304610D01*
X213519Y304532D01*
X213379Y304460D01*
X213344Y304433D01*
X213306Y304412D01*
X213187Y304308D01*
X213063Y304211D01*
X213035Y304177D01*
X213001Y304148D01*
X212905Y304024D01*
X212803Y303903D01*
X212782Y303865D01*
X212755Y303830D01*
X212685Y303689D01*
X212608Y303551D01*
X212595Y303509D01*
X212575Y303470D01*
X212534Y303317D01*
X212487Y303167D01*
X212482Y303123D01*
X212471Y303081D01*
X212449Y302816D01*
X212444Y302767D01*
X212444Y302759D01*
X212444Y302750D01*
X212444Y300418D01*
X211520Y298187D01*
X209813Y296480D01*
X207582Y295556D01*
X205168Y295556D01*
X203769Y296136D01*
X203739Y296145D01*
X203711Y296159D01*
X203547Y296203D01*
X203384Y296252D01*
X203353Y296255D01*
X203323Y296263D01*
X202992Y296290D01*
X187851Y296290D01*
X185891Y297102D01*
X181183Y301811D01*
X181158Y301830D01*
X181138Y301854D01*
X181003Y301958D01*
X180871Y302066D01*
X180843Y302080D01*
X180819Y302099D01*
X180524Y302251D01*
X179125Y302830D01*
X177418Y304537D01*
X176494Y306768D01*
X176494Y309182D01*
X177418Y311413D01*
X179125Y313120D01*
X181355Y314044D01*
X183770Y314044D01*
X186000Y313120D01*
X186520Y312600D01*
X186527Y312594D01*
X186533Y312587D01*
X186682Y312467D01*
X186831Y312345D01*
X186839Y312341D01*
X186846Y312335D01*
X187015Y312247D01*
X187187Y312156D01*
X187196Y312154D01*
X187204Y312150D01*
X187387Y312097D01*
X187573Y312042D01*
X187582Y312041D01*
X187591Y312038D01*
X187781Y312023D01*
X187974Y312005D01*
X187983Y312006D01*
X187992Y312005D01*
X188182Y312028D01*
X188374Y312049D01*
X188383Y312051D01*
X188392Y312052D01*
X188575Y312112D01*
X188758Y312170D01*
X188766Y312174D01*
X188774Y312177D01*
X188943Y312272D01*
X189110Y312365D01*
X189117Y312371D01*
X189125Y312375D01*
X189269Y312499D01*
X189417Y312625D01*
X189423Y312632D01*
X189430Y312638D01*
X189548Y312790D01*
X189667Y312941D01*
X189671Y312949D01*
X189677Y312956D01*
X189763Y313130D01*
X189849Y313300D01*
X189852Y313309D01*
X189856Y313317D01*
X189906Y313505D01*
X189957Y313688D01*
X189958Y313697D01*
X189960Y313706D01*
X189988Y314036D01*
X189988Y314738D01*
X190911Y316969D01*
X192619Y318676D01*
X195015Y319669D01*
X195037Y319673D01*
X195159Y319720D01*
X195285Y319758D01*
X195347Y319792D01*
X195413Y319817D01*
X195524Y319887D01*
X195639Y319950D01*
X195693Y319995D01*
X195753Y320033D01*
X195847Y320124D01*
X195948Y320208D01*
X195992Y320263D01*
X196043Y320312D01*
X196118Y320419D01*
X196200Y320521D01*
X196233Y320584D01*
X196273Y320642D01*
X196325Y320762D01*
X196386Y320879D01*
X196405Y320947D01*
X196433Y321012D01*
X196461Y321140D01*
X196497Y321266D01*
X196503Y321336D01*
X196518Y321405D01*
X196519Y321536D01*
X196530Y321667D01*
X196522Y321737D01*
X196523Y321808D01*
X196498Y321937D01*
X196483Y322067D01*
X196461Y322134D01*
X196448Y322203D01*
X196385Y322366D01*
X196358Y322449D01*
X196343Y322476D01*
X196329Y322513D01*
X196028Y323137D01*
X196037Y323188D01*
X196032Y323314D01*
X196037Y323439D01*
X196025Y323514D01*
X196022Y323591D01*
X195987Y323750D01*
X195973Y323836D01*
X195960Y323870D01*
X195950Y323915D01*
X195694Y324743D01*
X195665Y324814D01*
X195644Y324887D01*
X195587Y324999D01*
X195538Y325114D01*
X195495Y325177D01*
X195460Y325246D01*
X195382Y325343D01*
X195319Y325436D01*
X195188Y326307D01*
X195171Y326372D01*
X195120Y326603D01*
X194858Y327451D01*
X194874Y327501D01*
X194888Y327625D01*
X194912Y327748D01*
X194911Y327824D01*
X194920Y327901D01*
X194909Y328063D01*
X194908Y328150D01*
X194900Y328186D01*
X194897Y328232D01*
X194768Y329089D01*
X194749Y329163D01*
X194739Y329239D01*
X194699Y329357D01*
X194668Y329479D01*
X194635Y329548D01*
X194611Y329620D01*
X194548Y329729D01*
X194500Y329829D01*
X194500Y330711D01*
X194493Y330777D01*
X194477Y331013D01*
X194344Y331891D01*
X194367Y331937D01*
X194400Y332058D01*
X194441Y332177D01*
X194452Y332252D01*
X194472Y332326D01*
X194485Y332489D01*
X194497Y332575D01*
X194495Y332611D01*
X194499Y332657D01*
X194499Y333524D01*
X194491Y333600D01*
X194493Y333677D01*
X194471Y333800D01*
X194459Y333924D01*
X194436Y333998D01*
X194423Y334073D01*
X194377Y334190D01*
X194344Y334296D01*
X194475Y335168D01*
X194479Y335235D01*
X194498Y335470D01*
X194498Y336358D01*
X194528Y336400D01*
X194578Y336515D01*
X194637Y336626D01*
X194658Y336699D01*
X194689Y336769D01*
X194726Y336928D01*
X194751Y337012D01*
X194754Y337048D01*
X194765Y337092D01*
X194894Y337950D01*
X194898Y338026D01*
X194911Y338101D01*
X194908Y338227D01*
X194914Y338352D01*
X194903Y338427D01*
X194901Y338504D01*
X194873Y338626D01*
X194856Y338736D01*
X195116Y339578D01*
X195129Y339644D01*
X195183Y339874D01*
X195315Y340752D01*
X195351Y340790D01*
X195418Y340896D01*
X195493Y340997D01*
X195525Y341066D01*
X195566Y341131D01*
X195626Y341282D01*
X195663Y341361D01*
X195672Y341396D01*
X195689Y341439D01*
X195944Y342267D01*
X195959Y342342D01*
X195984Y342415D01*
X195999Y342539D01*
X196024Y342662D01*
X196024Y342738D01*
X196034Y342814D01*
X196024Y342939D01*
X196025Y343051D01*
X196269Y343559D01*
X196318Y343694D01*
X196375Y343825D01*
X196387Y343882D01*
X196407Y343938D01*
X196428Y344079D01*
X196458Y344219D01*
X196459Y344278D01*
X196467Y344336D01*
X196461Y344478D01*
X196462Y344622D01*
X196451Y344679D01*
X196448Y344738D01*
X196413Y344876D01*
X196386Y345017D01*
X196364Y345071D01*
X196350Y345128D01*
X196288Y345257D01*
X196234Y345390D01*
X196202Y345439D01*
X196177Y345492D01*
X196091Y345606D01*
X196012Y345725D01*
X195970Y345767D01*
X195935Y345814D01*
X195829Y345909D01*
X195727Y346010D01*
X195672Y346048D01*
X195635Y346082D01*
X195564Y346123D01*
X195454Y346199D01*
X164413Y364120D01*
X166136Y366616D01*
X166147Y366643D01*
X166166Y366665D01*
X166186Y366734D01*
X166214Y366799D01*
X166214Y366828D01*
X166222Y366856D01*
X166214Y366927D01*
X166215Y366998D01*
X166203Y367025D01*
X166200Y367054D01*
X166165Y367116D01*
X166137Y367181D01*
X166117Y367202D01*
X166102Y367227D01*
X166025Y367290D01*
X165995Y367320D01*
X165985Y367324D01*
X165974Y367333D01*
X149474Y376833D01*
X149401Y376857D01*
X149331Y376888D01*
X149307Y376888D01*
X149285Y376896D01*
X149209Y376890D01*
X149132Y376891D01*
X149108Y376881D01*
X149087Y376880D01*
X149048Y376859D01*
X148976Y376833D01*
X132476Y367333D01*
X132454Y367314D01*
X132428Y367301D01*
X132380Y367248D01*
X132327Y367201D01*
X132314Y367175D01*
X132295Y367154D01*
X132272Y367086D01*
X132241Y367022D01*
X132240Y366993D01*
X132230Y366966D01*
X132235Y366894D01*
X132232Y366823D01*
X132242Y366796D01*
X132244Y366767D01*
X132286Y366677D01*
X132301Y366637D01*
X132308Y366629D01*
X132314Y366616D01*
X134037Y364120D01*
X102996Y346199D01*
X102879Y346116D01*
X102758Y346039D01*
X102716Y345998D01*
X102668Y345964D01*
X102571Y345859D01*
X102468Y345761D01*
X102434Y345712D01*
X102394Y345669D01*
X102319Y345548D01*
X102238Y345430D01*
X102214Y345376D01*
X102183Y345326D01*
X102134Y345192D01*
X102077Y345061D01*
X102065Y345004D01*
X102045Y344949D01*
X102023Y344807D01*
X101993Y344667D01*
X101992Y344609D01*
X101983Y344551D01*
X101989Y344408D01*
X101987Y344265D01*
X101998Y344207D01*
X102001Y344148D01*
X102035Y344010D01*
X102062Y343869D01*
X102086Y343807D01*
X102098Y343758D01*
X102133Y343683D01*
X102181Y343559D01*
X102428Y343045D01*
X102420Y342994D01*
X102424Y342868D01*
X102419Y342743D01*
X102431Y342668D01*
X102434Y342591D01*
X102469Y342432D01*
X102483Y342346D01*
X102496Y342312D01*
X102506Y342267D01*
X102761Y341439D01*
X102791Y341368D01*
X102811Y341294D01*
X102868Y341183D01*
X102917Y341068D01*
X102960Y341004D01*
X102995Y340936D01*
X103073Y340838D01*
X103136Y340746D01*
X103267Y339874D01*
X103283Y339810D01*
X103334Y339578D01*
X103595Y338730D01*
X103579Y338681D01*
X103565Y338556D01*
X103542Y338433D01*
X103542Y338357D01*
X103534Y338281D01*
X103545Y338118D01*
X103546Y338031D01*
X103553Y337996D01*
X103556Y337950D01*
X103685Y337092D01*
X103704Y337018D01*
X103713Y336942D01*
X103753Y336824D01*
X103784Y336702D01*
X103817Y336633D01*
X103842Y336561D01*
X103904Y336452D01*
X103952Y336352D01*
X103952Y335470D01*
X103959Y335403D01*
X103975Y335168D01*
X104107Y334290D01*
X104083Y334243D01*
X104051Y334123D01*
X104009Y334004D01*
X103998Y333928D01*
X103979Y333855D01*
X103965Y333692D01*
X103953Y333606D01*
X103955Y333570D01*
X103951Y333524D01*
X103951Y332657D01*
X103959Y332581D01*
X103957Y332504D01*
X103978Y332381D01*
X103991Y332256D01*
X104013Y332183D01*
X104027Y332108D01*
X104072Y331991D01*
X104105Y331885D01*
X103973Y331013D01*
X103970Y330946D01*
X103950Y330711D01*
X103950Y329823D01*
X103920Y329780D01*
X103870Y329666D01*
X103811Y329555D01*
X103789Y329482D01*
X103759Y329412D01*
X103721Y329253D01*
X103696Y329169D01*
X103693Y329133D01*
X103682Y329089D01*
X103553Y328232D01*
X103549Y328155D01*
X103536Y328080D01*
X103539Y327954D01*
X103533Y327829D01*
X103544Y327754D01*
X103546Y327677D01*
X103573Y327555D01*
X103590Y327445D01*
X103330Y326603D01*
X103317Y326537D01*
X103262Y326307D01*
X103130Y325430D01*
X103094Y325392D01*
X103027Y325286D01*
X102952Y325185D01*
X102920Y325116D01*
X102879Y325051D01*
X102818Y324900D01*
X102781Y324821D01*
X102773Y324786D01*
X102756Y324743D01*
X102500Y323915D01*
X102485Y323840D01*
X102460Y323767D01*
X102445Y323643D01*
X102420Y323520D01*
X102420Y323444D01*
X102410Y323368D01*
X102419Y323243D01*
X102419Y323131D01*
X102036Y322338D01*
X102013Y322274D01*
X101925Y322055D01*
X101664Y321207D01*
X101622Y321175D01*
X101541Y321080D01*
X101452Y320992D01*
X101409Y320928D01*
X101359Y320870D01*
X101277Y320730D01*
X101228Y320657D01*
X101215Y320624D01*
X101191Y320584D01*
X100815Y319803D01*
X100789Y319732D01*
X100754Y319663D01*
X100720Y319543D01*
X100677Y319425D01*
X100666Y319349D01*
X100645Y319276D01*
X100635Y319151D01*
X100618Y319041D01*
X100122Y318313D01*
X100089Y318253D01*
X99970Y318050D01*
X99585Y317251D01*
X99539Y317225D01*
X99444Y317143D01*
X99343Y317069D01*
X99292Y317013D01*
X99234Y316963D01*
X99131Y316836D01*
X99072Y316771D01*
X99054Y316741D01*
X99025Y316705D01*
X98536Y315989D01*
X98500Y315921D01*
X98455Y315859D01*
X98404Y315746D01*
X98343Y315635D01*
X98321Y315562D01*
X98289Y315493D01*
X98261Y315370D01*
X98228Y315264D01*
X97629Y314618D01*
X97588Y314565D01*
X97439Y314381D01*
X96939Y313648D01*
X96890Y313629D01*
X96784Y313563D01*
X96673Y313505D01*
X96614Y313456D01*
X96549Y313416D01*
X96429Y313305D01*
X96361Y313250D01*
X96338Y313223D01*
X96304Y313192D01*
X95714Y312556D01*
X95668Y312495D01*
X95615Y312441D01*
X95547Y312336D01*
X95471Y312236D01*
X95438Y312167D01*
X95396Y312103D01*
X95350Y311986D01*
X95302Y311886D01*
X94613Y311336D01*
X94564Y311289D01*
X94390Y311130D01*
X93786Y310480D01*
X93735Y310469D01*
X93620Y310419D01*
X93502Y310378D01*
X93436Y310339D01*
X93366Y310308D01*
X93231Y310217D01*
X93155Y310173D01*
X93129Y310149D01*
X93090Y310123D01*
X92413Y309583D01*
X92358Y309530D01*
X92297Y309483D01*
X92214Y309390D01*
X92124Y309302D01*
X92081Y309239D01*
X92030Y309182D01*
X91968Y309073D01*
X91904Y308981D01*
X91141Y308541D01*
X91087Y308502D01*
X90890Y308370D01*
X90196Y307817D01*
X90144Y307814D01*
X90023Y307781D01*
X89900Y307758D01*
X89829Y307730D01*
X89755Y307710D01*
X89608Y307640D01*
X89527Y307608D01*
X89497Y307588D01*
X89455Y307568D01*
X88704Y307135D01*
X88642Y307090D01*
X88575Y307054D01*
X88479Y306973D01*
X88377Y306900D01*
X88325Y306844D01*
X88267Y306795D01*
X88188Y306697D01*
X88112Y306616D01*
X87292Y306294D01*
X87232Y306263D01*
X87018Y306162D01*
X86250Y305719D01*
X86198Y305723D01*
X86073Y305710D01*
X85948Y305705D01*
X85874Y305687D01*
X85798Y305679D01*
X85641Y305632D01*
X85556Y305612D01*
X85524Y305597D01*
X85480Y305583D01*
X84673Y305267D01*
X84605Y305232D01*
X84533Y305206D01*
X84426Y305141D01*
X84314Y305084D01*
X84254Y305036D01*
X84189Y304996D01*
X84097Y304911D01*
X84010Y304842D01*
X83151Y304646D01*
X83087Y304624D01*
X82861Y304556D01*
X82035Y304232D01*
X81984Y304245D01*
X81859Y304250D01*
X81734Y304264D01*
X81658Y304257D01*
X81581Y304260D01*
X81420Y304237D01*
X81333Y304230D01*
X81299Y304220D01*
X81253Y304213D01*
X80408Y304021D01*
X80335Y303996D01*
X80260Y303981D01*
X80145Y303932D01*
X80026Y303893D01*
X79960Y303855D01*
X79889Y303825D01*
X79785Y303754D01*
X79689Y303699D01*
X78810Y303633D01*
X78744Y303622D01*
X78510Y303588D01*
X77275Y303307D01*
X77262Y303308D01*
X77254Y303307D01*
X77246Y303307D01*
X77057Y303282D01*
X76863Y303257D01*
X76855Y303255D01*
X76847Y303254D01*
X76665Y303191D01*
X76481Y303129D01*
X76474Y303125D01*
X76467Y303122D01*
X76301Y303025D01*
X76132Y302928D01*
X76126Y302922D01*
X76119Y302919D01*
X76083Y302886D01*
X75879Y302713D01*
X60984Y287818D01*
X60967Y287798D01*
X60947Y287780D01*
X60840Y287642D01*
X60729Y287507D01*
X60717Y287483D01*
X60700Y287462D01*
X60622Y287305D01*
X60540Y287151D01*
X60533Y287126D01*
X60521Y287101D01*
X60475Y286932D01*
X60426Y286765D01*
X60423Y286739D01*
X60416Y286713D01*
X60389Y286382D01*
X60389Y285337D01*
X59465Y283106D01*
X57758Y281399D01*
X55528Y280475D01*
X53113Y280475D01*
X50883Y281399D01*
X49176Y283106D01*
X48252Y285337D01*
X48252Y287751D01*
X49176Y289981D01*
X50883Y291689D01*
X53113Y292612D01*
X54159Y292612D01*
X54185Y292615D01*
X54212Y292613D01*
X54386Y292635D01*
X54559Y292652D01*
X54585Y292660D01*
X54611Y292664D01*
X54777Y292719D01*
X54944Y292771D01*
X54968Y292783D01*
X54993Y292792D01*
X55145Y292879D01*
X55298Y292962D01*
X55319Y292979D01*
X55342Y292993D01*
X55595Y293207D01*
X64368Y301980D01*
X64388Y302005D01*
X64412Y302026D01*
X64516Y302161D01*
X64623Y302292D01*
X64638Y302320D01*
X64657Y302345D01*
X64732Y302497D01*
X64811Y302647D01*
X64821Y302678D01*
X64835Y302707D01*
X64878Y302871D01*
X64926Y303033D01*
X64929Y303065D01*
X64937Y303096D01*
X64947Y303265D01*
X64963Y303434D01*
X64959Y303466D01*
X64961Y303498D01*
X64938Y303665D01*
X64919Y303835D01*
X64910Y303865D01*
X64905Y303897D01*
X64849Y304056D01*
X64798Y304218D01*
X64782Y304247D01*
X64772Y304277D01*
X64685Y304422D01*
X64603Y304571D01*
X64582Y304595D01*
X64566Y304623D01*
X64452Y304748D01*
X64342Y304878D01*
X64317Y304898D01*
X64296Y304921D01*
X64159Y305022D01*
X64027Y305127D01*
X63998Y305142D01*
X63972Y305161D01*
X63674Y305307D01*
X62953Y305591D01*
X62879Y305611D01*
X62808Y305641D01*
X62686Y305666D01*
X62565Y305700D01*
X62489Y305706D01*
X62414Y305721D01*
X62288Y305721D01*
X62177Y305730D01*
X61414Y306170D01*
X61353Y306198D01*
X61141Y306302D01*
X60315Y306627D01*
X60286Y306670D01*
X60198Y306759D01*
X60116Y306854D01*
X60056Y306901D01*
X60002Y306955D01*
X59868Y307048D01*
X59799Y307102D01*
X59767Y307118D01*
X59729Y307144D01*
X58978Y307578D01*
X58909Y307609D01*
X58843Y307649D01*
X58726Y307692D01*
X58612Y307744D01*
X58537Y307761D01*
X58465Y307787D01*
X58341Y307806D01*
X58232Y307831D01*
X57544Y308381D01*
X57487Y308417D01*
X57293Y308552D01*
X56525Y308996D01*
X56503Y309043D01*
X56428Y309144D01*
X56362Y309250D01*
X56309Y309306D01*
X56264Y309367D01*
X56145Y309479D01*
X56085Y309543D01*
X56056Y309563D01*
X56022Y309595D01*
X55345Y310135D01*
X55281Y310177D01*
X55222Y310226D01*
X55112Y310286D01*
X55007Y310354D01*
X54936Y310382D01*
X54868Y310419D01*
X54749Y310456D01*
X54645Y310497D01*
X54046Y311143D01*
X53996Y311187D01*
X53823Y311350D01*
X53130Y311903D01*
X53115Y311953D01*
X53057Y312064D01*
X53007Y312179D01*
X52963Y312242D01*
X52927Y312309D01*
X52826Y312438D01*
X52777Y312509D01*
X52751Y312534D01*
X52722Y312570D01*
X52133Y313206D01*
X52076Y313256D01*
X52025Y313314D01*
X51925Y313389D01*
X51831Y313472D01*
X51765Y313511D01*
X51704Y313557D01*
X51592Y313611D01*
X51495Y313668D01*
X51188Y314118D01*
X51096Y314228D01*
X51010Y314343D01*
X50967Y314382D01*
X50929Y314427D01*
X50817Y314516D01*
X50710Y314612D01*
X50660Y314642D01*
X50615Y314678D01*
X50487Y314744D01*
X50364Y314817D01*
X50309Y314836D01*
X50257Y314863D01*
X50119Y314902D01*
X49983Y314949D01*
X49926Y314957D01*
X49870Y314973D01*
X49727Y314985D01*
X49584Y315004D01*
X49527Y315000D01*
X49469Y315005D01*
X49326Y314988D01*
X49183Y314979D01*
X49126Y314964D01*
X49069Y314957D01*
X48933Y314912D01*
X48794Y314875D01*
X48734Y314847D01*
X48687Y314831D01*
X48614Y314790D01*
X48494Y314733D01*
X17457Y296815D01*
X16158Y299553D01*
X16140Y299577D01*
X16130Y299604D01*
X16081Y299656D01*
X16038Y299713D01*
X16013Y299727D01*
X15993Y299748D01*
X15928Y299777D01*
X15866Y299812D01*
X15838Y299816D01*
X15811Y299828D01*
X15740Y299828D01*
X15669Y299837D01*
X15641Y299829D01*
X15612Y299830D01*
X15519Y299795D01*
X15478Y299783D01*
X15469Y299776D01*
X15457Y299771D01*
X-1021Y290232D01*
X-1078Y290181D01*
X-1140Y290136D01*
X-1152Y290116D01*
X-1170Y290100D01*
X-1203Y290031D01*
X-1242Y289965D01*
X-1246Y289939D01*
X-1255Y289921D01*
X-1257Y289876D01*
X-1270Y289801D01*
X-1293Y270761D01*
X-1287Y270733D01*
X-1289Y270704D01*
X-1267Y270636D01*
X-1253Y270566D01*
X-1237Y270542D01*
X-1228Y270515D01*
X-1181Y270461D01*
X-1141Y270402D01*
X-1117Y270387D01*
X-1098Y270365D01*
X-1033Y270333D01*
X-973Y270295D01*
X-945Y270290D01*
X-919Y270277D01*
X-819Y270269D01*
X-777Y270262D01*
X-767Y270264D01*
X-753Y270263D01*
X2266Y270507D01*
X2266Y234651D01*
X2280Y234509D01*
X2286Y234365D01*
X2300Y234309D01*
X2306Y234251D01*
X2348Y234114D01*
X2382Y233974D01*
X2407Y233922D01*
X2424Y233866D01*
X2492Y233740D01*
X2553Y233610D01*
X2588Y233563D01*
X2616Y233512D01*
X2707Y233402D01*
X2793Y233287D01*
X2836Y233247D01*
X2873Y233203D01*
X2985Y233113D01*
X3091Y233017D01*
X3142Y232987D01*
X3187Y232950D01*
X3314Y232884D01*
X3438Y232811D01*
X3493Y232792D01*
X3544Y232765D01*
X3682Y232725D01*
X3817Y232678D01*
X3883Y232667D01*
X3931Y232653D01*
X4014Y232647D01*
X4145Y232626D01*
X4702Y232584D01*
X4743Y232551D01*
X4854Y232492D01*
X4959Y232426D01*
X5031Y232398D01*
X5099Y232363D01*
X5254Y232313D01*
X5336Y232282D01*
X5371Y232276D01*
X5415Y232263D01*
X6258Y232070D01*
X6334Y232061D01*
X6408Y232042D01*
X6533Y232036D01*
X6657Y232020D01*
X6733Y232025D01*
X6810Y232022D01*
X6934Y232040D01*
X7045Y232048D01*
X7865Y231726D01*
X7930Y231708D01*
X8155Y231637D01*
X9021Y231440D01*
X9056Y231401D01*
X9156Y231326D01*
X9251Y231244D01*
X9318Y231207D01*
X9379Y231161D01*
X9526Y231090D01*
X9602Y231047D01*
X9636Y231036D01*
X9677Y231015D01*
X10482Y230699D01*
X10556Y230679D01*
X10626Y230649D01*
X10749Y230624D01*
X10870Y230590D01*
X10946Y230584D01*
X11021Y230569D01*
X11146Y230569D01*
X11257Y230561D01*
X12021Y230120D01*
X12082Y230092D01*
X12294Y229988D01*
X13120Y229664D01*
X13149Y229621D01*
X13238Y229532D01*
X13319Y229437D01*
X13379Y229390D01*
X13433Y229336D01*
X13568Y229243D01*
X13636Y229189D01*
X13668Y229173D01*
X13706Y229147D01*
X14455Y228715D01*
X14525Y228683D01*
X14590Y228643D01*
X14708Y228600D01*
X14822Y228549D01*
X14896Y228532D01*
X14968Y228505D01*
X15092Y228487D01*
X15201Y228462D01*
X15890Y227912D01*
X15946Y227876D01*
X16141Y227741D01*
X16909Y227298D01*
X16931Y227250D01*
X17006Y227149D01*
X17072Y227043D01*
X17125Y226988D01*
X17170Y226926D01*
X17289Y226814D01*
X17349Y226751D01*
X17378Y226730D01*
X17412Y226699D01*
X18088Y226160D01*
X18152Y226118D01*
X18211Y226069D01*
X18320Y226009D01*
X18426Y225941D01*
X18497Y225913D01*
X18564Y225876D01*
X18684Y225839D01*
X18788Y225798D01*
X19387Y225153D01*
X19438Y225108D01*
X19609Y224946D01*
X20303Y224393D01*
X20318Y224343D01*
X20376Y224232D01*
X20426Y224117D01*
X20470Y224054D01*
X20506Y223987D01*
X20607Y223858D01*
X20657Y223787D01*
X20682Y223762D01*
X20711Y223726D01*
X21299Y223092D01*
X21356Y223041D01*
X21407Y222984D01*
X21507Y222908D01*
X21601Y222825D01*
X21667Y222787D01*
X21728Y222741D01*
X21841Y222686D01*
X21937Y222630D01*
X22434Y221902D01*
X22477Y221851D01*
X22623Y221665D01*
X23226Y221014D01*
X23234Y220963D01*
X23275Y220845D01*
X23307Y220723D01*
X23341Y220655D01*
X23366Y220583D01*
X23447Y220441D01*
X23485Y220362D01*
X23507Y220334D01*
X23530Y220294D01*
X24017Y219580D01*
X24066Y219521D01*
X24108Y219457D01*
X24195Y219367D01*
X24276Y219271D01*
X24336Y219223D01*
X24389Y219169D01*
X24492Y219098D01*
X24580Y219028D01*
X24962Y218235D01*
X24997Y218178D01*
X25114Y217972D01*
X25613Y217238D01*
X25613Y217186D01*
X25636Y217063D01*
X25650Y216938D01*
X25673Y216865D01*
X25687Y216790D01*
X25746Y216638D01*
X25772Y216555D01*
X25790Y216524D01*
X25806Y216481D01*
X26181Y215702D01*
X26221Y215636D01*
X26253Y215567D01*
X26326Y215465D01*
X26391Y215358D01*
X26443Y215302D01*
X26488Y215240D01*
X26580Y215154D01*
X26655Y215073D01*
X26915Y214231D01*
X26941Y214169D01*
X27026Y213948D01*
X27327Y213323D01*
X27411Y213185D01*
X27491Y213043D01*
X27516Y213013D01*
X27537Y212979D01*
X27647Y212861D01*
X27752Y212737D01*
X27784Y212713D01*
X27810Y212684D01*
X27941Y212589D01*
X28069Y212489D01*
X28105Y212471D01*
X28137Y212448D01*
X28284Y212381D01*
X28429Y212308D01*
X28467Y212298D01*
X28503Y212281D01*
X28661Y212245D01*
X28818Y212202D01*
X28857Y212199D01*
X28895Y212190D01*
X29057Y212185D01*
X29219Y212174D01*
X29258Y212179D01*
X29298Y212178D01*
X29457Y212205D01*
X29618Y212226D01*
X29661Y212240D01*
X29694Y212246D01*
X29776Y212277D01*
X29934Y212328D01*
X32130Y213237D01*
X34545Y213237D01*
X36775Y212314D01*
X38482Y210606D01*
X39406Y208376D01*
X39406Y205962D01*
X38482Y203731D01*
X36775Y202024D01*
X34545Y201100D01*
X33499Y201100D01*
X33473Y201097D01*
X33446Y201099D01*
X33272Y201077D01*
X33099Y201060D01*
X33073Y201052D01*
X33047Y201049D01*
X32881Y200993D01*
X32714Y200942D01*
X32690Y200929D01*
X32665Y200921D01*
X32514Y200834D01*
X32360Y200750D01*
X32339Y200733D01*
X32316Y200720D01*
X32063Y200505D01*
X30947Y199389D01*
X30641Y199389D01*
X30525Y199378D01*
X30407Y199376D01*
X30325Y199358D01*
X30241Y199349D01*
X30129Y199315D01*
X30014Y199290D01*
X29937Y199256D01*
X29856Y199231D01*
X29753Y199175D01*
X29645Y199128D01*
X29576Y199080D01*
X29502Y199039D01*
X29412Y198965D01*
X29316Y198897D01*
X29257Y198836D01*
X29192Y198782D01*
X29119Y198691D01*
X29038Y198605D01*
X28993Y198534D01*
X28940Y198468D01*
X28886Y198364D01*
X28824Y198265D01*
X28787Y198172D01*
X28755Y198111D01*
X28736Y198046D01*
X28700Y197957D01*
X28317Y196715D01*
X28304Y196649D01*
X28250Y196419D01*
X28118Y195542D01*
X28082Y195504D01*
X28015Y195398D01*
X27940Y195298D01*
X27908Y195228D01*
X27867Y195164D01*
X27806Y195012D01*
X27769Y194933D01*
X27761Y194898D01*
X27744Y194856D01*
X27489Y194029D01*
X27474Y193954D01*
X27449Y193882D01*
X27434Y193757D01*
X27409Y193635D01*
X27409Y193558D01*
X27399Y193482D01*
X27408Y193357D01*
X27408Y193246D01*
X27026Y192452D01*
X27003Y192389D01*
X26915Y192169D01*
X26654Y191321D01*
X26612Y191289D01*
X26531Y191195D01*
X26442Y191106D01*
X26399Y191042D01*
X26349Y190985D01*
X26267Y190844D01*
X26218Y190771D01*
X26205Y190738D01*
X26181Y190698D01*
X25806Y189919D01*
X25780Y189847D01*
X25745Y189779D01*
X25711Y189659D01*
X25668Y189541D01*
X25657Y189465D01*
X25636Y189392D01*
X25627Y189267D01*
X25610Y189156D01*
X25114Y188428D01*
X25081Y188369D01*
X24962Y188165D01*
X24577Y187366D01*
X24531Y187341D01*
X24436Y187259D01*
X24335Y187185D01*
X24284Y187128D01*
X24226Y187078D01*
X24123Y186952D01*
X24065Y186887D01*
X24046Y186856D01*
X24017Y186820D01*
X23530Y186106D01*
X23493Y186039D01*
X23449Y185977D01*
X23397Y185862D01*
X23337Y185752D01*
X23315Y185679D01*
X23283Y185610D01*
X23255Y185487D01*
X23222Y185381D01*
X22623Y184735D01*
X22582Y184681D01*
X22434Y184498D01*
X21934Y183764D01*
X21885Y183746D01*
X21779Y183679D01*
X21668Y183621D01*
X21609Y183573D01*
X21544Y183532D01*
X21424Y183422D01*
X21356Y183367D01*
X21333Y183339D01*
X21299Y183308D01*
X20711Y182674D01*
X20665Y182613D01*
X20611Y182559D01*
X20543Y182453D01*
X20468Y182353D01*
X20434Y182285D01*
X20393Y182220D01*
X20347Y182104D01*
X20298Y182003D01*
X19609Y181454D01*
X19561Y181407D01*
X19387Y181247D01*
X18783Y180597D01*
X18732Y180586D01*
X18618Y180536D01*
X18499Y180495D01*
X18433Y180456D01*
X18363Y180425D01*
X18228Y180335D01*
X18153Y180290D01*
X18126Y180266D01*
X18088Y180240D01*
X17412Y179701D01*
X17357Y179648D01*
X17296Y179602D01*
X17213Y179508D01*
X17123Y179420D01*
X17080Y179357D01*
X17030Y179300D01*
X16967Y179191D01*
X16904Y179099D01*
X16141Y178659D01*
X16086Y178619D01*
X15890Y178488D01*
X15196Y177934D01*
X15144Y177931D01*
X15023Y177899D01*
X14900Y177876D01*
X14829Y177847D01*
X14755Y177827D01*
X14607Y177757D01*
X14527Y177725D01*
X14497Y177705D01*
X14455Y177685D01*
X13706Y177253D01*
X13644Y177208D01*
X13577Y177172D01*
X13481Y177091D01*
X13379Y177018D01*
X13327Y176962D01*
X13269Y176913D01*
X13190Y176815D01*
X13114Y176734D01*
X12294Y176412D01*
X12234Y176381D01*
X12021Y176280D01*
X11252Y175836D01*
X11200Y175841D01*
X11076Y175827D01*
X10950Y175822D01*
X10876Y175805D01*
X10800Y175796D01*
X10644Y175749D01*
X10559Y175729D01*
X10526Y175714D01*
X10482Y175701D01*
X9677Y175385D01*
X9609Y175350D01*
X9537Y175324D01*
X9431Y175258D01*
X9319Y175201D01*
X9259Y175153D01*
X9194Y175114D01*
X9102Y175029D01*
X9014Y174959D01*
X8155Y174763D01*
X8092Y174742D01*
X7865Y174674D01*
X7039Y174349D01*
X6989Y174362D01*
X6863Y174366D01*
X6739Y174381D01*
X6663Y174374D01*
X6586Y174377D01*
X6425Y174354D01*
X6338Y174346D01*
X6303Y174336D01*
X6258Y174330D01*
X5415Y174137D01*
X5342Y174113D01*
X5267Y174098D01*
X5152Y174049D01*
X5033Y174009D01*
X4967Y173971D01*
X4896Y173942D01*
X4793Y173871D01*
X4696Y173815D01*
X4145Y173774D01*
X4004Y173749D01*
X3862Y173733D01*
X3806Y173715D01*
X3749Y173704D01*
X3615Y173652D01*
X3479Y173608D01*
X3428Y173579D01*
X3374Y173558D01*
X3253Y173480D01*
X3128Y173410D01*
X3084Y173372D01*
X3035Y173340D01*
X2932Y173240D01*
X2823Y173147D01*
X2788Y173101D01*
X2746Y173060D01*
X2665Y172942D01*
X2577Y172829D01*
X2551Y172776D01*
X2518Y172728D01*
X2461Y172597D01*
X2397Y172468D01*
X2382Y172412D01*
X2359Y172358D01*
X2330Y172218D01*
X2293Y172079D01*
X2287Y172013D01*
X2277Y171964D01*
X2277Y171881D01*
X2266Y171749D01*
X2266Y135893D01*
X-753Y136137D01*
X-782Y136134D01*
X-810Y136138D01*
X-880Y136122D01*
X-951Y136113D01*
X-976Y136099D01*
X-1004Y136092D01*
X-1061Y136050D01*
X-1123Y136014D01*
X-1141Y135991D01*
X-1164Y135974D01*
X-1200Y135913D01*
X-1243Y135856D01*
X-1250Y135828D01*
X-1265Y135803D01*
X-1282Y135704D01*
X-1292Y135663D01*
X-1290Y135652D01*
X-1293Y135639D01*
X-1270Y116599D01*
X-1254Y116524D01*
X-1246Y116448D01*
X-1235Y116427D01*
X-1230Y116405D01*
X-1186Y116341D01*
X-1149Y116274D01*
X-1129Y116258D01*
X-1117Y116241D01*
X-1080Y116217D01*
X-1021Y116168D01*
X15457Y106629D01*
X15484Y106619D01*
X15508Y106603D01*
X15577Y106588D01*
X15645Y106565D01*
X15674Y106567D01*
X15702Y106561D01*
X15772Y106575D01*
X15843Y106580D01*
X15869Y106594D01*
X15897Y106599D01*
X15957Y106639D01*
X16020Y106672D01*
X16038Y106694D01*
X16062Y106710D01*
X16120Y106792D01*
X16147Y106825D01*
X16150Y106835D01*
X16158Y106847D01*
X17457Y109585D01*
X48494Y91667D01*
X48625Y91607D01*
X48752Y91541D01*
X48808Y91525D01*
X48861Y91501D01*
X49001Y91469D01*
X49139Y91429D01*
X49196Y91424D01*
X49253Y91411D01*
X49397Y91407D01*
X49540Y91395D01*
X49598Y91401D01*
X49656Y91400D01*
X49797Y91424D01*
X49940Y91441D01*
X49995Y91459D01*
X50052Y91468D01*
X50186Y91520D01*
X50323Y91565D01*
X50374Y91593D01*
X50428Y91614D01*
X50549Y91691D01*
X50674Y91762D01*
X50718Y91799D01*
X50767Y91831D01*
X50871Y91931D01*
X50979Y92024D01*
X51021Y92075D01*
X51057Y92110D01*
X51104Y92178D01*
X51188Y92282D01*
X51498Y92738D01*
X51547Y92756D01*
X51654Y92823D01*
X51764Y92881D01*
X51823Y92929D01*
X51888Y92970D01*
X52009Y93081D01*
X52076Y93135D01*
X52099Y93163D01*
X52133Y93194D01*
X52722Y93830D01*
X52769Y93891D01*
X52822Y93946D01*
X52890Y94051D01*
X52966Y94151D01*
X52999Y94220D01*
X53040Y94284D01*
X53086Y94400D01*
X53135Y94501D01*
X53823Y95050D01*
X53872Y95097D01*
X54046Y95257D01*
X54649Y95908D01*
X54700Y95919D01*
X54815Y95969D01*
X54933Y96010D01*
X54999Y96049D01*
X55069Y96079D01*
X55205Y96171D01*
X55280Y96215D01*
X55307Y96239D01*
X55345Y96265D01*
X56022Y96805D01*
X56077Y96859D01*
X56138Y96905D01*
X56221Y96999D01*
X56311Y97086D01*
X56354Y97150D01*
X56404Y97207D01*
X56467Y97315D01*
X56530Y97407D01*
X57293Y97848D01*
X57347Y97887D01*
X57544Y98019D01*
X58237Y98573D01*
X58290Y98576D01*
X58411Y98608D01*
X58534Y98632D01*
X58605Y98660D01*
X58678Y98680D01*
X58826Y98750D01*
X58907Y98783D01*
X58937Y98802D01*
X58978Y98822D01*
X59729Y99256D01*
X59791Y99300D01*
X59858Y99337D01*
X59954Y99418D01*
X60056Y99491D01*
X60108Y99547D01*
X60167Y99596D01*
X60245Y99694D01*
X60321Y99775D01*
X61141Y100098D01*
X61201Y100128D01*
X61414Y100230D01*
X62183Y100673D01*
X62235Y100669D01*
X62359Y100683D01*
X62484Y100687D01*
X62559Y100705D01*
X62635Y100714D01*
X62791Y100761D01*
X62876Y100781D01*
X62908Y100796D01*
X62953Y100809D01*
X63759Y101126D01*
X63827Y101161D01*
X63899Y101187D01*
X64006Y101253D01*
X64118Y101310D01*
X64178Y101358D01*
X64243Y101398D01*
X64335Y101483D01*
X64422Y101552D01*
X65281Y101748D01*
X65345Y101770D01*
X65571Y101838D01*
X66397Y102162D01*
X66448Y102150D01*
X66573Y102145D01*
X66697Y102131D01*
X66774Y102138D01*
X66850Y102135D01*
X67011Y102158D01*
X67099Y102166D01*
X67133Y102176D01*
X67178Y102182D01*
X68024Y102375D01*
X68096Y102400D01*
X68171Y102415D01*
X68287Y102464D01*
X68405Y102504D01*
X68472Y102542D01*
X68542Y102571D01*
X68646Y102642D01*
X68742Y102698D01*
X69621Y102764D01*
X69687Y102775D01*
X69921Y102809D01*
X70786Y103007D01*
X70835Y102987D01*
X70958Y102964D01*
X71078Y102931D01*
X71155Y102926D01*
X71230Y102912D01*
X71393Y102911D01*
X71480Y102905D01*
X71516Y102910D01*
X71562Y102910D01*
X72426Y102975D01*
X72502Y102988D01*
X72578Y102992D01*
X72699Y103023D01*
X72823Y103045D01*
X72894Y103073D01*
X72968Y103092D01*
X73081Y103146D01*
X73185Y103186D01*
X74064Y103121D01*
X74131Y103123D01*
X74367Y103121D01*
X75252Y103188D01*
X75297Y103161D01*
X75415Y103119D01*
X75530Y103069D01*
X75605Y103053D01*
X75677Y103028D01*
X75838Y103002D01*
X75923Y102984D01*
X75959Y102983D01*
X76005Y102976D01*
X76869Y102912D01*
X76946Y102913D01*
X77022Y102906D01*
X77147Y102918D01*
X77272Y102922D01*
X77346Y102938D01*
X77422Y102946D01*
X77542Y102983D01*
X77651Y103008D01*
X78510Y102812D01*
X78577Y102804D01*
X78810Y102767D01*
X79695Y102701D01*
X79736Y102668D01*
X79846Y102609D01*
X79952Y102542D01*
X80024Y102515D01*
X80091Y102479D01*
X80247Y102430D01*
X80329Y102399D01*
X80364Y102393D01*
X80408Y102379D01*
X81253Y102187D01*
X81329Y102177D01*
X81403Y102158D01*
X81528Y102152D01*
X81652Y102137D01*
X81729Y102142D01*
X81805Y102138D01*
X81929Y102157D01*
X82040Y102165D01*
X82861Y101844D01*
X82926Y101825D01*
X83151Y101754D01*
X84016Y101557D01*
X84051Y101518D01*
X84152Y101444D01*
X84247Y101362D01*
X84313Y101324D01*
X84375Y101279D01*
X84521Y101207D01*
X84597Y101164D01*
X84632Y101153D01*
X84673Y101133D01*
X85480Y100817D01*
X85554Y100796D01*
X85624Y100766D01*
X85747Y100741D01*
X85867Y100707D01*
X85944Y100702D01*
X86019Y100687D01*
X86144Y100686D01*
X86255Y100678D01*
X87018Y100238D01*
X87080Y100210D01*
X87292Y100106D01*
X88118Y99782D01*
X88147Y99739D01*
X88236Y99650D01*
X88317Y99555D01*
X88377Y99508D01*
X88431Y99454D01*
X88566Y99361D01*
X88635Y99307D01*
X88667Y99291D01*
X88704Y99265D01*
X89455Y98832D01*
X89525Y98800D01*
X89590Y98760D01*
X89708Y98718D01*
X89822Y98666D01*
X89897Y98649D01*
X89969Y98623D01*
X90093Y98604D01*
X90215Y98576D01*
X90291Y98574D01*
X90367Y98563D01*
X90530Y98568D01*
X90617Y98565D01*
X90653Y98571D01*
X90699Y98573D01*
X91019Y98609D01*
X91130Y98633D01*
X91243Y98647D01*
X91327Y98675D01*
X91412Y98694D01*
X91517Y98739D01*
X91625Y98776D01*
X91701Y98819D01*
X91782Y98854D01*
X91875Y98920D01*
X91974Y98976D01*
X92053Y99044D01*
X92112Y99085D01*
X92157Y99132D01*
X92227Y99191D01*
X118064Y125028D01*
X156536Y125028D01*
X156563Y125031D01*
X156589Y125029D01*
X156763Y125051D01*
X156937Y125068D01*
X156962Y125076D01*
X156989Y125080D01*
X157155Y125135D01*
X157322Y125187D01*
X157345Y125199D01*
X157371Y125208D01*
X157522Y125295D01*
X157676Y125378D01*
X157696Y125395D01*
X157719Y125409D01*
X157972Y125623D01*
X158712Y126363D01*
X160942Y127286D01*
X163356Y127286D01*
X165587Y126363D01*
X167294Y124655D01*
X168218Y122425D01*
X168218Y120011D01*
X167294Y117780D01*
X165587Y116073D01*
X163356Y115149D01*
X160942Y115149D01*
X158712Y116073D01*
X157972Y116812D01*
X157952Y116829D01*
X157934Y116849D01*
X157796Y116956D01*
X157661Y117067D01*
X157637Y117080D01*
X157616Y117096D01*
X157459Y117174D01*
X157305Y117256D01*
X157280Y117263D01*
X157256Y117275D01*
X157086Y117321D01*
X156919Y117371D01*
X156893Y117373D01*
X156867Y117380D01*
X156536Y117407D01*
X122063Y117407D01*
X122036Y117404D01*
X122009Y117406D01*
X121835Y117384D01*
X121662Y117367D01*
X121636Y117359D01*
X121610Y117356D01*
X121444Y117300D01*
X121277Y117249D01*
X121253Y117236D01*
X121228Y117228D01*
X121076Y117140D01*
X120923Y117057D01*
X120903Y117040D01*
X120879Y117027D01*
X120626Y116812D01*
X98034Y94220D01*
X97919Y94080D01*
X97801Y93941D01*
X97792Y93924D01*
X97779Y93908D01*
X97694Y93749D01*
X97606Y93589D01*
X97600Y93570D01*
X97590Y93553D01*
X97539Y93379D01*
X97483Y93206D01*
X97481Y93186D01*
X97476Y93167D01*
X97459Y92986D01*
X97439Y92806D01*
X97441Y92786D01*
X97439Y92766D01*
X97459Y92584D01*
X97475Y92405D01*
X97480Y92385D01*
X97483Y92366D01*
X97538Y92192D01*
X97589Y92018D01*
X97598Y92001D01*
X97604Y91982D01*
X97692Y91823D01*
X97777Y91662D01*
X97790Y91645D01*
X97799Y91629D01*
X97849Y91570D01*
X97982Y91401D01*
X98232Y91132D01*
X98240Y91080D01*
X98281Y90961D01*
X98313Y90841D01*
X98347Y90772D01*
X98372Y90700D01*
X98453Y90558D01*
X98492Y90480D01*
X98514Y90451D01*
X98536Y90411D01*
X99025Y89695D01*
X99074Y89636D01*
X99116Y89572D01*
X99203Y89483D01*
X99284Y89387D01*
X99343Y89339D01*
X99397Y89284D01*
X99500Y89213D01*
X99587Y89144D01*
X99970Y88350D01*
X100005Y88293D01*
X100122Y88087D01*
X100622Y87354D01*
X100621Y87302D01*
X100645Y87179D01*
X100658Y87054D01*
X100682Y86982D01*
X100696Y86906D01*
X100754Y86754D01*
X100781Y86671D01*
X100799Y86640D01*
X100815Y86597D01*
X101191Y85816D01*
X101231Y85751D01*
X101263Y85681D01*
X101336Y85579D01*
X101401Y85472D01*
X101453Y85416D01*
X101498Y85354D01*
X101590Y85269D01*
X101666Y85187D01*
X101925Y84345D01*
X101952Y84283D01*
X102036Y84062D01*
X102422Y83263D01*
X102413Y83212D01*
X102418Y83086D01*
X102413Y82961D01*
X102425Y82886D01*
X102428Y82809D01*
X102463Y82650D01*
X102477Y82564D01*
X102490Y82530D01*
X102500Y82485D01*
X102756Y81657D01*
X102785Y81586D01*
X102806Y81513D01*
X102863Y81401D01*
X102912Y81286D01*
X102955Y81223D01*
X102990Y81154D01*
X103068Y81057D01*
X103131Y80964D01*
X103262Y80093D01*
X103279Y80028D01*
X103330Y79797D01*
X103592Y78949D01*
X103576Y78900D01*
X103562Y78775D01*
X103538Y78652D01*
X103539Y78575D01*
X103530Y78499D01*
X103542Y78337D01*
X103542Y78249D01*
X103550Y78214D01*
X103553Y78168D01*
X103682Y77311D01*
X103701Y77237D01*
X103711Y77161D01*
X103751Y77043D01*
X103782Y76921D01*
X103815Y76852D01*
X103839Y76780D01*
X103902Y76671D01*
X103950Y76571D01*
X103950Y75689D01*
X103957Y75623D01*
X103973Y75387D01*
X104106Y74509D01*
X104083Y74462D01*
X104050Y74342D01*
X104009Y74223D01*
X103998Y74148D01*
X103978Y74074D01*
X103965Y73911D01*
X103953Y73825D01*
X103955Y73789D01*
X103951Y73743D01*
X103951Y72876D01*
X103959Y72800D01*
X103957Y72724D01*
X103979Y72600D01*
X103991Y72475D01*
X104014Y72402D01*
X104027Y72327D01*
X104073Y72211D01*
X104106Y72104D01*
X103975Y71232D01*
X103971Y71165D01*
X103952Y70930D01*
X103952Y70042D01*
X103922Y69999D01*
X103872Y69885D01*
X103813Y69774D01*
X103792Y69701D01*
X103761Y69631D01*
X103724Y69472D01*
X103699Y69388D01*
X103696Y69352D01*
X103685Y69308D01*
X103556Y68450D01*
X103552Y68374D01*
X103539Y68299D01*
X103542Y68173D01*
X103536Y68048D01*
X103547Y67973D01*
X103549Y67896D01*
X103577Y67774D01*
X103594Y67664D01*
X103334Y66822D01*
X103321Y66756D01*
X103267Y66526D01*
X103135Y65648D01*
X103099Y65610D01*
X103032Y65504D01*
X102958Y65404D01*
X102925Y65334D01*
X102884Y65269D01*
X102824Y65118D01*
X102787Y65039D01*
X102778Y65004D01*
X102761Y64961D01*
X102506Y64133D01*
X102491Y64058D01*
X102466Y63985D01*
X102451Y63861D01*
X102426Y63738D01*
X102426Y63662D01*
X102416Y63586D01*
X102426Y63461D01*
X102425Y63349D01*
X102181Y62841D01*
X102132Y62706D01*
X102075Y62575D01*
X102063Y62518D01*
X102043Y62462D01*
X102022Y62321D01*
X101992Y62181D01*
X101991Y62122D01*
X101983Y62064D01*
X101989Y61922D01*
X101988Y61778D01*
X101999Y61721D01*
X102002Y61662D01*
X102037Y61524D01*
X102064Y61383D01*
X102086Y61329D01*
X102100Y61272D01*
X102162Y61143D01*
X102216Y61010D01*
X102248Y60961D01*
X102273Y60908D01*
X102359Y60794D01*
X102438Y60675D01*
X102480Y60633D01*
X102515Y60586D01*
X102621Y60491D01*
X102723Y60390D01*
X102778Y60352D01*
X102815Y60318D01*
X102886Y60276D01*
X102996Y60201D01*
X134037Y42280D01*
X132314Y39784D01*
X132303Y39757D01*
X132284Y39735D01*
X132264Y39666D01*
X132236Y39601D01*
X132236Y39572D01*
X132228Y39544D01*
X132236Y39473D01*
X132236Y39402D01*
X132247Y39375D01*
X132250Y39346D01*
X132285Y39284D01*
X132313Y39219D01*
X132333Y39198D01*
X132348Y39173D01*
X132411Y39121D01*
X132415Y39116D01*
X132424Y39110D01*
X132425Y39110D01*
X132455Y39080D01*
X132465Y39076D01*
X132476Y39067D01*
X148976Y29567D01*
X149049Y29543D01*
X149119Y29512D01*
X149143Y29512D01*
X149165Y29504D01*
X149241Y29511D01*
X149318Y29510D01*
X149342Y29519D01*
X149363Y29520D01*
X149402Y29541D01*
X149474Y29567D01*
X165974Y39067D01*
X165996Y39086D01*
X166022Y39099D01*
X166056Y39137D01*
X166059Y39139D01*
X166062Y39143D01*
X166070Y39152D01*
X166123Y39199D01*
X166136Y39225D01*
X166155Y39247D01*
X166178Y39314D01*
X166209Y39378D01*
X166211Y39407D01*
X166220Y39434D01*
X166215Y39506D01*
X166218Y39577D01*
X166208Y39604D01*
X166206Y39633D01*
X166164Y39723D01*
X166149Y39763D01*
X166142Y39771D01*
X166136Y39784D01*
X164413Y42280D01*
X195454Y60201D01*
X195571Y60284D01*
X195692Y60361D01*
X195734Y60402D01*
X195782Y60436D01*
X195879Y60541D01*
X195982Y60639D01*
X196016Y60688D01*
X196056Y60731D01*
X196131Y60852D01*
X196212Y60970D01*
X196236Y61024D01*
X196267Y61074D01*
X196316Y61208D01*
X196373Y61339D01*
X196385Y61396D01*
X196405Y61451D01*
X196427Y61593D01*
X196457Y61733D01*
X196458Y61791D01*
X196467Y61849D01*
X196461Y61992D01*
X196463Y62135D01*
X196452Y62193D01*
X196449Y62252D01*
X196415Y62390D01*
X196388Y62531D01*
X196364Y62593D01*
X196352Y62642D01*
X196317Y62717D01*
X196269Y62841D01*
X196022Y63355D01*
X196030Y63406D01*
X196026Y63532D01*
X196031Y63657D01*
X196019Y63732D01*
X196016Y63809D01*
X195981Y63968D01*
X195967Y64054D01*
X195954Y64088D01*
X195944Y64133D01*
X195689Y64961D01*
X195659Y65032D01*
X195639Y65106D01*
X195582Y65217D01*
X195533Y65332D01*
X195490Y65396D01*
X195455Y65464D01*
X195377Y65562D01*
X195314Y65654D01*
X195183Y66526D01*
X195167Y66590D01*
X195116Y66822D01*
X194855Y67670D01*
X194871Y67719D01*
X194885Y67844D01*
X194908Y67967D01*
X194908Y68043D01*
X194916Y68119D01*
X194905Y68282D01*
X194904Y68369D01*
X194897Y68404D01*
X194894Y68450D01*
X194765Y69308D01*
X194746Y69382D01*
X194737Y69458D01*
X194697Y69576D01*
X194666Y69698D01*
X194633Y69767D01*
X194608Y69839D01*
X194546Y69948D01*
X194498Y70048D01*
X194498Y70930D01*
X194491Y70997D01*
X194475Y71232D01*
X194344Y72110D01*
X194367Y72157D01*
X194399Y72277D01*
X194441Y72396D01*
X194452Y72472D01*
X194472Y72545D01*
X194485Y72708D01*
X194497Y72794D01*
X194495Y72830D01*
X194499Y72876D01*
X194499Y73743D01*
X194491Y73819D01*
X194493Y73896D01*
X194472Y74019D01*
X194459Y74144D01*
X194437Y74217D01*
X194423Y74292D01*
X194378Y74409D01*
X194345Y74515D01*
X194477Y75387D01*
X194480Y75454D01*
X194500Y75689D01*
X194500Y76577D01*
X194530Y76619D01*
X194580Y76734D01*
X194639Y76845D01*
X194661Y76918D01*
X194691Y76988D01*
X194729Y77147D01*
X194754Y77231D01*
X194757Y77266D01*
X194768Y77311D01*
X194897Y78168D01*
X194901Y78245D01*
X194914Y78320D01*
X194911Y78446D01*
X194917Y78570D01*
X194906Y78646D01*
X194904Y78723D01*
X194876Y78845D01*
X194860Y78955D01*
X195120Y79797D01*
X195133Y79863D01*
X195188Y80093D01*
X195320Y80970D01*
X195356Y81008D01*
X195423Y81114D01*
X195498Y81215D01*
X195530Y81284D01*
X195571Y81349D01*
X195632Y81500D01*
X195669Y81579D01*
X195677Y81614D01*
X195694Y81657D01*
X195950Y82485D01*
X195965Y82560D01*
X195990Y82633D01*
X196005Y82757D01*
X196030Y82880D01*
X196030Y82956D01*
X196040Y83032D01*
X196031Y83157D01*
X196031Y83269D01*
X196414Y84063D01*
X196437Y84126D01*
X196525Y84345D01*
X196786Y85193D01*
X196828Y85225D01*
X196909Y85320D01*
X196998Y85408D01*
X197041Y85472D01*
X197091Y85530D01*
X197173Y85670D01*
X197222Y85743D01*
X197235Y85776D01*
X197259Y85816D01*
X197635Y86597D01*
X197661Y86668D01*
X197696Y86737D01*
X197730Y86857D01*
X197773Y86975D01*
X197784Y87051D01*
X197805Y87124D01*
X197815Y87249D01*
X197832Y87359D01*
X198328Y88087D01*
X198361Y88147D01*
X198480Y88350D01*
X198865Y89149D01*
X198911Y89175D01*
X199006Y89257D01*
X199107Y89331D01*
X199158Y89387D01*
X199216Y89437D01*
X199319Y89564D01*
X199378Y89629D01*
X199396Y89659D01*
X199425Y89695D01*
X199914Y90411D01*
X199950Y90479D01*
X199995Y90541D01*
X200046Y90654D01*
X200107Y90765D01*
X200129Y90838D01*
X200161Y90907D01*
X200189Y91030D01*
X200222Y91136D01*
X200821Y91782D01*
X200862Y91836D01*
X201011Y92019D01*
X201511Y92752D01*
X201560Y92771D01*
X201666Y92837D01*
X201777Y92895D01*
X201836Y92944D01*
X201901Y92984D01*
X202021Y93095D01*
X202089Y93150D01*
X202112Y93177D01*
X202146Y93208D01*
X202736Y93844D01*
X202782Y93905D01*
X202835Y93959D01*
X202903Y94064D01*
X202979Y94164D01*
X203012Y94233D01*
X203054Y94297D01*
X203100Y94414D01*
X203148Y94514D01*
X203837Y95064D01*
X203885Y95110D01*
X204060Y95270D01*
X204664Y95920D01*
X204715Y95931D01*
X204830Y95981D01*
X204948Y96022D01*
X205014Y96061D01*
X205084Y96092D01*
X205220Y96183D01*
X205295Y96227D01*
X205321Y96251D01*
X205360Y96277D01*
X206037Y96817D01*
X206092Y96870D01*
X206153Y96917D01*
X206236Y97010D01*
X206326Y97098D01*
X206369Y97161D01*
X206420Y97218D01*
X206483Y97327D01*
X206545Y97419D01*
X207309Y97859D01*
X207363Y97898D01*
X207560Y98030D01*
X208254Y98583D01*
X208306Y98586D01*
X208427Y98619D01*
X208550Y98642D01*
X208621Y98670D01*
X208695Y98690D01*
X208842Y98760D01*
X208923Y98792D01*
X208953Y98812D01*
X208995Y98832D01*
X209746Y99265D01*
X209808Y99310D01*
X209875Y99346D01*
X209971Y99427D01*
X210073Y99500D01*
X210125Y99556D01*
X210183Y99605D01*
X210262Y99703D01*
X210338Y99784D01*
X211158Y100106D01*
X211218Y100137D01*
X211432Y100238D01*
X212200Y100681D01*
X212252Y100677D01*
X212377Y100690D01*
X212502Y100695D01*
X212576Y100713D01*
X212652Y100721D01*
X212809Y100768D01*
X212894Y100788D01*
X212926Y100803D01*
X212970Y100817D01*
X213777Y101133D01*
X213845Y101168D01*
X213917Y101194D01*
X214024Y101259D01*
X214136Y101316D01*
X214196Y101364D01*
X214261Y101404D01*
X214353Y101489D01*
X214440Y101558D01*
X215299Y101754D01*
X215363Y101776D01*
X215589Y101844D01*
X216415Y102168D01*
X216466Y102155D01*
X216591Y102150D01*
X216716Y102136D01*
X216792Y102143D01*
X216869Y102140D01*
X217030Y102163D01*
X217117Y102170D01*
X217151Y102180D01*
X217197Y102187D01*
X218042Y102379D01*
X218115Y102404D01*
X218190Y102419D01*
X218305Y102468D01*
X218424Y102507D01*
X218490Y102545D01*
X218561Y102575D01*
X218665Y102646D01*
X218761Y102701D01*
X219640Y102767D01*
X219706Y102778D01*
X219940Y102812D01*
X220732Y102992D01*
X220911Y103052D01*
X221090Y103110D01*
X221101Y103116D01*
X221113Y103120D01*
X221277Y103214D01*
X221442Y103306D01*
X221451Y103315D01*
X221462Y103321D01*
X221604Y103445D01*
X221748Y103568D01*
X221756Y103578D01*
X221765Y103587D01*
X221878Y103735D01*
X221996Y103885D01*
X222002Y103897D01*
X222009Y103907D01*
X222091Y104076D01*
X222177Y104245D01*
X222180Y104257D01*
X222185Y104269D01*
X222233Y104451D01*
X222283Y104633D01*
X222284Y104646D01*
X222287Y104658D01*
X222298Y104847D01*
X222310Y105035D01*
X222309Y105047D01*
X222310Y105060D01*
X222283Y105248D01*
X222258Y105434D01*
X222254Y105448D01*
X222252Y105459D01*
X222248Y105470D01*
X222248Y107944D01*
X222494Y108538D01*
X222498Y108551D01*
X222505Y108563D01*
X222557Y108743D01*
X222611Y108923D01*
X222612Y108937D01*
X222616Y108950D01*
X222631Y109138D01*
X222649Y109324D01*
X222648Y109337D01*
X222649Y109351D01*
X222627Y109537D01*
X222607Y109725D01*
X222603Y109737D01*
X222602Y109751D01*
X222544Y109929D01*
X222488Y110109D01*
X222481Y110121D01*
X222477Y110133D01*
X222385Y110297D01*
X222294Y110462D01*
X222286Y110472D01*
X222279Y110484D01*
X222156Y110626D01*
X222035Y110770D01*
X222025Y110779D01*
X222016Y110789D01*
X221868Y110903D01*
X221720Y111021D01*
X221708Y111027D01*
X221698Y111036D01*
X221530Y111119D01*
X221362Y111205D01*
X221349Y111209D01*
X221337Y111215D01*
X221155Y111264D01*
X220975Y111315D01*
X220962Y111316D01*
X220949Y111319D01*
X220618Y111347D01*
X215314Y111347D01*
X215283Y111343D01*
X215252Y111346D01*
X215083Y111323D01*
X214914Y111307D01*
X214884Y111297D01*
X214853Y111293D01*
X214537Y111192D01*
X213138Y110613D01*
X210724Y110613D01*
X208494Y111536D01*
X206786Y113244D01*
X205863Y115474D01*
X205863Y117888D01*
X206786Y120119D01*
X208494Y121826D01*
X210724Y122750D01*
X213138Y122750D01*
X214537Y122171D01*
X214567Y122162D01*
X214595Y122148D01*
X214759Y122103D01*
X214923Y122054D01*
X214954Y122051D01*
X214984Y122043D01*
X215314Y122016D01*
X231655Y122016D01*
X231681Y122019D01*
X231708Y122017D01*
X231882Y122039D01*
X232055Y122056D01*
X232081Y122064D01*
X232107Y122067D01*
X232273Y122123D01*
X232440Y122174D01*
X232464Y122187D01*
X232489Y122195D01*
X232641Y122283D01*
X232794Y122366D01*
X232815Y122383D01*
X232838Y122396D01*
X233091Y122611D01*
X233100Y122620D01*
X235330Y123544D01*
X237745Y123544D01*
X239975Y122620D01*
X241682Y120913D01*
X242606Y118682D01*
X242606Y116268D01*
X241682Y114037D01*
X239975Y112330D01*
X237745Y111406D01*
X237353Y111406D01*
X237322Y111403D01*
X237291Y111405D01*
X237122Y111383D01*
X236953Y111366D01*
X236923Y111357D01*
X236892Y111353D01*
X236871Y111347D01*
X236016Y111347D01*
X236003Y111345D01*
X235989Y111346D01*
X235803Y111325D01*
X235616Y111307D01*
X235603Y111303D01*
X235589Y111301D01*
X235411Y111244D01*
X235231Y111188D01*
X235219Y111182D01*
X235206Y111178D01*
X235042Y111086D01*
X234877Y110997D01*
X234866Y110988D01*
X234855Y110982D01*
X234711Y110859D01*
X234567Y110739D01*
X234559Y110729D01*
X234549Y110720D01*
X234432Y110571D01*
X234315Y110425D01*
X234309Y110413D01*
X234301Y110403D01*
X234216Y110234D01*
X234129Y110068D01*
X234126Y110055D01*
X234120Y110043D01*
X234070Y109861D01*
X234018Y109681D01*
X234017Y109668D01*
X234013Y109655D01*
X234001Y109468D01*
X233985Y109280D01*
X233987Y109266D01*
X233986Y109253D01*
X234010Y109067D01*
X234032Y108880D01*
X234036Y108867D01*
X234038Y108854D01*
X234140Y108538D01*
X234386Y107944D01*
X234386Y105529D01*
X233652Y103757D01*
X233641Y103722D01*
X233625Y103689D01*
X233583Y103530D01*
X233535Y103372D01*
X233532Y103335D01*
X233522Y103300D01*
X233513Y103135D01*
X233497Y102971D01*
X233501Y102934D01*
X233499Y102898D01*
X233522Y102735D01*
X233539Y102570D01*
X233550Y102535D01*
X233555Y102499D01*
X233609Y102343D01*
X233659Y102186D01*
X233676Y102154D01*
X233688Y102119D01*
X233773Y101977D01*
X233852Y101833D01*
X233875Y101805D01*
X233894Y101773D01*
X234005Y101651D01*
X234111Y101525D01*
X234139Y101502D01*
X234164Y101475D01*
X234297Y101377D01*
X234426Y101274D01*
X234458Y101257D01*
X234488Y101235D01*
X234777Y101093D01*
X234784Y101090D01*
X234785Y101089D01*
X234786Y101089D01*
X235497Y100809D01*
X235571Y100789D01*
X235642Y100759D01*
X235764Y100734D01*
X235885Y100700D01*
X235961Y100694D01*
X236036Y100679D01*
X236162Y100679D01*
X236273Y100670D01*
X237036Y100230D01*
X237097Y100202D01*
X237309Y100098D01*
X238135Y99773D01*
X238164Y99730D01*
X238252Y99641D01*
X238334Y99546D01*
X238394Y99499D01*
X238448Y99445D01*
X238582Y99352D01*
X238651Y99298D01*
X238683Y99282D01*
X238721Y99256D01*
X239472Y98822D01*
X239541Y98791D01*
X239607Y98751D01*
X239724Y98708D01*
X239838Y98656D01*
X239913Y98639D01*
X239985Y98613D01*
X240109Y98594D01*
X240218Y98569D01*
X240906Y98019D01*
X240963Y97983D01*
X241157Y97848D01*
X241925Y97404D01*
X241947Y97357D01*
X242022Y97256D01*
X242088Y97150D01*
X242141Y97094D01*
X242186Y97033D01*
X242305Y96921D01*
X242365Y96857D01*
X242394Y96837D01*
X242428Y96805D01*
X243105Y96265D01*
X243169Y96223D01*
X243228Y96174D01*
X243338Y96114D01*
X243443Y96046D01*
X243514Y96018D01*
X243582Y95981D01*
X243701Y95944D01*
X243805Y95903D01*
X244404Y95257D01*
X244454Y95213D01*
X244627Y95050D01*
X245320Y94497D01*
X245335Y94447D01*
X245393Y94336D01*
X245443Y94221D01*
X245487Y94159D01*
X245523Y94091D01*
X245623Y93962D01*
X245673Y93891D01*
X245699Y93866D01*
X245728Y93830D01*
X246317Y93194D01*
X246374Y93143D01*
X246425Y93086D01*
X246525Y93011D01*
X246619Y92927D01*
X246685Y92889D01*
X246746Y92843D01*
X246858Y92789D01*
X246955Y92732D01*
X247262Y92282D01*
X247354Y92172D01*
X247440Y92057D01*
X247483Y92018D01*
X247521Y91973D01*
X247633Y91884D01*
X247740Y91788D01*
X247790Y91758D01*
X247835Y91722D01*
X247963Y91656D01*
X248086Y91583D01*
X248141Y91564D01*
X248193Y91537D01*
X248331Y91498D01*
X248467Y91451D01*
X248524Y91443D01*
X248580Y91427D01*
X248723Y91415D01*
X248866Y91396D01*
X248923Y91400D01*
X248981Y91395D01*
X249124Y91412D01*
X249267Y91421D01*
X249324Y91436D01*
X249381Y91443D01*
X249517Y91488D01*
X249656Y91525D01*
X249716Y91553D01*
X249763Y91569D01*
X249836Y91610D01*
X249956Y91667D01*
X281002Y109590D01*
X282273Y106887D01*
X282291Y106864D01*
X282301Y106837D01*
X282350Y106785D01*
X282392Y106728D01*
X282417Y106713D01*
X282437Y106692D01*
X282502Y106663D01*
X282564Y106628D01*
X282593Y106624D01*
X282619Y106612D01*
X282690Y106611D01*
X282761Y106602D01*
X282789Y106610D01*
X282818Y106610D01*
X282911Y106644D01*
X282952Y106656D01*
X282961Y106663D01*
X282974Y106667D01*
X299225Y116024D01*
X315476Y106667D01*
X315504Y106658D01*
X315528Y106641D01*
X315597Y106627D01*
X315665Y106604D01*
X315694Y106607D01*
X315722Y106601D01*
X315792Y106615D01*
X315863Y106620D01*
X315889Y106634D01*
X315917Y106639D01*
X315976Y106679D01*
X316039Y106712D01*
X316058Y106734D01*
X316082Y106751D01*
X316139Y106833D01*
X316166Y106865D01*
X316169Y106876D01*
X316177Y106887D01*
X317449Y109590D01*
X434037Y42280D01*
X432314Y39784D01*
X432303Y39757D01*
X432284Y39735D01*
X432264Y39666D01*
X432236Y39601D01*
X432236Y39572D01*
X432228Y39544D01*
X432236Y39473D01*
X432236Y39402D01*
X432247Y39375D01*
X432250Y39346D01*
X432285Y39284D01*
X432313Y39219D01*
X432333Y39198D01*
X432348Y39173D01*
X432411Y39121D01*
X432415Y39116D01*
X432424Y39110D01*
X432425Y39110D01*
X432455Y39080D01*
X432465Y39076D01*
X432476Y39067D01*
X448976Y29567D01*
X449049Y29543D01*
X449119Y29512D01*
X449143Y29512D01*
X449165Y29504D01*
X449241Y29511D01*
G37*
%LPC*%
G36*
X52004Y168687D02*
X52004Y168687D01*
X48363Y170195D01*
X45576Y172982D01*
X44068Y176623D01*
X44068Y180564D01*
X45576Y184205D01*
X48363Y186992D01*
X51661Y188358D01*
X52004Y188500D01*
X55946Y188500D01*
X59587Y186992D01*
X60254Y186325D01*
X60261Y186319D01*
X60267Y186313D01*
X60415Y186193D01*
X60565Y186070D01*
X60573Y186066D01*
X60580Y186060D01*
X60750Y185972D01*
X60921Y185881D01*
X60930Y185879D01*
X60938Y185875D01*
X61122Y185822D01*
X61307Y185767D01*
X61316Y185766D01*
X61325Y185763D01*
X61515Y185748D01*
X61708Y185730D01*
X61717Y185731D01*
X61726Y185730D01*
X61915Y185753D01*
X62108Y185774D01*
X62117Y185776D01*
X62126Y185777D01*
X62309Y185837D01*
X62492Y185895D01*
X62500Y185899D01*
X62508Y185902D01*
X62676Y185997D01*
X62844Y186090D01*
X62851Y186096D01*
X62859Y186100D01*
X63005Y186226D01*
X63151Y186350D01*
X63157Y186357D01*
X63164Y186363D01*
X63282Y186516D01*
X63401Y186666D01*
X63405Y186674D01*
X63411Y186681D01*
X63496Y186853D01*
X63583Y187025D01*
X63586Y187034D01*
X63590Y187042D01*
X63640Y187227D01*
X63691Y187413D01*
X63692Y187422D01*
X63694Y187431D01*
X63722Y187761D01*
X63722Y201736D01*
X63719Y201763D01*
X63721Y201790D01*
X63699Y201964D01*
X63682Y202137D01*
X63674Y202163D01*
X63670Y202189D01*
X63615Y202355D01*
X63563Y202522D01*
X63551Y202546D01*
X63542Y202571D01*
X63455Y202722D01*
X63372Y202876D01*
X63355Y202896D01*
X63341Y202920D01*
X63127Y203173D01*
X58945Y207354D01*
X58921Y207374D01*
X58900Y207398D01*
X58765Y207501D01*
X58634Y207609D01*
X58606Y207624D01*
X58581Y207643D01*
X58286Y207795D01*
X56881Y208377D01*
X56757Y208472D01*
X56625Y208580D01*
X56598Y208594D01*
X56573Y208614D01*
X56497Y208652D01*
X44581Y220568D01*
X44560Y220585D01*
X44543Y220606D01*
X44405Y220713D01*
X44269Y220823D01*
X44246Y220836D01*
X44225Y220852D01*
X44068Y220930D01*
X43914Y221012D01*
X43888Y221020D01*
X43864Y221032D01*
X43695Y221077D01*
X43528Y221127D01*
X43501Y221129D01*
X43475Y221136D01*
X43145Y221163D01*
X40297Y221163D01*
X38957Y222503D01*
X38957Y232397D01*
X40074Y233514D01*
X40085Y233528D01*
X40098Y233539D01*
X40212Y233683D01*
X40329Y233825D01*
X40337Y233841D01*
X40348Y233855D01*
X40431Y234019D01*
X40517Y234181D01*
X40522Y234198D01*
X40530Y234214D01*
X40580Y234391D01*
X40632Y234567D01*
X40634Y234585D01*
X40638Y234602D01*
X40652Y234785D01*
X40668Y234968D01*
X40666Y234986D01*
X40668Y235003D01*
X40645Y235185D01*
X40625Y235368D01*
X40620Y235385D01*
X40617Y235403D01*
X40559Y235577D01*
X40503Y235752D01*
X40495Y235768D01*
X40489Y235784D01*
X40398Y235943D01*
X40309Y236104D01*
X40297Y236118D01*
X40288Y236133D01*
X40074Y236386D01*
X38957Y237503D01*
X38957Y247397D01*
X40297Y248737D01*
X50191Y248737D01*
X51138Y247790D01*
X51162Y247770D01*
X51182Y247747D01*
X51318Y247643D01*
X51449Y247535D01*
X51477Y247520D01*
X51501Y247501D01*
X51797Y247350D01*
X51960Y247282D01*
X52051Y247254D01*
X52139Y247217D01*
X52267Y247189D01*
X52345Y247166D01*
X52396Y247161D01*
X52463Y247146D01*
X52563Y247132D01*
X52615Y247107D01*
X52646Y247098D01*
X52676Y247084D01*
X52840Y247046D01*
X53003Y247002D01*
X53040Y246999D01*
X53068Y246992D01*
X53155Y246990D01*
X53334Y246975D01*
X58445Y246975D01*
X58462Y246977D01*
X58480Y246975D01*
X58662Y246997D01*
X58845Y247015D01*
X58862Y247020D01*
X58880Y247022D01*
X59054Y247079D01*
X59230Y247133D01*
X59246Y247142D01*
X59263Y247147D01*
X59423Y247237D01*
X59584Y247325D01*
X59598Y247336D01*
X59613Y247345D01*
X59753Y247465D01*
X59893Y247583D01*
X59905Y247596D01*
X59918Y247608D01*
X60031Y247753D01*
X60146Y247896D01*
X60154Y247912D01*
X60165Y247926D01*
X60247Y248091D01*
X60331Y248254D01*
X60336Y248271D01*
X60344Y248287D01*
X60392Y248465D01*
X60414Y248542D01*
X61815Y249943D01*
X73656Y249943D01*
X73674Y249945D01*
X73692Y249943D01*
X73874Y249965D01*
X74057Y249983D01*
X74074Y249988D01*
X74092Y249990D01*
X74266Y250047D01*
X74442Y250101D01*
X74457Y250110D01*
X74474Y250115D01*
X74635Y250205D01*
X74796Y250293D01*
X74809Y250304D01*
X74825Y250313D01*
X74964Y250433D01*
X75105Y250551D01*
X75116Y250564D01*
X75130Y250576D01*
X75242Y250721D01*
X75357Y250864D01*
X75366Y250880D01*
X75377Y250894D01*
X75458Y251059D01*
X75543Y251222D01*
X75548Y251239D01*
X75556Y251255D01*
X75604Y251433D01*
X75654Y251609D01*
X75656Y251626D01*
X75660Y251644D01*
X75688Y251974D01*
X75688Y253620D01*
X76611Y255850D01*
X78319Y257557D01*
X80549Y258481D01*
X82963Y258481D01*
X85194Y257557D01*
X86901Y255850D01*
X87480Y254451D01*
X87490Y254433D01*
X87497Y254413D01*
X87502Y254405D01*
X87505Y254394D01*
X87590Y254247D01*
X87671Y254097D01*
X87686Y254078D01*
X87695Y254063D01*
X87699Y254058D01*
X87706Y254045D01*
X87921Y253792D01*
X92032Y249682D01*
X92052Y249665D01*
X92070Y249644D01*
X92208Y249537D01*
X92343Y249427D01*
X92367Y249414D01*
X92388Y249398D01*
X92545Y249320D01*
X92699Y249238D01*
X92724Y249230D01*
X92748Y249218D01*
X92918Y249173D01*
X93085Y249123D01*
X93111Y249121D01*
X93137Y249114D01*
X93468Y249087D01*
X104603Y249087D01*
X105943Y247747D01*
X105943Y234853D01*
X104603Y233513D01*
X92709Y233513D01*
X91366Y234856D01*
X91347Y235011D01*
X91330Y235190D01*
X91323Y235211D01*
X91320Y235234D01*
X91264Y235404D01*
X91211Y235575D01*
X91201Y235595D01*
X91194Y235616D01*
X91105Y235772D01*
X91020Y235929D01*
X91005Y235946D01*
X90994Y235966D01*
X90876Y236101D01*
X90762Y236238D01*
X90745Y236252D01*
X90730Y236269D01*
X90587Y236379D01*
X90448Y236491D01*
X90428Y236501D01*
X90411Y236515D01*
X90116Y236666D01*
X89847Y236777D01*
X80376Y246248D01*
X80352Y246268D01*
X80332Y246291D01*
X80197Y246395D01*
X80065Y246503D01*
X80037Y246518D01*
X80012Y246537D01*
X79717Y246688D01*
X78858Y247044D01*
X78845Y247048D01*
X78833Y247054D01*
X78652Y247106D01*
X78472Y247161D01*
X78459Y247162D01*
X78446Y247166D01*
X78258Y247181D01*
X78072Y247199D01*
X78058Y247198D01*
X78045Y247199D01*
X77858Y247177D01*
X77671Y247157D01*
X77658Y247153D01*
X77645Y247152D01*
X77467Y247094D01*
X77287Y247037D01*
X77275Y247031D01*
X77262Y247027D01*
X77099Y246934D01*
X76934Y246844D01*
X76923Y246836D01*
X76912Y246829D01*
X76769Y246706D01*
X76625Y246585D01*
X76617Y246575D01*
X76607Y246566D01*
X76492Y246418D01*
X76374Y246270D01*
X76368Y246258D01*
X76360Y246248D01*
X76277Y246080D01*
X76191Y245912D01*
X76187Y245899D01*
X76181Y245887D01*
X76132Y245705D01*
X76081Y245525D01*
X76080Y245511D01*
X76076Y245498D01*
X76049Y245168D01*
X76049Y236709D01*
X74933Y235593D01*
X74921Y235579D01*
X74908Y235567D01*
X74793Y235422D01*
X74678Y235281D01*
X74669Y235265D01*
X74658Y235251D01*
X74575Y235087D01*
X74489Y234925D01*
X74484Y234908D01*
X74476Y234892D01*
X74426Y234715D01*
X74374Y234539D01*
X74373Y234522D01*
X74368Y234504D01*
X74354Y234321D01*
X74338Y234138D01*
X74340Y234121D01*
X74338Y234103D01*
X74362Y233920D01*
X74381Y233738D01*
X74387Y233721D01*
X74389Y233703D01*
X74447Y233530D01*
X74503Y233354D01*
X74511Y233339D01*
X74517Y233322D01*
X74609Y233163D01*
X74698Y233002D01*
X74709Y232988D01*
X74718Y232973D01*
X74933Y232720D01*
X76049Y231603D01*
X76049Y223000D01*
X76052Y222973D01*
X76050Y222946D01*
X76072Y222773D01*
X76089Y222599D01*
X76097Y222574D01*
X76100Y222547D01*
X76156Y222381D01*
X76207Y222214D01*
X76220Y222191D01*
X76229Y222165D01*
X76316Y222014D01*
X76399Y221860D01*
X76416Y221840D01*
X76429Y221816D01*
X76644Y221563D01*
X90364Y207843D01*
X90381Y207829D01*
X90396Y207812D01*
X90537Y207702D01*
X90676Y207588D01*
X90695Y207578D01*
X90713Y207564D01*
X90874Y207483D01*
X91031Y207400D01*
X91053Y207393D01*
X91073Y207383D01*
X91246Y207336D01*
X91417Y207285D01*
X91440Y207283D01*
X91461Y207277D01*
X91639Y207265D01*
X91818Y207249D01*
X91841Y207251D01*
X91863Y207249D01*
X92039Y207273D01*
X92218Y207292D01*
X92240Y207299D01*
X92262Y207302D01*
X92578Y207403D01*
X93249Y207681D01*
X95663Y207681D01*
X97894Y206757D01*
X99601Y205050D01*
X100525Y202820D01*
X100525Y200405D01*
X99601Y198175D01*
X97894Y196468D01*
X95663Y195544D01*
X93249Y195544D01*
X91019Y196468D01*
X90787Y196699D01*
X90767Y196716D01*
X90749Y196736D01*
X90611Y196843D01*
X90476Y196954D01*
X90452Y196966D01*
X90431Y196983D01*
X90274Y197061D01*
X90120Y197143D01*
X90095Y197150D01*
X90071Y197162D01*
X89901Y197208D01*
X89734Y197257D01*
X89711Y197259D01*
X88041Y197951D01*
X86541Y199452D01*
X77544Y208448D01*
X77541Y208451D01*
X77538Y208455D01*
X77384Y208579D01*
X77232Y208703D01*
X77229Y208706D01*
X77225Y208708D01*
X77046Y208802D01*
X76877Y208892D01*
X76873Y208893D01*
X76869Y208895D01*
X76677Y208952D01*
X76491Y209007D01*
X76486Y209007D01*
X76482Y209009D01*
X76290Y209025D01*
X76090Y209043D01*
X76085Y209043D01*
X76081Y209043D01*
X75891Y209022D01*
X75690Y209000D01*
X75685Y208999D01*
X75681Y208998D01*
X75495Y208938D01*
X75306Y208878D01*
X75302Y208876D01*
X75298Y208875D01*
X75124Y208778D01*
X74953Y208684D01*
X74950Y208681D01*
X74946Y208678D01*
X74796Y208550D01*
X74646Y208423D01*
X74644Y208420D01*
X74640Y208417D01*
X74518Y208261D01*
X74397Y208107D01*
X74395Y208103D01*
X74392Y208100D01*
X74303Y207922D01*
X74214Y207748D01*
X74213Y207744D01*
X74211Y207740D01*
X74159Y207549D01*
X74106Y207360D01*
X74106Y207356D01*
X74105Y207352D01*
X74091Y207155D01*
X74077Y206959D01*
X74078Y206954D01*
X74077Y206950D01*
X74104Y206749D01*
X74128Y206559D01*
X74129Y206555D01*
X74130Y206551D01*
X74231Y206235D01*
X74391Y205849D01*
X74391Y187533D01*
X74394Y187502D01*
X74392Y187471D01*
X74414Y187301D01*
X74431Y187133D01*
X74440Y187103D01*
X74444Y187072D01*
X74546Y186756D01*
X75125Y185357D01*
X75125Y182943D01*
X74201Y180712D01*
X72494Y179005D01*
X70263Y178081D01*
X67849Y178081D01*
X66690Y178561D01*
X66677Y178565D01*
X66666Y178571D01*
X66485Y178623D01*
X66305Y178678D01*
X66292Y178679D01*
X66279Y178683D01*
X66090Y178698D01*
X65904Y178716D01*
X65891Y178714D01*
X65877Y178716D01*
X65691Y178694D01*
X65504Y178674D01*
X65491Y178670D01*
X65478Y178669D01*
X65300Y178611D01*
X65119Y178554D01*
X65108Y178548D01*
X65095Y178544D01*
X64931Y178451D01*
X64766Y178361D01*
X64756Y178353D01*
X64744Y178346D01*
X64602Y178223D01*
X64458Y178102D01*
X64450Y178091D01*
X64439Y178083D01*
X64325Y177935D01*
X64207Y177787D01*
X64201Y177775D01*
X64193Y177765D01*
X64109Y177597D01*
X64023Y177429D01*
X64019Y177416D01*
X64013Y177404D01*
X63964Y177222D01*
X63913Y177042D01*
X63912Y177028D01*
X63909Y177015D01*
X63882Y176685D01*
X63882Y176623D01*
X62374Y172982D01*
X59587Y170195D01*
X55946Y168687D01*
X52004Y168687D01*
G37*
%LPD*%
G36*
X200891Y59310D02*
X200891Y59310D01*
X200919Y59310D01*
X201017Y59346D01*
X201056Y59358D01*
X201064Y59364D01*
X201075Y59368D01*
X247875Y86368D01*
X247895Y86386D01*
X247920Y86397D01*
X247969Y86451D01*
X248024Y86499D01*
X248035Y86524D01*
X248054Y86544D01*
X248078Y86613D01*
X248109Y86679D01*
X248111Y86706D01*
X248120Y86731D01*
X248115Y86804D01*
X248118Y86877D01*
X248109Y86903D01*
X248107Y86930D01*
X248063Y87026D01*
X248049Y87064D01*
X248042Y87071D01*
X248038Y87081D01*
X245764Y90418D01*
X245741Y90440D01*
X245718Y90476D01*
X242972Y93437D01*
X242946Y93456D01*
X242918Y93488D01*
X239762Y96006D01*
X239733Y96021D01*
X239700Y96048D01*
X236204Y98068D01*
X236174Y98078D01*
X236137Y98101D01*
X232379Y99577D01*
X232347Y99582D01*
X232307Y99599D01*
X228371Y100499D01*
X228339Y100499D01*
X228297Y100510D01*
X224271Y100813D01*
X224240Y100809D01*
X224197Y100813D01*
X220170Y100512D01*
X220139Y100504D01*
X220096Y100501D01*
X216160Y99604D01*
X216131Y99591D01*
X216088Y99582D01*
X212329Y98108D01*
X212302Y98091D01*
X212262Y98076D01*
X208765Y96058D01*
X208741Y96037D01*
X208703Y96016D01*
X205545Y93500D01*
X205525Y93475D01*
X205491Y93449D01*
X202743Y90490D01*
X202727Y90463D01*
X202697Y90432D01*
X200421Y87096D01*
X200409Y87067D01*
X200384Y87032D01*
X198631Y83395D01*
X198623Y83364D01*
X198604Y83325D01*
X197412Y79467D01*
X197409Y79435D01*
X197396Y79394D01*
X196793Y75402D01*
X196794Y75370D01*
X196787Y75328D01*
X196786Y71290D01*
X196789Y71276D01*
X196787Y71266D01*
X196792Y71246D01*
X196791Y71216D01*
X197392Y67223D01*
X197403Y67193D01*
X197408Y67150D01*
X198597Y63291D01*
X198612Y63263D01*
X198624Y63222D01*
X200375Y59584D01*
X200392Y59562D01*
X200401Y59536D01*
X200451Y59483D01*
X200495Y59425D01*
X200519Y59412D01*
X200538Y59392D01*
X200604Y59362D01*
X200668Y59326D01*
X200695Y59323D01*
X200720Y59312D01*
X200793Y59311D01*
X200865Y59302D01*
X200891Y59310D01*
G37*
G36*
X224228Y305591D02*
X224228Y305591D01*
X224271Y305587D01*
X228297Y305890D01*
X228328Y305899D01*
X228371Y305901D01*
X232307Y306801D01*
X232336Y306814D01*
X232379Y306823D01*
X236137Y308299D01*
X236164Y308317D01*
X236204Y308332D01*
X239700Y310352D01*
X239724Y310373D01*
X239762Y310394D01*
X242918Y312912D01*
X242938Y312937D01*
X242972Y312963D01*
X245718Y315924D01*
X245734Y315951D01*
X245764Y315982D01*
X248038Y319319D01*
X248048Y319344D01*
X248065Y319365D01*
X248086Y319435D01*
X248115Y319502D01*
X248115Y319530D01*
X248122Y319556D01*
X248114Y319628D01*
X248114Y319701D01*
X248103Y319726D01*
X248100Y319753D01*
X248064Y319817D01*
X248036Y319884D01*
X248016Y319903D01*
X248003Y319926D01*
X247922Y319994D01*
X247892Y320022D01*
X247883Y320025D01*
X247875Y320032D01*
X201075Y347032D01*
X201049Y347041D01*
X201026Y347057D01*
X200955Y347072D01*
X200886Y347096D01*
X200859Y347093D01*
X200832Y347099D01*
X200761Y347086D01*
X200688Y347080D01*
X200663Y347067D01*
X200637Y347062D01*
X200576Y347022D01*
X200511Y346988D01*
X200494Y346967D01*
X200471Y346952D01*
X200410Y346866D01*
X200385Y346835D01*
X200382Y346826D01*
X200375Y346816D01*
X198624Y343178D01*
X198617Y343147D01*
X198597Y343109D01*
X197408Y339250D01*
X197405Y339218D01*
X197392Y339177D01*
X196791Y335184D01*
X196793Y335153D01*
X196786Y335110D01*
X196787Y331072D01*
X196793Y331043D01*
X196791Y331031D01*
X196793Y331023D01*
X196793Y330998D01*
X197396Y327006D01*
X197407Y326976D01*
X197412Y326933D01*
X198604Y323075D01*
X198619Y323047D01*
X198631Y323006D01*
X200384Y319368D01*
X200403Y319343D01*
X200421Y319304D01*
X202697Y315968D01*
X202720Y315946D01*
X202743Y315910D01*
X205491Y312951D01*
X205516Y312932D01*
X205545Y312900D01*
X208703Y310384D01*
X208731Y310369D01*
X208765Y310342D01*
X212262Y308324D01*
X212292Y308314D01*
X212329Y308292D01*
X216088Y306818D01*
X216120Y306812D01*
X216160Y306796D01*
X220096Y305899D01*
X220128Y305898D01*
X220170Y305888D01*
X224197Y305587D01*
X224228Y305591D01*
G37*
G36*
X97689Y59314D02*
X97689Y59314D01*
X97762Y59320D01*
X97787Y59333D01*
X97813Y59338D01*
X97874Y59378D01*
X97939Y59412D01*
X97956Y59433D01*
X97979Y59448D01*
X98040Y59534D01*
X98065Y59565D01*
X98068Y59574D01*
X98075Y59584D01*
X99826Y63222D01*
X99833Y63253D01*
X99853Y63291D01*
X101042Y67150D01*
X101045Y67182D01*
X101058Y67223D01*
X101659Y71216D01*
X101657Y71247D01*
X101664Y71290D01*
X101663Y75328D01*
X101657Y75359D01*
X101657Y75402D01*
X101054Y79394D01*
X101043Y79424D01*
X101038Y79467D01*
X99846Y83325D01*
X99831Y83353D01*
X99819Y83395D01*
X98066Y87032D01*
X98047Y87057D01*
X98029Y87096D01*
X95753Y90432D01*
X95730Y90454D01*
X95707Y90490D01*
X92959Y93449D01*
X92934Y93468D01*
X92905Y93500D01*
X89747Y96016D01*
X89719Y96031D01*
X89685Y96058D01*
X86188Y98076D01*
X86158Y98086D01*
X86121Y98108D01*
X82362Y99582D01*
X82330Y99588D01*
X82290Y99604D01*
X78354Y100501D01*
X78322Y100502D01*
X78280Y100512D01*
X74254Y100813D01*
X74222Y100809D01*
X74179Y100813D01*
X70153Y100510D01*
X70122Y100501D01*
X70079Y100499D01*
X66143Y99599D01*
X66114Y99586D01*
X66071Y99577D01*
X62313Y98101D01*
X62286Y98083D01*
X62246Y98068D01*
X58750Y96048D01*
X58726Y96027D01*
X58688Y96006D01*
X55532Y93488D01*
X55512Y93463D01*
X55478Y93437D01*
X52732Y90476D01*
X52716Y90449D01*
X52686Y90418D01*
X50412Y87081D01*
X50402Y87056D01*
X50385Y87035D01*
X50364Y86965D01*
X50335Y86898D01*
X50336Y86870D01*
X50328Y86844D01*
X50336Y86772D01*
X50336Y86699D01*
X50347Y86674D01*
X50350Y86647D01*
X50386Y86583D01*
X50414Y86516D01*
X50434Y86497D01*
X50447Y86474D01*
X50528Y86407D01*
X50558Y86378D01*
X50567Y86375D01*
X50576Y86368D01*
X97376Y59368D01*
X97401Y59359D01*
X97424Y59343D01*
X97495Y59328D01*
X97564Y59304D01*
X97591Y59307D01*
X97618Y59301D01*
X97689Y59314D01*
G37*
G36*
X78280Y305888D02*
X78280Y305888D01*
X78311Y305896D01*
X78354Y305899D01*
X82290Y306796D01*
X82319Y306809D01*
X82362Y306818D01*
X86121Y308292D01*
X86148Y308309D01*
X86188Y308324D01*
X89685Y310342D01*
X89709Y310363D01*
X89747Y310384D01*
X92905Y312900D01*
X92925Y312925D01*
X92959Y312951D01*
X95707Y315910D01*
X95723Y315937D01*
X95753Y315968D01*
X98029Y319304D01*
X98041Y319333D01*
X98066Y319368D01*
X99819Y323006D01*
X99827Y323036D01*
X99846Y323075D01*
X101038Y326933D01*
X101041Y326965D01*
X101054Y327006D01*
X101657Y330998D01*
X101656Y331030D01*
X101663Y331072D01*
X101664Y335110D01*
X101658Y335141D01*
X101659Y335184D01*
X101058Y339177D01*
X101047Y339207D01*
X101042Y339250D01*
X99853Y343109D01*
X99838Y343137D01*
X99826Y343178D01*
X98075Y346816D01*
X98058Y346838D01*
X98049Y346864D01*
X97999Y346917D01*
X97955Y346975D01*
X97931Y346988D01*
X97912Y347008D01*
X97846Y347038D01*
X97782Y347074D01*
X97755Y347077D01*
X97730Y347088D01*
X97657Y347089D01*
X97585Y347098D01*
X97559Y347090D01*
X97531Y347090D01*
X97433Y347054D01*
X97394Y347042D01*
X97386Y347036D01*
X97376Y347032D01*
X50576Y320032D01*
X50555Y320014D01*
X50530Y320003D01*
X50481Y319949D01*
X50427Y319901D01*
X50415Y319876D01*
X50396Y319856D01*
X50372Y319787D01*
X50341Y319721D01*
X50340Y319694D01*
X50330Y319669D01*
X50335Y319596D01*
X50332Y319523D01*
X50341Y319497D01*
X50343Y319470D01*
X50387Y319374D01*
X50401Y319336D01*
X50408Y319329D01*
X50412Y319319D01*
X52686Y315982D01*
X52709Y315960D01*
X52732Y315924D01*
X55478Y312963D01*
X55504Y312944D01*
X55532Y312912D01*
X58688Y310394D01*
X58717Y310379D01*
X58750Y310352D01*
X62246Y308332D01*
X62276Y308322D01*
X62313Y308299D01*
X66071Y306823D01*
X66103Y306818D01*
X66143Y306801D01*
X70079Y305901D01*
X70111Y305901D01*
X70153Y305890D01*
X74179Y305587D01*
X74210Y305591D01*
X74254Y305587D01*
X78280Y305888D01*
G37*
G36*
X-749Y175703D02*
X-749Y175703D01*
X-738Y175702D01*
X3286Y176004D01*
X3317Y176012D01*
X3360Y176015D01*
X7294Y176913D01*
X7323Y176926D01*
X7366Y176935D01*
X11122Y178409D01*
X11149Y178426D01*
X11190Y178441D01*
X14684Y180459D01*
X14708Y180480D01*
X14746Y180501D01*
X17901Y183017D01*
X17921Y183042D01*
X17956Y183068D01*
X20700Y186026D01*
X20717Y186053D01*
X20747Y186085D01*
X23020Y189419D01*
X23033Y189448D01*
X23058Y189483D01*
X24808Y193119D01*
X24816Y193150D01*
X24836Y193189D01*
X26025Y197045D01*
X26028Y197076D01*
X26042Y197118D01*
X26643Y201108D01*
X26642Y201140D01*
X26649Y201182D01*
X26649Y205218D01*
X26642Y205249D01*
X26643Y205292D01*
X26042Y209282D01*
X26031Y209312D01*
X26025Y209355D01*
X24836Y213211D01*
X24820Y213239D01*
X24808Y213281D01*
X23058Y216917D01*
X23038Y216942D01*
X23020Y216981D01*
X20747Y220315D01*
X20724Y220338D01*
X20700Y220374D01*
X17956Y223332D01*
X17930Y223351D01*
X17901Y223383D01*
X14746Y225899D01*
X14718Y225913D01*
X14684Y225941D01*
X11190Y227959D01*
X11159Y227969D01*
X11122Y227991D01*
X7366Y229465D01*
X7334Y229471D01*
X7294Y229487D01*
X3360Y230385D01*
X3328Y230386D01*
X3286Y230396D01*
X-738Y230698D01*
X-765Y230694D01*
X-792Y230699D01*
X-862Y230682D01*
X-935Y230673D01*
X-959Y230659D01*
X-985Y230653D01*
X-1044Y230610D01*
X-1107Y230573D01*
X-1123Y230551D01*
X-1145Y230535D01*
X-1182Y230472D01*
X-1226Y230414D01*
X-1233Y230387D01*
X-1247Y230364D01*
X-1264Y230260D01*
X-1274Y230221D01*
X-1272Y230211D01*
X-1274Y230200D01*
X-1274Y176200D01*
X-1269Y176173D01*
X-1271Y176146D01*
X-1249Y176077D01*
X-1235Y176005D01*
X-1219Y175983D01*
X-1211Y175957D01*
X-1163Y175901D01*
X-1122Y175841D01*
X-1099Y175827D01*
X-1081Y175806D01*
X-1016Y175774D01*
X-955Y175734D01*
X-928Y175730D01*
X-903Y175718D01*
X-799Y175708D01*
X-758Y175701D01*
X-749Y175703D01*
G37*
%LPC*%
G36*
X144328Y308387D02*
X144328Y308387D01*
X138525Y314190D01*
X138525Y322397D01*
X144328Y328200D01*
X152535Y328200D01*
X158338Y322397D01*
X158338Y314190D01*
X152535Y308387D01*
X144328Y308387D01*
G37*
%LPD*%
%LPC*%
G36*
X52004Y117887D02*
X52004Y117887D01*
X48363Y119395D01*
X45576Y122182D01*
X44068Y125823D01*
X44068Y129764D01*
X45576Y133405D01*
X48363Y136192D01*
X52004Y137700D01*
X55946Y137700D01*
X59587Y136192D01*
X62374Y133405D01*
X63882Y129764D01*
X63882Y125823D01*
X62374Y122182D01*
X59587Y119395D01*
X55946Y117887D01*
X52004Y117887D01*
G37*
%LPD*%
%LPC*%
G36*
X52004Y143287D02*
X52004Y143287D01*
X48363Y144795D01*
X45576Y147582D01*
X44068Y151223D01*
X44068Y155164D01*
X45576Y158805D01*
X48363Y161592D01*
X49232Y161952D01*
X52004Y163100D01*
X55946Y163100D01*
X59587Y161592D01*
X62374Y158805D01*
X63882Y155164D01*
X63882Y151223D01*
X62374Y147582D01*
X59587Y144795D01*
X56109Y143355D01*
X55946Y143287D01*
X52004Y143287D01*
G37*
%LPD*%
D10*
X45244Y242450D03*
X45244Y227450D03*
D11*
X149225Y368400D03*
X299945Y280720D03*
X299945Y125680D03*
X149225Y38000D03*
X77725Y327100D03*
X220725Y327100D03*
X220725Y79300D03*
X77725Y79300D03*
X449225Y368400D03*
X592325Y285800D03*
X592325Y120600D03*
X449225Y38000D03*
X6158Y285800D03*
X6158Y120600D03*
X6125Y203200D03*
D12*
X148431Y318294D03*
D13*
X68263Y225656D03*
X68263Y242656D03*
D14*
X98656Y241300D03*
X115656Y241300D03*
D15*
X53975Y178594D03*
X53975Y153194D03*
X53975Y127794D03*
D16*
X568975Y239875D03*
X548975Y165875D03*
D17*
X434975Y195375D03*
D18*
X474975Y239875D03*
D19*
X287256Y228994D03*
X287256Y203994D03*
X287256Y178994D03*
X311256Y228994D03*
X311256Y203994D03*
X311256Y178994D03*
D15*
X492375Y74574D03*
X514350Y87313D03*
X536325Y100051D03*
D10*
X443350Y316706D03*
X458350Y316706D03*
D13*
X424656Y312175D03*
X424656Y329175D03*
D15*
X504123Y323812D03*
X526164Y311188D03*
D20*
X131763Y84931D03*
D21*
X60325Y213519D02*
X59482Y213212D01*
D22*
X45244Y227450D01*
D20*
X60325Y213519D03*
X182563Y307975D03*
X206375Y301625D03*
D22*
X188913Y301625D01*
X182563Y307975D01*
X69056Y204788D02*
X60325Y213519D01*
X69056Y204788D02*
X69056Y184150D01*
D20*
X69056Y184150D03*
D21*
X458350Y316706D02*
X458971Y316706D01*
X463889Y311788D01*
X525564Y311788D02*
X526164Y311188D01*
X525564Y311788D02*
X463889Y311788D01*
D20*
X211931Y116681D03*
X236538Y117475D03*
D22*
X235744Y116681D01*
X211931Y116681D01*
D20*
X506413Y237331D03*
X546894Y237331D03*
D22*
X506413Y237331D01*
D20*
X81756Y252413D03*
D22*
X92869Y241300D02*
X98656Y241300D01*
X92869Y241300D02*
X81756Y252413D01*
D20*
X506413Y129381D03*
D23*
X416719Y129381D01*
D20*
X416719Y129381D03*
X454025Y273844D03*
D24*
X454025Y230981D02*
X453363Y230319D01*
X454025Y230981D02*
X454025Y273844D01*
D20*
X453363Y230319D03*
D23*
X416719Y129381D02*
X330994Y129381D01*
X316421Y143955D02*
X228537Y143955D01*
D22*
X228029Y144463D01*
D23*
X177800Y144463D01*
X137319Y184944D01*
X137319Y281781D01*
X111268Y307832D01*
X110982Y307832D01*
D20*
X110982Y307832D03*
D23*
X316421Y143955D02*
X330994Y129381D01*
D24*
X453363Y220729D02*
X453363Y230319D01*
X458298Y215794D02*
X458298Y190394D01*
X458298Y215794D02*
X453363Y220729D01*
D20*
X458298Y190394D03*
D21*
X68263Y242656D02*
X51151Y242656D01*
X51066Y242978D01*
X51156Y242888D01*
X45244Y242450D01*
D25*
X220725Y326231D02*
X220725Y327100D01*
D20*
X196056Y313531D03*
D25*
X208025Y313531D02*
X220725Y326231D01*
X208025Y313531D02*
X196056Y313531D01*
D20*
X228317Y106736D03*
D25*
X228317Y86892D01*
X220725Y79300D01*
D20*
X33338Y207169D03*
D25*
X29369Y203200D01*
X6125Y203200D01*
X119643Y121218D02*
X77725Y79300D01*
D20*
X162149Y121218D03*
D25*
X119643Y121218D01*
X77725Y309948D02*
X77725Y327100D01*
X77725Y309948D02*
X54321Y286544D01*
D20*
X54321Y286544D03*
D21*
X68263Y223838D02*
X90488Y201613D01*
X68263Y223838D02*
X68263Y225656D01*
X90488Y201613D02*
X94456Y201613D01*
D20*
X94456Y201613D03*
X496888Y180975D03*
D21*
X475456Y159544D01*
D20*
X404813Y159544D03*
D21*
X475456Y159544D01*
D20*
X371247Y222364D03*
X423069Y258877D03*
D21*
X407759Y258877D02*
X371247Y222364D01*
X407759Y258877D02*
X423069Y258877D01*
D20*
X408166Y231596D03*
D25*
X343257Y166688D01*
X238125Y166688D02*
X205816Y198997D01*
D26*
X205256Y199556D01*
X204391Y199556D01*
D20*
X204391Y199556D03*
D25*
X238125Y166688D02*
X343257Y166688D01*
D20*
X414734Y222647D03*
D25*
X411559Y222647D01*
X350044Y161131D02*
X232334Y161131D01*
X204391Y189075D01*
D20*
X204391Y189075D03*
D25*
X350044Y161131D02*
X411559Y222647D01*
D20*
X408781Y208756D03*
D25*
X355600Y155575D01*
X226616Y155575D02*
X204391Y177800D01*
X226616Y155575D02*
X355600Y155575D01*
D20*
X204391Y177800D03*
X515144Y105569D03*
D21*
X572944Y235906D02*
X568975Y239875D01*
X572944Y235906D02*
X572944Y136688D01*
X549763Y113506D01*
X523081Y113506D01*
X515144Y105569D01*
D20*
X532606Y124619D03*
D21*
X548975Y140988D02*
X548975Y165875D01*
X548975Y140988D02*
X532606Y124619D01*
D20*
X495300Y94456D03*
D21*
X495300Y101600D01*
X519906Y126206D01*
X519906Y210414D01*
X488625Y239875D01*
X474975Y239875D01*
D20*
X462411Y168275D03*
X337344Y204788D03*
D21*
X368300Y204788D02*
X407194Y243681D01*
X418306Y243681D01*
X424656Y237331D01*
X424656Y218163D01*
X417657Y211164D01*
X368300Y204788D02*
X337344Y204788D01*
X417657Y211164D02*
X417657Y179243D01*
X457648Y173038D02*
X462411Y168275D01*
X457648Y173038D02*
X423863Y173038D01*
X417657Y179243D01*
D25*
X336944Y178994D02*
X311256Y178994D01*
X336944Y178994D02*
X338931Y177006D01*
D20*
X338931Y177006D03*
D25*
X311256Y178994D02*
X287256Y178994D01*
X311256Y203994D02*
X311256Y228994D01*
X311256Y203994D02*
X317825Y203994D01*
X334963Y186856D02*
X338931Y186856D01*
X334963Y186856D02*
X317825Y203994D01*
D20*
X338931Y186856D03*
D25*
X287256Y203994D02*
X287256Y228994D01*
X287256Y203994D02*
X286463Y203994D01*
X268288Y185819D01*
X268288Y174625D01*
D20*
X268288Y174625D03*
X400141Y291216D03*
X405058Y272278D03*
D25*
X400050Y291125D02*
X400141Y291216D01*
X400050Y291125D02*
X400050Y277285D01*
X405058Y272278D01*
D20*
X455613Y336550D03*
D21*
X432031Y336550D02*
X424656Y329175D01*
X432031Y336550D02*
X455613Y336550D01*
D20*
X204788Y211931D03*
D21*
X257969Y265113D01*
X360594Y265113D02*
X424656Y329175D01*
X360594Y265113D02*
X257969Y265113D01*
D20*
X474663Y303213D03*
D25*
X480219Y297656D01*
X480219Y265113D01*
D20*
X480219Y265113D03*
D21*
X438819Y312175D02*
X443350Y316706D01*
X438819Y312175D02*
X424656Y312175D01*
M02*
