G04 EAGLE Gerber RS-274X export*
G75*
%MOMM*%
%FSLAX34Y34*%
%LPD*%
%IN*%
%IPPOS*%
%AMOC8*
5,1,8,0,0,1.08239X$1,22.5*%
G01*
%ADD10C,0.254000*%


D10*
X-775Y116600D02*
X149225Y30000D01*
X299225Y116600D01*
X449225Y30000D01*
X599225Y116600D01*
X599225Y289800D01*
X449225Y376400D01*
X299225Y289800D01*
X149225Y376400D01*
X-775Y289800D01*
X-775Y116600D01*
X549475Y203246D02*
X549540Y203986D01*
X549669Y204717D01*
X549861Y205433D01*
X550115Y206131D01*
X550428Y206804D01*
X550799Y207446D01*
X551225Y208054D01*
X551702Y208623D01*
X552227Y209148D01*
X552796Y209625D01*
X553404Y210051D01*
X554046Y210422D01*
X554719Y210735D01*
X555417Y210989D01*
X556134Y211181D01*
X556864Y211310D01*
X557604Y211375D01*
X558346Y211375D01*
X559086Y211310D01*
X559817Y211181D01*
X560533Y210989D01*
X561231Y210735D01*
X561904Y210422D01*
X562546Y210051D01*
X563154Y209625D01*
X563723Y209148D01*
X564248Y208623D01*
X564725Y208054D01*
X565151Y207446D01*
X565522Y206804D01*
X565835Y206131D01*
X566089Y205433D01*
X566281Y204717D01*
X566410Y203986D01*
X566475Y203246D01*
X566475Y202504D01*
X566410Y201764D01*
X566281Y201034D01*
X566089Y200317D01*
X565835Y199619D01*
X565522Y198946D01*
X565151Y198304D01*
X564725Y197696D01*
X564248Y197127D01*
X563723Y196602D01*
X563154Y196125D01*
X562546Y195699D01*
X561904Y195328D01*
X561231Y195015D01*
X560533Y194761D01*
X559817Y194569D01*
X559086Y194440D01*
X558346Y194375D01*
X557604Y194375D01*
X556864Y194440D01*
X556134Y194569D01*
X555417Y194761D01*
X554719Y195015D01*
X554046Y195328D01*
X553404Y195699D01*
X552796Y196125D01*
X552227Y196602D01*
X551702Y197127D01*
X551225Y197696D01*
X550799Y198304D01*
X550428Y198946D01*
X550115Y199619D01*
X549861Y200317D01*
X549669Y201034D01*
X549540Y201764D01*
X549475Y202504D01*
X549475Y203246D01*
X479475Y203246D02*
X479540Y203986D01*
X479669Y204717D01*
X479861Y205433D01*
X480115Y206131D01*
X480428Y206804D01*
X480799Y207446D01*
X481225Y208054D01*
X481702Y208623D01*
X482227Y209148D01*
X482796Y209625D01*
X483404Y210051D01*
X484046Y210422D01*
X484719Y210735D01*
X485417Y210989D01*
X486134Y211181D01*
X486864Y211310D01*
X487604Y211375D01*
X488346Y211375D01*
X489086Y211310D01*
X489817Y211181D01*
X490533Y210989D01*
X491231Y210735D01*
X491904Y210422D01*
X492546Y210051D01*
X493154Y209625D01*
X493723Y209148D01*
X494248Y208623D01*
X494725Y208054D01*
X495151Y207446D01*
X495522Y206804D01*
X495835Y206131D01*
X496089Y205433D01*
X496281Y204717D01*
X496410Y203986D01*
X496475Y203246D01*
X496475Y202504D01*
X496410Y201764D01*
X496281Y201034D01*
X496089Y200317D01*
X495835Y199619D01*
X495522Y198946D01*
X495151Y198304D01*
X494725Y197696D01*
X494248Y197127D01*
X493723Y196602D01*
X493154Y196125D01*
X492546Y195699D01*
X491904Y195328D01*
X491231Y195015D01*
X490533Y194761D01*
X489817Y194569D01*
X489086Y194440D01*
X488346Y194375D01*
X487604Y194375D01*
X486864Y194440D01*
X486134Y194569D01*
X485417Y194761D01*
X484719Y195015D01*
X484046Y195328D01*
X483404Y195699D01*
X482796Y196125D01*
X482227Y196602D01*
X481702Y197127D01*
X481225Y197696D01*
X480799Y198304D01*
X480428Y198946D01*
X480115Y199619D01*
X479861Y200317D01*
X479669Y201034D01*
X479540Y201764D01*
X479475Y202504D01*
X479475Y203246D01*
M02*
