G04 EAGLE Gerber RS-274X export*
G75*
%MOMM*%
%FSLAX34Y34*%
%LPD*%
%INSilkscreen Top*%
%IPPOS*%
%AMOC8*
5,1,8,0,0,1.08239X$1,22.5*%
G01*
%ADD10R,0.751331X0.014731*%
%ADD11R,0.883919X0.014731*%
%ADD12R,1.001775X0.014731*%
%ADD13R,1.119631X0.014731*%
%ADD14R,1.134363X0.014731*%
%ADD15R,1.149094X0.014731*%
%ADD16R,1.163825X0.014731*%
%ADD17R,1.178556X0.014731*%
%ADD18R,1.193288X0.014731*%
%ADD19R,1.222756X0.014731*%
%ADD20R,1.237488X0.014731*%
%ADD21R,1.266950X0.014731*%
%ADD22R,1.281681X0.014731*%
%ADD23R,1.311144X0.014731*%
%ADD24R,1.325881X0.014731*%
%ADD25R,1.355344X0.014731*%
%ADD26R,1.370075X0.014731*%
%ADD27R,1.384806X0.014731*%
%ADD28R,1.399538X0.014731*%
%ADD29R,1.414275X0.014731*%
%ADD30R,1.443738X0.014731*%
%ADD31R,1.458469X0.014731*%
%ADD32R,1.487931X0.014731*%
%ADD33R,1.502663X0.014731*%
%ADD34R,1.517394X0.014731*%
%ADD35R,1.532125X0.014731*%
%ADD36R,1.546856X0.014731*%
%ADD37R,1.576319X0.014731*%
%ADD38R,1.605788X0.014731*%
%ADD39R,1.620519X0.014731*%
%ADD40R,1.649981X0.014731*%
%ADD41R,1.664713X0.014731*%
%ADD42R,1.694175X0.014731*%
%ADD43R,1.708913X0.014731*%
%ADD44R,1.738375X0.014731*%
%ADD45R,1.753106X0.014731*%
%ADD46R,1.767838X0.014731*%
%ADD47R,1.782569X0.014731*%
%ADD48R,1.797306X0.014731*%
%ADD49R,0.117856X0.014731*%
%ADD50R,1.826769X0.014731*%
%ADD51R,0.235713X0.014731*%
%ADD52R,0.353569X0.014731*%
%ADD53R,1.856231X0.014731*%
%ADD54R,0.486156X0.014731*%
%ADD55R,1.870963X0.014731*%
%ADD56R,0.604013X0.014731*%
%ADD57R,0.721869X0.014731*%
%ADD58R,1.885694X0.014731*%
%ADD59R,0.839719X0.014731*%
%ADD60R,0.972306X0.014731*%
%ADD61R,1.090169X0.014731*%
%ADD62R,1.208025X0.014731*%
%ADD63R,1.252219X0.014731*%
%ADD64R,1.296412X0.014731*%
%ADD65R,1.340612X0.014731*%
%ADD66R,1.826763X0.014731*%
%ADD67R,1.414269X0.014731*%
%ADD68R,1.812031X0.014731*%
%ADD69R,1.429000X0.014731*%
%ADD70R,1.458462X0.014731*%
%ADD71R,1.473200X0.014731*%
%ADD72R,1.723644X0.014731*%
%ADD73R,1.694181X0.014731*%
%ADD74R,1.679450X0.014731*%
%ADD75R,1.561594X0.014731*%
%ADD76R,1.576325X0.014731*%
%ADD77R,1.591056X0.014731*%
%ADD78R,1.635250X0.014731*%
%ADD79R,1.561588X0.014731*%
%ADD80R,1.443731X0.014731*%
%ADD81R,1.797300X0.014731*%
%ADD82R,1.841500X0.014731*%
%ADD83R,1.311150X0.014731*%
%ADD84R,1.296419X0.014731*%
%ADD85R,1.193294X0.014731*%
%ADD86R,0.957575X0.014731*%
%ADD87R,0.589281X0.014731*%
%ADD88R,0.471425X0.014731*%
%ADD89R,0.220975X0.014731*%
%ADD90R,1.812038X0.014731*%
%ADD91R,0.103119X0.014731*%
%ADD92R,0.029463X0.014731*%
%ADD93R,0.162050X0.014731*%
%ADD94R,0.265175X0.014731*%
%ADD95R,0.397763X0.014731*%
%ADD96R,0.515619X0.014731*%
%ADD97R,0.648206X0.014731*%
%ADD98R,1.679444X0.014731*%
%ADD99R,1.016506X0.014731*%
%ADD100R,1.104900X0.014731*%
%ADD101R,1.222750X0.014731*%
%ADD102R,1.434338X0.014731*%
%ADD103R,1.208019X0.014731*%
%ADD104R,0.987044X0.014731*%
%ADD105R,0.854456X0.014731*%
%ADD106R,0.618744X0.014731*%
%ADD107R,0.500888X0.014731*%
%ADD108R,0.368300X0.014731*%
%ADD109R,0.132587X0.014731*%
%ADD110R,0.014731X0.014731*%
%ADD111R,1.664719X0.014731*%
%ADD112R,1.075438X0.014731*%
%ADD113R,0.942844X0.014731*%
%ADD114R,0.707131X0.014731*%
%ADD115R,0.456694X0.014731*%
%ADD116R,0.088388X0.014731*%
%ADD117C,0.152400*%
%ADD118C,0.101600*%
%ADD119C,0.076200*%
%ADD120C,0.127000*%
%ADD121C,0.050800*%
%ADD122C,0.150000*%
%ADD123C,0.200000*%


D10*
X142154Y189078D03*
D11*
X141638Y189225D03*
D12*
X141196Y189372D03*
D13*
X140754Y189520D03*
D14*
X140680Y189667D03*
D15*
X140754Y189814D03*
D16*
X140828Y189962D03*
D17*
X140754Y190109D03*
D18*
X140828Y190256D03*
D19*
X140828Y190403D03*
D20*
X140901Y190551D03*
X140901Y190698D03*
D21*
X140901Y190845D03*
D22*
X140975Y190993D03*
D23*
X140975Y191140D03*
X140975Y191287D03*
D24*
X141049Y191435D03*
D25*
X141049Y191582D03*
D26*
X141122Y191729D03*
D27*
X141049Y191877D03*
D28*
X141122Y192024D03*
D29*
X141196Y192171D03*
D30*
X141196Y192319D03*
X141196Y192466D03*
D31*
X141270Y192613D03*
D32*
X141270Y192761D03*
D33*
X141343Y192908D03*
D34*
X141270Y193055D03*
D35*
X141343Y193203D03*
D36*
X141417Y193350D03*
D37*
X141417Y193497D03*
X141417Y193645D03*
D38*
X141417Y193792D03*
D39*
X141491Y193939D03*
X141491Y194086D03*
D40*
X141491Y194234D03*
D41*
X141564Y194381D03*
D42*
X141564Y194528D03*
X141564Y194676D03*
D43*
X141638Y194823D03*
D44*
X141638Y194970D03*
D45*
X141712Y195118D03*
D46*
X141638Y195265D03*
D47*
X141712Y195412D03*
D48*
X141785Y195560D03*
D49*
X162263Y195560D03*
D50*
X141785Y195707D03*
D51*
X161674Y195707D03*
D50*
X141785Y195854D03*
D52*
X161232Y195854D03*
D53*
X141785Y196002D03*
D54*
X160716Y196002D03*
D55*
X141859Y196149D03*
D56*
X160274Y196149D03*
D55*
X141859Y196296D03*
D57*
X159685Y196296D03*
D58*
X141785Y196444D03*
D59*
X159243Y196444D03*
D58*
X141785Y196591D03*
D60*
X158727Y196591D03*
D55*
X141712Y196738D03*
D61*
X158285Y196738D03*
D58*
X141638Y196886D03*
D13*
X158138Y196886D03*
D58*
X141638Y197033D03*
D15*
X158138Y197033D03*
D58*
X141491Y197180D03*
D16*
X158212Y197180D03*
D58*
X141491Y197328D03*
D17*
X158285Y197328D03*
D55*
X141417Y197475D03*
D18*
X158212Y197475D03*
D58*
X141343Y197622D03*
D62*
X158285Y197622D03*
D58*
X141343Y197769D03*
D20*
X158285Y197769D03*
D58*
X141196Y197917D03*
D63*
X158359Y197917D03*
D58*
X141196Y198064D03*
D63*
X158359Y198064D03*
D55*
X141122Y198211D03*
D22*
X158359Y198211D03*
D58*
X141049Y198359D03*
D64*
X158433Y198359D03*
D58*
X141049Y198506D03*
D24*
X158433Y198506D03*
D58*
X140901Y198653D03*
D24*
X158433Y198653D03*
D58*
X140901Y198801D03*
D65*
X158506Y198801D03*
D55*
X140828Y198948D03*
D26*
X158506Y198948D03*
D53*
X140901Y199095D03*
D27*
X158580Y199095D03*
D53*
X140901Y199243D03*
D28*
X158506Y199243D03*
D66*
X140901Y199390D03*
D67*
X158580Y199390D03*
D68*
X140975Y199537D03*
D69*
X158653Y199537D03*
D47*
X140975Y199685D03*
D70*
X158653Y199685D03*
D47*
X140975Y199832D03*
D70*
X158653Y199832D03*
D46*
X141049Y199979D03*
D71*
X158727Y199979D03*
D44*
X141049Y200127D03*
D33*
X158727Y200127D03*
D72*
X141122Y200274D03*
D33*
X158727Y200274D03*
D43*
X141049Y200421D03*
D35*
X158727Y200421D03*
D73*
X141122Y200569D03*
D36*
X158801Y200569D03*
D74*
X141196Y200716D03*
D75*
X158874Y200716D03*
D40*
X141196Y200863D03*
D76*
X158801Y200863D03*
D40*
X141196Y201011D03*
D77*
X158874Y201011D03*
D78*
X141270Y201158D03*
D39*
X158874Y201158D03*
D38*
X141270Y201305D03*
D78*
X158948Y201305D03*
D38*
X141270Y201452D03*
D78*
X158948Y201452D03*
D76*
X141270Y201600D03*
D41*
X158948Y201600D03*
D79*
X141343Y201747D03*
D74*
X159022Y201747D03*
D36*
X141417Y201894D03*
D43*
X159022Y201894D03*
D35*
X141343Y202042D03*
D43*
X159022Y202042D03*
D34*
X141417Y202189D03*
D72*
X159095Y202189D03*
D32*
X141417Y202336D03*
D45*
X159095Y202336D03*
D71*
X141491Y202484D03*
D46*
X159169Y202484D03*
D71*
X141491Y202631D03*
D47*
X159095Y202631D03*
D80*
X141491Y202778D03*
D81*
X159169Y202778D03*
D69*
X141564Y202926D03*
D68*
X159243Y202926D03*
D28*
X141564Y203073D03*
D82*
X159243Y203073D03*
D28*
X141564Y203220D03*
D82*
X159243Y203220D03*
D27*
X141638Y203368D03*
D55*
X159243Y203368D03*
D25*
X141638Y203515D03*
D58*
X159316Y203515D03*
D65*
X141712Y203662D03*
D55*
X159243Y203662D03*
D24*
X141638Y203810D03*
D58*
X159169Y203810D03*
D83*
X141712Y203957D03*
D58*
X159169Y203957D03*
D84*
X141785Y204104D03*
D55*
X159095Y204104D03*
D21*
X141785Y204252D03*
D58*
X159022Y204252D03*
D21*
X141785Y204399D03*
D58*
X159022Y204399D03*
D63*
X141859Y204546D03*
D58*
X158874Y204546D03*
D19*
X141859Y204694D03*
D58*
X158874Y204694D03*
D62*
X141933Y204841D03*
D55*
X158801Y204841D03*
D85*
X141859Y204988D03*
D58*
X158727Y204988D03*
D17*
X141933Y205135D03*
D58*
X158727Y205135D03*
D16*
X142006Y205283D03*
D58*
X158580Y205283D03*
D15*
X141933Y205430D03*
D58*
X158580Y205430D03*
D14*
X142006Y205577D03*
D55*
X158506Y205577D03*
D61*
X141933Y205725D03*
D58*
X158433Y205725D03*
D86*
X141417Y205872D03*
D58*
X158433Y205872D03*
D59*
X140828Y206019D03*
D58*
X158285Y206019D03*
D57*
X140386Y206167D03*
D58*
X158285Y206167D03*
D87*
X139870Y206314D03*
D53*
X158285Y206314D03*
D88*
X139428Y206461D03*
D82*
X158359Y206461D03*
D52*
X138839Y206609D03*
D82*
X158359Y206609D03*
D89*
X138323Y206756D03*
D90*
X158359Y206756D03*
D91*
X137881Y206903D03*
D48*
X158433Y206903D03*
D92*
X147678Y207051D03*
D47*
X158359Y207051D03*
D93*
X147163Y207198D03*
D46*
X158433Y207198D03*
D94*
X146647Y207345D03*
D45*
X158506Y207345D03*
D95*
X146131Y207493D03*
D72*
X158506Y207493D03*
D96*
X145689Y207640D03*
D72*
X158506Y207640D03*
D97*
X145174Y207787D03*
D73*
X158506Y207787D03*
D10*
X144658Y207935D03*
D98*
X158580Y207935D03*
D11*
X144142Y208082D03*
D41*
X158653Y208082D03*
D99*
X143627Y208229D03*
D40*
X158580Y208229D03*
D100*
X143185Y208377D03*
D78*
X158653Y208377D03*
D14*
X143185Y208524D03*
D39*
X158727Y208524D03*
D15*
X143259Y208671D03*
D77*
X158727Y208671D03*
D16*
X143332Y208818D03*
D77*
X158727Y208818D03*
D17*
X143259Y208966D03*
D79*
X158727Y208966D03*
D18*
X143332Y209113D03*
D36*
X158801Y209113D03*
D101*
X143332Y209260D03*
D35*
X158874Y209260D03*
D20*
X143406Y209408D03*
D34*
X158801Y209408D03*
D20*
X143406Y209555D03*
D33*
X158874Y209555D03*
D21*
X143406Y209702D03*
D71*
X158874Y209702D03*
D22*
X143480Y209850D03*
D31*
X158948Y209850D03*
D23*
X143480Y209997D03*
D31*
X158948Y209997D03*
D23*
X143480Y210144D03*
D102*
X158911Y210144D03*
D24*
X143553Y210292D03*
D67*
X159022Y210292D03*
D25*
X143553Y210439D03*
D27*
X159022Y210439D03*
D26*
X143627Y210586D03*
D27*
X159022Y210586D03*
X143553Y210734D03*
D26*
X159095Y210734D03*
D28*
X143627Y210881D03*
D65*
X159095Y210881D03*
D67*
X143701Y211028D03*
D65*
X159095Y211028D03*
D30*
X143701Y211176D03*
D83*
X159095Y211176D03*
D30*
X143701Y211323D03*
D64*
X159169Y211323D03*
D71*
X143701Y211470D03*
D22*
X159243Y211470D03*
D32*
X143774Y211618D03*
D21*
X159169Y211618D03*
D33*
X143848Y211765D03*
D63*
X159243Y211765D03*
D34*
X143774Y211912D03*
D19*
X159243Y211912D03*
D35*
X143848Y212060D03*
D103*
X159316Y212060D03*
D79*
X143848Y212207D03*
D103*
X159316Y212207D03*
D37*
X143921Y212354D03*
D17*
X159316Y212354D03*
D37*
X143921Y212501D03*
D16*
X159390Y212501D03*
D38*
X143921Y212649D03*
D15*
X159464Y212649D03*
D39*
X143995Y212796D03*
D14*
X159390Y212796D03*
D39*
X143995Y212943D03*
D100*
X159390Y212943D03*
D40*
X143995Y213091D03*
D104*
X158948Y213091D03*
D41*
X144069Y213238D03*
D105*
X158433Y213238D03*
D42*
X144069Y213385D03*
D10*
X157917Y213385D03*
D42*
X144069Y213533D03*
D106*
X157401Y213533D03*
D43*
X144142Y213680D03*
D107*
X156959Y213680D03*
D44*
X144142Y213827D03*
D108*
X156444Y213827D03*
D45*
X144216Y213975D03*
D94*
X155928Y213975D03*
D46*
X144142Y214122D03*
D109*
X155412Y214122D03*
D47*
X144216Y214269D03*
D110*
X154970Y214269D03*
D48*
X144290Y214417D03*
D50*
X144290Y214564D03*
X144290Y214711D03*
D53*
X144290Y214859D03*
D55*
X144363Y215006D03*
X144363Y215153D03*
D58*
X144290Y215301D03*
X144290Y215448D03*
X144142Y215595D03*
X144142Y215743D03*
D55*
X144069Y215890D03*
D58*
X143995Y216037D03*
X143995Y216184D03*
X143848Y216332D03*
X143848Y216479D03*
D55*
X143774Y216626D03*
D58*
X143701Y216774D03*
X143701Y216921D03*
D55*
X143627Y217068D03*
D58*
X143553Y217216D03*
X143553Y217363D03*
X143406Y217510D03*
X143406Y217658D03*
D55*
X143332Y217805D03*
D53*
X143406Y217952D03*
X143406Y218100D03*
D66*
X143406Y218247D03*
D68*
X143480Y218394D03*
D47*
X143480Y218542D03*
X143480Y218689D03*
D46*
X143553Y218836D03*
D44*
X143553Y218984D03*
D72*
X143627Y219131D03*
D43*
X143553Y219278D03*
D73*
X143627Y219426D03*
D74*
X143701Y219573D03*
D111*
X143627Y219720D03*
D40*
X143701Y219867D03*
D39*
X143701Y220015D03*
D38*
X143774Y220162D03*
X143774Y220309D03*
D76*
X143774Y220457D03*
D79*
X143848Y220604D03*
D35*
X143848Y220751D03*
X143848Y220899D03*
D34*
X143921Y221046D03*
D32*
X143921Y221193D03*
D71*
X143995Y221341D03*
X143995Y221488D03*
D80*
X143995Y221635D03*
D69*
X144069Y221783D03*
D28*
X144069Y221930D03*
X144069Y222077D03*
D27*
X144142Y222225D03*
D25*
X144142Y222372D03*
D65*
X144216Y222519D03*
D24*
X144142Y222667D03*
D83*
X144216Y222814D03*
D84*
X144290Y222961D03*
D21*
X144290Y223109D03*
X144290Y223256D03*
D20*
X144290Y223403D03*
D19*
X144363Y223550D03*
D62*
X144437Y223698D03*
D85*
X144363Y223845D03*
D17*
X144437Y223992D03*
D15*
X144437Y224140D03*
X144437Y224287D03*
D14*
X144511Y224434D03*
D112*
X144363Y224582D03*
D113*
X143848Y224729D03*
D59*
X143332Y224876D03*
D114*
X142817Y225024D03*
D87*
X142375Y225171D03*
D115*
X141859Y225318D03*
D52*
X141343Y225466D03*
D89*
X140828Y225613D03*
D116*
X140312Y225760D03*
D49*
X144813Y188232D03*
D51*
X144224Y188379D03*
D52*
X143782Y188526D03*
D54*
X143266Y188674D03*
D56*
X142824Y188821D03*
D57*
X142235Y188968D03*
D59*
X141793Y189116D03*
D60*
X141277Y189263D03*
D61*
X140835Y189410D03*
D13*
X140688Y189558D03*
D117*
X78550Y297625D02*
X78550Y315405D01*
X83488Y315405D01*
X83628Y315403D01*
X83767Y315397D01*
X83907Y315387D01*
X84046Y315373D01*
X84185Y315356D01*
X84323Y315334D01*
X84460Y315308D01*
X84597Y315279D01*
X84733Y315246D01*
X84867Y315209D01*
X85001Y315168D01*
X85133Y315123D01*
X85265Y315074D01*
X85394Y315022D01*
X85522Y314967D01*
X85649Y314907D01*
X85774Y314844D01*
X85897Y314778D01*
X86018Y314708D01*
X86137Y314635D01*
X86254Y314558D01*
X86368Y314478D01*
X86481Y314395D01*
X86591Y314309D01*
X86698Y314219D01*
X86803Y314127D01*
X86905Y314032D01*
X87005Y313934D01*
X87102Y313833D01*
X87196Y313729D01*
X87286Y313623D01*
X87374Y313514D01*
X87459Y313403D01*
X87540Y313289D01*
X87619Y313174D01*
X87694Y313056D01*
X87765Y312936D01*
X87833Y312813D01*
X87898Y312690D01*
X87959Y312564D01*
X88017Y312436D01*
X88071Y312308D01*
X88121Y312177D01*
X88168Y312045D01*
X88211Y311912D01*
X88250Y311778D01*
X88285Y311643D01*
X88316Y311507D01*
X88344Y311369D01*
X88367Y311232D01*
X88387Y311093D01*
X88403Y310954D01*
X88415Y310815D01*
X88423Y310676D01*
X88427Y310536D01*
X88427Y310396D01*
X88423Y310256D01*
X88415Y310117D01*
X88403Y309978D01*
X88387Y309839D01*
X88367Y309700D01*
X88344Y309563D01*
X88316Y309425D01*
X88285Y309289D01*
X88250Y309154D01*
X88211Y309020D01*
X88168Y308887D01*
X88121Y308755D01*
X88071Y308624D01*
X88017Y308496D01*
X87959Y308368D01*
X87898Y308242D01*
X87833Y308119D01*
X87765Y307997D01*
X87694Y307876D01*
X87619Y307758D01*
X87540Y307643D01*
X87459Y307529D01*
X87374Y307418D01*
X87286Y307309D01*
X87196Y307203D01*
X87102Y307099D01*
X87005Y306998D01*
X86905Y306900D01*
X86803Y306805D01*
X86698Y306713D01*
X86591Y306623D01*
X86481Y306537D01*
X86368Y306454D01*
X86254Y306374D01*
X86137Y306297D01*
X86018Y306224D01*
X85897Y306154D01*
X85774Y306088D01*
X85649Y306025D01*
X85522Y305965D01*
X85394Y305910D01*
X85265Y305858D01*
X85133Y305809D01*
X85001Y305764D01*
X84867Y305723D01*
X84733Y305686D01*
X84597Y305653D01*
X84460Y305624D01*
X84323Y305598D01*
X84185Y305576D01*
X84046Y305559D01*
X83907Y305545D01*
X83767Y305535D01*
X83628Y305529D01*
X83488Y305527D01*
X78550Y305527D01*
X94545Y311453D02*
X99483Y315405D01*
X99483Y297625D01*
X94545Y297625D02*
X104422Y297625D01*
X200746Y301110D02*
X200746Y307037D01*
X200746Y301110D02*
X204203Y296665D01*
X200746Y301110D02*
X197289Y296665D01*
X200746Y301110D02*
X206179Y303086D01*
X200746Y301110D02*
X195313Y303086D01*
X213871Y294196D02*
X213871Y311976D01*
X218810Y311976D01*
X218950Y311974D01*
X219089Y311968D01*
X219229Y311958D01*
X219368Y311944D01*
X219507Y311927D01*
X219645Y311905D01*
X219782Y311879D01*
X219919Y311850D01*
X220055Y311817D01*
X220189Y311780D01*
X220323Y311739D01*
X220455Y311694D01*
X220587Y311645D01*
X220716Y311593D01*
X220844Y311538D01*
X220971Y311478D01*
X221096Y311415D01*
X221219Y311349D01*
X221340Y311279D01*
X221459Y311206D01*
X221576Y311129D01*
X221690Y311049D01*
X221803Y310966D01*
X221913Y310880D01*
X222020Y310790D01*
X222125Y310698D01*
X222227Y310603D01*
X222327Y310505D01*
X222424Y310404D01*
X222518Y310300D01*
X222608Y310194D01*
X222696Y310085D01*
X222781Y309974D01*
X222862Y309860D01*
X222941Y309745D01*
X223016Y309627D01*
X223087Y309507D01*
X223155Y309384D01*
X223220Y309261D01*
X223281Y309135D01*
X223339Y309007D01*
X223393Y308879D01*
X223443Y308748D01*
X223490Y308616D01*
X223533Y308483D01*
X223572Y308349D01*
X223607Y308214D01*
X223638Y308078D01*
X223666Y307940D01*
X223689Y307803D01*
X223709Y307664D01*
X223725Y307525D01*
X223737Y307386D01*
X223745Y307247D01*
X223749Y307107D01*
X223749Y306967D01*
X223745Y306827D01*
X223737Y306688D01*
X223725Y306549D01*
X223709Y306410D01*
X223689Y306271D01*
X223666Y306134D01*
X223638Y305996D01*
X223607Y305860D01*
X223572Y305725D01*
X223533Y305591D01*
X223490Y305458D01*
X223443Y305326D01*
X223393Y305195D01*
X223339Y305067D01*
X223281Y304939D01*
X223220Y304813D01*
X223155Y304690D01*
X223087Y304568D01*
X223016Y304447D01*
X222941Y304329D01*
X222862Y304214D01*
X222781Y304100D01*
X222696Y303989D01*
X222608Y303880D01*
X222518Y303774D01*
X222424Y303670D01*
X222327Y303569D01*
X222227Y303471D01*
X222125Y303376D01*
X222020Y303284D01*
X221913Y303194D01*
X221803Y303108D01*
X221690Y303025D01*
X221576Y302945D01*
X221459Y302868D01*
X221340Y302795D01*
X221219Y302725D01*
X221096Y302659D01*
X220971Y302596D01*
X220844Y302536D01*
X220716Y302481D01*
X220587Y302429D01*
X220455Y302380D01*
X220323Y302335D01*
X220189Y302294D01*
X220055Y302257D01*
X219919Y302224D01*
X219782Y302195D01*
X219645Y302169D01*
X219507Y302147D01*
X219368Y302130D01*
X219229Y302116D01*
X219089Y302106D01*
X218950Y302100D01*
X218810Y302098D01*
X213871Y302098D01*
X235299Y311976D02*
X235431Y311974D01*
X235562Y311968D01*
X235694Y311958D01*
X235825Y311945D01*
X235955Y311927D01*
X236085Y311906D01*
X236215Y311881D01*
X236343Y311852D01*
X236471Y311819D01*
X236597Y311782D01*
X236723Y311742D01*
X236847Y311698D01*
X236970Y311650D01*
X237091Y311599D01*
X237211Y311544D01*
X237329Y311486D01*
X237445Y311424D01*
X237559Y311358D01*
X237672Y311290D01*
X237782Y311218D01*
X237890Y311143D01*
X237996Y311064D01*
X238100Y310983D01*
X238201Y310898D01*
X238299Y310811D01*
X238395Y310720D01*
X238488Y310627D01*
X238579Y310531D01*
X238666Y310433D01*
X238751Y310332D01*
X238832Y310228D01*
X238911Y310122D01*
X238986Y310014D01*
X239058Y309904D01*
X239126Y309791D01*
X239192Y309677D01*
X239254Y309561D01*
X239312Y309443D01*
X239367Y309323D01*
X239418Y309202D01*
X239466Y309079D01*
X239510Y308955D01*
X239550Y308829D01*
X239587Y308703D01*
X239620Y308575D01*
X239649Y308447D01*
X239674Y308317D01*
X239695Y308187D01*
X239713Y308057D01*
X239726Y307926D01*
X239736Y307794D01*
X239742Y307663D01*
X239744Y307531D01*
X235299Y311976D02*
X235149Y311974D01*
X235000Y311968D01*
X234851Y311958D01*
X234702Y311945D01*
X234553Y311927D01*
X234405Y311906D01*
X234257Y311880D01*
X234111Y311851D01*
X233965Y311818D01*
X233820Y311781D01*
X233676Y311740D01*
X233533Y311696D01*
X233391Y311648D01*
X233251Y311596D01*
X233112Y311541D01*
X232974Y311482D01*
X232839Y311419D01*
X232704Y311353D01*
X232572Y311283D01*
X232442Y311210D01*
X232313Y311133D01*
X232186Y311053D01*
X232062Y310970D01*
X231940Y310884D01*
X231820Y310794D01*
X231703Y310701D01*
X231588Y310606D01*
X231475Y310507D01*
X231365Y310405D01*
X231258Y310301D01*
X231154Y310194D01*
X231052Y310084D01*
X230954Y309971D01*
X230858Y309856D01*
X230766Y309738D01*
X230676Y309618D01*
X230590Y309496D01*
X230507Y309372D01*
X230427Y309245D01*
X230351Y309117D01*
X230278Y308986D01*
X230208Y308853D01*
X230142Y308719D01*
X230080Y308583D01*
X230021Y308446D01*
X229965Y308307D01*
X229914Y308166D01*
X229866Y308025D01*
X238262Y304074D02*
X238358Y304167D01*
X238450Y304263D01*
X238540Y304362D01*
X238627Y304463D01*
X238712Y304566D01*
X238793Y304671D01*
X238871Y304779D01*
X238946Y304889D01*
X239019Y305001D01*
X239088Y305115D01*
X239154Y305231D01*
X239216Y305349D01*
X239275Y305468D01*
X239331Y305589D01*
X239384Y305712D01*
X239433Y305836D01*
X239478Y305961D01*
X239521Y306088D01*
X239559Y306215D01*
X239594Y306344D01*
X239625Y306473D01*
X239653Y306604D01*
X239677Y306735D01*
X239698Y306867D01*
X239714Y306999D01*
X239727Y307132D01*
X239737Y307265D01*
X239742Y307398D01*
X239744Y307531D01*
X238263Y304073D02*
X229867Y294196D01*
X239744Y294196D01*
X3143Y239998D02*
X3143Y222218D01*
X3143Y239998D02*
X8082Y239998D01*
X8222Y239996D01*
X8361Y239990D01*
X8501Y239980D01*
X8640Y239966D01*
X8779Y239949D01*
X8917Y239927D01*
X9054Y239901D01*
X9191Y239872D01*
X9327Y239839D01*
X9461Y239802D01*
X9595Y239761D01*
X9727Y239716D01*
X9859Y239667D01*
X9988Y239615D01*
X10116Y239560D01*
X10243Y239500D01*
X10368Y239437D01*
X10491Y239371D01*
X10612Y239301D01*
X10731Y239228D01*
X10848Y239151D01*
X10962Y239071D01*
X11075Y238988D01*
X11185Y238902D01*
X11292Y238812D01*
X11397Y238720D01*
X11499Y238625D01*
X11599Y238527D01*
X11696Y238426D01*
X11790Y238322D01*
X11880Y238216D01*
X11968Y238107D01*
X12053Y237996D01*
X12134Y237882D01*
X12213Y237767D01*
X12288Y237649D01*
X12359Y237529D01*
X12427Y237406D01*
X12492Y237283D01*
X12553Y237157D01*
X12611Y237029D01*
X12665Y236901D01*
X12715Y236770D01*
X12762Y236638D01*
X12805Y236505D01*
X12844Y236371D01*
X12879Y236236D01*
X12910Y236100D01*
X12938Y235962D01*
X12961Y235825D01*
X12981Y235686D01*
X12997Y235547D01*
X13009Y235408D01*
X13017Y235269D01*
X13021Y235129D01*
X13021Y234989D01*
X13017Y234849D01*
X13009Y234710D01*
X12997Y234571D01*
X12981Y234432D01*
X12961Y234293D01*
X12938Y234156D01*
X12910Y234018D01*
X12879Y233882D01*
X12844Y233747D01*
X12805Y233613D01*
X12762Y233480D01*
X12715Y233348D01*
X12665Y233217D01*
X12611Y233089D01*
X12553Y232961D01*
X12492Y232835D01*
X12427Y232712D01*
X12359Y232590D01*
X12288Y232469D01*
X12213Y232351D01*
X12134Y232236D01*
X12053Y232122D01*
X11968Y232011D01*
X11880Y231902D01*
X11790Y231796D01*
X11696Y231692D01*
X11599Y231591D01*
X11499Y231493D01*
X11397Y231398D01*
X11292Y231306D01*
X11185Y231216D01*
X11075Y231130D01*
X10962Y231047D01*
X10848Y230967D01*
X10731Y230890D01*
X10612Y230817D01*
X10491Y230747D01*
X10368Y230681D01*
X10243Y230618D01*
X10116Y230558D01*
X9988Y230503D01*
X9859Y230451D01*
X9727Y230402D01*
X9595Y230357D01*
X9461Y230316D01*
X9327Y230279D01*
X9191Y230246D01*
X9054Y230217D01*
X8917Y230191D01*
X8779Y230169D01*
X8640Y230152D01*
X8501Y230138D01*
X8361Y230128D01*
X8222Y230122D01*
X8082Y230120D01*
X3143Y230120D01*
X19138Y222218D02*
X25065Y222218D01*
X25189Y222220D01*
X25313Y222226D01*
X25437Y222236D01*
X25560Y222249D01*
X25683Y222267D01*
X25805Y222288D01*
X25927Y222313D01*
X26048Y222342D01*
X26167Y222375D01*
X26286Y222411D01*
X26403Y222452D01*
X26519Y222495D01*
X26634Y222543D01*
X26747Y222594D01*
X26859Y222649D01*
X26968Y222707D01*
X27076Y222768D01*
X27182Y222833D01*
X27286Y222901D01*
X27387Y222973D01*
X27487Y223047D01*
X27583Y223125D01*
X27678Y223205D01*
X27770Y223289D01*
X27859Y223375D01*
X27945Y223464D01*
X28029Y223556D01*
X28109Y223651D01*
X28187Y223747D01*
X28261Y223847D01*
X28333Y223948D01*
X28401Y224052D01*
X28466Y224158D01*
X28527Y224266D01*
X28585Y224375D01*
X28640Y224487D01*
X28691Y224600D01*
X28739Y224715D01*
X28782Y224831D01*
X28823Y224948D01*
X28859Y225067D01*
X28892Y225186D01*
X28921Y225307D01*
X28946Y225429D01*
X28967Y225551D01*
X28985Y225674D01*
X28998Y225797D01*
X29008Y225921D01*
X29014Y226045D01*
X29016Y226169D01*
X29016Y228145D01*
X29014Y228269D01*
X29008Y228393D01*
X28998Y228517D01*
X28985Y228640D01*
X28967Y228763D01*
X28946Y228885D01*
X28921Y229007D01*
X28892Y229128D01*
X28859Y229247D01*
X28823Y229366D01*
X28782Y229483D01*
X28739Y229599D01*
X28691Y229714D01*
X28640Y229827D01*
X28585Y229939D01*
X28527Y230048D01*
X28466Y230156D01*
X28401Y230262D01*
X28333Y230366D01*
X28261Y230467D01*
X28187Y230567D01*
X28109Y230663D01*
X28029Y230758D01*
X27945Y230850D01*
X27859Y230939D01*
X27770Y231025D01*
X27678Y231109D01*
X27583Y231189D01*
X27487Y231267D01*
X27387Y231341D01*
X27286Y231413D01*
X27182Y231481D01*
X27076Y231546D01*
X26968Y231607D01*
X26859Y231665D01*
X26747Y231720D01*
X26634Y231771D01*
X26519Y231819D01*
X26403Y231862D01*
X26286Y231903D01*
X26167Y231939D01*
X26048Y231972D01*
X25927Y232001D01*
X25805Y232026D01*
X25683Y232047D01*
X25560Y232065D01*
X25437Y232078D01*
X25313Y232088D01*
X25189Y232094D01*
X25065Y232096D01*
X19138Y232096D01*
X19138Y239998D01*
X29016Y239998D01*
X62675Y109823D02*
X62675Y92043D01*
X62675Y109823D02*
X67613Y109823D01*
X67753Y109821D01*
X67892Y109815D01*
X68032Y109805D01*
X68171Y109791D01*
X68310Y109774D01*
X68448Y109752D01*
X68585Y109726D01*
X68722Y109697D01*
X68858Y109664D01*
X68992Y109627D01*
X69126Y109586D01*
X69258Y109541D01*
X69390Y109492D01*
X69519Y109440D01*
X69647Y109385D01*
X69774Y109325D01*
X69899Y109262D01*
X70022Y109196D01*
X70143Y109126D01*
X70262Y109053D01*
X70379Y108976D01*
X70493Y108896D01*
X70606Y108813D01*
X70716Y108727D01*
X70823Y108637D01*
X70928Y108545D01*
X71030Y108450D01*
X71130Y108352D01*
X71227Y108251D01*
X71321Y108147D01*
X71411Y108041D01*
X71499Y107932D01*
X71584Y107821D01*
X71665Y107707D01*
X71744Y107592D01*
X71819Y107474D01*
X71890Y107354D01*
X71958Y107231D01*
X72023Y107108D01*
X72084Y106982D01*
X72142Y106854D01*
X72196Y106726D01*
X72246Y106595D01*
X72293Y106463D01*
X72336Y106330D01*
X72375Y106196D01*
X72410Y106061D01*
X72441Y105925D01*
X72469Y105787D01*
X72492Y105650D01*
X72512Y105511D01*
X72528Y105372D01*
X72540Y105233D01*
X72548Y105094D01*
X72552Y104954D01*
X72552Y104814D01*
X72548Y104674D01*
X72540Y104535D01*
X72528Y104396D01*
X72512Y104257D01*
X72492Y104118D01*
X72469Y103981D01*
X72441Y103843D01*
X72410Y103707D01*
X72375Y103572D01*
X72336Y103438D01*
X72293Y103305D01*
X72246Y103173D01*
X72196Y103042D01*
X72142Y102914D01*
X72084Y102786D01*
X72023Y102660D01*
X71958Y102537D01*
X71890Y102415D01*
X71819Y102294D01*
X71744Y102176D01*
X71665Y102061D01*
X71584Y101947D01*
X71499Y101836D01*
X71411Y101727D01*
X71321Y101621D01*
X71227Y101517D01*
X71130Y101416D01*
X71030Y101318D01*
X70928Y101223D01*
X70823Y101131D01*
X70716Y101041D01*
X70606Y100955D01*
X70493Y100872D01*
X70379Y100792D01*
X70262Y100715D01*
X70143Y100642D01*
X70022Y100572D01*
X69899Y100506D01*
X69774Y100443D01*
X69647Y100383D01*
X69519Y100328D01*
X69390Y100276D01*
X69258Y100227D01*
X69126Y100182D01*
X68992Y100141D01*
X68858Y100104D01*
X68722Y100071D01*
X68585Y100042D01*
X68448Y100016D01*
X68310Y99994D01*
X68171Y99977D01*
X68032Y99963D01*
X67892Y99953D01*
X67753Y99947D01*
X67613Y99945D01*
X62675Y99945D01*
X78670Y95994D02*
X82621Y109823D01*
X78670Y95994D02*
X88547Y95994D01*
X85584Y99945D02*
X85584Y92043D01*
X189675Y90456D02*
X189675Y108236D01*
X194613Y108236D01*
X194753Y108234D01*
X194892Y108228D01*
X195032Y108218D01*
X195171Y108204D01*
X195310Y108187D01*
X195448Y108165D01*
X195585Y108139D01*
X195722Y108110D01*
X195858Y108077D01*
X195992Y108040D01*
X196126Y107999D01*
X196258Y107954D01*
X196390Y107905D01*
X196519Y107853D01*
X196647Y107798D01*
X196774Y107738D01*
X196899Y107675D01*
X197022Y107609D01*
X197143Y107539D01*
X197262Y107466D01*
X197379Y107389D01*
X197493Y107309D01*
X197606Y107226D01*
X197716Y107140D01*
X197823Y107050D01*
X197928Y106958D01*
X198030Y106863D01*
X198130Y106765D01*
X198227Y106664D01*
X198321Y106560D01*
X198411Y106454D01*
X198499Y106345D01*
X198584Y106234D01*
X198665Y106120D01*
X198744Y106005D01*
X198819Y105887D01*
X198890Y105767D01*
X198958Y105644D01*
X199023Y105521D01*
X199084Y105395D01*
X199142Y105267D01*
X199196Y105139D01*
X199246Y105008D01*
X199293Y104876D01*
X199336Y104743D01*
X199375Y104609D01*
X199410Y104474D01*
X199441Y104338D01*
X199469Y104200D01*
X199492Y104063D01*
X199512Y103924D01*
X199528Y103785D01*
X199540Y103646D01*
X199548Y103507D01*
X199552Y103367D01*
X199552Y103227D01*
X199548Y103087D01*
X199540Y102948D01*
X199528Y102809D01*
X199512Y102670D01*
X199492Y102531D01*
X199469Y102394D01*
X199441Y102256D01*
X199410Y102120D01*
X199375Y101985D01*
X199336Y101851D01*
X199293Y101718D01*
X199246Y101586D01*
X199196Y101455D01*
X199142Y101327D01*
X199084Y101199D01*
X199023Y101073D01*
X198958Y100950D01*
X198890Y100828D01*
X198819Y100707D01*
X198744Y100589D01*
X198665Y100474D01*
X198584Y100360D01*
X198499Y100249D01*
X198411Y100140D01*
X198321Y100034D01*
X198227Y99930D01*
X198130Y99829D01*
X198030Y99731D01*
X197928Y99636D01*
X197823Y99544D01*
X197716Y99454D01*
X197606Y99368D01*
X197493Y99285D01*
X197379Y99205D01*
X197262Y99128D01*
X197143Y99055D01*
X197022Y98985D01*
X196899Y98919D01*
X196774Y98856D01*
X196647Y98796D01*
X196519Y98741D01*
X196390Y98689D01*
X196258Y98640D01*
X196126Y98595D01*
X195992Y98554D01*
X195858Y98517D01*
X195722Y98484D01*
X195585Y98455D01*
X195448Y98429D01*
X195310Y98407D01*
X195171Y98390D01*
X195032Y98376D01*
X194892Y98366D01*
X194753Y98360D01*
X194613Y98358D01*
X189675Y98358D01*
X205670Y90456D02*
X210608Y90456D01*
X210748Y90458D01*
X210887Y90464D01*
X211027Y90474D01*
X211166Y90488D01*
X211305Y90505D01*
X211443Y90527D01*
X211580Y90553D01*
X211717Y90582D01*
X211853Y90615D01*
X211987Y90652D01*
X212121Y90693D01*
X212253Y90738D01*
X212385Y90787D01*
X212514Y90839D01*
X212642Y90894D01*
X212769Y90954D01*
X212894Y91017D01*
X213017Y91083D01*
X213138Y91153D01*
X213257Y91226D01*
X213374Y91303D01*
X213488Y91383D01*
X213601Y91466D01*
X213711Y91552D01*
X213818Y91642D01*
X213923Y91734D01*
X214025Y91829D01*
X214125Y91927D01*
X214222Y92028D01*
X214316Y92132D01*
X214406Y92238D01*
X214494Y92347D01*
X214579Y92458D01*
X214660Y92572D01*
X214739Y92687D01*
X214814Y92805D01*
X214885Y92926D01*
X214953Y93048D01*
X215018Y93171D01*
X215079Y93297D01*
X215137Y93425D01*
X215191Y93553D01*
X215241Y93684D01*
X215288Y93816D01*
X215331Y93949D01*
X215370Y94083D01*
X215405Y94218D01*
X215436Y94354D01*
X215464Y94492D01*
X215487Y94629D01*
X215507Y94768D01*
X215523Y94907D01*
X215535Y95046D01*
X215543Y95185D01*
X215547Y95325D01*
X215547Y95465D01*
X215543Y95605D01*
X215535Y95744D01*
X215523Y95883D01*
X215507Y96022D01*
X215487Y96161D01*
X215464Y96298D01*
X215436Y96436D01*
X215405Y96572D01*
X215370Y96707D01*
X215331Y96841D01*
X215288Y96974D01*
X215241Y97106D01*
X215191Y97237D01*
X215137Y97365D01*
X215079Y97493D01*
X215018Y97619D01*
X214953Y97742D01*
X214885Y97865D01*
X214814Y97985D01*
X214739Y98103D01*
X214660Y98218D01*
X214579Y98332D01*
X214494Y98443D01*
X214406Y98552D01*
X214316Y98658D01*
X214222Y98762D01*
X214125Y98863D01*
X214025Y98961D01*
X213923Y99056D01*
X213818Y99148D01*
X213711Y99238D01*
X213601Y99324D01*
X213488Y99407D01*
X213374Y99487D01*
X213257Y99564D01*
X213138Y99637D01*
X213017Y99707D01*
X212894Y99773D01*
X212769Y99836D01*
X212642Y99896D01*
X212514Y99951D01*
X212385Y100003D01*
X212253Y100052D01*
X212121Y100097D01*
X211987Y100138D01*
X211853Y100175D01*
X211717Y100208D01*
X211580Y100237D01*
X211443Y100263D01*
X211305Y100285D01*
X211166Y100302D01*
X211027Y100316D01*
X210887Y100326D01*
X210748Y100332D01*
X210608Y100334D01*
X211596Y108236D02*
X205670Y108236D01*
X211596Y108236D02*
X211720Y108234D01*
X211844Y108228D01*
X211968Y108218D01*
X212091Y108205D01*
X212214Y108187D01*
X212336Y108166D01*
X212458Y108141D01*
X212579Y108112D01*
X212698Y108079D01*
X212817Y108043D01*
X212934Y108002D01*
X213050Y107959D01*
X213165Y107911D01*
X213278Y107860D01*
X213390Y107805D01*
X213499Y107747D01*
X213607Y107686D01*
X213713Y107621D01*
X213817Y107553D01*
X213918Y107481D01*
X214018Y107407D01*
X214114Y107329D01*
X214209Y107249D01*
X214301Y107165D01*
X214390Y107079D01*
X214476Y106990D01*
X214560Y106898D01*
X214640Y106803D01*
X214718Y106707D01*
X214792Y106607D01*
X214864Y106506D01*
X214932Y106402D01*
X214997Y106296D01*
X215058Y106188D01*
X215116Y106079D01*
X215171Y105967D01*
X215222Y105854D01*
X215270Y105739D01*
X215313Y105623D01*
X215354Y105506D01*
X215390Y105387D01*
X215423Y105268D01*
X215452Y105147D01*
X215477Y105025D01*
X215498Y104903D01*
X215516Y104780D01*
X215529Y104657D01*
X215539Y104533D01*
X215545Y104409D01*
X215547Y104285D01*
X215545Y104161D01*
X215539Y104037D01*
X215529Y103913D01*
X215516Y103790D01*
X215498Y103667D01*
X215477Y103545D01*
X215452Y103423D01*
X215423Y103302D01*
X215390Y103183D01*
X215354Y103064D01*
X215313Y102947D01*
X215270Y102831D01*
X215222Y102716D01*
X215171Y102603D01*
X215116Y102491D01*
X215058Y102382D01*
X214997Y102274D01*
X214932Y102168D01*
X214864Y102064D01*
X214792Y101963D01*
X214718Y101863D01*
X214640Y101767D01*
X214560Y101672D01*
X214476Y101580D01*
X214390Y101491D01*
X214301Y101405D01*
X214209Y101321D01*
X214114Y101241D01*
X214018Y101163D01*
X213918Y101089D01*
X213817Y101017D01*
X213713Y100949D01*
X213607Y100884D01*
X213499Y100823D01*
X213390Y100765D01*
X213278Y100710D01*
X213165Y100659D01*
X213050Y100611D01*
X212934Y100568D01*
X212817Y100527D01*
X212698Y100491D01*
X212579Y100458D01*
X212458Y100429D01*
X212336Y100404D01*
X212214Y100383D01*
X212091Y100365D01*
X211968Y100352D01*
X211844Y100342D01*
X211720Y100336D01*
X211596Y100334D01*
X207645Y100334D01*
X165573Y310071D02*
X165573Y327851D01*
X170512Y327851D01*
X170652Y327849D01*
X170791Y327843D01*
X170931Y327833D01*
X171070Y327819D01*
X171209Y327802D01*
X171347Y327780D01*
X171484Y327754D01*
X171621Y327725D01*
X171757Y327692D01*
X171891Y327655D01*
X172025Y327614D01*
X172157Y327569D01*
X172289Y327520D01*
X172418Y327468D01*
X172546Y327413D01*
X172673Y327353D01*
X172798Y327290D01*
X172921Y327224D01*
X173042Y327154D01*
X173161Y327081D01*
X173278Y327004D01*
X173392Y326924D01*
X173505Y326841D01*
X173615Y326755D01*
X173722Y326665D01*
X173827Y326573D01*
X173929Y326478D01*
X174029Y326380D01*
X174126Y326279D01*
X174220Y326175D01*
X174310Y326069D01*
X174398Y325960D01*
X174483Y325849D01*
X174564Y325735D01*
X174643Y325620D01*
X174718Y325502D01*
X174789Y325382D01*
X174857Y325259D01*
X174922Y325136D01*
X174983Y325010D01*
X175041Y324882D01*
X175095Y324754D01*
X175145Y324623D01*
X175192Y324491D01*
X175235Y324358D01*
X175274Y324224D01*
X175309Y324089D01*
X175340Y323953D01*
X175368Y323815D01*
X175391Y323678D01*
X175411Y323539D01*
X175427Y323400D01*
X175439Y323261D01*
X175447Y323122D01*
X175451Y322982D01*
X175451Y322842D01*
X175447Y322702D01*
X175439Y322563D01*
X175427Y322424D01*
X175411Y322285D01*
X175391Y322146D01*
X175368Y322009D01*
X175340Y321871D01*
X175309Y321735D01*
X175274Y321600D01*
X175235Y321466D01*
X175192Y321333D01*
X175145Y321201D01*
X175095Y321070D01*
X175041Y320942D01*
X174983Y320814D01*
X174922Y320688D01*
X174857Y320565D01*
X174789Y320443D01*
X174718Y320322D01*
X174643Y320204D01*
X174564Y320089D01*
X174483Y319975D01*
X174398Y319864D01*
X174310Y319755D01*
X174220Y319649D01*
X174126Y319545D01*
X174029Y319444D01*
X173929Y319346D01*
X173827Y319251D01*
X173722Y319159D01*
X173615Y319069D01*
X173505Y318983D01*
X173392Y318900D01*
X173278Y318820D01*
X173161Y318743D01*
X173042Y318670D01*
X172921Y318600D01*
X172798Y318534D01*
X172673Y318471D01*
X172546Y318411D01*
X172418Y318356D01*
X172289Y318304D01*
X172157Y318255D01*
X172025Y318210D01*
X171891Y318169D01*
X171757Y318132D01*
X171621Y318099D01*
X171484Y318070D01*
X171347Y318044D01*
X171209Y318022D01*
X171070Y318005D01*
X170931Y317991D01*
X170791Y317981D01*
X170652Y317975D01*
X170512Y317973D01*
X165573Y317973D01*
X171499Y317973D02*
X175451Y310071D01*
X35652Y144431D02*
X31701Y144431D01*
X31577Y144433D01*
X31453Y144439D01*
X31329Y144449D01*
X31206Y144462D01*
X31083Y144480D01*
X30961Y144501D01*
X30839Y144526D01*
X30718Y144555D01*
X30599Y144588D01*
X30480Y144624D01*
X30363Y144665D01*
X30247Y144708D01*
X30132Y144756D01*
X30019Y144807D01*
X29907Y144862D01*
X29798Y144920D01*
X29690Y144981D01*
X29584Y145046D01*
X29480Y145114D01*
X29379Y145186D01*
X29279Y145260D01*
X29183Y145338D01*
X29088Y145418D01*
X28996Y145502D01*
X28907Y145588D01*
X28821Y145677D01*
X28737Y145769D01*
X28657Y145864D01*
X28579Y145960D01*
X28505Y146060D01*
X28433Y146161D01*
X28365Y146265D01*
X28300Y146371D01*
X28239Y146479D01*
X28181Y146588D01*
X28126Y146700D01*
X28075Y146813D01*
X28027Y146928D01*
X27984Y147044D01*
X27943Y147161D01*
X27907Y147280D01*
X27874Y147399D01*
X27845Y147520D01*
X27820Y147642D01*
X27799Y147764D01*
X27781Y147887D01*
X27768Y148010D01*
X27758Y148134D01*
X27752Y148258D01*
X27750Y148382D01*
X27750Y158260D01*
X27752Y158384D01*
X27758Y158508D01*
X27768Y158632D01*
X27781Y158755D01*
X27799Y158878D01*
X27820Y159000D01*
X27845Y159122D01*
X27874Y159243D01*
X27907Y159362D01*
X27943Y159481D01*
X27984Y159598D01*
X28027Y159714D01*
X28075Y159829D01*
X28126Y159942D01*
X28181Y160054D01*
X28239Y160163D01*
X28300Y160271D01*
X28365Y160377D01*
X28433Y160481D01*
X28505Y160582D01*
X28579Y160682D01*
X28657Y160778D01*
X28737Y160873D01*
X28821Y160965D01*
X28907Y161054D01*
X28996Y161140D01*
X29088Y161224D01*
X29183Y161304D01*
X29279Y161382D01*
X29379Y161456D01*
X29480Y161528D01*
X29584Y161596D01*
X29690Y161661D01*
X29798Y161722D01*
X29907Y161780D01*
X30019Y161835D01*
X30132Y161886D01*
X30247Y161934D01*
X30363Y161977D01*
X30480Y162018D01*
X30599Y162054D01*
X30718Y162087D01*
X30839Y162116D01*
X30961Y162141D01*
X31083Y162162D01*
X31206Y162180D01*
X31329Y162193D01*
X31453Y162203D01*
X31577Y162209D01*
X31701Y162211D01*
X35652Y162211D01*
X33482Y180502D02*
X28543Y180502D01*
X33482Y180502D02*
X33622Y180500D01*
X33761Y180494D01*
X33901Y180484D01*
X34040Y180470D01*
X34179Y180453D01*
X34317Y180431D01*
X34454Y180405D01*
X34591Y180376D01*
X34727Y180343D01*
X34861Y180306D01*
X34995Y180265D01*
X35127Y180220D01*
X35259Y180171D01*
X35388Y180119D01*
X35516Y180064D01*
X35643Y180004D01*
X35768Y179941D01*
X35891Y179875D01*
X36012Y179805D01*
X36131Y179732D01*
X36248Y179655D01*
X36362Y179575D01*
X36475Y179492D01*
X36585Y179406D01*
X36692Y179316D01*
X36797Y179224D01*
X36899Y179129D01*
X36999Y179031D01*
X37096Y178930D01*
X37190Y178826D01*
X37280Y178720D01*
X37368Y178611D01*
X37453Y178500D01*
X37534Y178386D01*
X37613Y178271D01*
X37688Y178153D01*
X37759Y178033D01*
X37827Y177910D01*
X37892Y177787D01*
X37953Y177661D01*
X38011Y177533D01*
X38065Y177405D01*
X38115Y177274D01*
X38162Y177142D01*
X38205Y177009D01*
X38244Y176875D01*
X38279Y176740D01*
X38310Y176604D01*
X38338Y176466D01*
X38361Y176329D01*
X38381Y176190D01*
X38397Y176051D01*
X38409Y175912D01*
X38417Y175773D01*
X38421Y175633D01*
X38421Y175493D01*
X38417Y175353D01*
X38409Y175214D01*
X38397Y175075D01*
X38381Y174936D01*
X38361Y174797D01*
X38338Y174660D01*
X38310Y174522D01*
X38279Y174386D01*
X38244Y174251D01*
X38205Y174117D01*
X38162Y173984D01*
X38115Y173852D01*
X38065Y173721D01*
X38011Y173593D01*
X37953Y173465D01*
X37892Y173339D01*
X37827Y173216D01*
X37759Y173094D01*
X37688Y172973D01*
X37613Y172855D01*
X37534Y172740D01*
X37453Y172626D01*
X37368Y172515D01*
X37280Y172406D01*
X37190Y172300D01*
X37096Y172196D01*
X36999Y172095D01*
X36899Y171997D01*
X36797Y171902D01*
X36692Y171810D01*
X36585Y171720D01*
X36475Y171634D01*
X36362Y171551D01*
X36248Y171471D01*
X36131Y171394D01*
X36012Y171321D01*
X35891Y171251D01*
X35768Y171185D01*
X35643Y171122D01*
X35516Y171062D01*
X35388Y171007D01*
X35259Y170955D01*
X35127Y170906D01*
X34995Y170861D01*
X34861Y170820D01*
X34727Y170783D01*
X34591Y170750D01*
X34454Y170721D01*
X34317Y170695D01*
X34179Y170673D01*
X34040Y170656D01*
X33901Y170642D01*
X33761Y170632D01*
X33622Y170626D01*
X33482Y170624D01*
X33482Y170625D02*
X28543Y170625D01*
X28543Y188405D01*
X33482Y188405D01*
X33482Y188404D02*
X33606Y188402D01*
X33730Y188396D01*
X33854Y188386D01*
X33977Y188373D01*
X34100Y188355D01*
X34222Y188334D01*
X34344Y188309D01*
X34465Y188280D01*
X34584Y188247D01*
X34703Y188211D01*
X34820Y188170D01*
X34936Y188127D01*
X35051Y188079D01*
X35164Y188028D01*
X35276Y187973D01*
X35385Y187915D01*
X35493Y187854D01*
X35599Y187789D01*
X35703Y187721D01*
X35804Y187649D01*
X35904Y187575D01*
X36000Y187497D01*
X36095Y187417D01*
X36187Y187333D01*
X36276Y187247D01*
X36362Y187158D01*
X36446Y187066D01*
X36526Y186971D01*
X36604Y186875D01*
X36678Y186775D01*
X36750Y186674D01*
X36818Y186570D01*
X36883Y186464D01*
X36944Y186356D01*
X37002Y186247D01*
X37057Y186135D01*
X37108Y186022D01*
X37156Y185907D01*
X37199Y185791D01*
X37240Y185674D01*
X37276Y185555D01*
X37309Y185436D01*
X37338Y185315D01*
X37363Y185193D01*
X37384Y185071D01*
X37402Y184948D01*
X37415Y184825D01*
X37425Y184701D01*
X37431Y184577D01*
X37433Y184453D01*
X37431Y184329D01*
X37425Y184205D01*
X37415Y184081D01*
X37402Y183958D01*
X37384Y183835D01*
X37363Y183713D01*
X37338Y183591D01*
X37309Y183470D01*
X37276Y183351D01*
X37240Y183232D01*
X37199Y183115D01*
X37156Y182999D01*
X37108Y182884D01*
X37057Y182771D01*
X37002Y182659D01*
X36944Y182550D01*
X36883Y182442D01*
X36818Y182336D01*
X36750Y182232D01*
X36678Y182131D01*
X36604Y182031D01*
X36526Y181935D01*
X36446Y181840D01*
X36362Y181748D01*
X36276Y181659D01*
X36187Y181573D01*
X36095Y181489D01*
X36000Y181409D01*
X35904Y181331D01*
X35804Y181257D01*
X35703Y181185D01*
X35599Y181117D01*
X35493Y181052D01*
X35385Y180991D01*
X35276Y180933D01*
X35164Y180878D01*
X35051Y180827D01*
X34936Y180779D01*
X34820Y180736D01*
X34703Y180695D01*
X34584Y180659D01*
X34465Y180626D01*
X34344Y180597D01*
X34222Y180572D01*
X34100Y180551D01*
X33977Y180533D01*
X33854Y180520D01*
X33730Y180510D01*
X33606Y180504D01*
X33482Y180502D01*
X26956Y136811D02*
X26956Y119031D01*
X26956Y136811D02*
X31895Y136811D01*
X32034Y136809D01*
X32172Y136803D01*
X32310Y136794D01*
X32448Y136780D01*
X32585Y136763D01*
X32722Y136741D01*
X32859Y136716D01*
X32994Y136687D01*
X33129Y136654D01*
X33262Y136618D01*
X33395Y136578D01*
X33526Y136534D01*
X33656Y136486D01*
X33785Y136435D01*
X33912Y136380D01*
X34038Y136322D01*
X34162Y136260D01*
X34284Y136195D01*
X34404Y136126D01*
X34523Y136054D01*
X34639Y135979D01*
X34753Y135900D01*
X34865Y135818D01*
X34974Y135733D01*
X35082Y135646D01*
X35186Y135555D01*
X35288Y135461D01*
X35387Y135364D01*
X35484Y135265D01*
X35578Y135163D01*
X35669Y135059D01*
X35756Y134951D01*
X35841Y134842D01*
X35923Y134730D01*
X36002Y134616D01*
X36077Y134500D01*
X36149Y134381D01*
X36218Y134261D01*
X36283Y134139D01*
X36345Y134015D01*
X36403Y133889D01*
X36458Y133762D01*
X36509Y133633D01*
X36557Y133503D01*
X36601Y133372D01*
X36641Y133239D01*
X36677Y133106D01*
X36710Y132971D01*
X36739Y132836D01*
X36764Y132699D01*
X36786Y132562D01*
X36803Y132425D01*
X36817Y132287D01*
X36826Y132149D01*
X36832Y132011D01*
X36834Y131872D01*
X36834Y123970D01*
X36832Y123831D01*
X36826Y123693D01*
X36817Y123555D01*
X36803Y123417D01*
X36786Y123280D01*
X36764Y123143D01*
X36739Y123006D01*
X36710Y122871D01*
X36677Y122736D01*
X36641Y122603D01*
X36601Y122470D01*
X36557Y122339D01*
X36509Y122209D01*
X36458Y122080D01*
X36403Y121953D01*
X36345Y121827D01*
X36283Y121703D01*
X36218Y121581D01*
X36149Y121461D01*
X36077Y121342D01*
X36002Y121226D01*
X35923Y121112D01*
X35841Y121000D01*
X35756Y120891D01*
X35669Y120783D01*
X35578Y120679D01*
X35484Y120577D01*
X35387Y120478D01*
X35288Y120381D01*
X35186Y120287D01*
X35082Y120196D01*
X34974Y120109D01*
X34865Y120024D01*
X34753Y119942D01*
X34639Y119863D01*
X34523Y119788D01*
X34404Y119716D01*
X34284Y119647D01*
X34162Y119582D01*
X34038Y119520D01*
X33912Y119462D01*
X33785Y119407D01*
X33656Y119356D01*
X33526Y119308D01*
X33395Y119264D01*
X33262Y119224D01*
X33129Y119188D01*
X32994Y119155D01*
X32859Y119126D01*
X32722Y119101D01*
X32585Y119079D01*
X32448Y119062D01*
X32310Y119048D01*
X32172Y119039D01*
X32034Y119033D01*
X31895Y119031D01*
X26956Y119031D01*
D118*
X135446Y344202D02*
X138691Y344202D01*
X138691Y344201D02*
X138804Y344203D01*
X138917Y344209D01*
X139030Y344219D01*
X139143Y344233D01*
X139255Y344250D01*
X139366Y344272D01*
X139476Y344297D01*
X139586Y344327D01*
X139694Y344360D01*
X139801Y344397D01*
X139907Y344437D01*
X140011Y344482D01*
X140114Y344530D01*
X140215Y344581D01*
X140314Y344636D01*
X140411Y344694D01*
X140506Y344756D01*
X140599Y344821D01*
X140689Y344889D01*
X140777Y344960D01*
X140863Y345035D01*
X140946Y345112D01*
X141026Y345192D01*
X141103Y345275D01*
X141178Y345361D01*
X141249Y345449D01*
X141317Y345539D01*
X141382Y345632D01*
X141444Y345727D01*
X141502Y345824D01*
X141557Y345923D01*
X141608Y346024D01*
X141656Y346127D01*
X141701Y346231D01*
X141741Y346337D01*
X141778Y346444D01*
X141811Y346552D01*
X141841Y346662D01*
X141866Y346772D01*
X141888Y346883D01*
X141905Y346995D01*
X141919Y347108D01*
X141929Y347221D01*
X141935Y347334D01*
X141937Y347447D01*
X141935Y347560D01*
X141929Y347673D01*
X141919Y347786D01*
X141905Y347899D01*
X141888Y348011D01*
X141866Y348122D01*
X141841Y348232D01*
X141811Y348342D01*
X141778Y348450D01*
X141741Y348557D01*
X141701Y348663D01*
X141656Y348767D01*
X141608Y348870D01*
X141557Y348971D01*
X141502Y349070D01*
X141444Y349167D01*
X141382Y349262D01*
X141317Y349355D01*
X141249Y349445D01*
X141178Y349533D01*
X141103Y349619D01*
X141026Y349702D01*
X140946Y349782D01*
X140863Y349859D01*
X140777Y349934D01*
X140689Y350005D01*
X140599Y350073D01*
X140506Y350138D01*
X140411Y350200D01*
X140314Y350258D01*
X140215Y350313D01*
X140114Y350364D01*
X140011Y350412D01*
X139907Y350457D01*
X139801Y350497D01*
X139694Y350534D01*
X139586Y350567D01*
X139476Y350597D01*
X139366Y350622D01*
X139255Y350644D01*
X139143Y350661D01*
X139030Y350675D01*
X138917Y350685D01*
X138804Y350691D01*
X138691Y350693D01*
X139340Y355886D02*
X135446Y355886D01*
X139340Y355885D02*
X139441Y355883D01*
X139541Y355877D01*
X139641Y355867D01*
X139741Y355854D01*
X139840Y355836D01*
X139939Y355815D01*
X140036Y355790D01*
X140133Y355761D01*
X140228Y355728D01*
X140322Y355692D01*
X140414Y355652D01*
X140505Y355609D01*
X140594Y355562D01*
X140681Y355512D01*
X140767Y355458D01*
X140850Y355401D01*
X140930Y355341D01*
X141009Y355278D01*
X141085Y355211D01*
X141158Y355142D01*
X141228Y355070D01*
X141296Y354996D01*
X141361Y354919D01*
X141422Y354839D01*
X141481Y354757D01*
X141536Y354673D01*
X141588Y354587D01*
X141637Y354499D01*
X141682Y354409D01*
X141724Y354317D01*
X141762Y354224D01*
X141796Y354129D01*
X141827Y354034D01*
X141854Y353937D01*
X141877Y353839D01*
X141897Y353740D01*
X141912Y353640D01*
X141924Y353540D01*
X141932Y353440D01*
X141936Y353339D01*
X141936Y353239D01*
X141932Y353138D01*
X141924Y353038D01*
X141912Y352938D01*
X141897Y352838D01*
X141877Y352739D01*
X141854Y352641D01*
X141827Y352544D01*
X141796Y352449D01*
X141762Y352354D01*
X141724Y352261D01*
X141682Y352169D01*
X141637Y352079D01*
X141588Y351991D01*
X141536Y351905D01*
X141481Y351821D01*
X141422Y351739D01*
X141361Y351659D01*
X141296Y351582D01*
X141228Y351508D01*
X141158Y351436D01*
X141085Y351367D01*
X141009Y351300D01*
X140930Y351237D01*
X140850Y351177D01*
X140767Y351120D01*
X140681Y351066D01*
X140594Y351016D01*
X140505Y350969D01*
X140414Y350926D01*
X140322Y350886D01*
X140228Y350850D01*
X140133Y350817D01*
X140036Y350788D01*
X139939Y350763D01*
X139840Y350742D01*
X139741Y350724D01*
X139641Y350711D01*
X139541Y350701D01*
X139441Y350695D01*
X139340Y350693D01*
X136744Y350693D01*
X146226Y355886D02*
X150121Y344202D01*
X154016Y355886D01*
X158305Y344202D02*
X161551Y344202D01*
X161551Y344201D02*
X161664Y344203D01*
X161777Y344209D01*
X161890Y344219D01*
X162003Y344233D01*
X162115Y344250D01*
X162226Y344272D01*
X162336Y344297D01*
X162446Y344327D01*
X162554Y344360D01*
X162661Y344397D01*
X162767Y344437D01*
X162871Y344482D01*
X162974Y344530D01*
X163075Y344581D01*
X163174Y344636D01*
X163271Y344694D01*
X163366Y344756D01*
X163459Y344821D01*
X163549Y344889D01*
X163637Y344960D01*
X163723Y345035D01*
X163806Y345112D01*
X163886Y345192D01*
X163963Y345275D01*
X164038Y345361D01*
X164109Y345449D01*
X164177Y345539D01*
X164242Y345632D01*
X164304Y345727D01*
X164362Y345824D01*
X164417Y345923D01*
X164468Y346024D01*
X164516Y346127D01*
X164561Y346231D01*
X164601Y346337D01*
X164638Y346444D01*
X164671Y346552D01*
X164701Y346662D01*
X164726Y346772D01*
X164748Y346883D01*
X164765Y346995D01*
X164779Y347108D01*
X164789Y347221D01*
X164795Y347334D01*
X164797Y347447D01*
X164795Y347560D01*
X164789Y347673D01*
X164779Y347786D01*
X164765Y347899D01*
X164748Y348011D01*
X164726Y348122D01*
X164701Y348232D01*
X164671Y348342D01*
X164638Y348450D01*
X164601Y348557D01*
X164561Y348663D01*
X164516Y348767D01*
X164468Y348870D01*
X164417Y348971D01*
X164362Y349070D01*
X164304Y349167D01*
X164242Y349262D01*
X164177Y349355D01*
X164109Y349445D01*
X164038Y349533D01*
X163963Y349619D01*
X163886Y349702D01*
X163806Y349782D01*
X163723Y349859D01*
X163637Y349934D01*
X163549Y350005D01*
X163459Y350073D01*
X163366Y350138D01*
X163271Y350200D01*
X163174Y350258D01*
X163075Y350313D01*
X162974Y350364D01*
X162871Y350412D01*
X162767Y350457D01*
X162661Y350497D01*
X162554Y350534D01*
X162446Y350567D01*
X162336Y350597D01*
X162226Y350622D01*
X162115Y350644D01*
X162003Y350661D01*
X161890Y350675D01*
X161777Y350685D01*
X161664Y350691D01*
X161551Y350693D01*
X162200Y355886D02*
X158305Y355886D01*
X162200Y355885D02*
X162301Y355883D01*
X162401Y355877D01*
X162501Y355867D01*
X162601Y355854D01*
X162700Y355836D01*
X162799Y355815D01*
X162896Y355790D01*
X162993Y355761D01*
X163088Y355728D01*
X163182Y355692D01*
X163274Y355652D01*
X163365Y355609D01*
X163454Y355562D01*
X163541Y355512D01*
X163627Y355458D01*
X163710Y355401D01*
X163790Y355341D01*
X163869Y355278D01*
X163945Y355211D01*
X164018Y355142D01*
X164088Y355070D01*
X164156Y354996D01*
X164221Y354919D01*
X164282Y354839D01*
X164341Y354757D01*
X164396Y354673D01*
X164448Y354587D01*
X164497Y354499D01*
X164542Y354409D01*
X164584Y354317D01*
X164622Y354224D01*
X164656Y354129D01*
X164687Y354034D01*
X164714Y353937D01*
X164737Y353839D01*
X164757Y353740D01*
X164772Y353640D01*
X164784Y353540D01*
X164792Y353440D01*
X164796Y353339D01*
X164796Y353239D01*
X164792Y353138D01*
X164784Y353038D01*
X164772Y352938D01*
X164757Y352838D01*
X164737Y352739D01*
X164714Y352641D01*
X164687Y352544D01*
X164656Y352449D01*
X164622Y352354D01*
X164584Y352261D01*
X164542Y352169D01*
X164497Y352079D01*
X164448Y351991D01*
X164396Y351905D01*
X164341Y351821D01*
X164282Y351739D01*
X164221Y351659D01*
X164156Y351582D01*
X164088Y351508D01*
X164018Y351436D01*
X163945Y351367D01*
X163869Y351300D01*
X163790Y351237D01*
X163710Y351177D01*
X163627Y351120D01*
X163541Y351066D01*
X163454Y351016D01*
X163365Y350969D01*
X163274Y350926D01*
X163182Y350886D01*
X163088Y350850D01*
X162993Y350817D01*
X162896Y350788D01*
X162799Y350763D01*
X162700Y350742D01*
X162601Y350724D01*
X162501Y350711D01*
X162401Y350701D01*
X162301Y350695D01*
X162200Y350693D01*
X159604Y350693D01*
X322771Y287846D02*
X326016Y287846D01*
X326016Y287845D02*
X326129Y287847D01*
X326242Y287853D01*
X326355Y287863D01*
X326468Y287877D01*
X326580Y287894D01*
X326691Y287916D01*
X326801Y287941D01*
X326911Y287971D01*
X327019Y288004D01*
X327126Y288041D01*
X327232Y288081D01*
X327336Y288126D01*
X327439Y288174D01*
X327540Y288225D01*
X327639Y288280D01*
X327736Y288338D01*
X327831Y288400D01*
X327924Y288465D01*
X328014Y288533D01*
X328102Y288604D01*
X328188Y288679D01*
X328271Y288756D01*
X328351Y288836D01*
X328428Y288919D01*
X328503Y289005D01*
X328574Y289093D01*
X328642Y289183D01*
X328707Y289276D01*
X328769Y289371D01*
X328827Y289468D01*
X328882Y289567D01*
X328933Y289668D01*
X328981Y289771D01*
X329026Y289875D01*
X329066Y289981D01*
X329103Y290088D01*
X329136Y290196D01*
X329166Y290306D01*
X329191Y290416D01*
X329213Y290527D01*
X329230Y290639D01*
X329244Y290752D01*
X329254Y290865D01*
X329260Y290978D01*
X329262Y291091D01*
X329260Y291204D01*
X329254Y291317D01*
X329244Y291430D01*
X329230Y291543D01*
X329213Y291655D01*
X329191Y291766D01*
X329166Y291876D01*
X329136Y291986D01*
X329103Y292094D01*
X329066Y292201D01*
X329026Y292307D01*
X328981Y292411D01*
X328933Y292514D01*
X328882Y292615D01*
X328827Y292714D01*
X328769Y292811D01*
X328707Y292906D01*
X328642Y292999D01*
X328574Y293089D01*
X328503Y293177D01*
X328428Y293263D01*
X328351Y293346D01*
X328271Y293426D01*
X328188Y293503D01*
X328102Y293578D01*
X328014Y293649D01*
X327924Y293717D01*
X327831Y293782D01*
X327736Y293844D01*
X327639Y293902D01*
X327540Y293957D01*
X327439Y294008D01*
X327336Y294056D01*
X327232Y294101D01*
X327126Y294141D01*
X327019Y294178D01*
X326911Y294211D01*
X326801Y294241D01*
X326691Y294266D01*
X326580Y294288D01*
X326468Y294305D01*
X326355Y294319D01*
X326242Y294329D01*
X326129Y294335D01*
X326016Y294337D01*
X326665Y299530D02*
X322771Y299530D01*
X326665Y299529D02*
X326766Y299527D01*
X326866Y299521D01*
X326966Y299511D01*
X327066Y299498D01*
X327165Y299480D01*
X327264Y299459D01*
X327361Y299434D01*
X327458Y299405D01*
X327553Y299372D01*
X327647Y299336D01*
X327739Y299296D01*
X327830Y299253D01*
X327919Y299206D01*
X328006Y299156D01*
X328092Y299102D01*
X328175Y299045D01*
X328255Y298985D01*
X328334Y298922D01*
X328410Y298855D01*
X328483Y298786D01*
X328553Y298714D01*
X328621Y298640D01*
X328686Y298563D01*
X328747Y298483D01*
X328806Y298401D01*
X328861Y298317D01*
X328913Y298231D01*
X328962Y298143D01*
X329007Y298053D01*
X329049Y297961D01*
X329087Y297868D01*
X329121Y297773D01*
X329152Y297678D01*
X329179Y297581D01*
X329202Y297483D01*
X329222Y297384D01*
X329237Y297284D01*
X329249Y297184D01*
X329257Y297084D01*
X329261Y296983D01*
X329261Y296883D01*
X329257Y296782D01*
X329249Y296682D01*
X329237Y296582D01*
X329222Y296482D01*
X329202Y296383D01*
X329179Y296285D01*
X329152Y296188D01*
X329121Y296093D01*
X329087Y295998D01*
X329049Y295905D01*
X329007Y295813D01*
X328962Y295723D01*
X328913Y295635D01*
X328861Y295549D01*
X328806Y295465D01*
X328747Y295383D01*
X328686Y295303D01*
X328621Y295226D01*
X328553Y295152D01*
X328483Y295080D01*
X328410Y295011D01*
X328334Y294944D01*
X328255Y294881D01*
X328175Y294821D01*
X328092Y294764D01*
X328006Y294710D01*
X327919Y294660D01*
X327830Y294613D01*
X327739Y294570D01*
X327647Y294530D01*
X327553Y294494D01*
X327458Y294461D01*
X327361Y294432D01*
X327264Y294407D01*
X327165Y294386D01*
X327066Y294368D01*
X326966Y294355D01*
X326866Y294345D01*
X326766Y294339D01*
X326665Y294337D01*
X324069Y294337D01*
X333551Y299530D02*
X337446Y287846D01*
X341341Y299530D01*
X345630Y287846D02*
X348876Y287846D01*
X348876Y287845D02*
X348989Y287847D01*
X349102Y287853D01*
X349215Y287863D01*
X349328Y287877D01*
X349440Y287894D01*
X349551Y287916D01*
X349661Y287941D01*
X349771Y287971D01*
X349879Y288004D01*
X349986Y288041D01*
X350092Y288081D01*
X350196Y288126D01*
X350299Y288174D01*
X350400Y288225D01*
X350499Y288280D01*
X350596Y288338D01*
X350691Y288400D01*
X350784Y288465D01*
X350874Y288533D01*
X350962Y288604D01*
X351048Y288679D01*
X351131Y288756D01*
X351211Y288836D01*
X351288Y288919D01*
X351363Y289005D01*
X351434Y289093D01*
X351502Y289183D01*
X351567Y289276D01*
X351629Y289371D01*
X351687Y289468D01*
X351742Y289567D01*
X351793Y289668D01*
X351841Y289771D01*
X351886Y289875D01*
X351926Y289981D01*
X351963Y290088D01*
X351996Y290196D01*
X352026Y290306D01*
X352051Y290416D01*
X352073Y290527D01*
X352090Y290639D01*
X352104Y290752D01*
X352114Y290865D01*
X352120Y290978D01*
X352122Y291091D01*
X352120Y291204D01*
X352114Y291317D01*
X352104Y291430D01*
X352090Y291543D01*
X352073Y291655D01*
X352051Y291766D01*
X352026Y291876D01*
X351996Y291986D01*
X351963Y292094D01*
X351926Y292201D01*
X351886Y292307D01*
X351841Y292411D01*
X351793Y292514D01*
X351742Y292615D01*
X351687Y292714D01*
X351629Y292811D01*
X351567Y292906D01*
X351502Y292999D01*
X351434Y293089D01*
X351363Y293177D01*
X351288Y293263D01*
X351211Y293346D01*
X351131Y293426D01*
X351048Y293503D01*
X350962Y293578D01*
X350874Y293649D01*
X350784Y293717D01*
X350691Y293782D01*
X350596Y293844D01*
X350499Y293902D01*
X350400Y293957D01*
X350299Y294008D01*
X350196Y294056D01*
X350092Y294101D01*
X349986Y294141D01*
X349879Y294178D01*
X349771Y294211D01*
X349661Y294241D01*
X349551Y294266D01*
X349440Y294288D01*
X349328Y294305D01*
X349215Y294319D01*
X349102Y294329D01*
X348989Y294335D01*
X348876Y294337D01*
X349525Y299530D02*
X345630Y299530D01*
X349525Y299529D02*
X349626Y299527D01*
X349726Y299521D01*
X349826Y299511D01*
X349926Y299498D01*
X350025Y299480D01*
X350124Y299459D01*
X350221Y299434D01*
X350318Y299405D01*
X350413Y299372D01*
X350507Y299336D01*
X350599Y299296D01*
X350690Y299253D01*
X350779Y299206D01*
X350866Y299156D01*
X350952Y299102D01*
X351035Y299045D01*
X351115Y298985D01*
X351194Y298922D01*
X351270Y298855D01*
X351343Y298786D01*
X351413Y298714D01*
X351481Y298640D01*
X351546Y298563D01*
X351607Y298483D01*
X351666Y298401D01*
X351721Y298317D01*
X351773Y298231D01*
X351822Y298143D01*
X351867Y298053D01*
X351909Y297961D01*
X351947Y297868D01*
X351981Y297773D01*
X352012Y297678D01*
X352039Y297581D01*
X352062Y297483D01*
X352082Y297384D01*
X352097Y297284D01*
X352109Y297184D01*
X352117Y297084D01*
X352121Y296983D01*
X352121Y296883D01*
X352117Y296782D01*
X352109Y296682D01*
X352097Y296582D01*
X352082Y296482D01*
X352062Y296383D01*
X352039Y296285D01*
X352012Y296188D01*
X351981Y296093D01*
X351947Y295998D01*
X351909Y295905D01*
X351867Y295813D01*
X351822Y295723D01*
X351773Y295635D01*
X351721Y295549D01*
X351666Y295465D01*
X351607Y295383D01*
X351546Y295303D01*
X351481Y295226D01*
X351413Y295152D01*
X351343Y295080D01*
X351270Y295011D01*
X351194Y294944D01*
X351115Y294881D01*
X351035Y294821D01*
X350952Y294764D01*
X350866Y294710D01*
X350779Y294660D01*
X350690Y294613D01*
X350599Y294570D01*
X350507Y294530D01*
X350413Y294494D01*
X350318Y294461D01*
X350221Y294432D01*
X350124Y294407D01*
X350025Y294386D01*
X349926Y294368D01*
X349826Y294355D01*
X349726Y294345D01*
X349626Y294339D01*
X349525Y294337D01*
X346929Y294337D01*
X434689Y343408D02*
X437935Y343408D01*
X438048Y343410D01*
X438161Y343416D01*
X438274Y343426D01*
X438387Y343440D01*
X438499Y343457D01*
X438610Y343479D01*
X438720Y343504D01*
X438830Y343534D01*
X438938Y343567D01*
X439045Y343604D01*
X439151Y343644D01*
X439255Y343689D01*
X439358Y343737D01*
X439459Y343788D01*
X439558Y343843D01*
X439655Y343901D01*
X439750Y343963D01*
X439843Y344028D01*
X439933Y344096D01*
X440021Y344167D01*
X440107Y344242D01*
X440190Y344319D01*
X440270Y344399D01*
X440347Y344482D01*
X440422Y344568D01*
X440493Y344656D01*
X440561Y344746D01*
X440626Y344839D01*
X440688Y344934D01*
X440746Y345031D01*
X440801Y345130D01*
X440852Y345231D01*
X440900Y345334D01*
X440945Y345438D01*
X440985Y345544D01*
X441022Y345651D01*
X441055Y345759D01*
X441085Y345869D01*
X441110Y345979D01*
X441132Y346090D01*
X441149Y346202D01*
X441163Y346315D01*
X441173Y346428D01*
X441179Y346541D01*
X441181Y346654D01*
X441179Y346767D01*
X441173Y346880D01*
X441163Y346993D01*
X441149Y347106D01*
X441132Y347218D01*
X441110Y347329D01*
X441085Y347439D01*
X441055Y347549D01*
X441022Y347657D01*
X440985Y347764D01*
X440945Y347870D01*
X440900Y347974D01*
X440852Y348077D01*
X440801Y348178D01*
X440746Y348277D01*
X440688Y348374D01*
X440626Y348469D01*
X440561Y348562D01*
X440493Y348652D01*
X440422Y348740D01*
X440347Y348826D01*
X440270Y348909D01*
X440190Y348989D01*
X440107Y349066D01*
X440021Y349141D01*
X439933Y349212D01*
X439843Y349280D01*
X439750Y349345D01*
X439655Y349407D01*
X439558Y349465D01*
X439459Y349520D01*
X439358Y349571D01*
X439255Y349619D01*
X439151Y349664D01*
X439045Y349704D01*
X438938Y349741D01*
X438830Y349774D01*
X438720Y349804D01*
X438610Y349829D01*
X438499Y349851D01*
X438387Y349868D01*
X438274Y349882D01*
X438161Y349892D01*
X438048Y349898D01*
X437935Y349900D01*
X438584Y355092D02*
X434689Y355092D01*
X438584Y355092D02*
X438685Y355090D01*
X438785Y355084D01*
X438885Y355074D01*
X438985Y355061D01*
X439084Y355043D01*
X439183Y355022D01*
X439280Y354997D01*
X439377Y354968D01*
X439472Y354935D01*
X439566Y354899D01*
X439658Y354859D01*
X439749Y354816D01*
X439838Y354769D01*
X439925Y354719D01*
X440011Y354665D01*
X440094Y354608D01*
X440174Y354548D01*
X440253Y354485D01*
X440329Y354418D01*
X440402Y354349D01*
X440472Y354277D01*
X440540Y354203D01*
X440605Y354126D01*
X440666Y354046D01*
X440725Y353964D01*
X440780Y353880D01*
X440832Y353794D01*
X440881Y353706D01*
X440926Y353616D01*
X440968Y353524D01*
X441006Y353431D01*
X441040Y353336D01*
X441071Y353241D01*
X441098Y353144D01*
X441121Y353046D01*
X441141Y352947D01*
X441156Y352847D01*
X441168Y352747D01*
X441176Y352647D01*
X441180Y352546D01*
X441180Y352446D01*
X441176Y352345D01*
X441168Y352245D01*
X441156Y352145D01*
X441141Y352045D01*
X441121Y351946D01*
X441098Y351848D01*
X441071Y351751D01*
X441040Y351656D01*
X441006Y351561D01*
X440968Y351468D01*
X440926Y351376D01*
X440881Y351286D01*
X440832Y351198D01*
X440780Y351112D01*
X440725Y351028D01*
X440666Y350946D01*
X440605Y350866D01*
X440540Y350789D01*
X440472Y350715D01*
X440402Y350643D01*
X440329Y350574D01*
X440253Y350507D01*
X440174Y350444D01*
X440094Y350384D01*
X440011Y350327D01*
X439925Y350273D01*
X439838Y350223D01*
X439749Y350176D01*
X439658Y350133D01*
X439566Y350093D01*
X439472Y350057D01*
X439377Y350024D01*
X439280Y349995D01*
X439183Y349970D01*
X439084Y349949D01*
X438985Y349931D01*
X438885Y349918D01*
X438785Y349908D01*
X438685Y349902D01*
X438584Y349900D01*
X438584Y349899D02*
X435987Y349899D01*
X445470Y355092D02*
X449365Y343408D01*
X453259Y355092D01*
X457549Y343408D02*
X460795Y343408D01*
X460908Y343410D01*
X461021Y343416D01*
X461134Y343426D01*
X461247Y343440D01*
X461359Y343457D01*
X461470Y343479D01*
X461580Y343504D01*
X461690Y343534D01*
X461798Y343567D01*
X461905Y343604D01*
X462011Y343644D01*
X462115Y343689D01*
X462218Y343737D01*
X462319Y343788D01*
X462418Y343843D01*
X462515Y343901D01*
X462610Y343963D01*
X462703Y344028D01*
X462793Y344096D01*
X462881Y344167D01*
X462967Y344242D01*
X463050Y344319D01*
X463130Y344399D01*
X463207Y344482D01*
X463282Y344568D01*
X463353Y344656D01*
X463421Y344746D01*
X463486Y344839D01*
X463548Y344934D01*
X463606Y345031D01*
X463661Y345130D01*
X463712Y345231D01*
X463760Y345334D01*
X463805Y345438D01*
X463845Y345544D01*
X463882Y345651D01*
X463915Y345759D01*
X463945Y345869D01*
X463970Y345979D01*
X463992Y346090D01*
X464009Y346202D01*
X464023Y346315D01*
X464033Y346428D01*
X464039Y346541D01*
X464041Y346654D01*
X464039Y346767D01*
X464033Y346880D01*
X464023Y346993D01*
X464009Y347106D01*
X463992Y347218D01*
X463970Y347329D01*
X463945Y347439D01*
X463915Y347549D01*
X463882Y347657D01*
X463845Y347764D01*
X463805Y347870D01*
X463760Y347974D01*
X463712Y348077D01*
X463661Y348178D01*
X463606Y348277D01*
X463548Y348374D01*
X463486Y348469D01*
X463421Y348562D01*
X463353Y348652D01*
X463282Y348740D01*
X463207Y348826D01*
X463130Y348909D01*
X463050Y348989D01*
X462967Y349066D01*
X462881Y349141D01*
X462793Y349212D01*
X462703Y349280D01*
X462610Y349345D01*
X462515Y349407D01*
X462418Y349465D01*
X462319Y349520D01*
X462218Y349571D01*
X462115Y349619D01*
X462011Y349664D01*
X461905Y349704D01*
X461798Y349741D01*
X461690Y349774D01*
X461580Y349804D01*
X461470Y349829D01*
X461359Y349851D01*
X461247Y349868D01*
X461134Y349882D01*
X461021Y349892D01*
X460908Y349898D01*
X460795Y349900D01*
X461444Y355092D02*
X457549Y355092D01*
X461444Y355092D02*
X461545Y355090D01*
X461645Y355084D01*
X461745Y355074D01*
X461845Y355061D01*
X461944Y355043D01*
X462043Y355022D01*
X462140Y354997D01*
X462237Y354968D01*
X462332Y354935D01*
X462426Y354899D01*
X462518Y354859D01*
X462609Y354816D01*
X462698Y354769D01*
X462785Y354719D01*
X462871Y354665D01*
X462954Y354608D01*
X463034Y354548D01*
X463113Y354485D01*
X463189Y354418D01*
X463262Y354349D01*
X463332Y354277D01*
X463400Y354203D01*
X463465Y354126D01*
X463526Y354046D01*
X463585Y353964D01*
X463640Y353880D01*
X463692Y353794D01*
X463741Y353706D01*
X463786Y353616D01*
X463828Y353524D01*
X463866Y353431D01*
X463900Y353336D01*
X463931Y353241D01*
X463958Y353144D01*
X463981Y353046D01*
X464001Y352947D01*
X464016Y352847D01*
X464028Y352747D01*
X464036Y352647D01*
X464040Y352546D01*
X464040Y352446D01*
X464036Y352345D01*
X464028Y352245D01*
X464016Y352145D01*
X464001Y352045D01*
X463981Y351946D01*
X463958Y351848D01*
X463931Y351751D01*
X463900Y351656D01*
X463866Y351561D01*
X463828Y351468D01*
X463786Y351376D01*
X463741Y351286D01*
X463692Y351198D01*
X463640Y351112D01*
X463585Y351028D01*
X463526Y350946D01*
X463465Y350866D01*
X463400Y350789D01*
X463332Y350715D01*
X463262Y350643D01*
X463189Y350574D01*
X463113Y350507D01*
X463034Y350444D01*
X462954Y350384D01*
X462871Y350327D01*
X462785Y350273D01*
X462698Y350223D01*
X462609Y350176D01*
X462518Y350133D01*
X462426Y350093D01*
X462332Y350057D01*
X462237Y350024D01*
X462140Y349995D01*
X462043Y349970D01*
X461944Y349949D01*
X461845Y349931D01*
X461745Y349918D01*
X461645Y349908D01*
X461545Y349902D01*
X461444Y349900D01*
X461444Y349899D02*
X458847Y349899D01*
X576548Y274422D02*
X576548Y271177D01*
X576549Y274422D02*
X576547Y274535D01*
X576541Y274648D01*
X576531Y274761D01*
X576517Y274874D01*
X576500Y274986D01*
X576478Y275097D01*
X576453Y275207D01*
X576423Y275317D01*
X576390Y275425D01*
X576353Y275532D01*
X576313Y275638D01*
X576268Y275742D01*
X576220Y275845D01*
X576169Y275946D01*
X576114Y276045D01*
X576056Y276142D01*
X575994Y276237D01*
X575929Y276330D01*
X575861Y276420D01*
X575790Y276508D01*
X575715Y276594D01*
X575638Y276677D01*
X575558Y276757D01*
X575475Y276834D01*
X575389Y276909D01*
X575301Y276980D01*
X575211Y277048D01*
X575118Y277113D01*
X575023Y277175D01*
X574926Y277233D01*
X574827Y277288D01*
X574726Y277339D01*
X574623Y277387D01*
X574519Y277432D01*
X574413Y277472D01*
X574306Y277509D01*
X574198Y277542D01*
X574088Y277572D01*
X573978Y277597D01*
X573867Y277619D01*
X573755Y277636D01*
X573642Y277650D01*
X573529Y277660D01*
X573416Y277666D01*
X573303Y277668D01*
X573190Y277666D01*
X573077Y277660D01*
X572964Y277650D01*
X572851Y277636D01*
X572739Y277619D01*
X572628Y277597D01*
X572518Y277572D01*
X572408Y277542D01*
X572300Y277509D01*
X572193Y277472D01*
X572087Y277432D01*
X571983Y277387D01*
X571880Y277339D01*
X571779Y277288D01*
X571680Y277233D01*
X571583Y277175D01*
X571488Y277113D01*
X571395Y277048D01*
X571305Y276980D01*
X571217Y276909D01*
X571131Y276834D01*
X571048Y276757D01*
X570968Y276677D01*
X570891Y276594D01*
X570816Y276508D01*
X570745Y276420D01*
X570677Y276330D01*
X570612Y276237D01*
X570550Y276142D01*
X570492Y276045D01*
X570437Y275946D01*
X570386Y275845D01*
X570338Y275742D01*
X570293Y275638D01*
X570253Y275532D01*
X570216Y275425D01*
X570183Y275317D01*
X570153Y275207D01*
X570128Y275097D01*
X570106Y274986D01*
X570089Y274874D01*
X570075Y274761D01*
X570065Y274648D01*
X570059Y274535D01*
X570057Y274422D01*
X564864Y275071D02*
X564864Y271177D01*
X564865Y275071D02*
X564867Y275172D01*
X564873Y275272D01*
X564883Y275372D01*
X564896Y275472D01*
X564914Y275571D01*
X564935Y275670D01*
X564960Y275767D01*
X564989Y275864D01*
X565022Y275959D01*
X565058Y276053D01*
X565098Y276145D01*
X565141Y276236D01*
X565188Y276325D01*
X565238Y276412D01*
X565292Y276498D01*
X565349Y276581D01*
X565409Y276661D01*
X565472Y276740D01*
X565539Y276816D01*
X565608Y276889D01*
X565680Y276959D01*
X565754Y277027D01*
X565831Y277092D01*
X565911Y277153D01*
X565993Y277212D01*
X566077Y277267D01*
X566163Y277319D01*
X566251Y277368D01*
X566341Y277413D01*
X566433Y277455D01*
X566526Y277493D01*
X566621Y277527D01*
X566716Y277558D01*
X566813Y277585D01*
X566911Y277608D01*
X567010Y277628D01*
X567110Y277643D01*
X567210Y277655D01*
X567310Y277663D01*
X567411Y277667D01*
X567511Y277667D01*
X567612Y277663D01*
X567712Y277655D01*
X567812Y277643D01*
X567912Y277628D01*
X568011Y277608D01*
X568109Y277585D01*
X568206Y277558D01*
X568301Y277527D01*
X568396Y277493D01*
X568489Y277455D01*
X568581Y277413D01*
X568671Y277368D01*
X568759Y277319D01*
X568845Y277267D01*
X568929Y277212D01*
X569011Y277153D01*
X569091Y277092D01*
X569168Y277027D01*
X569242Y276959D01*
X569314Y276889D01*
X569383Y276816D01*
X569450Y276740D01*
X569513Y276661D01*
X569573Y276581D01*
X569630Y276498D01*
X569684Y276412D01*
X569734Y276325D01*
X569781Y276236D01*
X569824Y276145D01*
X569864Y276053D01*
X569900Y275959D01*
X569933Y275864D01*
X569962Y275767D01*
X569987Y275670D01*
X570008Y275571D01*
X570026Y275472D01*
X570039Y275372D01*
X570049Y275272D01*
X570055Y275172D01*
X570057Y275071D01*
X570057Y272475D01*
X564864Y281958D02*
X576548Y285852D01*
X564864Y289747D01*
X576548Y294037D02*
X576548Y297282D01*
X576549Y297282D02*
X576547Y297395D01*
X576541Y297508D01*
X576531Y297621D01*
X576517Y297734D01*
X576500Y297846D01*
X576478Y297957D01*
X576453Y298067D01*
X576423Y298177D01*
X576390Y298285D01*
X576353Y298392D01*
X576313Y298498D01*
X576268Y298602D01*
X576220Y298705D01*
X576169Y298806D01*
X576114Y298905D01*
X576056Y299002D01*
X575994Y299097D01*
X575929Y299190D01*
X575861Y299280D01*
X575790Y299368D01*
X575715Y299454D01*
X575638Y299537D01*
X575558Y299617D01*
X575475Y299694D01*
X575389Y299769D01*
X575301Y299840D01*
X575211Y299908D01*
X575118Y299973D01*
X575023Y300035D01*
X574926Y300093D01*
X574827Y300148D01*
X574726Y300199D01*
X574623Y300247D01*
X574519Y300292D01*
X574413Y300332D01*
X574306Y300369D01*
X574198Y300402D01*
X574088Y300432D01*
X573978Y300457D01*
X573867Y300479D01*
X573755Y300496D01*
X573642Y300510D01*
X573529Y300520D01*
X573416Y300526D01*
X573303Y300528D01*
X573190Y300526D01*
X573077Y300520D01*
X572964Y300510D01*
X572851Y300496D01*
X572739Y300479D01*
X572628Y300457D01*
X572518Y300432D01*
X572408Y300402D01*
X572300Y300369D01*
X572193Y300332D01*
X572087Y300292D01*
X571983Y300247D01*
X571880Y300199D01*
X571779Y300148D01*
X571680Y300093D01*
X571583Y300035D01*
X571488Y299973D01*
X571395Y299908D01*
X571305Y299840D01*
X571217Y299769D01*
X571131Y299694D01*
X571048Y299617D01*
X570968Y299537D01*
X570891Y299454D01*
X570816Y299368D01*
X570745Y299280D01*
X570677Y299190D01*
X570612Y299097D01*
X570550Y299002D01*
X570492Y298905D01*
X570437Y298806D01*
X570386Y298705D01*
X570338Y298602D01*
X570293Y298498D01*
X570253Y298392D01*
X570216Y298285D01*
X570183Y298177D01*
X570153Y298067D01*
X570128Y297957D01*
X570106Y297846D01*
X570089Y297734D01*
X570075Y297621D01*
X570065Y297508D01*
X570059Y297395D01*
X570057Y297282D01*
X564864Y297931D02*
X564864Y294037D01*
X564865Y297931D02*
X564867Y298032D01*
X564873Y298132D01*
X564883Y298232D01*
X564896Y298332D01*
X564914Y298431D01*
X564935Y298530D01*
X564960Y298627D01*
X564989Y298724D01*
X565022Y298819D01*
X565058Y298913D01*
X565098Y299005D01*
X565141Y299096D01*
X565188Y299185D01*
X565238Y299272D01*
X565292Y299358D01*
X565349Y299441D01*
X565409Y299521D01*
X565472Y299600D01*
X565539Y299676D01*
X565608Y299749D01*
X565680Y299819D01*
X565754Y299887D01*
X565831Y299952D01*
X565911Y300013D01*
X565993Y300072D01*
X566077Y300127D01*
X566163Y300179D01*
X566251Y300228D01*
X566341Y300273D01*
X566433Y300315D01*
X566526Y300353D01*
X566621Y300387D01*
X566716Y300418D01*
X566813Y300445D01*
X566911Y300468D01*
X567010Y300488D01*
X567110Y300503D01*
X567210Y300515D01*
X567310Y300523D01*
X567411Y300527D01*
X567511Y300527D01*
X567612Y300523D01*
X567712Y300515D01*
X567812Y300503D01*
X567912Y300488D01*
X568011Y300468D01*
X568109Y300445D01*
X568206Y300418D01*
X568301Y300387D01*
X568396Y300353D01*
X568489Y300315D01*
X568581Y300273D01*
X568671Y300228D01*
X568759Y300179D01*
X568845Y300127D01*
X568929Y300072D01*
X569011Y300013D01*
X569091Y299952D01*
X569168Y299887D01*
X569242Y299819D01*
X569314Y299749D01*
X569383Y299676D01*
X569450Y299600D01*
X569513Y299521D01*
X569573Y299441D01*
X569630Y299358D01*
X569684Y299272D01*
X569734Y299185D01*
X569781Y299096D01*
X569824Y299005D01*
X569864Y298913D01*
X569900Y298819D01*
X569933Y298724D01*
X569962Y298627D01*
X569987Y298530D01*
X570008Y298431D01*
X570026Y298332D01*
X570039Y298232D01*
X570049Y298132D01*
X570055Y298032D01*
X570057Y297931D01*
X570057Y295335D01*
X577342Y112497D02*
X577342Y109252D01*
X577342Y112497D02*
X577340Y112610D01*
X577334Y112723D01*
X577324Y112836D01*
X577310Y112949D01*
X577293Y113061D01*
X577271Y113172D01*
X577246Y113282D01*
X577216Y113392D01*
X577183Y113500D01*
X577146Y113607D01*
X577106Y113713D01*
X577061Y113817D01*
X577013Y113920D01*
X576962Y114021D01*
X576907Y114120D01*
X576849Y114217D01*
X576787Y114312D01*
X576722Y114405D01*
X576654Y114495D01*
X576583Y114583D01*
X576508Y114669D01*
X576431Y114752D01*
X576351Y114832D01*
X576268Y114909D01*
X576182Y114984D01*
X576094Y115055D01*
X576004Y115123D01*
X575911Y115188D01*
X575816Y115250D01*
X575719Y115308D01*
X575620Y115363D01*
X575519Y115414D01*
X575416Y115462D01*
X575312Y115507D01*
X575206Y115547D01*
X575099Y115584D01*
X574991Y115617D01*
X574881Y115647D01*
X574771Y115672D01*
X574660Y115694D01*
X574548Y115711D01*
X574435Y115725D01*
X574322Y115735D01*
X574209Y115741D01*
X574096Y115743D01*
X573983Y115741D01*
X573870Y115735D01*
X573757Y115725D01*
X573644Y115711D01*
X573532Y115694D01*
X573421Y115672D01*
X573311Y115647D01*
X573201Y115617D01*
X573093Y115584D01*
X572986Y115547D01*
X572880Y115507D01*
X572776Y115462D01*
X572673Y115414D01*
X572572Y115363D01*
X572473Y115308D01*
X572376Y115250D01*
X572281Y115188D01*
X572188Y115123D01*
X572098Y115055D01*
X572010Y114984D01*
X571924Y114909D01*
X571841Y114832D01*
X571761Y114752D01*
X571684Y114669D01*
X571609Y114583D01*
X571538Y114495D01*
X571470Y114405D01*
X571405Y114312D01*
X571343Y114217D01*
X571285Y114120D01*
X571230Y114021D01*
X571179Y113920D01*
X571131Y113817D01*
X571086Y113713D01*
X571046Y113607D01*
X571009Y113500D01*
X570976Y113392D01*
X570946Y113282D01*
X570921Y113172D01*
X570899Y113061D01*
X570882Y112949D01*
X570868Y112836D01*
X570858Y112723D01*
X570852Y112610D01*
X570850Y112497D01*
X565658Y113146D02*
X565658Y109252D01*
X565658Y113146D02*
X565660Y113247D01*
X565666Y113347D01*
X565676Y113447D01*
X565689Y113547D01*
X565707Y113646D01*
X565728Y113745D01*
X565753Y113842D01*
X565782Y113939D01*
X565815Y114034D01*
X565851Y114128D01*
X565891Y114220D01*
X565934Y114311D01*
X565981Y114400D01*
X566031Y114487D01*
X566085Y114573D01*
X566142Y114656D01*
X566202Y114736D01*
X566265Y114815D01*
X566332Y114891D01*
X566401Y114964D01*
X566473Y115034D01*
X566547Y115102D01*
X566624Y115167D01*
X566704Y115228D01*
X566786Y115287D01*
X566870Y115342D01*
X566956Y115394D01*
X567044Y115443D01*
X567134Y115488D01*
X567226Y115530D01*
X567319Y115568D01*
X567414Y115602D01*
X567509Y115633D01*
X567606Y115660D01*
X567704Y115683D01*
X567803Y115703D01*
X567903Y115718D01*
X568003Y115730D01*
X568103Y115738D01*
X568204Y115742D01*
X568304Y115742D01*
X568405Y115738D01*
X568505Y115730D01*
X568605Y115718D01*
X568705Y115703D01*
X568804Y115683D01*
X568902Y115660D01*
X568999Y115633D01*
X569094Y115602D01*
X569189Y115568D01*
X569282Y115530D01*
X569374Y115488D01*
X569464Y115443D01*
X569552Y115394D01*
X569638Y115342D01*
X569722Y115287D01*
X569804Y115228D01*
X569884Y115167D01*
X569961Y115102D01*
X570035Y115034D01*
X570107Y114964D01*
X570176Y114891D01*
X570243Y114815D01*
X570306Y114736D01*
X570366Y114656D01*
X570423Y114573D01*
X570477Y114487D01*
X570527Y114400D01*
X570574Y114311D01*
X570617Y114220D01*
X570657Y114128D01*
X570693Y114034D01*
X570726Y113939D01*
X570755Y113842D01*
X570780Y113745D01*
X570801Y113646D01*
X570819Y113547D01*
X570832Y113447D01*
X570842Y113347D01*
X570848Y113247D01*
X570850Y113146D01*
X570851Y113146D02*
X570851Y110550D01*
X565658Y120033D02*
X577342Y123927D01*
X565658Y127822D01*
X577342Y132112D02*
X577342Y135357D01*
X577340Y135470D01*
X577334Y135583D01*
X577324Y135696D01*
X577310Y135809D01*
X577293Y135921D01*
X577271Y136032D01*
X577246Y136142D01*
X577216Y136252D01*
X577183Y136360D01*
X577146Y136467D01*
X577106Y136573D01*
X577061Y136677D01*
X577013Y136780D01*
X576962Y136881D01*
X576907Y136980D01*
X576849Y137077D01*
X576787Y137172D01*
X576722Y137265D01*
X576654Y137355D01*
X576583Y137443D01*
X576508Y137529D01*
X576431Y137612D01*
X576351Y137692D01*
X576268Y137769D01*
X576182Y137844D01*
X576094Y137915D01*
X576004Y137983D01*
X575911Y138048D01*
X575816Y138110D01*
X575719Y138168D01*
X575620Y138223D01*
X575519Y138274D01*
X575416Y138322D01*
X575312Y138367D01*
X575206Y138407D01*
X575099Y138444D01*
X574991Y138477D01*
X574881Y138507D01*
X574771Y138532D01*
X574660Y138554D01*
X574548Y138571D01*
X574435Y138585D01*
X574322Y138595D01*
X574209Y138601D01*
X574096Y138603D01*
X573983Y138601D01*
X573870Y138595D01*
X573757Y138585D01*
X573644Y138571D01*
X573532Y138554D01*
X573421Y138532D01*
X573311Y138507D01*
X573201Y138477D01*
X573093Y138444D01*
X572986Y138407D01*
X572880Y138367D01*
X572776Y138322D01*
X572673Y138274D01*
X572572Y138223D01*
X572473Y138168D01*
X572376Y138110D01*
X572281Y138048D01*
X572188Y137983D01*
X572098Y137915D01*
X572010Y137844D01*
X571924Y137769D01*
X571841Y137692D01*
X571761Y137612D01*
X571684Y137529D01*
X571609Y137443D01*
X571538Y137355D01*
X571470Y137265D01*
X571405Y137172D01*
X571343Y137077D01*
X571285Y136980D01*
X571230Y136881D01*
X571179Y136780D01*
X571131Y136677D01*
X571086Y136573D01*
X571046Y136467D01*
X571009Y136360D01*
X570976Y136252D01*
X570946Y136142D01*
X570921Y136032D01*
X570899Y135921D01*
X570882Y135809D01*
X570868Y135696D01*
X570858Y135583D01*
X570852Y135470D01*
X570850Y135357D01*
X565658Y136006D02*
X565658Y132112D01*
X565658Y136006D02*
X565660Y136107D01*
X565666Y136207D01*
X565676Y136307D01*
X565689Y136407D01*
X565707Y136506D01*
X565728Y136605D01*
X565753Y136702D01*
X565782Y136799D01*
X565815Y136894D01*
X565851Y136988D01*
X565891Y137080D01*
X565934Y137171D01*
X565981Y137260D01*
X566031Y137347D01*
X566085Y137433D01*
X566142Y137516D01*
X566202Y137596D01*
X566265Y137675D01*
X566332Y137751D01*
X566401Y137824D01*
X566473Y137894D01*
X566547Y137962D01*
X566624Y138027D01*
X566704Y138088D01*
X566786Y138147D01*
X566870Y138202D01*
X566956Y138254D01*
X567044Y138303D01*
X567134Y138348D01*
X567226Y138390D01*
X567319Y138428D01*
X567414Y138462D01*
X567509Y138493D01*
X567606Y138520D01*
X567704Y138543D01*
X567803Y138563D01*
X567903Y138578D01*
X568003Y138590D01*
X568103Y138598D01*
X568204Y138602D01*
X568304Y138602D01*
X568405Y138598D01*
X568505Y138590D01*
X568605Y138578D01*
X568705Y138563D01*
X568804Y138543D01*
X568902Y138520D01*
X568999Y138493D01*
X569094Y138462D01*
X569189Y138428D01*
X569282Y138390D01*
X569374Y138348D01*
X569464Y138303D01*
X569552Y138254D01*
X569638Y138202D01*
X569722Y138147D01*
X569804Y138088D01*
X569884Y138027D01*
X569961Y137962D01*
X570035Y137894D01*
X570107Y137824D01*
X570176Y137751D01*
X570243Y137675D01*
X570306Y137596D01*
X570366Y137516D01*
X570423Y137433D01*
X570477Y137347D01*
X570527Y137260D01*
X570574Y137171D01*
X570617Y137080D01*
X570657Y136988D01*
X570693Y136894D01*
X570726Y136799D01*
X570755Y136702D01*
X570780Y136605D01*
X570801Y136506D01*
X570819Y136407D01*
X570832Y136307D01*
X570842Y136207D01*
X570848Y136107D01*
X570850Y136006D01*
X570851Y136006D02*
X570851Y133410D01*
X436347Y51308D02*
X433102Y51308D01*
X436347Y51308D02*
X436460Y51310D01*
X436573Y51316D01*
X436686Y51326D01*
X436799Y51340D01*
X436911Y51357D01*
X437022Y51379D01*
X437132Y51404D01*
X437242Y51434D01*
X437350Y51467D01*
X437457Y51504D01*
X437563Y51544D01*
X437667Y51589D01*
X437770Y51637D01*
X437871Y51688D01*
X437970Y51743D01*
X438067Y51801D01*
X438162Y51863D01*
X438255Y51928D01*
X438345Y51996D01*
X438433Y52067D01*
X438519Y52142D01*
X438602Y52219D01*
X438682Y52299D01*
X438759Y52382D01*
X438834Y52468D01*
X438905Y52556D01*
X438973Y52646D01*
X439038Y52739D01*
X439100Y52834D01*
X439158Y52931D01*
X439213Y53030D01*
X439264Y53131D01*
X439312Y53234D01*
X439357Y53338D01*
X439397Y53444D01*
X439434Y53551D01*
X439467Y53659D01*
X439497Y53769D01*
X439522Y53879D01*
X439544Y53990D01*
X439561Y54102D01*
X439575Y54215D01*
X439585Y54328D01*
X439591Y54441D01*
X439593Y54554D01*
X439591Y54667D01*
X439585Y54780D01*
X439575Y54893D01*
X439561Y55006D01*
X439544Y55118D01*
X439522Y55229D01*
X439497Y55339D01*
X439467Y55449D01*
X439434Y55557D01*
X439397Y55664D01*
X439357Y55770D01*
X439312Y55874D01*
X439264Y55977D01*
X439213Y56078D01*
X439158Y56177D01*
X439100Y56274D01*
X439038Y56369D01*
X438973Y56462D01*
X438905Y56552D01*
X438834Y56640D01*
X438759Y56726D01*
X438682Y56809D01*
X438602Y56889D01*
X438519Y56966D01*
X438433Y57041D01*
X438345Y57112D01*
X438255Y57180D01*
X438162Y57245D01*
X438067Y57307D01*
X437970Y57365D01*
X437871Y57420D01*
X437770Y57471D01*
X437667Y57519D01*
X437563Y57564D01*
X437457Y57604D01*
X437350Y57641D01*
X437242Y57674D01*
X437132Y57704D01*
X437022Y57729D01*
X436911Y57751D01*
X436799Y57768D01*
X436686Y57782D01*
X436573Y57792D01*
X436460Y57798D01*
X436347Y57800D01*
X436996Y62992D02*
X433102Y62992D01*
X436996Y62992D02*
X437097Y62990D01*
X437197Y62984D01*
X437297Y62974D01*
X437397Y62961D01*
X437496Y62943D01*
X437595Y62922D01*
X437692Y62897D01*
X437789Y62868D01*
X437884Y62835D01*
X437978Y62799D01*
X438070Y62759D01*
X438161Y62716D01*
X438250Y62669D01*
X438337Y62619D01*
X438423Y62565D01*
X438506Y62508D01*
X438586Y62448D01*
X438665Y62385D01*
X438741Y62318D01*
X438814Y62249D01*
X438884Y62177D01*
X438952Y62103D01*
X439017Y62026D01*
X439078Y61946D01*
X439137Y61864D01*
X439192Y61780D01*
X439244Y61694D01*
X439293Y61606D01*
X439338Y61516D01*
X439380Y61424D01*
X439418Y61331D01*
X439452Y61236D01*
X439483Y61141D01*
X439510Y61044D01*
X439533Y60946D01*
X439553Y60847D01*
X439568Y60747D01*
X439580Y60647D01*
X439588Y60547D01*
X439592Y60446D01*
X439592Y60346D01*
X439588Y60245D01*
X439580Y60145D01*
X439568Y60045D01*
X439553Y59945D01*
X439533Y59846D01*
X439510Y59748D01*
X439483Y59651D01*
X439452Y59556D01*
X439418Y59461D01*
X439380Y59368D01*
X439338Y59276D01*
X439293Y59186D01*
X439244Y59098D01*
X439192Y59012D01*
X439137Y58928D01*
X439078Y58846D01*
X439017Y58766D01*
X438952Y58689D01*
X438884Y58615D01*
X438814Y58543D01*
X438741Y58474D01*
X438665Y58407D01*
X438586Y58344D01*
X438506Y58284D01*
X438423Y58227D01*
X438337Y58173D01*
X438250Y58123D01*
X438161Y58076D01*
X438070Y58033D01*
X437978Y57993D01*
X437884Y57957D01*
X437789Y57924D01*
X437692Y57895D01*
X437595Y57870D01*
X437496Y57849D01*
X437397Y57831D01*
X437297Y57818D01*
X437197Y57808D01*
X437097Y57802D01*
X436996Y57800D01*
X436996Y57799D02*
X434400Y57799D01*
X443883Y62992D02*
X447777Y51308D01*
X451672Y62992D01*
X455962Y51308D02*
X459207Y51308D01*
X459320Y51310D01*
X459433Y51316D01*
X459546Y51326D01*
X459659Y51340D01*
X459771Y51357D01*
X459882Y51379D01*
X459992Y51404D01*
X460102Y51434D01*
X460210Y51467D01*
X460317Y51504D01*
X460423Y51544D01*
X460527Y51589D01*
X460630Y51637D01*
X460731Y51688D01*
X460830Y51743D01*
X460927Y51801D01*
X461022Y51863D01*
X461115Y51928D01*
X461205Y51996D01*
X461293Y52067D01*
X461379Y52142D01*
X461462Y52219D01*
X461542Y52299D01*
X461619Y52382D01*
X461694Y52468D01*
X461765Y52556D01*
X461833Y52646D01*
X461898Y52739D01*
X461960Y52834D01*
X462018Y52931D01*
X462073Y53030D01*
X462124Y53131D01*
X462172Y53234D01*
X462217Y53338D01*
X462257Y53444D01*
X462294Y53551D01*
X462327Y53659D01*
X462357Y53769D01*
X462382Y53879D01*
X462404Y53990D01*
X462421Y54102D01*
X462435Y54215D01*
X462445Y54328D01*
X462451Y54441D01*
X462453Y54554D01*
X462451Y54667D01*
X462445Y54780D01*
X462435Y54893D01*
X462421Y55006D01*
X462404Y55118D01*
X462382Y55229D01*
X462357Y55339D01*
X462327Y55449D01*
X462294Y55557D01*
X462257Y55664D01*
X462217Y55770D01*
X462172Y55874D01*
X462124Y55977D01*
X462073Y56078D01*
X462018Y56177D01*
X461960Y56274D01*
X461898Y56369D01*
X461833Y56462D01*
X461765Y56552D01*
X461694Y56640D01*
X461619Y56726D01*
X461542Y56809D01*
X461462Y56889D01*
X461379Y56966D01*
X461293Y57041D01*
X461205Y57112D01*
X461115Y57180D01*
X461022Y57245D01*
X460927Y57307D01*
X460830Y57365D01*
X460731Y57420D01*
X460630Y57471D01*
X460527Y57519D01*
X460423Y57564D01*
X460317Y57604D01*
X460210Y57641D01*
X460102Y57674D01*
X459992Y57704D01*
X459882Y57729D01*
X459771Y57751D01*
X459659Y57768D01*
X459546Y57782D01*
X459433Y57792D01*
X459320Y57798D01*
X459207Y57800D01*
X459856Y62992D02*
X455962Y62992D01*
X459856Y62992D02*
X459957Y62990D01*
X460057Y62984D01*
X460157Y62974D01*
X460257Y62961D01*
X460356Y62943D01*
X460455Y62922D01*
X460552Y62897D01*
X460649Y62868D01*
X460744Y62835D01*
X460838Y62799D01*
X460930Y62759D01*
X461021Y62716D01*
X461110Y62669D01*
X461197Y62619D01*
X461283Y62565D01*
X461366Y62508D01*
X461446Y62448D01*
X461525Y62385D01*
X461601Y62318D01*
X461674Y62249D01*
X461744Y62177D01*
X461812Y62103D01*
X461877Y62026D01*
X461938Y61946D01*
X461997Y61864D01*
X462052Y61780D01*
X462104Y61694D01*
X462153Y61606D01*
X462198Y61516D01*
X462240Y61424D01*
X462278Y61331D01*
X462312Y61236D01*
X462343Y61141D01*
X462370Y61044D01*
X462393Y60946D01*
X462413Y60847D01*
X462428Y60747D01*
X462440Y60647D01*
X462448Y60547D01*
X462452Y60446D01*
X462452Y60346D01*
X462448Y60245D01*
X462440Y60145D01*
X462428Y60045D01*
X462413Y59945D01*
X462393Y59846D01*
X462370Y59748D01*
X462343Y59651D01*
X462312Y59556D01*
X462278Y59461D01*
X462240Y59368D01*
X462198Y59276D01*
X462153Y59186D01*
X462104Y59098D01*
X462052Y59012D01*
X461997Y58928D01*
X461938Y58846D01*
X461877Y58766D01*
X461812Y58689D01*
X461744Y58615D01*
X461674Y58543D01*
X461601Y58474D01*
X461525Y58407D01*
X461446Y58344D01*
X461366Y58284D01*
X461283Y58227D01*
X461197Y58173D01*
X461110Y58123D01*
X461021Y58076D01*
X460930Y58033D01*
X460838Y57993D01*
X460744Y57957D01*
X460649Y57924D01*
X460552Y57895D01*
X460455Y57870D01*
X460356Y57849D01*
X460257Y57831D01*
X460157Y57818D01*
X460057Y57808D01*
X459957Y57802D01*
X459856Y57800D01*
X459856Y57799D02*
X457260Y57799D01*
X326016Y114808D02*
X322771Y114808D01*
X326016Y114808D02*
X326129Y114810D01*
X326242Y114816D01*
X326355Y114826D01*
X326468Y114840D01*
X326580Y114857D01*
X326691Y114879D01*
X326801Y114904D01*
X326911Y114934D01*
X327019Y114967D01*
X327126Y115004D01*
X327232Y115044D01*
X327336Y115089D01*
X327439Y115137D01*
X327540Y115188D01*
X327639Y115243D01*
X327736Y115301D01*
X327831Y115363D01*
X327924Y115428D01*
X328014Y115496D01*
X328102Y115567D01*
X328188Y115642D01*
X328271Y115719D01*
X328351Y115799D01*
X328428Y115882D01*
X328503Y115968D01*
X328574Y116056D01*
X328642Y116146D01*
X328707Y116239D01*
X328769Y116334D01*
X328827Y116431D01*
X328882Y116530D01*
X328933Y116631D01*
X328981Y116734D01*
X329026Y116838D01*
X329066Y116944D01*
X329103Y117051D01*
X329136Y117159D01*
X329166Y117269D01*
X329191Y117379D01*
X329213Y117490D01*
X329230Y117602D01*
X329244Y117715D01*
X329254Y117828D01*
X329260Y117941D01*
X329262Y118054D01*
X329260Y118167D01*
X329254Y118280D01*
X329244Y118393D01*
X329230Y118506D01*
X329213Y118618D01*
X329191Y118729D01*
X329166Y118839D01*
X329136Y118949D01*
X329103Y119057D01*
X329066Y119164D01*
X329026Y119270D01*
X328981Y119374D01*
X328933Y119477D01*
X328882Y119578D01*
X328827Y119677D01*
X328769Y119774D01*
X328707Y119869D01*
X328642Y119962D01*
X328574Y120052D01*
X328503Y120140D01*
X328428Y120226D01*
X328351Y120309D01*
X328271Y120389D01*
X328188Y120466D01*
X328102Y120541D01*
X328014Y120612D01*
X327924Y120680D01*
X327831Y120745D01*
X327736Y120807D01*
X327639Y120865D01*
X327540Y120920D01*
X327439Y120971D01*
X327336Y121019D01*
X327232Y121064D01*
X327126Y121104D01*
X327019Y121141D01*
X326911Y121174D01*
X326801Y121204D01*
X326691Y121229D01*
X326580Y121251D01*
X326468Y121268D01*
X326355Y121282D01*
X326242Y121292D01*
X326129Y121298D01*
X326016Y121300D01*
X326665Y126492D02*
X322771Y126492D01*
X326665Y126492D02*
X326766Y126490D01*
X326866Y126484D01*
X326966Y126474D01*
X327066Y126461D01*
X327165Y126443D01*
X327264Y126422D01*
X327361Y126397D01*
X327458Y126368D01*
X327553Y126335D01*
X327647Y126299D01*
X327739Y126259D01*
X327830Y126216D01*
X327919Y126169D01*
X328006Y126119D01*
X328092Y126065D01*
X328175Y126008D01*
X328255Y125948D01*
X328334Y125885D01*
X328410Y125818D01*
X328483Y125749D01*
X328553Y125677D01*
X328621Y125603D01*
X328686Y125526D01*
X328747Y125446D01*
X328806Y125364D01*
X328861Y125280D01*
X328913Y125194D01*
X328962Y125106D01*
X329007Y125016D01*
X329049Y124924D01*
X329087Y124831D01*
X329121Y124736D01*
X329152Y124641D01*
X329179Y124544D01*
X329202Y124446D01*
X329222Y124347D01*
X329237Y124247D01*
X329249Y124147D01*
X329257Y124047D01*
X329261Y123946D01*
X329261Y123846D01*
X329257Y123745D01*
X329249Y123645D01*
X329237Y123545D01*
X329222Y123445D01*
X329202Y123346D01*
X329179Y123248D01*
X329152Y123151D01*
X329121Y123056D01*
X329087Y122961D01*
X329049Y122868D01*
X329007Y122776D01*
X328962Y122686D01*
X328913Y122598D01*
X328861Y122512D01*
X328806Y122428D01*
X328747Y122346D01*
X328686Y122266D01*
X328621Y122189D01*
X328553Y122115D01*
X328483Y122043D01*
X328410Y121974D01*
X328334Y121907D01*
X328255Y121844D01*
X328175Y121784D01*
X328092Y121727D01*
X328006Y121673D01*
X327919Y121623D01*
X327830Y121576D01*
X327739Y121533D01*
X327647Y121493D01*
X327553Y121457D01*
X327458Y121424D01*
X327361Y121395D01*
X327264Y121370D01*
X327165Y121349D01*
X327066Y121331D01*
X326966Y121318D01*
X326866Y121308D01*
X326766Y121302D01*
X326665Y121300D01*
X326665Y121299D02*
X324069Y121299D01*
X333551Y126492D02*
X337446Y114808D01*
X341341Y126492D01*
X345630Y114808D02*
X348876Y114808D01*
X348989Y114810D01*
X349102Y114816D01*
X349215Y114826D01*
X349328Y114840D01*
X349440Y114857D01*
X349551Y114879D01*
X349661Y114904D01*
X349771Y114934D01*
X349879Y114967D01*
X349986Y115004D01*
X350092Y115044D01*
X350196Y115089D01*
X350299Y115137D01*
X350400Y115188D01*
X350499Y115243D01*
X350596Y115301D01*
X350691Y115363D01*
X350784Y115428D01*
X350874Y115496D01*
X350962Y115567D01*
X351048Y115642D01*
X351131Y115719D01*
X351211Y115799D01*
X351288Y115882D01*
X351363Y115968D01*
X351434Y116056D01*
X351502Y116146D01*
X351567Y116239D01*
X351629Y116334D01*
X351687Y116431D01*
X351742Y116530D01*
X351793Y116631D01*
X351841Y116734D01*
X351886Y116838D01*
X351926Y116944D01*
X351963Y117051D01*
X351996Y117159D01*
X352026Y117269D01*
X352051Y117379D01*
X352073Y117490D01*
X352090Y117602D01*
X352104Y117715D01*
X352114Y117828D01*
X352120Y117941D01*
X352122Y118054D01*
X352120Y118167D01*
X352114Y118280D01*
X352104Y118393D01*
X352090Y118506D01*
X352073Y118618D01*
X352051Y118729D01*
X352026Y118839D01*
X351996Y118949D01*
X351963Y119057D01*
X351926Y119164D01*
X351886Y119270D01*
X351841Y119374D01*
X351793Y119477D01*
X351742Y119578D01*
X351687Y119677D01*
X351629Y119774D01*
X351567Y119869D01*
X351502Y119962D01*
X351434Y120052D01*
X351363Y120140D01*
X351288Y120226D01*
X351211Y120309D01*
X351131Y120389D01*
X351048Y120466D01*
X350962Y120541D01*
X350874Y120612D01*
X350784Y120680D01*
X350691Y120745D01*
X350596Y120807D01*
X350499Y120865D01*
X350400Y120920D01*
X350299Y120971D01*
X350196Y121019D01*
X350092Y121064D01*
X349986Y121104D01*
X349879Y121141D01*
X349771Y121174D01*
X349661Y121204D01*
X349551Y121229D01*
X349440Y121251D01*
X349328Y121268D01*
X349215Y121282D01*
X349102Y121292D01*
X348989Y121298D01*
X348876Y121300D01*
X349525Y126492D02*
X345630Y126492D01*
X349525Y126492D02*
X349626Y126490D01*
X349726Y126484D01*
X349826Y126474D01*
X349926Y126461D01*
X350025Y126443D01*
X350124Y126422D01*
X350221Y126397D01*
X350318Y126368D01*
X350413Y126335D01*
X350507Y126299D01*
X350599Y126259D01*
X350690Y126216D01*
X350779Y126169D01*
X350866Y126119D01*
X350952Y126065D01*
X351035Y126008D01*
X351115Y125948D01*
X351194Y125885D01*
X351270Y125818D01*
X351343Y125749D01*
X351413Y125677D01*
X351481Y125603D01*
X351546Y125526D01*
X351607Y125446D01*
X351666Y125364D01*
X351721Y125280D01*
X351773Y125194D01*
X351822Y125106D01*
X351867Y125016D01*
X351909Y124924D01*
X351947Y124831D01*
X351981Y124736D01*
X352012Y124641D01*
X352039Y124544D01*
X352062Y124446D01*
X352082Y124347D01*
X352097Y124247D01*
X352109Y124147D01*
X352117Y124047D01*
X352121Y123946D01*
X352121Y123846D01*
X352117Y123745D01*
X352109Y123645D01*
X352097Y123545D01*
X352082Y123445D01*
X352062Y123346D01*
X352039Y123248D01*
X352012Y123151D01*
X351981Y123056D01*
X351947Y122961D01*
X351909Y122868D01*
X351867Y122776D01*
X351822Y122686D01*
X351773Y122598D01*
X351721Y122512D01*
X351666Y122428D01*
X351607Y122346D01*
X351546Y122266D01*
X351481Y122189D01*
X351413Y122115D01*
X351343Y122043D01*
X351270Y121974D01*
X351194Y121907D01*
X351115Y121844D01*
X351035Y121784D01*
X350952Y121727D01*
X350866Y121673D01*
X350779Y121623D01*
X350690Y121576D01*
X350599Y121533D01*
X350507Y121493D01*
X350413Y121457D01*
X350318Y121424D01*
X350221Y121395D01*
X350124Y121370D01*
X350025Y121349D01*
X349926Y121331D01*
X349826Y121318D01*
X349726Y121308D01*
X349626Y121302D01*
X349525Y121300D01*
X349525Y121299D02*
X346929Y121299D01*
X137104Y51308D02*
X133858Y51308D01*
X137104Y51308D02*
X137217Y51310D01*
X137330Y51316D01*
X137443Y51326D01*
X137556Y51340D01*
X137668Y51357D01*
X137779Y51379D01*
X137889Y51404D01*
X137999Y51434D01*
X138107Y51467D01*
X138214Y51504D01*
X138320Y51544D01*
X138424Y51589D01*
X138527Y51637D01*
X138628Y51688D01*
X138727Y51743D01*
X138824Y51801D01*
X138919Y51863D01*
X139012Y51928D01*
X139102Y51996D01*
X139190Y52067D01*
X139276Y52142D01*
X139359Y52219D01*
X139439Y52299D01*
X139516Y52382D01*
X139591Y52468D01*
X139662Y52556D01*
X139730Y52646D01*
X139795Y52739D01*
X139857Y52834D01*
X139915Y52931D01*
X139970Y53030D01*
X140021Y53131D01*
X140069Y53234D01*
X140114Y53338D01*
X140154Y53444D01*
X140191Y53551D01*
X140224Y53659D01*
X140254Y53769D01*
X140279Y53879D01*
X140301Y53990D01*
X140318Y54102D01*
X140332Y54215D01*
X140342Y54328D01*
X140348Y54441D01*
X140350Y54554D01*
X140348Y54667D01*
X140342Y54780D01*
X140332Y54893D01*
X140318Y55006D01*
X140301Y55118D01*
X140279Y55229D01*
X140254Y55339D01*
X140224Y55449D01*
X140191Y55557D01*
X140154Y55664D01*
X140114Y55770D01*
X140069Y55874D01*
X140021Y55977D01*
X139970Y56078D01*
X139915Y56177D01*
X139857Y56274D01*
X139795Y56369D01*
X139730Y56462D01*
X139662Y56552D01*
X139591Y56640D01*
X139516Y56726D01*
X139439Y56809D01*
X139359Y56889D01*
X139276Y56966D01*
X139190Y57041D01*
X139102Y57112D01*
X139012Y57180D01*
X138919Y57245D01*
X138824Y57307D01*
X138727Y57365D01*
X138628Y57420D01*
X138527Y57471D01*
X138424Y57519D01*
X138320Y57564D01*
X138214Y57604D01*
X138107Y57641D01*
X137999Y57674D01*
X137889Y57704D01*
X137779Y57729D01*
X137668Y57751D01*
X137556Y57768D01*
X137443Y57782D01*
X137330Y57792D01*
X137217Y57798D01*
X137104Y57800D01*
X137753Y62992D02*
X133858Y62992D01*
X137753Y62992D02*
X137854Y62990D01*
X137954Y62984D01*
X138054Y62974D01*
X138154Y62961D01*
X138253Y62943D01*
X138352Y62922D01*
X138449Y62897D01*
X138546Y62868D01*
X138641Y62835D01*
X138735Y62799D01*
X138827Y62759D01*
X138918Y62716D01*
X139007Y62669D01*
X139094Y62619D01*
X139180Y62565D01*
X139263Y62508D01*
X139343Y62448D01*
X139422Y62385D01*
X139498Y62318D01*
X139571Y62249D01*
X139641Y62177D01*
X139709Y62103D01*
X139774Y62026D01*
X139835Y61946D01*
X139894Y61864D01*
X139949Y61780D01*
X140001Y61694D01*
X140050Y61606D01*
X140095Y61516D01*
X140137Y61424D01*
X140175Y61331D01*
X140209Y61236D01*
X140240Y61141D01*
X140267Y61044D01*
X140290Y60946D01*
X140310Y60847D01*
X140325Y60747D01*
X140337Y60647D01*
X140345Y60547D01*
X140349Y60446D01*
X140349Y60346D01*
X140345Y60245D01*
X140337Y60145D01*
X140325Y60045D01*
X140310Y59945D01*
X140290Y59846D01*
X140267Y59748D01*
X140240Y59651D01*
X140209Y59556D01*
X140175Y59461D01*
X140137Y59368D01*
X140095Y59276D01*
X140050Y59186D01*
X140001Y59098D01*
X139949Y59012D01*
X139894Y58928D01*
X139835Y58846D01*
X139774Y58766D01*
X139709Y58689D01*
X139641Y58615D01*
X139571Y58543D01*
X139498Y58474D01*
X139422Y58407D01*
X139343Y58344D01*
X139263Y58284D01*
X139180Y58227D01*
X139094Y58173D01*
X139007Y58123D01*
X138918Y58076D01*
X138827Y58033D01*
X138735Y57993D01*
X138641Y57957D01*
X138546Y57924D01*
X138449Y57895D01*
X138352Y57870D01*
X138253Y57849D01*
X138154Y57831D01*
X138054Y57818D01*
X137954Y57808D01*
X137854Y57802D01*
X137753Y57800D01*
X137753Y57799D02*
X135156Y57799D01*
X144639Y62992D02*
X148534Y51308D01*
X152428Y62992D01*
X156718Y51308D02*
X159964Y51308D01*
X160077Y51310D01*
X160190Y51316D01*
X160303Y51326D01*
X160416Y51340D01*
X160528Y51357D01*
X160639Y51379D01*
X160749Y51404D01*
X160859Y51434D01*
X160967Y51467D01*
X161074Y51504D01*
X161180Y51544D01*
X161284Y51589D01*
X161387Y51637D01*
X161488Y51688D01*
X161587Y51743D01*
X161684Y51801D01*
X161779Y51863D01*
X161872Y51928D01*
X161962Y51996D01*
X162050Y52067D01*
X162136Y52142D01*
X162219Y52219D01*
X162299Y52299D01*
X162376Y52382D01*
X162451Y52468D01*
X162522Y52556D01*
X162590Y52646D01*
X162655Y52739D01*
X162717Y52834D01*
X162775Y52931D01*
X162830Y53030D01*
X162881Y53131D01*
X162929Y53234D01*
X162974Y53338D01*
X163014Y53444D01*
X163051Y53551D01*
X163084Y53659D01*
X163114Y53769D01*
X163139Y53879D01*
X163161Y53990D01*
X163178Y54102D01*
X163192Y54215D01*
X163202Y54328D01*
X163208Y54441D01*
X163210Y54554D01*
X163208Y54667D01*
X163202Y54780D01*
X163192Y54893D01*
X163178Y55006D01*
X163161Y55118D01*
X163139Y55229D01*
X163114Y55339D01*
X163084Y55449D01*
X163051Y55557D01*
X163014Y55664D01*
X162974Y55770D01*
X162929Y55874D01*
X162881Y55977D01*
X162830Y56078D01*
X162775Y56177D01*
X162717Y56274D01*
X162655Y56369D01*
X162590Y56462D01*
X162522Y56552D01*
X162451Y56640D01*
X162376Y56726D01*
X162299Y56809D01*
X162219Y56889D01*
X162136Y56966D01*
X162050Y57041D01*
X161962Y57112D01*
X161872Y57180D01*
X161779Y57245D01*
X161684Y57307D01*
X161587Y57365D01*
X161488Y57420D01*
X161387Y57471D01*
X161284Y57519D01*
X161180Y57564D01*
X161074Y57604D01*
X160967Y57641D01*
X160859Y57674D01*
X160749Y57704D01*
X160639Y57729D01*
X160528Y57751D01*
X160416Y57768D01*
X160303Y57782D01*
X160190Y57792D01*
X160077Y57798D01*
X159964Y57800D01*
X160613Y62992D02*
X156718Y62992D01*
X160613Y62992D02*
X160714Y62990D01*
X160814Y62984D01*
X160914Y62974D01*
X161014Y62961D01*
X161113Y62943D01*
X161212Y62922D01*
X161309Y62897D01*
X161406Y62868D01*
X161501Y62835D01*
X161595Y62799D01*
X161687Y62759D01*
X161778Y62716D01*
X161867Y62669D01*
X161954Y62619D01*
X162040Y62565D01*
X162123Y62508D01*
X162203Y62448D01*
X162282Y62385D01*
X162358Y62318D01*
X162431Y62249D01*
X162501Y62177D01*
X162569Y62103D01*
X162634Y62026D01*
X162695Y61946D01*
X162754Y61864D01*
X162809Y61780D01*
X162861Y61694D01*
X162910Y61606D01*
X162955Y61516D01*
X162997Y61424D01*
X163035Y61331D01*
X163069Y61236D01*
X163100Y61141D01*
X163127Y61044D01*
X163150Y60946D01*
X163170Y60847D01*
X163185Y60747D01*
X163197Y60647D01*
X163205Y60547D01*
X163209Y60446D01*
X163209Y60346D01*
X163205Y60245D01*
X163197Y60145D01*
X163185Y60045D01*
X163170Y59945D01*
X163150Y59846D01*
X163127Y59748D01*
X163100Y59651D01*
X163069Y59556D01*
X163035Y59461D01*
X162997Y59368D01*
X162955Y59276D01*
X162910Y59186D01*
X162861Y59098D01*
X162809Y59012D01*
X162754Y58928D01*
X162695Y58846D01*
X162634Y58766D01*
X162569Y58689D01*
X162501Y58615D01*
X162431Y58543D01*
X162358Y58474D01*
X162282Y58407D01*
X162203Y58344D01*
X162123Y58284D01*
X162040Y58227D01*
X161954Y58173D01*
X161867Y58123D01*
X161778Y58076D01*
X161687Y58033D01*
X161595Y57993D01*
X161501Y57957D01*
X161406Y57924D01*
X161309Y57895D01*
X161212Y57870D01*
X161113Y57849D01*
X161014Y57831D01*
X160914Y57818D01*
X160814Y57808D01*
X160714Y57802D01*
X160613Y57800D01*
X160613Y57799D02*
X158016Y57799D01*
X12986Y136239D02*
X12986Y139485D01*
X12984Y139598D01*
X12978Y139711D01*
X12968Y139824D01*
X12954Y139937D01*
X12937Y140049D01*
X12915Y140160D01*
X12890Y140270D01*
X12860Y140380D01*
X12827Y140488D01*
X12790Y140595D01*
X12750Y140701D01*
X12705Y140805D01*
X12657Y140908D01*
X12606Y141009D01*
X12551Y141108D01*
X12493Y141205D01*
X12431Y141300D01*
X12366Y141393D01*
X12298Y141483D01*
X12227Y141571D01*
X12152Y141657D01*
X12075Y141740D01*
X11995Y141820D01*
X11912Y141897D01*
X11826Y141972D01*
X11738Y142043D01*
X11648Y142111D01*
X11555Y142176D01*
X11460Y142238D01*
X11363Y142296D01*
X11264Y142351D01*
X11163Y142402D01*
X11060Y142450D01*
X10956Y142495D01*
X10850Y142535D01*
X10743Y142572D01*
X10635Y142605D01*
X10525Y142635D01*
X10415Y142660D01*
X10304Y142682D01*
X10192Y142699D01*
X10079Y142713D01*
X9966Y142723D01*
X9853Y142729D01*
X9740Y142731D01*
X9627Y142729D01*
X9514Y142723D01*
X9401Y142713D01*
X9288Y142699D01*
X9176Y142682D01*
X9065Y142660D01*
X8955Y142635D01*
X8845Y142605D01*
X8737Y142572D01*
X8630Y142535D01*
X8524Y142495D01*
X8420Y142450D01*
X8317Y142402D01*
X8216Y142351D01*
X8117Y142296D01*
X8020Y142238D01*
X7925Y142176D01*
X7832Y142111D01*
X7742Y142043D01*
X7654Y141972D01*
X7568Y141897D01*
X7485Y141820D01*
X7405Y141740D01*
X7328Y141657D01*
X7253Y141571D01*
X7182Y141483D01*
X7114Y141393D01*
X7049Y141300D01*
X6987Y141205D01*
X6929Y141108D01*
X6874Y141009D01*
X6823Y140908D01*
X6775Y140805D01*
X6730Y140701D01*
X6690Y140595D01*
X6653Y140488D01*
X6620Y140380D01*
X6590Y140270D01*
X6565Y140160D01*
X6543Y140049D01*
X6526Y139937D01*
X6512Y139824D01*
X6502Y139711D01*
X6496Y139598D01*
X6494Y139485D01*
X1302Y140134D02*
X1302Y136239D01*
X1302Y140134D02*
X1304Y140235D01*
X1310Y140335D01*
X1320Y140435D01*
X1333Y140535D01*
X1351Y140634D01*
X1372Y140733D01*
X1397Y140830D01*
X1426Y140927D01*
X1459Y141022D01*
X1495Y141116D01*
X1535Y141208D01*
X1578Y141299D01*
X1625Y141388D01*
X1675Y141475D01*
X1729Y141561D01*
X1786Y141644D01*
X1846Y141724D01*
X1909Y141803D01*
X1976Y141879D01*
X2045Y141952D01*
X2117Y142022D01*
X2191Y142090D01*
X2268Y142155D01*
X2348Y142216D01*
X2430Y142275D01*
X2514Y142330D01*
X2600Y142382D01*
X2688Y142431D01*
X2778Y142476D01*
X2870Y142518D01*
X2963Y142556D01*
X3058Y142590D01*
X3153Y142621D01*
X3250Y142648D01*
X3348Y142671D01*
X3447Y142691D01*
X3547Y142706D01*
X3647Y142718D01*
X3747Y142726D01*
X3848Y142730D01*
X3948Y142730D01*
X4049Y142726D01*
X4149Y142718D01*
X4249Y142706D01*
X4349Y142691D01*
X4448Y142671D01*
X4546Y142648D01*
X4643Y142621D01*
X4738Y142590D01*
X4833Y142556D01*
X4926Y142518D01*
X5018Y142476D01*
X5108Y142431D01*
X5196Y142382D01*
X5282Y142330D01*
X5366Y142275D01*
X5448Y142216D01*
X5528Y142155D01*
X5605Y142090D01*
X5679Y142022D01*
X5751Y141952D01*
X5820Y141879D01*
X5887Y141803D01*
X5950Y141724D01*
X6010Y141644D01*
X6067Y141561D01*
X6121Y141475D01*
X6171Y141388D01*
X6218Y141299D01*
X6261Y141208D01*
X6301Y141116D01*
X6337Y141022D01*
X6370Y140927D01*
X6399Y140830D01*
X6424Y140733D01*
X6445Y140634D01*
X6463Y140535D01*
X6476Y140435D01*
X6486Y140335D01*
X6492Y140235D01*
X6494Y140134D01*
X6495Y140134D02*
X6495Y137537D01*
X1302Y147020D02*
X12986Y150915D01*
X1302Y154809D01*
X12986Y159099D02*
X12986Y162345D01*
X12984Y162458D01*
X12978Y162571D01*
X12968Y162684D01*
X12954Y162797D01*
X12937Y162909D01*
X12915Y163020D01*
X12890Y163130D01*
X12860Y163240D01*
X12827Y163348D01*
X12790Y163455D01*
X12750Y163561D01*
X12705Y163665D01*
X12657Y163768D01*
X12606Y163869D01*
X12551Y163968D01*
X12493Y164065D01*
X12431Y164160D01*
X12366Y164253D01*
X12298Y164343D01*
X12227Y164431D01*
X12152Y164517D01*
X12075Y164600D01*
X11995Y164680D01*
X11912Y164757D01*
X11826Y164832D01*
X11738Y164903D01*
X11648Y164971D01*
X11555Y165036D01*
X11460Y165098D01*
X11363Y165156D01*
X11264Y165211D01*
X11163Y165262D01*
X11060Y165310D01*
X10956Y165355D01*
X10850Y165395D01*
X10743Y165432D01*
X10635Y165465D01*
X10525Y165495D01*
X10415Y165520D01*
X10304Y165542D01*
X10192Y165559D01*
X10079Y165573D01*
X9966Y165583D01*
X9853Y165589D01*
X9740Y165591D01*
X9627Y165589D01*
X9514Y165583D01*
X9401Y165573D01*
X9288Y165559D01*
X9176Y165542D01*
X9065Y165520D01*
X8955Y165495D01*
X8845Y165465D01*
X8737Y165432D01*
X8630Y165395D01*
X8524Y165355D01*
X8420Y165310D01*
X8317Y165262D01*
X8216Y165211D01*
X8117Y165156D01*
X8020Y165098D01*
X7925Y165036D01*
X7832Y164971D01*
X7742Y164903D01*
X7654Y164832D01*
X7568Y164757D01*
X7485Y164680D01*
X7405Y164600D01*
X7328Y164517D01*
X7253Y164431D01*
X7182Y164343D01*
X7114Y164253D01*
X7049Y164160D01*
X6987Y164065D01*
X6929Y163968D01*
X6874Y163869D01*
X6823Y163768D01*
X6775Y163665D01*
X6730Y163561D01*
X6690Y163455D01*
X6653Y163348D01*
X6620Y163240D01*
X6590Y163130D01*
X6565Y163020D01*
X6543Y162909D01*
X6526Y162797D01*
X6512Y162684D01*
X6502Y162571D01*
X6496Y162458D01*
X6494Y162345D01*
X1302Y162994D02*
X1302Y159099D01*
X1302Y162994D02*
X1304Y163095D01*
X1310Y163195D01*
X1320Y163295D01*
X1333Y163395D01*
X1351Y163494D01*
X1372Y163593D01*
X1397Y163690D01*
X1426Y163787D01*
X1459Y163882D01*
X1495Y163976D01*
X1535Y164068D01*
X1578Y164159D01*
X1625Y164248D01*
X1675Y164335D01*
X1729Y164421D01*
X1786Y164504D01*
X1846Y164584D01*
X1909Y164663D01*
X1976Y164739D01*
X2045Y164812D01*
X2117Y164882D01*
X2191Y164950D01*
X2268Y165015D01*
X2348Y165076D01*
X2430Y165135D01*
X2514Y165190D01*
X2600Y165242D01*
X2688Y165291D01*
X2778Y165336D01*
X2870Y165378D01*
X2963Y165416D01*
X3058Y165450D01*
X3153Y165481D01*
X3250Y165508D01*
X3348Y165531D01*
X3447Y165551D01*
X3547Y165566D01*
X3647Y165578D01*
X3747Y165586D01*
X3848Y165590D01*
X3948Y165590D01*
X4049Y165586D01*
X4149Y165578D01*
X4249Y165566D01*
X4349Y165551D01*
X4448Y165531D01*
X4546Y165508D01*
X4643Y165481D01*
X4738Y165450D01*
X4833Y165416D01*
X4926Y165378D01*
X5018Y165336D01*
X5108Y165291D01*
X5196Y165242D01*
X5282Y165190D01*
X5366Y165135D01*
X5448Y165076D01*
X5528Y165015D01*
X5605Y164950D01*
X5679Y164882D01*
X5751Y164812D01*
X5820Y164739D01*
X5887Y164663D01*
X5950Y164584D01*
X6010Y164504D01*
X6067Y164421D01*
X6121Y164335D01*
X6171Y164248D01*
X6218Y164159D01*
X6261Y164068D01*
X6301Y163976D01*
X6337Y163882D01*
X6370Y163787D01*
X6399Y163690D01*
X6424Y163593D01*
X6445Y163494D01*
X6463Y163395D01*
X6476Y163295D01*
X6486Y163195D01*
X6492Y163095D01*
X6494Y162994D01*
X6495Y162994D02*
X6495Y160397D01*
X32036Y269385D02*
X32036Y272630D01*
X32034Y272743D01*
X32028Y272856D01*
X32018Y272969D01*
X32004Y273082D01*
X31987Y273194D01*
X31965Y273305D01*
X31940Y273415D01*
X31910Y273525D01*
X31877Y273633D01*
X31840Y273740D01*
X31800Y273846D01*
X31755Y273950D01*
X31707Y274053D01*
X31656Y274154D01*
X31601Y274253D01*
X31543Y274350D01*
X31481Y274445D01*
X31416Y274538D01*
X31348Y274628D01*
X31277Y274716D01*
X31202Y274802D01*
X31125Y274885D01*
X31045Y274965D01*
X30962Y275042D01*
X30876Y275117D01*
X30788Y275188D01*
X30698Y275256D01*
X30605Y275321D01*
X30510Y275383D01*
X30413Y275441D01*
X30314Y275496D01*
X30213Y275547D01*
X30110Y275595D01*
X30006Y275640D01*
X29900Y275680D01*
X29793Y275717D01*
X29685Y275750D01*
X29575Y275780D01*
X29465Y275805D01*
X29354Y275827D01*
X29242Y275844D01*
X29129Y275858D01*
X29016Y275868D01*
X28903Y275874D01*
X28790Y275876D01*
X28677Y275874D01*
X28564Y275868D01*
X28451Y275858D01*
X28338Y275844D01*
X28226Y275827D01*
X28115Y275805D01*
X28005Y275780D01*
X27895Y275750D01*
X27787Y275717D01*
X27680Y275680D01*
X27574Y275640D01*
X27470Y275595D01*
X27367Y275547D01*
X27266Y275496D01*
X27167Y275441D01*
X27070Y275383D01*
X26975Y275321D01*
X26882Y275256D01*
X26792Y275188D01*
X26704Y275117D01*
X26618Y275042D01*
X26535Y274965D01*
X26455Y274885D01*
X26378Y274802D01*
X26303Y274716D01*
X26232Y274628D01*
X26164Y274538D01*
X26099Y274445D01*
X26037Y274350D01*
X25979Y274253D01*
X25924Y274154D01*
X25873Y274053D01*
X25825Y273950D01*
X25780Y273846D01*
X25740Y273740D01*
X25703Y273633D01*
X25670Y273525D01*
X25640Y273415D01*
X25615Y273305D01*
X25593Y273194D01*
X25576Y273082D01*
X25562Y272969D01*
X25552Y272856D01*
X25546Y272743D01*
X25544Y272630D01*
X20352Y273279D02*
X20352Y269385D01*
X20352Y273279D02*
X20354Y273380D01*
X20360Y273480D01*
X20370Y273580D01*
X20383Y273680D01*
X20401Y273779D01*
X20422Y273878D01*
X20447Y273975D01*
X20476Y274072D01*
X20509Y274167D01*
X20545Y274261D01*
X20585Y274353D01*
X20628Y274444D01*
X20675Y274533D01*
X20725Y274620D01*
X20779Y274706D01*
X20836Y274789D01*
X20896Y274869D01*
X20959Y274948D01*
X21026Y275024D01*
X21095Y275097D01*
X21167Y275167D01*
X21241Y275235D01*
X21318Y275300D01*
X21398Y275361D01*
X21480Y275420D01*
X21564Y275475D01*
X21650Y275527D01*
X21738Y275576D01*
X21828Y275621D01*
X21920Y275663D01*
X22013Y275701D01*
X22108Y275735D01*
X22203Y275766D01*
X22300Y275793D01*
X22398Y275816D01*
X22497Y275836D01*
X22597Y275851D01*
X22697Y275863D01*
X22797Y275871D01*
X22898Y275875D01*
X22998Y275875D01*
X23099Y275871D01*
X23199Y275863D01*
X23299Y275851D01*
X23399Y275836D01*
X23498Y275816D01*
X23596Y275793D01*
X23693Y275766D01*
X23788Y275735D01*
X23883Y275701D01*
X23976Y275663D01*
X24068Y275621D01*
X24158Y275576D01*
X24246Y275527D01*
X24332Y275475D01*
X24416Y275420D01*
X24498Y275361D01*
X24578Y275300D01*
X24655Y275235D01*
X24729Y275167D01*
X24801Y275097D01*
X24870Y275024D01*
X24937Y274948D01*
X25000Y274869D01*
X25060Y274789D01*
X25117Y274706D01*
X25171Y274620D01*
X25221Y274533D01*
X25268Y274444D01*
X25311Y274353D01*
X25351Y274261D01*
X25387Y274167D01*
X25420Y274072D01*
X25449Y273975D01*
X25474Y273878D01*
X25495Y273779D01*
X25513Y273680D01*
X25526Y273580D01*
X25536Y273480D01*
X25542Y273380D01*
X25544Y273279D01*
X25545Y273279D02*
X25545Y270683D01*
X20352Y280166D02*
X32036Y284060D01*
X20352Y287955D01*
X32036Y292245D02*
X32036Y295490D01*
X32034Y295603D01*
X32028Y295716D01*
X32018Y295829D01*
X32004Y295942D01*
X31987Y296054D01*
X31965Y296165D01*
X31940Y296275D01*
X31910Y296385D01*
X31877Y296493D01*
X31840Y296600D01*
X31800Y296706D01*
X31755Y296810D01*
X31707Y296913D01*
X31656Y297014D01*
X31601Y297113D01*
X31543Y297210D01*
X31481Y297305D01*
X31416Y297398D01*
X31348Y297488D01*
X31277Y297576D01*
X31202Y297662D01*
X31125Y297745D01*
X31045Y297825D01*
X30962Y297902D01*
X30876Y297977D01*
X30788Y298048D01*
X30698Y298116D01*
X30605Y298181D01*
X30510Y298243D01*
X30413Y298301D01*
X30314Y298356D01*
X30213Y298407D01*
X30110Y298455D01*
X30006Y298500D01*
X29900Y298540D01*
X29793Y298577D01*
X29685Y298610D01*
X29575Y298640D01*
X29465Y298665D01*
X29354Y298687D01*
X29242Y298704D01*
X29129Y298718D01*
X29016Y298728D01*
X28903Y298734D01*
X28790Y298736D01*
X28677Y298734D01*
X28564Y298728D01*
X28451Y298718D01*
X28338Y298704D01*
X28226Y298687D01*
X28115Y298665D01*
X28005Y298640D01*
X27895Y298610D01*
X27787Y298577D01*
X27680Y298540D01*
X27574Y298500D01*
X27470Y298455D01*
X27367Y298407D01*
X27266Y298356D01*
X27167Y298301D01*
X27070Y298243D01*
X26975Y298181D01*
X26882Y298116D01*
X26792Y298048D01*
X26704Y297977D01*
X26618Y297902D01*
X26535Y297825D01*
X26455Y297745D01*
X26378Y297662D01*
X26303Y297576D01*
X26232Y297488D01*
X26164Y297398D01*
X26099Y297305D01*
X26037Y297210D01*
X25979Y297113D01*
X25924Y297014D01*
X25873Y296913D01*
X25825Y296810D01*
X25780Y296706D01*
X25740Y296600D01*
X25703Y296493D01*
X25670Y296385D01*
X25640Y296275D01*
X25615Y296165D01*
X25593Y296054D01*
X25576Y295942D01*
X25562Y295829D01*
X25552Y295716D01*
X25546Y295603D01*
X25544Y295490D01*
X20352Y296139D02*
X20352Y292245D01*
X20352Y296139D02*
X20354Y296240D01*
X20360Y296340D01*
X20370Y296440D01*
X20383Y296540D01*
X20401Y296639D01*
X20422Y296738D01*
X20447Y296835D01*
X20476Y296932D01*
X20509Y297027D01*
X20545Y297121D01*
X20585Y297213D01*
X20628Y297304D01*
X20675Y297393D01*
X20725Y297480D01*
X20779Y297566D01*
X20836Y297649D01*
X20896Y297729D01*
X20959Y297808D01*
X21026Y297884D01*
X21095Y297957D01*
X21167Y298027D01*
X21241Y298095D01*
X21318Y298160D01*
X21398Y298221D01*
X21480Y298280D01*
X21564Y298335D01*
X21650Y298387D01*
X21738Y298436D01*
X21828Y298481D01*
X21920Y298523D01*
X22013Y298561D01*
X22108Y298595D01*
X22203Y298626D01*
X22300Y298653D01*
X22398Y298676D01*
X22497Y298696D01*
X22597Y298711D01*
X22697Y298723D01*
X22797Y298731D01*
X22898Y298735D01*
X22998Y298735D01*
X23099Y298731D01*
X23199Y298723D01*
X23299Y298711D01*
X23399Y298696D01*
X23498Y298676D01*
X23596Y298653D01*
X23693Y298626D01*
X23788Y298595D01*
X23883Y298561D01*
X23976Y298523D01*
X24068Y298481D01*
X24158Y298436D01*
X24246Y298387D01*
X24332Y298335D01*
X24416Y298280D01*
X24498Y298221D01*
X24578Y298160D01*
X24655Y298095D01*
X24729Y298027D01*
X24801Y297957D01*
X24870Y297884D01*
X24937Y297808D01*
X25000Y297729D01*
X25060Y297649D01*
X25117Y297566D01*
X25171Y297480D01*
X25221Y297393D01*
X25268Y297304D01*
X25311Y297213D01*
X25351Y297121D01*
X25387Y297027D01*
X25420Y296932D01*
X25449Y296835D01*
X25474Y296738D01*
X25495Y296639D01*
X25513Y296540D01*
X25526Y296440D01*
X25536Y296340D01*
X25542Y296240D01*
X25544Y296139D01*
X25545Y296139D02*
X25545Y293543D01*
X323167Y242602D02*
X328360Y242602D01*
X323167Y242602D02*
X323167Y254286D01*
X328360Y254286D01*
X327062Y249093D02*
X323167Y249093D01*
X335233Y242602D02*
X337829Y242602D01*
X335233Y242602D02*
X335134Y242604D01*
X335034Y242610D01*
X334935Y242619D01*
X334837Y242632D01*
X334739Y242649D01*
X334641Y242670D01*
X334545Y242695D01*
X334450Y242723D01*
X334356Y242755D01*
X334263Y242790D01*
X334171Y242829D01*
X334081Y242872D01*
X333993Y242917D01*
X333906Y242967D01*
X333822Y243019D01*
X333739Y243075D01*
X333659Y243133D01*
X333581Y243195D01*
X333506Y243260D01*
X333433Y243328D01*
X333363Y243398D01*
X333295Y243471D01*
X333230Y243546D01*
X333168Y243624D01*
X333110Y243704D01*
X333054Y243787D01*
X333002Y243871D01*
X332952Y243958D01*
X332907Y244046D01*
X332864Y244136D01*
X332825Y244228D01*
X332790Y244321D01*
X332758Y244415D01*
X332730Y244510D01*
X332705Y244606D01*
X332684Y244704D01*
X332667Y244802D01*
X332654Y244900D01*
X332645Y244999D01*
X332639Y245099D01*
X332637Y245198D01*
X332637Y251689D01*
X332639Y251788D01*
X332645Y251888D01*
X332654Y251987D01*
X332667Y252085D01*
X332684Y252183D01*
X332705Y252281D01*
X332730Y252377D01*
X332758Y252472D01*
X332790Y252566D01*
X332825Y252659D01*
X332864Y252751D01*
X332907Y252841D01*
X332952Y252929D01*
X333002Y253016D01*
X333054Y253100D01*
X333110Y253183D01*
X333168Y253263D01*
X333230Y253341D01*
X333295Y253416D01*
X333363Y253489D01*
X333433Y253559D01*
X333506Y253627D01*
X333581Y253692D01*
X333659Y253754D01*
X333739Y253812D01*
X333822Y253868D01*
X333906Y253920D01*
X333993Y253970D01*
X334081Y254015D01*
X334171Y254058D01*
X334263Y254097D01*
X334355Y254132D01*
X334450Y254164D01*
X334545Y254192D01*
X334641Y254217D01*
X334739Y254238D01*
X334837Y254255D01*
X334935Y254268D01*
X335034Y254277D01*
X335134Y254283D01*
X335233Y254285D01*
X335233Y254286D02*
X337829Y254286D01*
X347120Y249093D02*
X349067Y249093D01*
X349067Y242602D01*
X345172Y242602D01*
X345073Y242604D01*
X344973Y242610D01*
X344874Y242619D01*
X344776Y242632D01*
X344678Y242649D01*
X344580Y242670D01*
X344484Y242695D01*
X344389Y242723D01*
X344295Y242755D01*
X344202Y242790D01*
X344110Y242829D01*
X344020Y242872D01*
X343932Y242917D01*
X343845Y242967D01*
X343761Y243019D01*
X343678Y243075D01*
X343598Y243133D01*
X343520Y243195D01*
X343445Y243260D01*
X343372Y243328D01*
X343302Y243398D01*
X343234Y243471D01*
X343169Y243546D01*
X343107Y243624D01*
X343049Y243704D01*
X342993Y243787D01*
X342941Y243871D01*
X342891Y243958D01*
X342846Y244046D01*
X342803Y244136D01*
X342764Y244228D01*
X342729Y244321D01*
X342697Y244415D01*
X342669Y244510D01*
X342644Y244606D01*
X342623Y244704D01*
X342606Y244802D01*
X342593Y244900D01*
X342584Y244999D01*
X342578Y245099D01*
X342576Y245198D01*
X342576Y251689D01*
X342578Y251788D01*
X342584Y251888D01*
X342593Y251987D01*
X342606Y252085D01*
X342623Y252183D01*
X342644Y252281D01*
X342669Y252377D01*
X342697Y252472D01*
X342729Y252566D01*
X342764Y252659D01*
X342803Y252751D01*
X342846Y252841D01*
X342891Y252929D01*
X342941Y253016D01*
X342993Y253100D01*
X343049Y253183D01*
X343107Y253263D01*
X343169Y253341D01*
X343234Y253416D01*
X343302Y253489D01*
X343372Y253559D01*
X343445Y253627D01*
X343520Y253692D01*
X343598Y253754D01*
X343678Y253812D01*
X343761Y253868D01*
X343845Y253920D01*
X343932Y253970D01*
X344020Y254015D01*
X344110Y254058D01*
X344202Y254097D01*
X344294Y254132D01*
X344389Y254164D01*
X344484Y254192D01*
X344580Y254217D01*
X344678Y254238D01*
X344776Y254255D01*
X344874Y254268D01*
X344973Y254277D01*
X345073Y254283D01*
X345172Y254285D01*
X345172Y254286D02*
X349067Y254286D01*
X359086Y255584D02*
X353893Y241304D01*
X363934Y242602D02*
X369127Y242602D01*
X363934Y242602D02*
X363934Y254286D01*
X369127Y254286D01*
X367829Y249093D02*
X363934Y249093D01*
X373437Y251040D02*
X373437Y245847D01*
X373436Y251040D02*
X373438Y251153D01*
X373444Y251266D01*
X373454Y251379D01*
X373468Y251492D01*
X373485Y251604D01*
X373507Y251715D01*
X373532Y251825D01*
X373562Y251935D01*
X373595Y252043D01*
X373632Y252150D01*
X373672Y252256D01*
X373717Y252360D01*
X373765Y252463D01*
X373816Y252564D01*
X373871Y252663D01*
X373929Y252760D01*
X373991Y252855D01*
X374056Y252948D01*
X374124Y253038D01*
X374195Y253126D01*
X374270Y253212D01*
X374347Y253295D01*
X374427Y253375D01*
X374510Y253452D01*
X374596Y253527D01*
X374684Y253598D01*
X374774Y253666D01*
X374867Y253731D01*
X374962Y253793D01*
X375059Y253851D01*
X375158Y253906D01*
X375259Y253957D01*
X375362Y254005D01*
X375466Y254050D01*
X375572Y254090D01*
X375679Y254127D01*
X375787Y254160D01*
X375897Y254190D01*
X376007Y254215D01*
X376118Y254237D01*
X376230Y254254D01*
X376343Y254268D01*
X376456Y254278D01*
X376569Y254284D01*
X376682Y254286D01*
X376795Y254284D01*
X376908Y254278D01*
X377021Y254268D01*
X377134Y254254D01*
X377246Y254237D01*
X377357Y254215D01*
X377467Y254190D01*
X377577Y254160D01*
X377685Y254127D01*
X377792Y254090D01*
X377898Y254050D01*
X378002Y254005D01*
X378105Y253957D01*
X378206Y253906D01*
X378305Y253851D01*
X378402Y253793D01*
X378497Y253731D01*
X378590Y253666D01*
X378680Y253598D01*
X378768Y253527D01*
X378854Y253452D01*
X378937Y253375D01*
X379017Y253295D01*
X379094Y253212D01*
X379169Y253126D01*
X379240Y253038D01*
X379308Y252948D01*
X379373Y252855D01*
X379435Y252760D01*
X379493Y252663D01*
X379548Y252564D01*
X379599Y252463D01*
X379647Y252360D01*
X379692Y252256D01*
X379732Y252150D01*
X379769Y252043D01*
X379802Y251935D01*
X379832Y251825D01*
X379857Y251715D01*
X379879Y251604D01*
X379896Y251492D01*
X379910Y251379D01*
X379920Y251266D01*
X379926Y251153D01*
X379928Y251040D01*
X379928Y245847D01*
X379926Y245734D01*
X379920Y245621D01*
X379910Y245508D01*
X379896Y245395D01*
X379879Y245283D01*
X379857Y245172D01*
X379832Y245062D01*
X379802Y244952D01*
X379769Y244844D01*
X379732Y244737D01*
X379692Y244631D01*
X379647Y244527D01*
X379599Y244424D01*
X379548Y244323D01*
X379493Y244224D01*
X379435Y244127D01*
X379373Y244032D01*
X379308Y243939D01*
X379240Y243849D01*
X379169Y243761D01*
X379094Y243675D01*
X379017Y243592D01*
X378937Y243512D01*
X378854Y243435D01*
X378768Y243360D01*
X378680Y243289D01*
X378590Y243221D01*
X378497Y243156D01*
X378402Y243094D01*
X378305Y243036D01*
X378206Y242981D01*
X378105Y242930D01*
X378002Y242882D01*
X377898Y242837D01*
X377792Y242797D01*
X377685Y242760D01*
X377577Y242727D01*
X377467Y242697D01*
X377357Y242672D01*
X377246Y242650D01*
X377134Y242633D01*
X377021Y242619D01*
X376908Y242609D01*
X376795Y242603D01*
X376682Y242601D01*
X376569Y242603D01*
X376456Y242609D01*
X376343Y242619D01*
X376230Y242633D01*
X376118Y242650D01*
X376007Y242672D01*
X375897Y242697D01*
X375787Y242727D01*
X375679Y242760D01*
X375572Y242797D01*
X375466Y242837D01*
X375362Y242882D01*
X375259Y242930D01*
X375158Y242981D01*
X375059Y243036D01*
X374962Y243094D01*
X374867Y243156D01*
X374774Y243221D01*
X374684Y243289D01*
X374596Y243360D01*
X374510Y243435D01*
X374427Y243512D01*
X374347Y243592D01*
X374270Y243675D01*
X374195Y243761D01*
X374124Y243849D01*
X374056Y243939D01*
X373991Y244032D01*
X373929Y244127D01*
X373871Y244224D01*
X373816Y244323D01*
X373765Y244424D01*
X373717Y244527D01*
X373672Y244631D01*
X373632Y244737D01*
X373595Y244844D01*
X373562Y244952D01*
X373532Y245062D01*
X373507Y245172D01*
X373485Y245283D01*
X373468Y245395D01*
X373454Y245508D01*
X373444Y245621D01*
X373438Y245734D01*
X373436Y245847D01*
X389791Y249093D02*
X391739Y249093D01*
X391739Y242602D01*
X387844Y242602D01*
X387745Y242604D01*
X387645Y242610D01*
X387546Y242619D01*
X387448Y242632D01*
X387350Y242649D01*
X387252Y242670D01*
X387156Y242695D01*
X387061Y242723D01*
X386967Y242755D01*
X386874Y242790D01*
X386782Y242829D01*
X386692Y242872D01*
X386604Y242917D01*
X386517Y242967D01*
X386433Y243019D01*
X386350Y243075D01*
X386270Y243133D01*
X386192Y243195D01*
X386117Y243260D01*
X386044Y243328D01*
X385974Y243398D01*
X385906Y243471D01*
X385841Y243546D01*
X385779Y243624D01*
X385721Y243704D01*
X385665Y243787D01*
X385613Y243871D01*
X385563Y243958D01*
X385518Y244046D01*
X385475Y244136D01*
X385436Y244228D01*
X385401Y244321D01*
X385369Y244415D01*
X385341Y244510D01*
X385316Y244606D01*
X385295Y244704D01*
X385278Y244802D01*
X385265Y244900D01*
X385256Y244999D01*
X385250Y245099D01*
X385248Y245198D01*
X385248Y251689D01*
X385250Y251788D01*
X385256Y251888D01*
X385265Y251987D01*
X385278Y252085D01*
X385295Y252183D01*
X385316Y252281D01*
X385341Y252377D01*
X385369Y252472D01*
X385401Y252566D01*
X385436Y252659D01*
X385475Y252751D01*
X385518Y252841D01*
X385563Y252929D01*
X385613Y253016D01*
X385665Y253100D01*
X385721Y253183D01*
X385779Y253263D01*
X385841Y253341D01*
X385906Y253416D01*
X385974Y253489D01*
X386044Y253559D01*
X386117Y253627D01*
X386192Y253692D01*
X386270Y253754D01*
X386350Y253812D01*
X386433Y253868D01*
X386517Y253920D01*
X386604Y253970D01*
X386692Y254015D01*
X386782Y254058D01*
X386874Y254097D01*
X386966Y254132D01*
X387061Y254164D01*
X387156Y254192D01*
X387252Y254217D01*
X387350Y254238D01*
X387448Y254255D01*
X387546Y254268D01*
X387645Y254277D01*
X387745Y254283D01*
X387844Y254285D01*
X387844Y254286D02*
X391739Y254286D01*
X401758Y255584D02*
X396565Y241304D01*
X406606Y242602D02*
X411799Y242602D01*
X406606Y242602D02*
X406606Y254286D01*
X411799Y254286D01*
X410501Y249093D02*
X406606Y249093D01*
X416512Y242602D02*
X421705Y242602D01*
X416512Y242602D02*
X416512Y254286D01*
X421705Y254286D01*
X420407Y249093D02*
X416512Y249093D01*
X430939Y249093D02*
X432887Y249093D01*
X432887Y242602D01*
X428992Y242602D01*
X428893Y242604D01*
X428793Y242610D01*
X428694Y242619D01*
X428596Y242632D01*
X428498Y242649D01*
X428400Y242670D01*
X428304Y242695D01*
X428209Y242723D01*
X428115Y242755D01*
X428022Y242790D01*
X427930Y242829D01*
X427840Y242872D01*
X427752Y242917D01*
X427665Y242967D01*
X427581Y243019D01*
X427498Y243075D01*
X427418Y243133D01*
X427340Y243195D01*
X427265Y243260D01*
X427192Y243328D01*
X427122Y243398D01*
X427054Y243471D01*
X426989Y243546D01*
X426927Y243624D01*
X426869Y243704D01*
X426813Y243787D01*
X426761Y243871D01*
X426711Y243958D01*
X426666Y244046D01*
X426623Y244136D01*
X426584Y244228D01*
X426549Y244321D01*
X426517Y244415D01*
X426489Y244510D01*
X426464Y244606D01*
X426443Y244704D01*
X426426Y244802D01*
X426413Y244900D01*
X426404Y244999D01*
X426398Y245099D01*
X426396Y245198D01*
X426396Y251689D01*
X426398Y251788D01*
X426404Y251888D01*
X426413Y251987D01*
X426426Y252085D01*
X426443Y252183D01*
X426464Y252281D01*
X426489Y252377D01*
X426517Y252472D01*
X426549Y252566D01*
X426584Y252659D01*
X426623Y252751D01*
X426666Y252841D01*
X426711Y252929D01*
X426761Y253016D01*
X426813Y253100D01*
X426869Y253183D01*
X426927Y253263D01*
X426989Y253341D01*
X427054Y253416D01*
X427122Y253489D01*
X427192Y253559D01*
X427265Y253627D01*
X427340Y253692D01*
X427418Y253754D01*
X427498Y253812D01*
X427581Y253868D01*
X427665Y253920D01*
X427752Y253970D01*
X427840Y254015D01*
X427930Y254058D01*
X428022Y254097D01*
X428114Y254132D01*
X428209Y254164D01*
X428304Y254192D01*
X428400Y254217D01*
X428498Y254238D01*
X428596Y254255D01*
X428694Y254268D01*
X428793Y254277D01*
X428893Y254283D01*
X428992Y254285D01*
X428992Y254286D02*
X432887Y254286D01*
X328360Y154496D02*
X323167Y154496D01*
X323167Y166180D01*
X328360Y166180D01*
X327062Y160987D02*
X323167Y160987D01*
X333164Y166180D02*
X333164Y154496D01*
X337058Y159688D02*
X333164Y166180D01*
X337058Y159688D02*
X340953Y166180D01*
X340953Y154496D01*
X351311Y160987D02*
X353258Y160987D01*
X353258Y154496D01*
X349363Y154496D01*
X349264Y154498D01*
X349164Y154504D01*
X349065Y154513D01*
X348967Y154526D01*
X348869Y154543D01*
X348771Y154564D01*
X348675Y154589D01*
X348580Y154617D01*
X348486Y154649D01*
X348393Y154684D01*
X348301Y154723D01*
X348211Y154766D01*
X348123Y154811D01*
X348036Y154861D01*
X347952Y154913D01*
X347869Y154969D01*
X347789Y155027D01*
X347711Y155089D01*
X347636Y155154D01*
X347563Y155222D01*
X347493Y155292D01*
X347425Y155365D01*
X347360Y155440D01*
X347298Y155518D01*
X347240Y155598D01*
X347184Y155681D01*
X347132Y155765D01*
X347082Y155852D01*
X347037Y155940D01*
X346994Y156030D01*
X346955Y156122D01*
X346920Y156215D01*
X346888Y156309D01*
X346860Y156404D01*
X346835Y156500D01*
X346814Y156598D01*
X346797Y156696D01*
X346784Y156794D01*
X346775Y156893D01*
X346769Y156993D01*
X346767Y157092D01*
X346767Y163583D01*
X346769Y163682D01*
X346775Y163782D01*
X346784Y163881D01*
X346797Y163979D01*
X346814Y164077D01*
X346835Y164175D01*
X346860Y164271D01*
X346888Y164366D01*
X346920Y164460D01*
X346955Y164553D01*
X346994Y164645D01*
X347037Y164735D01*
X347082Y164823D01*
X347132Y164910D01*
X347184Y164994D01*
X347240Y165077D01*
X347298Y165157D01*
X347360Y165235D01*
X347425Y165310D01*
X347493Y165383D01*
X347563Y165453D01*
X347636Y165521D01*
X347711Y165586D01*
X347789Y165648D01*
X347869Y165706D01*
X347952Y165762D01*
X348036Y165814D01*
X348123Y165864D01*
X348211Y165909D01*
X348301Y165952D01*
X348393Y165991D01*
X348485Y166026D01*
X348580Y166058D01*
X348675Y166086D01*
X348771Y166111D01*
X348869Y166132D01*
X348967Y166149D01*
X349065Y166162D01*
X349164Y166171D01*
X349264Y166177D01*
X349363Y166179D01*
X349363Y166180D02*
X353258Y166180D01*
D119*
X506623Y279285D02*
X507377Y280658D01*
X511952Y278143D01*
X510443Y275397D01*
X510443Y275398D02*
X510397Y275319D01*
X510348Y275242D01*
X510296Y275168D01*
X510240Y275096D01*
X510182Y275026D01*
X510120Y274959D01*
X510056Y274894D01*
X509988Y274833D01*
X509919Y274774D01*
X509846Y274719D01*
X509772Y274667D01*
X509695Y274618D01*
X509616Y274573D01*
X509535Y274531D01*
X509452Y274492D01*
X509368Y274457D01*
X509282Y274426D01*
X509196Y274399D01*
X509108Y274375D01*
X509019Y274356D01*
X508929Y274340D01*
X508839Y274328D01*
X508748Y274320D01*
X508657Y274316D01*
X508566Y274317D01*
X508475Y274321D01*
X508384Y274329D01*
X508294Y274341D01*
X508204Y274356D01*
X508115Y274376D01*
X508027Y274400D01*
X507940Y274427D01*
X507855Y274459D01*
X507770Y274494D01*
X507688Y274532D01*
X507607Y274574D01*
X507607Y274573D02*
X503032Y277089D01*
X502953Y277135D01*
X502876Y277184D01*
X502802Y277236D01*
X502730Y277292D01*
X502660Y277350D01*
X502593Y277412D01*
X502528Y277476D01*
X502467Y277544D01*
X502408Y277613D01*
X502353Y277686D01*
X502301Y277760D01*
X502252Y277837D01*
X502207Y277916D01*
X502165Y277997D01*
X502126Y278080D01*
X502091Y278164D01*
X502060Y278250D01*
X502033Y278336D01*
X502009Y278424D01*
X501990Y278513D01*
X501974Y278603D01*
X501962Y278693D01*
X501954Y278784D01*
X501950Y278875D01*
X501951Y278966D01*
X501955Y279057D01*
X501963Y279148D01*
X501975Y279238D01*
X501990Y279328D01*
X502010Y279417D01*
X502034Y279505D01*
X502061Y279592D01*
X502093Y279677D01*
X502128Y279762D01*
X502166Y279844D01*
X502208Y279925D01*
X503717Y282670D01*
X505900Y286642D02*
X514136Y282114D01*
X516651Y286690D02*
X505900Y286642D01*
X508416Y291217D02*
X516651Y286690D01*
X518835Y290662D02*
X510599Y295189D01*
X511857Y297477D01*
X511856Y297477D02*
X511906Y297564D01*
X511959Y297648D01*
X512015Y297731D01*
X512075Y297811D01*
X512137Y297889D01*
X512203Y297965D01*
X512271Y298038D01*
X512342Y298109D01*
X512416Y298176D01*
X512492Y298241D01*
X512571Y298303D01*
X512652Y298361D01*
X512735Y298417D01*
X512820Y298469D01*
X512907Y298519D01*
X512996Y298564D01*
X513087Y298606D01*
X513179Y298645D01*
X513273Y298680D01*
X513368Y298712D01*
X513464Y298740D01*
X513561Y298764D01*
X513659Y298785D01*
X513757Y298801D01*
X513856Y298814D01*
X513956Y298823D01*
X514056Y298829D01*
X514156Y298830D01*
X514256Y298828D01*
X514356Y298821D01*
X514455Y298811D01*
X514554Y298798D01*
X514653Y298780D01*
X514751Y298759D01*
X514847Y298733D01*
X514943Y298705D01*
X515038Y298672D01*
X515131Y298636D01*
X515223Y298597D01*
X515313Y298554D01*
X515402Y298507D01*
X519062Y296494D01*
X519063Y296495D02*
X519150Y296445D01*
X519234Y296392D01*
X519317Y296336D01*
X519397Y296276D01*
X519475Y296214D01*
X519551Y296148D01*
X519624Y296080D01*
X519695Y296009D01*
X519762Y295935D01*
X519827Y295859D01*
X519889Y295780D01*
X519947Y295699D01*
X520003Y295616D01*
X520055Y295531D01*
X520104Y295444D01*
X520150Y295355D01*
X520192Y295264D01*
X520231Y295172D01*
X520266Y295078D01*
X520298Y294983D01*
X520326Y294887D01*
X520350Y294790D01*
X520370Y294692D01*
X520387Y294594D01*
X520400Y294495D01*
X520409Y294395D01*
X520415Y294295D01*
X520416Y294195D01*
X520414Y294095D01*
X520407Y293995D01*
X520397Y293896D01*
X520384Y293797D01*
X520366Y293698D01*
X520345Y293600D01*
X520319Y293504D01*
X520291Y293408D01*
X520258Y293313D01*
X520222Y293220D01*
X520183Y293128D01*
X520140Y293038D01*
X520093Y292949D01*
X520092Y292949D02*
X518835Y290662D01*
X488429Y90625D02*
X480307Y85898D01*
X478993Y88154D01*
X478944Y88242D01*
X478898Y88332D01*
X478856Y88424D01*
X478818Y88518D01*
X478783Y88613D01*
X478751Y88709D01*
X478724Y88807D01*
X478700Y88905D01*
X478680Y89005D01*
X478664Y89105D01*
X478652Y89205D01*
X478644Y89306D01*
X478640Y89407D01*
X478639Y89509D01*
X478643Y89610D01*
X478650Y89711D01*
X478662Y89811D01*
X478677Y89911D01*
X478696Y90011D01*
X478719Y90109D01*
X478746Y90207D01*
X478777Y90304D01*
X478811Y90399D01*
X478849Y90493D01*
X478891Y90585D01*
X478936Y90676D01*
X478984Y90765D01*
X479036Y90851D01*
X479092Y90936D01*
X479150Y91019D01*
X479212Y91099D01*
X479277Y91177D01*
X479345Y91252D01*
X479415Y91325D01*
X479489Y91394D01*
X479565Y91461D01*
X479643Y91525D01*
X479724Y91586D01*
X479808Y91643D01*
X479893Y91698D01*
X479981Y91749D01*
X480070Y91796D01*
X480161Y91840D01*
X480254Y91881D01*
X480348Y91917D01*
X480444Y91951D01*
X480541Y91980D01*
X480639Y92006D01*
X480738Y92027D01*
X480838Y92045D01*
X480938Y92059D01*
X481039Y92069D01*
X481140Y92076D01*
X481241Y92078D01*
X481342Y92076D01*
X481443Y92071D01*
X481544Y92061D01*
X481644Y92048D01*
X481744Y92031D01*
X481843Y92010D01*
X481941Y91985D01*
X482039Y91956D01*
X482134Y91924D01*
X482229Y91888D01*
X482322Y91848D01*
X482414Y91804D01*
X482503Y91757D01*
X482591Y91707D01*
X482677Y91653D01*
X482761Y91596D01*
X482842Y91536D01*
X482921Y91473D01*
X482998Y91407D01*
X483072Y91337D01*
X483143Y91265D01*
X483211Y91191D01*
X483277Y91113D01*
X483339Y91033D01*
X483398Y90951D01*
X483454Y90867D01*
X483507Y90780D01*
X483506Y90780D02*
X484819Y88524D01*
X483243Y91232D02*
X485803Y95138D01*
X483114Y99757D02*
X481801Y102013D01*
X483113Y99757D02*
X483150Y99689D01*
X483184Y99620D01*
X483214Y99550D01*
X483241Y99478D01*
X483264Y99404D01*
X483284Y99330D01*
X483300Y99255D01*
X483312Y99179D01*
X483320Y99102D01*
X483325Y99026D01*
X483326Y98949D01*
X483323Y98872D01*
X483316Y98795D01*
X483306Y98719D01*
X483292Y98644D01*
X483274Y98569D01*
X483253Y98495D01*
X483228Y98423D01*
X483199Y98351D01*
X483167Y98281D01*
X483131Y98213D01*
X483093Y98147D01*
X483051Y98082D01*
X483006Y98020D01*
X482958Y97960D01*
X482907Y97902D01*
X482853Y97848D01*
X482797Y97795D01*
X482738Y97746D01*
X482677Y97699D01*
X482613Y97656D01*
X482548Y97616D01*
X482548Y97615D02*
X480292Y96302D01*
X480214Y96259D01*
X480133Y96219D01*
X480051Y96182D01*
X479968Y96149D01*
X479883Y96120D01*
X479797Y96094D01*
X479710Y96072D01*
X479622Y96054D01*
X479533Y96039D01*
X479444Y96029D01*
X479354Y96022D01*
X479264Y96019D01*
X479174Y96020D01*
X479085Y96025D01*
X478995Y96034D01*
X478906Y96046D01*
X478818Y96063D01*
X478730Y96083D01*
X478644Y96107D01*
X478558Y96134D01*
X478474Y96165D01*
X478391Y96200D01*
X478310Y96239D01*
X478230Y96280D01*
X478153Y96326D01*
X478077Y96374D01*
X478004Y96426D01*
X477932Y96481D01*
X477864Y96539D01*
X477798Y96599D01*
X477734Y96663D01*
X477673Y96729D01*
X477615Y96798D01*
X477561Y96869D01*
X477509Y96942D01*
X477460Y97018D01*
X477415Y97096D01*
X477373Y97175D01*
X477335Y97257D01*
X477300Y97339D01*
X477269Y97424D01*
X477241Y97509D01*
X477218Y97596D01*
X477197Y97683D01*
X477181Y97772D01*
X477169Y97861D01*
X477160Y97950D01*
X477155Y98040D01*
X477154Y98130D01*
X477157Y98219D01*
X477164Y98309D01*
X477174Y98398D01*
X477189Y98487D01*
X477207Y98575D01*
X477229Y98662D01*
X477255Y98748D01*
X477284Y98833D01*
X477317Y98917D01*
X477354Y98999D01*
X477394Y99079D01*
X477438Y99158D01*
X477484Y99234D01*
X477535Y99309D01*
X477588Y99381D01*
X477644Y99451D01*
X477704Y99519D01*
X477766Y99584D01*
X477831Y99646D01*
X477898Y99705D01*
X477968Y99761D01*
X478040Y99815D01*
X478115Y99865D01*
X478192Y99912D01*
X478191Y99912D02*
X479094Y100437D01*
X481195Y96827D01*
X479662Y105688D02*
X472893Y101749D01*
X472893Y101750D02*
X472825Y101713D01*
X472756Y101679D01*
X472686Y101649D01*
X472614Y101622D01*
X472540Y101599D01*
X472466Y101579D01*
X472391Y101563D01*
X472315Y101551D01*
X472238Y101543D01*
X472162Y101538D01*
X472085Y101537D01*
X472008Y101540D01*
X471931Y101547D01*
X471855Y101557D01*
X471780Y101571D01*
X471705Y101589D01*
X471631Y101610D01*
X471559Y101635D01*
X471487Y101664D01*
X471417Y101696D01*
X471349Y101732D01*
X471283Y101770D01*
X471218Y101812D01*
X471156Y101857D01*
X471096Y101905D01*
X471039Y101956D01*
X470984Y102010D01*
X470931Y102066D01*
X470882Y102125D01*
X470835Y102186D01*
X470792Y102250D01*
X470752Y102315D01*
X470489Y102766D01*
X473196Y104342D02*
X474772Y101634D01*
X485718Y288319D02*
X482058Y290331D01*
X481970Y290381D01*
X481885Y290435D01*
X481801Y290492D01*
X481720Y290553D01*
X481641Y290616D01*
X481564Y290683D01*
X481491Y290752D01*
X481420Y290824D01*
X481351Y290899D01*
X481286Y290977D01*
X481224Y291057D01*
X481165Y291139D01*
X481109Y291223D01*
X481057Y291310D01*
X481008Y291399D01*
X480962Y291489D01*
X480920Y291581D01*
X480882Y291675D01*
X480847Y291770D01*
X480816Y291866D01*
X480789Y291964D01*
X480765Y292062D01*
X480745Y292162D01*
X480730Y292262D01*
X480718Y292362D01*
X480710Y292463D01*
X480706Y292564D01*
X480705Y292666D01*
X480709Y292767D01*
X480717Y292868D01*
X480728Y292968D01*
X480744Y293068D01*
X480763Y293168D01*
X480787Y293266D01*
X480814Y293364D01*
X480844Y293460D01*
X480879Y293556D01*
X480917Y293649D01*
X480959Y293742D01*
X481004Y293832D01*
X481053Y293921D01*
X481105Y294008D01*
X481160Y294092D01*
X481219Y294175D01*
X481281Y294255D01*
X481346Y294333D01*
X481414Y294408D01*
X481485Y294480D01*
X481558Y294550D01*
X481635Y294617D01*
X481713Y294680D01*
X481794Y294741D01*
X481878Y294798D01*
X481963Y294852D01*
X482051Y294903D01*
X482141Y294950D01*
X482232Y294994D01*
X482325Y295035D01*
X482419Y295071D01*
X482515Y295104D01*
X482612Y295133D01*
X482710Y295159D01*
X482809Y295180D01*
X482909Y295198D01*
X483009Y295212D01*
X483110Y295222D01*
X483211Y295228D01*
X483312Y295230D01*
X483413Y295228D01*
X483514Y295222D01*
X483615Y295213D01*
X483715Y295199D01*
X483815Y295182D01*
X483914Y295161D01*
X484012Y295135D01*
X484109Y295107D01*
X484205Y295074D01*
X484300Y295038D01*
X484393Y294998D01*
X484484Y294954D01*
X484574Y294907D01*
X484573Y294906D02*
X488234Y292894D01*
X488322Y292844D01*
X488407Y292790D01*
X488491Y292733D01*
X488572Y292672D01*
X488651Y292609D01*
X488728Y292542D01*
X488801Y292473D01*
X488872Y292401D01*
X488941Y292326D01*
X489006Y292248D01*
X489068Y292168D01*
X489127Y292086D01*
X489183Y292002D01*
X489235Y291915D01*
X489284Y291826D01*
X489330Y291736D01*
X489372Y291644D01*
X489410Y291550D01*
X489445Y291455D01*
X489476Y291359D01*
X489503Y291261D01*
X489527Y291163D01*
X489547Y291063D01*
X489562Y290963D01*
X489574Y290863D01*
X489582Y290762D01*
X489586Y290661D01*
X489587Y290559D01*
X489583Y290458D01*
X489575Y290357D01*
X489564Y290257D01*
X489548Y290157D01*
X489529Y290057D01*
X489505Y289959D01*
X489478Y289861D01*
X489448Y289765D01*
X489413Y289669D01*
X489375Y289576D01*
X489333Y289483D01*
X489288Y289393D01*
X489239Y289304D01*
X489187Y289217D01*
X489132Y289133D01*
X489073Y289050D01*
X489011Y288970D01*
X488946Y288892D01*
X488878Y288817D01*
X488807Y288745D01*
X488734Y288675D01*
X488657Y288608D01*
X488579Y288545D01*
X488498Y288484D01*
X488414Y288427D01*
X488329Y288373D01*
X488241Y288322D01*
X488151Y288275D01*
X488060Y288231D01*
X487967Y288190D01*
X487873Y288154D01*
X487777Y288121D01*
X487680Y288092D01*
X487582Y288066D01*
X487483Y288045D01*
X487383Y288027D01*
X487283Y288013D01*
X487182Y288003D01*
X487081Y287997D01*
X486980Y287995D01*
X486879Y287997D01*
X486778Y288003D01*
X486677Y288012D01*
X486577Y288026D01*
X486477Y288043D01*
X486378Y288064D01*
X486280Y288090D01*
X486183Y288118D01*
X486087Y288151D01*
X485992Y288187D01*
X485899Y288227D01*
X485808Y288271D01*
X485718Y288318D01*
X490270Y296599D02*
X484322Y299869D01*
X490270Y296598D02*
X490360Y296551D01*
X490451Y296507D01*
X490544Y296467D01*
X490639Y296431D01*
X490735Y296398D01*
X490832Y296370D01*
X490930Y296344D01*
X491029Y296323D01*
X491129Y296306D01*
X491229Y296292D01*
X491330Y296283D01*
X491431Y296277D01*
X491532Y296275D01*
X491633Y296277D01*
X491734Y296283D01*
X491835Y296293D01*
X491935Y296307D01*
X492035Y296325D01*
X492134Y296346D01*
X492232Y296372D01*
X492329Y296401D01*
X492425Y296434D01*
X492519Y296470D01*
X492612Y296511D01*
X492703Y296555D01*
X492793Y296602D01*
X492881Y296653D01*
X492966Y296707D01*
X493050Y296764D01*
X493131Y296825D01*
X493209Y296888D01*
X493286Y296955D01*
X493359Y297025D01*
X493430Y297097D01*
X493498Y297172D01*
X493563Y297250D01*
X493625Y297330D01*
X493684Y297413D01*
X493739Y297497D01*
X493791Y297584D01*
X493840Y297673D01*
X493885Y297763D01*
X493927Y297856D01*
X493965Y297949D01*
X494000Y298045D01*
X494030Y298141D01*
X494057Y298239D01*
X494081Y298337D01*
X494100Y298437D01*
X494116Y298537D01*
X494127Y298637D01*
X494135Y298738D01*
X494139Y298839D01*
X494138Y298941D01*
X494134Y299042D01*
X494126Y299143D01*
X494114Y299243D01*
X494099Y299343D01*
X494079Y299443D01*
X494055Y299541D01*
X494028Y299639D01*
X493997Y299735D01*
X493962Y299830D01*
X493924Y299924D01*
X493882Y300016D01*
X493836Y300106D01*
X493787Y300195D01*
X493735Y300282D01*
X493679Y300366D01*
X493620Y300448D01*
X493558Y300528D01*
X493493Y300606D01*
X493424Y300681D01*
X493353Y300753D01*
X493280Y300822D01*
X493203Y300889D01*
X493124Y300952D01*
X493043Y301013D01*
X492959Y301070D01*
X492874Y301124D01*
X492786Y301174D01*
X492785Y301174D02*
X486838Y304444D01*
X489838Y309902D02*
X498074Y305375D01*
X488581Y307614D02*
X491096Y312190D01*
X509335Y104228D02*
X501213Y99500D01*
X509860Y103325D02*
X508810Y105130D01*
X500687Y100403D02*
X501738Y98598D01*
X498693Y103830D02*
X506815Y108557D01*
X504189Y113070D02*
X498693Y103830D01*
X496066Y108342D02*
X504189Y113070D01*
X498859Y114961D02*
X495708Y120376D01*
X524231Y112200D02*
X532354Y116928D01*
X531829Y117830D02*
X532879Y116025D01*
X524757Y111298D02*
X523706Y113103D01*
X521711Y116530D02*
X529834Y121257D01*
X527208Y125770D02*
X521711Y116530D01*
X519085Y121042D02*
X527208Y125770D01*
X521878Y127661D02*
X518727Y133076D01*
X523010Y131944D02*
X517595Y128792D01*
D120*
X45244Y232450D02*
X42744Y232450D01*
X45244Y232450D02*
X47744Y232450D01*
X45244Y232450D02*
X42744Y237450D01*
X47744Y237450D02*
X45244Y232450D01*
X47744Y237450D02*
X42744Y237450D01*
X40244Y247450D02*
X50244Y247450D01*
X50244Y222450D01*
X40244Y222450D01*
X40244Y247450D01*
D119*
X39515Y250256D02*
X48913Y250256D01*
X39515Y250256D02*
X39515Y252867D01*
X39514Y252867D02*
X39516Y252967D01*
X39522Y253067D01*
X39531Y253166D01*
X39545Y253266D01*
X39562Y253364D01*
X39583Y253462D01*
X39607Y253559D01*
X39636Y253655D01*
X39668Y253750D01*
X39703Y253843D01*
X39742Y253935D01*
X39785Y254026D01*
X39831Y254114D01*
X39881Y254201D01*
X39933Y254286D01*
X39989Y254369D01*
X40048Y254450D01*
X40111Y254528D01*
X40176Y254604D01*
X40244Y254678D01*
X40314Y254748D01*
X40388Y254816D01*
X40464Y254881D01*
X40542Y254944D01*
X40623Y255003D01*
X40706Y255059D01*
X40791Y255111D01*
X40878Y255161D01*
X40966Y255207D01*
X41057Y255250D01*
X41149Y255289D01*
X41242Y255324D01*
X41337Y255356D01*
X41433Y255385D01*
X41530Y255409D01*
X41628Y255430D01*
X41726Y255447D01*
X41826Y255461D01*
X41925Y255470D01*
X42025Y255476D01*
X42125Y255478D01*
X42125Y255477D02*
X46302Y255477D01*
X46302Y255478D02*
X46402Y255476D01*
X46502Y255470D01*
X46601Y255461D01*
X46701Y255447D01*
X46799Y255430D01*
X46897Y255409D01*
X46994Y255385D01*
X47090Y255356D01*
X47185Y255324D01*
X47278Y255289D01*
X47370Y255250D01*
X47461Y255207D01*
X47549Y255161D01*
X47636Y255111D01*
X47721Y255059D01*
X47804Y255003D01*
X47885Y254944D01*
X47963Y254881D01*
X48039Y254816D01*
X48113Y254748D01*
X48183Y254678D01*
X48251Y254604D01*
X48316Y254528D01*
X48379Y254450D01*
X48438Y254369D01*
X48494Y254286D01*
X48546Y254201D01*
X48596Y254114D01*
X48642Y254026D01*
X48685Y253935D01*
X48724Y253843D01*
X48759Y253750D01*
X48791Y253655D01*
X48820Y253559D01*
X48844Y253462D01*
X48865Y253364D01*
X48882Y253266D01*
X48896Y253166D01*
X48905Y253067D01*
X48911Y252967D01*
X48913Y252867D01*
X48913Y250256D01*
X41603Y259705D02*
X39515Y262315D01*
X48913Y262315D01*
X48913Y259705D02*
X48913Y264926D01*
D117*
X142081Y330994D02*
X154781Y330994D01*
X161131Y324644D01*
X161131Y311944D01*
X154781Y305594D01*
X135731Y311944D02*
X135731Y324644D01*
X142081Y330994D01*
X135731Y311944D02*
X142081Y305594D01*
X154781Y305594D01*
D121*
X58433Y248886D02*
X58433Y219426D01*
X58433Y248886D02*
X78093Y248886D01*
X78093Y219426D01*
X58433Y219426D01*
D119*
X63246Y250412D02*
X72644Y250412D01*
X63246Y250412D02*
X63246Y253023D01*
X63248Y253124D01*
X63254Y253225D01*
X63264Y253326D01*
X63277Y253426D01*
X63295Y253526D01*
X63316Y253625D01*
X63342Y253723D01*
X63371Y253820D01*
X63403Y253916D01*
X63440Y254010D01*
X63480Y254103D01*
X63524Y254195D01*
X63571Y254284D01*
X63622Y254372D01*
X63676Y254458D01*
X63733Y254541D01*
X63793Y254623D01*
X63857Y254701D01*
X63923Y254778D01*
X63993Y254851D01*
X64065Y254922D01*
X64140Y254990D01*
X64218Y255055D01*
X64298Y255117D01*
X64380Y255176D01*
X64465Y255232D01*
X64552Y255284D01*
X64640Y255333D01*
X64731Y255379D01*
X64823Y255420D01*
X64917Y255459D01*
X65012Y255493D01*
X65108Y255524D01*
X65206Y255551D01*
X65304Y255575D01*
X65404Y255594D01*
X65504Y255610D01*
X65604Y255622D01*
X65705Y255630D01*
X65806Y255634D01*
X65908Y255634D01*
X66009Y255630D01*
X66110Y255622D01*
X66210Y255610D01*
X66310Y255594D01*
X66410Y255575D01*
X66508Y255551D01*
X66606Y255524D01*
X66702Y255493D01*
X66797Y255459D01*
X66891Y255420D01*
X66983Y255379D01*
X67074Y255333D01*
X67163Y255284D01*
X67249Y255232D01*
X67334Y255176D01*
X67416Y255117D01*
X67496Y255055D01*
X67574Y254990D01*
X67649Y254922D01*
X67721Y254851D01*
X67791Y254778D01*
X67857Y254701D01*
X67921Y254623D01*
X67981Y254541D01*
X68038Y254458D01*
X68092Y254372D01*
X68143Y254284D01*
X68190Y254195D01*
X68234Y254103D01*
X68274Y254010D01*
X68311Y253916D01*
X68343Y253820D01*
X68372Y253723D01*
X68398Y253625D01*
X68419Y253526D01*
X68437Y253426D01*
X68450Y253326D01*
X68460Y253225D01*
X68466Y253124D01*
X68468Y253023D01*
X68467Y253023D02*
X68467Y250412D01*
X68467Y253545D02*
X72644Y255633D01*
X72644Y259499D02*
X72644Y262110D01*
X72642Y262211D01*
X72636Y262312D01*
X72626Y262413D01*
X72613Y262513D01*
X72595Y262613D01*
X72574Y262712D01*
X72548Y262810D01*
X72519Y262907D01*
X72487Y263003D01*
X72450Y263097D01*
X72410Y263190D01*
X72366Y263282D01*
X72319Y263371D01*
X72268Y263459D01*
X72214Y263545D01*
X72157Y263628D01*
X72097Y263710D01*
X72033Y263788D01*
X71967Y263865D01*
X71897Y263938D01*
X71825Y264009D01*
X71750Y264077D01*
X71672Y264142D01*
X71592Y264204D01*
X71510Y264263D01*
X71425Y264319D01*
X71339Y264371D01*
X71250Y264420D01*
X71159Y264466D01*
X71067Y264507D01*
X70973Y264546D01*
X70878Y264580D01*
X70782Y264611D01*
X70684Y264638D01*
X70586Y264662D01*
X70486Y264681D01*
X70386Y264697D01*
X70286Y264709D01*
X70185Y264717D01*
X70084Y264721D01*
X69982Y264721D01*
X69881Y264717D01*
X69780Y264709D01*
X69680Y264697D01*
X69580Y264681D01*
X69480Y264662D01*
X69382Y264638D01*
X69284Y264611D01*
X69188Y264580D01*
X69093Y264546D01*
X68999Y264507D01*
X68907Y264466D01*
X68816Y264420D01*
X68728Y264371D01*
X68641Y264319D01*
X68556Y264263D01*
X68474Y264204D01*
X68394Y264142D01*
X68316Y264077D01*
X68241Y264009D01*
X68169Y263938D01*
X68099Y263865D01*
X68033Y263788D01*
X67969Y263710D01*
X67909Y263628D01*
X67852Y263545D01*
X67798Y263459D01*
X67747Y263371D01*
X67700Y263282D01*
X67656Y263190D01*
X67616Y263097D01*
X67579Y263003D01*
X67547Y262907D01*
X67518Y262810D01*
X67492Y262712D01*
X67471Y262613D01*
X67453Y262513D01*
X67440Y262413D01*
X67430Y262312D01*
X67424Y262211D01*
X67422Y262110D01*
X63246Y262632D02*
X63246Y259499D01*
X63246Y262632D02*
X63248Y262722D01*
X63254Y262811D01*
X63263Y262901D01*
X63277Y262990D01*
X63294Y263078D01*
X63315Y263165D01*
X63340Y263252D01*
X63369Y263337D01*
X63401Y263421D01*
X63436Y263503D01*
X63476Y263584D01*
X63518Y263663D01*
X63564Y263740D01*
X63614Y263815D01*
X63666Y263888D01*
X63722Y263959D01*
X63780Y264027D01*
X63842Y264092D01*
X63906Y264155D01*
X63973Y264215D01*
X64042Y264272D01*
X64114Y264326D01*
X64188Y264377D01*
X64264Y264425D01*
X64342Y264469D01*
X64422Y264510D01*
X64504Y264548D01*
X64587Y264582D01*
X64672Y264612D01*
X64758Y264639D01*
X64844Y264662D01*
X64932Y264681D01*
X65021Y264696D01*
X65110Y264708D01*
X65199Y264716D01*
X65289Y264720D01*
X65379Y264720D01*
X65469Y264716D01*
X65558Y264708D01*
X65647Y264696D01*
X65736Y264681D01*
X65824Y264662D01*
X65910Y264639D01*
X65996Y264612D01*
X66081Y264582D01*
X66164Y264548D01*
X66246Y264510D01*
X66326Y264469D01*
X66404Y264425D01*
X66480Y264377D01*
X66554Y264326D01*
X66626Y264272D01*
X66695Y264215D01*
X66762Y264155D01*
X66826Y264092D01*
X66888Y264027D01*
X66946Y263959D01*
X67002Y263888D01*
X67054Y263815D01*
X67104Y263740D01*
X67150Y263663D01*
X67192Y263584D01*
X67232Y263503D01*
X67267Y263421D01*
X67299Y263337D01*
X67328Y263252D01*
X67353Y263165D01*
X67374Y263078D01*
X67391Y262990D01*
X67405Y262901D01*
X67414Y262811D01*
X67420Y262722D01*
X67422Y262632D01*
X67423Y262632D02*
X67423Y260543D01*
D121*
X92426Y251130D02*
X121886Y251130D01*
X121886Y231470D01*
X92426Y231470D01*
X92426Y251130D01*
D119*
X95631Y255175D02*
X95631Y264573D01*
X99808Y264573D01*
X99808Y260396D02*
X95631Y260396D01*
X103670Y260396D02*
X106280Y260396D01*
X106381Y260394D01*
X106482Y260388D01*
X106583Y260378D01*
X106683Y260365D01*
X106783Y260347D01*
X106882Y260326D01*
X106980Y260300D01*
X107077Y260271D01*
X107173Y260239D01*
X107267Y260202D01*
X107360Y260162D01*
X107452Y260118D01*
X107541Y260071D01*
X107629Y260020D01*
X107715Y259966D01*
X107798Y259909D01*
X107880Y259849D01*
X107958Y259785D01*
X108035Y259719D01*
X108108Y259649D01*
X108179Y259577D01*
X108247Y259502D01*
X108312Y259424D01*
X108374Y259344D01*
X108433Y259262D01*
X108489Y259177D01*
X108541Y259090D01*
X108590Y259002D01*
X108636Y258911D01*
X108677Y258819D01*
X108716Y258725D01*
X108750Y258630D01*
X108781Y258534D01*
X108808Y258436D01*
X108832Y258338D01*
X108851Y258238D01*
X108867Y258138D01*
X108879Y258038D01*
X108887Y257937D01*
X108891Y257836D01*
X108891Y257734D01*
X108887Y257633D01*
X108879Y257532D01*
X108867Y257432D01*
X108851Y257332D01*
X108832Y257232D01*
X108808Y257134D01*
X108781Y257036D01*
X108750Y256940D01*
X108716Y256845D01*
X108677Y256751D01*
X108636Y256659D01*
X108590Y256568D01*
X108541Y256479D01*
X108489Y256393D01*
X108433Y256308D01*
X108374Y256226D01*
X108312Y256146D01*
X108247Y256068D01*
X108179Y255993D01*
X108108Y255921D01*
X108035Y255851D01*
X107958Y255785D01*
X107880Y255721D01*
X107798Y255661D01*
X107715Y255604D01*
X107629Y255550D01*
X107541Y255499D01*
X107452Y255452D01*
X107360Y255408D01*
X107267Y255368D01*
X107173Y255331D01*
X107077Y255299D01*
X106980Y255270D01*
X106882Y255244D01*
X106783Y255223D01*
X106683Y255205D01*
X106583Y255192D01*
X106482Y255182D01*
X106381Y255176D01*
X106280Y255174D01*
X106280Y255175D02*
X103670Y255175D01*
X103670Y264573D01*
X106280Y264573D01*
X106280Y264572D02*
X106370Y264570D01*
X106459Y264564D01*
X106549Y264555D01*
X106638Y264541D01*
X106726Y264524D01*
X106813Y264503D01*
X106900Y264478D01*
X106985Y264449D01*
X107069Y264417D01*
X107151Y264382D01*
X107232Y264342D01*
X107311Y264300D01*
X107388Y264254D01*
X107463Y264204D01*
X107536Y264152D01*
X107607Y264096D01*
X107675Y264038D01*
X107740Y263976D01*
X107803Y263912D01*
X107863Y263845D01*
X107920Y263776D01*
X107974Y263704D01*
X108025Y263630D01*
X108073Y263554D01*
X108117Y263476D01*
X108158Y263396D01*
X108196Y263314D01*
X108230Y263231D01*
X108260Y263146D01*
X108287Y263060D01*
X108310Y262974D01*
X108329Y262886D01*
X108344Y262797D01*
X108356Y262708D01*
X108364Y262619D01*
X108368Y262529D01*
X108368Y262439D01*
X108364Y262349D01*
X108356Y262260D01*
X108344Y262171D01*
X108329Y262082D01*
X108310Y261994D01*
X108287Y261908D01*
X108260Y261822D01*
X108230Y261737D01*
X108196Y261654D01*
X108158Y261572D01*
X108117Y261492D01*
X108073Y261414D01*
X108025Y261338D01*
X107974Y261264D01*
X107920Y261192D01*
X107863Y261123D01*
X107803Y261056D01*
X107740Y260992D01*
X107675Y260930D01*
X107607Y260872D01*
X107536Y260816D01*
X107463Y260764D01*
X107388Y260714D01*
X107311Y260668D01*
X107232Y260626D01*
X107151Y260586D01*
X107069Y260551D01*
X106985Y260519D01*
X106900Y260490D01*
X106813Y260465D01*
X106726Y260444D01*
X106638Y260427D01*
X106549Y260413D01*
X106459Y260404D01*
X106370Y260398D01*
X106280Y260396D01*
X112377Y262484D02*
X114988Y264573D01*
X114988Y255175D01*
X112377Y255175D02*
X117599Y255175D01*
D117*
X66675Y184944D02*
X66675Y172244D01*
X60325Y165894D01*
X47625Y165894D01*
X41275Y172244D01*
X60325Y165894D02*
X66675Y159544D01*
X66675Y146844D01*
X60325Y140494D01*
X47625Y140494D01*
X41275Y146844D01*
X41275Y159544D01*
X47625Y165894D01*
X47625Y191294D02*
X60325Y191294D01*
X66675Y184944D01*
X47625Y191294D02*
X41275Y184944D01*
X41275Y172244D01*
X60325Y140494D02*
X66675Y134144D01*
X66675Y121444D01*
X60325Y115094D01*
X47625Y115094D01*
X41275Y121444D01*
X41275Y134144D01*
X47625Y140494D01*
D122*
X619475Y172375D02*
X619475Y233375D01*
X619475Y172375D02*
X534225Y172375D01*
X457225Y233375D02*
X619475Y233375D01*
X586725Y172375D02*
X563725Y172375D01*
X534225Y172375D02*
X446475Y172375D01*
X446475Y213125D02*
X446475Y233375D01*
X446475Y177625D02*
X446475Y172375D01*
X583725Y233375D02*
X586725Y233375D01*
X554225Y233375D02*
X492725Y233375D01*
X457225Y233375D02*
X446475Y233375D01*
D120*
X317256Y237194D02*
X317256Y248994D01*
X317256Y170794D02*
X317256Y158994D01*
X281256Y158994D01*
X281256Y170794D01*
X281256Y237194D02*
X281256Y248994D01*
X317256Y248994D01*
D123*
X273256Y238994D02*
X273258Y239057D01*
X273264Y239119D01*
X273274Y239181D01*
X273287Y239243D01*
X273305Y239303D01*
X273326Y239362D01*
X273351Y239420D01*
X273380Y239476D01*
X273412Y239530D01*
X273447Y239582D01*
X273485Y239631D01*
X273527Y239679D01*
X273571Y239723D01*
X273619Y239765D01*
X273668Y239803D01*
X273720Y239838D01*
X273774Y239870D01*
X273830Y239899D01*
X273888Y239924D01*
X273947Y239945D01*
X274007Y239963D01*
X274069Y239976D01*
X274131Y239986D01*
X274193Y239992D01*
X274256Y239994D01*
X274319Y239992D01*
X274381Y239986D01*
X274443Y239976D01*
X274505Y239963D01*
X274565Y239945D01*
X274624Y239924D01*
X274682Y239899D01*
X274738Y239870D01*
X274792Y239838D01*
X274844Y239803D01*
X274893Y239765D01*
X274941Y239723D01*
X274985Y239679D01*
X275027Y239631D01*
X275065Y239582D01*
X275100Y239530D01*
X275132Y239476D01*
X275161Y239420D01*
X275186Y239362D01*
X275207Y239303D01*
X275225Y239243D01*
X275238Y239181D01*
X275248Y239119D01*
X275254Y239057D01*
X275256Y238994D01*
X275254Y238931D01*
X275248Y238869D01*
X275238Y238807D01*
X275225Y238745D01*
X275207Y238685D01*
X275186Y238626D01*
X275161Y238568D01*
X275132Y238512D01*
X275100Y238458D01*
X275065Y238406D01*
X275027Y238357D01*
X274985Y238309D01*
X274941Y238265D01*
X274893Y238223D01*
X274844Y238185D01*
X274792Y238150D01*
X274738Y238118D01*
X274682Y238089D01*
X274624Y238064D01*
X274565Y238043D01*
X274505Y238025D01*
X274443Y238012D01*
X274381Y238002D01*
X274319Y237996D01*
X274256Y237994D01*
X274193Y237996D01*
X274131Y238002D01*
X274069Y238012D01*
X274007Y238025D01*
X273947Y238043D01*
X273888Y238064D01*
X273830Y238089D01*
X273774Y238118D01*
X273720Y238150D01*
X273668Y238185D01*
X273619Y238223D01*
X273571Y238265D01*
X273527Y238309D01*
X273485Y238357D01*
X273447Y238406D01*
X273412Y238458D01*
X273380Y238512D01*
X273351Y238568D01*
X273326Y238626D01*
X273305Y238685D01*
X273287Y238745D01*
X273274Y238807D01*
X273264Y238869D01*
X273258Y238931D01*
X273256Y238994D01*
D120*
X281256Y220794D02*
X281256Y212194D01*
X317256Y212194D02*
X317256Y220794D01*
X281256Y195794D02*
X281256Y187194D01*
X317256Y187194D02*
X317256Y195794D01*
D118*
X259030Y206298D02*
X259028Y206199D01*
X259022Y206099D01*
X259013Y206000D01*
X259000Y205902D01*
X258983Y205804D01*
X258962Y205706D01*
X258937Y205610D01*
X258909Y205515D01*
X258877Y205421D01*
X258842Y205328D01*
X258803Y205236D01*
X258760Y205146D01*
X258715Y205058D01*
X258665Y204971D01*
X258613Y204887D01*
X258557Y204804D01*
X258499Y204724D01*
X258437Y204646D01*
X258372Y204571D01*
X258304Y204498D01*
X258234Y204428D01*
X258161Y204360D01*
X258086Y204295D01*
X258008Y204233D01*
X257928Y204175D01*
X257845Y204119D01*
X257761Y204067D01*
X257674Y204017D01*
X257586Y203972D01*
X257496Y203929D01*
X257404Y203890D01*
X257311Y203855D01*
X257217Y203823D01*
X257122Y203795D01*
X257026Y203770D01*
X256928Y203749D01*
X256830Y203732D01*
X256732Y203719D01*
X256633Y203710D01*
X256533Y203704D01*
X256434Y203702D01*
X256290Y203704D01*
X256145Y203710D01*
X256001Y203719D01*
X255858Y203732D01*
X255714Y203749D01*
X255571Y203770D01*
X255429Y203795D01*
X255288Y203823D01*
X255147Y203855D01*
X255007Y203891D01*
X254868Y203930D01*
X254730Y203973D01*
X254594Y204020D01*
X254458Y204070D01*
X254324Y204124D01*
X254192Y204181D01*
X254061Y204242D01*
X253932Y204306D01*
X253804Y204374D01*
X253678Y204444D01*
X253554Y204519D01*
X253433Y204596D01*
X253313Y204677D01*
X253195Y204760D01*
X253080Y204847D01*
X252967Y204937D01*
X252856Y205030D01*
X252748Y205125D01*
X252642Y205224D01*
X252539Y205325D01*
X252864Y212789D02*
X252866Y212888D01*
X252872Y212988D01*
X252881Y213087D01*
X252894Y213185D01*
X252911Y213283D01*
X252932Y213381D01*
X252957Y213477D01*
X252985Y213572D01*
X253017Y213666D01*
X253052Y213759D01*
X253091Y213851D01*
X253134Y213941D01*
X253179Y214029D01*
X253229Y214116D01*
X253281Y214200D01*
X253337Y214283D01*
X253395Y214363D01*
X253457Y214441D01*
X253522Y214516D01*
X253590Y214589D01*
X253660Y214659D01*
X253733Y214727D01*
X253808Y214792D01*
X253886Y214854D01*
X253966Y214912D01*
X254049Y214968D01*
X254133Y215020D01*
X254220Y215070D01*
X254308Y215115D01*
X254398Y215158D01*
X254490Y215197D01*
X254583Y215232D01*
X254677Y215264D01*
X254772Y215292D01*
X254869Y215317D01*
X254966Y215338D01*
X255064Y215355D01*
X255162Y215368D01*
X255261Y215377D01*
X255361Y215383D01*
X255460Y215385D01*
X255596Y215383D01*
X255732Y215377D01*
X255868Y215368D01*
X256004Y215355D01*
X256139Y215337D01*
X256273Y215317D01*
X256407Y215292D01*
X256541Y215264D01*
X256673Y215231D01*
X256804Y215196D01*
X256935Y215156D01*
X257064Y215113D01*
X257192Y215067D01*
X257318Y215016D01*
X257444Y214963D01*
X257567Y214905D01*
X257689Y214845D01*
X257809Y214781D01*
X257928Y214713D01*
X258044Y214643D01*
X258158Y214569D01*
X258271Y214492D01*
X258381Y214411D01*
X254162Y210517D02*
X254076Y210570D01*
X253992Y210627D01*
X253910Y210686D01*
X253830Y210749D01*
X253753Y210815D01*
X253678Y210883D01*
X253606Y210955D01*
X253537Y211029D01*
X253471Y211106D01*
X253408Y211185D01*
X253348Y211267D01*
X253291Y211351D01*
X253237Y211437D01*
X253187Y211525D01*
X253140Y211615D01*
X253096Y211706D01*
X253057Y211800D01*
X253020Y211894D01*
X252988Y211990D01*
X252959Y212088D01*
X252934Y212186D01*
X252913Y212285D01*
X252895Y212385D01*
X252882Y212485D01*
X252872Y212586D01*
X252866Y212688D01*
X252864Y212789D01*
X257732Y208570D02*
X257818Y208517D01*
X257902Y208460D01*
X257984Y208401D01*
X258064Y208338D01*
X258141Y208272D01*
X258216Y208204D01*
X258288Y208132D01*
X258357Y208058D01*
X258423Y207981D01*
X258486Y207902D01*
X258546Y207820D01*
X258603Y207736D01*
X258657Y207650D01*
X258707Y207562D01*
X258754Y207472D01*
X258798Y207381D01*
X258837Y207287D01*
X258874Y207193D01*
X258906Y207097D01*
X258935Y206999D01*
X258960Y206901D01*
X258981Y206802D01*
X258999Y206702D01*
X259012Y206602D01*
X259022Y206501D01*
X259028Y206399D01*
X259030Y206298D01*
X257732Y208570D02*
X254162Y210517D01*
X263588Y212789D02*
X266834Y215386D01*
X266834Y203702D01*
X270079Y203702D02*
X263588Y203702D01*
D117*
X480512Y82377D02*
X491500Y88746D01*
X500178Y86437D01*
X506547Y75450D01*
X504238Y66771D01*
X500178Y86437D02*
X502487Y95115D01*
X513475Y101485D01*
X522153Y99175D01*
X528522Y88188D01*
X526213Y79510D01*
X515225Y73140D01*
X506547Y75450D01*
X484572Y62711D02*
X478203Y73699D01*
X480512Y82377D01*
X484572Y62711D02*
X493251Y60402D01*
X504238Y66771D01*
X522153Y99175D02*
X524462Y107854D01*
X535449Y114223D01*
X544128Y111914D01*
X550497Y100926D01*
X548188Y92248D01*
X537200Y85879D01*
X528522Y88188D01*
D120*
X453350Y314206D02*
X453350Y316706D01*
X453350Y319206D01*
X453350Y316706D02*
X448350Y314206D01*
X448350Y319206D02*
X453350Y316706D01*
X448350Y319206D02*
X448350Y314206D01*
X438350Y311706D02*
X438350Y321706D01*
X463350Y321706D01*
X463350Y311706D01*
X438350Y311706D01*
D119*
X444687Y323677D02*
X444687Y333075D01*
X447297Y333075D01*
X447297Y333076D02*
X447397Y333074D01*
X447497Y333068D01*
X447596Y333059D01*
X447696Y333045D01*
X447794Y333028D01*
X447892Y333007D01*
X447989Y332983D01*
X448085Y332954D01*
X448180Y332922D01*
X448273Y332887D01*
X448365Y332848D01*
X448456Y332805D01*
X448544Y332759D01*
X448631Y332709D01*
X448716Y332657D01*
X448799Y332601D01*
X448880Y332542D01*
X448958Y332479D01*
X449034Y332414D01*
X449108Y332346D01*
X449178Y332276D01*
X449246Y332202D01*
X449311Y332126D01*
X449374Y332048D01*
X449433Y331967D01*
X449489Y331884D01*
X449541Y331799D01*
X449591Y331712D01*
X449637Y331624D01*
X449680Y331533D01*
X449719Y331441D01*
X449754Y331348D01*
X449786Y331253D01*
X449815Y331157D01*
X449839Y331060D01*
X449860Y330962D01*
X449877Y330864D01*
X449891Y330764D01*
X449900Y330665D01*
X449906Y330565D01*
X449908Y330465D01*
X449908Y326288D01*
X449906Y326188D01*
X449900Y326088D01*
X449891Y325989D01*
X449877Y325889D01*
X449860Y325791D01*
X449839Y325693D01*
X449815Y325596D01*
X449786Y325500D01*
X449754Y325405D01*
X449719Y325312D01*
X449680Y325220D01*
X449637Y325129D01*
X449591Y325041D01*
X449541Y324954D01*
X449489Y324869D01*
X449433Y324786D01*
X449374Y324705D01*
X449311Y324627D01*
X449246Y324551D01*
X449178Y324477D01*
X449108Y324407D01*
X449034Y324339D01*
X448958Y324274D01*
X448880Y324211D01*
X448799Y324152D01*
X448716Y324096D01*
X448631Y324044D01*
X448544Y323994D01*
X448456Y323948D01*
X448365Y323905D01*
X448273Y323866D01*
X448180Y323831D01*
X448085Y323799D01*
X447989Y323770D01*
X447892Y323746D01*
X447794Y323725D01*
X447696Y323708D01*
X447596Y323694D01*
X447497Y323685D01*
X447397Y323679D01*
X447297Y323677D01*
X444687Y323677D01*
X457007Y333076D02*
X457102Y333074D01*
X457196Y333068D01*
X457290Y333059D01*
X457384Y333046D01*
X457477Y333029D01*
X457569Y333008D01*
X457661Y332983D01*
X457751Y332955D01*
X457840Y332923D01*
X457928Y332888D01*
X458014Y332849D01*
X458099Y332807D01*
X458182Y332761D01*
X458263Y332712D01*
X458342Y332660D01*
X458419Y332605D01*
X458493Y332546D01*
X458565Y332485D01*
X458635Y332421D01*
X458702Y332354D01*
X458766Y332284D01*
X458827Y332212D01*
X458886Y332138D01*
X458941Y332061D01*
X458993Y331982D01*
X459042Y331901D01*
X459088Y331818D01*
X459130Y331733D01*
X459169Y331647D01*
X459204Y331559D01*
X459236Y331470D01*
X459264Y331380D01*
X459289Y331288D01*
X459310Y331196D01*
X459327Y331103D01*
X459340Y331009D01*
X459349Y330915D01*
X459355Y330821D01*
X459357Y330726D01*
X457007Y333075D02*
X456899Y333073D01*
X456790Y333067D01*
X456682Y333057D01*
X456575Y333044D01*
X456468Y333026D01*
X456361Y333005D01*
X456256Y332980D01*
X456151Y332951D01*
X456048Y332919D01*
X455946Y332882D01*
X455845Y332842D01*
X455746Y332799D01*
X455648Y332752D01*
X455552Y332701D01*
X455458Y332647D01*
X455366Y332590D01*
X455276Y332529D01*
X455188Y332465D01*
X455103Y332399D01*
X455020Y332329D01*
X454940Y332256D01*
X454862Y332180D01*
X454787Y332102D01*
X454715Y332021D01*
X454646Y331937D01*
X454580Y331851D01*
X454517Y331763D01*
X454458Y331672D01*
X454401Y331580D01*
X454348Y331485D01*
X454299Y331389D01*
X454253Y331290D01*
X454210Y331191D01*
X454171Y331089D01*
X454136Y330987D01*
X458574Y328898D02*
X458643Y328967D01*
X458709Y329038D01*
X458773Y329111D01*
X458834Y329187D01*
X458892Y329266D01*
X458946Y329346D01*
X458998Y329429D01*
X459046Y329513D01*
X459092Y329599D01*
X459133Y329687D01*
X459172Y329777D01*
X459207Y329868D01*
X459238Y329960D01*
X459266Y330053D01*
X459290Y330147D01*
X459310Y330242D01*
X459327Y330338D01*
X459340Y330435D01*
X459349Y330532D01*
X459355Y330629D01*
X459357Y330726D01*
X458573Y328898D02*
X454135Y323677D01*
X459357Y323677D01*
D121*
X414826Y335405D02*
X414826Y305945D01*
X414826Y335405D02*
X434486Y335405D01*
X434486Y305945D01*
X414826Y305945D01*
D119*
X413163Y309150D02*
X403765Y309150D01*
X403765Y311760D01*
X403764Y311760D02*
X403766Y311861D01*
X403772Y311962D01*
X403782Y312063D01*
X403795Y312163D01*
X403813Y312263D01*
X403834Y312362D01*
X403860Y312460D01*
X403889Y312557D01*
X403921Y312653D01*
X403958Y312747D01*
X403998Y312840D01*
X404042Y312932D01*
X404089Y313021D01*
X404140Y313109D01*
X404194Y313195D01*
X404251Y313278D01*
X404311Y313360D01*
X404375Y313438D01*
X404441Y313515D01*
X404511Y313588D01*
X404583Y313659D01*
X404658Y313727D01*
X404736Y313792D01*
X404816Y313854D01*
X404898Y313913D01*
X404983Y313969D01*
X405070Y314021D01*
X405158Y314070D01*
X405249Y314116D01*
X405341Y314157D01*
X405435Y314196D01*
X405530Y314230D01*
X405626Y314261D01*
X405724Y314288D01*
X405822Y314312D01*
X405922Y314331D01*
X406022Y314347D01*
X406122Y314359D01*
X406223Y314367D01*
X406324Y314371D01*
X406426Y314371D01*
X406527Y314367D01*
X406628Y314359D01*
X406728Y314347D01*
X406828Y314331D01*
X406928Y314312D01*
X407026Y314288D01*
X407124Y314261D01*
X407220Y314230D01*
X407315Y314196D01*
X407409Y314157D01*
X407501Y314116D01*
X407592Y314070D01*
X407681Y314021D01*
X407767Y313969D01*
X407852Y313913D01*
X407934Y313854D01*
X408014Y313792D01*
X408092Y313727D01*
X408167Y313659D01*
X408239Y313588D01*
X408309Y313515D01*
X408375Y313438D01*
X408439Y313360D01*
X408499Y313278D01*
X408556Y313195D01*
X408610Y313109D01*
X408661Y313021D01*
X408708Y312932D01*
X408752Y312840D01*
X408792Y312747D01*
X408829Y312653D01*
X408861Y312557D01*
X408890Y312460D01*
X408916Y312362D01*
X408937Y312263D01*
X408955Y312163D01*
X408968Y312063D01*
X408978Y311962D01*
X408984Y311861D01*
X408986Y311760D01*
X408986Y309150D01*
X408986Y312282D02*
X413163Y314371D01*
X406114Y323458D02*
X406019Y323456D01*
X405925Y323450D01*
X405831Y323441D01*
X405737Y323428D01*
X405644Y323411D01*
X405552Y323390D01*
X405460Y323365D01*
X405370Y323337D01*
X405281Y323305D01*
X405193Y323270D01*
X405107Y323231D01*
X405022Y323189D01*
X404939Y323143D01*
X404858Y323094D01*
X404779Y323042D01*
X404702Y322987D01*
X404628Y322928D01*
X404556Y322867D01*
X404486Y322803D01*
X404419Y322736D01*
X404355Y322666D01*
X404294Y322594D01*
X404235Y322520D01*
X404180Y322443D01*
X404128Y322364D01*
X404079Y322283D01*
X404033Y322200D01*
X403991Y322115D01*
X403952Y322029D01*
X403917Y321941D01*
X403885Y321852D01*
X403857Y321762D01*
X403832Y321670D01*
X403811Y321578D01*
X403794Y321485D01*
X403781Y321391D01*
X403772Y321297D01*
X403766Y321203D01*
X403764Y321108D01*
X403765Y321108D02*
X403767Y321000D01*
X403773Y320891D01*
X403783Y320783D01*
X403796Y320676D01*
X403814Y320569D01*
X403835Y320462D01*
X403860Y320357D01*
X403889Y320252D01*
X403921Y320149D01*
X403958Y320047D01*
X403998Y319946D01*
X404041Y319847D01*
X404088Y319749D01*
X404139Y319653D01*
X404193Y319559D01*
X404250Y319467D01*
X404311Y319377D01*
X404375Y319289D01*
X404441Y319204D01*
X404511Y319121D01*
X404584Y319041D01*
X404660Y318963D01*
X404738Y318888D01*
X404819Y318816D01*
X404903Y318747D01*
X404989Y318681D01*
X405077Y318618D01*
X405168Y318559D01*
X405260Y318502D01*
X405355Y318449D01*
X405452Y318400D01*
X405550Y318354D01*
X405649Y318311D01*
X405751Y318272D01*
X405853Y318237D01*
X407942Y322675D02*
X407873Y322744D01*
X407802Y322810D01*
X407729Y322874D01*
X407653Y322935D01*
X407574Y322993D01*
X407494Y323047D01*
X407411Y323099D01*
X407327Y323147D01*
X407241Y323193D01*
X407153Y323234D01*
X407063Y323273D01*
X406972Y323308D01*
X406880Y323339D01*
X406787Y323367D01*
X406693Y323391D01*
X406598Y323411D01*
X406502Y323428D01*
X406405Y323441D01*
X406308Y323450D01*
X406211Y323456D01*
X406114Y323458D01*
X407942Y322675D02*
X413163Y318237D01*
X413163Y323458D01*
X407942Y327381D02*
X407942Y330513D01*
X407944Y330602D01*
X407950Y330690D01*
X407959Y330778D01*
X407972Y330866D01*
X407989Y330953D01*
X408009Y331039D01*
X408034Y331124D01*
X408061Y331209D01*
X408093Y331292D01*
X408127Y331373D01*
X408166Y331453D01*
X408207Y331531D01*
X408252Y331608D01*
X408300Y331682D01*
X408351Y331755D01*
X408405Y331825D01*
X408463Y331892D01*
X408523Y331958D01*
X408585Y332020D01*
X408651Y332080D01*
X408718Y332138D01*
X408788Y332192D01*
X408861Y332243D01*
X408935Y332291D01*
X409012Y332336D01*
X409090Y332377D01*
X409170Y332416D01*
X409251Y332450D01*
X409334Y332482D01*
X409419Y332509D01*
X409504Y332534D01*
X409590Y332554D01*
X409677Y332571D01*
X409765Y332584D01*
X409853Y332593D01*
X409941Y332599D01*
X410030Y332601D01*
X410030Y332602D02*
X410552Y332602D01*
X410653Y332600D01*
X410754Y332594D01*
X410855Y332584D01*
X410955Y332571D01*
X411055Y332553D01*
X411154Y332532D01*
X411252Y332506D01*
X411349Y332477D01*
X411445Y332445D01*
X411539Y332408D01*
X411632Y332368D01*
X411724Y332324D01*
X411813Y332277D01*
X411901Y332226D01*
X411987Y332172D01*
X412070Y332115D01*
X412152Y332055D01*
X412230Y331991D01*
X412307Y331925D01*
X412380Y331855D01*
X412451Y331783D01*
X412519Y331708D01*
X412584Y331630D01*
X412646Y331550D01*
X412705Y331468D01*
X412761Y331383D01*
X412813Y331296D01*
X412862Y331208D01*
X412908Y331117D01*
X412949Y331025D01*
X412988Y330931D01*
X413022Y330836D01*
X413053Y330740D01*
X413080Y330642D01*
X413104Y330544D01*
X413123Y330444D01*
X413139Y330344D01*
X413151Y330244D01*
X413159Y330143D01*
X413163Y330042D01*
X413163Y329940D01*
X413159Y329839D01*
X413151Y329738D01*
X413139Y329638D01*
X413123Y329538D01*
X413104Y329438D01*
X413080Y329340D01*
X413053Y329242D01*
X413022Y329146D01*
X412988Y329051D01*
X412949Y328957D01*
X412908Y328865D01*
X412862Y328774D01*
X412813Y328686D01*
X412761Y328599D01*
X412705Y328514D01*
X412646Y328432D01*
X412584Y328352D01*
X412519Y328274D01*
X412451Y328199D01*
X412380Y328127D01*
X412307Y328057D01*
X412230Y327991D01*
X412152Y327927D01*
X412070Y327867D01*
X411987Y327810D01*
X411901Y327756D01*
X411813Y327705D01*
X411724Y327658D01*
X411632Y327614D01*
X411539Y327574D01*
X411445Y327537D01*
X411349Y327505D01*
X411252Y327476D01*
X411154Y327450D01*
X411055Y327429D01*
X410955Y327411D01*
X410855Y327398D01*
X410754Y327388D01*
X410653Y327382D01*
X410552Y327380D01*
X410552Y327381D02*
X407942Y327381D01*
X407813Y327383D01*
X407685Y327389D01*
X407557Y327399D01*
X407429Y327413D01*
X407301Y327430D01*
X407174Y327452D01*
X407048Y327478D01*
X406923Y327507D01*
X406799Y327540D01*
X406676Y327578D01*
X406554Y327618D01*
X406433Y327663D01*
X406314Y327711D01*
X406196Y327763D01*
X406080Y327819D01*
X405966Y327878D01*
X405854Y327941D01*
X405743Y328007D01*
X405635Y328076D01*
X405529Y328149D01*
X405425Y328225D01*
X405323Y328304D01*
X405224Y328386D01*
X405128Y328471D01*
X405034Y328559D01*
X404943Y328650D01*
X404855Y328744D01*
X404770Y328840D01*
X404688Y328939D01*
X404609Y329041D01*
X404533Y329145D01*
X404460Y329251D01*
X404391Y329359D01*
X404325Y329469D01*
X404262Y329582D01*
X404203Y329696D01*
X404147Y329812D01*
X404095Y329930D01*
X404047Y330049D01*
X404002Y330170D01*
X403962Y330292D01*
X403924Y330415D01*
X403891Y330539D01*
X403862Y330664D01*
X403836Y330790D01*
X403814Y330917D01*
X403797Y331045D01*
X403783Y331173D01*
X403773Y331301D01*
X403767Y331429D01*
X403765Y331558D01*
D117*
X504924Y337988D02*
X515945Y331676D01*
X518300Y323010D01*
X511988Y311990D01*
X503322Y309635D01*
X489947Y324613D02*
X496258Y335633D01*
X504924Y337988D01*
X489947Y324613D02*
X492301Y315947D01*
X503322Y309635D01*
X518300Y323010D02*
X526966Y325365D01*
X537986Y319053D01*
X540341Y310387D01*
X534029Y299367D01*
X525363Y297012D01*
X514342Y303324D01*
X511988Y311990D01*
M02*
