G04 EAGLE Gerber RS-274X export*
G75*
%MOMM*%
%FSLAX34Y34*%
%LPD*%
%INSolderpaste Bottom*%
%IPPOS*%
%AMOC8*
5,1,8,0,0,1.08239X$1,22.5*%
G01*
%ADD10R,0.400000X1.399997*%
%ADD11R,0.254000X0.812800*%
%ADD12R,0.812800X0.254000*%
%ADD13R,1.100000X1.000000*%
%ADD14R,1.500000X1.300000*%
%ADD15R,1.300000X1.500000*%
%ADD16R,0.300000X0.850000*%
%ADD17R,0.850000X0.300000*%
%ADD18R,2.650000X2.650000*%
%ADD19R,1.000000X1.100000*%
%ADD20R,1.676400X0.508000*%

G36*
X169531Y201630D02*
X169531Y201630D01*
X169533Y201629D01*
X169576Y201649D01*
X169620Y201667D01*
X169621Y201669D01*
X169623Y201670D01*
X169656Y201755D01*
X169656Y213979D01*
X169655Y213981D01*
X169655Y213983D01*
X169636Y214026D01*
X169617Y214070D01*
X169615Y214071D01*
X169614Y214073D01*
X169529Y214106D01*
X157305Y214106D01*
X157303Y214105D01*
X157301Y214105D01*
X157258Y214086D01*
X157215Y214067D01*
X157214Y214065D01*
X157212Y214064D01*
X157179Y213979D01*
X157179Y201755D01*
X157180Y201753D01*
X157179Y201751D01*
X157199Y201708D01*
X157217Y201665D01*
X157219Y201664D01*
X157220Y201662D01*
X157305Y201629D01*
X169529Y201629D01*
X169531Y201630D01*
G37*
G36*
X155307Y201630D02*
X155307Y201630D01*
X155309Y201629D01*
X155352Y201649D01*
X155396Y201667D01*
X155397Y201669D01*
X155399Y201670D01*
X155432Y201755D01*
X155432Y213979D01*
X155431Y213981D01*
X155431Y213983D01*
X155412Y214026D01*
X155393Y214070D01*
X155391Y214071D01*
X155390Y214073D01*
X155305Y214106D01*
X143081Y214106D01*
X143079Y214105D01*
X143077Y214105D01*
X143034Y214086D01*
X142991Y214067D01*
X142990Y214065D01*
X142988Y214064D01*
X142955Y213979D01*
X142955Y201755D01*
X142956Y201753D01*
X142955Y201751D01*
X142975Y201708D01*
X142993Y201665D01*
X142995Y201664D01*
X142996Y201662D01*
X143081Y201629D01*
X155305Y201629D01*
X155307Y201630D01*
G37*
G36*
X141083Y201630D02*
X141083Y201630D01*
X141085Y201629D01*
X141128Y201649D01*
X141172Y201667D01*
X141173Y201669D01*
X141175Y201670D01*
X141208Y201755D01*
X141208Y213979D01*
X141207Y213981D01*
X141207Y213983D01*
X141188Y214026D01*
X141169Y214070D01*
X141167Y214071D01*
X141166Y214073D01*
X141081Y214106D01*
X128857Y214106D01*
X128855Y214105D01*
X128853Y214105D01*
X128810Y214086D01*
X128767Y214067D01*
X128766Y214065D01*
X128764Y214064D01*
X128731Y213979D01*
X128731Y201755D01*
X128732Y201753D01*
X128731Y201751D01*
X128751Y201708D01*
X128769Y201665D01*
X128771Y201664D01*
X128772Y201662D01*
X128857Y201629D01*
X141081Y201629D01*
X141083Y201630D01*
G37*
G36*
X126859Y201630D02*
X126859Y201630D01*
X126861Y201629D01*
X126904Y201649D01*
X126948Y201667D01*
X126949Y201669D01*
X126951Y201670D01*
X126984Y201755D01*
X126984Y213979D01*
X126983Y213981D01*
X126983Y213983D01*
X126964Y214026D01*
X126945Y214070D01*
X126943Y214071D01*
X126942Y214073D01*
X126857Y214106D01*
X114633Y214106D01*
X114631Y214105D01*
X114629Y214105D01*
X114586Y214086D01*
X114543Y214067D01*
X114542Y214065D01*
X114540Y214064D01*
X114507Y213979D01*
X114507Y201755D01*
X114508Y201753D01*
X114507Y201751D01*
X114527Y201708D01*
X114545Y201665D01*
X114547Y201664D01*
X114548Y201662D01*
X114633Y201629D01*
X126857Y201629D01*
X126859Y201630D01*
G37*
G36*
X169531Y187406D02*
X169531Y187406D01*
X169533Y187405D01*
X169576Y187425D01*
X169620Y187443D01*
X169621Y187445D01*
X169623Y187446D01*
X169656Y187531D01*
X169656Y199755D01*
X169655Y199757D01*
X169655Y199759D01*
X169636Y199802D01*
X169617Y199846D01*
X169615Y199847D01*
X169614Y199849D01*
X169529Y199882D01*
X157305Y199882D01*
X157303Y199881D01*
X157301Y199881D01*
X157258Y199862D01*
X157215Y199843D01*
X157214Y199841D01*
X157212Y199840D01*
X157179Y199755D01*
X157179Y187531D01*
X157180Y187529D01*
X157179Y187527D01*
X157199Y187484D01*
X157217Y187441D01*
X157219Y187440D01*
X157220Y187438D01*
X157305Y187405D01*
X169529Y187405D01*
X169531Y187406D01*
G37*
G36*
X126859Y187406D02*
X126859Y187406D01*
X126861Y187405D01*
X126904Y187425D01*
X126948Y187443D01*
X126949Y187445D01*
X126951Y187446D01*
X126984Y187531D01*
X126984Y199755D01*
X126983Y199757D01*
X126983Y199759D01*
X126964Y199802D01*
X126945Y199846D01*
X126943Y199847D01*
X126942Y199849D01*
X126857Y199882D01*
X114633Y199882D01*
X114631Y199881D01*
X114629Y199881D01*
X114586Y199862D01*
X114543Y199843D01*
X114542Y199841D01*
X114540Y199840D01*
X114507Y199755D01*
X114507Y187531D01*
X114508Y187529D01*
X114507Y187527D01*
X114527Y187484D01*
X114545Y187441D01*
X114547Y187440D01*
X114548Y187438D01*
X114633Y187405D01*
X126857Y187405D01*
X126859Y187406D01*
G37*
G36*
X141083Y187406D02*
X141083Y187406D01*
X141085Y187405D01*
X141128Y187425D01*
X141172Y187443D01*
X141173Y187445D01*
X141175Y187446D01*
X141208Y187531D01*
X141208Y199755D01*
X141207Y199757D01*
X141207Y199759D01*
X141188Y199802D01*
X141169Y199846D01*
X141167Y199847D01*
X141166Y199849D01*
X141081Y199882D01*
X128857Y199882D01*
X128855Y199881D01*
X128853Y199881D01*
X128810Y199862D01*
X128767Y199843D01*
X128766Y199841D01*
X128764Y199840D01*
X128731Y199755D01*
X128731Y187531D01*
X128732Y187529D01*
X128731Y187527D01*
X128751Y187484D01*
X128769Y187441D01*
X128771Y187440D01*
X128772Y187438D01*
X128857Y187405D01*
X141081Y187405D01*
X141083Y187406D01*
G37*
G36*
X155307Y187406D02*
X155307Y187406D01*
X155309Y187405D01*
X155352Y187425D01*
X155396Y187443D01*
X155397Y187445D01*
X155399Y187446D01*
X155432Y187531D01*
X155432Y199755D01*
X155431Y199757D01*
X155431Y199759D01*
X155412Y199802D01*
X155393Y199846D01*
X155391Y199847D01*
X155390Y199849D01*
X155305Y199882D01*
X143081Y199882D01*
X143079Y199881D01*
X143077Y199881D01*
X143034Y199862D01*
X142991Y199843D01*
X142990Y199841D01*
X142988Y199840D01*
X142955Y199755D01*
X142955Y187531D01*
X142956Y187529D01*
X142955Y187527D01*
X142975Y187484D01*
X142993Y187441D01*
X142995Y187440D01*
X142996Y187438D01*
X143081Y187405D01*
X155305Y187405D01*
X155307Y187406D01*
G37*
G36*
X141083Y173182D02*
X141083Y173182D01*
X141085Y173181D01*
X141128Y173201D01*
X141172Y173219D01*
X141173Y173221D01*
X141175Y173222D01*
X141208Y173307D01*
X141208Y185531D01*
X141207Y185533D01*
X141207Y185535D01*
X141188Y185578D01*
X141169Y185622D01*
X141167Y185623D01*
X141166Y185625D01*
X141081Y185658D01*
X128857Y185658D01*
X128855Y185657D01*
X128853Y185657D01*
X128810Y185638D01*
X128767Y185619D01*
X128766Y185617D01*
X128764Y185616D01*
X128731Y185531D01*
X128731Y173307D01*
X128732Y173305D01*
X128731Y173303D01*
X128751Y173260D01*
X128769Y173217D01*
X128771Y173216D01*
X128772Y173214D01*
X128857Y173181D01*
X141081Y173181D01*
X141083Y173182D01*
G37*
G36*
X169531Y173182D02*
X169531Y173182D01*
X169533Y173181D01*
X169576Y173201D01*
X169620Y173219D01*
X169621Y173221D01*
X169623Y173222D01*
X169656Y173307D01*
X169656Y185531D01*
X169655Y185533D01*
X169655Y185535D01*
X169636Y185578D01*
X169617Y185622D01*
X169615Y185623D01*
X169614Y185625D01*
X169529Y185658D01*
X157305Y185658D01*
X157303Y185657D01*
X157301Y185657D01*
X157258Y185638D01*
X157215Y185619D01*
X157214Y185617D01*
X157212Y185616D01*
X157179Y185531D01*
X157179Y173307D01*
X157180Y173305D01*
X157179Y173303D01*
X157199Y173260D01*
X157217Y173217D01*
X157219Y173216D01*
X157220Y173214D01*
X157305Y173181D01*
X169529Y173181D01*
X169531Y173182D01*
G37*
G36*
X155307Y173182D02*
X155307Y173182D01*
X155309Y173181D01*
X155352Y173201D01*
X155396Y173219D01*
X155397Y173221D01*
X155399Y173222D01*
X155432Y173307D01*
X155432Y185531D01*
X155431Y185533D01*
X155431Y185535D01*
X155412Y185578D01*
X155393Y185622D01*
X155391Y185623D01*
X155390Y185625D01*
X155305Y185658D01*
X143081Y185658D01*
X143079Y185657D01*
X143077Y185657D01*
X143034Y185638D01*
X142991Y185619D01*
X142990Y185617D01*
X142988Y185616D01*
X142955Y185531D01*
X142955Y173307D01*
X142956Y173305D01*
X142955Y173303D01*
X142975Y173260D01*
X142993Y173217D01*
X142995Y173216D01*
X142996Y173214D01*
X143081Y173181D01*
X155305Y173181D01*
X155307Y173182D01*
G37*
G36*
X126859Y173182D02*
X126859Y173182D01*
X126861Y173181D01*
X126904Y173201D01*
X126948Y173219D01*
X126949Y173221D01*
X126951Y173222D01*
X126984Y173307D01*
X126984Y185531D01*
X126983Y185533D01*
X126983Y185535D01*
X126964Y185578D01*
X126945Y185622D01*
X126943Y185623D01*
X126942Y185625D01*
X126857Y185658D01*
X114633Y185658D01*
X114631Y185657D01*
X114629Y185657D01*
X114586Y185638D01*
X114543Y185619D01*
X114542Y185617D01*
X114540Y185616D01*
X114507Y185531D01*
X114507Y173307D01*
X114508Y173305D01*
X114507Y173303D01*
X114527Y173260D01*
X114545Y173217D01*
X114547Y173216D01*
X114548Y173214D01*
X114633Y173181D01*
X126857Y173181D01*
X126859Y173182D01*
G37*
G36*
X155307Y158958D02*
X155307Y158958D01*
X155309Y158957D01*
X155352Y158977D01*
X155396Y158995D01*
X155397Y158997D01*
X155399Y158998D01*
X155432Y159083D01*
X155432Y171307D01*
X155431Y171309D01*
X155431Y171311D01*
X155412Y171354D01*
X155393Y171398D01*
X155391Y171399D01*
X155390Y171401D01*
X155305Y171434D01*
X143081Y171434D01*
X143079Y171433D01*
X143077Y171433D01*
X143034Y171414D01*
X142991Y171395D01*
X142990Y171393D01*
X142988Y171392D01*
X142955Y171307D01*
X142955Y159083D01*
X142956Y159081D01*
X142955Y159079D01*
X142975Y159036D01*
X142993Y158993D01*
X142995Y158992D01*
X142996Y158990D01*
X143081Y158957D01*
X155305Y158957D01*
X155307Y158958D01*
G37*
G36*
X141083Y158958D02*
X141083Y158958D01*
X141085Y158957D01*
X141128Y158977D01*
X141172Y158995D01*
X141173Y158997D01*
X141175Y158998D01*
X141208Y159083D01*
X141208Y171307D01*
X141207Y171309D01*
X141207Y171311D01*
X141188Y171354D01*
X141169Y171398D01*
X141167Y171399D01*
X141166Y171401D01*
X141081Y171434D01*
X128857Y171434D01*
X128855Y171433D01*
X128853Y171433D01*
X128810Y171414D01*
X128767Y171395D01*
X128766Y171393D01*
X128764Y171392D01*
X128731Y171307D01*
X128731Y159083D01*
X128732Y159081D01*
X128731Y159079D01*
X128751Y159036D01*
X128769Y158993D01*
X128771Y158992D01*
X128772Y158990D01*
X128857Y158957D01*
X141081Y158957D01*
X141083Y158958D01*
G37*
G36*
X126859Y158958D02*
X126859Y158958D01*
X126861Y158957D01*
X126904Y158977D01*
X126948Y158995D01*
X126949Y158997D01*
X126951Y158998D01*
X126984Y159083D01*
X126984Y171307D01*
X126983Y171309D01*
X126983Y171311D01*
X126964Y171354D01*
X126945Y171398D01*
X126943Y171399D01*
X126942Y171401D01*
X126857Y171434D01*
X114633Y171434D01*
X114631Y171433D01*
X114629Y171433D01*
X114586Y171414D01*
X114543Y171395D01*
X114542Y171393D01*
X114540Y171392D01*
X114507Y171307D01*
X114507Y159083D01*
X114508Y159081D01*
X114507Y159079D01*
X114527Y159036D01*
X114545Y158993D01*
X114547Y158992D01*
X114548Y158990D01*
X114633Y158957D01*
X126857Y158957D01*
X126859Y158958D01*
G37*
G36*
X169531Y158958D02*
X169531Y158958D01*
X169533Y158957D01*
X169576Y158977D01*
X169620Y158995D01*
X169621Y158997D01*
X169623Y158998D01*
X169656Y159083D01*
X169656Y171307D01*
X169655Y171309D01*
X169655Y171311D01*
X169636Y171354D01*
X169617Y171398D01*
X169615Y171399D01*
X169614Y171401D01*
X169529Y171434D01*
X157305Y171434D01*
X157303Y171433D01*
X157301Y171433D01*
X157258Y171414D01*
X157215Y171395D01*
X157214Y171393D01*
X157212Y171392D01*
X157179Y171307D01*
X157179Y159083D01*
X157180Y159081D01*
X157179Y159079D01*
X157199Y159036D01*
X157217Y158993D01*
X157219Y158992D01*
X157220Y158990D01*
X157305Y158957D01*
X169529Y158957D01*
X169531Y158958D01*
G37*
D10*
X165194Y244475D03*
X153194Y244475D03*
X141194Y244475D03*
D11*
X114574Y221075D03*
X119575Y221075D03*
X124577Y221075D03*
X129578Y221075D03*
X134579Y221075D03*
X139580Y221075D03*
X144582Y221075D03*
X149583Y221075D03*
X154584Y221075D03*
X159585Y221075D03*
X164587Y221075D03*
X169588Y221075D03*
D12*
X176625Y214038D03*
X176625Y209037D03*
X176625Y204035D03*
X176625Y199034D03*
X176625Y194033D03*
X176625Y189032D03*
X176625Y184030D03*
X176625Y179029D03*
X176625Y174028D03*
X176625Y169027D03*
X176625Y164025D03*
X176625Y159024D03*
D11*
X169588Y151987D03*
X164587Y151987D03*
X159585Y151987D03*
X154584Y151987D03*
X149583Y151987D03*
X144582Y151987D03*
X139580Y151987D03*
X134579Y151987D03*
X129578Y151987D03*
X124577Y151987D03*
X119575Y151987D03*
X114574Y151987D03*
D12*
X107537Y159024D03*
X107537Y164025D03*
X107537Y169027D03*
X107537Y174028D03*
X107537Y179029D03*
X107537Y184030D03*
X107537Y189032D03*
X107537Y194033D03*
X107537Y199034D03*
X107537Y204035D03*
X107537Y209037D03*
X107537Y214038D03*
D13*
X32544Y140725D03*
X32544Y157725D03*
X159544Y267725D03*
X159544Y284725D03*
X129944Y323850D03*
X112944Y323850D03*
X97863Y262731D03*
X114863Y262731D03*
X98656Y241300D03*
X115656Y241300D03*
X133581Y123825D03*
X150581Y123825D03*
D14*
X138113Y286519D03*
X138113Y267519D03*
D15*
X96863Y284956D03*
X115863Y284956D03*
X131788Y102394D03*
X150788Y102394D03*
D16*
X437831Y163063D03*
X432831Y163063D03*
X427831Y163063D03*
X422831Y163063D03*
X417831Y163063D03*
D17*
X408331Y172563D03*
X408331Y177563D03*
X408331Y182563D03*
X408331Y187563D03*
X408331Y192563D03*
D16*
X417831Y202063D03*
X422831Y202063D03*
X427831Y202063D03*
X432831Y202063D03*
X437831Y202063D03*
D17*
X447331Y192563D03*
X447331Y187563D03*
X447331Y182563D03*
X447331Y177563D03*
X447331Y172563D03*
D18*
X427831Y182563D03*
D13*
X455381Y216694D03*
X438381Y216694D03*
X470694Y182000D03*
X470694Y199000D03*
D19*
X469338Y219869D03*
X486338Y219869D03*
D13*
X464113Y145256D03*
X447113Y145256D03*
D19*
X478069Y145256D03*
X495069Y145256D03*
X474100Y165100D03*
X491100Y165100D03*
X504263Y165100D03*
X521263Y165100D03*
X517525Y199000D03*
X517525Y182000D03*
D13*
X466725Y101831D03*
X466725Y118831D03*
X404217Y101831D03*
X404217Y118831D03*
X445889Y118831D03*
X445889Y101831D03*
X425053Y118831D03*
X425053Y101831D03*
X383381Y118831D03*
X383381Y101831D03*
X403788Y135731D03*
X386788Y135731D03*
X354806Y150250D03*
X354806Y167250D03*
X354806Y183588D03*
X354806Y200588D03*
X388938Y229956D03*
X388938Y212956D03*
D19*
X354806Y233925D03*
X354806Y216925D03*
X388938Y152631D03*
X388938Y169631D03*
D13*
X388938Y199794D03*
X388938Y182794D03*
X322263Y183588D03*
X322263Y200588D03*
X322263Y150250D03*
X322263Y167250D03*
D14*
X505619Y279425D03*
X505619Y298425D03*
D19*
X484981Y277250D03*
X484981Y294250D03*
X392675Y310356D03*
X375675Y310356D03*
D13*
X354806Y250263D03*
X354806Y267263D03*
D19*
X322263Y233925D03*
X322263Y216925D03*
X354806Y301394D03*
X354806Y284394D03*
X388938Y243913D03*
X388938Y260913D03*
D13*
X322263Y250263D03*
X322263Y267263D03*
X409575Y243913D03*
X409575Y260913D03*
X438150Y260913D03*
X438150Y243913D03*
X455844Y254000D03*
X472844Y254000D03*
D19*
X506975Y254000D03*
X489975Y254000D03*
D13*
X500294Y219869D03*
X517294Y219869D03*
D19*
X388938Y276456D03*
X388938Y293456D03*
D20*
X414242Y283369D03*
X414242Y296069D03*
X414242Y308769D03*
X414242Y321469D03*
X460470Y321469D03*
X460470Y308769D03*
X460470Y296069D03*
X460470Y283369D03*
M02*
