M48
;GenerationSoftware,Autodesk,EAGLE,9.6.1*%
;CreationDate,2025-01-15T13:24:24Z*%
FMAT,2
ICI,OFF
METRIC,TZ,000.000
T6C0.250
T5C0.300
T4C0.350
T3C0.900
T2C1.016
T1C1.700
%
G90
M71
T1
X20464Y0
X27464Y0
T2
X-20082Y-2381
X-20161Y2699
X-20161Y5239
X-20161Y159
X17681Y-11553
X19881Y-10283
X22080Y-9013
X21409Y11468
X19205Y12731
T3
X22568Y-10668
X19104Y-12668
X20836Y-11668
T4
X-20082Y8096
X-18336Y9604
X-10398Y8890
X-10716Y635
X-8652Y635
X-14514Y-6021
X-8811Y-3894
X-8731Y-5794
X12621Y-11271
X11668Y-1191
X11827Y2937
X11589Y5715
X15637Y8255
X18891Y7144
X18415Y1032
X18971Y-4763
X20876Y-4842
X16272Y-7064
X9763Y-8096
X5953Y-8096
X2302Y-6985
X2778Y-4286
X2619Y1270
X2619Y-952
X2619Y7144
X2619Y5556
X3651Y8255
X5953Y8255
X12303Y8176
X9525Y8176
X17304Y8334
X18971Y5874
X18415Y-1191
X21431Y-6191
X12144Y-7937
X2857Y-8255
X22463Y6906
X-11986Y10160
X21987Y-1905
X25400Y-7223
X14922Y-13097
X7779Y-10874
X7620Y10319
X10557Y11906
X11906Y1667
X11509Y-2381
X-16907Y4286
X6271Y5216
X6271Y7041
X14208Y6112
X22384Y3731
X28314Y-6667
X25407Y1581
X-12779Y-12303
X-11351Y-10636
X-18574Y-10319
X-20052Y-9158
X-23545Y446
X-23574Y2540
X14208Y4113
T5
X10755Y-6762
X6097Y-5715
X4286Y-1364
X15875Y-3587
X4286Y-4857
X12447Y-6826
X14446Y-4301
T6
X-13811Y7100
X13097Y2937
X-14850Y-3332
X-9831Y5545
X-20024Y-11006
X14423Y11351
X-10591Y-11808
X15081Y-6985
X-20884Y10219
X4366Y-7110
X-13811Y3096
X-6747Y-461
X-10849Y4921
X-26987Y952
X-10139Y11006
X10559Y748
X-8414Y-2493
X8808Y1133
X-8811Y-1618
X8096Y714
X-8096Y-1111
M30