G04 EAGLE Gerber RS-274X export*
G75*
%MOMM*%
%FSLAX34Y34*%
%LPD*%
%INSoldermask Top*%
%IPPOS*%
%AMOC8*
5,1,8,0,0,1.08239X$1,22.5*%
G01*
%ADD10R,1.003200X1.003200*%
%ADD11C,1.203200*%
%ADD12P,1.869504X8X22.500000*%
%ADD13R,1.203200X1.303200*%
%ADD14C,1.727200*%
%ADD15R,1.803200X1.203200*%
%ADD16R,0.703200X1.003200*%
%ADD17R,2.803200X3.003200*%
%ADD18R,2.403200X3.003200*%
%ADD19R,3.003200X3.003200*%
%ADD20C,1.903200*%
%ADD21R,1.611200X1.611200*%
%ADD22C,1.611200*%
%ADD23R,1.303200X1.203200*%

G36*
X-786Y67103D02*
X-786Y67103D01*
X-773Y67102D01*
X2277Y67345D01*
X2310Y67354D01*
X2357Y67358D01*
X5328Y68086D01*
X5359Y68101D01*
X5405Y68112D01*
X5468Y68139D01*
X5469Y68139D01*
X6644Y68638D01*
X7820Y69137D01*
X8221Y69308D01*
X8249Y69327D01*
X8292Y69345D01*
X10880Y70977D01*
X10905Y71001D01*
X10945Y71025D01*
X13237Y73052D01*
X13258Y73079D01*
X13293Y73110D01*
X15231Y75478D01*
X15247Y75508D01*
X15277Y75544D01*
X16810Y78192D01*
X16821Y78224D01*
X16845Y78264D01*
X16898Y78404D01*
X17658Y80401D01*
X17848Y80900D01*
X17933Y81124D01*
X17939Y81157D01*
X17955Y81201D01*
X18571Y84198D01*
X18571Y84232D01*
X18581Y84278D01*
X18708Y87335D01*
X18702Y87369D01*
X18705Y87416D01*
X18339Y90454D01*
X18329Y90486D01*
X18323Y90532D01*
X17476Y93472D01*
X17460Y93502D01*
X17447Y93548D01*
X16139Y96314D01*
X16122Y96336D01*
X16112Y96363D01*
X16063Y96415D01*
X16020Y96473D01*
X15995Y96487D01*
X15975Y96508D01*
X15910Y96537D01*
X15848Y96573D01*
X15820Y96576D01*
X15793Y96588D01*
X15721Y96589D01*
X15651Y96598D01*
X15623Y96590D01*
X15594Y96591D01*
X15500Y96555D01*
X15459Y96544D01*
X15451Y96537D01*
X15438Y96533D01*
X-813Y87176D01*
X-17063Y96533D01*
X-17091Y96542D01*
X-17114Y96558D01*
X-17184Y96573D01*
X-17252Y96596D01*
X-17281Y96593D01*
X-17309Y96599D01*
X-17379Y96586D01*
X-17450Y96580D01*
X-17476Y96567D01*
X-17504Y96561D01*
X-17563Y96521D01*
X-17627Y96488D01*
X-17645Y96466D01*
X-17669Y96450D01*
X-17726Y96367D01*
X-17753Y96335D01*
X-17756Y96324D01*
X-17764Y96314D01*
X-19072Y93548D01*
X-19080Y93515D01*
X-19101Y93472D01*
X-19948Y90532D01*
X-19951Y90498D01*
X-19964Y90454D01*
X-20330Y87416D01*
X-20327Y87382D01*
X-20333Y87335D01*
X-20206Y84278D01*
X-20198Y84245D01*
X-20196Y84198D01*
X-19580Y81201D01*
X-19567Y81170D01*
X-19558Y81124D01*
X-18470Y78264D01*
X-18451Y78236D01*
X-18435Y78192D01*
X-16902Y75544D01*
X-16879Y75518D01*
X-16856Y75478D01*
X-14918Y73110D01*
X-14892Y73088D01*
X-14862Y73052D01*
X-12570Y71025D01*
X-12540Y71009D01*
X-12505Y70977D01*
X-9917Y69345D01*
X-9886Y69333D01*
X-9846Y69308D01*
X-7030Y68112D01*
X-6996Y68105D01*
X-6953Y68086D01*
X-3982Y67358D01*
X-3948Y67356D01*
X-3902Y67345D01*
X-852Y67102D01*
X-824Y67106D01*
X-796Y67101D01*
X-786Y67103D01*
G37*
G36*
X15754Y-96586D02*
X15754Y-96586D01*
X15825Y-96580D01*
X15851Y-96567D01*
X15879Y-96561D01*
X15938Y-96521D01*
X16002Y-96488D01*
X16020Y-96466D01*
X16044Y-96450D01*
X16101Y-96367D01*
X16128Y-96335D01*
X16131Y-96324D01*
X16139Y-96314D01*
X17447Y-93548D01*
X17455Y-93515D01*
X17476Y-93472D01*
X18323Y-90532D01*
X18326Y-90498D01*
X18339Y-90454D01*
X18705Y-87416D01*
X18702Y-87382D01*
X18708Y-87335D01*
X18581Y-84278D01*
X18573Y-84245D01*
X18571Y-84198D01*
X17955Y-81201D01*
X17942Y-81170D01*
X17933Y-81124D01*
X16845Y-78264D01*
X16826Y-78236D01*
X16810Y-78192D01*
X15277Y-75544D01*
X15254Y-75518D01*
X15231Y-75478D01*
X13293Y-73110D01*
X13267Y-73088D01*
X13237Y-73052D01*
X10945Y-71025D01*
X10915Y-71009D01*
X10880Y-70977D01*
X8292Y-69345D01*
X8261Y-69333D01*
X8221Y-69308D01*
X5405Y-68112D01*
X5371Y-68105D01*
X5328Y-68086D01*
X2357Y-67358D01*
X2323Y-67356D01*
X2277Y-67345D01*
X-773Y-67102D01*
X-801Y-67106D01*
X-829Y-67101D01*
X-839Y-67103D01*
X-852Y-67102D01*
X-3902Y-67345D01*
X-3935Y-67354D01*
X-3982Y-67358D01*
X-6953Y-68086D01*
X-6984Y-68101D01*
X-7030Y-68112D01*
X-7194Y-68182D01*
X-8370Y-68681D01*
X-9546Y-69180D01*
X-9846Y-69308D01*
X-9874Y-69327D01*
X-9917Y-69345D01*
X-12505Y-70977D01*
X-12530Y-71001D01*
X-12570Y-71025D01*
X-14862Y-73052D01*
X-14883Y-73079D01*
X-14918Y-73110D01*
X-16856Y-75478D01*
X-16872Y-75508D01*
X-16902Y-75544D01*
X-18435Y-78192D01*
X-18446Y-78224D01*
X-18470Y-78264D01*
X-19558Y-81124D01*
X-19564Y-81157D01*
X-19580Y-81201D01*
X-20196Y-84198D01*
X-20196Y-84232D01*
X-20206Y-84278D01*
X-20333Y-87335D01*
X-20327Y-87369D01*
X-20330Y-87416D01*
X-19964Y-90454D01*
X-19954Y-90486D01*
X-19948Y-90532D01*
X-19101Y-93472D01*
X-19085Y-93502D01*
X-19072Y-93548D01*
X-17764Y-96314D01*
X-17747Y-96336D01*
X-17737Y-96363D01*
X-17688Y-96415D01*
X-17645Y-96473D01*
X-17620Y-96487D01*
X-17600Y-96508D01*
X-17535Y-96537D01*
X-17473Y-96573D01*
X-17445Y-96576D01*
X-17418Y-96588D01*
X-17346Y-96589D01*
X-17276Y-96598D01*
X-17248Y-96590D01*
X-17219Y-96591D01*
X-17125Y-96555D01*
X-17084Y-96544D01*
X-17076Y-96537D01*
X-17063Y-96533D01*
X-813Y-87176D01*
X15438Y-96533D01*
X15466Y-96542D01*
X15489Y-96558D01*
X15559Y-96573D01*
X15627Y-96596D01*
X15656Y-96593D01*
X15684Y-96599D01*
X15754Y-96586D01*
G37*
G36*
X-300785Y-17496D02*
X-300785Y-17496D01*
X-300771Y-17498D01*
X-297973Y-17266D01*
X-297940Y-17256D01*
X-297892Y-17252D01*
X-295170Y-16563D01*
X-295139Y-16548D01*
X-295092Y-16536D01*
X-292521Y-15408D01*
X-292493Y-15388D01*
X-292448Y-15369D01*
X-290098Y-13833D01*
X-290073Y-13809D01*
X-290033Y-13783D01*
X-287967Y-11881D01*
X-287955Y-11864D01*
X-287942Y-11855D01*
X-287932Y-11839D01*
X-287911Y-11820D01*
X-286187Y-9605D01*
X-286171Y-9574D01*
X-286142Y-9536D01*
X-284805Y-7066D01*
X-284795Y-7033D01*
X-284772Y-6991D01*
X-283861Y-4335D01*
X-283856Y-4301D01*
X-283840Y-4255D01*
X-283378Y-1486D01*
X-283379Y-1451D01*
X-283371Y-1404D01*
X-283371Y1404D01*
X-283378Y1438D01*
X-283378Y1486D01*
X-283840Y4255D01*
X-283853Y4288D01*
X-283861Y4335D01*
X-284772Y6991D01*
X-284790Y7021D01*
X-284805Y7066D01*
X-286142Y9536D01*
X-286164Y9562D01*
X-286187Y9605D01*
X-287911Y11820D01*
X-287938Y11843D01*
X-287967Y11881D01*
X-290033Y13783D01*
X-290062Y13801D01*
X-290098Y13833D01*
X-292448Y15369D01*
X-292481Y15382D01*
X-292521Y15408D01*
X-295092Y16536D01*
X-295126Y16543D01*
X-295170Y16563D01*
X-297892Y17252D01*
X-297927Y17254D01*
X-297973Y17266D01*
X-300771Y17498D01*
X-300800Y17494D01*
X-300829Y17499D01*
X-300898Y17483D01*
X-300969Y17474D01*
X-300994Y17460D01*
X-301022Y17453D01*
X-301080Y17411D01*
X-301141Y17376D01*
X-301159Y17352D01*
X-301183Y17335D01*
X-301219Y17274D01*
X-301262Y17217D01*
X-301269Y17189D01*
X-301284Y17164D01*
X-301301Y17066D01*
X-301311Y17025D01*
X-301309Y17014D01*
X-301312Y17000D01*
X-301312Y-17000D01*
X-301306Y-17029D01*
X-301308Y-17058D01*
X-301286Y-17125D01*
X-301272Y-17195D01*
X-301256Y-17219D01*
X-301247Y-17247D01*
X-301200Y-17300D01*
X-301160Y-17359D01*
X-301135Y-17375D01*
X-301116Y-17397D01*
X-301052Y-17428D01*
X-300992Y-17466D01*
X-300963Y-17471D01*
X-300937Y-17483D01*
X-300838Y-17492D01*
X-300796Y-17499D01*
X-300785Y-17496D01*
G37*
G36*
X-211046Y-138886D02*
X-211046Y-138886D01*
X-210976Y-138880D01*
X-210950Y-138867D01*
X-210921Y-138861D01*
X-210862Y-138821D01*
X-210799Y-138789D01*
X-210780Y-138766D01*
X-210756Y-138750D01*
X-210699Y-138668D01*
X-210672Y-138635D01*
X-210669Y-138625D01*
X-210661Y-138613D01*
X-209463Y-136078D01*
X-209454Y-136044D01*
X-209434Y-136001D01*
X-208669Y-133303D01*
X-208666Y-133268D01*
X-208653Y-133222D01*
X-208343Y-130434D01*
X-208345Y-130406D01*
X-208343Y-130395D01*
X-208345Y-130391D01*
X-208340Y-130352D01*
X-208493Y-127552D01*
X-208502Y-127518D01*
X-208504Y-127470D01*
X-209116Y-124733D01*
X-209130Y-124701D01*
X-209140Y-124654D01*
X-210194Y-122055D01*
X-210213Y-122026D01*
X-210231Y-121982D01*
X-211698Y-119591D01*
X-211722Y-119566D01*
X-211747Y-119525D01*
X-213587Y-117409D01*
X-213615Y-117388D01*
X-213646Y-117351D01*
X-215810Y-115567D01*
X-215841Y-115551D01*
X-215878Y-115520D01*
X-218306Y-114116D01*
X-218338Y-114105D01*
X-218380Y-114081D01*
X-221006Y-113096D01*
X-221040Y-113090D01*
X-221085Y-113073D01*
X-223837Y-112534D01*
X-223872Y-112534D01*
X-223919Y-112525D01*
X-226723Y-112446D01*
X-226757Y-112452D01*
X-226805Y-112450D01*
X-229583Y-112833D01*
X-229616Y-112845D01*
X-229664Y-112851D01*
X-232341Y-113687D01*
X-232371Y-113704D01*
X-232417Y-113718D01*
X-234920Y-114982D01*
X-234948Y-115004D01*
X-234991Y-115026D01*
X-237251Y-116685D01*
X-237275Y-116711D01*
X-237314Y-116739D01*
X-239271Y-118748D01*
X-239289Y-118777D01*
X-239323Y-118812D01*
X-240923Y-121115D01*
X-240934Y-121142D01*
X-240953Y-121165D01*
X-240973Y-121233D01*
X-241001Y-121298D01*
X-241001Y-121327D01*
X-241010Y-121355D01*
X-241002Y-121426D01*
X-241002Y-121497D01*
X-240991Y-121524D01*
X-240988Y-121553D01*
X-240953Y-121615D01*
X-240926Y-121680D01*
X-240905Y-121701D01*
X-240891Y-121726D01*
X-240814Y-121789D01*
X-240784Y-121819D01*
X-240773Y-121823D01*
X-240762Y-121832D01*
X-211362Y-138832D01*
X-211335Y-138841D01*
X-211311Y-138858D01*
X-211241Y-138873D01*
X-211174Y-138895D01*
X-211145Y-138893D01*
X-211116Y-138899D01*
X-211046Y-138886D01*
G37*
G36*
X-223919Y112525D02*
X-223919Y112525D01*
X-223885Y112533D01*
X-223837Y112534D01*
X-221085Y113073D01*
X-221053Y113087D01*
X-221006Y113096D01*
X-218380Y114081D01*
X-218351Y114099D01*
X-218306Y114116D01*
X-215878Y115520D01*
X-215852Y115543D01*
X-215810Y115567D01*
X-213646Y117351D01*
X-213625Y117378D01*
X-213587Y117409D01*
X-211747Y119525D01*
X-211730Y119555D01*
X-211698Y119591D01*
X-210231Y121982D01*
X-210219Y122014D01*
X-210194Y122055D01*
X-209140Y124654D01*
X-209134Y124688D01*
X-209116Y124733D01*
X-208504Y127470D01*
X-208503Y127505D01*
X-208493Y127552D01*
X-208340Y130352D01*
X-208345Y130386D01*
X-208343Y130434D01*
X-208653Y133222D01*
X-208663Y133255D01*
X-208669Y133303D01*
X-209434Y136001D01*
X-209450Y136031D01*
X-209463Y136078D01*
X-210661Y138613D01*
X-210679Y138637D01*
X-210689Y138664D01*
X-210738Y138716D01*
X-210780Y138773D01*
X-210805Y138787D01*
X-210825Y138809D01*
X-210891Y138837D01*
X-210952Y138873D01*
X-210981Y138876D01*
X-211008Y138888D01*
X-211079Y138889D01*
X-211149Y138898D01*
X-211177Y138890D01*
X-211207Y138890D01*
X-211299Y138856D01*
X-211341Y138844D01*
X-211350Y138837D01*
X-211362Y138832D01*
X-240762Y121832D01*
X-240784Y121813D01*
X-240811Y121800D01*
X-240858Y121747D01*
X-240911Y121700D01*
X-240924Y121674D01*
X-240943Y121652D01*
X-240966Y121585D01*
X-240997Y121521D01*
X-240998Y121492D01*
X-241008Y121464D01*
X-241003Y121393D01*
X-241006Y121322D01*
X-240995Y121295D01*
X-240993Y121266D01*
X-240951Y121176D01*
X-240936Y121136D01*
X-240929Y121128D01*
X-240923Y121115D01*
X-239323Y118812D01*
X-239298Y118788D01*
X-239271Y118748D01*
X-237314Y116739D01*
X-237285Y116720D01*
X-237251Y116685D01*
X-234991Y115026D01*
X-234959Y115011D01*
X-234920Y114982D01*
X-232417Y113718D01*
X-232384Y113709D01*
X-232341Y113687D01*
X-229664Y112851D01*
X-229629Y112848D01*
X-229583Y112833D01*
X-226805Y112450D01*
X-226770Y112452D01*
X-226723Y112446D01*
X-223919Y112525D01*
G37*
G36*
X-90448Y-138890D02*
X-90448Y-138890D01*
X-90418Y-138890D01*
X-90326Y-138856D01*
X-90284Y-138844D01*
X-90276Y-138837D01*
X-90263Y-138832D01*
X-60863Y-121832D01*
X-60841Y-121813D01*
X-60814Y-121800D01*
X-60767Y-121747D01*
X-60714Y-121700D01*
X-60701Y-121674D01*
X-60682Y-121652D01*
X-60659Y-121585D01*
X-60628Y-121521D01*
X-60627Y-121492D01*
X-60617Y-121464D01*
X-60622Y-121393D01*
X-60619Y-121322D01*
X-60630Y-121295D01*
X-60632Y-121266D01*
X-60674Y-121176D01*
X-60689Y-121136D01*
X-60697Y-121128D01*
X-60702Y-121115D01*
X-62302Y-118812D01*
X-62327Y-118788D01*
X-62354Y-118748D01*
X-64311Y-116739D01*
X-64340Y-116720D01*
X-64374Y-116685D01*
X-66634Y-115026D01*
X-66666Y-115011D01*
X-66705Y-114982D01*
X-69208Y-113718D01*
X-69241Y-113709D01*
X-69284Y-113687D01*
X-71961Y-112851D01*
X-71996Y-112848D01*
X-72042Y-112833D01*
X-74820Y-112450D01*
X-74855Y-112452D01*
X-74902Y-112446D01*
X-77706Y-112525D01*
X-77740Y-112533D01*
X-77788Y-112534D01*
X-80540Y-113073D01*
X-80572Y-113087D01*
X-80619Y-113096D01*
X-83245Y-114081D01*
X-83274Y-114099D01*
X-83319Y-114116D01*
X-85747Y-115520D01*
X-85773Y-115543D01*
X-85815Y-115567D01*
X-87979Y-117351D01*
X-88000Y-117378D01*
X-88038Y-117409D01*
X-89878Y-119525D01*
X-89895Y-119555D01*
X-89927Y-119591D01*
X-91394Y-121982D01*
X-91406Y-122014D01*
X-91431Y-122055D01*
X-92485Y-124654D01*
X-92491Y-124688D01*
X-92509Y-124733D01*
X-93121Y-127470D01*
X-93122Y-127505D01*
X-93132Y-127552D01*
X-93285Y-130352D01*
X-93280Y-130386D01*
X-93283Y-130434D01*
X-92972Y-133222D01*
X-92962Y-133255D01*
X-92956Y-133303D01*
X-92191Y-136001D01*
X-92176Y-136031D01*
X-92162Y-136078D01*
X-90964Y-138613D01*
X-90946Y-138637D01*
X-90936Y-138664D01*
X-90887Y-138716D01*
X-90845Y-138773D01*
X-90820Y-138787D01*
X-90800Y-138809D01*
X-90734Y-138837D01*
X-90673Y-138873D01*
X-90644Y-138876D01*
X-90617Y-138888D01*
X-90546Y-138889D01*
X-90476Y-138898D01*
X-90448Y-138890D01*
G37*
G36*
X-74868Y112452D02*
X-74868Y112452D01*
X-74820Y112450D01*
X-72042Y112833D01*
X-72009Y112845D01*
X-71961Y112851D01*
X-69284Y113687D01*
X-69254Y113704D01*
X-69208Y113718D01*
X-66705Y114982D01*
X-66677Y115004D01*
X-66634Y115026D01*
X-64374Y116685D01*
X-64350Y116711D01*
X-64311Y116739D01*
X-62354Y118748D01*
X-62336Y118777D01*
X-62302Y118812D01*
X-60702Y121115D01*
X-60691Y121142D01*
X-60672Y121165D01*
X-60652Y121233D01*
X-60624Y121298D01*
X-60624Y121327D01*
X-60615Y121355D01*
X-60623Y121426D01*
X-60623Y121497D01*
X-60634Y121524D01*
X-60637Y121553D01*
X-60672Y121615D01*
X-60699Y121680D01*
X-60720Y121701D01*
X-60734Y121726D01*
X-60811Y121789D01*
X-60841Y121819D01*
X-60852Y121823D01*
X-60863Y121832D01*
X-90263Y138832D01*
X-90290Y138841D01*
X-90314Y138858D01*
X-90384Y138873D01*
X-90451Y138895D01*
X-90480Y138893D01*
X-90509Y138899D01*
X-90579Y138886D01*
X-90649Y138880D01*
X-90675Y138867D01*
X-90704Y138861D01*
X-90763Y138821D01*
X-90826Y138789D01*
X-90845Y138766D01*
X-90869Y138750D01*
X-90926Y138668D01*
X-90953Y138635D01*
X-90956Y138625D01*
X-90964Y138613D01*
X-92162Y136078D01*
X-92171Y136044D01*
X-92191Y136001D01*
X-92956Y133303D01*
X-92959Y133268D01*
X-92972Y133222D01*
X-93283Y130434D01*
X-93280Y130407D01*
X-93281Y130402D01*
X-93280Y130397D01*
X-93285Y130352D01*
X-93132Y127552D01*
X-93123Y127518D01*
X-93121Y127470D01*
X-92509Y124733D01*
X-92495Y124701D01*
X-92485Y124654D01*
X-91431Y122055D01*
X-91412Y122026D01*
X-91394Y121982D01*
X-89927Y119591D01*
X-89903Y119566D01*
X-89878Y119525D01*
X-88038Y117409D01*
X-88010Y117388D01*
X-87979Y117351D01*
X-85815Y115567D01*
X-85784Y115551D01*
X-85747Y115520D01*
X-83319Y114116D01*
X-83287Y114105D01*
X-83245Y114081D01*
X-80619Y113096D01*
X-80585Y113090D01*
X-80540Y113073D01*
X-77788Y112534D01*
X-77753Y112534D01*
X-77706Y112525D01*
X-74902Y112446D01*
X-74868Y112452D01*
G37*
G36*
X-300804Y67064D02*
X-300804Y67064D01*
X-300791Y67063D01*
X-297734Y67310D01*
X-297702Y67319D01*
X-297655Y67323D01*
X-294678Y68056D01*
X-294647Y68071D01*
X-294602Y68082D01*
X-291781Y69284D01*
X-291753Y69303D01*
X-291710Y69321D01*
X-289118Y70960D01*
X-289094Y70983D01*
X-289054Y71008D01*
X-286759Y73041D01*
X-286739Y73068D01*
X-286703Y73099D01*
X-284764Y75474D01*
X-284748Y75504D01*
X-284719Y75540D01*
X-283185Y78196D01*
X-283175Y78228D01*
X-283151Y78268D01*
X-282064Y81135D01*
X-282058Y81169D01*
X-282041Y81213D01*
X-281428Y84217D01*
X-281428Y84251D01*
X-281418Y84297D01*
X-281295Y87360D01*
X-281300Y87394D01*
X-281298Y87440D01*
X-281668Y90484D01*
X-281678Y90517D01*
X-281684Y90563D01*
X-282537Y93508D01*
X-282553Y93538D01*
X-282565Y93583D01*
X-283880Y96353D01*
X-283897Y96377D01*
X-283907Y96404D01*
X-283956Y96456D01*
X-283999Y96513D01*
X-284024Y96527D01*
X-284044Y96548D01*
X-284109Y96577D01*
X-284171Y96612D01*
X-284200Y96616D01*
X-284226Y96628D01*
X-284298Y96628D01*
X-284368Y96637D01*
X-284396Y96629D01*
X-284425Y96630D01*
X-284519Y96595D01*
X-284560Y96583D01*
X-284568Y96576D01*
X-284581Y96571D01*
X-301058Y87032D01*
X-301116Y86981D01*
X-301178Y86936D01*
X-301190Y86916D01*
X-301207Y86900D01*
X-301240Y86831D01*
X-301279Y86765D01*
X-301284Y86739D01*
X-301293Y86721D01*
X-301295Y86676D01*
X-301307Y86601D01*
X-301330Y67561D01*
X-301324Y67533D01*
X-301327Y67504D01*
X-301305Y67436D01*
X-301291Y67366D01*
X-301274Y67342D01*
X-301265Y67315D01*
X-301219Y67261D01*
X-301178Y67202D01*
X-301154Y67187D01*
X-301135Y67165D01*
X-301071Y67133D01*
X-301011Y67095D01*
X-300982Y67090D01*
X-300956Y67077D01*
X-300857Y67069D01*
X-300815Y67062D01*
X-300804Y67064D01*
G37*
G36*
X-284265Y-96625D02*
X-284265Y-96625D01*
X-284194Y-96620D01*
X-284169Y-96606D01*
X-284140Y-96601D01*
X-284081Y-96561D01*
X-284018Y-96528D01*
X-283999Y-96506D01*
X-283975Y-96490D01*
X-283918Y-96408D01*
X-283891Y-96375D01*
X-283888Y-96365D01*
X-283880Y-96353D01*
X-282565Y-93583D01*
X-282557Y-93550D01*
X-282537Y-93508D01*
X-281684Y-90563D01*
X-281681Y-90529D01*
X-281668Y-90484D01*
X-281298Y-87440D01*
X-281301Y-87407D01*
X-281295Y-87360D01*
X-281418Y-84297D01*
X-281426Y-84264D01*
X-281428Y-84217D01*
X-282041Y-81213D01*
X-282055Y-81181D01*
X-282064Y-81135D01*
X-283151Y-78268D01*
X-283169Y-78240D01*
X-283185Y-78196D01*
X-284719Y-75540D01*
X-284741Y-75515D01*
X-284764Y-75474D01*
X-286703Y-73099D01*
X-286730Y-73078D01*
X-286759Y-73041D01*
X-289054Y-71008D01*
X-289083Y-70991D01*
X-289118Y-70960D01*
X-291710Y-69321D01*
X-291742Y-69309D01*
X-291781Y-69284D01*
X-294602Y-68082D01*
X-294635Y-68075D01*
X-294678Y-68056D01*
X-297655Y-67323D01*
X-297689Y-67321D01*
X-297734Y-67310D01*
X-300791Y-67063D01*
X-300819Y-67066D01*
X-300848Y-67062D01*
X-300917Y-67078D01*
X-300988Y-67087D01*
X-301013Y-67101D01*
X-301041Y-67108D01*
X-301099Y-67150D01*
X-301161Y-67186D01*
X-301178Y-67209D01*
X-301201Y-67226D01*
X-301238Y-67287D01*
X-301281Y-67344D01*
X-301288Y-67372D01*
X-301303Y-67397D01*
X-301319Y-67496D01*
X-301330Y-67537D01*
X-301328Y-67548D01*
X-301330Y-67561D01*
X-301307Y-86601D01*
X-301292Y-86676D01*
X-301284Y-86752D01*
X-301272Y-86773D01*
X-301268Y-86795D01*
X-301224Y-86859D01*
X-301186Y-86926D01*
X-301166Y-86942D01*
X-301155Y-86959D01*
X-301117Y-86983D01*
X-301058Y-87032D01*
X-284581Y-96571D01*
X-284554Y-96581D01*
X-284530Y-96597D01*
X-284460Y-96612D01*
X-284393Y-96635D01*
X-284364Y-96633D01*
X-284335Y-96639D01*
X-284265Y-96625D01*
G37*
G36*
X149204Y-173690D02*
X149204Y-173690D01*
X149281Y-173691D01*
X149305Y-173681D01*
X149325Y-173680D01*
X149365Y-173659D01*
X149437Y-173633D01*
X165937Y-164133D01*
X165958Y-164114D01*
X165985Y-164101D01*
X166019Y-164063D01*
X166022Y-164061D01*
X166024Y-164057D01*
X166032Y-164048D01*
X166086Y-164001D01*
X166098Y-163975D01*
X166118Y-163954D01*
X166141Y-163886D01*
X166172Y-163822D01*
X166173Y-163793D01*
X166182Y-163766D01*
X166178Y-163694D01*
X166181Y-163623D01*
X166171Y-163596D01*
X166169Y-163567D01*
X166126Y-163477D01*
X166112Y-163437D01*
X166104Y-163429D01*
X166098Y-163416D01*
X164357Y-160893D01*
X164332Y-160869D01*
X164306Y-160831D01*
X162182Y-158619D01*
X162154Y-158600D01*
X162122Y-158566D01*
X159670Y-156724D01*
X159640Y-156710D01*
X159602Y-156681D01*
X156887Y-155256D01*
X156855Y-155247D01*
X156814Y-155225D01*
X153905Y-154254D01*
X153879Y-154251D01*
X153870Y-154249D01*
X153827Y-154235D01*
X150801Y-153743D01*
X150767Y-153744D01*
X150721Y-153736D01*
X147654Y-153736D01*
X147621Y-153743D01*
X147574Y-153743D01*
X144548Y-154235D01*
X144516Y-154247D01*
X144470Y-154254D01*
X141561Y-155225D01*
X141532Y-155242D01*
X141488Y-155256D01*
X138773Y-156681D01*
X138746Y-156703D01*
X138705Y-156724D01*
X136253Y-158566D01*
X136231Y-158591D01*
X136193Y-158619D01*
X134069Y-160831D01*
X134051Y-160859D01*
X134018Y-160893D01*
X132277Y-163416D01*
X132265Y-163443D01*
X132247Y-163465D01*
X132227Y-163534D01*
X132199Y-163599D01*
X132198Y-163628D01*
X132190Y-163656D01*
X132198Y-163727D01*
X132198Y-163798D01*
X132209Y-163825D01*
X132212Y-163854D01*
X132248Y-163916D01*
X132275Y-163981D01*
X132296Y-164002D01*
X132310Y-164027D01*
X132373Y-164079D01*
X132377Y-164084D01*
X132387Y-164090D01*
X132418Y-164120D01*
X132428Y-164124D01*
X132438Y-164133D01*
X148938Y-173633D01*
X149011Y-173657D01*
X149082Y-173688D01*
X149105Y-173688D01*
X149127Y-173696D01*
X149204Y-173690D01*
G37*
G36*
X-150796Y-173690D02*
X-150796Y-173690D01*
X-150719Y-173691D01*
X-150695Y-173681D01*
X-150675Y-173680D01*
X-150635Y-173659D01*
X-150563Y-173633D01*
X-134063Y-164133D01*
X-134042Y-164114D01*
X-134015Y-164101D01*
X-133981Y-164063D01*
X-133978Y-164061D01*
X-133976Y-164057D01*
X-133968Y-164048D01*
X-133914Y-164001D01*
X-133902Y-163975D01*
X-133882Y-163954D01*
X-133859Y-163886D01*
X-133828Y-163822D01*
X-133827Y-163793D01*
X-133818Y-163766D01*
X-133822Y-163694D01*
X-133819Y-163623D01*
X-133829Y-163596D01*
X-133831Y-163567D01*
X-133874Y-163477D01*
X-133888Y-163437D01*
X-133896Y-163429D01*
X-133902Y-163416D01*
X-135643Y-160893D01*
X-135668Y-160869D01*
X-135694Y-160831D01*
X-137818Y-158619D01*
X-137846Y-158600D01*
X-137878Y-158566D01*
X-140330Y-156724D01*
X-140360Y-156710D01*
X-140398Y-156681D01*
X-143113Y-155256D01*
X-143145Y-155247D01*
X-143186Y-155225D01*
X-146095Y-154254D01*
X-146121Y-154251D01*
X-146131Y-154249D01*
X-146173Y-154235D01*
X-149199Y-153743D01*
X-149233Y-153744D01*
X-149279Y-153736D01*
X-152346Y-153736D01*
X-152379Y-153743D01*
X-152426Y-153743D01*
X-155452Y-154235D01*
X-155484Y-154247D01*
X-155530Y-154254D01*
X-158439Y-155225D01*
X-158468Y-155242D01*
X-158512Y-155256D01*
X-161227Y-156681D01*
X-161254Y-156703D01*
X-161295Y-156724D01*
X-163747Y-158566D01*
X-163769Y-158591D01*
X-163807Y-158619D01*
X-165931Y-160831D01*
X-165949Y-160859D01*
X-165982Y-160893D01*
X-167723Y-163416D01*
X-167735Y-163443D01*
X-167753Y-163465D01*
X-167774Y-163534D01*
X-167801Y-163599D01*
X-167802Y-163628D01*
X-167810Y-163656D01*
X-167802Y-163727D01*
X-167802Y-163798D01*
X-167791Y-163825D01*
X-167788Y-163854D01*
X-167753Y-163916D01*
X-167725Y-163981D01*
X-167704Y-164002D01*
X-167690Y-164027D01*
X-167627Y-164079D01*
X-167623Y-164084D01*
X-167613Y-164090D01*
X-167582Y-164120D01*
X-167572Y-164124D01*
X-167562Y-164133D01*
X-151062Y-173633D01*
X-150989Y-173657D01*
X-150918Y-173688D01*
X-150895Y-173688D01*
X-150873Y-173696D01*
X-150796Y-173690D01*
G37*
G36*
X150754Y153743D02*
X150754Y153743D01*
X150801Y153743D01*
X153827Y154235D01*
X153859Y154247D01*
X153905Y154254D01*
X156814Y155225D01*
X156843Y155242D01*
X156887Y155256D01*
X159602Y156681D01*
X159629Y156703D01*
X159670Y156724D01*
X162122Y158566D01*
X162144Y158591D01*
X162182Y158619D01*
X164306Y160831D01*
X164324Y160859D01*
X164357Y160893D01*
X166098Y163416D01*
X166110Y163443D01*
X166128Y163465D01*
X166149Y163534D01*
X166176Y163599D01*
X166177Y163628D01*
X166185Y163656D01*
X166177Y163727D01*
X166177Y163798D01*
X166166Y163825D01*
X166163Y163854D01*
X166128Y163916D01*
X166100Y163981D01*
X166079Y164002D01*
X166065Y164027D01*
X165988Y164090D01*
X165957Y164120D01*
X165947Y164124D01*
X165937Y164133D01*
X149437Y173633D01*
X149364Y173657D01*
X149293Y173688D01*
X149270Y173688D01*
X149248Y173696D01*
X149171Y173690D01*
X149094Y173691D01*
X149070Y173681D01*
X149050Y173680D01*
X149010Y173659D01*
X148938Y173633D01*
X132438Y164133D01*
X132417Y164114D01*
X132390Y164101D01*
X132343Y164048D01*
X132289Y164001D01*
X132277Y163975D01*
X132257Y163954D01*
X132234Y163886D01*
X132203Y163822D01*
X132202Y163793D01*
X132193Y163766D01*
X132197Y163694D01*
X132194Y163623D01*
X132204Y163596D01*
X132206Y163567D01*
X132249Y163477D01*
X132263Y163437D01*
X132271Y163429D01*
X132277Y163416D01*
X134018Y160893D01*
X134043Y160869D01*
X134069Y160831D01*
X136193Y158619D01*
X136221Y158600D01*
X136253Y158566D01*
X138705Y156724D01*
X138735Y156710D01*
X138773Y156681D01*
X141488Y155256D01*
X141520Y155247D01*
X141561Y155225D01*
X144470Y154254D01*
X144504Y154250D01*
X144548Y154235D01*
X147574Y153743D01*
X147608Y153744D01*
X147654Y153736D01*
X150721Y153736D01*
X150754Y153743D01*
G37*
G36*
X-149246Y153743D02*
X-149246Y153743D01*
X-149199Y153743D01*
X-146173Y154235D01*
X-146141Y154247D01*
X-146095Y154254D01*
X-143186Y155225D01*
X-143157Y155242D01*
X-143113Y155256D01*
X-140398Y156681D01*
X-140371Y156703D01*
X-140330Y156724D01*
X-137878Y158566D01*
X-137856Y158591D01*
X-137818Y158619D01*
X-135694Y160831D01*
X-135676Y160859D01*
X-135643Y160893D01*
X-133902Y163416D01*
X-133890Y163443D01*
X-133872Y163465D01*
X-133852Y163534D01*
X-133824Y163599D01*
X-133823Y163628D01*
X-133815Y163656D01*
X-133823Y163727D01*
X-133823Y163798D01*
X-133834Y163825D01*
X-133837Y163854D01*
X-133873Y163916D01*
X-133900Y163981D01*
X-133921Y164002D01*
X-133935Y164027D01*
X-134012Y164090D01*
X-134043Y164120D01*
X-134053Y164124D01*
X-134063Y164133D01*
X-150563Y173633D01*
X-150636Y173657D01*
X-150707Y173688D01*
X-150730Y173688D01*
X-150752Y173696D01*
X-150829Y173690D01*
X-150906Y173691D01*
X-150930Y173681D01*
X-150950Y173680D01*
X-150990Y173659D01*
X-151062Y173633D01*
X-167562Y164133D01*
X-167583Y164114D01*
X-167610Y164101D01*
X-167657Y164048D01*
X-167711Y164001D01*
X-167723Y163975D01*
X-167743Y163954D01*
X-167766Y163886D01*
X-167797Y163822D01*
X-167798Y163793D01*
X-167807Y163766D01*
X-167803Y163694D01*
X-167806Y163623D01*
X-167796Y163596D01*
X-167794Y163567D01*
X-167751Y163477D01*
X-167737Y163437D01*
X-167729Y163429D01*
X-167723Y163416D01*
X-165982Y160893D01*
X-165957Y160869D01*
X-165931Y160831D01*
X-163807Y158619D01*
X-163779Y158600D01*
X-163747Y158566D01*
X-161295Y156724D01*
X-161265Y156710D01*
X-161227Y156681D01*
X-158512Y155256D01*
X-158480Y155247D01*
X-158439Y155225D01*
X-155530Y154254D01*
X-155496Y154250D01*
X-155452Y154235D01*
X-152426Y153743D01*
X-152392Y153744D01*
X-152346Y153736D01*
X-149279Y153736D01*
X-149246Y153743D01*
G37*
G36*
X299274Y67118D02*
X299274Y67118D01*
X299345Y67126D01*
X299370Y67141D01*
X299397Y67147D01*
X299455Y67190D01*
X299518Y67226D01*
X299535Y67248D01*
X299558Y67265D01*
X299594Y67327D01*
X299638Y67384D01*
X299645Y67412D01*
X299659Y67436D01*
X299676Y67536D01*
X299686Y67577D01*
X299685Y67587D01*
X299687Y67600D01*
X299687Y86600D01*
X299671Y86676D01*
X299663Y86754D01*
X299652Y86773D01*
X299647Y86795D01*
X299603Y86859D01*
X299565Y86927D01*
X299546Y86943D01*
X299535Y86959D01*
X299497Y86983D01*
X299437Y87033D01*
X282937Y96533D01*
X282909Y96542D01*
X282886Y96558D01*
X282816Y96573D01*
X282748Y96596D01*
X282720Y96593D01*
X282691Y96599D01*
X282621Y96586D01*
X282550Y96580D01*
X282524Y96567D01*
X282496Y96561D01*
X282437Y96521D01*
X282373Y96488D01*
X282355Y96466D01*
X282331Y96450D01*
X282274Y96367D01*
X282247Y96335D01*
X282244Y96324D01*
X282236Y96314D01*
X280928Y93548D01*
X280920Y93515D01*
X280899Y93472D01*
X280052Y90532D01*
X280049Y90498D01*
X280036Y90454D01*
X279670Y87416D01*
X279673Y87382D01*
X279667Y87335D01*
X279794Y84278D01*
X279802Y84245D01*
X279804Y84198D01*
X280420Y81201D01*
X280433Y81170D01*
X280442Y81124D01*
X281530Y78264D01*
X281549Y78236D01*
X281565Y78192D01*
X283098Y75544D01*
X283121Y75518D01*
X283144Y75478D01*
X285082Y73110D01*
X285108Y73088D01*
X285138Y73052D01*
X287430Y71025D01*
X287460Y71009D01*
X287495Y70977D01*
X290083Y69345D01*
X290115Y69333D01*
X290154Y69308D01*
X292970Y68112D01*
X293004Y68105D01*
X293047Y68086D01*
X296018Y67358D01*
X296052Y67356D01*
X296098Y67345D01*
X299148Y67102D01*
X299176Y67106D01*
X299204Y67101D01*
X299274Y67118D01*
G37*
G36*
X282752Y-96590D02*
X282752Y-96590D01*
X282781Y-96591D01*
X282875Y-96555D01*
X282916Y-96544D01*
X282924Y-96537D01*
X282937Y-96533D01*
X299437Y-87033D01*
X299495Y-86981D01*
X299558Y-86935D01*
X299569Y-86916D01*
X299586Y-86901D01*
X299619Y-86831D01*
X299659Y-86764D01*
X299663Y-86740D01*
X299672Y-86722D01*
X299674Y-86677D01*
X299687Y-86600D01*
X299687Y-67600D01*
X299681Y-67572D01*
X299684Y-67544D01*
X299661Y-67476D01*
X299647Y-67405D01*
X299631Y-67382D01*
X299622Y-67355D01*
X299575Y-67300D01*
X299535Y-67241D01*
X299511Y-67226D01*
X299492Y-67205D01*
X299428Y-67173D01*
X299367Y-67134D01*
X299339Y-67129D01*
X299314Y-67117D01*
X299212Y-67108D01*
X299171Y-67101D01*
X299161Y-67103D01*
X299148Y-67102D01*
X296098Y-67345D01*
X296065Y-67354D01*
X296018Y-67358D01*
X293047Y-68086D01*
X293016Y-68101D01*
X292970Y-68112D01*
X292806Y-68182D01*
X291630Y-68681D01*
X290454Y-69180D01*
X290154Y-69308D01*
X290126Y-69327D01*
X290083Y-69345D01*
X287495Y-70977D01*
X287470Y-71001D01*
X287430Y-71025D01*
X285138Y-73052D01*
X285117Y-73079D01*
X285082Y-73110D01*
X283144Y-75478D01*
X283128Y-75508D01*
X283098Y-75544D01*
X281565Y-78192D01*
X281554Y-78224D01*
X281530Y-78264D01*
X280442Y-81124D01*
X280436Y-81157D01*
X280420Y-81201D01*
X279804Y-84198D01*
X279804Y-84232D01*
X279794Y-84278D01*
X279667Y-87335D01*
X279673Y-87369D01*
X279670Y-87416D01*
X280036Y-90454D01*
X280046Y-90486D01*
X280052Y-90532D01*
X280899Y-93472D01*
X280915Y-93502D01*
X280928Y-93548D01*
X282236Y-96314D01*
X282253Y-96336D01*
X282263Y-96363D01*
X282312Y-96415D01*
X282355Y-96473D01*
X282380Y-96487D01*
X282400Y-96508D01*
X282465Y-96537D01*
X282527Y-96573D01*
X282556Y-96576D01*
X282582Y-96588D01*
X282654Y-96589D01*
X282724Y-96598D01*
X282752Y-96590D01*
G37*
G36*
X68042Y57977D02*
X68042Y57977D01*
X68044Y57976D01*
X68087Y57996D01*
X68131Y58015D01*
X68132Y58017D01*
X68134Y58018D01*
X68167Y58103D01*
X68167Y62675D01*
X68152Y62708D01*
X68145Y62744D01*
X68134Y62752D01*
X68128Y62765D01*
X68094Y62778D01*
X68063Y62799D01*
X68049Y62796D01*
X68036Y62801D01*
X68010Y62789D01*
X67974Y62782D01*
X62706Y59521D01*
X57439Y62782D01*
X57403Y62787D01*
X57368Y62801D01*
X57355Y62795D01*
X57341Y62797D01*
X57312Y62775D01*
X57279Y62759D01*
X57273Y62746D01*
X57263Y62738D01*
X57259Y62709D01*
X57246Y62675D01*
X57246Y58103D01*
X57247Y58101D01*
X57246Y58098D01*
X57266Y58055D01*
X57284Y58012D01*
X57286Y58011D01*
X57287Y58009D01*
X57372Y57976D01*
X68040Y57976D01*
X68042Y57977D01*
G37*
G36*
X147432Y49918D02*
X147432Y49918D01*
X147446Y49916D01*
X147475Y49938D01*
X147509Y49953D01*
X147514Y49967D01*
X147525Y49975D01*
X147528Y50003D01*
X147542Y50038D01*
X147542Y54610D01*
X147541Y54612D01*
X147541Y54614D01*
X147522Y54657D01*
X147503Y54701D01*
X147501Y54701D01*
X147500Y54703D01*
X147415Y54736D01*
X136747Y54736D01*
X136745Y54735D01*
X136743Y54736D01*
X136700Y54716D01*
X136657Y54698D01*
X136656Y54696D01*
X136654Y54695D01*
X136621Y54610D01*
X136621Y50038D01*
X136635Y50004D01*
X136642Y49968D01*
X136654Y49960D01*
X136659Y49947D01*
X136694Y49934D01*
X136724Y49914D01*
X136739Y49917D01*
X136751Y49912D01*
X136777Y49924D01*
X136814Y49931D01*
X142081Y53192D01*
X147349Y49931D01*
X147385Y49925D01*
X147419Y49912D01*
X147432Y49918D01*
G37*
G36*
X62712Y61793D02*
X62712Y61793D01*
X62733Y61789D01*
X62751Y61802D01*
X62776Y61807D01*
X68110Y65363D01*
X68118Y65375D01*
X68131Y65381D01*
X68144Y65415D01*
X68164Y65446D01*
X68161Y65459D01*
X68166Y65473D01*
X68151Y65506D01*
X68143Y65542D01*
X68131Y65549D01*
X68125Y65562D01*
X68085Y65578D01*
X68059Y65593D01*
X68049Y65591D01*
X68040Y65595D01*
X57372Y65595D01*
X57359Y65589D01*
X57346Y65592D01*
X57316Y65571D01*
X57282Y65556D01*
X57277Y65543D01*
X57265Y65535D01*
X57259Y65499D01*
X57246Y65464D01*
X57252Y65452D01*
X57250Y65438D01*
X57275Y65403D01*
X57287Y65375D01*
X57297Y65372D01*
X57302Y65363D01*
X62636Y61807D01*
X62664Y61802D01*
X62687Y61788D01*
X62712Y61793D01*
G37*
G36*
X147428Y47123D02*
X147428Y47123D01*
X147442Y47121D01*
X147472Y47142D01*
X147506Y47156D01*
X147511Y47169D01*
X147522Y47177D01*
X147528Y47214D01*
X147541Y47248D01*
X147536Y47261D01*
X147538Y47275D01*
X147513Y47310D01*
X147500Y47337D01*
X147491Y47341D01*
X147485Y47349D01*
X142151Y50905D01*
X142124Y50910D01*
X142100Y50925D01*
X142076Y50919D01*
X142055Y50923D01*
X142036Y50911D01*
X142011Y50905D01*
X136677Y47349D01*
X136670Y47337D01*
X136657Y47332D01*
X136643Y47298D01*
X136623Y47267D01*
X136626Y47253D01*
X136621Y47240D01*
X136637Y47207D01*
X136645Y47171D01*
X136656Y47163D01*
X136662Y47151D01*
X136703Y47135D01*
X136728Y47119D01*
X136738Y47121D01*
X136747Y47118D01*
X147415Y47118D01*
X147428Y47123D01*
G37*
D10*
X-138113Y71000D03*
X-138113Y56000D03*
D11*
X-150813Y165200D03*
X-93Y77520D03*
X-93Y-77520D03*
X-150813Y-165200D03*
X-222313Y123900D03*
X-79313Y123900D03*
X-79313Y-123900D03*
X-222313Y-123900D03*
X149188Y165200D03*
X292288Y82600D03*
X292288Y-82600D03*
X149188Y-165200D03*
X-293880Y82600D03*
X-293880Y-82600D03*
X-293913Y0D03*
D12*
X-200819Y-23813D03*
D13*
X-87544Y-56356D03*
X-104544Y-56356D03*
X-147638Y-40713D03*
X-147638Y-57713D03*
X-87544Y-41275D03*
X-104544Y-41275D03*
D14*
X-201613Y52388D03*
X-201613Y26988D03*
X-201613Y1588D03*
D15*
X76106Y21900D03*
X76106Y-3100D03*
X76106Y-28100D03*
X100106Y21900D03*
X100106Y-3100D03*
X100106Y-28100D03*
D14*
X176809Y-115530D03*
X198806Y-102830D03*
X220803Y-90130D03*
D10*
X109894Y85725D03*
X94894Y85725D03*
D14*
X214093Y114684D03*
X192052Y127307D03*
D16*
X-120650Y-60213D03*
X-120650Y-38213D03*
D17*
X151638Y-7500D03*
D18*
X265638Y-37000D03*
X285638Y37000D03*
D19*
X191638Y37000D03*
D20*
X274638Y0D03*
X204638Y0D03*
D21*
G36*
X202043Y-129633D02*
X188091Y-137689D01*
X180035Y-123737D01*
X193987Y-115681D01*
X202043Y-129633D01*
G37*
D22*
X208360Y-116685D03*
X225680Y-106685D03*
D23*
X142081Y42300D03*
X142081Y59300D03*
X62706Y70413D03*
X62706Y53413D03*
M02*
