G04 EAGLE Gerber RS-274X export*
G75*
%MOMM*%
%FSLAX34Y34*%
%LPD*%
%INTop Copper*%
%IPPOS*%
%AMOC8*
5,1,8,0,0,1.08239X$1,22.5*%
G01*
%ADD10R,0.800000X0.800000*%
%ADD11C,1.000000*%
%ADD12P,1.649562X8X22.500000*%
%ADD13R,1.100000X1.000000*%
%ADD14C,1.524000*%
%ADD15R,2.200000X2.800000*%
%ADD16R,2.600000X2.800000*%
%ADD17R,2.800000X2.800000*%
%ADD18R,1.600000X1.000000*%
%ADD19C,0.756400*%
%ADD20C,0.406400*%
%ADD21C,0.609600*%
%ADD22C,1.016000*%
%ADD23C,0.812800*%
%ADD24C,0.304800*%
%ADD25C,0.254000*%

G36*
X449241Y29511D02*
X449241Y29511D01*
X449318Y29510D01*
X449342Y29519D01*
X449363Y29520D01*
X449402Y29541D01*
X449474Y29567D01*
X465974Y39067D01*
X465996Y39086D01*
X466022Y39099D01*
X466056Y39137D01*
X466059Y39139D01*
X466062Y39143D01*
X466070Y39152D01*
X466123Y39199D01*
X466136Y39225D01*
X466155Y39247D01*
X466178Y39314D01*
X466209Y39378D01*
X466211Y39407D01*
X466220Y39434D01*
X466215Y39506D01*
X466218Y39577D01*
X466208Y39604D01*
X466206Y39633D01*
X466164Y39723D01*
X466149Y39763D01*
X466142Y39771D01*
X466136Y39784D01*
X465006Y41421D01*
X581442Y108644D01*
X582274Y106887D01*
X582291Y106864D01*
X582301Y106837D01*
X582350Y106785D01*
X582393Y106727D01*
X582418Y106713D01*
X582437Y106692D01*
X582503Y106663D01*
X582565Y106627D01*
X582593Y106624D01*
X582619Y106612D01*
X582691Y106611D01*
X582762Y106602D01*
X582789Y106610D01*
X582818Y106610D01*
X582913Y106645D01*
X582953Y106656D01*
X582962Y106663D01*
X582974Y106667D01*
X599474Y116167D01*
X599533Y116219D01*
X599595Y116265D01*
X599606Y116284D01*
X599623Y116299D01*
X599657Y116369D01*
X599697Y116436D01*
X599701Y116461D01*
X599709Y116478D01*
X599711Y116523D01*
X599724Y116600D01*
X599724Y135600D01*
X599719Y135628D01*
X599721Y135656D01*
X599699Y135724D01*
X599685Y135795D01*
X599669Y135818D01*
X599660Y135845D01*
X599613Y135900D01*
X599572Y135959D01*
X599548Y135974D01*
X599530Y135996D01*
X599465Y136027D01*
X599405Y136066D01*
X599377Y136071D01*
X599351Y136083D01*
X599250Y136092D01*
X599208Y136099D01*
X599198Y136097D01*
X599185Y136098D01*
X597224Y135942D01*
X597224Y270458D01*
X599185Y270302D01*
X599214Y270306D01*
X599242Y270301D01*
X599311Y270318D01*
X599383Y270326D01*
X599407Y270341D01*
X599435Y270347D01*
X599493Y270390D01*
X599555Y270426D01*
X599572Y270448D01*
X599595Y270465D01*
X599632Y270527D01*
X599675Y270584D01*
X599682Y270612D01*
X599697Y270636D01*
X599713Y270736D01*
X599724Y270777D01*
X599722Y270787D01*
X599724Y270800D01*
X599724Y289800D01*
X599709Y289876D01*
X599700Y289954D01*
X599689Y289973D01*
X599685Y289995D01*
X599641Y290059D01*
X599602Y290127D01*
X599583Y290143D01*
X599572Y290159D01*
X599534Y290183D01*
X599474Y290233D01*
X582974Y299733D01*
X582947Y299742D01*
X582923Y299758D01*
X582853Y299773D01*
X582785Y299796D01*
X582757Y299793D01*
X582729Y299799D01*
X582659Y299786D01*
X582587Y299780D01*
X582562Y299767D01*
X582534Y299761D01*
X582474Y299721D01*
X582411Y299688D01*
X582393Y299666D01*
X582369Y299650D01*
X582311Y299567D01*
X582284Y299535D01*
X582281Y299524D01*
X582274Y299514D01*
X581442Y297756D01*
X465006Y364979D01*
X466136Y366616D01*
X466147Y366643D01*
X466166Y366665D01*
X466186Y366734D01*
X466214Y366799D01*
X466214Y366828D01*
X466222Y366856D01*
X466214Y366927D01*
X466215Y366998D01*
X466203Y367025D01*
X466200Y367054D01*
X466165Y367116D01*
X466137Y367181D01*
X466117Y367202D01*
X466102Y367227D01*
X466025Y367290D01*
X465995Y367320D01*
X465985Y367324D01*
X465974Y367333D01*
X449474Y376833D01*
X449401Y376857D01*
X449331Y376888D01*
X449307Y376888D01*
X449285Y376896D01*
X449209Y376890D01*
X449132Y376891D01*
X449108Y376881D01*
X449087Y376880D01*
X449048Y376859D01*
X448976Y376833D01*
X432476Y367333D01*
X432454Y367314D01*
X432428Y367301D01*
X432380Y367248D01*
X432327Y367201D01*
X432314Y367175D01*
X432295Y367154D01*
X432272Y367086D01*
X432241Y367022D01*
X432240Y366993D01*
X432230Y366966D01*
X432235Y366894D01*
X432232Y366823D01*
X432242Y366796D01*
X432244Y366767D01*
X432286Y366677D01*
X432301Y366637D01*
X432308Y366629D01*
X432314Y366616D01*
X433444Y364979D01*
X317004Y297754D01*
X316177Y299513D01*
X316159Y299536D01*
X316149Y299563D01*
X316100Y299615D01*
X316058Y299672D01*
X316033Y299687D01*
X316013Y299708D01*
X315948Y299737D01*
X315886Y299772D01*
X315857Y299776D01*
X315831Y299788D01*
X315760Y299789D01*
X315689Y299798D01*
X315661Y299790D01*
X315632Y299791D01*
X315539Y299756D01*
X315498Y299744D01*
X315489Y299737D01*
X315476Y299733D01*
X299225Y290376D01*
X282974Y299733D01*
X282947Y299742D01*
X282923Y299759D01*
X282853Y299773D01*
X282785Y299796D01*
X282756Y299793D01*
X282728Y299799D01*
X282658Y299785D01*
X282587Y299780D01*
X282561Y299766D01*
X282533Y299761D01*
X282474Y299721D01*
X282411Y299688D01*
X282392Y299666D01*
X282368Y299649D01*
X282311Y299567D01*
X282284Y299535D01*
X282281Y299524D01*
X282273Y299513D01*
X281446Y297754D01*
X249960Y315932D01*
X249785Y316011D01*
X249609Y316092D01*
X249601Y316094D01*
X249593Y316098D01*
X249404Y316141D01*
X249217Y316186D01*
X249209Y316186D01*
X249201Y316188D01*
X249007Y316193D01*
X248815Y316200D01*
X248807Y316199D01*
X248798Y316199D01*
X248609Y316166D01*
X248417Y316135D01*
X248410Y316132D01*
X248402Y316130D01*
X248223Y316061D01*
X248041Y315992D01*
X248034Y315988D01*
X248026Y315985D01*
X247864Y315881D01*
X247700Y315778D01*
X247693Y315772D01*
X247687Y315768D01*
X247651Y315733D01*
X247455Y315554D01*
X247043Y315109D01*
X247002Y315055D01*
X246854Y314872D01*
X246481Y314325D01*
X246409Y314279D01*
X246298Y314221D01*
X246238Y314173D01*
X246173Y314132D01*
X246053Y314022D01*
X245985Y313967D01*
X245963Y313939D01*
X245929Y313908D01*
X244998Y312904D01*
X244952Y312844D01*
X244899Y312789D01*
X244831Y312683D01*
X244755Y312584D01*
X244722Y312515D01*
X244680Y312450D01*
X244635Y312334D01*
X244632Y312329D01*
X244107Y311910D01*
X244059Y311863D01*
X243884Y311703D01*
X243434Y311217D01*
X243356Y311183D01*
X243237Y311142D01*
X243171Y311103D01*
X243101Y311073D01*
X242966Y310981D01*
X242891Y310937D01*
X242864Y310913D01*
X242826Y310887D01*
X241756Y310034D01*
X241702Y309980D01*
X241641Y309934D01*
X241558Y309840D01*
X241468Y309753D01*
X241425Y309690D01*
X241374Y309632D01*
X241312Y309524D01*
X241308Y309519D01*
X240726Y309183D01*
X240672Y309144D01*
X240476Y309012D01*
X239958Y308599D01*
X239875Y308577D01*
X239752Y308554D01*
X239681Y308525D01*
X239607Y308505D01*
X239460Y308435D01*
X239379Y308403D01*
X239349Y308383D01*
X239308Y308363D01*
X238123Y307679D01*
X238061Y307634D01*
X237993Y307597D01*
X237898Y307517D01*
X237796Y307444D01*
X237744Y307388D01*
X237685Y307338D01*
X237607Y307241D01*
X237603Y307237D01*
X236977Y306991D01*
X236918Y306960D01*
X236704Y306859D01*
X236131Y306528D01*
X236046Y306518D01*
X235920Y306514D01*
X235846Y306496D01*
X235770Y306487D01*
X235614Y306440D01*
X235529Y306420D01*
X235496Y306405D01*
X235452Y306392D01*
X234179Y305891D01*
X234111Y305856D01*
X234039Y305830D01*
X233932Y305765D01*
X233820Y305708D01*
X233760Y305660D01*
X233695Y305620D01*
X233603Y305535D01*
X233599Y305531D01*
X232944Y305382D01*
X232879Y305360D01*
X232654Y305292D01*
X232037Y305050D01*
X231952Y305053D01*
X231827Y305067D01*
X231751Y305061D01*
X231675Y305064D01*
X231513Y305041D01*
X231426Y305033D01*
X231392Y305023D01*
X231346Y305017D01*
X230012Y304712D01*
X229940Y304687D01*
X229865Y304672D01*
X229749Y304623D01*
X229631Y304583D01*
X229564Y304545D01*
X229494Y304515D01*
X229390Y304445D01*
X229385Y304442D01*
X228715Y304392D01*
X228648Y304380D01*
X228415Y304346D01*
X227769Y304199D01*
X227686Y304215D01*
X227564Y304247D01*
X227488Y304252D01*
X227413Y304267D01*
X227249Y304268D01*
X227163Y304273D01*
X227127Y304269D01*
X227081Y304269D01*
X225717Y304166D01*
X225641Y304153D01*
X225565Y304149D01*
X225443Y304118D01*
X225320Y304096D01*
X225249Y304068D01*
X225175Y304049D01*
X225062Y303995D01*
X225057Y303993D01*
X224386Y304043D01*
X224319Y304042D01*
X224082Y304043D01*
X223422Y303993D01*
X223342Y304022D01*
X223227Y304072D01*
X223152Y304088D01*
X223080Y304114D01*
X222919Y304139D01*
X222833Y304157D01*
X222798Y304158D01*
X222752Y304165D01*
X221387Y304267D01*
X221311Y304265D01*
X221235Y304273D01*
X221110Y304260D01*
X220985Y304257D01*
X220910Y304240D01*
X220834Y304232D01*
X220714Y304196D01*
X220709Y304194D01*
X220054Y304344D01*
X219987Y304352D01*
X219753Y304389D01*
X219093Y304438D01*
X219018Y304478D01*
X218912Y304545D01*
X218840Y304572D01*
X218772Y304608D01*
X218617Y304657D01*
X218535Y304688D01*
X218500Y304694D01*
X218456Y304708D01*
X217122Y305012D01*
X217046Y305022D01*
X216972Y305040D01*
X216847Y305046D01*
X216722Y305062D01*
X216646Y305056D01*
X216570Y305060D01*
X216446Y305042D01*
X216440Y305041D01*
X215814Y305287D01*
X215750Y305305D01*
X215524Y305376D01*
X214879Y305523D01*
X214810Y305574D01*
X214715Y305656D01*
X214648Y305693D01*
X214587Y305739D01*
X214440Y305811D01*
X214364Y305854D01*
X214330Y305865D01*
X214289Y305885D01*
X214037Y305984D01*
X213854Y306035D01*
X213670Y306089D01*
X213660Y306090D01*
X213650Y306093D01*
X213459Y306107D01*
X213269Y306124D01*
X213258Y306122D01*
X213248Y306123D01*
X213059Y306100D01*
X212869Y306078D01*
X212859Y306075D01*
X212848Y306074D01*
X212667Y306014D01*
X212485Y305955D01*
X212476Y305950D01*
X212466Y305947D01*
X212301Y305852D01*
X212134Y305759D01*
X212126Y305752D01*
X212117Y305747D01*
X211975Y305623D01*
X211828Y305497D01*
X211822Y305489D01*
X211814Y305482D01*
X211698Y305331D01*
X211580Y305180D01*
X211575Y305171D01*
X211569Y305162D01*
X211485Y304992D01*
X211399Y304820D01*
X211396Y304810D01*
X211392Y304801D01*
X211343Y304616D01*
X211293Y304432D01*
X211292Y304422D01*
X211289Y304412D01*
X211278Y304221D01*
X211265Y304030D01*
X211267Y304020D01*
X211266Y304010D01*
X211292Y303822D01*
X211317Y303631D01*
X211321Y303620D01*
X211322Y303611D01*
X211341Y303558D01*
X211419Y303315D01*
X211682Y302681D01*
X211682Y300569D01*
X210874Y298619D01*
X209381Y297126D01*
X207431Y296318D01*
X205319Y296318D01*
X203921Y296898D01*
X203891Y296907D01*
X203863Y296921D01*
X203698Y296965D01*
X203535Y297014D01*
X203504Y297017D01*
X203474Y297025D01*
X203143Y297052D01*
X188003Y297052D01*
X186322Y297748D01*
X181614Y302456D01*
X181590Y302476D01*
X181570Y302500D01*
X181435Y302604D01*
X181303Y302712D01*
X181275Y302726D01*
X181250Y302745D01*
X180955Y302897D01*
X179556Y303476D01*
X178064Y304969D01*
X177256Y306919D01*
X177256Y309031D01*
X178064Y310981D01*
X179556Y312474D01*
X181507Y313282D01*
X183618Y313282D01*
X185568Y312474D01*
X187282Y310760D01*
X187289Y310755D01*
X187295Y310748D01*
X187444Y310628D01*
X187593Y310505D01*
X187601Y310501D01*
X187608Y310496D01*
X187779Y310407D01*
X187949Y310317D01*
X187958Y310314D01*
X187966Y310310D01*
X188150Y310257D01*
X188335Y310202D01*
X188344Y310201D01*
X188353Y310199D01*
X188543Y310183D01*
X188736Y310166D01*
X188745Y310166D01*
X188754Y310166D01*
X188943Y310188D01*
X189136Y310209D01*
X189145Y310212D01*
X189154Y310213D01*
X189336Y310272D01*
X189520Y310330D01*
X189528Y310335D01*
X189536Y310338D01*
X189703Y310432D01*
X189872Y310525D01*
X189879Y310531D01*
X189887Y310535D01*
X190032Y310661D01*
X190179Y310786D01*
X190185Y310793D01*
X190192Y310799D01*
X190307Y310947D01*
X190429Y311102D01*
X190433Y311110D01*
X190439Y311117D01*
X190524Y311288D01*
X190611Y311461D01*
X190614Y311469D01*
X190618Y311477D01*
X190668Y311663D01*
X190719Y311848D01*
X190720Y311857D01*
X190722Y311866D01*
X190750Y312197D01*
X190750Y314587D01*
X191557Y316537D01*
X193050Y318030D01*
X195001Y318838D01*
X195562Y318838D01*
X195682Y318850D01*
X195802Y318852D01*
X195882Y318870D01*
X195963Y318878D01*
X196078Y318913D01*
X196196Y318939D01*
X196270Y318972D01*
X196348Y318996D01*
X196454Y319053D01*
X196564Y319102D01*
X196630Y319149D01*
X196702Y319188D01*
X196794Y319265D01*
X196893Y319334D01*
X196949Y319393D01*
X197011Y319446D01*
X197087Y319539D01*
X197169Y319627D01*
X197213Y319696D01*
X197263Y319759D01*
X197319Y319866D01*
X197383Y319968D01*
X197412Y320045D01*
X197449Y320117D01*
X197482Y320232D01*
X197525Y320345D01*
X197538Y320425D01*
X197560Y320504D01*
X197570Y320624D01*
X197590Y320742D01*
X197587Y320824D01*
X197593Y320905D01*
X197579Y321024D01*
X197575Y321145D01*
X197554Y321238D01*
X197546Y321305D01*
X197525Y321371D01*
X197503Y321469D01*
X197236Y322334D01*
X197210Y322396D01*
X197125Y322617D01*
X196837Y323213D01*
X196834Y323299D01*
X196839Y323424D01*
X196827Y323500D01*
X196824Y323576D01*
X196789Y323735D01*
X196775Y323822D01*
X196762Y323855D01*
X196752Y323900D01*
X196349Y325207D01*
X196319Y325278D01*
X196298Y325352D01*
X196241Y325463D01*
X196192Y325578D01*
X196149Y325642D01*
X196114Y325710D01*
X196036Y325808D01*
X196033Y325812D01*
X195933Y326477D01*
X195916Y326542D01*
X195865Y326773D01*
X195670Y327406D01*
X195679Y327491D01*
X195703Y327614D01*
X195702Y327690D01*
X195711Y327766D01*
X195699Y327929D01*
X195699Y328016D01*
X195691Y328051D01*
X195688Y328097D01*
X195484Y329450D01*
X195465Y329525D01*
X195455Y329601D01*
X195415Y329719D01*
X195384Y329841D01*
X195351Y329910D01*
X195327Y329982D01*
X195264Y330091D01*
X195262Y330096D01*
X195262Y330768D01*
X195255Y330835D01*
X195239Y331071D01*
X195140Y331725D01*
X195162Y331808D01*
X195204Y331926D01*
X195214Y332002D01*
X195234Y332076D01*
X195247Y332239D01*
X195259Y332325D01*
X195257Y332361D01*
X195261Y332407D01*
X195261Y333775D01*
X195253Y333851D01*
X195255Y333928D01*
X195233Y334051D01*
X195221Y334176D01*
X195198Y334249D01*
X195185Y334324D01*
X195139Y334441D01*
X195137Y334446D01*
X195237Y335111D01*
X195241Y335178D01*
X195260Y335413D01*
X195260Y336076D01*
X195294Y336154D01*
X195353Y336265D01*
X195375Y336338D01*
X195405Y336408D01*
X195443Y336567D01*
X195467Y336651D01*
X195471Y336686D01*
X195481Y336731D01*
X195685Y338084D01*
X195689Y338161D01*
X195702Y338236D01*
X195699Y338361D01*
X195705Y338486D01*
X195694Y338562D01*
X195692Y338639D01*
X195664Y338760D01*
X195663Y338766D01*
X195861Y339409D01*
X195874Y339474D01*
X195928Y339705D01*
X196027Y340359D01*
X196072Y340432D01*
X196147Y340532D01*
X196179Y340602D01*
X196220Y340667D01*
X196281Y340818D01*
X196318Y340897D01*
X196326Y340932D01*
X196343Y340975D01*
X196746Y342282D01*
X196762Y342357D01*
X196786Y342430D01*
X196801Y342554D01*
X196826Y342677D01*
X196826Y342754D01*
X196836Y342829D01*
X196826Y342954D01*
X196826Y342960D01*
X197118Y343566D01*
X197141Y343629D01*
X197229Y343848D01*
X197413Y344446D01*
X197451Y344632D01*
X197491Y344823D01*
X197491Y344832D01*
X197493Y344841D01*
X197493Y345033D01*
X197495Y345226D01*
X197493Y345235D01*
X197493Y345244D01*
X197456Y345431D01*
X197419Y345622D01*
X197416Y345630D01*
X197414Y345638D01*
X197340Y345816D01*
X197267Y345994D01*
X197263Y346002D01*
X197259Y346010D01*
X197152Y346169D01*
X197045Y346330D01*
X197038Y346336D01*
X197034Y346343D01*
X196898Y346477D01*
X196760Y346615D01*
X196752Y346620D01*
X196747Y346626D01*
X196703Y346654D01*
X196487Y346804D01*
X165006Y364979D01*
X166136Y366616D01*
X166147Y366643D01*
X166166Y366665D01*
X166186Y366734D01*
X166214Y366799D01*
X166214Y366828D01*
X166222Y366856D01*
X166214Y366927D01*
X166215Y366998D01*
X166203Y367025D01*
X166200Y367054D01*
X166165Y367116D01*
X166137Y367181D01*
X166117Y367202D01*
X166102Y367227D01*
X166025Y367290D01*
X165995Y367320D01*
X165985Y367324D01*
X165974Y367333D01*
X149474Y376833D01*
X149401Y376857D01*
X149331Y376888D01*
X149307Y376888D01*
X149285Y376896D01*
X149209Y376890D01*
X149132Y376891D01*
X149108Y376881D01*
X149087Y376880D01*
X149048Y376859D01*
X148976Y376833D01*
X132476Y367333D01*
X132454Y367314D01*
X132428Y367301D01*
X132380Y367248D01*
X132327Y367201D01*
X132314Y367175D01*
X132295Y367154D01*
X132272Y367086D01*
X132241Y367022D01*
X132240Y366993D01*
X132230Y366966D01*
X132235Y366894D01*
X132232Y366823D01*
X132242Y366796D01*
X132244Y366767D01*
X132286Y366677D01*
X132301Y366637D01*
X132308Y366629D01*
X132314Y366616D01*
X133444Y364979D01*
X101963Y346804D01*
X101807Y346692D01*
X101649Y346580D01*
X101643Y346574D01*
X101635Y346569D01*
X101504Y346428D01*
X101372Y346288D01*
X101367Y346280D01*
X101361Y346274D01*
X101261Y346110D01*
X101158Y345947D01*
X101155Y345938D01*
X101150Y345931D01*
X101083Y345748D01*
X101016Y345570D01*
X101015Y345561D01*
X101012Y345553D01*
X100982Y345361D01*
X100951Y345173D01*
X100951Y345164D01*
X100950Y345155D01*
X100958Y344964D01*
X100965Y344770D01*
X100968Y344761D01*
X100968Y344753D01*
X100980Y344703D01*
X101037Y344446D01*
X101221Y343848D01*
X101247Y343786D01*
X101332Y343566D01*
X101619Y342969D01*
X101622Y342884D01*
X101617Y342758D01*
X101629Y342683D01*
X101632Y342606D01*
X101667Y342447D01*
X101681Y342361D01*
X101694Y342327D01*
X101704Y342282D01*
X102107Y340975D01*
X102136Y340904D01*
X102157Y340830D01*
X102214Y340719D01*
X102263Y340603D01*
X102306Y340540D01*
X102341Y340472D01*
X102419Y340374D01*
X102422Y340369D01*
X102522Y339705D01*
X102538Y339639D01*
X102589Y339409D01*
X102784Y338776D01*
X102774Y338691D01*
X102751Y338568D01*
X102752Y338491D01*
X102743Y338415D01*
X102754Y338253D01*
X102755Y338165D01*
X102762Y338130D01*
X102765Y338084D01*
X102969Y336731D01*
X102988Y336657D01*
X102997Y336581D01*
X103037Y336462D01*
X103068Y336341D01*
X103101Y336272D01*
X103125Y336199D01*
X103188Y336091D01*
X103190Y336086D01*
X103190Y335413D01*
X103197Y335346D01*
X103213Y335111D01*
X103311Y334456D01*
X103289Y334374D01*
X103247Y334255D01*
X103236Y334179D01*
X103217Y334106D01*
X103203Y333943D01*
X103191Y333857D01*
X103193Y333821D01*
X103189Y333775D01*
X103189Y332407D01*
X103197Y332330D01*
X103195Y332254D01*
X103216Y332130D01*
X103229Y332006D01*
X103251Y331933D01*
X103264Y331857D01*
X103310Y331741D01*
X103312Y331735D01*
X103211Y331071D01*
X103208Y331003D01*
X103188Y330768D01*
X103188Y330106D01*
X103154Y330028D01*
X103095Y329917D01*
X103073Y329843D01*
X103043Y329773D01*
X103005Y329615D01*
X102980Y329531D01*
X102977Y329495D01*
X102966Y329450D01*
X102762Y328097D01*
X102758Y328021D01*
X102745Y327946D01*
X102748Y327820D01*
X102742Y327695D01*
X102753Y327620D01*
X102755Y327543D01*
X102783Y327421D01*
X102783Y327416D01*
X102585Y326773D01*
X102572Y326707D01*
X102517Y326477D01*
X102418Y325823D01*
X102373Y325750D01*
X102298Y325649D01*
X102266Y325580D01*
X102225Y325515D01*
X102164Y325364D01*
X102127Y325285D01*
X102119Y325250D01*
X102102Y325207D01*
X101698Y323900D01*
X101683Y323825D01*
X101658Y323753D01*
X101643Y323628D01*
X101618Y323506D01*
X101618Y323429D01*
X101608Y323353D01*
X101617Y323228D01*
X101617Y323223D01*
X101325Y322617D01*
X101302Y322553D01*
X101214Y322334D01*
X101019Y321702D01*
X100963Y321637D01*
X100874Y321549D01*
X100832Y321485D01*
X100782Y321427D01*
X100699Y321286D01*
X100651Y321214D01*
X100637Y321181D01*
X100614Y321141D01*
X100020Y319908D01*
X99996Y319843D01*
X99965Y319783D01*
X99963Y319777D01*
X99959Y319768D01*
X99925Y319648D01*
X99882Y319530D01*
X99870Y319454D01*
X99868Y319448D01*
X99854Y319396D01*
X99853Y319395D01*
X99849Y319381D01*
X99840Y319256D01*
X99839Y319250D01*
X99460Y318695D01*
X99428Y318636D01*
X99308Y318432D01*
X99021Y317836D01*
X98956Y317780D01*
X98855Y317706D01*
X98804Y317649D01*
X98745Y317599D01*
X98643Y317472D01*
X98584Y317408D01*
X98566Y317377D01*
X98537Y317341D01*
X97766Y316211D01*
X97729Y316144D01*
X97684Y316082D01*
X97633Y315968D01*
X97573Y315858D01*
X97550Y315785D01*
X97519Y315715D01*
X97491Y315593D01*
X97489Y315587D01*
X97031Y315095D01*
X96990Y315041D01*
X96842Y314857D01*
X96469Y314311D01*
X96396Y314265D01*
X96286Y314207D01*
X96226Y314158D01*
X96161Y314118D01*
X96041Y314008D01*
X95973Y313953D01*
X95950Y313925D01*
X95916Y313894D01*
X94985Y312891D01*
X94939Y312830D01*
X94886Y312775D01*
X94818Y312670D01*
X94742Y312570D01*
X94709Y312501D01*
X94667Y312437D01*
X94621Y312321D01*
X94619Y312316D01*
X94093Y311897D01*
X94045Y311850D01*
X93870Y311690D01*
X93420Y311205D01*
X93342Y311171D01*
X93223Y311130D01*
X93157Y311091D01*
X93087Y311060D01*
X92952Y310970D01*
X92877Y310925D01*
X92850Y310901D01*
X92812Y310876D01*
X91742Y310023D01*
X91687Y309969D01*
X91626Y309923D01*
X91543Y309829D01*
X91453Y309742D01*
X91410Y309679D01*
X91359Y309621D01*
X91297Y309513D01*
X91293Y309508D01*
X90711Y309172D01*
X90656Y309133D01*
X90460Y309001D01*
X89942Y308589D01*
X89860Y308567D01*
X89736Y308544D01*
X89665Y308515D01*
X89592Y308495D01*
X89444Y308426D01*
X89363Y308393D01*
X89333Y308373D01*
X89292Y308354D01*
X88106Y307670D01*
X88044Y307625D01*
X87977Y307589D01*
X87881Y307508D01*
X87779Y307435D01*
X87727Y307379D01*
X87669Y307330D01*
X87590Y307232D01*
X87587Y307228D01*
X86961Y306983D01*
X86901Y306952D01*
X86687Y306851D01*
X86114Y306520D01*
X86029Y306511D01*
X85903Y306506D01*
X85829Y306488D01*
X85753Y306480D01*
X85596Y306433D01*
X85512Y306413D01*
X85479Y306398D01*
X85435Y306384D01*
X84161Y305885D01*
X84093Y305850D01*
X84021Y305824D01*
X83914Y305759D01*
X83803Y305701D01*
X83743Y305654D01*
X83678Y305614D01*
X83586Y305529D01*
X83581Y305525D01*
X82926Y305376D01*
X82862Y305355D01*
X82636Y305287D01*
X82019Y305045D01*
X81934Y305048D01*
X81809Y305063D01*
X81733Y305056D01*
X81657Y305059D01*
X81495Y305036D01*
X81408Y305029D01*
X81374Y305019D01*
X81328Y305012D01*
X79994Y304708D01*
X79921Y304684D01*
X79846Y304668D01*
X79731Y304620D01*
X79612Y304580D01*
X79546Y304542D01*
X79475Y304512D01*
X79372Y304442D01*
X79367Y304439D01*
X78696Y304389D01*
X78630Y304377D01*
X78396Y304344D01*
X77750Y304197D01*
X77668Y304212D01*
X77546Y304245D01*
X77471Y304250D01*
X77396Y304264D01*
X77231Y304266D01*
X77144Y304271D01*
X77110Y304267D01*
X77065Y304267D01*
X77052Y304266D01*
X76901Y304240D01*
X76749Y304221D01*
X76703Y304205D01*
X76656Y304197D01*
X76513Y304141D01*
X76367Y304092D01*
X76325Y304068D01*
X76280Y304051D01*
X76151Y303968D01*
X76018Y303891D01*
X75976Y303856D01*
X75941Y303834D01*
X75880Y303774D01*
X75765Y303677D01*
X60222Y288134D01*
X60205Y288113D01*
X60185Y288096D01*
X60078Y287958D01*
X59967Y287822D01*
X59955Y287799D01*
X59938Y287778D01*
X59860Y287621D01*
X59778Y287467D01*
X59771Y287441D01*
X59759Y287417D01*
X59713Y287248D01*
X59664Y287081D01*
X59661Y287054D01*
X59654Y287028D01*
X59627Y286698D01*
X59627Y285488D01*
X58819Y283538D01*
X57327Y282045D01*
X55376Y281237D01*
X53265Y281237D01*
X51314Y282045D01*
X49822Y283538D01*
X49014Y285488D01*
X49014Y287599D01*
X49822Y289550D01*
X51314Y291043D01*
X53265Y291850D01*
X54474Y291850D01*
X54501Y291853D01*
X54528Y291851D01*
X54702Y291873D01*
X54875Y291890D01*
X54900Y291898D01*
X54927Y291902D01*
X55093Y291957D01*
X55260Y292009D01*
X55283Y292021D01*
X55309Y292030D01*
X55460Y292117D01*
X55614Y292200D01*
X55634Y292217D01*
X55658Y292231D01*
X55911Y292445D01*
X65628Y302162D01*
X65744Y302305D01*
X65863Y302445D01*
X65871Y302460D01*
X65883Y302474D01*
X65968Y302636D01*
X66058Y302797D01*
X66063Y302814D01*
X66071Y302830D01*
X66123Y303005D01*
X66179Y303181D01*
X66181Y303198D01*
X66186Y303215D01*
X66202Y303397D01*
X66222Y303581D01*
X66221Y303599D01*
X66222Y303616D01*
X66203Y303799D01*
X66186Y303982D01*
X66181Y303999D01*
X66179Y304017D01*
X66123Y304193D01*
X66071Y304368D01*
X66063Y304383D01*
X66058Y304401D01*
X65968Y304562D01*
X65883Y304724D01*
X65871Y304737D01*
X65863Y304753D01*
X65744Y304893D01*
X65627Y305035D01*
X65614Y305046D01*
X65602Y305060D01*
X65458Y305174D01*
X65316Y305290D01*
X65300Y305298D01*
X65286Y305309D01*
X65122Y305393D01*
X64960Y305479D01*
X64942Y305485D01*
X64927Y305492D01*
X64898Y305500D01*
X64893Y305506D01*
X64792Y305580D01*
X64697Y305662D01*
X64631Y305699D01*
X64569Y305745D01*
X64423Y305817D01*
X64347Y305860D01*
X64313Y305871D01*
X64271Y305891D01*
X62998Y306392D01*
X62924Y306412D01*
X62854Y306442D01*
X62731Y306467D01*
X62610Y306501D01*
X62534Y306507D01*
X62459Y306522D01*
X62334Y306522D01*
X62328Y306523D01*
X61746Y306859D01*
X61685Y306886D01*
X61473Y306991D01*
X60856Y307233D01*
X60796Y307293D01*
X60714Y307388D01*
X60654Y307436D01*
X60600Y307490D01*
X60466Y307583D01*
X60397Y307636D01*
X60365Y307652D01*
X60327Y307679D01*
X59142Y308363D01*
X59073Y308395D01*
X59007Y308435D01*
X58890Y308477D01*
X58776Y308529D01*
X58701Y308546D01*
X58629Y308572D01*
X58505Y308591D01*
X58500Y308592D01*
X57974Y309012D01*
X57918Y309048D01*
X57724Y309183D01*
X57150Y309514D01*
X57100Y309583D01*
X57033Y309689D01*
X56981Y309745D01*
X56935Y309806D01*
X56816Y309918D01*
X56756Y309982D01*
X56727Y310002D01*
X56694Y310034D01*
X55624Y310887D01*
X55560Y310929D01*
X55501Y310978D01*
X55391Y311038D01*
X55286Y311106D01*
X55215Y311134D01*
X55148Y311171D01*
X55028Y311208D01*
X55023Y311210D01*
X54566Y311703D01*
X54515Y311748D01*
X54343Y311910D01*
X53826Y312323D01*
X53786Y312398D01*
X53736Y312513D01*
X53692Y312576D01*
X53657Y312644D01*
X53556Y312772D01*
X53506Y312844D01*
X53480Y312868D01*
X53452Y312904D01*
X52521Y313908D01*
X52464Y313958D01*
X52413Y314016D01*
X52313Y314091D01*
X52220Y314174D01*
X52153Y314213D01*
X52092Y314259D01*
X51980Y314314D01*
X51975Y314316D01*
X51596Y314872D01*
X51553Y314924D01*
X51407Y315109D01*
X50995Y315554D01*
X50851Y315682D01*
X50706Y315811D01*
X50699Y315815D01*
X50693Y315821D01*
X50527Y315917D01*
X50360Y316016D01*
X50352Y316018D01*
X50345Y316023D01*
X50162Y316084D01*
X49979Y316148D01*
X49971Y316149D01*
X49964Y316152D01*
X49771Y316177D01*
X49581Y316203D01*
X49572Y316202D01*
X49564Y316203D01*
X49370Y316190D01*
X49179Y316178D01*
X49171Y316176D01*
X49163Y316175D01*
X48976Y316124D01*
X48790Y316074D01*
X48782Y316070D01*
X48774Y316068D01*
X48730Y316046D01*
X48490Y315932D01*
X17010Y297758D01*
X16158Y299553D01*
X16140Y299577D01*
X16130Y299604D01*
X16081Y299656D01*
X16038Y299713D01*
X16013Y299727D01*
X15993Y299748D01*
X15928Y299777D01*
X15866Y299812D01*
X15838Y299816D01*
X15811Y299828D01*
X15740Y299828D01*
X15669Y299837D01*
X15641Y299829D01*
X15612Y299830D01*
X15519Y299795D01*
X15478Y299783D01*
X15469Y299776D01*
X15457Y299771D01*
X-1021Y290232D01*
X-1078Y290181D01*
X-1140Y290136D01*
X-1152Y290116D01*
X-1170Y290100D01*
X-1203Y290031D01*
X-1242Y289965D01*
X-1246Y289939D01*
X-1255Y289921D01*
X-1257Y289876D01*
X-1270Y289801D01*
X-1293Y270761D01*
X-1287Y270733D01*
X-1289Y270704D01*
X-1267Y270636D01*
X-1253Y270566D01*
X-1237Y270542D01*
X-1228Y270515D01*
X-1181Y270461D01*
X-1141Y270402D01*
X-1117Y270387D01*
X-1098Y270365D01*
X-1033Y270333D01*
X-973Y270295D01*
X-945Y270290D01*
X-919Y270277D01*
X-819Y270269D01*
X-777Y270262D01*
X-767Y270264D01*
X-753Y270263D01*
X1226Y270423D01*
X1226Y234057D01*
X1245Y233866D01*
X1262Y233673D01*
X1265Y233665D01*
X1266Y233656D01*
X1322Y233472D01*
X1377Y233287D01*
X1381Y233280D01*
X1384Y233271D01*
X1476Y233102D01*
X1566Y232932D01*
X1571Y232925D01*
X1576Y232917D01*
X1701Y232767D01*
X1821Y232620D01*
X1828Y232615D01*
X1833Y232608D01*
X1984Y232487D01*
X2133Y232365D01*
X2140Y232361D01*
X2147Y232356D01*
X2317Y232267D01*
X2489Y232177D01*
X2498Y232174D01*
X2504Y232170D01*
X2553Y232156D01*
X2805Y232077D01*
X3403Y231940D01*
X3470Y231932D01*
X3704Y231895D01*
X4364Y231845D01*
X4439Y231805D01*
X4545Y231739D01*
X4617Y231711D01*
X4684Y231675D01*
X4840Y231626D01*
X4922Y231595D01*
X4957Y231589D01*
X5001Y231575D01*
X6333Y231271D01*
X6409Y231262D01*
X6483Y231243D01*
X6608Y231237D01*
X6732Y231221D01*
X6808Y231227D01*
X6885Y231223D01*
X7009Y231242D01*
X7014Y231242D01*
X7640Y230996D01*
X7705Y230978D01*
X7930Y230907D01*
X8576Y230759D01*
X8644Y230709D01*
X8739Y230627D01*
X8806Y230589D01*
X8868Y230544D01*
X9014Y230472D01*
X9090Y230429D01*
X9124Y230418D01*
X9166Y230398D01*
X10437Y229899D01*
X10511Y229878D01*
X10581Y229848D01*
X10704Y229823D01*
X10825Y229789D01*
X10901Y229783D01*
X10976Y229768D01*
X11101Y229768D01*
X11107Y229768D01*
X11689Y229432D01*
X11750Y229404D01*
X11963Y229300D01*
X12579Y229058D01*
X12639Y228998D01*
X12721Y228902D01*
X12781Y228855D01*
X12835Y228801D01*
X12969Y228708D01*
X13038Y228655D01*
X13070Y228639D01*
X13108Y228612D01*
X14291Y227929D01*
X14361Y227898D01*
X14426Y227858D01*
X14544Y227815D01*
X14658Y227763D01*
X14733Y227746D01*
X14805Y227720D01*
X14929Y227701D01*
X14934Y227700D01*
X15459Y227281D01*
X15516Y227244D01*
X15710Y227110D01*
X16284Y226779D01*
X16334Y226710D01*
X16401Y226604D01*
X16453Y226548D01*
X16499Y226487D01*
X16618Y226375D01*
X16678Y226312D01*
X16707Y226291D01*
X16741Y226259D01*
X17809Y225408D01*
X17873Y225366D01*
X17931Y225317D01*
X18042Y225257D01*
X18147Y225189D01*
X18218Y225161D01*
X18285Y225124D01*
X18405Y225087D01*
X18410Y225085D01*
X18867Y224592D01*
X18918Y224548D01*
X19090Y224386D01*
X19607Y223973D01*
X19647Y223898D01*
X19697Y223783D01*
X19741Y223720D01*
X19777Y223652D01*
X19877Y223524D01*
X19927Y223452D01*
X19953Y223427D01*
X19982Y223391D01*
X20911Y222390D01*
X20968Y222339D01*
X21019Y222282D01*
X21119Y222206D01*
X21213Y222123D01*
X21279Y222085D01*
X21340Y222039D01*
X21453Y221984D01*
X21457Y221981D01*
X21836Y221426D01*
X21879Y221374D01*
X22025Y221189D01*
X22476Y220703D01*
X22504Y220622D01*
X22536Y220501D01*
X22570Y220433D01*
X22595Y220361D01*
X22676Y220219D01*
X22714Y220140D01*
X22737Y220112D01*
X22759Y220072D01*
X23529Y218943D01*
X23578Y218885D01*
X23619Y218820D01*
X23707Y218731D01*
X23787Y218635D01*
X23847Y218587D01*
X23901Y218532D01*
X24004Y218462D01*
X24008Y218458D01*
X24300Y217852D01*
X24335Y217795D01*
X24452Y217589D01*
X24825Y217042D01*
X24841Y216958D01*
X24854Y216834D01*
X24878Y216761D01*
X24892Y216686D01*
X24950Y216534D01*
X24977Y216450D01*
X24995Y216419D01*
X25011Y216376D01*
X25604Y215145D01*
X25644Y215080D01*
X25675Y215010D01*
X25748Y214908D01*
X25813Y214802D01*
X25865Y214745D01*
X25910Y214683D01*
X26002Y214598D01*
X26006Y214594D01*
X26204Y213952D01*
X26230Y213889D01*
X26315Y213669D01*
X26602Y213072D01*
X26605Y212987D01*
X26600Y212862D01*
X26612Y212786D01*
X26615Y212710D01*
X26650Y212550D01*
X26664Y212464D01*
X26677Y212431D01*
X26687Y212386D01*
X26722Y212273D01*
X26764Y212173D01*
X26796Y212069D01*
X26842Y211988D01*
X26878Y211902D01*
X26939Y211812D01*
X26991Y211717D01*
X27051Y211646D01*
X27104Y211569D01*
X27182Y211493D01*
X27252Y211410D01*
X27325Y211352D01*
X27392Y211287D01*
X27482Y211228D01*
X27568Y211161D01*
X27651Y211118D01*
X27729Y211067D01*
X27830Y211027D01*
X27927Y210978D01*
X28017Y210953D01*
X28103Y210919D01*
X28210Y210899D01*
X28314Y210870D01*
X28408Y210863D01*
X28499Y210847D01*
X28608Y210849D01*
X28716Y210841D01*
X28809Y210852D01*
X28902Y210854D01*
X29008Y210878D01*
X29115Y210891D01*
X29204Y210921D01*
X29295Y210941D01*
X29394Y210985D01*
X29497Y211019D01*
X29578Y211066D01*
X29663Y211104D01*
X29752Y211166D01*
X29846Y211220D01*
X29931Y211293D01*
X29992Y211336D01*
X30034Y211380D01*
X30099Y211435D01*
X30331Y211668D01*
X32282Y212475D01*
X34393Y212475D01*
X36344Y211668D01*
X37836Y210175D01*
X38644Y208224D01*
X38644Y206113D01*
X37836Y204163D01*
X36344Y202670D01*
X34393Y201862D01*
X33184Y201862D01*
X33157Y201859D01*
X33130Y201861D01*
X32957Y201839D01*
X32783Y201822D01*
X32758Y201814D01*
X32731Y201811D01*
X32565Y201755D01*
X32398Y201704D01*
X32375Y201691D01*
X32349Y201683D01*
X32198Y201595D01*
X32044Y201512D01*
X32024Y201495D01*
X32000Y201482D01*
X31747Y201267D01*
X30632Y200151D01*
X29790Y200151D01*
X29723Y200145D01*
X29655Y200147D01*
X29523Y200125D01*
X29389Y200111D01*
X29324Y200092D01*
X29258Y200080D01*
X29133Y200033D01*
X29004Y199993D01*
X28945Y199961D01*
X28882Y199937D01*
X28768Y199865D01*
X28650Y199801D01*
X28598Y199758D01*
X28541Y199722D01*
X28444Y199630D01*
X28341Y199544D01*
X28299Y199491D01*
X28250Y199444D01*
X28173Y199335D01*
X28089Y199230D01*
X28057Y199170D01*
X28019Y199115D01*
X27965Y198992D01*
X27903Y198873D01*
X27884Y198808D01*
X27857Y198746D01*
X27816Y198569D01*
X27792Y198486D01*
X27789Y198458D01*
X27781Y198423D01*
X27749Y198210D01*
X27745Y198134D01*
X27732Y198058D01*
X27735Y197933D01*
X27729Y197808D01*
X27740Y197732D01*
X27742Y197656D01*
X27770Y197534D01*
X27771Y197528D01*
X27572Y196886D01*
X27559Y196820D01*
X27505Y196590D01*
X27406Y195935D01*
X27361Y195862D01*
X27286Y195762D01*
X27254Y195693D01*
X27213Y195628D01*
X27152Y195477D01*
X27115Y195397D01*
X27107Y195362D01*
X27089Y195320D01*
X26687Y194014D01*
X26672Y193939D01*
X26647Y193867D01*
X26632Y193743D01*
X26607Y193620D01*
X26607Y193543D01*
X26597Y193467D01*
X26606Y193342D01*
X26606Y193337D01*
X26315Y192731D01*
X26292Y192668D01*
X26204Y192448D01*
X26009Y191816D01*
X25953Y191751D01*
X25864Y191663D01*
X25822Y191599D01*
X25772Y191541D01*
X25689Y191400D01*
X25641Y191328D01*
X25627Y191294D01*
X25604Y191255D01*
X25011Y190024D01*
X24985Y189952D01*
X24950Y189884D01*
X24916Y189763D01*
X24873Y189646D01*
X24862Y189570D01*
X24841Y189496D01*
X24831Y189372D01*
X24831Y189366D01*
X24452Y188811D01*
X24419Y188751D01*
X24300Y188548D01*
X24013Y187951D01*
X23948Y187896D01*
X23847Y187821D01*
X23795Y187764D01*
X23737Y187715D01*
X23635Y187588D01*
X23576Y187523D01*
X23558Y187492D01*
X23529Y187457D01*
X22759Y186328D01*
X22723Y186261D01*
X22678Y186199D01*
X22626Y186084D01*
X22566Y185974D01*
X22544Y185901D01*
X22512Y185832D01*
X22484Y185710D01*
X22483Y185704D01*
X22025Y185211D01*
X21985Y185158D01*
X21836Y184974D01*
X21463Y184427D01*
X21391Y184382D01*
X21280Y184323D01*
X21220Y184275D01*
X21156Y184234D01*
X21035Y184124D01*
X20968Y184069D01*
X20945Y184041D01*
X20911Y184010D01*
X19982Y183009D01*
X19935Y182948D01*
X19882Y182893D01*
X19814Y182788D01*
X19738Y182688D01*
X19705Y182619D01*
X19664Y182555D01*
X19618Y182438D01*
X19615Y182433D01*
X19090Y182014D01*
X19042Y181967D01*
X18867Y181808D01*
X18417Y181322D01*
X18339Y181288D01*
X18220Y181247D01*
X18154Y181208D01*
X18084Y181177D01*
X17949Y181086D01*
X17873Y181042D01*
X17847Y181018D01*
X17809Y180992D01*
X16741Y180141D01*
X16686Y180087D01*
X16625Y180041D01*
X16542Y179947D01*
X16452Y179860D01*
X16409Y179797D01*
X16358Y179739D01*
X16296Y179631D01*
X16292Y179626D01*
X15710Y179290D01*
X15655Y179250D01*
X15459Y179119D01*
X14942Y178706D01*
X14859Y178684D01*
X14736Y178661D01*
X14665Y178632D01*
X14591Y178613D01*
X14444Y178543D01*
X14363Y178510D01*
X14333Y178490D01*
X14291Y178471D01*
X13108Y177788D01*
X13046Y177743D01*
X12979Y177706D01*
X12883Y177626D01*
X12781Y177553D01*
X12729Y177497D01*
X12670Y177448D01*
X12592Y177350D01*
X12588Y177346D01*
X11963Y177100D01*
X11903Y177070D01*
X11689Y176968D01*
X11116Y176637D01*
X11031Y176628D01*
X10905Y176623D01*
X10831Y176606D01*
X10755Y176597D01*
X10599Y176550D01*
X10514Y176530D01*
X10481Y176515D01*
X10437Y176501D01*
X9166Y176002D01*
X9097Y175968D01*
X9025Y175941D01*
X8919Y175876D01*
X8807Y175819D01*
X8747Y175771D01*
X8682Y175731D01*
X8590Y175646D01*
X8586Y175643D01*
X7930Y175493D01*
X7867Y175472D01*
X7640Y175404D01*
X7024Y175162D01*
X6938Y175165D01*
X6814Y175179D01*
X6738Y175173D01*
X6661Y175176D01*
X6500Y175153D01*
X6413Y175145D01*
X6378Y175135D01*
X6333Y175129D01*
X5001Y174825D01*
X4929Y174800D01*
X4853Y174785D01*
X4738Y174736D01*
X4619Y174697D01*
X4553Y174658D01*
X4482Y174629D01*
X4379Y174558D01*
X4374Y174555D01*
X3703Y174505D01*
X3638Y174494D01*
X3403Y174460D01*
X2805Y174323D01*
X2622Y174262D01*
X2439Y174202D01*
X2431Y174198D01*
X2423Y174195D01*
X2256Y174099D01*
X2088Y174004D01*
X2082Y173999D01*
X2074Y173994D01*
X1930Y173867D01*
X1783Y173741D01*
X1778Y173734D01*
X1772Y173729D01*
X1654Y173574D01*
X1537Y173423D01*
X1533Y173416D01*
X1528Y173409D01*
X1443Y173235D01*
X1357Y173063D01*
X1355Y173054D01*
X1351Y173047D01*
X1303Y172861D01*
X1253Y172674D01*
X1252Y172664D01*
X1250Y172657D01*
X1247Y172606D01*
X1226Y172343D01*
X1226Y135977D01*
X-753Y136137D01*
X-782Y136134D01*
X-810Y136138D01*
X-880Y136122D01*
X-951Y136113D01*
X-976Y136099D01*
X-1004Y136092D01*
X-1061Y136050D01*
X-1123Y136014D01*
X-1141Y135991D01*
X-1164Y135974D01*
X-1200Y135913D01*
X-1243Y135856D01*
X-1250Y135828D01*
X-1265Y135803D01*
X-1282Y135704D01*
X-1292Y135663D01*
X-1290Y135652D01*
X-1293Y135639D01*
X-1270Y116599D01*
X-1254Y116524D01*
X-1246Y116448D01*
X-1235Y116427D01*
X-1230Y116405D01*
X-1186Y116341D01*
X-1149Y116274D01*
X-1129Y116258D01*
X-1117Y116241D01*
X-1080Y116217D01*
X-1021Y116168D01*
X15457Y106629D01*
X15484Y106619D01*
X15508Y106603D01*
X15577Y106588D01*
X15645Y106565D01*
X15674Y106567D01*
X15702Y106561D01*
X15772Y106575D01*
X15843Y106580D01*
X15869Y106594D01*
X15897Y106599D01*
X15957Y106639D01*
X16020Y106672D01*
X16038Y106694D01*
X16062Y106710D01*
X16120Y106792D01*
X16147Y106825D01*
X16150Y106835D01*
X16158Y106847D01*
X17010Y108642D01*
X48490Y90468D01*
X48665Y90389D01*
X48841Y90308D01*
X48849Y90306D01*
X48857Y90302D01*
X49046Y90259D01*
X49233Y90214D01*
X49241Y90214D01*
X49249Y90212D01*
X49443Y90207D01*
X49635Y90200D01*
X49643Y90201D01*
X49652Y90201D01*
X49841Y90234D01*
X50033Y90265D01*
X50040Y90268D01*
X50048Y90270D01*
X50227Y90339D01*
X50409Y90408D01*
X50416Y90412D01*
X50424Y90415D01*
X50586Y90519D01*
X50750Y90622D01*
X50757Y90628D01*
X50763Y90632D01*
X50799Y90667D01*
X50995Y90846D01*
X51407Y91291D01*
X51448Y91345D01*
X51596Y91528D01*
X51969Y92075D01*
X52042Y92121D01*
X52152Y92179D01*
X52212Y92227D01*
X52276Y92268D01*
X52397Y92378D01*
X52465Y92433D01*
X52487Y92461D01*
X52521Y92492D01*
X53452Y93495D01*
X53498Y93556D01*
X53551Y93611D01*
X53619Y93717D01*
X53695Y93816D01*
X53728Y93885D01*
X53770Y93950D01*
X53816Y94066D01*
X53818Y94071D01*
X54343Y94490D01*
X54391Y94537D01*
X54566Y94697D01*
X55016Y95183D01*
X55095Y95217D01*
X55213Y95258D01*
X55278Y95297D01*
X55349Y95327D01*
X55484Y95419D01*
X55559Y95463D01*
X55586Y95487D01*
X55624Y95513D01*
X56694Y96366D01*
X56749Y96420D01*
X56809Y96466D01*
X56892Y96560D01*
X56982Y96647D01*
X57025Y96710D01*
X57076Y96768D01*
X57138Y96876D01*
X57142Y96881D01*
X57724Y97217D01*
X57778Y97256D01*
X57974Y97388D01*
X58492Y97801D01*
X58575Y97823D01*
X58698Y97846D01*
X58769Y97875D01*
X58843Y97895D01*
X58990Y97965D01*
X59071Y97997D01*
X59101Y98017D01*
X59142Y98037D01*
X60327Y98721D01*
X60389Y98766D01*
X60457Y98803D01*
X60552Y98883D01*
X60654Y98956D01*
X60706Y99012D01*
X60765Y99062D01*
X60843Y99159D01*
X60847Y99163D01*
X61473Y99409D01*
X61532Y99440D01*
X61746Y99541D01*
X62319Y99872D01*
X62404Y99882D01*
X62530Y99886D01*
X62604Y99904D01*
X62680Y99913D01*
X62836Y99960D01*
X62921Y99980D01*
X62954Y99995D01*
X62998Y100008D01*
X64271Y100509D01*
X64339Y100544D01*
X64411Y100570D01*
X64518Y100635D01*
X64630Y100692D01*
X64690Y100740D01*
X64755Y100780D01*
X64847Y100865D01*
X64851Y100869D01*
X65506Y101018D01*
X65571Y101040D01*
X65796Y101108D01*
X66413Y101350D01*
X66498Y101347D01*
X66623Y101333D01*
X66699Y101339D01*
X66775Y101336D01*
X66937Y101359D01*
X67024Y101367D01*
X67058Y101377D01*
X67104Y101383D01*
X68438Y101688D01*
X68510Y101713D01*
X68585Y101728D01*
X68701Y101777D01*
X68819Y101817D01*
X68886Y101855D01*
X68956Y101885D01*
X69060Y101955D01*
X69065Y101958D01*
X69735Y102008D01*
X69802Y102020D01*
X70035Y102054D01*
X70681Y102201D01*
X70764Y102185D01*
X70886Y102153D01*
X70962Y102148D01*
X71037Y102133D01*
X71201Y102132D01*
X71287Y102127D01*
X71323Y102131D01*
X71369Y102131D01*
X72733Y102234D01*
X72809Y102247D01*
X72885Y102251D01*
X73007Y102282D01*
X73130Y102304D01*
X73201Y102332D01*
X73275Y102351D01*
X73388Y102405D01*
X73393Y102407D01*
X74064Y102357D01*
X74131Y102358D01*
X74368Y102357D01*
X75028Y102407D01*
X75108Y102378D01*
X75223Y102328D01*
X75298Y102312D01*
X75370Y102286D01*
X75531Y102261D01*
X75617Y102243D01*
X75652Y102242D01*
X75698Y102235D01*
X77063Y102133D01*
X77139Y102135D01*
X77215Y102127D01*
X77340Y102140D01*
X77465Y102143D01*
X77540Y102160D01*
X77616Y102168D01*
X77736Y102204D01*
X77741Y102206D01*
X78396Y102056D01*
X78463Y102048D01*
X78696Y102011D01*
X79357Y101962D01*
X79432Y101922D01*
X79538Y101855D01*
X79610Y101828D01*
X79678Y101792D01*
X79833Y101743D01*
X79915Y101712D01*
X79950Y101706D01*
X79994Y101692D01*
X81328Y101388D01*
X81404Y101378D01*
X81478Y101360D01*
X81603Y101354D01*
X81728Y101338D01*
X81804Y101344D01*
X81880Y101340D01*
X82004Y101358D01*
X82010Y101359D01*
X82636Y101113D01*
X82700Y101095D01*
X82926Y101024D01*
X83571Y100877D01*
X83640Y100826D01*
X83735Y100744D01*
X83802Y100707D01*
X83863Y100661D01*
X84010Y100589D01*
X84086Y100546D01*
X84120Y100535D01*
X84161Y100515D01*
X85435Y100016D01*
X85509Y99995D01*
X85579Y99965D01*
X85702Y99940D01*
X85823Y99907D01*
X85899Y99901D01*
X85974Y99886D01*
X86099Y99886D01*
X86105Y99885D01*
X86687Y99549D01*
X86749Y99521D01*
X86961Y99417D01*
X87577Y99176D01*
X87638Y99115D01*
X87719Y99020D01*
X87779Y98973D01*
X87834Y98919D01*
X87968Y98826D01*
X88036Y98773D01*
X88068Y98757D01*
X88106Y98730D01*
X89292Y98046D01*
X89361Y98015D01*
X89427Y97975D01*
X89544Y97932D01*
X89659Y97881D01*
X89733Y97864D01*
X89805Y97838D01*
X89929Y97819D01*
X90051Y97791D01*
X90095Y97790D01*
X90156Y97758D01*
X90249Y97732D01*
X90339Y97697D01*
X90443Y97679D01*
X90544Y97650D01*
X90641Y97643D01*
X90736Y97626D01*
X90836Y97629D01*
X90887Y97624D01*
X90896Y97624D01*
X90897Y97624D01*
X90946Y97621D01*
X91042Y97633D01*
X91138Y97635D01*
X91241Y97658D01*
X91259Y97661D01*
X91297Y97664D01*
X91303Y97666D01*
X91345Y97671D01*
X91437Y97702D01*
X91531Y97723D01*
X91623Y97764D01*
X91682Y97782D01*
X91692Y97788D01*
X91727Y97800D01*
X91811Y97848D01*
X91899Y97887D01*
X91974Y97941D01*
X92036Y97974D01*
X92050Y97986D01*
X92076Y98001D01*
X92164Y98076D01*
X92227Y98120D01*
X92267Y98163D01*
X92329Y98215D01*
X115999Y121886D01*
X118380Y124266D01*
X156852Y124266D01*
X156878Y124269D01*
X156905Y124267D01*
X157079Y124289D01*
X157252Y124306D01*
X157278Y124314D01*
X157304Y124318D01*
X157470Y124373D01*
X157637Y124425D01*
X157661Y124437D01*
X157686Y124446D01*
X157838Y124533D01*
X157991Y124616D01*
X158012Y124633D01*
X158035Y124647D01*
X158288Y124861D01*
X159143Y125717D01*
X160358Y126220D01*
X161094Y126524D01*
X163205Y126524D01*
X165155Y125717D01*
X166648Y124224D01*
X167456Y122273D01*
X167456Y120162D01*
X166648Y118212D01*
X165155Y116719D01*
X163205Y115911D01*
X161094Y115911D01*
X159143Y116719D01*
X158288Y117574D01*
X158267Y117591D01*
X158250Y117611D01*
X158112Y117718D01*
X157977Y117829D01*
X157953Y117842D01*
X157932Y117858D01*
X157775Y117936D01*
X157621Y118018D01*
X157595Y118025D01*
X157571Y118037D01*
X157402Y118083D01*
X157235Y118133D01*
X157208Y118135D01*
X157182Y118142D01*
X156852Y118169D01*
X121747Y118169D01*
X121720Y118166D01*
X121694Y118168D01*
X121520Y118146D01*
X121346Y118129D01*
X121321Y118121D01*
X121294Y118118D01*
X121129Y118062D01*
X120961Y118011D01*
X120938Y117998D01*
X120913Y117990D01*
X120761Y117902D01*
X120607Y117819D01*
X120587Y117802D01*
X120564Y117789D01*
X120311Y117574D01*
X96993Y94256D01*
X96974Y94233D01*
X96952Y94214D01*
X96846Y94078D01*
X96738Y93945D01*
X96724Y93919D01*
X96706Y93895D01*
X96630Y93741D01*
X96549Y93589D01*
X96541Y93561D01*
X96528Y93534D01*
X96483Y93368D01*
X96435Y93203D01*
X96432Y93174D01*
X96424Y93145D01*
X96414Y92974D01*
X96398Y92802D01*
X96401Y92773D01*
X96400Y92743D01*
X96423Y92573D01*
X96442Y92402D01*
X96451Y92374D01*
X96455Y92344D01*
X96511Y92182D01*
X96563Y92018D01*
X96578Y91992D01*
X96587Y91964D01*
X96751Y91675D01*
X96842Y91543D01*
X96885Y91492D01*
X97031Y91305D01*
X97482Y90820D01*
X97510Y90739D01*
X97542Y90618D01*
X97576Y90550D01*
X97602Y90477D01*
X97682Y90336D01*
X97721Y90257D01*
X97743Y90229D01*
X97766Y90189D01*
X98537Y89059D01*
X98586Y89000D01*
X98627Y88936D01*
X98715Y88846D01*
X98795Y88750D01*
X98855Y88702D01*
X98909Y88648D01*
X99012Y88577D01*
X99016Y88574D01*
X99308Y87968D01*
X99343Y87910D01*
X99460Y87705D01*
X99833Y87158D01*
X99849Y87074D01*
X99863Y86950D01*
X99886Y86877D01*
X99901Y86801D01*
X99959Y86649D01*
X99986Y86566D01*
X100003Y86535D01*
X100020Y86492D01*
X100614Y85259D01*
X100654Y85194D01*
X100685Y85124D01*
X100758Y85022D01*
X100824Y84916D01*
X100876Y84859D01*
X100920Y84797D01*
X101012Y84712D01*
X101016Y84708D01*
X101214Y84066D01*
X101240Y84004D01*
X101325Y83783D01*
X101613Y83187D01*
X101616Y83101D01*
X101611Y82976D01*
X101623Y82900D01*
X101626Y82824D01*
X101661Y82664D01*
X101675Y82578D01*
X101688Y82545D01*
X101698Y82500D01*
X102102Y81193D01*
X102131Y81122D01*
X102152Y81048D01*
X102209Y80937D01*
X102258Y80821D01*
X102301Y80758D01*
X102336Y80690D01*
X102414Y80592D01*
X102417Y80588D01*
X102517Y79923D01*
X102534Y79858D01*
X102585Y79627D01*
X102780Y78994D01*
X102771Y78909D01*
X102747Y78786D01*
X102748Y78710D01*
X102740Y78634D01*
X102751Y78471D01*
X102752Y78384D01*
X102759Y78349D01*
X102762Y78303D01*
X102966Y76950D01*
X102979Y76899D01*
X102982Y76876D01*
X102987Y76861D01*
X102995Y76800D01*
X103035Y76681D01*
X103066Y76559D01*
X103099Y76490D01*
X103123Y76418D01*
X103186Y76309D01*
X103188Y76304D01*
X103188Y75632D01*
X103195Y75565D01*
X103211Y75329D01*
X103310Y74675D01*
X103288Y74592D01*
X103246Y74474D01*
X103236Y74398D01*
X103216Y74324D01*
X103203Y74161D01*
X103191Y74075D01*
X103193Y74039D01*
X103189Y73993D01*
X103189Y72625D01*
X103197Y72549D01*
X103195Y72472D01*
X103217Y72349D01*
X103229Y72224D01*
X103252Y72151D01*
X103265Y72076D01*
X103311Y71959D01*
X103313Y71954D01*
X103213Y71289D01*
X103209Y71222D01*
X103190Y70987D01*
X103190Y70324D01*
X103156Y70246D01*
X103097Y70135D01*
X103075Y70062D01*
X103045Y69992D01*
X103007Y69833D01*
X102983Y69749D01*
X102979Y69714D01*
X102969Y69669D01*
X102765Y68316D01*
X102761Y68239D01*
X102748Y68164D01*
X102751Y68039D01*
X102745Y67914D01*
X102756Y67838D01*
X102758Y67761D01*
X102786Y67640D01*
X102787Y67634D01*
X102589Y66991D01*
X102576Y66925D01*
X102522Y66695D01*
X102423Y66041D01*
X102378Y65968D01*
X102303Y65868D01*
X102271Y65798D01*
X102230Y65733D01*
X102169Y65582D01*
X102132Y65503D01*
X102124Y65468D01*
X102107Y65425D01*
X101704Y64118D01*
X101688Y64043D01*
X101664Y63970D01*
X101649Y63846D01*
X101624Y63723D01*
X101624Y63646D01*
X101614Y63571D01*
X101624Y63446D01*
X101624Y63440D01*
X101332Y62834D01*
X101309Y62771D01*
X101221Y62552D01*
X101037Y61954D01*
X100999Y61765D01*
X100959Y61577D01*
X100959Y61568D01*
X100957Y61559D01*
X100957Y61367D01*
X100955Y61174D01*
X100957Y61165D01*
X100957Y61156D01*
X100994Y60969D01*
X101031Y60778D01*
X101034Y60770D01*
X101036Y60762D01*
X101110Y60584D01*
X101183Y60406D01*
X101187Y60398D01*
X101191Y60390D01*
X101298Y60231D01*
X101405Y60070D01*
X101412Y60064D01*
X101416Y60057D01*
X101552Y59923D01*
X101690Y59785D01*
X101698Y59780D01*
X101703Y59774D01*
X101747Y59746D01*
X101963Y59596D01*
X133444Y41421D01*
X132314Y39784D01*
X132303Y39757D01*
X132284Y39735D01*
X132264Y39666D01*
X132236Y39601D01*
X132236Y39572D01*
X132228Y39544D01*
X132236Y39473D01*
X132236Y39402D01*
X132247Y39375D01*
X132250Y39346D01*
X132285Y39284D01*
X132313Y39219D01*
X132333Y39198D01*
X132348Y39173D01*
X132411Y39121D01*
X132415Y39116D01*
X132424Y39110D01*
X132425Y39110D01*
X132455Y39080D01*
X132465Y39076D01*
X132476Y39067D01*
X148976Y29567D01*
X149049Y29543D01*
X149119Y29512D01*
X149143Y29512D01*
X149165Y29504D01*
X149241Y29511D01*
X149318Y29510D01*
X149342Y29519D01*
X149363Y29520D01*
X149402Y29541D01*
X149474Y29567D01*
X165974Y39067D01*
X165996Y39086D01*
X166022Y39099D01*
X166056Y39137D01*
X166059Y39139D01*
X166062Y39143D01*
X166070Y39152D01*
X166123Y39199D01*
X166136Y39225D01*
X166155Y39247D01*
X166178Y39314D01*
X166209Y39378D01*
X166211Y39407D01*
X166220Y39434D01*
X166215Y39506D01*
X166218Y39577D01*
X166208Y39604D01*
X166206Y39633D01*
X166164Y39723D01*
X166149Y39763D01*
X166142Y39771D01*
X166136Y39784D01*
X165006Y41421D01*
X196487Y59596D01*
X196643Y59708D01*
X196801Y59820D01*
X196807Y59826D01*
X196815Y59831D01*
X196946Y59973D01*
X197078Y60112D01*
X197083Y60119D01*
X197089Y60126D01*
X197190Y60291D01*
X197292Y60453D01*
X197295Y60461D01*
X197300Y60469D01*
X197366Y60650D01*
X197434Y60830D01*
X197435Y60839D01*
X197438Y60847D01*
X197468Y61035D01*
X197499Y61227D01*
X197499Y61236D01*
X197500Y61245D01*
X197492Y61436D01*
X197485Y61630D01*
X197482Y61639D01*
X197482Y61647D01*
X197470Y61697D01*
X197413Y61954D01*
X197229Y62552D01*
X197203Y62613D01*
X197118Y62834D01*
X196831Y63431D01*
X196828Y63516D01*
X196833Y63642D01*
X196821Y63717D01*
X196818Y63794D01*
X196783Y63953D01*
X196769Y64039D01*
X196756Y64073D01*
X196746Y64118D01*
X196343Y65425D01*
X196314Y65496D01*
X196293Y65570D01*
X196236Y65681D01*
X196187Y65797D01*
X196144Y65860D01*
X196109Y65928D01*
X196031Y66026D01*
X196028Y66031D01*
X195928Y66695D01*
X195912Y66761D01*
X195861Y66991D01*
X195666Y67624D01*
X195676Y67709D01*
X195699Y67832D01*
X195698Y67909D01*
X195707Y67985D01*
X195696Y68147D01*
X195695Y68235D01*
X195688Y68270D01*
X195685Y68316D01*
X195481Y69669D01*
X195462Y69743D01*
X195453Y69819D01*
X195413Y69938D01*
X195382Y70059D01*
X195349Y70128D01*
X195325Y70201D01*
X195262Y70309D01*
X195260Y70314D01*
X195260Y70987D01*
X195253Y71054D01*
X195237Y71289D01*
X195139Y71944D01*
X195161Y72026D01*
X195203Y72145D01*
X195214Y72221D01*
X195233Y72294D01*
X195247Y72457D01*
X195259Y72543D01*
X195257Y72579D01*
X195261Y72625D01*
X195261Y73993D01*
X195253Y74070D01*
X195255Y74146D01*
X195234Y74269D01*
X195221Y74394D01*
X195199Y74467D01*
X195186Y74543D01*
X195140Y74659D01*
X195138Y74665D01*
X195239Y75329D01*
X195242Y75396D01*
X195262Y75632D01*
X195262Y76294D01*
X195296Y76372D01*
X195355Y76483D01*
X195377Y76557D01*
X195407Y76627D01*
X195445Y76785D01*
X195470Y76869D01*
X195473Y76905D01*
X195484Y76950D01*
X195688Y78303D01*
X195692Y78379D01*
X195705Y78455D01*
X195702Y78580D01*
X195708Y78705D01*
X195697Y78780D01*
X195695Y78857D01*
X195667Y78979D01*
X195667Y78984D01*
X195865Y79627D01*
X195878Y79693D01*
X195933Y79923D01*
X196032Y80577D01*
X196077Y80650D01*
X196152Y80750D01*
X196184Y80820D01*
X196225Y80885D01*
X196286Y81036D01*
X196323Y81115D01*
X196331Y81150D01*
X196349Y81193D01*
X196752Y82500D01*
X196767Y82575D01*
X196792Y82647D01*
X196807Y82772D01*
X196832Y82895D01*
X196832Y82971D01*
X196842Y83047D01*
X196833Y83172D01*
X196833Y83177D01*
X197125Y83783D01*
X197148Y83846D01*
X197236Y84066D01*
X197431Y84698D01*
X197487Y84763D01*
X197576Y84851D01*
X197618Y84915D01*
X197668Y84973D01*
X197751Y85114D01*
X197799Y85186D01*
X197813Y85219D01*
X197836Y85259D01*
X198430Y86492D01*
X198456Y86564D01*
X198491Y86632D01*
X198525Y86752D01*
X198568Y86870D01*
X198580Y86946D01*
X198600Y87019D01*
X198610Y87144D01*
X198611Y87150D01*
X198990Y87705D01*
X199022Y87764D01*
X199142Y87968D01*
X199429Y88564D01*
X199494Y88620D01*
X199595Y88694D01*
X199646Y88751D01*
X199705Y88801D01*
X199807Y88928D01*
X199866Y88992D01*
X199884Y89023D01*
X199913Y89059D01*
X200684Y90189D01*
X200721Y90256D01*
X200766Y90318D01*
X200817Y90432D01*
X200877Y90542D01*
X200900Y90615D01*
X200931Y90685D01*
X200959Y90807D01*
X200961Y90813D01*
X201419Y91305D01*
X201459Y91359D01*
X201608Y91543D01*
X201981Y92089D01*
X202054Y92135D01*
X202164Y92193D01*
X202224Y92242D01*
X202289Y92282D01*
X202409Y92392D01*
X202477Y92447D01*
X202500Y92475D01*
X202534Y92506D01*
X203465Y93509D01*
X203511Y93570D01*
X203564Y93625D01*
X203632Y93730D01*
X203708Y93830D01*
X203741Y93899D01*
X203783Y93963D01*
X203829Y94079D01*
X203831Y94084D01*
X204357Y94503D01*
X204405Y94550D01*
X204580Y94710D01*
X205030Y95195D01*
X205109Y95229D01*
X205227Y95270D01*
X205293Y95309D01*
X205363Y95340D01*
X205498Y95430D01*
X205574Y95475D01*
X205600Y95499D01*
X205638Y95525D01*
X206708Y96377D01*
X206763Y96431D01*
X206824Y96477D01*
X206907Y96571D01*
X206997Y96658D01*
X207040Y96721D01*
X207091Y96779D01*
X207153Y96887D01*
X207157Y96892D01*
X207739Y97228D01*
X207794Y97267D01*
X207990Y97399D01*
X208508Y97811D01*
X208590Y97833D01*
X208714Y97856D01*
X208785Y97885D01*
X208858Y97905D01*
X209006Y97974D01*
X209087Y98007D01*
X209117Y98027D01*
X209158Y98046D01*
X210344Y98730D01*
X210406Y98775D01*
X210473Y98811D01*
X210569Y98892D01*
X210671Y98965D01*
X210723Y99021D01*
X210781Y99070D01*
X210860Y99168D01*
X210863Y99172D01*
X211489Y99417D01*
X211549Y99448D01*
X211763Y99549D01*
X212336Y99880D01*
X212421Y99889D01*
X212547Y99894D01*
X212621Y99912D01*
X212697Y99920D01*
X212854Y99967D01*
X212938Y99987D01*
X212971Y100002D01*
X213015Y100016D01*
X214289Y100515D01*
X214357Y100550D01*
X214429Y100576D01*
X214536Y100641D01*
X214647Y100699D01*
X214707Y100746D01*
X214772Y100786D01*
X214864Y100871D01*
X214869Y100875D01*
X215524Y101024D01*
X215588Y101045D01*
X215814Y101113D01*
X216431Y101355D01*
X216516Y101352D01*
X216641Y101337D01*
X216717Y101344D01*
X216793Y101341D01*
X216955Y101364D01*
X217042Y101371D01*
X217076Y101381D01*
X217122Y101388D01*
X218456Y101692D01*
X218529Y101716D01*
X218604Y101732D01*
X218719Y101780D01*
X218838Y101820D01*
X218904Y101858D01*
X218975Y101888D01*
X219078Y101958D01*
X219083Y101961D01*
X219754Y102011D01*
X219820Y102023D01*
X220054Y102056D01*
X220699Y102203D01*
X220783Y102187D01*
X220904Y102155D01*
X220980Y102150D01*
X221056Y102135D01*
X221219Y102134D01*
X221306Y102129D01*
X221341Y102133D01*
X221387Y102133D01*
X221587Y102148D01*
X221725Y102172D01*
X221863Y102188D01*
X221922Y102207D01*
X221984Y102218D01*
X222114Y102268D01*
X222246Y102311D01*
X222301Y102341D01*
X222359Y102364D01*
X222476Y102439D01*
X222598Y102507D01*
X222645Y102548D01*
X222698Y102582D01*
X222798Y102679D01*
X222903Y102769D01*
X222942Y102818D01*
X222987Y102862D01*
X223066Y102976D01*
X223152Y103086D01*
X223180Y103142D01*
X223215Y103193D01*
X223270Y103321D01*
X223332Y103446D01*
X223349Y103506D01*
X223373Y103563D01*
X223402Y103700D01*
X223439Y103834D01*
X223443Y103896D01*
X223456Y103958D01*
X223457Y104097D01*
X223466Y104236D01*
X223458Y104298D01*
X223459Y104360D01*
X223432Y104497D01*
X223414Y104635D01*
X223392Y104703D01*
X223382Y104755D01*
X223351Y104830D01*
X223313Y104951D01*
X223010Y105681D01*
X223010Y107792D01*
X223635Y109300D01*
X223639Y109313D01*
X223645Y109325D01*
X223697Y109504D01*
X223751Y109685D01*
X223753Y109699D01*
X223756Y109712D01*
X223772Y109898D01*
X223789Y110086D01*
X223788Y110099D01*
X223789Y110113D01*
X223767Y110299D01*
X223748Y110487D01*
X223744Y110499D01*
X223742Y110513D01*
X223684Y110691D01*
X223628Y110871D01*
X223622Y110883D01*
X223617Y110895D01*
X223525Y111060D01*
X223435Y111224D01*
X223426Y111234D01*
X223420Y111246D01*
X223297Y111388D01*
X223176Y111532D01*
X223165Y111541D01*
X223156Y111551D01*
X223009Y111665D01*
X222861Y111783D01*
X222849Y111789D01*
X222838Y111798D01*
X222670Y111881D01*
X222503Y111967D01*
X222490Y111971D01*
X222478Y111977D01*
X222295Y112026D01*
X222115Y112077D01*
X222102Y112078D01*
X222089Y112081D01*
X221758Y112109D01*
X215163Y112109D01*
X215132Y112105D01*
X215101Y112108D01*
X214931Y112085D01*
X214762Y112069D01*
X214733Y112059D01*
X214701Y112055D01*
X214386Y111954D01*
X212987Y111375D01*
X210876Y111375D01*
X208925Y112182D01*
X207432Y113675D01*
X206625Y115626D01*
X206625Y117737D01*
X207432Y119687D01*
X208925Y121180D01*
X210876Y121988D01*
X212987Y121988D01*
X214386Y121409D01*
X214415Y121400D01*
X214443Y121386D01*
X214608Y121341D01*
X214771Y121292D01*
X214802Y121289D01*
X214832Y121281D01*
X215163Y121254D01*
X231970Y121254D01*
X231997Y121257D01*
X232024Y121255D01*
X232197Y121277D01*
X232371Y121294D01*
X232396Y121302D01*
X232423Y121305D01*
X232589Y121361D01*
X232756Y121412D01*
X232779Y121425D01*
X232805Y121433D01*
X232956Y121521D01*
X233110Y121604D01*
X233130Y121621D01*
X233154Y121634D01*
X233407Y121849D01*
X233531Y121974D01*
X235482Y122782D01*
X237593Y122782D01*
X239544Y121974D01*
X241036Y120481D01*
X241844Y118531D01*
X241844Y116419D01*
X241036Y114469D01*
X239544Y112976D01*
X237593Y112168D01*
X237202Y112168D01*
X237170Y112165D01*
X237139Y112167D01*
X236970Y112145D01*
X236801Y112128D01*
X236771Y112119D01*
X236740Y112115D01*
X236719Y112109D01*
X234876Y112109D01*
X234862Y112107D01*
X234849Y112108D01*
X234663Y112087D01*
X234475Y112069D01*
X234462Y112065D01*
X234449Y112063D01*
X234270Y112006D01*
X234090Y111950D01*
X234078Y111944D01*
X234066Y111940D01*
X233901Y111848D01*
X233736Y111759D01*
X233726Y111750D01*
X233714Y111744D01*
X233571Y111621D01*
X233427Y111501D01*
X233419Y111491D01*
X233408Y111482D01*
X233292Y111333D01*
X233175Y111187D01*
X233168Y111175D01*
X233160Y111165D01*
X233076Y110997D01*
X232989Y110830D01*
X232985Y110817D01*
X232979Y110805D01*
X232930Y110624D01*
X232878Y110443D01*
X232877Y110430D01*
X232873Y110417D01*
X232860Y110227D01*
X232845Y110042D01*
X232846Y110029D01*
X232845Y110015D01*
X232870Y109827D01*
X232892Y109642D01*
X232896Y109629D01*
X232898Y109616D01*
X232999Y109300D01*
X233624Y107792D01*
X233624Y105681D01*
X232721Y103501D01*
X232666Y103320D01*
X232610Y103142D01*
X232608Y103129D01*
X232604Y103116D01*
X232587Y102929D01*
X232566Y102741D01*
X232568Y102728D01*
X232566Y102715D01*
X232586Y102528D01*
X232603Y102341D01*
X232607Y102328D01*
X232608Y102315D01*
X232664Y102135D01*
X232718Y101955D01*
X232724Y101943D01*
X232728Y101930D01*
X232818Y101766D01*
X232906Y101599D01*
X232915Y101589D01*
X232921Y101577D01*
X233042Y101433D01*
X233161Y101287D01*
X233172Y101279D01*
X233180Y101269D01*
X233318Y101159D01*
X233371Y101100D01*
X233448Y101001D01*
X233506Y100951D01*
X233557Y100894D01*
X233658Y100820D01*
X233753Y100738D01*
X233819Y100701D01*
X233881Y100655D01*
X234027Y100583D01*
X234103Y100540D01*
X234137Y100529D01*
X234179Y100509D01*
X235452Y100008D01*
X235526Y99988D01*
X235596Y99958D01*
X235719Y99933D01*
X235840Y99899D01*
X235916Y99893D01*
X235991Y99878D01*
X236116Y99878D01*
X236122Y99877D01*
X236704Y99541D01*
X236765Y99514D01*
X236977Y99409D01*
X237594Y99167D01*
X237654Y99107D01*
X237736Y99012D01*
X237796Y98964D01*
X237850Y98910D01*
X237984Y98817D01*
X238053Y98764D01*
X238085Y98748D01*
X238123Y98721D01*
X239308Y98037D01*
X239377Y98005D01*
X239443Y97965D01*
X239560Y97923D01*
X239674Y97871D01*
X239749Y97854D01*
X239821Y97828D01*
X239945Y97809D01*
X239950Y97808D01*
X240476Y97388D01*
X240532Y97352D01*
X240726Y97217D01*
X241300Y96886D01*
X241350Y96817D01*
X241417Y96711D01*
X241469Y96655D01*
X241515Y96594D01*
X241634Y96482D01*
X241694Y96418D01*
X241723Y96398D01*
X241756Y96366D01*
X242826Y95513D01*
X242890Y95471D01*
X242949Y95422D01*
X243059Y95362D01*
X243164Y95294D01*
X243235Y95266D01*
X243302Y95229D01*
X243422Y95192D01*
X243427Y95190D01*
X243884Y94697D01*
X243935Y94652D01*
X244107Y94490D01*
X244624Y94077D01*
X244664Y94002D01*
X244714Y93887D01*
X244758Y93824D01*
X244793Y93756D01*
X244894Y93628D01*
X244944Y93556D01*
X244970Y93532D01*
X244998Y93496D01*
X245929Y92492D01*
X245986Y92442D01*
X246037Y92384D01*
X246136Y92309D01*
X246230Y92226D01*
X246297Y92187D01*
X246358Y92141D01*
X246470Y92087D01*
X246475Y92084D01*
X246854Y91528D01*
X246897Y91476D01*
X247043Y91291D01*
X247455Y90846D01*
X247599Y90718D01*
X247744Y90589D01*
X247751Y90585D01*
X247757Y90579D01*
X247923Y90483D01*
X248090Y90384D01*
X248098Y90382D01*
X248105Y90377D01*
X248288Y90315D01*
X248471Y90252D01*
X248479Y90251D01*
X248486Y90248D01*
X248679Y90223D01*
X248869Y90197D01*
X248878Y90198D01*
X248886Y90197D01*
X249080Y90210D01*
X249271Y90222D01*
X249279Y90224D01*
X249287Y90225D01*
X249474Y90276D01*
X249660Y90326D01*
X249668Y90330D01*
X249676Y90332D01*
X249720Y90354D01*
X249960Y90468D01*
X281446Y108646D01*
X282273Y106887D01*
X282291Y106864D01*
X282301Y106837D01*
X282350Y106785D01*
X282392Y106728D01*
X282417Y106713D01*
X282437Y106692D01*
X282502Y106663D01*
X282564Y106628D01*
X282593Y106624D01*
X282619Y106612D01*
X282690Y106611D01*
X282761Y106602D01*
X282789Y106610D01*
X282818Y106610D01*
X282911Y106644D01*
X282952Y106656D01*
X282961Y106663D01*
X282974Y106667D01*
X299225Y116024D01*
X315476Y106667D01*
X315504Y106658D01*
X315528Y106641D01*
X315597Y106627D01*
X315665Y106604D01*
X315694Y106607D01*
X315722Y106601D01*
X315792Y106615D01*
X315863Y106620D01*
X315889Y106634D01*
X315917Y106639D01*
X315976Y106679D01*
X316039Y106712D01*
X316058Y106734D01*
X316082Y106751D01*
X316139Y106833D01*
X316166Y106865D01*
X316169Y106876D01*
X316177Y106887D01*
X317004Y108646D01*
X433444Y41421D01*
X432314Y39784D01*
X432303Y39757D01*
X432284Y39735D01*
X432264Y39666D01*
X432236Y39601D01*
X432236Y39572D01*
X432228Y39544D01*
X432236Y39473D01*
X432236Y39402D01*
X432247Y39375D01*
X432250Y39346D01*
X432285Y39284D01*
X432313Y39219D01*
X432333Y39198D01*
X432348Y39173D01*
X432411Y39121D01*
X432415Y39116D01*
X432424Y39110D01*
X432425Y39110D01*
X432455Y39080D01*
X432465Y39076D01*
X432476Y39067D01*
X448976Y29567D01*
X449049Y29543D01*
X449119Y29512D01*
X449143Y29512D01*
X449165Y29504D01*
X449241Y29511D01*
G37*
%LPC*%
G36*
X494244Y89150D02*
X494244Y89150D01*
X492294Y89957D01*
X490801Y91450D01*
X489993Y93401D01*
X489993Y95512D01*
X490801Y97462D01*
X491148Y97809D01*
X491165Y97830D01*
X491186Y97848D01*
X491293Y97986D01*
X491403Y98121D01*
X491416Y98145D01*
X491432Y98166D01*
X491510Y98323D01*
X491592Y98477D01*
X491600Y98502D01*
X491612Y98526D01*
X491657Y98696D01*
X491707Y98863D01*
X491709Y98889D01*
X491716Y98915D01*
X491743Y99246D01*
X491743Y103073D01*
X507979Y119309D01*
X507985Y119316D01*
X507991Y119322D01*
X508112Y119471D01*
X508234Y119620D01*
X508238Y119628D01*
X508244Y119635D01*
X508332Y119806D01*
X508423Y119976D01*
X508425Y119985D01*
X508429Y119993D01*
X508483Y120177D01*
X508537Y120362D01*
X508538Y120371D01*
X508541Y120380D01*
X508556Y120568D01*
X508574Y120763D01*
X508573Y120772D01*
X508574Y120781D01*
X508552Y120967D01*
X508530Y121163D01*
X508528Y121172D01*
X508527Y121181D01*
X508467Y121363D01*
X508409Y121547D01*
X508405Y121555D01*
X508402Y121563D01*
X508307Y121732D01*
X508214Y121899D01*
X508208Y121906D01*
X508204Y121914D01*
X508078Y122060D01*
X507954Y122206D01*
X507947Y122212D01*
X507941Y122219D01*
X507789Y122336D01*
X507638Y122456D01*
X507630Y122460D01*
X507623Y122466D01*
X507451Y122551D01*
X507279Y122638D01*
X507270Y122641D01*
X507262Y122645D01*
X507076Y122695D01*
X506891Y122746D01*
X506882Y122747D01*
X506873Y122749D01*
X506543Y122777D01*
X329680Y122777D01*
X327252Y123782D01*
X314280Y136755D01*
X314259Y136772D01*
X314241Y136792D01*
X314104Y136899D01*
X313968Y137010D01*
X313945Y137022D01*
X313923Y137039D01*
X313766Y137117D01*
X313612Y137199D01*
X313587Y137206D01*
X313563Y137218D01*
X313393Y137264D01*
X313227Y137313D01*
X313200Y137316D01*
X313174Y137323D01*
X312843Y137350D01*
X227224Y137350D01*
X226371Y137703D01*
X226341Y137712D01*
X226313Y137726D01*
X226148Y137770D01*
X225985Y137820D01*
X225954Y137823D01*
X225924Y137831D01*
X225593Y137858D01*
X176486Y137858D01*
X174059Y138863D01*
X131720Y181202D01*
X130714Y183630D01*
X130714Y247756D01*
X130711Y247782D01*
X130713Y247809D01*
X130691Y247983D01*
X130674Y248156D01*
X130666Y248182D01*
X130663Y248209D01*
X130607Y248374D01*
X130556Y248541D01*
X130543Y248565D01*
X130535Y248590D01*
X130447Y248742D01*
X130364Y248895D01*
X130347Y248916D01*
X130334Y248939D01*
X130119Y249192D01*
X102208Y277103D01*
X101202Y279531D01*
X101202Y282158D01*
X102208Y284586D01*
X104066Y286444D01*
X106493Y287449D01*
X109121Y287449D01*
X111548Y286444D01*
X142918Y255074D01*
X143923Y252647D01*
X143923Y188521D01*
X143926Y188494D01*
X143924Y188468D01*
X143946Y188294D01*
X143963Y188120D01*
X143971Y188095D01*
X143975Y188068D01*
X144030Y187902D01*
X144082Y187735D01*
X144094Y187712D01*
X144103Y187686D01*
X144190Y187535D01*
X144273Y187381D01*
X144290Y187361D01*
X144304Y187338D01*
X144518Y187085D01*
X179941Y151662D01*
X179962Y151645D01*
X179979Y151625D01*
X180117Y151518D01*
X180252Y151407D01*
X180276Y151395D01*
X180297Y151378D01*
X180454Y151300D01*
X180608Y151218D01*
X180634Y151211D01*
X180658Y151199D01*
X180827Y151153D01*
X180994Y151104D01*
X181021Y151101D01*
X181046Y151094D01*
X181377Y151067D01*
X221908Y151067D01*
X221917Y151068D01*
X221926Y151067D01*
X222117Y151088D01*
X222309Y151107D01*
X222317Y151110D01*
X222326Y151111D01*
X222509Y151169D01*
X222694Y151225D01*
X222701Y151230D01*
X222710Y151232D01*
X222879Y151325D01*
X223048Y151417D01*
X223054Y151423D01*
X223062Y151427D01*
X223211Y151553D01*
X223357Y151675D01*
X223362Y151682D01*
X223369Y151688D01*
X223488Y151838D01*
X223609Y151989D01*
X223613Y151996D01*
X223619Y152004D01*
X223706Y152175D01*
X223795Y152346D01*
X223797Y152354D01*
X223801Y152362D01*
X223853Y152548D01*
X223906Y152733D01*
X223907Y152742D01*
X223909Y152750D01*
X223923Y152942D01*
X223939Y153134D01*
X223938Y153143D01*
X223939Y153152D01*
X223914Y153344D01*
X223892Y153534D01*
X223889Y153542D01*
X223888Y153551D01*
X223827Y153733D01*
X223767Y153917D01*
X223763Y153925D01*
X223760Y153933D01*
X223664Y154099D01*
X223569Y154267D01*
X223563Y154274D01*
X223559Y154282D01*
X223344Y154535D01*
X222972Y154907D01*
X205981Y171898D01*
X205960Y171915D01*
X205943Y171936D01*
X205805Y172043D01*
X205669Y172153D01*
X205646Y172166D01*
X205624Y172182D01*
X205468Y172260D01*
X205314Y172342D01*
X205288Y172350D01*
X205264Y172362D01*
X205095Y172407D01*
X204928Y172457D01*
X204901Y172459D01*
X204875Y172466D01*
X204544Y172493D01*
X203335Y172493D01*
X201385Y173301D01*
X199892Y174794D01*
X199084Y176744D01*
X199084Y178856D01*
X199892Y180806D01*
X201087Y182001D01*
X201098Y182015D01*
X201112Y182027D01*
X201226Y182171D01*
X201342Y182313D01*
X201350Y182328D01*
X201361Y182342D01*
X201445Y182506D01*
X201531Y182668D01*
X201536Y182685D01*
X201544Y182701D01*
X201593Y182879D01*
X201645Y183054D01*
X201647Y183072D01*
X201652Y183089D01*
X201665Y183272D01*
X201682Y183455D01*
X201680Y183473D01*
X201681Y183491D01*
X201658Y183673D01*
X201638Y183856D01*
X201633Y183873D01*
X201631Y183890D01*
X201572Y184064D01*
X201517Y184239D01*
X201508Y184255D01*
X201503Y184272D01*
X201411Y184431D01*
X201322Y184592D01*
X201311Y184605D01*
X201302Y184621D01*
X201087Y184874D01*
X199892Y186069D01*
X199084Y188019D01*
X199084Y190131D01*
X199892Y192081D01*
X200690Y192879D01*
X200701Y192893D01*
X200715Y192905D01*
X200829Y193048D01*
X200945Y193191D01*
X200954Y193207D01*
X200965Y193221D01*
X201048Y193384D01*
X201134Y193546D01*
X201139Y193564D01*
X201147Y193580D01*
X201196Y193756D01*
X201249Y193932D01*
X201250Y193950D01*
X201255Y193967D01*
X201268Y194150D01*
X201285Y194333D01*
X201283Y194351D01*
X201284Y194369D01*
X201261Y194551D01*
X201242Y194734D01*
X201236Y194751D01*
X201234Y194768D01*
X201176Y194942D01*
X201120Y195117D01*
X201111Y195133D01*
X201106Y195150D01*
X201014Y195309D01*
X200925Y195470D01*
X200914Y195483D01*
X200905Y195499D01*
X200690Y195752D01*
X199892Y196550D01*
X199084Y198501D01*
X199084Y200612D01*
X199892Y202562D01*
X201385Y204055D01*
X203335Y204863D01*
X205446Y204863D01*
X207397Y204055D01*
X208889Y202562D01*
X209697Y200612D01*
X209697Y200268D01*
X209700Y200242D01*
X209698Y200215D01*
X209720Y200041D01*
X209737Y199867D01*
X209745Y199842D01*
X209748Y199815D01*
X209804Y199650D01*
X209855Y199483D01*
X209868Y199459D01*
X209877Y199434D01*
X209964Y199282D01*
X210047Y199129D01*
X210064Y199108D01*
X210078Y199085D01*
X210292Y198832D01*
X238793Y170331D01*
X238814Y170314D01*
X238831Y170294D01*
X238969Y170187D01*
X239104Y170076D01*
X239128Y170064D01*
X239149Y170047D01*
X239306Y169969D01*
X239460Y169887D01*
X239486Y169880D01*
X239510Y169868D01*
X239679Y169822D01*
X239846Y169773D01*
X239873Y169770D01*
X239898Y169763D01*
X240229Y169736D01*
X261529Y169736D01*
X261542Y169738D01*
X261555Y169736D01*
X261742Y169757D01*
X261929Y169776D01*
X261942Y169780D01*
X261955Y169782D01*
X262133Y169839D01*
X262314Y169894D01*
X262326Y169901D01*
X262339Y169905D01*
X262502Y169996D01*
X262668Y170086D01*
X262678Y170095D01*
X262690Y170101D01*
X262833Y170224D01*
X262977Y170344D01*
X262986Y170354D01*
X262996Y170363D01*
X263112Y170512D01*
X263230Y170658D01*
X263236Y170669D01*
X263244Y170680D01*
X263329Y170849D01*
X263415Y171015D01*
X263419Y171028D01*
X263425Y171040D01*
X263475Y171222D01*
X263527Y171402D01*
X263528Y171415D01*
X263531Y171428D01*
X263544Y171616D01*
X263559Y171803D01*
X263558Y171816D01*
X263559Y171830D01*
X263534Y172017D01*
X263513Y172203D01*
X263508Y172216D01*
X263507Y172229D01*
X263405Y172545D01*
X262981Y173569D01*
X262981Y175681D01*
X263789Y177631D01*
X264644Y178486D01*
X264661Y178507D01*
X264681Y178524D01*
X264788Y178662D01*
X264899Y178798D01*
X264911Y178821D01*
X264928Y178842D01*
X265006Y178999D01*
X265088Y179153D01*
X265095Y179179D01*
X265107Y179203D01*
X265153Y179372D01*
X265202Y179539D01*
X265205Y179566D01*
X265212Y179592D01*
X265239Y179923D01*
X265239Y187082D01*
X267620Y189462D01*
X277137Y198979D01*
X277154Y199000D01*
X277174Y199018D01*
X277281Y199155D01*
X277392Y199291D01*
X277404Y199315D01*
X277421Y199336D01*
X277498Y199492D01*
X277580Y199647D01*
X277588Y199672D01*
X277600Y199696D01*
X277645Y199865D01*
X277695Y200032D01*
X277697Y200059D01*
X277704Y200085D01*
X277732Y200416D01*
X277732Y209625D01*
X278625Y210518D01*
X282176Y210518D01*
X282194Y210520D01*
X282212Y210519D01*
X282394Y210540D01*
X282577Y210558D01*
X282594Y210564D01*
X282612Y210566D01*
X282786Y210623D01*
X282962Y210677D01*
X282977Y210685D01*
X282994Y210691D01*
X283155Y210781D01*
X283316Y210868D01*
X283329Y210880D01*
X283345Y210888D01*
X283484Y211009D01*
X283625Y211126D01*
X283636Y211140D01*
X283650Y211152D01*
X283762Y211297D01*
X283877Y211440D01*
X283886Y211456D01*
X283897Y211470D01*
X283979Y211635D01*
X284063Y211797D01*
X284068Y211814D01*
X284076Y211830D01*
X284124Y212008D01*
X284174Y212184D01*
X284176Y212202D01*
X284180Y212219D01*
X284208Y212550D01*
X284208Y220438D01*
X284206Y220456D01*
X284207Y220473D01*
X284186Y220656D01*
X284168Y220838D01*
X284162Y220855D01*
X284160Y220873D01*
X284103Y221048D01*
X284049Y221223D01*
X284041Y221239D01*
X284035Y221256D01*
X283945Y221416D01*
X283858Y221577D01*
X283846Y221591D01*
X283838Y221607D01*
X283717Y221746D01*
X283600Y221887D01*
X283586Y221898D01*
X283574Y221911D01*
X283429Y222024D01*
X283286Y222139D01*
X283270Y222147D01*
X283256Y222158D01*
X283091Y222240D01*
X282929Y222324D01*
X282912Y222329D01*
X282896Y222337D01*
X282718Y222385D01*
X282542Y222436D01*
X282524Y222437D01*
X282507Y222442D01*
X282176Y222469D01*
X278625Y222469D01*
X277732Y223362D01*
X277732Y234625D01*
X278625Y235518D01*
X295888Y235518D01*
X296781Y234625D01*
X296781Y223362D01*
X295888Y222469D01*
X292336Y222469D01*
X292318Y222467D01*
X292301Y222469D01*
X292118Y222447D01*
X291936Y222429D01*
X291919Y222424D01*
X291901Y222422D01*
X291726Y222365D01*
X291551Y222311D01*
X291535Y222302D01*
X291518Y222297D01*
X291358Y222207D01*
X291197Y222119D01*
X291183Y222108D01*
X291167Y222099D01*
X291028Y221979D01*
X290887Y221861D01*
X290876Y221848D01*
X290863Y221836D01*
X290750Y221691D01*
X290635Y221548D01*
X290627Y221532D01*
X290616Y221518D01*
X290534Y221353D01*
X290450Y221190D01*
X290445Y221173D01*
X290437Y221157D01*
X290389Y220979D01*
X290338Y220803D01*
X290337Y220786D01*
X290332Y220768D01*
X290305Y220438D01*
X290305Y212550D01*
X290307Y212532D01*
X290305Y212514D01*
X290327Y212331D01*
X290345Y212149D01*
X290350Y212132D01*
X290352Y212114D01*
X290409Y211940D01*
X290463Y211764D01*
X290472Y211749D01*
X290477Y211732D01*
X290567Y211571D01*
X290655Y211410D01*
X290666Y211397D01*
X290675Y211381D01*
X290795Y211242D01*
X290913Y211101D01*
X290926Y211090D01*
X290938Y211076D01*
X291083Y210963D01*
X291226Y210849D01*
X291242Y210840D01*
X291256Y210829D01*
X291421Y210747D01*
X291584Y210663D01*
X291601Y210658D01*
X291617Y210650D01*
X291795Y210602D01*
X291971Y210552D01*
X291988Y210550D01*
X292006Y210546D01*
X292336Y210518D01*
X295888Y210518D01*
X296781Y209625D01*
X296781Y198362D01*
X295888Y197469D01*
X285091Y197469D01*
X285064Y197466D01*
X285037Y197468D01*
X284863Y197446D01*
X284690Y197429D01*
X284665Y197421D01*
X284638Y197418D01*
X284472Y197362D01*
X284305Y197311D01*
X284282Y197298D01*
X284256Y197290D01*
X284105Y197202D01*
X283951Y197119D01*
X283931Y197102D01*
X283907Y197089D01*
X283654Y196874D01*
X271931Y185151D01*
X271914Y185130D01*
X271894Y185113D01*
X271787Y184975D01*
X271676Y184839D01*
X271664Y184816D01*
X271647Y184795D01*
X271569Y184638D01*
X271487Y184484D01*
X271480Y184458D01*
X271468Y184434D01*
X271422Y184265D01*
X271373Y184098D01*
X271370Y184071D01*
X271363Y184045D01*
X271336Y183715D01*
X271336Y179923D01*
X271339Y179896D01*
X271337Y179869D01*
X271359Y179695D01*
X271376Y179522D01*
X271384Y179496D01*
X271387Y179470D01*
X271443Y179304D01*
X271494Y179137D01*
X271507Y179113D01*
X271516Y179088D01*
X271603Y178936D01*
X271686Y178783D01*
X271703Y178762D01*
X271716Y178739D01*
X271931Y178486D01*
X272786Y177631D01*
X273594Y175681D01*
X273594Y173569D01*
X273170Y172545D01*
X273166Y172532D01*
X273160Y172520D01*
X273108Y172340D01*
X273053Y172159D01*
X273052Y172146D01*
X273048Y172133D01*
X273033Y171946D01*
X273015Y171759D01*
X273017Y171745D01*
X273016Y171732D01*
X273037Y171546D01*
X273057Y171358D01*
X273061Y171345D01*
X273062Y171332D01*
X273121Y171153D01*
X273177Y170974D01*
X273183Y170962D01*
X273187Y170949D01*
X273280Y170785D01*
X273370Y170621D01*
X273379Y170610D01*
X273385Y170599D01*
X273508Y170456D01*
X273629Y170312D01*
X273640Y170304D01*
X273648Y170294D01*
X273796Y170179D01*
X273944Y170061D01*
X273956Y170055D01*
X273966Y170047D01*
X274135Y169964D01*
X274302Y169878D01*
X274315Y169874D01*
X274327Y169868D01*
X274510Y169819D01*
X274689Y169768D01*
X274703Y169767D01*
X274716Y169763D01*
X275046Y169736D01*
X276454Y169736D01*
X276463Y169737D01*
X276471Y169736D01*
X276662Y169757D01*
X276854Y169776D01*
X276863Y169779D01*
X276872Y169780D01*
X277055Y169838D01*
X277239Y169894D01*
X277247Y169899D01*
X277256Y169901D01*
X277423Y169994D01*
X277593Y170086D01*
X277600Y170092D01*
X277608Y170096D01*
X277755Y170221D01*
X277902Y170344D01*
X277908Y170351D01*
X277915Y170357D01*
X278035Y170509D01*
X278155Y170658D01*
X278159Y170665D01*
X278164Y170672D01*
X278252Y170845D01*
X278340Y171015D01*
X278343Y171023D01*
X278347Y171031D01*
X278398Y171215D01*
X278452Y171402D01*
X278452Y171411D01*
X278455Y171419D01*
X278469Y171609D01*
X278485Y171803D01*
X278484Y171812D01*
X278484Y171821D01*
X278460Y172012D01*
X278438Y172203D01*
X278435Y172211D01*
X278434Y172220D01*
X278373Y172402D01*
X278313Y172586D01*
X278308Y172593D01*
X278306Y172602D01*
X278209Y172769D01*
X278115Y172936D01*
X278109Y172943D01*
X278105Y172951D01*
X277890Y173204D01*
X277732Y173362D01*
X277732Y184625D01*
X278625Y185518D01*
X295888Y185518D01*
X296781Y184625D01*
X296781Y184074D01*
X296783Y184056D01*
X296781Y184038D01*
X296803Y183856D01*
X296821Y183673D01*
X296826Y183656D01*
X296828Y183638D01*
X296885Y183463D01*
X296939Y183288D01*
X296948Y183273D01*
X296953Y183256D01*
X297044Y183095D01*
X297131Y182934D01*
X297142Y182921D01*
X297151Y182905D01*
X297271Y182766D01*
X297389Y182625D01*
X297402Y182614D01*
X297414Y182600D01*
X297559Y182488D01*
X297702Y182373D01*
X297718Y182364D01*
X297732Y182353D01*
X297897Y182271D01*
X298060Y182187D01*
X298077Y182182D01*
X298093Y182174D01*
X298271Y182126D01*
X298447Y182076D01*
X298464Y182074D01*
X298482Y182070D01*
X298812Y182042D01*
X299700Y182042D01*
X299718Y182044D01*
X299736Y182043D01*
X299918Y182064D01*
X300101Y182082D01*
X300118Y182088D01*
X300136Y182090D01*
X300310Y182147D01*
X300486Y182201D01*
X300501Y182209D01*
X300518Y182215D01*
X300679Y182305D01*
X300840Y182392D01*
X300853Y182404D01*
X300869Y182412D01*
X301008Y182533D01*
X301149Y182650D01*
X301160Y182664D01*
X301174Y182676D01*
X301286Y182821D01*
X301401Y182964D01*
X301410Y182980D01*
X301421Y182994D01*
X301503Y183159D01*
X301587Y183321D01*
X301592Y183338D01*
X301600Y183354D01*
X301648Y183532D01*
X301698Y183708D01*
X301700Y183726D01*
X301704Y183743D01*
X301732Y184074D01*
X301732Y184625D01*
X302625Y185518D01*
X319888Y185518D01*
X320781Y184625D01*
X320781Y184074D01*
X320783Y184056D01*
X320781Y184038D01*
X320803Y183856D01*
X320821Y183673D01*
X320826Y183656D01*
X320828Y183638D01*
X320885Y183463D01*
X320939Y183288D01*
X320948Y183273D01*
X320953Y183256D01*
X321044Y183095D01*
X321131Y182934D01*
X321142Y182921D01*
X321151Y182905D01*
X321271Y182766D01*
X321389Y182625D01*
X321402Y182614D01*
X321414Y182600D01*
X321559Y182488D01*
X321702Y182373D01*
X321718Y182364D01*
X321732Y182353D01*
X321897Y182271D01*
X322060Y182187D01*
X322077Y182182D01*
X322093Y182174D01*
X322271Y182126D01*
X322447Y182076D01*
X322464Y182074D01*
X322482Y182070D01*
X322812Y182042D01*
X330561Y182042D01*
X330570Y182043D01*
X330579Y182043D01*
X330772Y182064D01*
X330961Y182082D01*
X330970Y182085D01*
X330979Y182086D01*
X331163Y182144D01*
X331346Y182201D01*
X331354Y182205D01*
X331363Y182207D01*
X331531Y182301D01*
X331700Y182392D01*
X331707Y182398D01*
X331715Y182402D01*
X331862Y182527D01*
X332010Y182650D01*
X332015Y182657D01*
X332022Y182663D01*
X332142Y182814D01*
X332262Y182964D01*
X332266Y182972D01*
X332272Y182979D01*
X332359Y183151D01*
X332448Y183321D01*
X332450Y183330D01*
X332454Y183338D01*
X332506Y183524D01*
X332559Y183708D01*
X332560Y183717D01*
X332562Y183726D01*
X332576Y183918D01*
X332592Y184109D01*
X332591Y184118D01*
X332591Y184127D01*
X332567Y184319D01*
X332545Y184509D01*
X332542Y184518D01*
X332541Y184526D01*
X332480Y184709D01*
X332420Y184892D01*
X332416Y184900D01*
X332413Y184908D01*
X332317Y185075D01*
X332222Y185243D01*
X332216Y185249D01*
X332212Y185257D01*
X331997Y185510D01*
X320633Y196874D01*
X320612Y196891D01*
X320595Y196911D01*
X320457Y197018D01*
X320322Y197129D01*
X320298Y197142D01*
X320277Y197158D01*
X320120Y197236D01*
X319966Y197318D01*
X319940Y197325D01*
X319916Y197337D01*
X319747Y197383D01*
X319580Y197433D01*
X319553Y197435D01*
X319528Y197442D01*
X319197Y197469D01*
X302625Y197469D01*
X301732Y198362D01*
X301732Y209625D01*
X302625Y210518D01*
X306176Y210518D01*
X306194Y210520D01*
X306212Y210519D01*
X306394Y210540D01*
X306577Y210558D01*
X306594Y210564D01*
X306612Y210566D01*
X306786Y210623D01*
X306962Y210677D01*
X306977Y210685D01*
X306994Y210691D01*
X307155Y210781D01*
X307316Y210868D01*
X307329Y210880D01*
X307345Y210888D01*
X307484Y211009D01*
X307625Y211126D01*
X307636Y211140D01*
X307650Y211152D01*
X307762Y211297D01*
X307877Y211440D01*
X307886Y211456D01*
X307897Y211470D01*
X307979Y211635D01*
X308063Y211797D01*
X308068Y211814D01*
X308076Y211830D01*
X308124Y212008D01*
X308174Y212184D01*
X308176Y212202D01*
X308180Y212219D01*
X308208Y212550D01*
X308208Y220438D01*
X308206Y220456D01*
X308207Y220473D01*
X308186Y220656D01*
X308168Y220838D01*
X308162Y220855D01*
X308160Y220873D01*
X308103Y221048D01*
X308049Y221223D01*
X308041Y221239D01*
X308035Y221256D01*
X307945Y221416D01*
X307858Y221577D01*
X307846Y221591D01*
X307838Y221607D01*
X307717Y221746D01*
X307600Y221887D01*
X307586Y221898D01*
X307574Y221911D01*
X307429Y222024D01*
X307286Y222139D01*
X307270Y222147D01*
X307256Y222158D01*
X307091Y222240D01*
X306929Y222324D01*
X306912Y222329D01*
X306896Y222337D01*
X306718Y222385D01*
X306542Y222436D01*
X306524Y222437D01*
X306507Y222442D01*
X306176Y222469D01*
X302625Y222469D01*
X301732Y223362D01*
X301732Y234625D01*
X302625Y235518D01*
X319888Y235518D01*
X320781Y234625D01*
X320781Y223362D01*
X319888Y222469D01*
X316336Y222469D01*
X316318Y222467D01*
X316301Y222469D01*
X316118Y222447D01*
X315936Y222429D01*
X315919Y222424D01*
X315901Y222422D01*
X315726Y222365D01*
X315551Y222311D01*
X315535Y222302D01*
X315518Y222297D01*
X315358Y222207D01*
X315197Y222119D01*
X315183Y222108D01*
X315167Y222099D01*
X315028Y221979D01*
X314887Y221861D01*
X314876Y221848D01*
X314863Y221836D01*
X314750Y221691D01*
X314635Y221548D01*
X314627Y221532D01*
X314616Y221518D01*
X314534Y221353D01*
X314450Y221190D01*
X314445Y221173D01*
X314437Y221157D01*
X314389Y220979D01*
X314338Y220803D01*
X314337Y220786D01*
X314332Y220768D01*
X314305Y220438D01*
X314305Y212550D01*
X314307Y212532D01*
X314305Y212514D01*
X314327Y212331D01*
X314345Y212149D01*
X314350Y212132D01*
X314352Y212114D01*
X314409Y211940D01*
X314463Y211764D01*
X314472Y211749D01*
X314477Y211732D01*
X314567Y211571D01*
X314655Y211410D01*
X314666Y211397D01*
X314675Y211381D01*
X314795Y211242D01*
X314913Y211101D01*
X314926Y211090D01*
X314938Y211076D01*
X315083Y210963D01*
X315226Y210849D01*
X315242Y210840D01*
X315256Y210829D01*
X315421Y210747D01*
X315584Y210663D01*
X315601Y210658D01*
X315617Y210650D01*
X315795Y210602D01*
X315971Y210552D01*
X315988Y210550D01*
X316006Y210546D01*
X316336Y210518D01*
X319888Y210518D01*
X320781Y209625D01*
X320781Y206191D01*
X320784Y206164D01*
X320782Y206137D01*
X320804Y205963D01*
X320821Y205790D01*
X320829Y205765D01*
X320832Y205738D01*
X320888Y205572D01*
X320939Y205405D01*
X320952Y205382D01*
X320960Y205356D01*
X321048Y205205D01*
X321131Y205051D01*
X321148Y205031D01*
X321161Y205007D01*
X321376Y204754D01*
X334152Y191978D01*
X334170Y191964D01*
X334184Y191947D01*
X334325Y191836D01*
X334464Y191723D01*
X334483Y191712D01*
X334501Y191699D01*
X334662Y191618D01*
X334820Y191534D01*
X334841Y191528D01*
X334861Y191518D01*
X335034Y191470D01*
X335205Y191419D01*
X335228Y191417D01*
X335249Y191412D01*
X335428Y191399D01*
X335606Y191383D01*
X335629Y191385D01*
X335651Y191384D01*
X335829Y191407D01*
X336007Y191426D01*
X336028Y191433D01*
X336050Y191436D01*
X336366Y191538D01*
X337876Y192163D01*
X339987Y192163D01*
X341937Y191355D01*
X343430Y189862D01*
X344238Y187912D01*
X344238Y185801D01*
X343430Y183850D01*
X342947Y183368D01*
X342936Y183354D01*
X342922Y183342D01*
X342808Y183198D01*
X342692Y183056D01*
X342684Y183040D01*
X342673Y183026D01*
X342589Y182861D01*
X342504Y182700D01*
X342499Y182683D01*
X342491Y182667D01*
X342441Y182490D01*
X342389Y182314D01*
X342387Y182297D01*
X342383Y182279D01*
X342369Y182096D01*
X342353Y181913D01*
X342354Y181896D01*
X342353Y181878D01*
X342376Y181696D01*
X342396Y181513D01*
X342401Y181496D01*
X342404Y181478D01*
X342462Y181305D01*
X342517Y181129D01*
X342526Y181114D01*
X342532Y181097D01*
X342624Y180937D01*
X342712Y180777D01*
X342724Y180763D01*
X342733Y180748D01*
X342947Y180495D01*
X343430Y180012D01*
X344238Y178062D01*
X344238Y176883D01*
X344239Y176875D01*
X344238Y176866D01*
X344259Y176672D01*
X344278Y176483D01*
X344280Y176474D01*
X344281Y176465D01*
X344340Y176280D01*
X344396Y176098D01*
X344400Y176090D01*
X344403Y176082D01*
X344496Y175913D01*
X344588Y175744D01*
X344593Y175737D01*
X344598Y175729D01*
X344723Y175582D01*
X344846Y175435D01*
X344852Y175429D01*
X344858Y175422D01*
X345010Y175302D01*
X345159Y175182D01*
X345167Y175178D01*
X345174Y175173D01*
X345347Y175085D01*
X345517Y174997D01*
X345525Y174994D01*
X345533Y174990D01*
X345720Y174938D01*
X345904Y174885D01*
X345912Y174885D01*
X345921Y174882D01*
X346114Y174868D01*
X346305Y174853D01*
X346314Y174854D01*
X346323Y174853D01*
X346515Y174877D01*
X346705Y174899D01*
X346713Y174902D01*
X346722Y174903D01*
X346904Y174965D01*
X347087Y175024D01*
X347095Y175029D01*
X347104Y175032D01*
X347271Y175128D01*
X347438Y175222D01*
X347445Y175228D01*
X347453Y175232D01*
X347706Y175447D01*
X370022Y197763D01*
X370027Y197770D01*
X370034Y197776D01*
X370154Y197925D01*
X370277Y198075D01*
X370281Y198083D01*
X370286Y198090D01*
X370375Y198261D01*
X370465Y198430D01*
X370468Y198439D01*
X370472Y198447D01*
X370525Y198632D01*
X370580Y198816D01*
X370581Y198825D01*
X370583Y198834D01*
X370599Y199025D01*
X370616Y199217D01*
X370616Y199226D01*
X370616Y199235D01*
X370594Y199424D01*
X370573Y199618D01*
X370570Y199626D01*
X370569Y199635D01*
X370510Y199815D01*
X370452Y200001D01*
X370447Y200009D01*
X370444Y200018D01*
X370350Y200186D01*
X370257Y200354D01*
X370251Y200360D01*
X370247Y200368D01*
X370121Y200514D01*
X369996Y200661D01*
X369989Y200666D01*
X369983Y200673D01*
X369832Y200790D01*
X369680Y200910D01*
X369672Y200914D01*
X369665Y200920D01*
X369493Y201005D01*
X369321Y201093D01*
X369313Y201095D01*
X369305Y201099D01*
X369118Y201149D01*
X368934Y201201D01*
X368925Y201201D01*
X368916Y201204D01*
X368585Y201231D01*
X342133Y201231D01*
X342107Y201228D01*
X342080Y201230D01*
X341906Y201208D01*
X341733Y201191D01*
X341707Y201183D01*
X341681Y201180D01*
X341515Y201124D01*
X341348Y201073D01*
X341324Y201060D01*
X341299Y201051D01*
X341147Y200964D01*
X340994Y200881D01*
X340973Y200864D01*
X340950Y200851D01*
X340697Y200636D01*
X340350Y200289D01*
X338399Y199481D01*
X336288Y199481D01*
X334338Y200289D01*
X332845Y201781D01*
X332037Y203732D01*
X332037Y205843D01*
X332845Y207794D01*
X334338Y209286D01*
X336288Y210094D01*
X338399Y210094D01*
X340350Y209286D01*
X340697Y208939D01*
X340718Y208922D01*
X340735Y208902D01*
X340873Y208795D01*
X341008Y208684D01*
X341032Y208672D01*
X341053Y208655D01*
X341210Y208577D01*
X341364Y208495D01*
X341390Y208488D01*
X341414Y208476D01*
X341583Y208430D01*
X341750Y208381D01*
X341777Y208378D01*
X341803Y208371D01*
X342133Y208344D01*
X365985Y208344D01*
X366012Y208347D01*
X366039Y208345D01*
X366213Y208367D01*
X366386Y208384D01*
X366411Y208392D01*
X366438Y208395D01*
X366604Y208451D01*
X366771Y208502D01*
X366795Y208515D01*
X366820Y208524D01*
X366971Y208611D01*
X367125Y208694D01*
X367145Y208711D01*
X367169Y208724D01*
X367422Y208939D01*
X372072Y213590D01*
X372078Y213597D01*
X372085Y213603D01*
X372205Y213752D01*
X372328Y213901D01*
X372332Y213909D01*
X372337Y213916D01*
X372426Y214087D01*
X372516Y214257D01*
X372519Y214266D01*
X372523Y214274D01*
X372576Y214458D01*
X372631Y214643D01*
X372632Y214652D01*
X372634Y214661D01*
X372650Y214851D01*
X372667Y215044D01*
X372666Y215053D01*
X372667Y215062D01*
X372645Y215249D01*
X372624Y215444D01*
X372621Y215453D01*
X372620Y215462D01*
X372561Y215644D01*
X372502Y215828D01*
X372498Y215836D01*
X372495Y215844D01*
X372400Y216013D01*
X372308Y216180D01*
X372302Y216187D01*
X372297Y216195D01*
X372171Y216341D01*
X372047Y216487D01*
X372040Y216493D01*
X372034Y216500D01*
X371883Y216617D01*
X371731Y216737D01*
X371723Y216741D01*
X371716Y216747D01*
X371544Y216832D01*
X371372Y216919D01*
X371364Y216922D01*
X371356Y216926D01*
X371170Y216976D01*
X370984Y217027D01*
X370975Y217028D01*
X370967Y217030D01*
X370636Y217058D01*
X370191Y217058D01*
X368241Y217865D01*
X366748Y219358D01*
X365940Y221309D01*
X365940Y223420D01*
X366748Y225370D01*
X368241Y226863D01*
X370191Y227671D01*
X370682Y227671D01*
X370708Y227674D01*
X370735Y227672D01*
X370909Y227694D01*
X371083Y227711D01*
X371108Y227719D01*
X371135Y227722D01*
X371300Y227778D01*
X371467Y227829D01*
X371491Y227842D01*
X371516Y227850D01*
X371668Y227938D01*
X371821Y228021D01*
X371842Y228038D01*
X371865Y228051D01*
X372118Y228266D01*
X406286Y262433D01*
X418279Y262433D01*
X418306Y262436D01*
X418333Y262434D01*
X418506Y262456D01*
X418680Y262473D01*
X418705Y262481D01*
X418732Y262485D01*
X418898Y262540D01*
X419065Y262592D01*
X419088Y262604D01*
X419114Y262613D01*
X419265Y262700D01*
X419419Y262783D01*
X419439Y262800D01*
X419463Y262814D01*
X419716Y263028D01*
X420063Y263376D01*
X422013Y264183D01*
X424124Y264183D01*
X426075Y263376D01*
X427568Y261883D01*
X428375Y259932D01*
X428375Y257821D01*
X427568Y255871D01*
X426075Y254378D01*
X424855Y253873D01*
X424124Y253570D01*
X422013Y253570D01*
X420063Y254378D01*
X419716Y254725D01*
X419695Y254742D01*
X419677Y254762D01*
X419539Y254869D01*
X419404Y254980D01*
X419380Y254993D01*
X419359Y255009D01*
X419202Y255087D01*
X419048Y255169D01*
X419023Y255176D01*
X418999Y255188D01*
X418829Y255234D01*
X418662Y255284D01*
X418636Y255286D01*
X418610Y255293D01*
X418279Y255320D01*
X410074Y255320D01*
X410047Y255317D01*
X410020Y255319D01*
X409846Y255297D01*
X409673Y255280D01*
X409648Y255272D01*
X409621Y255269D01*
X409455Y255213D01*
X409288Y255162D01*
X409265Y255149D01*
X409239Y255141D01*
X409088Y255054D01*
X408934Y254970D01*
X408914Y254953D01*
X408890Y254940D01*
X408637Y254725D01*
X404618Y250706D01*
X404612Y250699D01*
X404605Y250693D01*
X404485Y250543D01*
X404363Y250394D01*
X404359Y250386D01*
X404353Y250379D01*
X404265Y250209D01*
X404174Y250038D01*
X404172Y250030D01*
X404167Y250022D01*
X404114Y249837D01*
X404059Y249652D01*
X404059Y249644D01*
X404056Y249635D01*
X404040Y249444D01*
X404023Y249251D01*
X404024Y249243D01*
X404023Y249234D01*
X404045Y249045D01*
X404066Y248851D01*
X404069Y248843D01*
X404070Y248834D01*
X404129Y248652D01*
X404188Y248467D01*
X404192Y248460D01*
X404195Y248451D01*
X404290Y248283D01*
X404383Y248115D01*
X404388Y248108D01*
X404393Y248100D01*
X404519Y247955D01*
X404643Y247808D01*
X404650Y247802D01*
X404656Y247796D01*
X404807Y247678D01*
X404959Y247558D01*
X404967Y247554D01*
X404974Y247549D01*
X405146Y247463D01*
X405318Y247376D01*
X405327Y247374D01*
X405335Y247370D01*
X405521Y247320D01*
X405706Y247268D01*
X405715Y247267D01*
X405723Y247265D01*
X406054Y247238D01*
X419780Y247238D01*
X428213Y238805D01*
X428213Y216690D01*
X425891Y214367D01*
X425885Y214360D01*
X425878Y214355D01*
X425758Y214205D01*
X425636Y214056D01*
X425631Y214048D01*
X425626Y214041D01*
X425537Y213871D01*
X425447Y213700D01*
X425444Y213691D01*
X425440Y213684D01*
X425387Y213499D01*
X425332Y213314D01*
X425331Y213305D01*
X425329Y213297D01*
X425313Y213106D01*
X425296Y212913D01*
X425297Y212904D01*
X425296Y212895D01*
X425318Y212706D01*
X425339Y212513D01*
X425342Y212504D01*
X425343Y212496D01*
X425402Y212313D01*
X425461Y212129D01*
X425465Y212121D01*
X425468Y212113D01*
X425563Y211944D01*
X425656Y211777D01*
X425661Y211770D01*
X425666Y211762D01*
X425792Y211616D01*
X425916Y211470D01*
X425923Y211464D01*
X425929Y211457D01*
X426080Y211340D01*
X426232Y211220D01*
X426240Y211216D01*
X426247Y211211D01*
X426419Y211125D01*
X426591Y211038D01*
X426599Y211035D01*
X426608Y211031D01*
X426793Y210981D01*
X426979Y210930D01*
X426988Y210929D01*
X426996Y210927D01*
X427327Y210900D01*
X448607Y210900D01*
X449241Y210265D01*
X449248Y210259D01*
X449254Y210253D01*
X449404Y210132D01*
X449553Y210010D01*
X449561Y210006D01*
X449568Y210000D01*
X449738Y209912D01*
X449908Y209821D01*
X449917Y209819D01*
X449925Y209815D01*
X450109Y209762D01*
X450294Y209707D01*
X450303Y209706D01*
X450312Y209703D01*
X450503Y209688D01*
X450695Y209670D01*
X450704Y209671D01*
X450713Y209670D01*
X450902Y209693D01*
X451096Y209714D01*
X451104Y209716D01*
X451113Y209717D01*
X451295Y209777D01*
X451479Y209835D01*
X451487Y209839D01*
X451496Y209842D01*
X451663Y209936D01*
X451832Y210030D01*
X451839Y210036D01*
X451846Y210040D01*
X451991Y210165D01*
X452139Y210290D01*
X452144Y210297D01*
X452151Y210303D01*
X452267Y210453D01*
X452388Y210606D01*
X452392Y210614D01*
X452398Y210621D01*
X452483Y210792D01*
X452571Y210965D01*
X452573Y210974D01*
X452577Y210982D01*
X452627Y211167D01*
X452679Y211353D01*
X452679Y211362D01*
X452682Y211371D01*
X452709Y211701D01*
X452709Y212638D01*
X452706Y212665D01*
X452708Y212691D01*
X452686Y212865D01*
X452669Y213039D01*
X452661Y213064D01*
X452658Y213091D01*
X452602Y213257D01*
X452551Y213424D01*
X452538Y213447D01*
X452529Y213473D01*
X452442Y213624D01*
X452359Y213778D01*
X452342Y213798D01*
X452329Y213821D01*
X452114Y214074D01*
X448625Y217564D01*
X447774Y219618D01*
X447774Y231431D01*
X448282Y232656D01*
X448291Y232686D01*
X448305Y232714D01*
X448349Y232879D01*
X448398Y233042D01*
X448401Y233073D01*
X448409Y233103D01*
X448436Y233434D01*
X448436Y274955D01*
X449287Y277010D01*
X450859Y278582D01*
X452913Y279432D01*
X455137Y279432D01*
X457191Y278582D01*
X458763Y277010D01*
X459614Y274955D01*
X459614Y257431D01*
X459616Y257413D01*
X459614Y257395D01*
X459635Y257213D01*
X459654Y257030D01*
X459659Y257013D01*
X459661Y256996D01*
X459718Y256821D01*
X459772Y256645D01*
X459780Y256630D01*
X459786Y256613D01*
X459876Y256453D01*
X459964Y256291D01*
X459975Y256278D01*
X459984Y256262D01*
X460104Y256123D01*
X460221Y255982D01*
X460235Y255971D01*
X460247Y255957D01*
X460392Y255845D01*
X460535Y255730D01*
X460551Y255722D01*
X460565Y255711D01*
X460730Y255629D01*
X460892Y255544D01*
X460909Y255539D01*
X460925Y255531D01*
X461104Y255484D01*
X461279Y255433D01*
X461297Y255431D01*
X461314Y255427D01*
X461645Y255400D01*
X489607Y255400D01*
X490500Y254507D01*
X490500Y243872D01*
X490501Y243856D01*
X490500Y243839D01*
X490505Y243799D01*
X490503Y243758D01*
X490525Y243616D01*
X490540Y243472D01*
X490545Y243454D01*
X490547Y243439D01*
X490559Y243403D01*
X490565Y243361D01*
X490615Y243225D01*
X490658Y243087D01*
X490668Y243068D01*
X490672Y243056D01*
X490689Y243026D01*
X490705Y242983D01*
X490781Y242860D01*
X490850Y242733D01*
X490864Y242715D01*
X490870Y242706D01*
X490891Y242681D01*
X490916Y242640D01*
X491057Y242484D01*
X491107Y242424D01*
X491122Y242412D01*
X491138Y242394D01*
X497682Y236231D01*
X497825Y236121D01*
X497965Y236008D01*
X497984Y235999D01*
X498001Y235985D01*
X498163Y235905D01*
X498322Y235823D01*
X498342Y235817D01*
X498362Y235807D01*
X498537Y235761D01*
X498709Y235712D01*
X498730Y235710D01*
X498751Y235704D01*
X498931Y235693D01*
X499110Y235679D01*
X499132Y235681D01*
X499153Y235680D01*
X499331Y235705D01*
X499510Y235726D01*
X499531Y235732D01*
X499552Y235735D01*
X499721Y235794D01*
X499893Y235850D01*
X499912Y235861D01*
X499932Y235868D01*
X500087Y235960D01*
X500243Y236048D01*
X500260Y236062D01*
X500278Y236073D01*
X500412Y236194D01*
X500548Y236311D01*
X500561Y236329D01*
X500577Y236343D01*
X500685Y236488D01*
X500795Y236630D01*
X500804Y236649D01*
X500817Y236666D01*
X500894Y236829D01*
X500974Y236990D01*
X500980Y237011D01*
X500989Y237031D01*
X501032Y237205D01*
X501079Y237379D01*
X501081Y237403D01*
X501085Y237421D01*
X501089Y237501D01*
X501106Y237710D01*
X501106Y238387D01*
X501914Y240337D01*
X503406Y241830D01*
X505357Y242638D01*
X507468Y242638D01*
X508867Y242059D01*
X508897Y242050D01*
X508925Y242036D01*
X509089Y241991D01*
X509252Y241942D01*
X509283Y241939D01*
X509313Y241931D01*
X509644Y241904D01*
X543662Y241904D01*
X543693Y241907D01*
X543724Y241905D01*
X543894Y241927D01*
X544063Y241944D01*
X544092Y241953D01*
X544124Y241957D01*
X544439Y242059D01*
X545838Y242638D01*
X547949Y242638D01*
X549900Y241830D01*
X551393Y240337D01*
X552200Y238387D01*
X552200Y236276D01*
X551393Y234325D01*
X549900Y232832D01*
X547949Y232025D01*
X545838Y232025D01*
X544439Y232604D01*
X544410Y232613D01*
X544382Y232627D01*
X544217Y232671D01*
X544054Y232720D01*
X544023Y232723D01*
X543993Y232731D01*
X543662Y232759D01*
X509644Y232759D01*
X509613Y232755D01*
X509582Y232758D01*
X509413Y232735D01*
X509244Y232719D01*
X509214Y232709D01*
X509183Y232705D01*
X508867Y232604D01*
X507468Y232025D01*
X507268Y232025D01*
X507228Y232021D01*
X507189Y232023D01*
X507028Y232001D01*
X506867Y231985D01*
X506829Y231973D01*
X506790Y231968D01*
X506637Y231914D01*
X506482Y231866D01*
X506447Y231848D01*
X506410Y231835D01*
X506271Y231752D01*
X506128Y231675D01*
X506098Y231650D01*
X506064Y231629D01*
X505943Y231521D01*
X505819Y231417D01*
X505794Y231386D01*
X505765Y231360D01*
X505668Y231229D01*
X505566Y231103D01*
X505548Y231068D01*
X505525Y231037D01*
X505455Y230890D01*
X505381Y230746D01*
X505370Y230708D01*
X505353Y230672D01*
X505314Y230515D01*
X505270Y230359D01*
X505266Y230320D01*
X505257Y230281D01*
X505250Y230119D01*
X505237Y229958D01*
X505241Y229919D01*
X505240Y229879D01*
X505265Y229719D01*
X505284Y229558D01*
X505296Y229520D01*
X505302Y229481D01*
X505358Y229329D01*
X505408Y229175D01*
X505428Y229141D01*
X505441Y229104D01*
X505527Y228966D01*
X505606Y228824D01*
X505632Y228795D01*
X505653Y228761D01*
X505851Y228541D01*
X505869Y228520D01*
X505872Y228518D01*
X505875Y228515D01*
X520731Y214523D01*
X520889Y214402D01*
X521043Y214282D01*
X521047Y214280D01*
X521050Y214278D01*
X521095Y214255D01*
X522362Y212988D01*
X522383Y212971D01*
X522406Y212945D01*
X523463Y211950D01*
X523463Y210497D01*
X523466Y210470D01*
X523464Y210436D01*
X523518Y208631D01*
X523490Y208527D01*
X523490Y208523D01*
X523489Y208520D01*
X523487Y208493D01*
X523463Y208197D01*
X523463Y126624D01*
X523463Y126619D01*
X523463Y126615D01*
X523483Y126421D01*
X523503Y126223D01*
X523504Y126219D01*
X523505Y126214D01*
X523564Y126023D01*
X523621Y125838D01*
X523623Y125834D01*
X523624Y125830D01*
X523720Y125656D01*
X523813Y125484D01*
X523816Y125481D01*
X523818Y125477D01*
X523947Y125323D01*
X524071Y125175D01*
X524074Y125172D01*
X524077Y125169D01*
X524232Y125045D01*
X524384Y124923D01*
X524388Y124921D01*
X524392Y124918D01*
X524570Y124826D01*
X524742Y124737D01*
X524746Y124736D01*
X524750Y124734D01*
X524943Y124679D01*
X525129Y124626D01*
X525133Y124625D01*
X525137Y124624D01*
X525333Y124609D01*
X525530Y124593D01*
X525534Y124593D01*
X525539Y124593D01*
X525732Y124617D01*
X525930Y124640D01*
X525934Y124641D01*
X525938Y124642D01*
X526123Y124703D01*
X526312Y124765D01*
X526316Y124767D01*
X526321Y124768D01*
X526490Y124865D01*
X526663Y124963D01*
X526666Y124966D01*
X526670Y124968D01*
X526817Y125096D01*
X526968Y125226D01*
X526971Y125229D01*
X526974Y125232D01*
X527093Y125387D01*
X527215Y125544D01*
X527216Y125548D01*
X527219Y125551D01*
X527371Y125847D01*
X528107Y127625D01*
X529600Y129118D01*
X531551Y129925D01*
X532042Y129925D01*
X532068Y129928D01*
X532095Y129926D01*
X532269Y129948D01*
X532442Y129965D01*
X532468Y129973D01*
X532494Y129977D01*
X532660Y130032D01*
X532827Y130084D01*
X532851Y130096D01*
X532876Y130105D01*
X533028Y130192D01*
X533181Y130275D01*
X533202Y130292D01*
X533225Y130306D01*
X533478Y130520D01*
X544823Y141866D01*
X544840Y141887D01*
X544861Y141904D01*
X544968Y142042D01*
X545078Y142177D01*
X545091Y142201D01*
X545107Y142222D01*
X545185Y142379D01*
X545267Y142533D01*
X545275Y142559D01*
X545287Y142583D01*
X545332Y142752D01*
X545382Y142919D01*
X545384Y142946D01*
X545391Y142971D01*
X545418Y143302D01*
X545418Y148319D01*
X545416Y148337D01*
X545418Y148355D01*
X545397Y148537D01*
X545378Y148720D01*
X545373Y148737D01*
X545371Y148754D01*
X545314Y148929D01*
X545260Y149105D01*
X545252Y149120D01*
X545246Y149137D01*
X545156Y149297D01*
X545068Y149459D01*
X545057Y149472D01*
X545048Y149488D01*
X544928Y149627D01*
X544811Y149768D01*
X544797Y149779D01*
X544785Y149793D01*
X544640Y149905D01*
X544497Y150020D01*
X544481Y150028D01*
X544467Y150039D01*
X544302Y150121D01*
X544140Y150206D01*
X544123Y150211D01*
X544107Y150219D01*
X543928Y150266D01*
X543753Y150317D01*
X543735Y150319D01*
X543718Y150323D01*
X543387Y150350D01*
X537343Y150350D01*
X536450Y151243D01*
X536450Y180507D01*
X537343Y181400D01*
X560607Y181400D01*
X561500Y180507D01*
X561500Y151243D01*
X560607Y150350D01*
X554563Y150350D01*
X554545Y150348D01*
X554527Y150350D01*
X554345Y150329D01*
X554162Y150310D01*
X554145Y150305D01*
X554128Y150303D01*
X553953Y150246D01*
X553777Y150192D01*
X553762Y150184D01*
X553745Y150178D01*
X553585Y150088D01*
X553423Y150000D01*
X553410Y149989D01*
X553394Y149980D01*
X553255Y149860D01*
X553114Y149743D01*
X553103Y149729D01*
X553089Y149717D01*
X552977Y149572D01*
X552862Y149429D01*
X552854Y149413D01*
X552843Y149399D01*
X552761Y149234D01*
X552676Y149072D01*
X552671Y149055D01*
X552663Y149039D01*
X552616Y148860D01*
X552565Y148685D01*
X552563Y148667D01*
X552559Y148650D01*
X552532Y148319D01*
X552532Y139514D01*
X538508Y125490D01*
X538491Y125470D01*
X538471Y125452D01*
X538364Y125314D01*
X538253Y125179D01*
X538240Y125155D01*
X538224Y125134D01*
X538146Y124977D01*
X538064Y124823D01*
X538057Y124798D01*
X538045Y124774D01*
X537999Y124604D01*
X537949Y124437D01*
X537947Y124411D01*
X537940Y124385D01*
X537913Y124054D01*
X537913Y123563D01*
X537105Y121613D01*
X536023Y120531D01*
X536017Y120524D01*
X536010Y120518D01*
X535889Y120367D01*
X535768Y120219D01*
X535764Y120211D01*
X535758Y120204D01*
X535670Y120034D01*
X535579Y119863D01*
X535577Y119855D01*
X535573Y119847D01*
X535520Y119663D01*
X535464Y119477D01*
X535464Y119469D01*
X535461Y119460D01*
X535445Y119269D01*
X535428Y119076D01*
X535429Y119068D01*
X535428Y119059D01*
X535451Y118869D01*
X535471Y118676D01*
X535474Y118668D01*
X535475Y118659D01*
X535535Y118477D01*
X535593Y118292D01*
X535597Y118285D01*
X535600Y118276D01*
X535694Y118109D01*
X535788Y117940D01*
X535794Y117933D01*
X535798Y117925D01*
X535923Y117781D01*
X536048Y117633D01*
X536055Y117627D01*
X536061Y117621D01*
X536212Y117504D01*
X536364Y117383D01*
X536372Y117379D01*
X536379Y117374D01*
X536550Y117289D01*
X536723Y117201D01*
X536732Y117199D01*
X536740Y117195D01*
X536925Y117145D01*
X537111Y117093D01*
X537120Y117092D01*
X537128Y117090D01*
X537459Y117063D01*
X547448Y117063D01*
X547474Y117066D01*
X547501Y117064D01*
X547675Y117086D01*
X547848Y117103D01*
X547874Y117111D01*
X547901Y117114D01*
X548066Y117170D01*
X548233Y117221D01*
X548257Y117234D01*
X548282Y117242D01*
X548434Y117330D01*
X548587Y117413D01*
X548608Y117430D01*
X548631Y117443D01*
X548884Y117658D01*
X568792Y137566D01*
X568809Y137587D01*
X568829Y137604D01*
X568936Y137742D01*
X569047Y137877D01*
X569060Y137901D01*
X569076Y137922D01*
X569154Y138079D01*
X569236Y138233D01*
X569243Y138259D01*
X569255Y138283D01*
X569301Y138452D01*
X569351Y138619D01*
X569353Y138646D01*
X569360Y138671D01*
X569387Y139002D01*
X569387Y195240D01*
X569386Y195249D01*
X569387Y195258D01*
X569366Y195447D01*
X569347Y195641D01*
X569344Y195649D01*
X569344Y195658D01*
X569286Y195840D01*
X569229Y196026D01*
X569225Y196033D01*
X569222Y196042D01*
X569129Y196210D01*
X569037Y196380D01*
X569032Y196386D01*
X569027Y196394D01*
X568902Y196541D01*
X568779Y196689D01*
X568772Y196694D01*
X568767Y196701D01*
X568616Y196820D01*
X568466Y196941D01*
X568458Y196945D01*
X568451Y196951D01*
X568278Y197039D01*
X568108Y197127D01*
X568100Y197129D01*
X568092Y197133D01*
X567905Y197185D01*
X567721Y197238D01*
X567713Y197239D01*
X567704Y197241D01*
X567511Y197255D01*
X567320Y197271D01*
X567311Y197270D01*
X567302Y197271D01*
X567110Y197246D01*
X566920Y197224D01*
X566912Y197221D01*
X566903Y197220D01*
X566720Y197159D01*
X566538Y197099D01*
X566530Y197095D01*
X566521Y197092D01*
X566356Y196997D01*
X566187Y196901D01*
X566180Y196895D01*
X566172Y196891D01*
X565919Y196676D01*
X563640Y194397D01*
X559964Y192874D01*
X555986Y192874D01*
X552310Y194397D01*
X549497Y197210D01*
X547974Y200886D01*
X547974Y204864D01*
X549497Y208540D01*
X552310Y211353D01*
X555986Y212876D01*
X559964Y212876D01*
X563640Y211353D01*
X565919Y209074D01*
X565926Y209068D01*
X565932Y209061D01*
X566082Y208941D01*
X566231Y208819D01*
X566239Y208814D01*
X566246Y208809D01*
X566416Y208720D01*
X566587Y208630D01*
X566595Y208627D01*
X566603Y208623D01*
X566787Y208570D01*
X566973Y208515D01*
X566981Y208514D01*
X566990Y208512D01*
X567181Y208496D01*
X567374Y208479D01*
X567382Y208480D01*
X567391Y208479D01*
X567581Y208501D01*
X567774Y208522D01*
X567782Y208525D01*
X567791Y208526D01*
X567973Y208585D01*
X568158Y208644D01*
X568165Y208648D01*
X568174Y208651D01*
X568342Y208746D01*
X568510Y208839D01*
X568517Y208844D01*
X568525Y208849D01*
X568670Y208974D01*
X568817Y209099D01*
X568823Y209106D01*
X568829Y209112D01*
X568947Y209263D01*
X569067Y209415D01*
X569071Y209423D01*
X569076Y209430D01*
X569162Y209602D01*
X569249Y209774D01*
X569251Y209782D01*
X569255Y209791D01*
X569305Y209976D01*
X569357Y210162D01*
X569358Y210171D01*
X569360Y210179D01*
X569387Y210510D01*
X569387Y222319D01*
X569385Y222337D01*
X569387Y222355D01*
X569365Y222537D01*
X569347Y222720D01*
X569342Y222737D01*
X569340Y222754D01*
X569283Y222929D01*
X569229Y223105D01*
X569220Y223120D01*
X569215Y223137D01*
X569125Y223297D01*
X569037Y223459D01*
X569026Y223472D01*
X569017Y223488D01*
X568897Y223627D01*
X568779Y223768D01*
X568766Y223779D01*
X568754Y223793D01*
X568609Y223905D01*
X568466Y224020D01*
X568450Y224028D01*
X568436Y224039D01*
X568271Y224121D01*
X568108Y224206D01*
X568091Y224211D01*
X568075Y224219D01*
X567897Y224266D01*
X567721Y224317D01*
X567704Y224319D01*
X567686Y224323D01*
X567356Y224350D01*
X557343Y224350D01*
X556450Y225243D01*
X556450Y254507D01*
X557343Y255400D01*
X580607Y255400D01*
X581500Y254507D01*
X581500Y225243D01*
X580607Y224350D01*
X578532Y224350D01*
X578514Y224348D01*
X578496Y224350D01*
X578314Y224329D01*
X578131Y224310D01*
X578114Y224305D01*
X578096Y224303D01*
X577922Y224246D01*
X577746Y224192D01*
X577731Y224184D01*
X577714Y224178D01*
X577553Y224088D01*
X577392Y224000D01*
X577379Y223989D01*
X577363Y223980D01*
X577224Y223860D01*
X577083Y223743D01*
X577072Y223729D01*
X577058Y223717D01*
X576946Y223572D01*
X576831Y223429D01*
X576822Y223413D01*
X576811Y223399D01*
X576729Y223234D01*
X576645Y223072D01*
X576640Y223055D01*
X576632Y223039D01*
X576584Y222860D01*
X576534Y222685D01*
X576532Y222667D01*
X576528Y222650D01*
X576500Y222319D01*
X576500Y135214D01*
X551236Y109950D01*
X544263Y109950D01*
X544254Y109949D01*
X544245Y109949D01*
X544053Y109929D01*
X543862Y109910D01*
X543853Y109907D01*
X543845Y109906D01*
X543662Y109848D01*
X543477Y109791D01*
X543469Y109787D01*
X543461Y109785D01*
X543292Y109691D01*
X543123Y109600D01*
X543116Y109594D01*
X543108Y109590D01*
X542961Y109464D01*
X542814Y109342D01*
X542808Y109335D01*
X542801Y109329D01*
X542681Y109177D01*
X542561Y109028D01*
X542557Y109020D01*
X542552Y109013D01*
X542464Y108841D01*
X542376Y108671D01*
X542374Y108662D01*
X542369Y108654D01*
X542317Y108466D01*
X542265Y108284D01*
X542264Y108275D01*
X542261Y108266D01*
X542247Y108073D01*
X542232Y107883D01*
X542233Y107874D01*
X542232Y107865D01*
X542256Y107672D01*
X542279Y107483D01*
X542281Y107474D01*
X542282Y107465D01*
X542344Y107283D01*
X542403Y107100D01*
X542408Y107092D01*
X542411Y107084D01*
X542506Y106918D01*
X542601Y106749D01*
X542607Y106743D01*
X542612Y106735D01*
X542826Y106482D01*
X544077Y105231D01*
X545470Y101870D01*
X545470Y98232D01*
X544077Y94871D01*
X541505Y92298D01*
X538144Y90906D01*
X534506Y90906D01*
X531145Y92298D01*
X528572Y94871D01*
X527180Y98232D01*
X527180Y101870D01*
X528572Y105231D01*
X529823Y106482D01*
X529829Y106489D01*
X529836Y106495D01*
X529957Y106645D01*
X530078Y106793D01*
X530083Y106801D01*
X530088Y106808D01*
X530177Y106979D01*
X530267Y107149D01*
X530270Y107158D01*
X530274Y107166D01*
X530327Y107350D01*
X530382Y107535D01*
X530383Y107544D01*
X530385Y107553D01*
X530401Y107741D01*
X530418Y107936D01*
X530417Y107945D01*
X530418Y107954D01*
X530396Y108143D01*
X530375Y108336D01*
X530372Y108345D01*
X530371Y108354D01*
X530312Y108536D01*
X530253Y108720D01*
X530249Y108728D01*
X530246Y108736D01*
X530152Y108903D01*
X530059Y109072D01*
X530053Y109079D01*
X530048Y109087D01*
X529923Y109232D01*
X529798Y109379D01*
X529791Y109385D01*
X529785Y109392D01*
X529635Y109509D01*
X529482Y109629D01*
X529474Y109633D01*
X529467Y109639D01*
X529296Y109723D01*
X529123Y109811D01*
X529115Y109814D01*
X529107Y109818D01*
X528921Y109868D01*
X528735Y109919D01*
X528726Y109920D01*
X528718Y109922D01*
X528387Y109950D01*
X525396Y109950D01*
X525369Y109947D01*
X525343Y109949D01*
X525169Y109927D01*
X524995Y109910D01*
X524970Y109902D01*
X524943Y109898D01*
X524777Y109843D01*
X524610Y109791D01*
X524587Y109779D01*
X524561Y109770D01*
X524410Y109683D01*
X524256Y109600D01*
X524236Y109583D01*
X524213Y109569D01*
X523960Y109355D01*
X521045Y106440D01*
X521028Y106420D01*
X521008Y106402D01*
X520901Y106264D01*
X520790Y106129D01*
X520778Y106105D01*
X520761Y106084D01*
X520683Y105927D01*
X520602Y105773D01*
X520594Y105748D01*
X520582Y105724D01*
X520537Y105554D01*
X520487Y105387D01*
X520485Y105361D01*
X520478Y105335D01*
X520450Y105004D01*
X520450Y104513D01*
X519643Y102563D01*
X518150Y101070D01*
X516122Y100230D01*
X516114Y100226D01*
X516106Y100223D01*
X515937Y100131D01*
X515767Y100040D01*
X515760Y100034D01*
X515752Y100030D01*
X515605Y99906D01*
X515457Y99783D01*
X515451Y99776D01*
X515444Y99771D01*
X515324Y99620D01*
X515203Y99471D01*
X515199Y99463D01*
X515193Y99456D01*
X515106Y99285D01*
X515016Y99114D01*
X515013Y99106D01*
X515009Y99098D01*
X515000Y99065D01*
X514984Y99115D01*
X514921Y99307D01*
X514919Y99311D01*
X514918Y99315D01*
X514821Y99484D01*
X514723Y99657D01*
X514720Y99661D01*
X514718Y99665D01*
X514591Y99810D01*
X514460Y99962D01*
X514457Y99965D01*
X514454Y99968D01*
X514297Y100089D01*
X514142Y100209D01*
X514138Y100211D01*
X514134Y100214D01*
X513839Y100365D01*
X512138Y101070D01*
X510645Y102563D01*
X509837Y104513D01*
X509837Y106203D01*
X509836Y106212D01*
X509837Y106221D01*
X509816Y106414D01*
X509797Y106604D01*
X509795Y106612D01*
X509794Y106621D01*
X509735Y106805D01*
X509679Y106989D01*
X509675Y106997D01*
X509672Y107005D01*
X509579Y107173D01*
X509487Y107343D01*
X509482Y107350D01*
X509477Y107357D01*
X509352Y107504D01*
X509229Y107652D01*
X509222Y107658D01*
X509217Y107664D01*
X509066Y107783D01*
X508916Y107904D01*
X508908Y107908D01*
X508901Y107914D01*
X508728Y108002D01*
X508558Y108090D01*
X508550Y108092D01*
X508542Y108096D01*
X508355Y108148D01*
X508171Y108201D01*
X508163Y108202D01*
X508154Y108204D01*
X507961Y108218D01*
X507770Y108234D01*
X507761Y108233D01*
X507752Y108234D01*
X507560Y108209D01*
X507370Y108187D01*
X507362Y108184D01*
X507353Y108183D01*
X507170Y108122D01*
X506988Y108062D01*
X506980Y108058D01*
X506971Y108055D01*
X506804Y107959D01*
X506637Y107864D01*
X506630Y107859D01*
X506622Y107854D01*
X506369Y107639D01*
X499452Y100722D01*
X499435Y100701D01*
X499414Y100683D01*
X499307Y100546D01*
X499197Y100410D01*
X499184Y100387D01*
X499168Y100365D01*
X499090Y100208D01*
X499008Y100054D01*
X499000Y100029D01*
X498988Y100005D01*
X498943Y99835D01*
X498893Y99669D01*
X498891Y99642D01*
X498884Y99616D01*
X498857Y99285D01*
X498857Y99246D01*
X498859Y99219D01*
X498857Y99192D01*
X498879Y99019D01*
X498897Y98845D01*
X498904Y98820D01*
X498908Y98793D01*
X498963Y98627D01*
X499015Y98460D01*
X499028Y98437D01*
X499036Y98411D01*
X499123Y98260D01*
X499207Y98106D01*
X499224Y98086D01*
X499237Y98062D01*
X499452Y97809D01*
X499799Y97462D01*
X500607Y95512D01*
X500607Y93401D01*
X499799Y91450D01*
X498306Y89957D01*
X496819Y89341D01*
X496356Y89150D01*
X494244Y89150D01*
G37*
%LPD*%
%LPC*%
G36*
X202938Y222500D02*
X202938Y222500D01*
X200988Y223307D01*
X199495Y224800D01*
X198687Y226751D01*
X198687Y228862D01*
X199495Y230812D01*
X200988Y232305D01*
X202938Y233113D01*
X203429Y233113D01*
X203456Y233116D01*
X203482Y233114D01*
X203656Y233136D01*
X203830Y233153D01*
X203855Y233161D01*
X203882Y233164D01*
X204048Y233220D01*
X204215Y233271D01*
X204238Y233284D01*
X204264Y233292D01*
X204415Y233380D01*
X204569Y233463D01*
X204589Y233480D01*
X204612Y233493D01*
X204865Y233708D01*
X239827Y268669D01*
X336848Y268669D01*
X336874Y268672D01*
X336901Y268670D01*
X337075Y268692D01*
X337248Y268709D01*
X337274Y268717D01*
X337301Y268720D01*
X337466Y268776D01*
X337633Y268827D01*
X337657Y268840D01*
X337682Y268849D01*
X337834Y268936D01*
X337987Y269019D01*
X338008Y269036D01*
X338031Y269049D01*
X338284Y269264D01*
X401752Y332732D01*
X415600Y332732D01*
X415618Y332734D01*
X415636Y332732D01*
X415818Y332753D01*
X416001Y332772D01*
X416018Y332777D01*
X416036Y332779D01*
X416210Y332836D01*
X416386Y332890D01*
X416401Y332898D01*
X416418Y332904D01*
X416579Y332994D01*
X416740Y333082D01*
X416753Y333093D01*
X416769Y333102D01*
X416908Y333222D01*
X417049Y333339D01*
X417060Y333353D01*
X417074Y333365D01*
X417186Y333510D01*
X417301Y333653D01*
X417310Y333669D01*
X417321Y333683D01*
X417403Y333848D01*
X417487Y334010D01*
X417492Y334027D01*
X417500Y334043D01*
X417548Y334222D01*
X417598Y334397D01*
X417600Y334415D01*
X417604Y334432D01*
X417632Y334763D01*
X417632Y334807D01*
X418525Y335700D01*
X425310Y335700D01*
X425336Y335702D01*
X425363Y335700D01*
X425537Y335722D01*
X425710Y335740D01*
X425736Y335747D01*
X425762Y335751D01*
X425928Y335806D01*
X426095Y335858D01*
X426119Y335871D01*
X426144Y335879D01*
X426296Y335966D01*
X426449Y336050D01*
X426470Y336067D01*
X426493Y336080D01*
X426746Y336295D01*
X430558Y340107D01*
X450823Y340107D01*
X450850Y340109D01*
X450876Y340107D01*
X451050Y340129D01*
X451224Y340147D01*
X451249Y340154D01*
X451276Y340158D01*
X451441Y340213D01*
X451609Y340265D01*
X451632Y340278D01*
X451657Y340286D01*
X451809Y340373D01*
X451963Y340457D01*
X451983Y340474D01*
X452006Y340487D01*
X452259Y340702D01*
X452606Y341049D01*
X453774Y341532D01*
X454557Y341857D01*
X456668Y341857D01*
X458619Y341049D01*
X460111Y339556D01*
X460919Y337606D01*
X460919Y335494D01*
X460111Y333544D01*
X458619Y332051D01*
X456668Y331243D01*
X454557Y331243D01*
X452606Y332051D01*
X452259Y332398D01*
X452239Y332415D01*
X452221Y332436D01*
X452083Y332543D01*
X451948Y332653D01*
X451924Y332666D01*
X451903Y332682D01*
X451746Y332760D01*
X451592Y332842D01*
X451567Y332850D01*
X451542Y332862D01*
X451373Y332907D01*
X451206Y332957D01*
X451180Y332959D01*
X451154Y332966D01*
X450823Y332993D01*
X434346Y332993D01*
X434319Y332991D01*
X434293Y332993D01*
X434119Y332971D01*
X433945Y332953D01*
X433920Y332946D01*
X433893Y332942D01*
X433727Y332887D01*
X433560Y332835D01*
X433537Y332822D01*
X433511Y332814D01*
X433360Y332727D01*
X433206Y332643D01*
X433186Y332626D01*
X433163Y332613D01*
X432910Y332398D01*
X432276Y331765D01*
X432259Y331744D01*
X432239Y331726D01*
X432132Y331589D01*
X432021Y331453D01*
X432008Y331430D01*
X431992Y331408D01*
X431914Y331251D01*
X431832Y331097D01*
X431825Y331072D01*
X431813Y331048D01*
X431767Y330878D01*
X431717Y330712D01*
X431715Y330685D01*
X431708Y330659D01*
X431681Y330328D01*
X431681Y323543D01*
X430249Y322111D01*
X430238Y322097D01*
X430224Y322086D01*
X430110Y321942D01*
X429994Y321800D01*
X429985Y321784D01*
X429974Y321770D01*
X429891Y321606D01*
X429805Y321444D01*
X429800Y321427D01*
X429792Y321411D01*
X429743Y321234D01*
X429690Y321058D01*
X429689Y321040D01*
X429684Y321023D01*
X429671Y320840D01*
X429654Y320657D01*
X429656Y320639D01*
X429655Y320622D01*
X429678Y320440D01*
X429697Y320257D01*
X429703Y320240D01*
X429705Y320222D01*
X429763Y320048D01*
X429819Y319873D01*
X429828Y319857D01*
X429833Y319841D01*
X429925Y319682D01*
X430014Y319521D01*
X430025Y319507D01*
X430034Y319492D01*
X430249Y319239D01*
X431681Y317807D01*
X431681Y317763D01*
X431683Y317745D01*
X431681Y317727D01*
X431703Y317545D01*
X431721Y317362D01*
X431726Y317345D01*
X431728Y317328D01*
X431785Y317153D01*
X431839Y316977D01*
X431848Y316962D01*
X431853Y316945D01*
X431943Y316785D01*
X432031Y316623D01*
X432042Y316610D01*
X432051Y316594D01*
X432171Y316455D01*
X432289Y316314D01*
X432302Y316303D01*
X432314Y316289D01*
X432459Y316177D01*
X432602Y316062D01*
X432618Y316054D01*
X432632Y316043D01*
X432797Y315961D01*
X432960Y315876D01*
X432977Y315871D01*
X432993Y315863D01*
X433171Y315816D01*
X433347Y315765D01*
X433364Y315763D01*
X433382Y315759D01*
X433712Y315732D01*
X435794Y315732D01*
X435812Y315734D01*
X435830Y315732D01*
X436012Y315753D01*
X436195Y315772D01*
X436212Y315777D01*
X436229Y315779D01*
X436404Y315836D01*
X436580Y315890D01*
X436595Y315898D01*
X436612Y315904D01*
X436772Y315994D01*
X436934Y316082D01*
X436947Y316093D01*
X436963Y316102D01*
X437102Y316222D01*
X437243Y316339D01*
X437254Y316353D01*
X437268Y316365D01*
X437380Y316510D01*
X437495Y316653D01*
X437503Y316669D01*
X437514Y316683D01*
X437596Y316848D01*
X437681Y317010D01*
X437686Y317027D01*
X437694Y317043D01*
X437741Y317222D01*
X437792Y317397D01*
X437794Y317415D01*
X437798Y317432D01*
X437825Y317763D01*
X437825Y321338D01*
X438718Y322231D01*
X447982Y322231D01*
X449414Y320799D01*
X449427Y320788D01*
X449439Y320774D01*
X449583Y320660D01*
X449725Y320544D01*
X449741Y320535D01*
X449755Y320524D01*
X449919Y320441D01*
X450081Y320355D01*
X450098Y320350D01*
X450114Y320342D01*
X450291Y320293D01*
X450467Y320240D01*
X450485Y320239D01*
X450502Y320234D01*
X450685Y320221D01*
X450868Y320204D01*
X450886Y320206D01*
X450903Y320205D01*
X451085Y320228D01*
X451268Y320247D01*
X451285Y320253D01*
X451303Y320255D01*
X451476Y320313D01*
X451652Y320369D01*
X451668Y320378D01*
X451684Y320383D01*
X451843Y320475D01*
X452004Y320564D01*
X452018Y320575D01*
X452033Y320584D01*
X452286Y320799D01*
X453718Y322231D01*
X462982Y322231D01*
X463875Y321338D01*
X463875Y317674D01*
X463877Y317648D01*
X463875Y317621D01*
X463897Y317447D01*
X463915Y317274D01*
X463922Y317248D01*
X463926Y317222D01*
X463981Y317056D01*
X464033Y316889D01*
X464046Y316865D01*
X464054Y316840D01*
X464141Y316688D01*
X464225Y316535D01*
X464242Y316514D01*
X464255Y316491D01*
X464470Y316238D01*
X464768Y315940D01*
X464788Y315923D01*
X464806Y315903D01*
X464944Y315796D01*
X465079Y315685D01*
X465103Y315673D01*
X465124Y315656D01*
X465281Y315578D01*
X465435Y315496D01*
X465460Y315489D01*
X465484Y315477D01*
X465654Y315431D01*
X465821Y315382D01*
X465847Y315379D01*
X465873Y315372D01*
X466204Y315345D01*
X484430Y315345D01*
X484447Y315347D01*
X484465Y315345D01*
X484647Y315367D01*
X484830Y315385D01*
X484847Y315390D01*
X484865Y315392D01*
X485040Y315449D01*
X485215Y315503D01*
X485231Y315512D01*
X485248Y315517D01*
X485408Y315608D01*
X485569Y315695D01*
X485583Y315706D01*
X485598Y315715D01*
X485738Y315835D01*
X485878Y315953D01*
X485890Y315967D01*
X485903Y315978D01*
X486015Y316123D01*
X486131Y316266D01*
X486139Y316282D01*
X486150Y316296D01*
X486232Y316461D01*
X486316Y316624D01*
X486321Y316641D01*
X486329Y316657D01*
X486377Y316835D01*
X486428Y317011D01*
X486429Y317028D01*
X486434Y317046D01*
X486461Y317376D01*
X486461Y331487D01*
X486458Y331514D01*
X486460Y331540D01*
X486438Y331714D01*
X486421Y331887D01*
X486413Y331913D01*
X486410Y331940D01*
X486354Y332106D01*
X486303Y332272D01*
X486290Y332296D01*
X486281Y332321D01*
X486194Y332473D01*
X486111Y332626D01*
X486094Y332647D01*
X486080Y332670D01*
X486064Y332690D01*
X485231Y334701D01*
X485231Y336812D01*
X486039Y338762D01*
X487531Y340255D01*
X489482Y341063D01*
X491593Y341063D01*
X493544Y340255D01*
X495036Y338762D01*
X495844Y336812D01*
X495844Y334701D01*
X495761Y334500D01*
X495752Y334470D01*
X495738Y334442D01*
X495694Y334277D01*
X495644Y334114D01*
X495642Y334083D01*
X495633Y334053D01*
X495606Y333722D01*
X495606Y333131D01*
X495607Y333122D01*
X495606Y333113D01*
X495627Y332923D01*
X495646Y332731D01*
X495649Y332722D01*
X495650Y332713D01*
X495708Y332530D01*
X495764Y332346D01*
X495769Y332338D01*
X495771Y332329D01*
X495865Y332160D01*
X495956Y331992D01*
X495962Y331985D01*
X495966Y331977D01*
X496092Y331828D01*
X496214Y331682D01*
X496221Y331677D01*
X496227Y331670D01*
X496379Y331549D01*
X496528Y331430D01*
X496535Y331426D01*
X496543Y331420D01*
X496716Y331332D01*
X496885Y331245D01*
X496894Y331242D01*
X496902Y331238D01*
X497087Y331186D01*
X497272Y331133D01*
X497281Y331132D01*
X497290Y331130D01*
X497481Y331116D01*
X497673Y331100D01*
X497682Y331101D01*
X497691Y331101D01*
X497881Y331125D01*
X498073Y331147D01*
X498082Y331150D01*
X498091Y331151D01*
X498273Y331212D01*
X498456Y331272D01*
X498464Y331276D01*
X498472Y331279D01*
X498639Y331376D01*
X498806Y331470D01*
X498813Y331476D01*
X498821Y331480D01*
X498898Y331545D01*
X502304Y332956D01*
X505942Y332956D01*
X509303Y331564D01*
X511876Y328992D01*
X513268Y325631D01*
X513268Y321993D01*
X511850Y318570D01*
X511846Y318557D01*
X511840Y318545D01*
X511788Y318365D01*
X511734Y318184D01*
X511732Y318171D01*
X511729Y318158D01*
X511713Y317970D01*
X511695Y317784D01*
X511697Y317770D01*
X511696Y317757D01*
X511718Y317571D01*
X511737Y317383D01*
X511741Y317370D01*
X511743Y317357D01*
X511801Y317178D01*
X511857Y316999D01*
X511863Y316987D01*
X511867Y316974D01*
X511960Y316811D01*
X512050Y316645D01*
X512059Y316635D01*
X512065Y316624D01*
X512188Y316482D01*
X512309Y316337D01*
X512320Y316329D01*
X512329Y316319D01*
X512476Y316204D01*
X512624Y316086D01*
X512636Y316080D01*
X512647Y316072D01*
X512815Y315988D01*
X512982Y315902D01*
X512995Y315899D01*
X513007Y315893D01*
X513190Y315844D01*
X513370Y315793D01*
X513383Y315792D01*
X513396Y315788D01*
X513727Y315761D01*
X516963Y315761D01*
X516990Y315764D01*
X517016Y315762D01*
X517190Y315784D01*
X517364Y315801D01*
X517389Y315809D01*
X517416Y315812D01*
X517581Y315868D01*
X517749Y315919D01*
X517772Y315932D01*
X517798Y315940D01*
X517949Y316028D01*
X518103Y316111D01*
X518123Y316128D01*
X518146Y316141D01*
X518399Y316356D01*
X520984Y318941D01*
X521582Y319189D01*
X524345Y320333D01*
X527983Y320333D01*
X531344Y318941D01*
X533917Y316368D01*
X535309Y313007D01*
X535309Y309369D01*
X533917Y306008D01*
X531344Y303436D01*
X529381Y302623D01*
X527983Y302044D01*
X524345Y302044D01*
X520984Y303436D01*
X518399Y306021D01*
X518379Y306038D01*
X518361Y306058D01*
X518223Y306165D01*
X518088Y306276D01*
X518064Y306288D01*
X518043Y306305D01*
X517886Y306383D01*
X517732Y306464D01*
X517707Y306472D01*
X517683Y306484D01*
X517513Y306530D01*
X517346Y306579D01*
X517320Y306582D01*
X517294Y306589D01*
X516963Y306616D01*
X511985Y306616D01*
X511953Y306613D01*
X511922Y306615D01*
X511754Y306593D01*
X511584Y306576D01*
X511554Y306567D01*
X511523Y306563D01*
X511207Y306461D01*
X510455Y306149D01*
X497792Y306149D01*
X496111Y306845D01*
X495320Y307637D01*
X495299Y307654D01*
X495281Y307674D01*
X495144Y307781D01*
X495008Y307892D01*
X494984Y307904D01*
X494963Y307921D01*
X494807Y307999D01*
X494652Y308080D01*
X494627Y308088D01*
X494603Y308100D01*
X494434Y308146D01*
X494267Y308195D01*
X494240Y308198D01*
X494214Y308205D01*
X493883Y308232D01*
X462416Y308232D01*
X460061Y310587D01*
X460040Y310604D01*
X460023Y310624D01*
X459885Y310731D01*
X459750Y310842D01*
X459726Y310854D01*
X459705Y310871D01*
X459548Y310949D01*
X459394Y311030D01*
X459368Y311038D01*
X459344Y311050D01*
X459175Y311095D01*
X459008Y311145D01*
X458981Y311147D01*
X458955Y311154D01*
X458625Y311182D01*
X453718Y311182D01*
X452286Y312614D01*
X452272Y312625D01*
X452261Y312639D01*
X452117Y312753D01*
X451975Y312869D01*
X451959Y312877D01*
X451945Y312888D01*
X451781Y312972D01*
X451619Y313057D01*
X451602Y313062D01*
X451586Y313071D01*
X451409Y313120D01*
X451233Y313172D01*
X451215Y313174D01*
X451198Y313179D01*
X451015Y313192D01*
X450832Y313209D01*
X450814Y313207D01*
X450797Y313208D01*
X450615Y313185D01*
X450432Y313165D01*
X450415Y313160D01*
X450397Y313157D01*
X450223Y313099D01*
X450048Y313044D01*
X450032Y313035D01*
X450016Y313029D01*
X449857Y312938D01*
X449696Y312849D01*
X449682Y312837D01*
X449667Y312828D01*
X449414Y312614D01*
X447982Y311182D01*
X443697Y311182D01*
X443670Y311179D01*
X443643Y311181D01*
X443469Y311159D01*
X443296Y311142D01*
X443271Y311134D01*
X443244Y311130D01*
X443078Y311075D01*
X442911Y311023D01*
X442888Y311011D01*
X442862Y311002D01*
X442711Y310915D01*
X442557Y310832D01*
X442537Y310815D01*
X442513Y310801D01*
X442260Y310587D01*
X440292Y308618D01*
X433712Y308618D01*
X433694Y308616D01*
X433677Y308618D01*
X433494Y308597D01*
X433312Y308578D01*
X433295Y308573D01*
X433277Y308571D01*
X433102Y308514D01*
X432927Y308460D01*
X432911Y308452D01*
X432894Y308446D01*
X432734Y308356D01*
X432573Y308268D01*
X432559Y308257D01*
X432543Y308248D01*
X432404Y308128D01*
X432263Y308011D01*
X432252Y307997D01*
X432239Y307985D01*
X432126Y307840D01*
X432011Y307697D01*
X432003Y307681D01*
X431992Y307667D01*
X431909Y307501D01*
X431826Y307340D01*
X431821Y307323D01*
X431813Y307307D01*
X431765Y307128D01*
X431714Y306953D01*
X431713Y306935D01*
X431708Y306918D01*
X431681Y306587D01*
X431681Y306543D01*
X430788Y305650D01*
X418525Y305650D01*
X417632Y306543D01*
X417632Y317807D01*
X419064Y319239D01*
X419075Y319252D01*
X419089Y319264D01*
X419202Y319408D01*
X419319Y319550D01*
X419327Y319566D01*
X419338Y319580D01*
X419421Y319744D01*
X419507Y319906D01*
X419512Y319923D01*
X419521Y319939D01*
X419570Y320116D01*
X419622Y320292D01*
X419624Y320310D01*
X419629Y320327D01*
X419642Y320508D01*
X419659Y320693D01*
X419657Y320711D01*
X419658Y320728D01*
X419635Y320910D01*
X419615Y321093D01*
X419610Y321110D01*
X419607Y321128D01*
X419549Y321301D01*
X419494Y321477D01*
X419485Y321493D01*
X419479Y321509D01*
X419388Y321668D01*
X419299Y321829D01*
X419287Y321843D01*
X419278Y321858D01*
X419064Y322111D01*
X417632Y323543D01*
X417632Y323587D01*
X417630Y323605D01*
X417631Y323623D01*
X417610Y323805D01*
X417592Y323988D01*
X417586Y324005D01*
X417584Y324022D01*
X417527Y324197D01*
X417473Y324373D01*
X417465Y324388D01*
X417459Y324405D01*
X417369Y324565D01*
X417282Y324727D01*
X417270Y324740D01*
X417262Y324756D01*
X417141Y324895D01*
X417024Y325036D01*
X417010Y325047D01*
X416998Y325061D01*
X416853Y325173D01*
X416710Y325288D01*
X416694Y325296D01*
X416680Y325307D01*
X416515Y325389D01*
X416353Y325474D01*
X416336Y325479D01*
X416320Y325487D01*
X416142Y325534D01*
X415966Y325585D01*
X415948Y325587D01*
X415931Y325591D01*
X415600Y325618D01*
X405540Y325618D01*
X405513Y325616D01*
X405486Y325618D01*
X405312Y325596D01*
X405139Y325578D01*
X405114Y325571D01*
X405087Y325567D01*
X404921Y325512D01*
X404754Y325460D01*
X404731Y325447D01*
X404705Y325439D01*
X404554Y325352D01*
X404400Y325268D01*
X404380Y325251D01*
X404356Y325238D01*
X404103Y325023D01*
X340636Y261556D01*
X243615Y261556D01*
X243588Y261553D01*
X243561Y261555D01*
X243387Y261533D01*
X243214Y261516D01*
X243189Y261508D01*
X243162Y261505D01*
X242996Y261449D01*
X242829Y261398D01*
X242806Y261385D01*
X242780Y261376D01*
X242629Y261289D01*
X242475Y261206D01*
X242455Y261189D01*
X242431Y261176D01*
X242178Y260961D01*
X209895Y228678D01*
X209878Y228657D01*
X209858Y228640D01*
X209751Y228502D01*
X209640Y228366D01*
X209628Y228343D01*
X209611Y228322D01*
X209533Y228165D01*
X209452Y228011D01*
X209444Y227985D01*
X209432Y227961D01*
X209387Y227792D01*
X209337Y227625D01*
X209335Y227598D01*
X209328Y227572D01*
X209300Y227242D01*
X209300Y226751D01*
X208493Y224800D01*
X207000Y223307D01*
X205049Y222500D01*
X202938Y222500D01*
G37*
%LPD*%
%LPC*%
G36*
X52156Y169449D02*
X52156Y169449D01*
X48795Y170841D01*
X46222Y173414D01*
X44830Y176775D01*
X44830Y180413D01*
X46222Y183774D01*
X48795Y186346D01*
X50753Y187157D01*
X52156Y187738D01*
X55794Y187738D01*
X59155Y186346D01*
X60588Y184913D01*
X60599Y184904D01*
X60607Y184894D01*
X60755Y184777D01*
X60900Y184658D01*
X60912Y184652D01*
X60922Y184643D01*
X61091Y184556D01*
X61256Y184469D01*
X61268Y184466D01*
X61280Y184459D01*
X61462Y184408D01*
X61641Y184355D01*
X61655Y184353D01*
X61668Y184350D01*
X61853Y184335D01*
X62042Y184318D01*
X62056Y184320D01*
X62069Y184319D01*
X62254Y184341D01*
X62443Y184362D01*
X62456Y184366D01*
X62469Y184367D01*
X62646Y184426D01*
X62827Y184483D01*
X62838Y184490D01*
X62851Y184494D01*
X63014Y184587D01*
X63179Y184678D01*
X63189Y184687D01*
X63201Y184693D01*
X63342Y184816D01*
X63486Y184938D01*
X63494Y184949D01*
X63504Y184958D01*
X63619Y185107D01*
X63735Y185254D01*
X63742Y185266D01*
X63750Y185277D01*
X63901Y185572D01*
X64329Y186604D01*
X64338Y186634D01*
X64352Y186662D01*
X64396Y186827D01*
X64445Y186990D01*
X64448Y187021D01*
X64456Y187051D01*
X64484Y187382D01*
X64484Y202052D01*
X64481Y202079D01*
X64483Y202105D01*
X64461Y202279D01*
X64444Y202453D01*
X64436Y202478D01*
X64432Y202505D01*
X64377Y202670D01*
X64325Y202838D01*
X64313Y202861D01*
X64304Y202886D01*
X64217Y203038D01*
X64134Y203192D01*
X64117Y203212D01*
X64103Y203235D01*
X63889Y203488D01*
X59377Y208000D01*
X59353Y208020D01*
X59332Y208044D01*
X59197Y208147D01*
X59065Y208255D01*
X59038Y208270D01*
X59013Y208289D01*
X58718Y208441D01*
X57312Y209023D01*
X57188Y209118D01*
X57057Y209226D01*
X57029Y209240D01*
X57004Y209259D01*
X56929Y209298D01*
X44897Y221330D01*
X44876Y221347D01*
X44858Y221368D01*
X44720Y221475D01*
X44585Y221585D01*
X44561Y221598D01*
X44540Y221614D01*
X44383Y221692D01*
X44229Y221774D01*
X44204Y221782D01*
X44180Y221794D01*
X44010Y221839D01*
X43843Y221889D01*
X43817Y221891D01*
X43791Y221898D01*
X43460Y221925D01*
X40612Y221925D01*
X39719Y222818D01*
X39719Y232082D01*
X41151Y233514D01*
X41162Y233528D01*
X41176Y233539D01*
X41290Y233683D01*
X41406Y233825D01*
X41415Y233841D01*
X41426Y233855D01*
X41509Y234019D01*
X41595Y234181D01*
X41600Y234198D01*
X41608Y234214D01*
X41657Y234391D01*
X41710Y234567D01*
X41711Y234585D01*
X41716Y234602D01*
X41729Y234785D01*
X41746Y234968D01*
X41744Y234986D01*
X41745Y235003D01*
X41722Y235185D01*
X41703Y235368D01*
X41697Y235385D01*
X41695Y235403D01*
X41637Y235577D01*
X41581Y235752D01*
X41572Y235768D01*
X41567Y235784D01*
X41475Y235943D01*
X41386Y236104D01*
X41375Y236118D01*
X41366Y236133D01*
X41151Y236386D01*
X39719Y237818D01*
X39719Y247082D01*
X40959Y248322D01*
X40974Y248339D01*
X40990Y248354D01*
X41101Y248495D01*
X41214Y248633D01*
X41225Y248653D01*
X41239Y248671D01*
X41319Y248831D01*
X41403Y248989D01*
X41409Y249011D01*
X41419Y249030D01*
X41467Y249203D01*
X41518Y249375D01*
X41520Y249397D01*
X41526Y249419D01*
X41538Y249597D01*
X41554Y249776D01*
X41552Y249798D01*
X41553Y249820D01*
X41530Y249998D01*
X41511Y250176D01*
X41504Y250198D01*
X41501Y250220D01*
X41400Y250536D01*
X40731Y252151D01*
X40731Y254262D01*
X41539Y256212D01*
X43031Y257705D01*
X44430Y258285D01*
X44458Y258299D01*
X44487Y258309D01*
X44635Y258394D01*
X44785Y258475D01*
X44809Y258495D01*
X44836Y258510D01*
X45089Y258725D01*
X46622Y260258D01*
X48303Y260954D01*
X66618Y260954D01*
X66649Y260957D01*
X66680Y260955D01*
X66850Y260977D01*
X67019Y260994D01*
X67049Y261003D01*
X67080Y261007D01*
X67396Y261109D01*
X68794Y261688D01*
X70906Y261688D01*
X72856Y260880D01*
X74349Y259387D01*
X75157Y257437D01*
X75157Y255326D01*
X74349Y253375D01*
X73622Y252649D01*
X73616Y252642D01*
X73610Y252636D01*
X73490Y252487D01*
X73367Y252337D01*
X73363Y252329D01*
X73357Y252322D01*
X73269Y252152D01*
X73178Y251981D01*
X73176Y251973D01*
X73172Y251965D01*
X73119Y251781D01*
X73064Y251595D01*
X73063Y251587D01*
X73060Y251578D01*
X73045Y251387D01*
X73027Y251194D01*
X73028Y251186D01*
X73028Y251177D01*
X73050Y250987D01*
X73071Y250794D01*
X73073Y250786D01*
X73074Y250777D01*
X73134Y250594D01*
X73192Y250410D01*
X73196Y250403D01*
X73199Y250394D01*
X73293Y250227D01*
X73387Y250058D01*
X73393Y250051D01*
X73397Y250043D01*
X73522Y249899D01*
X73647Y249751D01*
X73655Y249745D01*
X73660Y249739D01*
X73812Y249621D01*
X73963Y249501D01*
X73971Y249497D01*
X73978Y249492D01*
X74150Y249406D01*
X74187Y249388D01*
X75287Y248288D01*
X75287Y237025D01*
X73855Y235593D01*
X73844Y235579D01*
X73830Y235567D01*
X73716Y235423D01*
X73600Y235281D01*
X73592Y235265D01*
X73581Y235251D01*
X73497Y235086D01*
X73411Y234925D01*
X73406Y234908D01*
X73398Y234892D01*
X73349Y234715D01*
X73297Y234539D01*
X73295Y234522D01*
X73290Y234504D01*
X73277Y234321D01*
X73260Y234138D01*
X73262Y234121D01*
X73261Y234103D01*
X73284Y233921D01*
X73304Y233738D01*
X73309Y233721D01*
X73311Y233703D01*
X73370Y233530D01*
X73425Y233354D01*
X73434Y233339D01*
X73439Y233322D01*
X73531Y233163D01*
X73620Y233002D01*
X73632Y232988D01*
X73640Y232973D01*
X73855Y232720D01*
X75287Y231288D01*
X75287Y222684D01*
X75290Y222658D01*
X75288Y222631D01*
X75310Y222457D01*
X75327Y222283D01*
X75335Y222258D01*
X75338Y222231D01*
X75394Y222066D01*
X75445Y221899D01*
X75458Y221875D01*
X75467Y221850D01*
X75554Y221698D01*
X75637Y221545D01*
X75654Y221524D01*
X75667Y221501D01*
X75882Y221248D01*
X90185Y206945D01*
X90203Y206931D01*
X90217Y206914D01*
X90358Y206803D01*
X90497Y206690D01*
X90516Y206679D01*
X90534Y206665D01*
X90695Y206585D01*
X90853Y206501D01*
X90874Y206495D01*
X90894Y206485D01*
X91067Y206437D01*
X91238Y206386D01*
X91261Y206384D01*
X91282Y206378D01*
X91461Y206366D01*
X91639Y206350D01*
X91662Y206352D01*
X91684Y206351D01*
X91861Y206374D01*
X92040Y206393D01*
X92061Y206400D01*
X92083Y206403D01*
X92399Y206504D01*
X93401Y206919D01*
X95512Y206919D01*
X97462Y206111D01*
X98955Y204619D01*
X99763Y202668D01*
X99763Y200557D01*
X98955Y198606D01*
X97462Y197114D01*
X95512Y196306D01*
X93401Y196306D01*
X91450Y197114D01*
X91103Y197461D01*
X91082Y197478D01*
X91065Y197498D01*
X90927Y197605D01*
X90792Y197716D01*
X90768Y197728D01*
X90747Y197745D01*
X90590Y197823D01*
X90436Y197905D01*
X90410Y197912D01*
X90386Y197924D01*
X90217Y197970D01*
X90050Y198019D01*
X90023Y198022D01*
X89997Y198029D01*
X89667Y198056D01*
X89014Y198056D01*
X86336Y200734D01*
X68533Y218537D01*
X68513Y218554D01*
X68495Y218574D01*
X68357Y218681D01*
X68222Y218792D01*
X68198Y218804D01*
X68177Y218821D01*
X68021Y218898D01*
X67866Y218980D01*
X67841Y218988D01*
X67817Y219000D01*
X67647Y219045D01*
X67480Y219095D01*
X67454Y219097D01*
X67428Y219104D01*
X67097Y219132D01*
X66784Y219132D01*
X66771Y219130D01*
X66757Y219131D01*
X66571Y219110D01*
X66383Y219092D01*
X66371Y219088D01*
X66357Y219086D01*
X66179Y219029D01*
X65999Y218973D01*
X65987Y218967D01*
X65974Y218963D01*
X65810Y218872D01*
X65644Y218782D01*
X65634Y218773D01*
X65623Y218767D01*
X65479Y218644D01*
X65335Y218524D01*
X65327Y218514D01*
X65317Y218505D01*
X65200Y218356D01*
X65083Y218210D01*
X65077Y218198D01*
X65068Y218188D01*
X64983Y218019D01*
X64897Y217853D01*
X64894Y217840D01*
X64888Y217828D01*
X64838Y217646D01*
X64786Y217466D01*
X64785Y217453D01*
X64781Y217440D01*
X64768Y217252D01*
X64753Y217065D01*
X64755Y217052D01*
X64754Y217038D01*
X64778Y216850D01*
X64800Y216665D01*
X64804Y216652D01*
X64806Y216639D01*
X64907Y216323D01*
X65403Y215126D01*
X65418Y215098D01*
X65428Y215069D01*
X65513Y214921D01*
X65593Y214771D01*
X65613Y214747D01*
X65629Y214720D01*
X65844Y214467D01*
X71361Y208950D01*
X72933Y207378D01*
X73629Y205697D01*
X73629Y187382D01*
X73632Y187351D01*
X73630Y187319D01*
X73652Y187150D01*
X73669Y186981D01*
X73678Y186951D01*
X73682Y186920D01*
X73784Y186604D01*
X74363Y185206D01*
X74363Y183094D01*
X73555Y181144D01*
X72062Y179651D01*
X70112Y178843D01*
X68001Y178843D01*
X65928Y179702D01*
X65915Y179706D01*
X65904Y179712D01*
X65724Y179763D01*
X65543Y179818D01*
X65530Y179819D01*
X65517Y179823D01*
X65329Y179838D01*
X65142Y179856D01*
X65129Y179855D01*
X65115Y179856D01*
X64929Y179834D01*
X64742Y179815D01*
X64729Y179811D01*
X64716Y179809D01*
X64537Y179751D01*
X64357Y179695D01*
X64346Y179688D01*
X64333Y179684D01*
X64169Y179592D01*
X64004Y179502D01*
X63994Y179493D01*
X63982Y179486D01*
X63840Y179364D01*
X63696Y179242D01*
X63688Y179232D01*
X63677Y179223D01*
X63563Y179075D01*
X63445Y178928D01*
X63439Y178916D01*
X63431Y178905D01*
X63347Y178737D01*
X63261Y178569D01*
X63257Y178557D01*
X63251Y178545D01*
X63202Y178362D01*
X63151Y178182D01*
X63150Y178169D01*
X63147Y178156D01*
X63120Y177825D01*
X63120Y176775D01*
X61728Y173414D01*
X59155Y170841D01*
X58552Y170591D01*
X55794Y169449D01*
X52156Y169449D01*
G37*
%LPD*%
G36*
X200891Y59310D02*
X200891Y59310D01*
X200919Y59310D01*
X201017Y59346D01*
X201056Y59358D01*
X201064Y59364D01*
X201075Y59368D01*
X247875Y86368D01*
X247895Y86386D01*
X247920Y86397D01*
X247969Y86451D01*
X248024Y86499D01*
X248035Y86524D01*
X248054Y86544D01*
X248078Y86613D01*
X248109Y86679D01*
X248111Y86706D01*
X248120Y86731D01*
X248115Y86804D01*
X248118Y86877D01*
X248109Y86903D01*
X248107Y86930D01*
X248063Y87026D01*
X248049Y87064D01*
X248042Y87071D01*
X248038Y87081D01*
X245764Y90418D01*
X245741Y90440D01*
X245718Y90476D01*
X242972Y93437D01*
X242946Y93456D01*
X242918Y93488D01*
X239762Y96006D01*
X239733Y96021D01*
X239700Y96048D01*
X236204Y98068D01*
X236174Y98078D01*
X236137Y98101D01*
X232379Y99577D01*
X232347Y99582D01*
X232307Y99599D01*
X228371Y100499D01*
X228339Y100499D01*
X228297Y100510D01*
X224271Y100813D01*
X224240Y100809D01*
X224197Y100813D01*
X220170Y100512D01*
X220139Y100504D01*
X220096Y100501D01*
X216160Y99604D01*
X216131Y99591D01*
X216088Y99582D01*
X212329Y98108D01*
X212302Y98091D01*
X212262Y98076D01*
X208765Y96058D01*
X208741Y96037D01*
X208703Y96016D01*
X205545Y93500D01*
X205525Y93475D01*
X205491Y93449D01*
X202743Y90490D01*
X202727Y90463D01*
X202697Y90432D01*
X200421Y87096D01*
X200409Y87067D01*
X200384Y87032D01*
X198631Y83395D01*
X198623Y83364D01*
X198604Y83325D01*
X197412Y79467D01*
X197409Y79435D01*
X197396Y79394D01*
X196793Y75402D01*
X196794Y75370D01*
X196787Y75328D01*
X196786Y71290D01*
X196789Y71276D01*
X196787Y71266D01*
X196792Y71246D01*
X196791Y71216D01*
X197392Y67223D01*
X197403Y67193D01*
X197408Y67150D01*
X198597Y63291D01*
X198612Y63263D01*
X198624Y63222D01*
X200375Y59584D01*
X200392Y59562D01*
X200401Y59536D01*
X200451Y59483D01*
X200495Y59425D01*
X200519Y59412D01*
X200538Y59392D01*
X200604Y59362D01*
X200668Y59326D01*
X200695Y59323D01*
X200720Y59312D01*
X200793Y59311D01*
X200865Y59302D01*
X200891Y59310D01*
G37*
G36*
X224228Y305591D02*
X224228Y305591D01*
X224271Y305587D01*
X228297Y305890D01*
X228328Y305899D01*
X228371Y305901D01*
X232307Y306801D01*
X232336Y306814D01*
X232379Y306823D01*
X236137Y308299D01*
X236164Y308317D01*
X236204Y308332D01*
X239700Y310352D01*
X239724Y310373D01*
X239762Y310394D01*
X242918Y312912D01*
X242938Y312937D01*
X242972Y312963D01*
X245718Y315924D01*
X245734Y315951D01*
X245764Y315982D01*
X248038Y319319D01*
X248048Y319344D01*
X248065Y319365D01*
X248086Y319435D01*
X248115Y319502D01*
X248115Y319530D01*
X248122Y319556D01*
X248114Y319628D01*
X248114Y319701D01*
X248103Y319726D01*
X248100Y319753D01*
X248064Y319817D01*
X248036Y319884D01*
X248016Y319903D01*
X248003Y319926D01*
X247922Y319994D01*
X247892Y320022D01*
X247883Y320025D01*
X247875Y320032D01*
X201075Y347032D01*
X201049Y347041D01*
X201026Y347057D01*
X200955Y347072D01*
X200886Y347096D01*
X200859Y347093D01*
X200832Y347099D01*
X200761Y347086D01*
X200688Y347080D01*
X200663Y347067D01*
X200637Y347062D01*
X200576Y347022D01*
X200511Y346988D01*
X200494Y346967D01*
X200471Y346952D01*
X200410Y346866D01*
X200385Y346835D01*
X200382Y346826D01*
X200375Y346816D01*
X198624Y343178D01*
X198617Y343147D01*
X198597Y343109D01*
X197408Y339250D01*
X197405Y339218D01*
X197392Y339177D01*
X196791Y335184D01*
X196793Y335153D01*
X196786Y335110D01*
X196787Y331072D01*
X196793Y331043D01*
X196791Y331031D01*
X196793Y331023D01*
X196793Y330998D01*
X197396Y327006D01*
X197407Y326976D01*
X197412Y326933D01*
X198604Y323075D01*
X198619Y323047D01*
X198631Y323006D01*
X200384Y319368D01*
X200403Y319343D01*
X200421Y319304D01*
X202697Y315968D01*
X202720Y315946D01*
X202743Y315910D01*
X205491Y312951D01*
X205516Y312932D01*
X205545Y312900D01*
X208703Y310384D01*
X208731Y310369D01*
X208765Y310342D01*
X212262Y308324D01*
X212292Y308314D01*
X212329Y308292D01*
X216088Y306818D01*
X216120Y306812D01*
X216160Y306796D01*
X220096Y305899D01*
X220128Y305898D01*
X220170Y305888D01*
X224197Y305587D01*
X224228Y305591D01*
G37*
G36*
X97689Y59314D02*
X97689Y59314D01*
X97762Y59320D01*
X97787Y59333D01*
X97813Y59338D01*
X97874Y59378D01*
X97939Y59412D01*
X97956Y59433D01*
X97979Y59448D01*
X98040Y59534D01*
X98065Y59565D01*
X98068Y59574D01*
X98075Y59584D01*
X99826Y63222D01*
X99833Y63253D01*
X99853Y63291D01*
X101042Y67150D01*
X101045Y67182D01*
X101058Y67223D01*
X101659Y71216D01*
X101657Y71247D01*
X101664Y71290D01*
X101663Y75328D01*
X101657Y75359D01*
X101657Y75402D01*
X101054Y79394D01*
X101043Y79424D01*
X101038Y79467D01*
X99846Y83325D01*
X99831Y83353D01*
X99819Y83395D01*
X98066Y87032D01*
X98047Y87057D01*
X98029Y87096D01*
X95753Y90432D01*
X95730Y90454D01*
X95707Y90490D01*
X92959Y93449D01*
X92934Y93468D01*
X92905Y93500D01*
X89747Y96016D01*
X89719Y96031D01*
X89685Y96058D01*
X86188Y98076D01*
X86158Y98086D01*
X86121Y98108D01*
X82362Y99582D01*
X82330Y99588D01*
X82290Y99604D01*
X78354Y100501D01*
X78322Y100502D01*
X78280Y100512D01*
X74254Y100813D01*
X74222Y100809D01*
X74179Y100813D01*
X70153Y100510D01*
X70122Y100501D01*
X70079Y100499D01*
X66143Y99599D01*
X66114Y99586D01*
X66071Y99577D01*
X62313Y98101D01*
X62286Y98083D01*
X62246Y98068D01*
X58750Y96048D01*
X58726Y96027D01*
X58688Y96006D01*
X55532Y93488D01*
X55512Y93463D01*
X55478Y93437D01*
X52732Y90476D01*
X52716Y90449D01*
X52686Y90418D01*
X50412Y87081D01*
X50402Y87056D01*
X50385Y87035D01*
X50364Y86965D01*
X50335Y86898D01*
X50336Y86870D01*
X50328Y86844D01*
X50336Y86772D01*
X50336Y86699D01*
X50347Y86674D01*
X50350Y86647D01*
X50386Y86583D01*
X50414Y86516D01*
X50434Y86497D01*
X50447Y86474D01*
X50528Y86407D01*
X50558Y86378D01*
X50567Y86375D01*
X50576Y86368D01*
X97376Y59368D01*
X97401Y59359D01*
X97424Y59343D01*
X97495Y59328D01*
X97564Y59304D01*
X97591Y59307D01*
X97618Y59301D01*
X97689Y59314D01*
G37*
G36*
X78280Y305888D02*
X78280Y305888D01*
X78311Y305896D01*
X78354Y305899D01*
X82290Y306796D01*
X82319Y306809D01*
X82362Y306818D01*
X86121Y308292D01*
X86148Y308309D01*
X86188Y308324D01*
X89685Y310342D01*
X89709Y310363D01*
X89747Y310384D01*
X92905Y312900D01*
X92925Y312925D01*
X92959Y312951D01*
X95707Y315910D01*
X95723Y315937D01*
X95753Y315968D01*
X98029Y319304D01*
X98041Y319333D01*
X98066Y319368D01*
X99819Y323006D01*
X99827Y323036D01*
X99846Y323075D01*
X101038Y326933D01*
X101041Y326965D01*
X101054Y327006D01*
X101657Y330998D01*
X101656Y331030D01*
X101663Y331072D01*
X101664Y335110D01*
X101658Y335141D01*
X101659Y335184D01*
X101058Y339177D01*
X101047Y339207D01*
X101042Y339250D01*
X99853Y343109D01*
X99838Y343137D01*
X99826Y343178D01*
X98075Y346816D01*
X98058Y346838D01*
X98049Y346864D01*
X97999Y346917D01*
X97955Y346975D01*
X97931Y346988D01*
X97912Y347008D01*
X97846Y347038D01*
X97782Y347074D01*
X97755Y347077D01*
X97730Y347088D01*
X97657Y347089D01*
X97585Y347098D01*
X97559Y347090D01*
X97531Y347090D01*
X97433Y347054D01*
X97394Y347042D01*
X97386Y347036D01*
X97376Y347032D01*
X50576Y320032D01*
X50555Y320014D01*
X50530Y320003D01*
X50481Y319949D01*
X50427Y319901D01*
X50415Y319876D01*
X50396Y319856D01*
X50372Y319787D01*
X50341Y319721D01*
X50340Y319694D01*
X50330Y319669D01*
X50335Y319596D01*
X50332Y319523D01*
X50341Y319497D01*
X50343Y319470D01*
X50387Y319374D01*
X50401Y319336D01*
X50408Y319329D01*
X50412Y319319D01*
X52686Y315982D01*
X52709Y315960D01*
X52732Y315924D01*
X55478Y312963D01*
X55504Y312944D01*
X55532Y312912D01*
X58688Y310394D01*
X58717Y310379D01*
X58750Y310352D01*
X62246Y308332D01*
X62276Y308322D01*
X62313Y308299D01*
X66071Y306823D01*
X66103Y306818D01*
X66143Y306801D01*
X70079Y305901D01*
X70111Y305901D01*
X70153Y305890D01*
X74179Y305587D01*
X74210Y305591D01*
X74254Y305587D01*
X78280Y305888D01*
G37*
G36*
X-749Y175703D02*
X-749Y175703D01*
X-738Y175702D01*
X3286Y176004D01*
X3317Y176012D01*
X3360Y176015D01*
X7294Y176913D01*
X7323Y176926D01*
X7366Y176935D01*
X11122Y178409D01*
X11149Y178426D01*
X11190Y178441D01*
X14684Y180459D01*
X14708Y180480D01*
X14746Y180501D01*
X17901Y183017D01*
X17921Y183042D01*
X17956Y183068D01*
X20700Y186026D01*
X20717Y186053D01*
X20747Y186085D01*
X23020Y189419D01*
X23033Y189448D01*
X23058Y189483D01*
X24808Y193119D01*
X24816Y193150D01*
X24836Y193189D01*
X26025Y197045D01*
X26028Y197076D01*
X26042Y197118D01*
X26643Y201108D01*
X26642Y201140D01*
X26649Y201182D01*
X26649Y205218D01*
X26642Y205249D01*
X26643Y205292D01*
X26042Y209282D01*
X26031Y209312D01*
X26025Y209355D01*
X24836Y213211D01*
X24820Y213239D01*
X24808Y213281D01*
X23058Y216917D01*
X23038Y216942D01*
X23020Y216981D01*
X20747Y220315D01*
X20724Y220338D01*
X20700Y220374D01*
X17956Y223332D01*
X17930Y223351D01*
X17901Y223383D01*
X14746Y225899D01*
X14718Y225913D01*
X14684Y225941D01*
X11190Y227959D01*
X11159Y227969D01*
X11122Y227991D01*
X7366Y229465D01*
X7334Y229471D01*
X7294Y229487D01*
X3360Y230385D01*
X3328Y230386D01*
X3286Y230396D01*
X-738Y230698D01*
X-765Y230694D01*
X-792Y230699D01*
X-862Y230682D01*
X-935Y230673D01*
X-959Y230659D01*
X-985Y230653D01*
X-1044Y230610D01*
X-1107Y230573D01*
X-1123Y230551D01*
X-1145Y230535D01*
X-1182Y230472D01*
X-1226Y230414D01*
X-1233Y230387D01*
X-1247Y230364D01*
X-1264Y230260D01*
X-1274Y230221D01*
X-1272Y230211D01*
X-1274Y230200D01*
X-1274Y176200D01*
X-1269Y176173D01*
X-1271Y176146D01*
X-1249Y176077D01*
X-1235Y176005D01*
X-1219Y175983D01*
X-1211Y175957D01*
X-1163Y175901D01*
X-1122Y175841D01*
X-1099Y175827D01*
X-1081Y175806D01*
X-1016Y175774D01*
X-955Y175734D01*
X-928Y175730D01*
X-903Y175718D01*
X-799Y175708D01*
X-758Y175701D01*
X-749Y175703D01*
G37*
%LPC*%
G36*
X479163Y259806D02*
X479163Y259806D01*
X477213Y260614D01*
X475720Y262106D01*
X474912Y264057D01*
X474912Y266168D01*
X475720Y268119D01*
X476575Y268974D01*
X476592Y268994D01*
X476612Y269012D01*
X476719Y269150D01*
X476830Y269285D01*
X476843Y269309D01*
X476859Y269330D01*
X476937Y269487D01*
X477019Y269641D01*
X477026Y269666D01*
X477038Y269691D01*
X477084Y269860D01*
X477134Y270027D01*
X477136Y270053D01*
X477143Y270079D01*
X477170Y270410D01*
X477170Y286027D01*
X477167Y286054D01*
X477169Y286080D01*
X477147Y286254D01*
X477130Y286428D01*
X477122Y286453D01*
X477119Y286480D01*
X477063Y286645D01*
X477012Y286813D01*
X476999Y286836D01*
X476991Y286861D01*
X476903Y287013D01*
X476820Y287167D01*
X476803Y287187D01*
X476790Y287210D01*
X476575Y287463D01*
X476253Y287786D01*
X476232Y287803D01*
X476214Y287823D01*
X476076Y287930D01*
X475941Y288041D01*
X475917Y288053D01*
X475896Y288070D01*
X475739Y288148D01*
X475585Y288230D01*
X475560Y288237D01*
X475536Y288249D01*
X475366Y288295D01*
X475199Y288344D01*
X475173Y288347D01*
X475147Y288354D01*
X474816Y288381D01*
X473607Y288381D01*
X471656Y289189D01*
X470164Y290681D01*
X469356Y292632D01*
X469356Y294743D01*
X470164Y296694D01*
X471656Y298186D01*
X473322Y298876D01*
X473607Y298994D01*
X475718Y298994D01*
X477669Y298186D01*
X479161Y296694D01*
X479969Y294743D01*
X479969Y293534D01*
X479972Y293507D01*
X479970Y293480D01*
X479992Y293306D01*
X480009Y293133D01*
X480017Y293108D01*
X480020Y293081D01*
X480076Y292915D01*
X480127Y292748D01*
X480140Y292725D01*
X480149Y292699D01*
X480236Y292548D01*
X480319Y292394D01*
X480336Y292374D01*
X480349Y292350D01*
X480564Y292097D01*
X483267Y289394D01*
X483267Y270410D01*
X483270Y270383D01*
X483268Y270357D01*
X483290Y270183D01*
X483307Y270009D01*
X483315Y269984D01*
X483319Y269957D01*
X483374Y269792D01*
X483426Y269624D01*
X483438Y269601D01*
X483447Y269576D01*
X483534Y269424D01*
X483617Y269270D01*
X483634Y269250D01*
X483648Y269227D01*
X483862Y268974D01*
X484718Y268119D01*
X485525Y266168D01*
X485525Y264057D01*
X484718Y262106D01*
X483225Y260614D01*
X481274Y259806D01*
X479163Y259806D01*
G37*
%LPD*%
%LPC*%
G36*
X97369Y159000D02*
X97369Y159000D01*
X95419Y159807D01*
X93926Y161300D01*
X93118Y163251D01*
X93118Y165362D01*
X93926Y167312D01*
X95419Y168805D01*
X97369Y169613D01*
X99481Y169613D01*
X100879Y169034D01*
X100909Y169025D01*
X100937Y169011D01*
X101102Y168966D01*
X101265Y168917D01*
X101296Y168914D01*
X101326Y168906D01*
X101657Y168879D01*
X115289Y168879D01*
X115316Y168882D01*
X115342Y168880D01*
X115516Y168902D01*
X115690Y168919D01*
X115715Y168927D01*
X115742Y168930D01*
X115907Y168986D01*
X116075Y169037D01*
X116098Y169050D01*
X116123Y169058D01*
X116275Y169146D01*
X116429Y169229D01*
X116449Y169246D01*
X116472Y169259D01*
X116725Y169474D01*
X116850Y169599D01*
X118801Y170407D01*
X120912Y170407D01*
X122862Y169599D01*
X124355Y168106D01*
X125163Y166156D01*
X125163Y164044D01*
X124355Y162094D01*
X122862Y160601D01*
X122461Y160435D01*
X120912Y159793D01*
X120520Y159793D01*
X120489Y159790D01*
X120458Y159792D01*
X120289Y159770D01*
X120120Y159753D01*
X120090Y159744D01*
X120059Y159740D01*
X120038Y159734D01*
X101657Y159734D01*
X101626Y159730D01*
X101594Y159733D01*
X101425Y159710D01*
X101256Y159694D01*
X101226Y159684D01*
X101195Y159680D01*
X100879Y159579D01*
X99481Y159000D01*
X97369Y159000D01*
G37*
%LPD*%
%LPC*%
G36*
X144643Y309149D02*
X144643Y309149D01*
X139287Y314506D01*
X139287Y322082D01*
X144643Y327438D01*
X152219Y327438D01*
X157576Y322082D01*
X157576Y314506D01*
X152219Y309149D01*
X144643Y309149D01*
G37*
%LPD*%
%LPC*%
G36*
X512531Y78168D02*
X512531Y78168D01*
X509170Y79560D01*
X506597Y82132D01*
X505205Y85493D01*
X505205Y89132D01*
X506597Y92493D01*
X509170Y95065D01*
X510826Y95751D01*
X512531Y96457D01*
X513062Y96457D01*
X513066Y96458D01*
X513071Y96457D01*
X513265Y96477D01*
X513463Y96497D01*
X513467Y96498D01*
X513471Y96499D01*
X513659Y96557D01*
X513848Y96615D01*
X513851Y96617D01*
X513856Y96619D01*
X514030Y96714D01*
X514202Y96807D01*
X514205Y96810D01*
X514209Y96812D01*
X514362Y96941D01*
X514511Y97065D01*
X514514Y97068D01*
X514517Y97071D01*
X514641Y97226D01*
X514763Y97379D01*
X514765Y97382D01*
X514768Y97386D01*
X514860Y97565D01*
X514949Y97736D01*
X514950Y97740D01*
X514952Y97744D01*
X514961Y97776D01*
X514978Y97727D01*
X515037Y97543D01*
X515041Y97535D01*
X515044Y97527D01*
X515139Y97359D01*
X515233Y97192D01*
X515239Y97185D01*
X515243Y97177D01*
X515370Y97031D01*
X515495Y96886D01*
X515502Y96880D01*
X515508Y96874D01*
X515659Y96757D01*
X515812Y96638D01*
X515820Y96634D01*
X515827Y96628D01*
X516122Y96477D01*
X519530Y95065D01*
X522103Y92493D01*
X523495Y89132D01*
X523495Y85493D01*
X522103Y82132D01*
X519530Y79560D01*
X518625Y79185D01*
X516169Y78168D01*
X512531Y78168D01*
G37*
%LPD*%
%LPC*%
G36*
X52156Y118649D02*
X52156Y118649D01*
X48795Y120041D01*
X46222Y122614D01*
X44830Y125975D01*
X44830Y129613D01*
X46222Y132974D01*
X48795Y135546D01*
X52156Y136938D01*
X55794Y136938D01*
X59155Y135546D01*
X61728Y132974D01*
X63120Y129613D01*
X63120Y125975D01*
X61728Y122614D01*
X59155Y120041D01*
X55794Y118649D01*
X52156Y118649D01*
G37*
%LPD*%
%LPC*%
G36*
X52156Y144049D02*
X52156Y144049D01*
X48795Y145441D01*
X46222Y148014D01*
X44830Y151375D01*
X44830Y155013D01*
X46222Y158374D01*
X48795Y160946D01*
X52156Y162338D01*
X55794Y162338D01*
X59155Y160946D01*
X61728Y158374D01*
X63120Y155013D01*
X63120Y151375D01*
X61728Y148014D01*
X59155Y145441D01*
X56123Y144185D01*
X55794Y144049D01*
X52156Y144049D01*
G37*
%LPD*%
%LPC*%
G36*
X490556Y65429D02*
X490556Y65429D01*
X487195Y66822D01*
X484623Y69394D01*
X483230Y72755D01*
X483230Y76393D01*
X484623Y79754D01*
X487195Y82327D01*
X490181Y83564D01*
X490182Y83564D01*
X490556Y83719D01*
X494194Y83719D01*
X497555Y82327D01*
X500128Y79754D01*
X501520Y76393D01*
X501520Y72755D01*
X500128Y69394D01*
X497555Y66822D01*
X494194Y65429D01*
X490556Y65429D01*
G37*
%LPD*%
%LPC*%
G36*
X404002Y266971D02*
X404002Y266971D01*
X402051Y267779D01*
X400559Y269271D01*
X399751Y271222D01*
X399751Y272431D01*
X399748Y272458D01*
X399750Y272485D01*
X399728Y272659D01*
X399711Y272832D01*
X399703Y272857D01*
X399700Y272884D01*
X399644Y273050D01*
X399593Y273217D01*
X399580Y273240D01*
X399571Y273266D01*
X399484Y273417D01*
X399401Y273571D01*
X399384Y273591D01*
X399371Y273615D01*
X399156Y273868D01*
X397001Y276022D01*
X397001Y286009D01*
X396999Y286035D01*
X397001Y286062D01*
X396979Y286236D01*
X396961Y286409D01*
X396954Y286435D01*
X396950Y286461D01*
X396895Y286627D01*
X396843Y286794D01*
X396830Y286818D01*
X396822Y286843D01*
X396735Y286995D01*
X396651Y287148D01*
X396634Y287169D01*
X396621Y287192D01*
X396406Y287445D01*
X395642Y288209D01*
X394834Y290160D01*
X394834Y292271D01*
X395642Y294222D01*
X397135Y295714D01*
X399085Y296522D01*
X401196Y296522D01*
X403147Y295714D01*
X404640Y294222D01*
X405447Y292271D01*
X405447Y290160D01*
X404640Y288209D01*
X403694Y287264D01*
X403677Y287243D01*
X403656Y287225D01*
X403549Y287087D01*
X403439Y286952D01*
X403426Y286928D01*
X403410Y286907D01*
X403332Y286750D01*
X403250Y286596D01*
X403242Y286571D01*
X403230Y286547D01*
X403185Y286377D01*
X403135Y286210D01*
X403133Y286184D01*
X403126Y286158D01*
X403099Y285827D01*
X403099Y279615D01*
X403101Y279598D01*
X403099Y279580D01*
X403120Y279398D01*
X403139Y279215D01*
X403144Y279198D01*
X403146Y279180D01*
X403203Y279006D01*
X403257Y278830D01*
X403265Y278814D01*
X403271Y278797D01*
X403361Y278637D01*
X403449Y278476D01*
X403460Y278462D01*
X403469Y278447D01*
X403589Y278307D01*
X403706Y278167D01*
X403720Y278155D01*
X403732Y278142D01*
X403877Y278029D01*
X404020Y277914D01*
X404036Y277906D01*
X404050Y277895D01*
X404215Y277813D01*
X404377Y277729D01*
X404394Y277724D01*
X404410Y277716D01*
X404589Y277668D01*
X404764Y277617D01*
X404782Y277616D01*
X404799Y277611D01*
X405130Y277584D01*
X406113Y277584D01*
X408064Y276776D01*
X409556Y275284D01*
X410364Y273333D01*
X410364Y271222D01*
X409556Y269271D01*
X408064Y267779D01*
X406113Y266971D01*
X404002Y266971D01*
G37*
%LPD*%
D10*
X45244Y242450D03*
X45244Y227450D03*
D11*
X149225Y368400D03*
X299945Y280720D03*
X299945Y125680D03*
X149225Y38000D03*
X77725Y327100D03*
X220725Y327100D03*
X220725Y79300D03*
X77725Y79300D03*
X449225Y368400D03*
X592325Y285800D03*
X592325Y120600D03*
X449225Y38000D03*
X6158Y285800D03*
X6158Y120600D03*
X6125Y203200D03*
D12*
X148431Y318294D03*
D13*
X68263Y225656D03*
X68263Y242656D03*
D14*
X53975Y178594D03*
X53975Y153194D03*
X53975Y127794D03*
D15*
X568975Y239875D03*
X548975Y165875D03*
D16*
X434975Y195375D03*
D17*
X474975Y239875D03*
D18*
X287256Y228994D03*
X287256Y203994D03*
X287256Y178994D03*
X311256Y228994D03*
X311256Y203994D03*
X311256Y178994D03*
D14*
X492375Y74574D03*
X514350Y87313D03*
X536325Y100051D03*
D10*
X443350Y316706D03*
X458350Y316706D03*
D13*
X424656Y312175D03*
X424656Y329175D03*
D14*
X504123Y323812D03*
X526164Y311188D03*
D19*
X107950Y298219D03*
D20*
X60325Y213519D02*
X59482Y213212D01*
D21*
X45244Y227450D01*
D19*
X60325Y213519D03*
X182563Y307975D03*
X206375Y301625D03*
D21*
X188913Y301625D01*
X182563Y307975D01*
X69056Y204788D02*
X60325Y213519D01*
X69056Y204788D02*
X69056Y184150D01*
D19*
X69056Y184150D03*
D20*
X458350Y316706D02*
X458971Y316706D01*
X463889Y311788D01*
X525564Y311788D02*
X526164Y311188D01*
X525564Y311788D02*
X463889Y311788D01*
D19*
X211931Y116681D03*
X236538Y117475D03*
D21*
X235744Y116681D01*
X211931Y116681D01*
D19*
X506413Y237331D03*
X546894Y237331D03*
D21*
X506413Y237331D01*
D19*
X98425Y164306D03*
X119856Y165100D03*
D21*
X119063Y164306D02*
X98425Y164306D01*
X119063Y164306D02*
X119856Y165100D01*
D19*
X46038Y253206D03*
X69850Y256381D03*
D21*
X49213Y256381D02*
X46038Y253206D01*
X49213Y256381D02*
X69850Y256381D01*
D19*
X490538Y335756D03*
D21*
X491034Y335260D01*
X491034Y318390D01*
X498701Y310722D01*
X509545Y310722D01*
X510011Y311188D01*
X526164Y311188D01*
D19*
X506413Y129381D03*
D22*
X416719Y129381D01*
D19*
X416719Y129381D03*
X454025Y273844D03*
D23*
X454025Y230981D02*
X453363Y230319D01*
X454025Y230981D02*
X454025Y273844D01*
D19*
X453363Y230319D03*
D22*
X416719Y129381D02*
X330994Y129381D01*
X316421Y143955D02*
X228537Y143955D01*
D21*
X228029Y144463D01*
D22*
X177800Y144463D01*
X137319Y184944D01*
X137319Y251333D02*
X107807Y280845D01*
X137319Y251333D02*
X137319Y184944D01*
D19*
X107807Y280845D03*
D22*
X316421Y143955D02*
X330994Y129381D01*
D23*
X453363Y220729D02*
X453363Y230319D01*
X458298Y215794D02*
X458298Y190394D01*
X458298Y215794D02*
X453363Y220729D01*
D19*
X458298Y190394D03*
D20*
X68263Y242656D02*
X51151Y242656D01*
X51066Y242978D01*
X51156Y242888D01*
X45244Y242450D01*
D24*
X220725Y326231D02*
X220725Y327100D01*
D19*
X196056Y313531D03*
D24*
X208025Y313531D02*
X220725Y326231D01*
X208025Y313531D02*
X196056Y313531D01*
D19*
X228317Y106736D03*
D24*
X228317Y86892D01*
X220725Y79300D01*
D19*
X33338Y207169D03*
D24*
X29369Y203200D01*
X6125Y203200D01*
X119643Y121218D02*
X77725Y79300D01*
D19*
X162149Y121218D03*
D24*
X119643Y121218D01*
X77725Y309948D02*
X77725Y327100D01*
X77725Y309948D02*
X54321Y286544D01*
D19*
X54321Y286544D03*
D20*
X68263Y223838D02*
X90488Y201613D01*
X68263Y223838D02*
X68263Y225656D01*
X90488Y201613D02*
X94456Y201613D01*
D19*
X94456Y201613D03*
X496888Y180975D03*
D20*
X475456Y159544D01*
D19*
X404813Y159544D03*
D20*
X475456Y159544D01*
D19*
X371247Y222364D03*
X423069Y258877D03*
D20*
X407759Y258877D02*
X371247Y222364D01*
X407759Y258877D02*
X423069Y258877D01*
D19*
X408166Y231596D03*
D24*
X343257Y166688D01*
X238125Y166688D02*
X205816Y198997D01*
D25*
X205256Y199556D01*
X204391Y199556D01*
D19*
X204391Y199556D03*
D24*
X238125Y166688D02*
X343257Y166688D01*
D19*
X414734Y222647D03*
D24*
X411559Y222647D01*
X350044Y161131D02*
X232334Y161131D01*
X204391Y189075D01*
D19*
X204391Y189075D03*
D24*
X350044Y161131D02*
X411559Y222647D01*
D19*
X408781Y208756D03*
D24*
X355600Y155575D01*
X226616Y155575D02*
X204391Y177800D01*
X226616Y155575D02*
X355600Y155575D01*
D19*
X204391Y177800D03*
X515144Y105569D03*
D20*
X572944Y235906D02*
X568975Y239875D01*
X572944Y235906D02*
X572944Y136688D01*
X549763Y113506D01*
X523081Y113506D01*
X515144Y105569D01*
D19*
X532606Y124619D03*
D20*
X548975Y140988D02*
X548975Y165875D01*
X548975Y140988D02*
X532606Y124619D01*
D19*
X495300Y94456D03*
D20*
X495300Y101600D01*
X519906Y126206D01*
X519906Y210414D01*
X488625Y239875D01*
X474975Y239875D01*
D19*
X462411Y168275D03*
X337344Y204788D03*
D20*
X368300Y204788D02*
X407194Y243681D01*
X418306Y243681D01*
X424656Y237331D01*
X424656Y218163D01*
X417657Y211164D01*
X368300Y204788D02*
X337344Y204788D01*
X417657Y211164D02*
X417657Y179243D01*
X457648Y173038D02*
X462411Y168275D01*
X457648Y173038D02*
X423863Y173038D01*
X417657Y179243D01*
D24*
X336944Y178994D02*
X311256Y178994D01*
X336944Y178994D02*
X338931Y177006D01*
D19*
X338931Y177006D03*
D24*
X311256Y178994D02*
X287256Y178994D01*
X311256Y203994D02*
X311256Y228994D01*
X311256Y203994D02*
X317825Y203994D01*
X334963Y186856D02*
X338931Y186856D01*
X334963Y186856D02*
X317825Y203994D01*
D19*
X338931Y186856D03*
D24*
X287256Y203994D02*
X287256Y228994D01*
X287256Y203994D02*
X286463Y203994D01*
X268288Y185819D01*
X268288Y174625D01*
D19*
X268288Y174625D03*
X400141Y291216D03*
X405058Y272278D03*
D24*
X400050Y291125D02*
X400141Y291216D01*
X400050Y291125D02*
X400050Y277285D01*
X405058Y272278D01*
D19*
X455613Y336550D03*
D20*
X432031Y336550D02*
X424656Y329175D01*
X432031Y336550D02*
X455613Y336550D01*
D19*
X203994Y227806D03*
D20*
X241300Y265113D01*
X403225Y329175D02*
X424656Y329175D01*
X403225Y329175D02*
X339163Y265113D01*
X241300Y265113D01*
D19*
X474663Y293688D03*
D24*
X480219Y288131D01*
X480219Y265113D01*
D19*
X480219Y265113D03*
D20*
X438819Y312175D02*
X443350Y316706D01*
X438819Y312175D02*
X424656Y312175D01*
M02*
